G04 DipTrace 3.0.0.0*
G04 BottomSilk.gbr*
%MOIN*%
G04 #@! TF.FileFunction,Legend,Bot*
G04 #@! TF.Part,Single*
%ADD60C,0.015439*%
%FSLAX26Y26*%
G04*
G70*
G90*
G75*
G01*
G04 BotSilk*
%LPD*%
X2063541Y467484D2*
D60*
X2101898Y567965D1*
X2140145Y467484D1*
X2125775Y500978D2*
X2077911D1*
X2032663Y534471D2*
Y486608D1*
X2027910Y472348D1*
X2018293Y467484D1*
X2003923D1*
X1994416Y472348D1*
X1980046Y486608D1*
Y534471D2*
Y467484D1*
X1891798Y567965D2*
Y467484D1*
Y520101D2*
X1901304Y529718D1*
X1910921Y534471D1*
X1925291D1*
X1934798Y529718D1*
X1944414Y520101D1*
X1949168Y505731D1*
Y496225D1*
X1944414Y481855D1*
X1934798Y472348D1*
X1925291Y467484D1*
X1910921D1*
X1901304Y472348D1*
X1891798Y481855D1*
X1860919Y567965D2*
X1856166Y563211D1*
X1851302Y567965D1*
X1856166Y572828D1*
X1860919Y567965D1*
X1856166Y534471D2*
Y467484D1*
X1796548Y534471D2*
X1806054Y529718D1*
X1815671Y520101D1*
X1820424Y505731D1*
Y496225D1*
X1815671Y481855D1*
X1806054Y472348D1*
X1796548Y467484D1*
X1782177D1*
X1772561Y472348D1*
X1763054Y481855D1*
X1758190Y496225D1*
Y505731D1*
X1763054Y520101D1*
X1772561Y529718D1*
X1782177Y534471D1*
X1796548D1*
X1727312Y567965D2*
Y467484D1*
X1696433Y534471D2*
Y486608D1*
X1691680Y472348D1*
X1682063Y467484D1*
X1667693D1*
X1658187Y472348D1*
X1643817Y486608D1*
Y534471D2*
Y467484D1*
X1612938Y534471D2*
X1560322Y467484D1*
Y534471D2*
X1612938Y467484D1*
X1432241Y567965D2*
Y467484D1*
X1389131D1*
X1374761Y472348D1*
X1370008Y477101D1*
X1365255Y486608D1*
Y500978D1*
X1370008Y510595D1*
X1374761Y515348D1*
X1389131Y520101D1*
X1374761Y524965D1*
X1370008Y529718D1*
X1365255Y539224D1*
Y548841D1*
X1370008Y558348D1*
X1374761Y563211D1*
X1389131Y567965D1*
X1432241D1*
Y520101D2*
X1389131D1*
X1262636Y544088D2*
X1267390Y553594D1*
X1277006Y563211D1*
X1286513Y567965D1*
X1305636D1*
X1315253Y563211D1*
X1324759Y553594D1*
X1329623Y544088D1*
X1334376Y529718D1*
Y505731D1*
X1329623Y491471D1*
X1324759Y481855D1*
X1315253Y472348D1*
X1305636Y467484D1*
X1286513D1*
X1277006Y472348D1*
X1267390Y481855D1*
X1262636Y491471D1*
X1129692Y543978D2*
Y548731D1*
X1124939Y558348D1*
X1120186Y563101D1*
X1110569Y567854D1*
X1091446D1*
X1081939Y563101D1*
X1077186Y558348D1*
X1072322Y548731D1*
Y539224D1*
X1077186Y529607D1*
X1086693Y515348D1*
X1134556Y467484D1*
X1067569D1*
X979321Y567854D2*
X1027074D1*
X1031827Y524854D1*
X1027074Y529607D1*
X1012704Y534471D1*
X998444D1*
X984074Y529607D1*
X974457Y520101D1*
X969704Y505731D1*
Y496225D1*
X974457Y481855D1*
X984074Y472238D1*
X998444Y467484D1*
X1012704D1*
X1027074Y472238D1*
X1031827Y477101D1*
X1036691Y486608D1*
X938826Y517669D2*
X883556D1*
X795308Y567854D2*
X843061D1*
X847814Y524854D1*
X843061Y529607D1*
X828691Y534471D1*
X814431D1*
X800061Y529607D1*
X790444Y520101D1*
X785691Y505731D1*
Y496225D1*
X790444Y481855D1*
X800061Y472238D1*
X814431Y467484D1*
X828691D1*
X843061Y472238D1*
X847814Y477101D1*
X852678Y486608D1*
X754812Y567965D2*
X716566Y467484D1*
X678319Y567965D1*
X1691149Y697369D2*
X1648149D1*
X1633779Y702233D1*
X1628915Y706986D1*
X1624162Y716492D1*
Y726109D1*
X1628915Y735615D1*
X1633779Y740479D1*
X1648149Y745232D1*
X1691149D1*
Y644752D1*
X1657655Y697369D2*
X1624162Y644752D1*
X1531160Y745232D2*
X1593283D1*
Y644752D1*
X1531160D1*
X1593283Y697369D2*
X1555037D1*
X1500282Y745232D2*
X1462035Y644752D1*
X1423789Y745232D1*
X1388157Y654369D2*
X1392910Y649505D1*
X1388157Y644752D1*
X1383294Y649505D1*
X1388157Y654369D1*
X1275811Y644752D2*
X1314169Y745232D1*
X1352415Y644752D1*
X1338045Y678246D2*
X1290182D1*
M02*
