G04 DipTrace 3.0.0.0*
G04 BottomMask.gbr*
%MOIN*%
G04 #@! TF.FileFunction,Soldermask,Bot*
G04 #@! TF.Part,Single*
%ADD40C,0.059055*%
%ADD43C,0.127953*%
%ADD47C,0.086614*%
%ADD48C,0.066929*%
%FSLAX26Y26*%
G04*
G70*
G90*
G75*
G01*
G04 BotMask*
%LPD*%
D48*
X2165105Y1939764D3*
X2115105Y1839764D3*
X2065105Y1939764D3*
X2015105Y1839764D3*
X1965105Y1939764D3*
X1915105Y1839764D3*
X1865105Y1939764D3*
X1815105Y1839764D3*
D43*
X2215105Y2189764D3*
X1765105D3*
D48*
X904630Y1939764D3*
X854630Y1839764D3*
X804630Y1939764D3*
X754630Y1839764D3*
X704630Y1939764D3*
X654630Y1839764D3*
X604630Y1939764D3*
X554630Y1839764D3*
D43*
X954630Y2189764D3*
X504630D3*
D48*
X1535241Y1939764D3*
X1485241Y1839764D3*
X1435241Y1939764D3*
X1385241Y1839764D3*
X1335241Y1939764D3*
X1285241Y1839764D3*
X1235241Y1939764D3*
X1185241Y1839764D3*
D43*
X1585241Y2189764D3*
X1135241D3*
D40*
X517999Y1348715D3*
Y1427455D3*
Y1506196D3*
D47*
Y1266038D3*
Y1588873D3*
X654646Y934252D3*
X704646Y1034252D3*
X754646Y934252D3*
X804646Y1034252D3*
D43*
X879665Y684262D3*
X579665Y684261D3*
D47*
X1915118Y934252D3*
X1965118Y1034252D3*
X2015118Y934252D3*
X2065118Y1034252D3*
D43*
X2140138Y684262D3*
X1840138Y684261D3*
M02*
