M48
INCH
T01C0.013
T02C0.0315
T03C0.035
T04C0.0591
T05C0.128
%
T01
X+019200Y+013561
X+019216Y+013117
X+019637Y+013107
X+020193Y+012989
X+020186Y+013349
X+020212Y+013693
X+019642Y+013710
X+019762Y+014279
X+020153Y+014490
X+019134Y+014268
X+019417Y+015237
X+018659Y+015188
X+018704Y+015916
X+020468Y+016466
X+020151Y+017441
X+021681Y+015744
X+021993Y+015396
X+022529Y+015281
X+022330Y+016406
X+020917Y+013588
X+020440Y+012108
X+018931Y+011691
X+021845Y+011025
X+022326Y+011378
X+007546Y+013504
T02
X+005180Y+013487
X+005180Y+014275
X+005180Y+015062
T03
X+021651Y+019398
X+020651Y+019398
X+019651Y+019398
X+018651Y+019398
X+019151Y+018398
X+018151Y+018398
X+020151Y+018398
X+021151Y+018398
X+015352Y+019398
X+014352Y+019398
X+013352Y+019398
X+012352Y+019398
X+012852Y+018398
X+011852Y+018398
X+013852Y+018398
X+014852Y+018398
X+009046Y+019398
X+008046Y+019398
X+007046Y+019398
X+006046Y+019398
X+005546Y+018398
X+006546Y+018398
X+007546Y+018398
X+008546Y+018398
X+008046Y+010343
X+007046Y+010343
X+007546Y+009343
X+006546Y+009343
X+019151Y+009343
X+020151Y+009343
X+019651Y+010343
X+020651Y+010343
T04
X+005180Y+012660
X+005180Y+015889
T05
X+022151Y+021898
X+017651Y+021898
X+015852Y+021898
X+011352Y+021898
X+009546Y+021898
X+005046Y+021898
X+005797Y+006843
X+008797Y+006843
X+018401Y+006843
X+021401Y+006843
T00
M30
