G04 DipTrace 3.0.0.0*
G04 Top.gbr*
%MOIN*%
G04 #@! TF.FileFunction,Copper,L1,Top*
G04 #@! TF.Part,Single*
G04 #@! TA.AperFunction,Conductor*
%ADD14C,0.006*%
G04 #@! TA.AperFunction,ComponentPad*
%ADD15C,0.07874*%
G04 #@! TA.AperFunction,Conductor*
%ADD16C,0.03937*%
%ADD17C,0.011811*%
%ADD18C,0.007874*%
%ADD19C,0.031496*%
%ADD20C,0.035433*%
%ADD21C,0.019685*%
G04 #@! TA.AperFunction,CopperBalancing*
%ADD22C,0.025*%
%ADD23C,0.012992*%
%ADD25R,0.015748X0.011811*%
%ADD27R,0.011811X0.015748*%
%ADD28R,0.145669X0.062992*%
%ADD30R,0.086614X0.111417*%
%ADD31R,0.035433X0.111417*%
%ADD32R,0.035433X0.027559*%
%ADD33R,0.027559X0.035433*%
%ADD34R,0.062992X0.102362*%
%ADD36R,0.062992X0.031496*%
%ADD37R,0.19685X0.122047*%
%ADD39R,0.035433X0.015748*%
G04 #@! TA.AperFunction,ComponentPad*
%ADD40C,0.059055*%
%ADD41C,0.051181*%
G04 #@! TA.AperFunction,ViaPad*
%ADD42C,0.04*%
%FSLAX26Y26*%
G04*
G70*
G90*
G75*
G01*
G04 Top*
%LPD*%
X1965118Y1034252D2*
D14*
X1832984D1*
X1745340Y946608D1*
X1025636D1*
X987562Y984682D1*
X677164D1*
X653853Y1007993D1*
Y1414236D1*
X669609D1*
X691685Y1436312D1*
X799274D1*
X517999Y1427455D2*
X519218Y1426236D1*
X641853D1*
X653853Y1414236D1*
X799274Y1436312D2*
X822055D1*
Y1413063D1*
X833534Y1401584D1*
X853936D1*
X1003446Y1319129D2*
X979269D1*
X967268Y1331130D1*
Y1350403D1*
X940550D1*
X892654D1*
X880654Y1338403D1*
Y1264140D1*
X704646Y1088133D1*
Y1034252D1*
X1915118Y934252D2*
D15*
X1856724Y875858D1*
X1528052D1*
X2165105Y1939764D2*
X2065105D1*
X1867290Y1439601D2*
D14*
X1857060D1*
X1850241Y1432782D1*
Y1362829D1*
Y1341719D1*
X1854722Y1337239D1*
X1867290D1*
X1942913Y1172110D2*
X1893115D1*
Y1169101D1*
X1942602Y1219366D2*
Y1172110D1*
X1942913D1*
X1867290Y1286058D2*
Y1233543D1*
X1881467Y1219366D1*
X1942602D1*
X1867290Y1311648D2*
Y1286058D1*
Y1337239D2*
Y1311648D1*
X1850241Y1362829D2*
X1867290D1*
X1961778Y1436648D2*
D17*
Y1439601D1*
X1911623D1*
X1867290D1*
X2056266D2*
D14*
Y1436648D1*
X2015307D1*
X1961778D1*
X1176543Y875858D2*
D15*
X1151835Y807756D1*
X670339D1*
X654646Y867419D1*
Y934252D1*
X1352017Y875858D2*
X1176543D1*
X1528052D2*
X1352017D1*
X1435241Y1939764D2*
X1444104D1*
X1352765Y2031102D1*
X995969D1*
X904630Y1939764D1*
X1535241D2*
X1435241D1*
X2065105D2*
X2077925D1*
X1994211Y2023478D1*
X1618955D1*
X1535241Y1939764D1*
X1913352Y1426848D2*
D17*
X1911623Y1439601D1*
X1976241Y1427932D2*
X1961778D1*
Y1436648D1*
X2015307Y1449033D2*
D14*
Y1436648D1*
X1791104Y1677944D2*
X1790257Y1636012D1*
X799274Y1385131D2*
X818581D1*
X827719Y1375993D1*
X853936D1*
X1003446Y1370310D2*
D18*
X1040115D1*
Y1032361D1*
D16*
X1054886Y1017591D1*
X1176543D1*
X1528052D2*
D19*
X1704508D1*
X1785482Y1098564D1*
X2000806D1*
X2065118Y1034252D1*
X1361888Y1225970D2*
D16*
X1403531D1*
X1443476Y1186025D1*
Y1029594D1*
X1455480Y1017591D1*
X1528052D1*
X1790257Y1636012D2*
D20*
Y1624661D1*
X1749531Y1583936D1*
Y1134514D1*
X1785482Y1098564D1*
X1352017Y1017591D2*
D16*
X1431472D1*
X1443476Y1029594D1*
X1176543Y1017591D2*
X1352017D1*
X1040115Y1032361D2*
X1042007Y1034252D1*
X804646D1*
X940550Y1375993D2*
D14*
X973584D1*
X979268Y1370310D1*
X1003446D1*
X853936Y1375993D2*
X940550D1*
X2016896Y1335664D2*
Y1335395D1*
Y1301913D1*
X2025755Y1293055D1*
Y1261451D1*
X1185241Y1839764D2*
D16*
X1187079Y1837927D1*
Y1788979D1*
X1093609Y1695509D1*
X535386D1*
X505526Y1725369D1*
Y1794172D1*
X551118Y1839764D1*
X654630D1*
X1916841Y1744087D2*
Y1776370D1*
X1915105Y1778106D1*
Y1839764D1*
X1870441Y1591567D2*
D14*
X1901217D1*
X1923228Y1613579D1*
Y1623801D1*
X2043974Y1210760D2*
Y1172110D1*
X1994094D1*
X2056266Y1388420D2*
Y1362829D1*
X1865894Y1518799D2*
X1900709D1*
X1916597Y1502911D1*
Y1497843D1*
X1924642Y1489798D1*
X1923392D1*
X2056266Y1362829D2*
X2091699D1*
Y1358797D1*
X2056266Y1337239D2*
Y1362829D1*
Y1311648D2*
Y1337239D1*
Y1286058D2*
Y1311648D1*
X2025755Y1261451D2*
X2056266D1*
Y1286058D1*
X554630Y1839764D2*
Y1784577D1*
X558228Y1780979D1*
Y1740920D1*
X654630Y1839764D2*
D15*
X554630D1*
X1815105D2*
D16*
X1812694Y1842175D1*
X1759748Y1780294D1*
X1337482D1*
X1294631Y1823144D1*
Y1849154D1*
X1285241Y1839764D1*
X1915105D2*
D15*
X1815105D1*
X1994094Y1172110D2*
D14*
Y1219366D1*
X1993783D1*
X2000164Y1261451D2*
X2025755D1*
X2018552Y1334869D2*
X2016896Y1335395D1*
X2019290Y1298871D2*
X2016896Y1301913D1*
X2015106Y1744087D2*
X1968022D1*
Y1730811D1*
X1954970Y1717759D1*
X1570541D1*
X1545201Y1743098D1*
X1208236D1*
X1175115Y1709978D1*
Y1413587D1*
X1163113Y1401584D1*
X940550D1*
X2252860Y1528117D2*
X2233448Y1508705D1*
X2158745D1*
X2119802Y1547648D1*
X2106299D1*
X2233016Y1640602D2*
X2118299D1*
X2106087Y1628390D1*
Y1598755D1*
X754630Y1839764D2*
X655786Y1740920D1*
X609409D1*
X853936Y1350403D2*
X754630Y1350406D1*
X2168138Y1574366D2*
Y1575333D1*
X2046427D1*
X2025755Y1554663D1*
Y1489798D1*
X1811024Y1528379D2*
X1781543D1*
Y1413205D1*
X1811024D1*
Y1147789D1*
X1833487Y1125325D1*
X2161727D1*
X2184518Y1102533D1*
X1361888Y1662978D2*
X1486249D1*
X1525329Y1702058D1*
X2274781D1*
X2289780Y1687059D1*
Y1507495D1*
X2272654Y1490369D1*
X2106299D1*
Y1496467D1*
X2272654Y1490369D2*
X2290627Y1472396D1*
Y1258836D1*
X2274823Y1243031D1*
X1981938D1*
X1974573Y1250396D1*
Y1261451D1*
X1923392D2*
Y1256929D1*
X1948983D1*
Y1261451D1*
X1897802D2*
Y1256696D1*
X1923392D1*
X1942093Y1335664D2*
D17*
X1934971D1*
X1918047Y1352588D1*
X1882215Y1388420D1*
X1867290D1*
X1923392Y1261451D2*
Y1311437D1*
Y1335664D1*
X1942093D1*
X2106299Y1496467D2*
D14*
Y1448608D1*
X2108268D1*
X1974573Y1261451D2*
Y1279895D1*
Y1295024D1*
X1942093Y1327504D1*
Y1335664D1*
X2106299Y1496467D2*
X2068268D1*
X2056266Y1484466D1*
Y1465192D1*
X1920046Y1356127D2*
D17*
X1918047Y1352588D1*
X1921588Y1311694D2*
X1923392Y1311437D1*
X1963710Y1310667D2*
D14*
X1974573Y1279895D1*
X2046835Y1646583D2*
X1987903D1*
X1974409Y1633089D1*
Y1623801D1*
X1941709Y1523673D2*
X1948983Y1516399D1*
Y1489798D1*
X2247618Y1452996D2*
D21*
X2190554D1*
X2186165Y1448608D1*
X2159449D1*
D17*
Y1428755D1*
X2144705Y1414010D1*
X2056266D1*
X1897802Y1489798D2*
D21*
X1887257D1*
X1865415Y1467955D1*
X1867290Y1465192D1*
X2199301Y1539563D2*
D14*
Y1586570D1*
X2199016Y1586854D1*
X2247618D1*
X2232562Y1137836D2*
X2232060Y1138339D1*
X1850504D1*
X1835199Y1153643D1*
Y1452386D1*
X1833803D1*
Y1464386D1*
D21*
X1811024D1*
D14*
X1814846Y1452386D1*
X1833803D1*
X1867290Y1465192D2*
D21*
X1835378D1*
D18*
Y1542962D1*
X1848741Y1556325D1*
X1923228D1*
Y1565378D1*
X1974573Y1489798D2*
D14*
X1974409Y1565378D1*
X1811024Y1579560D2*
X1820071D1*
X1837340Y1596829D1*
Y1636012D1*
X1841438D1*
X2054906Y1598755D2*
X2023647D1*
X2002343Y1577450D1*
Y1489798D1*
X2000164D1*
X1842285Y1677944D2*
X2063835D1*
X2079175Y1662604D1*
Y1608723D1*
X2069206Y1598755D1*
X2054906D1*
X1841438Y1636012D2*
X1842285Y1677944D1*
D42*
X1920046Y1356127D3*
X1964223Y1371025D3*
X1921588Y1311694D3*
X1963710Y1310667D3*
X1893115Y1169101D3*
X1865894Y1518799D3*
X2043974Y1210760D3*
X2091699Y1358797D3*
X1870441Y1591567D3*
X2015106Y1744087D3*
X754630Y1350406D3*
X1941709Y1523673D3*
X2046835Y1646583D3*
X2199301Y1539563D3*
X2232562Y1137836D3*
X2252860Y1528117D3*
X2233016Y1640602D3*
X2168138Y1574366D3*
X2184518Y1102533D3*
X2021202Y1369323D3*
X2018552Y1334869D3*
X2019290Y1298871D3*
X1913352Y1426848D3*
X1976241Y1427932D3*
X2015307Y1449033D3*
X1865808Y1202656D2*
D22*
X1947381D1*
X1865808Y1177787D2*
X1947381D1*
X1878392Y1227085D2*
X1865404D1*
Y1295818D1*
X1869848D1*
X1869613Y1351335D1*
X1863295Y1339886D1*
Y1162102D1*
X1949930Y1161669D1*
X1949886Y1226339D1*
X1880651Y1226495D1*
X1878793Y1226937D1*
X434710Y2338222D2*
X2281858D1*
X434710Y2313353D2*
X2281858D1*
X434710Y2288484D2*
X2281858D1*
X434710Y2263615D2*
X448295D1*
X560930D2*
X898312D1*
X1010930D2*
X1078928D1*
X1191546D2*
X1528928D1*
X1641546D2*
X1708811D1*
X1821428D2*
X2158811D1*
X2271428D2*
X2281858D1*
X584270Y2238747D2*
X875022D1*
X1034270D2*
X1055588D1*
X1214886D2*
X1505588D1*
X1664886D2*
X1685471D1*
X1844719D2*
X2135471D1*
X595256Y2213878D2*
X863987D1*
X1225871D2*
X1494602D1*
X1855755D2*
X2124484D1*
X598479Y2189009D2*
X860764D1*
X1229094D2*
X1491379D1*
X1858976D2*
X2121214D1*
X594816Y2164140D2*
X864427D1*
X1225432D2*
X1495042D1*
X1855315D2*
X2124924D1*
X583294Y2139272D2*
X875999D1*
X1033294D2*
X1056564D1*
X1213908D2*
X1506564D1*
X1663908D2*
X1686448D1*
X1843743D2*
X2136448D1*
X434710Y2114403D2*
X450441D1*
X558782D2*
X900462D1*
X1008782D2*
X1081076D1*
X1189396D2*
X1531076D1*
X1639396D2*
X1710959D1*
X1819280D2*
X2160959D1*
X2269280D2*
X2281858D1*
X434710Y2089534D2*
X2281858D1*
X434710Y2064665D2*
X2281858D1*
X434710Y2039797D2*
X2281858D1*
X434710Y2014928D2*
X2281858D1*
X434710Y1990059D2*
X577463D1*
X631780D2*
X677463D1*
X731780D2*
X777463D1*
X831780D2*
X877463D1*
X931780D2*
X1208079D1*
X1262395D2*
X1308079D1*
X1362395D2*
X1408079D1*
X1462395D2*
X1508079D1*
X1562395D2*
X1837912D1*
X1892278D2*
X1937912D1*
X1992278D2*
X2037912D1*
X2092278D2*
X2137912D1*
X2192278D2*
X2281858D1*
X434710Y1965190D2*
X552219D1*
X957024D2*
X1182835D1*
X1587639D2*
X1812668D1*
X2217522D2*
X2281858D1*
X434710Y1940322D2*
X546115D1*
X963127D2*
X1176731D1*
X1593743D2*
X1806564D1*
X2223626D2*
X2281858D1*
X434710Y1915453D2*
X551682D1*
X957610D2*
X1182248D1*
X1588226D2*
X1812131D1*
X2218059D2*
X2281858D1*
X434710Y1890584D2*
X510227D1*
X933976D2*
X1159152D1*
X1564543D2*
X1770726D1*
X2194427D2*
X2281858D1*
X434710Y1865715D2*
X491575D1*
X906780D2*
X1133079D1*
X1537395D2*
X1752072D1*
X2167228D2*
X2281858D1*
X434710Y1840846D2*
X484396D1*
X913127D2*
X1126731D1*
X1543743D2*
X1746751D1*
X2173626D2*
X2281858D1*
X434710Y1815978D2*
X462327D1*
X907854D2*
X1132004D1*
X2168303D2*
X2281858D1*
X434710Y1791109D2*
X456858D1*
X784904D2*
X824387D1*
X884904D2*
X1121408D1*
X1235735D2*
X1254954D1*
X2045354D2*
X2084836D1*
X2145354D2*
X2281858D1*
X434710Y1766240D2*
X456858D1*
X725335D2*
X1096555D1*
X1810979D2*
X1870139D1*
X2058488D2*
X2281858D1*
X434710Y1741371D2*
X456858D1*
X2064007D2*
X2281858D1*
X434710Y1716503D2*
X457688D1*
X434710Y1691634D2*
X471458D1*
X1207122D2*
X1234495D1*
X434710Y1666765D2*
X496311D1*
X1132659D2*
X1143138D1*
X1207122D2*
X1234495D1*
X1534222D2*
X1743528D1*
X434710Y1641896D2*
X476438D1*
X559563D2*
X1143138D1*
X1207122D2*
X1234495D1*
X1509367D2*
X1742454D1*
X434710Y1617028D2*
X455979D1*
X580022D2*
X1143138D1*
X1207122D2*
X1234495D1*
X1489299D2*
X1717600D1*
X434710Y1592159D2*
X449759D1*
X586272D2*
X1143138D1*
X1207122D2*
X1234495D1*
X1489299D2*
X1703587D1*
X434710Y1567290D2*
X453270D1*
X582707D2*
X1143138D1*
X1207122D2*
X1702806D1*
X434710Y1542421D2*
X468820D1*
X567180D2*
X1143138D1*
X1207122D2*
X1702806D1*
X434710Y1517552D2*
X464671D1*
X571331D2*
X1143138D1*
X1207122D2*
X1702806D1*
X434710Y1492684D2*
X465207D1*
X570794D2*
X1143138D1*
X1207122D2*
X1702806D1*
X434710Y1467815D2*
X480295D1*
X555706D2*
X756516D1*
X842034D2*
X1143138D1*
X1207122D2*
X1702806D1*
X434710Y1442946D2*
X465794D1*
X853312D2*
X1143138D1*
X1207122D2*
X1702806D1*
X434710Y1418077D2*
X464280D1*
X1207122D2*
X1702806D1*
X434710Y1393209D2*
X476243D1*
X559759D2*
X621848D1*
X692766D2*
X733958D1*
X1198919D2*
X1702806D1*
X2172210D2*
X2258615D1*
X434710Y1368340D2*
X467259D1*
X568743D2*
X621848D1*
X685832D2*
X709251D1*
X1073039D2*
X1702806D1*
X2139690D2*
X2258615D1*
X434710Y1343471D2*
X463694D1*
X572307D2*
X621848D1*
X685832D2*
X706175D1*
X1073039D2*
X1702806D1*
X2138079D2*
X2258615D1*
X434710Y1318602D2*
X473020D1*
X562980D2*
X621848D1*
X685832D2*
X718235D1*
X791058D2*
X807248D1*
X1073039D2*
X1702806D1*
X2117571D2*
X2258615D1*
X434710Y1293734D2*
X455735D1*
X580266D2*
X621848D1*
X685832D2*
X848655D1*
X912639D2*
X960667D1*
X1073039D2*
X1234495D1*
X1489299D2*
X1702806D1*
X2093156D2*
X2258615D1*
X434710Y1268865D2*
X449660D1*
X586320D2*
X621848D1*
X685832D2*
X841184D1*
X912639D2*
X1007199D1*
X1073039D2*
X1234495D1*
X1489299D2*
X1702806D1*
X434710Y1243996D2*
X453466D1*
X582560D2*
X621848D1*
X685832D2*
X816282D1*
X904680D2*
X1007199D1*
X1073039D2*
X1234495D1*
X1489299D2*
X1702806D1*
X434710Y1219127D2*
X469260D1*
X566740D2*
X621848D1*
X685832D2*
X791428D1*
X879827D2*
X1007199D1*
X1073039D2*
X1234495D1*
X1489299D2*
X1702806D1*
X1867180D2*
X1895871D1*
X434710Y1194259D2*
X621848D1*
X685832D2*
X766575D1*
X854974D2*
X1007199D1*
X1073039D2*
X1234495D1*
X1491399D2*
X1702806D1*
X1867180D2*
X1895871D1*
X2089934D2*
X2281858D1*
X434710Y1169390D2*
X621848D1*
X685832D2*
X741672D1*
X830119D2*
X1007199D1*
X1073039D2*
X1234495D1*
X1492131D2*
X1702806D1*
X1867180D2*
X1896214D1*
X2075823D2*
X2195920D1*
X2269231D2*
X2281858D1*
X434710Y1144521D2*
X621848D1*
X685832D2*
X716819D1*
X805266D2*
X1007199D1*
X1073039D2*
X1234495D1*
X1492131D2*
X1702806D1*
X434710Y1119652D2*
X621848D1*
X780364D2*
X1007199D1*
X1073039D2*
X1394798D1*
X1492131D2*
X1705394D1*
X434710Y1094783D2*
X621848D1*
X755510D2*
X776194D1*
X833098D2*
X1007199D1*
X1073039D2*
X1116038D1*
X1237054D2*
X1291526D1*
X1588518D2*
X1719455D1*
X2093596D2*
X2136155D1*
X2252630D2*
X2281858D1*
X434710Y1069915D2*
X621848D1*
X1073820D2*
X1116038D1*
X1237054D2*
X1291526D1*
X1588518D2*
X1694602D1*
X2122991D2*
X2148899D1*
X2220159D2*
X2281858D1*
X434710Y1045046D2*
X621848D1*
X2132610D2*
X2281858D1*
X434710Y1020177D2*
X621848D1*
X2131975D2*
X2281858D1*
X434710Y995308D2*
X624728D1*
X1838226D2*
X1887912D1*
X2120744D2*
X2281858D1*
X434710Y970440D2*
X597092D1*
X1813371D2*
X1857591D1*
X2083928D2*
X2281858D1*
X434710Y945571D2*
X587278D1*
X822014D2*
X982444D1*
X1788518D2*
X1847727D1*
X2082512D2*
X2281858D1*
X434710Y920702D2*
X587668D1*
X821575D2*
X1009055D1*
X1761955D2*
X1848167D1*
X2082072D2*
X2281858D1*
X434710Y895833D2*
X598655D1*
X810638D2*
X1116038D1*
X1237054D2*
X1291526D1*
X1412492D2*
X1467551D1*
X1588518D2*
X1859104D1*
X2071135D2*
X2281858D1*
X434710Y870965D2*
X633908D1*
X675383D2*
X733908D1*
X775383D2*
X1116038D1*
X1237054D2*
X1291526D1*
X1412492D2*
X1467551D1*
X1588518D2*
X1894407D1*
X1935832D2*
X1994407D1*
X2035832D2*
X2281858D1*
X434710Y846096D2*
X1116038D1*
X1237054D2*
X1291526D1*
X1412492D2*
X1467551D1*
X1588518D2*
X2281858D1*
X434710Y821227D2*
X1116038D1*
X1237054D2*
X1291526D1*
X1412492D2*
X1467551D1*
X1588518D2*
X2281858D1*
X434710Y796358D2*
X2281858D1*
X434710Y771490D2*
X553147D1*
X606144D2*
X853147D1*
X906144D2*
X1813644D1*
X1866643D2*
X2113644D1*
X2166643D2*
X2281858D1*
X434710Y746621D2*
X511643D1*
X647698D2*
X811643D1*
X947698D2*
X1772092D1*
X1908196D2*
X2072092D1*
X2208196D2*
X2281858D1*
X434710Y721752D2*
X494846D1*
X664495D2*
X794846D1*
X964495D2*
X1755295D1*
X1924992D2*
X2055295D1*
X2224992D2*
X2281858D1*
X434710Y696883D2*
X487571D1*
X671770D2*
X787571D1*
X971770D2*
X1748068D1*
X1932219D2*
X2048068D1*
X2232219D2*
X2281858D1*
X434710Y672014D2*
X487522D1*
X671819D2*
X787522D1*
X971819D2*
X1748020D1*
X1932268D2*
X2048020D1*
X2232268D2*
X2281858D1*
X434710Y647146D2*
X494651D1*
X664690D2*
X794651D1*
X964690D2*
X1755148D1*
X1925139D2*
X2055148D1*
X2225139D2*
X2281858D1*
X434710Y622277D2*
X511252D1*
X648039D2*
X811252D1*
X948039D2*
X1771751D1*
X1908538D2*
X2071751D1*
X2208538D2*
X2281858D1*
X434710Y597408D2*
X551828D1*
X607463D2*
X851828D1*
X907463D2*
X1812327D1*
X1867962D2*
X2112327D1*
X2167962D2*
X2281858D1*
X434710Y572539D2*
X2281858D1*
X434710Y547671D2*
X2281858D1*
X434710Y522802D2*
X2281858D1*
X434710Y497933D2*
X2281858D1*
X434710Y473064D2*
X2281858D1*
X434710Y448196D2*
X2281858D1*
X1890991Y1227085D2*
X1865404D1*
Y1253697D1*
X1864692Y1252386D1*
Y1167865D1*
X1898697Y1167831D1*
X1898705Y1179094D1*
X1898394Y1181594D1*
Y1227093D1*
X1890995Y1227134D1*
X2090633Y1304837D2*
X2090584Y1279251D1*
X2094438Y1272524D1*
X2261088D1*
X2261135Y1410740D1*
X2203702Y1410756D1*
X2203657Y1408336D1*
X2184566D1*
X2167613Y1391102D1*
X2161633Y1386387D1*
X2154717Y1383198D1*
X2147247Y1381713D1*
X2132253Y1381613D1*
X2135916Y1373164D1*
X2137619Y1366070D1*
X2138192Y1358797D1*
X2137619Y1351524D1*
X2135916Y1344429D1*
X2133125Y1337689D1*
X2129312Y1331470D1*
X2124575Y1325921D1*
X2119026Y1321184D1*
X2112807Y1317371D1*
X2106067Y1314580D1*
X2098972Y1312877D1*
X2090631Y1312346D1*
X2090584Y1304841D1*
X1489644Y1095264D2*
X1586041D1*
Y1059864D1*
X1686988Y1059831D1*
X1724323Y1097143D1*
X1715915Y1105803D1*
X1711837Y1111416D1*
X1708688Y1117596D1*
X1706545Y1124194D1*
X1705459Y1131046D1*
X1705323Y1222014D1*
X1705459Y1587404D1*
X1706545Y1594256D1*
X1708688Y1600853D1*
X1711837Y1607034D1*
X1715915Y1612647D1*
X1746066Y1642990D1*
X1746049Y1672580D1*
X1537345Y1672365D1*
X1505403Y1640551D1*
X1499639Y1636699D1*
X1493134Y1634301D1*
X1488554Y1633576D1*
X1486806Y1625493D1*
Y1575462D1*
X1236971D1*
Y1713597D1*
X1220252Y1713406D1*
X1204608Y1697478D1*
X1204517Y1411273D1*
X1203164Y1404472D1*
X1200261Y1398177D1*
X1195970Y1392732D1*
X1182266Y1379157D1*
X1176503Y1375306D1*
X1169997Y1372907D1*
X1163113Y1372092D1*
X1070486D1*
X1070545Y1070554D1*
X1076276Y1065202D1*
X1077129Y1064231D1*
X1079886Y1063768D1*
X1118509D1*
X1118555Y1095264D1*
X1234531D1*
Y1063769D1*
X1294072Y1063768D1*
X1294029Y1095264D1*
X1397301D1*
X1397299Y1138432D1*
X1236971Y1138454D1*
Y1313486D1*
X1486806D1*
Y1202010D1*
X1489085Y1193248D1*
X1489654Y1186025D1*
Y1095253D1*
X1586041Y917115D2*
Y798185D1*
X1470064D1*
Y917121D1*
X1410037Y917115D1*
X1410005Y798185D1*
X1294029D1*
Y917121D1*
X1234549Y917115D1*
X1234531Y798185D1*
X1118555D1*
Y917121D1*
X1023323Y917206D1*
X1016522Y918559D1*
X1010227Y921462D1*
X1004782Y925753D1*
X975062Y955190D1*
X817102D1*
X819697Y944555D1*
X820508Y934252D1*
X819697Y923949D1*
X817285Y913899D1*
X813329Y904352D1*
X807929Y895539D1*
X801218Y887680D1*
X793358Y880969D1*
X784546Y875568D1*
X774999Y871613D1*
X764949Y869201D1*
X754646Y868390D1*
X744343Y869201D1*
X734293Y871613D1*
X724745Y875568D1*
X715933Y880969D1*
X708073Y887680D1*
X704660Y891374D1*
X698848Y885425D1*
X690954Y879302D1*
X682224Y874442D1*
X672861Y870959D1*
X663079Y868932D1*
X653102Y868408D1*
X643161Y869399D1*
X633484Y871882D1*
X624294Y875801D1*
X615802Y881063D1*
X608205Y887550D1*
X601675Y895112D1*
X596365Y903573D1*
X592395Y912741D1*
X589858Y922404D1*
X588811Y932340D1*
X589280Y942319D1*
X591252Y952113D1*
X594682Y961496D1*
X599493Y970252D1*
X605572Y978180D1*
X612781Y985097D1*
X620953Y990844D1*
X627701Y994348D1*
X625175Y1001109D1*
X624361Y1008003D1*
Y1396715D1*
X560066Y1396744D1*
X554827Y1390627D1*
X552093Y1388101D1*
X557602Y1382541D1*
X562407Y1375928D1*
X566117Y1368647D1*
X568642Y1360874D1*
X569921Y1352802D1*
Y1344629D1*
X568642Y1336556D1*
X566117Y1328783D1*
X562407Y1321503D1*
X559451Y1317236D1*
X564571Y1312610D1*
X571282Y1304751D1*
X576682Y1295938D1*
X580638Y1286391D1*
X583050Y1276341D1*
X583861Y1266038D1*
X583050Y1255735D1*
X580638Y1245685D1*
X576682Y1236138D1*
X571282Y1227325D1*
X564571Y1219466D1*
X556711Y1212755D1*
X547899Y1207354D1*
X538352Y1203399D1*
X528302Y1200987D1*
X517999Y1200176D1*
X507696Y1200987D1*
X497646Y1203399D1*
X488098Y1207354D1*
X479286Y1212755D1*
X471427Y1219466D1*
X464715Y1227325D1*
X459315Y1236138D1*
X455360Y1245685D1*
X452948Y1255735D1*
X452136Y1266038D1*
X452948Y1276341D1*
X455360Y1286391D1*
X459315Y1295938D1*
X464715Y1304751D1*
X471427Y1312610D1*
X476542Y1317157D1*
X471593Y1325070D1*
X468465Y1332621D1*
X466558Y1340568D1*
X465916Y1348715D1*
X466558Y1356862D1*
X468465Y1364810D1*
X471593Y1372361D1*
X475864Y1379328D1*
X481171Y1385543D1*
X483904Y1388070D1*
X478395Y1393630D1*
X473591Y1400243D1*
X469881Y1407524D1*
X467356Y1415297D1*
X466076Y1423369D1*
Y1431542D1*
X467356Y1439614D1*
X469881Y1447387D1*
X473591Y1454668D1*
X478395Y1461281D1*
X483904Y1466810D1*
X478395Y1472370D1*
X473591Y1478983D1*
X469881Y1486264D1*
X467356Y1494037D1*
X466076Y1502109D1*
Y1510282D1*
X467356Y1518354D1*
X469881Y1526127D1*
X473591Y1533408D1*
X476546Y1537675D1*
X471427Y1542301D1*
X464715Y1550160D1*
X459315Y1558972D1*
X455360Y1568520D1*
X452948Y1578570D1*
X452136Y1588873D1*
X452948Y1599176D1*
X455360Y1609226D1*
X459315Y1618773D1*
X464715Y1627585D1*
X471427Y1635445D1*
X479286Y1642156D1*
X488098Y1647556D1*
X497646Y1651512D1*
X507696Y1653924D1*
X514022Y1654579D1*
X508244Y1658151D1*
X502734Y1662857D1*
X470413Y1695379D1*
X466154Y1701241D1*
X462864Y1707697D1*
X460625Y1714589D1*
X459491Y1721745D1*
X459349Y1794172D1*
X459917Y1801395D1*
X461609Y1808441D1*
X464382Y1815136D1*
X468168Y1821314D1*
X472874Y1826824D1*
X488860Y1842810D1*
X489579Y1850067D1*
X491991Y1860117D1*
X495946Y1869664D1*
X501346Y1878476D1*
X508058Y1886336D1*
X515917Y1893047D1*
X524730Y1898448D1*
X534277Y1902403D1*
X544327Y1904815D1*
X554630Y1905626D1*
X560245D1*
X556865Y1910493D1*
X552874Y1918325D1*
X550157Y1926686D1*
X548783Y1935369D1*
Y1944159D1*
X550157Y1952841D1*
X552874Y1961202D1*
X556865Y1969034D1*
X562033Y1976146D1*
X568248Y1982361D1*
X575360Y1987529D1*
X583192Y1991520D1*
X591552Y1994236D1*
X600235Y1995610D1*
X609025D1*
X617707Y1994236D1*
X626068Y1991520D1*
X633900Y1987529D1*
X641012Y1982361D1*
X647227Y1976146D1*
X652395Y1969034D1*
X654717Y1965196D1*
X659308Y1972692D1*
X665018Y1979375D1*
X671702Y1985085D1*
X679198Y1989677D1*
X687319Y1993042D1*
X695866Y1995093D1*
X704630Y1995783D1*
X713394Y1995093D1*
X721941Y1993042D1*
X730062Y1989677D1*
X737558Y1985085D1*
X744241Y1979375D1*
X749951Y1972692D1*
X754623Y1965025D1*
X758621Y1971722D1*
X763298Y1977577D1*
X768715Y1982756D1*
X774776Y1987165D1*
X781370Y1990726D1*
X788381Y1993375D1*
X795682Y1995064D1*
X803143Y1995764D1*
X810631Y1995461D1*
X818013Y1994161D1*
X825154Y1991888D1*
X831928Y1988682D1*
X838214Y1984601D1*
X843898Y1979717D1*
X848879Y1974118D1*
X853070Y1967904D1*
X854766Y1965294D1*
X858621Y1971722D1*
X863298Y1977577D1*
X868715Y1982756D1*
X874776Y1987165D1*
X881370Y1990726D1*
X888381Y1993375D1*
X895682Y1995064D1*
X903143Y1995764D1*
X910631Y1995461D1*
X918013Y1994161D1*
X925154Y1991888D1*
X931928Y1988682D1*
X938214Y1984601D1*
X943898Y1979717D1*
X948879Y1974118D1*
X953070Y1967904D1*
X956392Y1961186D1*
X958789Y1954085D1*
X960215Y1946728D1*
X960593Y1937265D1*
X959760Y1929816D1*
X957938Y1922547D1*
X955163Y1915585D1*
X951483Y1909056D1*
X946966Y1903077D1*
X941689Y1897755D1*
X935751Y1893184D1*
X929255Y1889446D1*
X922318Y1886610D1*
X915064Y1884724D1*
X907623Y1883824D1*
X900130Y1883925D1*
X892717Y1885025D1*
X885517Y1887105D1*
X882839Y1888164D1*
X890180Y1883058D1*
X895642Y1877925D1*
X900367Y1872109D1*
X904277Y1865715D1*
X907297Y1858856D1*
X909373Y1851655D1*
X910470Y1844241D1*
X910427Y1834770D1*
X909261Y1827367D1*
X907117Y1820186D1*
X904034Y1813356D1*
X900067Y1806997D1*
X895286Y1801224D1*
X889778Y1796143D1*
X883642Y1791841D1*
X876986Y1788398D1*
X869929Y1785874D1*
X862598Y1784314D1*
X855126Y1783747D1*
X847643Y1784181D1*
X840287Y1785612D1*
X833186Y1788010D1*
X826471Y1791336D1*
X820259Y1795528D1*
X814661Y1800512D1*
X809780Y1806198D1*
X805701Y1812486D1*
X804543Y1814332D1*
X799951Y1806836D1*
X794241Y1800152D1*
X787558Y1794442D1*
X780062Y1789850D1*
X771941Y1786486D1*
X763394Y1784434D1*
X754630Y1783744D1*
X745866Y1784434D1*
X741806Y1785241D1*
X698248Y1741673D1*
X1074497Y1741686D1*
X1139781Y1806986D1*
X1135328Y1814332D1*
X1131963Y1822453D1*
X1129912Y1831000D1*
X1129222Y1839764D1*
X1129912Y1848528D1*
X1131963Y1857075D1*
X1135328Y1865196D1*
X1139920Y1872692D1*
X1145630Y1879375D1*
X1152314Y1885085D1*
X1159810Y1889677D1*
X1167930Y1893042D1*
X1176478Y1895093D1*
X1185241Y1895783D1*
X1194005Y1895093D1*
X1202552Y1893042D1*
X1207101Y1891325D1*
X1198860Y1897167D1*
X1192644Y1903382D1*
X1187476Y1910493D1*
X1183486Y1918325D1*
X1180769Y1926686D1*
X1179395Y1935369D1*
Y1944159D1*
X1180769Y1952841D1*
X1183486Y1961202D1*
X1187476Y1969034D1*
X1192644Y1976146D1*
X1198860Y1982361D1*
X1205971Y1987529D1*
X1213803Y1991520D1*
X1222164Y1994236D1*
X1230846Y1995610D1*
X1239636D1*
X1248319Y1994236D1*
X1256680Y1991520D1*
X1264512Y1987529D1*
X1271623Y1982361D1*
X1277839Y1976146D1*
X1283007Y1969034D1*
X1285328Y1965196D1*
X1289920Y1972692D1*
X1295630Y1979375D1*
X1302314Y1985085D1*
X1309810Y1989677D1*
X1317930Y1993042D1*
X1326478Y1995093D1*
X1335241Y1995783D1*
X1344005Y1995093D1*
X1352552Y1993042D1*
X1360673Y1989677D1*
X1368169Y1985085D1*
X1374853Y1979375D1*
X1380563Y1972692D1*
X1385235Y1965025D1*
X1389232Y1971722D1*
X1393909Y1977577D1*
X1399327Y1982756D1*
X1405387Y1987165D1*
X1411982Y1990726D1*
X1418992Y1993375D1*
X1426294Y1995064D1*
X1433755Y1995764D1*
X1441243Y1995461D1*
X1448625Y1994161D1*
X1455765Y1991888D1*
X1462539Y1988682D1*
X1468825Y1984601D1*
X1474509Y1979717D1*
X1479491Y1974118D1*
X1483681Y1967904D1*
X1485378Y1965294D1*
X1489232Y1971722D1*
X1493909Y1977577D1*
X1499327Y1982756D1*
X1505387Y1987165D1*
X1511982Y1990726D1*
X1518992Y1993375D1*
X1526294Y1995064D1*
X1533755Y1995764D1*
X1541243Y1995461D1*
X1548625Y1994161D1*
X1555765Y1991888D1*
X1562539Y1988682D1*
X1568825Y1984601D1*
X1574509Y1979717D1*
X1579491Y1974118D1*
X1583681Y1967904D1*
X1587004Y1961186D1*
X1589400Y1954085D1*
X1590827Y1946728D1*
X1591205Y1937265D1*
X1590371Y1929816D1*
X1588550Y1922547D1*
X1585774Y1915585D1*
X1582094Y1909056D1*
X1577577Y1903077D1*
X1572301Y1897755D1*
X1566362Y1893184D1*
X1559866Y1889446D1*
X1552929Y1886610D1*
X1545676Y1884724D1*
X1538235Y1883824D1*
X1530741Y1883925D1*
X1523328Y1885025D1*
X1516129Y1887105D1*
X1513450Y1888164D1*
X1520791Y1883058D1*
X1526253Y1877925D1*
X1530979Y1872109D1*
X1534888Y1865715D1*
X1537908Y1858856D1*
X1539984Y1851655D1*
X1541081Y1844241D1*
X1541038Y1834770D1*
X1539647Y1826467D1*
X1738507Y1826471D1*
X1749264Y1839068D1*
X1750054Y1850067D1*
X1752466Y1860117D1*
X1756421Y1869664D1*
X1761822Y1878476D1*
X1768533Y1886336D1*
X1776392Y1893047D1*
X1785205Y1898448D1*
X1794752Y1902403D1*
X1804802Y1904815D1*
X1815105Y1905626D1*
X1820720D1*
X1817340Y1910493D1*
X1813349Y1918325D1*
X1810633Y1926686D1*
X1809259Y1935369D1*
Y1944159D1*
X1810633Y1952841D1*
X1813349Y1961202D1*
X1817340Y1969034D1*
X1822508Y1976146D1*
X1828723Y1982361D1*
X1835835Y1987529D1*
X1843667Y1991520D1*
X1852028Y1994236D1*
X1860710Y1995610D1*
X1869500D1*
X1878182Y1994236D1*
X1886543Y1991520D1*
X1894375Y1987529D1*
X1901487Y1982361D1*
X1907702Y1976146D1*
X1912870Y1969034D1*
X1915192Y1965196D1*
X1919783Y1972692D1*
X1925493Y1979375D1*
X1932177Y1985085D1*
X1939673Y1989677D1*
X1947794Y1993042D1*
X1956341Y1995093D1*
X1965105Y1995783D1*
X1973869Y1995093D1*
X1982416Y1993042D1*
X1990537Y1989677D1*
X1998033Y1985085D1*
X2004717Y1979375D1*
X2010427Y1972692D1*
X2015098Y1965025D1*
X2019096Y1971722D1*
X2023773Y1977577D1*
X2029190Y1982756D1*
X2035251Y1987165D1*
X2041845Y1990726D1*
X2048856Y1993375D1*
X2056157Y1995064D1*
X2063618Y1995764D1*
X2071106Y1995461D1*
X2078488Y1994161D1*
X2085629Y1991888D1*
X2092403Y1988682D1*
X2098689Y1984601D1*
X2104373Y1979717D1*
X2109354Y1974118D1*
X2113545Y1967904D1*
X2115241Y1965294D1*
X2119096Y1971722D1*
X2123773Y1977577D1*
X2129190Y1982756D1*
X2135251Y1987165D1*
X2141845Y1990726D1*
X2148856Y1993375D1*
X2156157Y1995064D1*
X2163618Y1995764D1*
X2171106Y1995461D1*
X2178488Y1994161D1*
X2185629Y1991888D1*
X2192403Y1988682D1*
X2198689Y1984601D1*
X2204373Y1979717D1*
X2209354Y1974118D1*
X2213545Y1967904D1*
X2216867Y1961186D1*
X2219264Y1954085D1*
X2220690Y1946728D1*
X2221068Y1937265D1*
X2220235Y1929816D1*
X2218413Y1922547D1*
X2215638Y1915585D1*
X2211958Y1909056D1*
X2207441Y1903077D1*
X2202164Y1897755D1*
X2196226Y1893184D1*
X2189730Y1889446D1*
X2182793Y1886610D1*
X2175539Y1884724D1*
X2168098Y1883824D1*
X2160605Y1883925D1*
X2153192Y1885025D1*
X2145992Y1887105D1*
X2143314Y1888164D1*
X2150655Y1883058D1*
X2156117Y1877925D1*
X2160843Y1872109D1*
X2164752Y1865715D1*
X2167772Y1858856D1*
X2169848Y1851655D1*
X2170945Y1844241D1*
X2170902Y1834770D1*
X2169736Y1827367D1*
X2167592Y1820186D1*
X2164509Y1813356D1*
X2160542Y1806997D1*
X2155761Y1801224D1*
X2150253Y1796143D1*
X2144117Y1791841D1*
X2137461Y1788398D1*
X2130404Y1785874D1*
X2123073Y1784314D1*
X2115601Y1783747D1*
X2108118Y1784181D1*
X2100762Y1785612D1*
X2093661Y1788010D1*
X2086946Y1791336D1*
X2080734Y1795528D1*
X2075136Y1800512D1*
X2070255Y1806198D1*
X2066176Y1812486D1*
X2065018Y1814332D1*
X2060427Y1806836D1*
X2054717Y1800152D1*
X2048033Y1794442D1*
X2040537Y1789850D1*
X2033367Y1786837D1*
X2039399Y1783727D1*
X2045301Y1779440D1*
X2050459Y1774281D1*
X2054747Y1768379D1*
X2058059Y1761878D1*
X2060314Y1754940D1*
X2061455Y1747735D1*
Y1740438D1*
X2059837Y1731545D1*
X2277094Y1731459D1*
X2283903Y1730104D1*
X2284350Y1732185D1*
Y2130184D1*
X2274446Y2120285D1*
X2262846Y2111857D1*
X2250071Y2105348D1*
X2236436Y2100917D1*
X2222274Y2098675D1*
X2207936D1*
X2193774Y2100917D1*
X2180139Y2105348D1*
X2167364Y2111857D1*
X2155764Y2120285D1*
X2145626Y2130423D1*
X2137198Y2142022D1*
X2130689Y2154798D1*
X2126259Y2168433D1*
X2124016Y2182594D1*
Y2196933D1*
X2126259Y2211094D1*
X2130689Y2224730D1*
X2137198Y2237505D1*
X2145626Y2249105D1*
X2155764Y2259243D1*
X2167364Y2267671D1*
X2180139Y2274180D1*
X2193774Y2278610D1*
X2207936Y2280853D1*
X2222274D1*
X2236436Y2278610D1*
X2250071Y2274180D1*
X2262846Y2267671D1*
X2274446Y2259243D1*
X2284337Y2249373D1*
X2284350Y2363093D1*
X432154Y2363091D1*
X432185Y2245463D1*
X440021Y2254373D1*
X450923Y2263685D1*
X463148Y2271176D1*
X476395Y2276663D1*
X490336Y2280010D1*
X504630Y2281135D1*
X518924Y2280010D1*
X532865Y2276663D1*
X546112Y2271176D1*
X558337Y2263685D1*
X569239Y2254373D1*
X578551Y2243471D1*
X586042Y2231245D1*
X591529Y2217999D1*
X594877Y2204058D1*
X596001Y2189764D1*
X594877Y2175470D1*
X591529Y2161529D1*
X586042Y2148282D1*
X578551Y2136056D1*
X569239Y2125155D1*
X558337Y2115843D1*
X546112Y2108352D1*
X532865Y2102865D1*
X518924Y2099517D1*
X504630Y2098392D1*
X490336Y2099517D1*
X476395Y2102865D1*
X463148Y2108352D1*
X450923Y2115843D1*
X440021Y2125155D1*
X432184Y2134186D1*
X432185Y432182D1*
X2284382Y432185D1*
X2284350Y1215144D1*
X2279437Y1213903D1*
X2274823Y1213539D1*
X2090399D1*
X2090323Y1207112D1*
X2089181Y1199907D1*
X2086927Y1192969D1*
X2083614Y1186467D1*
X2079327Y1180566D1*
X2073462Y1174850D1*
X2073374Y1169787D1*
X2075504Y1167831D1*
X2197209Y1168030D1*
X2202367Y1173189D1*
X2208270Y1177478D1*
X2214770Y1180790D1*
X2221709Y1183043D1*
X2228915Y1184185D1*
X2236210D1*
X2243416Y1183043D1*
X2250354Y1180790D1*
X2256854Y1177478D1*
X2262756Y1173189D1*
X2267915Y1168030D1*
X2272203Y1162129D1*
X2275516Y1155629D1*
X2277769Y1148690D1*
X2278911Y1141484D1*
Y1134189D1*
X2277769Y1126983D1*
X2275516Y1120045D1*
X2272203Y1113545D1*
X2267915Y1107642D1*
X2262756Y1102483D1*
X2256854Y1098196D1*
X2250354Y1094883D1*
X2243416Y1092629D1*
X2236210Y1091487D1*
X2229669Y1091458D1*
X2227472Y1084741D1*
X2224160Y1078241D1*
X2219871Y1072339D1*
X2214713Y1067180D1*
X2208811Y1062892D1*
X2202311Y1059580D1*
X2195373Y1057325D1*
X2188167Y1056185D1*
X2180871D1*
X2173665Y1057325D1*
X2166727Y1059580D1*
X2160227Y1062892D1*
X2154324Y1067180D1*
X2149165Y1072339D1*
X2144878Y1078241D1*
X2141566Y1084741D1*
X2139311Y1091680D1*
X2138530Y1095841D1*
X2088436Y1095833D1*
X2095018Y1092936D1*
X2103831Y1087535D1*
X2111690Y1080824D1*
X2118402Y1072965D1*
X2123802Y1064152D1*
X2127757Y1054605D1*
X2130169Y1044555D1*
X2130980Y1034252D1*
X2130169Y1023949D1*
X2127757Y1013899D1*
X2123802Y1004352D1*
X2118402Y995539D1*
X2111690Y987680D1*
X2103831Y980969D1*
X2095018Y975568D1*
X2085471Y971613D1*
X2075421Y969201D1*
X2071274Y968665D1*
X2075967Y959457D1*
X2079160Y949627D1*
X2080777Y939420D1*
Y929084D1*
X2079160Y918877D1*
X2075967Y909047D1*
X2071274Y899839D1*
X2065199Y891478D1*
X2057892Y884171D1*
X2049531Y878096D1*
X2040323Y873403D1*
X2030493Y870210D1*
X2020286Y868593D1*
X2009950D1*
X1999743Y870210D1*
X1989913Y873403D1*
X1980705Y878096D1*
X1972344Y884171D1*
X1965133Y891374D1*
X1959320Y885425D1*
X1951427Y879302D1*
X1942697Y874442D1*
X1933333Y870959D1*
X1923551Y868932D1*
X1913575Y868408D1*
X1903634Y869399D1*
X1893957Y871882D1*
X1884766Y875801D1*
X1876274Y881063D1*
X1868677Y887550D1*
X1862147Y895112D1*
X1856837Y903573D1*
X1852867Y912741D1*
X1850331Y922404D1*
X1849283Y932340D1*
X1849752Y942319D1*
X1851724Y952113D1*
X1855155Y961496D1*
X1859966Y970252D1*
X1866045Y978180D1*
X1873253Y985097D1*
X1881425Y990844D1*
X1890373Y995289D1*
X1899888Y998329D1*
X1908962Y999839D1*
X1906240Y1004773D1*
X1845000Y1004559D1*
X1764493Y924181D1*
X1758730Y920329D1*
X1752224Y917930D1*
X1745340Y917115D1*
X1586013D1*
X941937Y1316037D2*
X910101D1*
X910055Y1261827D1*
X908702Y1255026D1*
X905799Y1248731D1*
X901508Y1243286D1*
X744722Y1086500D1*
X751218Y1080824D1*
X754631Y1077130D1*
X761871Y1084333D1*
X770232Y1090408D1*
X779441Y1095101D1*
X789270Y1098294D1*
X799478Y1099911D1*
X809814D1*
X820021Y1098294D1*
X829850Y1095101D1*
X839059Y1090408D1*
X847420Y1084333D1*
X851588Y1080423D1*
X1009675Y1080429D1*
X1009686Y1274890D1*
X963175Y1274920D1*
Y1294402D1*
X958415Y1298274D1*
X944841Y1311976D1*
X942117Y1315728D1*
X908841Y1435950D2*
X984759D1*
Y1431115D1*
X1145579Y1431076D1*
X1145623Y1682190D1*
X1123598Y1660396D1*
X1117736Y1656136D1*
X1111281Y1652846D1*
X1104388Y1650608D1*
X1097232Y1649474D1*
X1018609Y1649332D1*
X544146D1*
X552412Y1645029D1*
X560773Y1638954D1*
X568080Y1631647D1*
X574155Y1623286D1*
X578848Y1614077D1*
X582041Y1604248D1*
X583657Y1594041D1*
Y1583705D1*
X582041Y1573497D1*
X578848Y1563668D1*
X574155Y1554459D1*
X568080Y1546098D1*
X560773Y1538791D1*
X559455Y1537753D1*
X564404Y1529841D1*
X567533Y1522290D1*
X569440Y1514343D1*
X570081Y1506196D1*
X569440Y1498049D1*
X567533Y1490101D1*
X564404Y1482550D1*
X560134Y1475583D1*
X554827Y1469367D1*
X552093Y1466841D1*
X557602Y1461281D1*
X561705Y1455718D1*
X644167Y1455638D1*
X650966Y1454285D1*
X657262Y1451382D1*
X661013Y1448656D1*
X666433Y1452768D1*
X674350Y1460172D1*
X680399Y1463559D1*
X687071Y1465441D1*
X691685Y1465804D1*
X759018D1*
X759003Y1480521D1*
X839546D1*
Y1460062D1*
X844482Y1455466D1*
X848333Y1449702D1*
X850732Y1443197D1*
X851547Y1436312D1*
Y1435971D1*
X908841Y1435950D1*
X851123Y1316037D2*
X809727D1*
Y1320870D1*
X790605Y1320912D1*
X784824Y1315052D1*
X778923Y1310765D1*
X772421Y1307453D1*
X765483Y1305198D1*
X758278Y1304056D1*
X750982D1*
X743777Y1305198D1*
X736839Y1307453D1*
X730337Y1310765D1*
X724436Y1315052D1*
X719277Y1320211D1*
X714990Y1326113D1*
X711677Y1332614D1*
X709423Y1339552D1*
X708281Y1346757D1*
Y1354054D1*
X709423Y1361259D1*
X711677Y1368197D1*
X714990Y1374698D1*
X719277Y1380600D1*
X724436Y1385759D1*
X730337Y1390046D1*
X736839Y1393358D1*
X743777Y1395613D1*
X750982Y1396755D1*
X759000Y1396669D1*
X759003Y1406801D1*
X703701Y1406619D1*
X688762Y1391810D1*
X685010Y1389085D1*
X683345Y1376736D1*
Y1108524D1*
X851161Y1276640D1*
Y1316045D1*
X1872633Y1747223D2*
Y1773883D1*
X1815045Y1773904D1*
X1792390Y1747633D1*
X1808041Y1747251D1*
X1872640D1*
X1856194Y2182594D2*
X1853951Y2168433D1*
X1849521Y2154798D1*
X1843012Y2142022D1*
X1834584Y2130423D1*
X1824446Y2120285D1*
X1812846Y2111857D1*
X1800071Y2105348D1*
X1786436Y2100917D1*
X1772274Y2098675D1*
X1757936D1*
X1743774Y2100917D1*
X1730139Y2105348D1*
X1717364Y2111857D1*
X1705764Y2120285D1*
X1695626Y2130423D1*
X1687198Y2142022D1*
X1680689Y2154798D1*
X1676259Y2168433D1*
X1675203Y2173739D1*
X1672140Y2161529D1*
X1666654Y2148282D1*
X1659163Y2136056D1*
X1649850Y2125155D1*
X1638949Y2115843D1*
X1626723Y2108352D1*
X1613476Y2102865D1*
X1599535Y2099517D1*
X1585241Y2098392D1*
X1570948Y2099517D1*
X1557007Y2102865D1*
X1543760Y2108352D1*
X1531534Y2115843D1*
X1520633Y2125155D1*
X1511320Y2136056D1*
X1503829Y2148282D1*
X1498343Y2161529D1*
X1494995Y2175470D1*
X1493870Y2189764D1*
X1494995Y2204058D1*
X1498343Y2217999D1*
X1503829Y2231245D1*
X1511320Y2243471D1*
X1520633Y2254373D1*
X1531534Y2263685D1*
X1543760Y2271176D1*
X1557007Y2276663D1*
X1570948Y2280010D1*
X1585241Y2281135D1*
X1599535Y2280010D1*
X1613476Y2276663D1*
X1626723Y2271176D1*
X1638949Y2263685D1*
X1649850Y2254373D1*
X1659163Y2243471D1*
X1666654Y2231245D1*
X1672140Y2217999D1*
X1675143Y2205789D1*
X1678206Y2217999D1*
X1683693Y2231245D1*
X1691184Y2243471D1*
X1700496Y2254373D1*
X1711398Y2263685D1*
X1723623Y2271176D1*
X1736870Y2276663D1*
X1750811Y2280010D1*
X1765105Y2281135D1*
X1779399Y2280010D1*
X1793340Y2276663D1*
X1806587Y2271176D1*
X1818812Y2263685D1*
X1829714Y2254373D1*
X1839026Y2243471D1*
X1846517Y2231245D1*
X1852004Y2217999D1*
X1855352Y2204058D1*
X1856476Y2189764D1*
X1856194Y2182594D1*
X1044925Y2175887D2*
X1043476Y2168433D1*
X1039046Y2154798D1*
X1032537Y2142022D1*
X1024109Y2130423D1*
X1013971Y2120285D1*
X1002371Y2111857D1*
X989596Y2105348D1*
X975961Y2100917D1*
X961799Y2098675D1*
X947461D1*
X933299Y2100917D1*
X919664Y2105348D1*
X906888Y2111857D1*
X895289Y2120285D1*
X885151Y2130423D1*
X876723Y2142022D1*
X870214Y2154798D1*
X865783Y2168433D1*
X863541Y2182594D1*
Y2196933D1*
X865783Y2211094D1*
X870214Y2224730D1*
X876723Y2237505D1*
X885151Y2249105D1*
X895289Y2259243D1*
X906888Y2267671D1*
X919664Y2274180D1*
X933299Y2278610D1*
X947461Y2280853D1*
X961799D1*
X975961Y2278610D1*
X989596Y2274180D1*
X1002371Y2267671D1*
X1013971Y2259243D1*
X1024109Y2249105D1*
X1032537Y2237505D1*
X1039046Y2224730D1*
X1043476Y2211094D1*
X1044995Y2204058D1*
X1048343Y2217999D1*
X1053829Y2231245D1*
X1061320Y2243471D1*
X1070633Y2254373D1*
X1081534Y2263685D1*
X1093760Y2271176D1*
X1107007Y2276663D1*
X1120948Y2280010D1*
X1135241Y2281135D1*
X1149535Y2280010D1*
X1163476Y2276663D1*
X1176723Y2271176D1*
X1188949Y2263685D1*
X1199850Y2254373D1*
X1209163Y2243471D1*
X1216654Y2231245D1*
X1222140Y2217999D1*
X1225488Y2204058D1*
X1226613Y2189764D1*
X1225488Y2175470D1*
X1222140Y2161529D1*
X1216654Y2148282D1*
X1209163Y2136056D1*
X1199850Y2125155D1*
X1188949Y2115843D1*
X1176723Y2108352D1*
X1163476Y2102865D1*
X1149535Y2099517D1*
X1135241Y2098392D1*
X1120948Y2099517D1*
X1107007Y2102865D1*
X1093760Y2108352D1*
X1081534Y2115843D1*
X1070633Y2125155D1*
X1061320Y2136056D1*
X1053829Y2148282D1*
X1048343Y2161529D1*
X1044995Y2175470D1*
X1044946Y2175887D1*
X1264852Y1787622D2*
X1255971Y1791999D1*
X1248860Y1797167D1*
X1242644Y1803382D1*
X1237476Y1810493D1*
X1235155Y1814332D1*
X1233249Y1810928D1*
X1233114Y1785356D1*
X1231980Y1778199D1*
X1230991Y1774696D1*
X1233236Y1772591D1*
X1279867D1*
X1264878Y1787593D1*
X969854Y677164D2*
X967634Y663143D1*
X963247Y649642D1*
X956802Y636993D1*
X948458Y625508D1*
X938420Y615470D1*
X926934Y607126D1*
X914286Y600681D1*
X900785Y596294D1*
X886764Y594073D1*
X872567D1*
X858546Y596294D1*
X845045Y600681D1*
X832396Y607126D1*
X820911Y615470D1*
X810873Y625508D1*
X802529Y636993D1*
X796084Y649642D1*
X791697Y663143D1*
X789476Y677164D1*
Y691361D1*
X791697Y705382D1*
X796084Y718883D1*
X802529Y731531D1*
X810873Y743017D1*
X820911Y753055D1*
X832396Y761399D1*
X845045Y767844D1*
X858546Y772231D1*
X872567Y774451D1*
X886764D1*
X900785Y772231D1*
X914286Y767844D1*
X926934Y761399D1*
X938420Y753055D1*
X948458Y743017D1*
X956802Y731531D1*
X963247Y718883D1*
X967634Y705382D1*
X969854Y691361D1*
Y677164D1*
X669854Y677163D2*
X667634Y663142D1*
X663247Y649640D1*
X656802Y636992D1*
X648458Y625507D1*
X638420Y615469D1*
X626934Y607125D1*
X614286Y600680D1*
X600785Y596293D1*
X586764Y594072D1*
X572567D1*
X558546Y596293D1*
X545045Y600680D1*
X532396Y607125D1*
X520911Y615469D1*
X510873Y625507D1*
X502529Y636992D1*
X496084Y649640D1*
X491697Y663142D1*
X489476Y677163D1*
Y691360D1*
X491697Y705381D1*
X496084Y718882D1*
X502529Y731530D1*
X510873Y743016D1*
X520911Y753054D1*
X532396Y761398D1*
X545045Y767843D1*
X558546Y772230D1*
X572567Y774450D1*
X586764D1*
X600785Y772230D1*
X614286Y767843D1*
X626934Y761398D1*
X638420Y753054D1*
X648458Y743016D1*
X656802Y731530D1*
X663247Y718882D1*
X667634Y705381D1*
X669854Y691360D1*
Y677163D1*
X2230327Y677164D2*
X2228106Y663143D1*
X2223719Y649642D1*
X2217274Y636993D1*
X2208930Y625508D1*
X2198892Y615470D1*
X2187407Y607126D1*
X2174759Y600681D1*
X2161257Y596294D1*
X2147236Y594073D1*
X2133039D1*
X2119018Y596294D1*
X2105517Y600681D1*
X2092869Y607126D1*
X2081383Y615470D1*
X2071345Y625508D1*
X2063001Y636993D1*
X2056556Y649642D1*
X2052169Y663143D1*
X2049949Y677164D1*
Y691361D1*
X2052169Y705382D1*
X2056556Y718883D1*
X2063001Y731531D1*
X2071345Y743017D1*
X2081383Y753055D1*
X2092869Y761399D1*
X2105517Y767844D1*
X2119018Y772231D1*
X2133039Y774451D1*
X2147236D1*
X2161257Y772231D1*
X2174759Y767844D1*
X2187407Y761399D1*
X2198892Y753055D1*
X2208930Y743017D1*
X2217274Y731531D1*
X2223719Y718883D1*
X2228106Y705382D1*
X2230327Y691361D1*
Y677164D1*
X1930327Y677163D2*
X1928106Y663142D1*
X1923719Y649640D1*
X1917274Y636992D1*
X1908930Y625507D1*
X1898892Y615469D1*
X1887407Y607125D1*
X1874759Y600680D1*
X1861257Y596293D1*
X1847236Y594072D1*
X1833039D1*
X1819018Y596293D1*
X1805517Y600680D1*
X1792869Y607125D1*
X1781383Y615469D1*
X1771345Y625507D1*
X1763001Y636992D1*
X1756556Y649640D1*
X1752169Y663142D1*
X1749949Y677163D1*
Y691360D1*
X1752169Y705381D1*
X1756556Y718882D1*
X1763001Y731530D1*
X1771345Y743016D1*
X1781383Y753054D1*
X1792869Y761398D1*
X1805517Y767843D1*
X1819018Y772230D1*
X1833039Y774450D1*
X1847236D1*
X1861257Y772230D1*
X1874759Y767843D1*
X1887407Y761398D1*
X1898892Y753054D1*
X1908930Y743016D1*
X1917274Y731530D1*
X1923719Y718882D1*
X1928106Y705381D1*
X1930327Y691360D1*
Y677163D1*
X1733152Y976129D2*
X1813306Y1056324D1*
X1803003D1*
X1731941Y985471D1*
X1726579Y981575D1*
X1720672Y978566D1*
X1713136Y976100D1*
X1733108D1*
X1729336Y983417D1*
X1723685Y979954D1*
X1717560Y977417D1*
X1714369Y976517D1*
X1898444Y1219366D2*
D23*
X1942602D1*
X1898753Y1172110D2*
X1942913D1*
X1528052Y875858D2*
Y798234D1*
X1470113Y875858D2*
X1585992D1*
X1176543D2*
Y798234D1*
X1118604Y875858D2*
X1234483D1*
X1352017D2*
Y798234D1*
X1294077Y875858D2*
X1409957D1*
X2165105Y1995735D2*
Y1883793D1*
Y1939764D2*
X2221076D1*
X2115105Y1839764D2*
Y1783793D1*
Y1839764D2*
X2171076D1*
X2065105Y1995735D2*
Y1939764D1*
X904630Y1995735D2*
Y1883793D1*
Y1939764D2*
X960601D1*
X854630Y1839764D2*
Y1783793D1*
Y1839764D2*
X910601D1*
X804630Y1995735D2*
Y1939764D1*
X1535241Y1995735D2*
Y1883793D1*
Y1939764D2*
X1591213D1*
X1485241Y1839764D2*
X1541213D1*
X1435241Y1995735D2*
Y1939764D1*
X654646Y934252D2*
Y868438D1*
X588832Y934252D2*
X654646D1*
X1915118Y1000066D2*
Y868438D1*
X1849304Y934252D2*
X1915118D1*
D25*
X1867290Y1465192D3*
Y1439601D3*
Y1414010D3*
Y1388420D3*
Y1362829D3*
Y1337239D3*
Y1311648D3*
Y1286058D3*
D27*
X1897802Y1261451D3*
X1923392D3*
X1948983D3*
X1974573D3*
X2000164D3*
X2025755D3*
D25*
X2056266Y1286058D3*
Y1311648D3*
Y1337239D3*
Y1362829D3*
Y1388420D3*
Y1414010D3*
Y1439601D3*
Y1465192D3*
D27*
X2025755Y1489798D3*
X2000164D3*
X1974573D3*
X1948983D3*
X1923392D3*
X1897802D3*
D28*
X1961778Y1436648D3*
D30*
X1942093Y1335664D3*
D31*
X2016896D3*
D32*
X2108268Y1448608D3*
X2159449D3*
D33*
X1811024Y1464386D3*
Y1413205D3*
D32*
X1942602Y1219366D3*
X1993783D3*
X1942913Y1172110D3*
X1994094D3*
D33*
X2106299Y1547648D3*
Y1496467D3*
D32*
X1842285Y1677944D3*
X1791104D3*
D34*
X1528052Y1017591D3*
Y875858D3*
X1176543Y1017591D3*
Y875858D3*
X1352017Y1017591D3*
Y875858D3*
D36*
X2247618Y1452996D3*
Y1586854D3*
D37*
X1361888Y1662978D3*
Y1225970D3*
D39*
X940550Y1350403D3*
Y1375993D3*
Y1401584D3*
X853936D3*
Y1375993D3*
Y1350403D3*
D32*
X558228Y1740920D3*
X609409D3*
X1923228Y1623801D3*
X1974409D3*
Y1565378D3*
X1923228D3*
X2106087Y1598755D3*
X2054906D3*
X1841438Y1636012D3*
X1790257D3*
D33*
X1811024Y1528379D3*
Y1579560D3*
D32*
X1916841Y1744087D3*
X1968022D3*
D33*
X1003446Y1319129D3*
Y1370310D3*
X799274Y1436312D3*
Y1385131D3*
D40*
X2165105Y1939764D3*
X2115105Y1839764D3*
X2065105Y1939764D3*
X2015105Y1839764D3*
X1965105Y1939764D3*
X1915105Y1839764D3*
X1865105Y1939764D3*
X1815105Y1839764D3*
X904630Y1939764D3*
X854630Y1839764D3*
X804630Y1939764D3*
X754630Y1839764D3*
X704630Y1939764D3*
X654630Y1839764D3*
X604630Y1939764D3*
X554630Y1839764D3*
X1535241Y1939764D3*
X1485241Y1839764D3*
X1435241Y1939764D3*
X1385241Y1839764D3*
X1335241Y1939764D3*
X1285241Y1839764D3*
X1235241Y1939764D3*
X1185241Y1839764D3*
D41*
X517999Y1348715D3*
Y1427455D3*
Y1506196D3*
D15*
Y1266038D3*
Y1588873D3*
X654646Y934252D3*
X704646Y1034252D3*
X754646Y934252D3*
X804646Y1034252D3*
X1915118Y934252D3*
X1965118Y1034252D3*
X2015118Y934252D3*
X2065118Y1034252D3*
M02*
