G04 DipTrace 3.0.0.0*
G04 TopAssy.gbr*
%MOIN*%
G04 #@! TF.FileFunction,Drawing,Top*
G04 #@! TF.Part,Single*
%ADD10C,0.009843*%
%ADD61C,0.006176*%
%FSLAX26Y26*%
G04*
G70*
G90*
G75*
G01*
G04 TopAssy*
%LPD*%
X2265715Y2394888D2*
D10*
X1714495D1*
X1005240D2*
X454020D1*
X1635852D2*
X1084631D1*
X2193269Y2409615D2*
D61*
Y2449807D1*
X2176025D1*
X2170277Y2447862D1*
X2168375Y2445960D1*
X2166474Y2442158D1*
Y2436410D1*
X2168375Y2432563D1*
X2170277Y2430662D1*
X2176025Y2428761D1*
X2170277Y2426815D1*
X2168375Y2424914D1*
X2166474Y2421111D1*
Y2417265D1*
X2168375Y2413462D1*
X2170277Y2411516D1*
X2176025Y2409615D1*
X2193269D1*
Y2428761D2*
X2176025D1*
X2142627Y2409615D2*
X2146473Y2411516D1*
X2150276Y2415363D1*
X2152221Y2419166D1*
X2154123Y2424914D1*
Y2434509D1*
X2152221Y2440212D1*
X2150276Y2444059D1*
X2146473Y2447862D1*
X2142627Y2449807D1*
X2134977D1*
X2131175Y2447862D1*
X2127328Y2444059D1*
X2125427Y2440212D1*
X2123525Y2434509D1*
Y2424914D1*
X2125427Y2419166D1*
X2127328Y2415363D1*
X2131175Y2411516D1*
X2134977Y2409615D1*
X2142627D1*
X2080533Y2449807D2*
X2095875Y2409615D1*
X2111174Y2449807D1*
X2105426Y2436410D2*
X2086281D1*
X2068181Y2428761D2*
X2050981D1*
X2045233Y2426815D1*
X2043288Y2424914D1*
X2041387Y2421111D1*
Y2417264D1*
X2043288Y2413462D1*
X2045233Y2411516D1*
X2050981Y2409615D1*
X2068181D1*
Y2449807D1*
X2054784Y2428761D2*
X2041387Y2449807D1*
X2029035Y2409615D2*
Y2449807D1*
X2015638D1*
X2009890Y2447862D1*
X2006043Y2444059D1*
X2004142Y2440212D1*
X2002241Y2434509D1*
Y2424914D1*
X2004142Y2419166D1*
X2006043Y2415363D1*
X2009890Y2411516D1*
X2015638Y2409615D1*
X2029035D1*
X1926159D2*
X1951008D1*
Y2449807D1*
X1926159D1*
X1951008Y2428761D2*
X1935710D1*
X1913808Y2409615D2*
Y2449807D1*
X1900410D1*
X1894662Y2447862D1*
X1890816Y2444059D1*
X1888914Y2440212D1*
X1887013Y2434509D1*
Y2424914D1*
X1888914Y2419166D1*
X1890816Y2415363D1*
X1894662Y2411516D1*
X1900410Y2409615D1*
X1913808D1*
X1845966Y2419166D2*
X1847867Y2415363D1*
X1851714Y2411516D1*
X1855516Y2409615D1*
X1863166D1*
X1867012Y2411516D1*
X1870815Y2415363D1*
X1872760Y2419166D1*
X1874662Y2424914D1*
Y2434509D1*
X1872760Y2440212D1*
X1870815Y2444059D1*
X1867012Y2447862D1*
X1863166Y2449807D1*
X1855516D1*
X1851714Y2447862D1*
X1847867Y2444059D1*
X1845966Y2440212D1*
Y2434509D1*
X1855516D1*
X1808765Y2409615D2*
X1833614D1*
Y2449807D1*
X1808765D1*
X1833614Y2428761D2*
X1818316D1*
X932794Y2409615D2*
Y2449807D1*
X915550D1*
X909802Y2447862D1*
X907900Y2445960D1*
X905999Y2442158D1*
Y2436410D1*
X907900Y2432563D1*
X909802Y2430662D1*
X915550Y2428761D1*
X909802Y2426815D1*
X907900Y2424914D1*
X905999Y2421111D1*
Y2417265D1*
X907900Y2413462D1*
X909801Y2411516D1*
X915550Y2409615D1*
X932794D1*
Y2428761D2*
X915550D1*
X882152Y2409615D2*
X885998Y2411516D1*
X889801Y2415363D1*
X891746Y2419166D1*
X893648Y2424914D1*
Y2434509D1*
X891746Y2440212D1*
X889801Y2444059D1*
X885998Y2447862D1*
X882152Y2449807D1*
X874502D1*
X870700Y2447862D1*
X866853Y2444059D1*
X864952Y2440212D1*
X863050Y2434509D1*
Y2424914D1*
X864952Y2419166D1*
X866853Y2415363D1*
X870700Y2411516D1*
X874502Y2409615D1*
X882152D1*
X820058Y2449807D2*
X835400Y2409615D1*
X850699Y2449807D1*
X844951Y2436410D2*
X825806D1*
X807706Y2428761D2*
X790506D1*
X784758Y2426815D1*
X782813Y2424914D1*
X780912Y2421111D1*
Y2417264D1*
X782813Y2413462D1*
X784758Y2411516D1*
X790506Y2409615D1*
X807706D1*
Y2449807D1*
X794309Y2428761D2*
X780912Y2449807D1*
X768560Y2409615D2*
Y2449807D1*
X755163D1*
X749415Y2447862D1*
X745568Y2444059D1*
X743667Y2440212D1*
X741765Y2434509D1*
Y2424914D1*
X743667Y2419166D1*
X745568Y2415363D1*
X749415Y2411516D1*
X755163Y2409615D1*
X768560D1*
X665684D2*
X690533D1*
Y2449807D1*
X665684D1*
X690533Y2428761D2*
X675235D1*
X653333Y2409615D2*
Y2449807D1*
X639935D1*
X634187Y2447862D1*
X630341Y2444059D1*
X628439Y2440212D1*
X626538Y2434509D1*
Y2424914D1*
X628439Y2419166D1*
X630341Y2415363D1*
X634187Y2411516D1*
X639935Y2409615D1*
X653333D1*
X585491Y2419166D2*
X587392Y2415363D1*
X591239Y2411516D1*
X595041Y2409615D1*
X602691D1*
X606537Y2411516D1*
X610340Y2415363D1*
X612285Y2419166D1*
X614187Y2424914D1*
Y2434509D1*
X612285Y2440212D1*
X610340Y2444059D1*
X606537Y2447862D1*
X602691Y2449807D1*
X595041D1*
X591239Y2447862D1*
X587392Y2444059D1*
X585491Y2440212D1*
Y2434509D1*
X595041D1*
X548290Y2409615D2*
X573139D1*
Y2449807D1*
X548290D1*
X573139Y2428761D2*
X557841D1*
X1563405Y2409615D2*
Y2449807D1*
X1546161D1*
X1540413Y2447862D1*
X1538512Y2445960D1*
X1536611Y2442158D1*
Y2436410D1*
X1538512Y2432563D1*
X1540413Y2430662D1*
X1546161Y2428761D1*
X1540413Y2426815D1*
X1538512Y2424914D1*
X1536611Y2421111D1*
Y2417265D1*
X1538512Y2413462D1*
X1540413Y2411516D1*
X1546161Y2409615D1*
X1563405D1*
Y2428761D2*
X1546161D1*
X1512763Y2409615D2*
X1516610Y2411516D1*
X1520412Y2415363D1*
X1522358Y2419166D1*
X1524259Y2424914D1*
Y2434509D1*
X1522358Y2440212D1*
X1520412Y2444059D1*
X1516610Y2447862D1*
X1512763Y2449807D1*
X1505114D1*
X1501311Y2447862D1*
X1497465Y2444059D1*
X1495563Y2440212D1*
X1493662Y2434509D1*
Y2424914D1*
X1495563Y2419166D1*
X1497464Y2415363D1*
X1501311Y2411516D1*
X1505114Y2409615D1*
X1512763D1*
X1450669Y2449807D2*
X1466012Y2409615D1*
X1481311Y2449807D1*
X1475563Y2436410D2*
X1456417D1*
X1438318Y2428761D2*
X1421118D1*
X1415370Y2426815D1*
X1413424Y2424914D1*
X1411523Y2421111D1*
Y2417264D1*
X1413424Y2413462D1*
X1415370Y2411516D1*
X1421118Y2409615D1*
X1438318D1*
Y2449807D1*
X1424920Y2428761D2*
X1411523Y2449807D1*
X1399172Y2409615D2*
Y2449807D1*
X1385774D1*
X1380026Y2447862D1*
X1376180Y2444059D1*
X1374278Y2440212D1*
X1372377Y2434509D1*
Y2424914D1*
X1374278Y2419166D1*
X1376180Y2415363D1*
X1380026Y2411516D1*
X1385774Y2409615D1*
X1399172D1*
X1296296D2*
X1321145D1*
Y2449807D1*
X1296296D1*
X1321145Y2428761D2*
X1305846D1*
X1283944Y2409615D2*
Y2449807D1*
X1270547D1*
X1264799Y2447862D1*
X1260952Y2444059D1*
X1259051Y2440212D1*
X1257150Y2434509D1*
Y2424914D1*
X1259051Y2419166D1*
X1260952Y2415363D1*
X1264799Y2411516D1*
X1270547Y2409615D1*
X1283944D1*
X1216102Y2419166D2*
X1218004Y2415363D1*
X1221850Y2411516D1*
X1225653Y2409615D1*
X1233302D1*
X1237149Y2411516D1*
X1240951Y2415363D1*
X1242897Y2419166D1*
X1244798Y2424914D1*
Y2434509D1*
X1242897Y2440212D1*
X1240951Y2444059D1*
X1237149Y2447862D1*
X1233302Y2449807D1*
X1225653D1*
X1221850Y2447862D1*
X1218004Y2444059D1*
X1216102Y2440212D1*
Y2434509D1*
X1225653D1*
X1178902Y2409615D2*
X1203751D1*
Y2449807D1*
X1178902D1*
X1203751Y2428761D2*
X1188452D1*
M02*
