G04 DipTrace 3.0.0.0*
G04 TopMask.gbr*
%MOIN*%
G04 #@! TF.FileFunction,Soldermask,Top*
G04 #@! TF.Part,Single*
%ADD26R,0.023622X0.019685*%
%ADD40C,0.059055*%
%ADD43C,0.127953*%
%ADD47C,0.086614*%
%ADD48C,0.066929*%
%ADD49R,0.043307X0.023622*%
%ADD50R,0.204724X0.129921*%
%ADD51R,0.070866X0.03937*%
%ADD52R,0.070866X0.110236*%
%ADD53R,0.035433X0.043307*%
%ADD54R,0.043307X0.035433*%
%ADD55R,0.043307X0.119291*%
%ADD56R,0.094488X0.119291*%
%ADD57R,0.153543X0.070866*%
%ADD58R,0.019685X0.023622*%
%FSLAX26Y26*%
G04*
G70*
G90*
G75*
G01*
G04 TopMask*
%LPD*%
D26*
X1867290Y1465192D3*
Y1439601D3*
Y1414010D3*
Y1388420D3*
Y1362829D3*
Y1337239D3*
Y1311648D3*
Y1286058D3*
D58*
X1897802Y1261451D3*
X1923392D3*
X1948983D3*
X1974573D3*
X2000164D3*
X2025755D3*
D26*
X2056266Y1286058D3*
Y1311648D3*
Y1337239D3*
Y1362829D3*
Y1388420D3*
Y1414010D3*
Y1439601D3*
Y1465192D3*
D58*
X2025755Y1489798D3*
X2000164D3*
X1974573D3*
X1948983D3*
X1923392D3*
X1897802D3*
D57*
X1961778Y1436648D3*
D56*
X1942093Y1335664D3*
D55*
X2016896D3*
D54*
X2108268Y1448608D3*
X2159449D3*
D53*
X1811024Y1464386D3*
Y1413205D3*
D54*
X1942602Y1219366D3*
X1993783D3*
X1942913Y1172110D3*
X1994094D3*
D53*
X2106299Y1547648D3*
Y1496467D3*
D54*
X1842285Y1677944D3*
X1791104D3*
D52*
X1528052Y1017591D3*
Y875858D3*
X1176543Y1017591D3*
Y875858D3*
X1352017Y1017591D3*
Y875858D3*
D51*
X2247618Y1452996D3*
Y1586854D3*
D50*
X1361888Y1662978D3*
Y1225970D3*
D49*
X940550Y1350403D3*
Y1375993D3*
Y1401584D3*
X853936D3*
Y1375993D3*
Y1350403D3*
D54*
X558228Y1740920D3*
X609409D3*
X1923228Y1623801D3*
X1974409D3*
Y1565378D3*
X1923228D3*
X2106087Y1598755D3*
X2054906D3*
X1841438Y1636012D3*
X1790257D3*
D53*
X1811024Y1528379D3*
Y1579560D3*
D54*
X1916841Y1744087D3*
X1968022D3*
D53*
X1003446Y1319129D3*
Y1370310D3*
X799274Y1436312D3*
Y1385131D3*
D48*
X2165105Y1939764D3*
X2115105Y1839764D3*
X2065105Y1939764D3*
X2015105Y1839764D3*
X1965105Y1939764D3*
X1915105Y1839764D3*
X1865105Y1939764D3*
X1815105Y1839764D3*
D43*
X2215105Y2189764D3*
X1765105D3*
D48*
X904630Y1939764D3*
X854630Y1839764D3*
X804630Y1939764D3*
X754630Y1839764D3*
X704630Y1939764D3*
X654630Y1839764D3*
X604630Y1939764D3*
X554630Y1839764D3*
D43*
X954630Y2189764D3*
X504630D3*
D48*
X1535241Y1939764D3*
X1485241Y1839764D3*
X1435241Y1939764D3*
X1385241Y1839764D3*
X1335241Y1939764D3*
X1285241Y1839764D3*
X1235241Y1939764D3*
X1185241Y1839764D3*
D43*
X1585241Y2189764D3*
X1135241D3*
D40*
X517999Y1348715D3*
Y1427455D3*
Y1506196D3*
D47*
Y1266038D3*
Y1588873D3*
X654646Y934252D3*
X704646Y1034252D3*
X754646Y934252D3*
X804646Y1034252D3*
D43*
X879665Y684262D3*
X579665Y684261D3*
D47*
X1915118Y934252D3*
X1965118Y1034252D3*
X2015118Y934252D3*
X2065118Y1034252D3*
D43*
X2140138Y684262D3*
X1840138Y684261D3*
M02*
