G04 DipTrace 3.0.0.0*
G04 TopPaste.gbr*
%MOIN*%
G04 #@! TF.FileFunction,Paste,Top*
G04 #@! TF.Part,Single*
%ADD25R,0.015748X0.011811*%
%ADD27R,0.011811X0.015748*%
%ADD29R,0.106299X0.023622*%
%ADD30R,0.086614X0.111417*%
%ADD31R,0.035433X0.111417*%
%ADD32R,0.035433X0.027559*%
%ADD33R,0.027559X0.035433*%
%ADD34R,0.062992X0.102362*%
%ADD36R,0.062992X0.031496*%
%ADD37R,0.19685X0.122047*%
%ADD39R,0.035433X0.015748*%
%FSLAX26Y26*%
G04*
G70*
G90*
G75*
G01*
G04 TopPaste*
%LPD*%
D25*
X1867290Y1465192D3*
Y1439601D3*
Y1414010D3*
Y1388420D3*
Y1362829D3*
Y1337239D3*
Y1311648D3*
Y1286058D3*
D27*
X1897802Y1261451D3*
X1923392D3*
X1948983D3*
X1974573D3*
X2000164D3*
X2025755D3*
D25*
X2056266Y1286058D3*
Y1311648D3*
Y1337239D3*
Y1362829D3*
Y1388420D3*
Y1414010D3*
Y1439601D3*
Y1465192D3*
D27*
X2025755Y1489798D3*
X2000164D3*
X1974573D3*
X1948983D3*
X1923392D3*
X1897802D3*
D29*
X1961778Y1436648D3*
D30*
X1942093Y1335664D3*
D31*
X2016896D3*
D32*
X2108268Y1448608D3*
X2159449D3*
D33*
X1811024Y1464386D3*
Y1413205D3*
D32*
X1942602Y1219366D3*
X1993783D3*
X1942913Y1172110D3*
X1994094D3*
D33*
X2106299Y1547648D3*
Y1496467D3*
D32*
X1842285Y1677944D3*
X1791104D3*
D34*
X1528052Y1017591D3*
Y875858D3*
X1176543Y1017591D3*
Y875858D3*
X1352017Y1017591D3*
Y875858D3*
D36*
X2247618Y1452996D3*
Y1586854D3*
D37*
X1361888Y1662978D3*
Y1225970D3*
D39*
X940550Y1350403D3*
Y1375993D3*
Y1401584D3*
X853936D3*
Y1375993D3*
Y1350403D3*
D32*
X558228Y1740920D3*
X609409D3*
X1923228Y1623801D3*
X1974409D3*
Y1565378D3*
X1923228D3*
X2106087Y1598755D3*
X2054906D3*
X1841438Y1636012D3*
X1790257D3*
D33*
X1811024Y1528379D3*
Y1579560D3*
D32*
X1916841Y1744087D3*
X1968022D3*
D33*
X1003446Y1319129D3*
Y1370310D3*
X799274Y1436312D3*
Y1385131D3*
M02*
