G04 DipTrace 2.4.0.2*
%INBottom.gbr*%
%MOIN*%
%ADD15C,0.025*%
%ADD16C,0.013*%
%ADD17R,0.0669X0.0669*%
%ADD18C,0.0669*%
%ADD19R,0.0591X0.1181*%
%ADD20C,0.0669*%
%ADD21C,0.04*%
%FSLAX44Y44*%
G04*
G70*
G90*
G75*
G01*
%LNBottom*%
%LPD*%
D21*
X5628Y19567D3*
X5690Y5315D3*
X4350Y19376D2*
D15*
X5044D1*
X6211D2*
X6907D1*
X4350Y19127D2*
X5044D1*
X6211D2*
X6907D1*
X4350Y18879D2*
X6907D1*
X4350Y18630D2*
X6907D1*
X4350Y18381D2*
X6907D1*
X4350Y18133D2*
X6907D1*
X4350Y17884D2*
X6907D1*
X4350Y17635D2*
X6907D1*
X4350Y17387D2*
X6907D1*
X4350Y17138D2*
X6907D1*
X4350Y16889D2*
X10470D1*
X4350Y16641D2*
X10470D1*
X4350Y16392D2*
X10470D1*
X4350Y16143D2*
X10470D1*
X4350Y15895D2*
X10470D1*
X4350Y15646D2*
X10470D1*
X6977Y15397D2*
X10470D1*
X6977Y15148D2*
X10470D1*
X7524Y14900D2*
X10470D1*
X7700Y14651D2*
X10470D1*
X7735Y14402D2*
X10470D1*
X7664Y14154D2*
X10470D1*
X7403Y13905D2*
X8755D1*
X10004D2*
X10470D1*
X6977Y13656D2*
X8755D1*
X10004D2*
X10470D1*
X6977Y13408D2*
X8755D1*
X10004D2*
X10470D1*
X6977Y13159D2*
X8755D1*
X10004D2*
X10470D1*
X7547Y12910D2*
X8755D1*
X10004D2*
X10470D1*
X7707Y12662D2*
X8794D1*
X9961D2*
X10470D1*
X7735Y12413D2*
X8755D1*
X10000D2*
X10470D1*
X7653Y12164D2*
X8821D1*
X9934D2*
X10470D1*
X7356Y11916D2*
X8986D1*
X9770D2*
X10470D1*
X6977Y11667D2*
X8798D1*
X9957D2*
X10470D1*
X6977Y11418D2*
X8755D1*
X10000D2*
X10470D1*
X6977Y11169D2*
X8818D1*
X9938D2*
X10470D1*
X7571Y10921D2*
X9056D1*
X9700D2*
X10470D1*
X7711Y10672D2*
X10470D1*
X7731Y10423D2*
X10470D1*
X7637Y10175D2*
X10470D1*
X7293Y9926D2*
X10470D1*
X6977Y9677D2*
X10470D1*
X4350Y9429D2*
X10470D1*
X4350Y9180D2*
X10470D1*
X4350Y8931D2*
X10470D1*
X4350Y8683D2*
X10470D1*
X4350Y8434D2*
X10470D1*
X4350Y8185D2*
X10470D1*
X4350Y7937D2*
X10470D1*
X4350Y7688D2*
X6907D1*
X4350Y7439D2*
X6907D1*
X4350Y7190D2*
X6907D1*
X4350Y6942D2*
X6907D1*
X4350Y6693D2*
X6907D1*
X4350Y6444D2*
X6907D1*
X4350Y6196D2*
X6907D1*
X4350Y5947D2*
X5107D1*
X6274D2*
X6907D1*
X4350Y5698D2*
X5107D1*
X6274D2*
X6907D1*
X4350Y5450D2*
X5107D1*
X6274D2*
X6907D1*
X8904Y14041D2*
X9978D1*
Y12841D1*
X9825D1*
X9908Y12722D1*
X9955Y12606D1*
X9976Y12483D1*
X9973Y12366D1*
X9945Y12245D1*
X9892Y12132D1*
X9817Y12032D1*
X9723Y11950D1*
X9709Y11941D1*
X9768Y11896D1*
X9854Y11806D1*
X9919Y11699D1*
X9961Y11582D1*
X9978Y11441D1*
X9965Y11317D1*
X9926Y11198D1*
X9864Y11090D1*
X9781Y10997D1*
X9680Y10923D1*
X9567Y10872D1*
X9445Y10845D1*
X9320Y10844D1*
X9198Y10869D1*
X9083Y10919D1*
X8982Y10991D1*
X8897Y11083D1*
X8834Y11190D1*
X8793Y11308D1*
X8779Y11432D1*
X8790Y11557D1*
X8827Y11676D1*
X8887Y11785D1*
X8969Y11879D1*
X9047Y11938D1*
X8946Y12026D1*
X8869Y12124D1*
X8815Y12237D1*
X8784Y12358D1*
X8780Y12482D1*
X8802Y12605D1*
X8848Y12721D1*
X8918Y12825D1*
X8932Y12842D1*
X8779Y12841D1*
Y14041D1*
X8904D1*
X5063Y19934D2*
Y19586D1*
X4325D1*
Y15451D1*
X6825D1*
X6931Y15390D1*
X6950Y15326D1*
Y15018D1*
X7037Y15037D1*
X7162Y15039D1*
X7285Y15016D1*
X7400Y14968D1*
X7503Y14897D1*
X7588Y14807D1*
X7654Y14700D1*
X7695Y14583D1*
X7712Y14442D1*
X7699Y14318D1*
X7661Y14199D1*
X7599Y14091D1*
X7515Y13998D1*
X7415Y13924D1*
X7301Y13873D1*
X7179Y13846D1*
X7054Y13845D1*
X6951Y13866D1*
X6950Y13049D1*
X7037Y13068D1*
X7162Y13071D1*
X7285Y13048D1*
X7400Y13000D1*
X7503Y12929D1*
X7588Y12838D1*
X7654Y12732D1*
X7695Y12614D1*
X7712Y12491D1*
X7704Y12374D1*
X7670Y12254D1*
X7613Y12143D1*
X7534Y12047D1*
X7436Y11969D1*
X7325Y11913D1*
X7204Y11881D1*
X7079Y11875D1*
X6951Y11896D1*
X6950Y11080D1*
X7037Y11100D1*
X7162Y11102D1*
X7285Y11079D1*
X7400Y11031D1*
X7503Y10960D1*
X7588Y10870D1*
X7654Y10763D1*
X7695Y10646D1*
X7712Y10505D1*
X7699Y10381D1*
X7661Y10262D1*
X7599Y10154D1*
X7515Y10061D1*
X7415Y9987D1*
X7301Y9936D1*
X7179Y9909D1*
X7054Y9908D1*
X6951Y9929D1*
X6950Y9618D1*
X6889Y9513D1*
X6825Y9493D1*
X4325D1*
Y5357D1*
X5063Y5358D1*
Y5011D1*
X5130Y5085D1*
Y6046D1*
X6251D1*
Y5354D1*
X6818Y5358D1*
X6931D1*
Y7763D1*
X6992Y7868D1*
X7056Y7888D1*
X10494D1*
Y17057D1*
X7056D1*
X6950Y17118D1*
X6931Y17182D1*
Y19584D1*
X6193Y19586D1*
X6188Y19860D1*
Y18899D1*
X5068D1*
Y19934D1*
X8779Y12441D2*
D16*
X9977D1*
X7113Y13073D2*
Y11874D1*
Y12473D2*
X7712D1*
D17*
X9378Y13441D3*
D18*
Y12441D3*
Y11441D3*
D19*
X4503Y20442D3*
X5628Y19754D3*
X6753Y20442D3*
X4503Y4503D3*
X5690Y5190D3*
X6753Y4503D3*
D20*
X7113Y10505D3*
Y12473D3*
Y14442D3*
M02*
