G04 DipTrace 2.4.0.2*
%INTopAssy.gbr*%
%MOIN*%
%ADD10C,0.0098*%
%ADD12C,0.003*%
%FSLAX44Y44*%
G04*
G70*
G90*
G75*
G01*
%LNTopAssy*%
%LPD*%
X9977Y14335D2*
D10*
Y10547D1*
X10310Y13425D2*
D12*
X10109D1*
Y13339D1*
X10119Y13310D1*
X10129Y13301D1*
X10148Y13291D1*
X10176D1*
X10196Y13301D1*
X10205Y13310D1*
X10215Y13339D1*
X10224Y13310D1*
X10234Y13301D1*
X10253Y13291D1*
X10272D1*
X10291Y13301D1*
X10301Y13310D1*
X10310Y13339D1*
Y13425D1*
X10215D2*
Y13339D1*
X10310Y13172D2*
X10301Y13191D1*
X10282Y13210D1*
X10263Y13220D1*
X10234Y13230D1*
X10186D1*
X10157Y13220D1*
X10138Y13210D1*
X10119Y13191D1*
X10109Y13172D1*
Y13134D1*
X10119Y13115D1*
X10138Y13096D1*
X10157Y13086D1*
X10186Y13077D1*
X10234D1*
X10263Y13086D1*
X10282Y13096D1*
X10301Y13115D1*
X10310Y13134D1*
Y13172D1*
X10109Y12862D2*
X10310Y12938D1*
X10109Y13015D1*
X10176Y12986D2*
Y12890D1*
X10215Y12800D2*
Y12714D1*
X10224Y12685D1*
X10234Y12675D1*
X10253Y12666D1*
X10272D1*
X10291Y12675D1*
X10301Y12685D1*
X10310Y12714D1*
Y12800D1*
X10109D1*
X10215Y12733D2*
X10109Y12666D1*
X10310Y12604D2*
X10109D1*
Y12537D1*
X10119Y12508D1*
X10138Y12489D1*
X10157Y12480D1*
X10186Y12470D1*
X10234D1*
X10263Y12480D1*
X10282Y12489D1*
X10301Y12508D1*
X10310Y12537D1*
Y12604D1*
Y12090D2*
Y12214D1*
X10109D1*
Y12090D1*
X10215Y12214D2*
Y12138D1*
X10310Y12028D2*
X10109D1*
Y11961D1*
X10119Y11932D1*
X10138Y11913D1*
X10157Y11904D1*
X10186Y11894D1*
X10234D1*
X10263Y11904D1*
X10282Y11913D1*
X10301Y11932D1*
X10310Y11961D1*
Y12028D1*
X10263Y11689D2*
X10282Y11698D1*
X10301Y11718D1*
X10310Y11737D1*
Y11775D1*
X10301Y11794D1*
X10282Y11813D1*
X10263Y11823D1*
X10234Y11832D1*
X10186D1*
X10157Y11823D1*
X10138Y11813D1*
X10119Y11794D1*
X10109Y11775D1*
Y11737D1*
X10119Y11718D1*
X10138Y11698D1*
X10157Y11689D1*
X10186D1*
Y11737D1*
X10310Y11503D2*
Y11627D1*
X10109D1*
Y11503D1*
X10215Y11627D2*
Y11551D1*
M02*
