G04 MADE WITH FRITZING*
G04 WWW.FRITZING.ORG*
G04 DOUBLE SIDED*
G04 HOLES PLATED*
G04 CONTOUR ON CENTER OF CONTOUR VECTOR*
%ASAXBY*%
%FSLAX23Y23*%
%MOIN*%
%OFA0B0*%
%SFA1.0B1.0*%
%ADD10C,0.075000*%
%ADD11C,0.066000*%
%ADD12C,0.110000*%
%ADD13C,0.070925*%
%ADD14C,0.070866*%
%ADD15C,0.078000*%
%ADD16C,0.039370*%
%ADD17R,0.078736X0.049208*%
%ADD18R,0.078736X0.049222*%
%ADD19R,0.074803X0.062992*%
%ADD20R,0.062992X0.074803*%
%ADD21R,0.050000X0.022000*%
%ADD22R,0.022000X0.050000*%
%ADD23R,0.024000X0.087000*%
%ADD24R,0.055000X0.013701*%
%ADD25R,0.137795X0.062992*%
%ADD26R,0.051181X0.055118*%
%ADD27R,0.048000X0.088000*%
%ADD28R,0.141732X0.086614*%
%ADD29C,0.008000*%
%ADD30C,0.048000*%
%ADD31C,0.012000*%
%LNCOPPER1*%
G90*
G70*
G54D10*
X1710Y972D03*
X1315Y515D03*
X1218Y1290D03*
X1786Y131D03*
G54D11*
X283Y592D03*
X283Y690D03*
X205Y690D03*
X205Y592D03*
G54D12*
X98Y404D03*
X98Y878D03*
G54D11*
X283Y592D03*
X283Y690D03*
X205Y690D03*
X205Y592D03*
G54D12*
X98Y404D03*
X98Y878D03*
G54D13*
X349Y1246D03*
G54D14*
X349Y1053D03*
G54D15*
X1888Y235D03*
X1888Y335D03*
X1885Y1193D03*
X1885Y1093D03*
X1885Y993D03*
X1885Y893D03*
X1885Y793D03*
X1885Y693D03*
G54D16*
X845Y628D03*
X845Y683D03*
X928Y482D03*
X868Y445D03*
X1542Y722D03*
X1799Y485D03*
X1142Y213D03*
X1102Y106D03*
X1024Y800D03*
X1077Y805D03*
X729Y861D03*
X630Y955D03*
X919Y1294D03*
X1731Y1082D03*
X778Y1343D03*
X1501Y1121D03*
X1122Y995D03*
X1162Y1021D03*
X1205Y1054D03*
X971Y1025D03*
X1182Y857D03*
X836Y992D03*
X1003Y680D03*
X1006Y316D03*
X1191Y757D03*
X1511Y819D03*
X1158Y813D03*
X1603Y727D03*
X1261Y594D03*
X922Y1065D03*
X1566Y1050D03*
X1232Y531D03*
G54D15*
X849Y159D03*
X849Y59D03*
G54D17*
X1401Y99D03*
G54D18*
X1401Y227D03*
G54D19*
X1306Y360D03*
X1306Y238D03*
G54D20*
X1510Y496D03*
X1632Y496D03*
G54D21*
X914Y854D03*
X914Y823D03*
X914Y791D03*
X914Y760D03*
X914Y728D03*
X914Y697D03*
X914Y665D03*
X914Y634D03*
G54D22*
X973Y575D03*
X1004Y575D03*
X1036Y575D03*
X1067Y575D03*
X1099Y575D03*
X1130Y575D03*
X1162Y575D03*
X1193Y575D03*
G54D21*
X1252Y634D03*
X1252Y665D03*
X1252Y697D03*
X1252Y728D03*
X1252Y760D03*
X1252Y791D03*
X1252Y823D03*
X1252Y854D03*
G54D22*
X1193Y913D03*
X1162Y913D03*
X1130Y913D03*
X1099Y913D03*
X1067Y913D03*
X1036Y913D03*
X1004Y913D03*
X973Y913D03*
G54D23*
X732Y1066D03*
X782Y1066D03*
X832Y1066D03*
X882Y1066D03*
X882Y1272D03*
X832Y1272D03*
X782Y1272D03*
X732Y1272D03*
X1433Y981D03*
X1483Y981D03*
X1533Y981D03*
X1583Y981D03*
X1583Y1187D03*
X1533Y1187D03*
X1483Y1187D03*
X1433Y1187D03*
G54D24*
X928Y104D03*
X928Y129D03*
X928Y155D03*
X928Y180D03*
X928Y206D03*
X928Y231D03*
X928Y257D03*
X928Y308D03*
X928Y283D03*
X928Y334D03*
X928Y359D03*
X928Y385D03*
X928Y411D03*
X928Y436D03*
X1215Y104D03*
X1215Y129D03*
X1215Y155D03*
X1215Y180D03*
X1215Y206D03*
X1215Y231D03*
X1215Y257D03*
X1215Y283D03*
X1215Y308D03*
X1215Y334D03*
X1215Y359D03*
X1215Y385D03*
X1215Y411D03*
X1215Y436D03*
G54D20*
X204Y1055D03*
X82Y1055D03*
X206Y1154D03*
X84Y1154D03*
X1418Y1297D03*
X1540Y1297D03*
X1549Y634D03*
X1671Y634D03*
X1343Y634D03*
X1465Y634D03*
X1674Y1096D03*
X1796Y1096D03*
X1672Y1191D03*
X1794Y1191D03*
X1342Y737D03*
X1464Y737D03*
X1103Y1295D03*
X981Y1295D03*
X530Y1308D03*
X652Y1308D03*
X1871Y564D03*
X1749Y564D03*
G54D19*
X641Y1214D03*
X641Y1092D03*
G54D25*
X425Y495D03*
X638Y495D03*
X498Y179D03*
X711Y179D03*
G54D20*
X970Y1136D03*
X1092Y1136D03*
G54D26*
X1502Y414D03*
X1602Y414D03*
X1702Y414D03*
X1802Y414D03*
X1505Y38D03*
X1605Y38D03*
X1705Y38D03*
X1805Y38D03*
G54D25*
X422Y800D03*
X634Y800D03*
G54D20*
X1182Y1123D03*
X1304Y1123D03*
G54D19*
X797Y270D03*
X797Y392D03*
G54D27*
X188Y94D03*
X279Y94D03*
X370Y94D03*
G54D28*
X279Y338D03*
G54D29*
X83Y1087D02*
X83Y1122D01*
D02*
X85Y1023D02*
X93Y928D01*
D02*
X100Y197D02*
X98Y353D01*
D02*
X191Y195D02*
X100Y197D01*
D02*
X189Y133D02*
X191Y195D01*
D02*
X280Y496D02*
X362Y495D01*
D02*
X279Y376D02*
X280Y496D01*
D02*
X283Y496D02*
X362Y495D01*
D02*
X283Y568D02*
X283Y496D01*
D02*
X1603Y101D02*
X1604Y60D01*
D02*
X1435Y100D02*
X1603Y101D01*
D02*
X1699Y225D02*
X1704Y60D01*
D02*
X1435Y227D02*
X1699Y225D01*
D02*
X1697Y227D02*
X1704Y60D01*
D02*
X1864Y234D02*
X1697Y227D01*
D02*
X1306Y98D02*
X1367Y99D01*
D02*
X1306Y212D02*
X1306Y98D01*
D02*
X1476Y271D02*
X1847Y278D01*
D02*
X1338Y343D02*
X1476Y271D01*
D02*
X416Y587D02*
X306Y591D01*
D02*
X421Y774D02*
X416Y587D01*
D02*
X493Y800D02*
X485Y800D01*
D02*
X488Y1092D02*
X493Y800D01*
D02*
X610Y1092D02*
X488Y1092D01*
D02*
X208Y1251D02*
X206Y1186D01*
D02*
X328Y1247D02*
X208Y1251D01*
D02*
X328Y1053D02*
X230Y1054D01*
D02*
X637Y521D02*
X635Y774D01*
D02*
X191Y195D02*
X191Y250D01*
D02*
X191Y250D02*
X712Y243D01*
D02*
X712Y243D02*
X711Y205D01*
D02*
X796Y180D02*
X774Y180D01*
D02*
X797Y244D02*
X796Y180D01*
D02*
X627Y277D02*
X765Y272D01*
D02*
X636Y469D02*
X627Y277D01*
D02*
X1822Y1095D02*
X1861Y1094D01*
D02*
X1820Y1192D02*
X1861Y1193D01*
D02*
X1646Y1190D02*
X1589Y1187D01*
D02*
X895Y632D02*
X858Y629D01*
D02*
X895Y665D02*
X867Y665D01*
D02*
X928Y437D02*
X928Y468D01*
D02*
X789Y1148D02*
X785Y1104D01*
D02*
X726Y1067D02*
X674Y1073D01*
D02*
X674Y1073D02*
X673Y1074D01*
D02*
X531Y1276D02*
X536Y1154D01*
D02*
X536Y1154D02*
X789Y1148D01*
D02*
X973Y913D02*
X972Y915D01*
D02*
X972Y915D02*
X989Y1023D01*
D02*
X906Y385D02*
X869Y386D01*
D02*
X870Y386D02*
X829Y390D01*
D02*
X914Y412D02*
X872Y416D01*
D02*
X872Y416D02*
X870Y432D01*
D02*
X732Y1272D02*
X731Y1310D01*
D02*
X731Y1310D02*
X678Y1309D01*
D02*
X644Y1240D02*
X648Y1276D01*
D02*
X1476Y324D02*
X1554Y324D01*
D02*
X1161Y508D02*
X1284Y443D01*
D02*
X1284Y443D02*
X1393Y441D01*
D02*
X1393Y441D02*
X1393Y372D01*
D02*
X1393Y372D02*
X1476Y324D01*
D02*
X1558Y488D02*
X1606Y493D01*
D02*
X1161Y555D02*
X1161Y508D01*
D02*
X1554Y324D02*
X1558Y488D01*
D02*
X1847Y278D02*
X1874Y315D01*
D02*
X1699Y436D02*
X1694Y479D01*
D02*
X1694Y479D02*
X1658Y489D01*
D02*
X1697Y634D02*
X1815Y637D01*
D02*
X1815Y637D02*
X1847Y596D01*
D02*
X1723Y564D02*
X1500Y564D01*
D02*
X1500Y564D02*
X1505Y528D01*
D02*
X1369Y613D02*
X1508Y502D01*
D02*
X1508Y502D02*
X1510Y496D01*
D02*
X1502Y436D02*
X1500Y514D01*
D02*
X1500Y514D02*
X1510Y496D01*
D02*
X983Y1338D02*
X830Y1338D01*
D02*
X830Y1338D02*
X831Y1310D01*
D02*
X982Y1327D02*
X983Y1338D01*
D02*
X1464Y737D02*
X1488Y738D01*
D02*
X1488Y738D02*
X1529Y726D01*
D02*
X1491Y631D02*
X1512Y629D01*
D02*
X1512Y629D02*
X1523Y630D01*
D02*
X1801Y436D02*
X1799Y472D01*
D02*
X1202Y207D02*
X1156Y212D01*
D02*
X1535Y1225D02*
X1538Y1265D01*
D02*
X1006Y893D02*
X1009Y842D01*
D02*
X1193Y104D02*
X1116Y106D01*
D02*
X814Y759D02*
X738Y851D01*
D02*
X626Y911D02*
X632Y826D01*
D02*
X839Y794D02*
X837Y906D01*
D02*
X837Y906D02*
X626Y911D01*
D02*
X895Y759D02*
X814Y759D01*
D02*
X789Y653D02*
X638Y665D01*
D02*
X801Y728D02*
X789Y653D01*
D02*
X638Y665D02*
X635Y774D01*
D02*
X895Y728D02*
X801Y728D01*
D02*
X895Y792D02*
X839Y794D01*
D02*
X1037Y893D02*
X1040Y849D01*
D02*
X783Y905D02*
X837Y905D01*
D02*
X839Y792D02*
X895Y791D01*
D02*
X782Y1028D02*
X783Y905D01*
D02*
X837Y905D02*
X839Y792D01*
D02*
X639Y965D02*
X726Y1059D01*
D02*
X1344Y730D02*
X1271Y729D01*
D02*
X1342Y665D02*
X1342Y667D01*
D02*
X1342Y667D02*
X1271Y665D01*
D02*
X1156Y1127D02*
X1104Y1136D01*
D02*
X1104Y1136D02*
X1092Y1136D01*
D02*
X1101Y1263D02*
X1094Y1168D01*
D02*
X784Y1194D02*
X783Y1104D01*
D02*
X1094Y1168D02*
X1097Y1201D01*
D02*
X1097Y1201D02*
X784Y1194D01*
D02*
X1342Y737D02*
X1344Y730D01*
D02*
X1177Y1296D02*
X1181Y1155D01*
D02*
X780Y1310D02*
X779Y1330D01*
D02*
X1700Y1090D02*
X1718Y1085D01*
D02*
X889Y1276D02*
X907Y1288D01*
D02*
X1392Y1297D02*
X1177Y1296D01*
D02*
X1489Y1164D02*
X1497Y1134D01*
D02*
X1233Y855D02*
X1196Y856D01*
D02*
X1195Y932D02*
X1203Y1041D01*
D02*
X1162Y932D02*
X1162Y1007D01*
D02*
X1128Y932D02*
X1123Y982D01*
D02*
X834Y1028D02*
X835Y1006D01*
D02*
X933Y696D02*
X975Y696D01*
D02*
X1016Y679D02*
X1175Y665D01*
D02*
X1354Y768D02*
X1426Y964D01*
D02*
X1330Y1094D02*
X1426Y988D01*
D02*
X941Y310D02*
X993Y315D01*
D02*
X1546Y666D02*
X1543Y708D01*
D02*
X1233Y759D02*
X1204Y758D01*
D02*
X1476Y961D02*
X1424Y799D01*
D02*
X1424Y799D02*
X1443Y768D01*
D02*
X1528Y943D02*
X1513Y833D01*
D02*
X1586Y943D02*
X1602Y740D01*
D02*
X1613Y1092D02*
X1667Y666D01*
D02*
X1438Y1149D02*
X1447Y1077D01*
D02*
X1447Y1077D02*
X1613Y1092D01*
D02*
X1576Y1008D02*
X1569Y1037D01*
D02*
X889Y1066D02*
X908Y1065D01*
D02*
X1252Y634D02*
X1256Y631D01*
D02*
X1256Y631D02*
X1259Y607D01*
G54D30*
D02*
X496Y153D02*
X487Y64D01*
D02*
X487Y64D02*
X824Y60D01*
G54D29*
D02*
X1199Y571D02*
X1221Y557D01*
D02*
X1221Y557D02*
X1227Y544D01*
D02*
X928Y179D02*
X928Y156D01*
D02*
X774Y170D02*
X824Y163D01*
D02*
X873Y155D02*
X886Y153D01*
D02*
X886Y153D02*
X906Y154D01*
G54D31*
D02*
X861Y362D02*
X861Y327D01*
D02*
X861Y327D02*
X826Y296D01*
D02*
X906Y360D02*
X861Y362D01*
D02*
X942Y281D02*
X1201Y258D01*
D02*
X914Y281D02*
X829Y273D01*
G54D29*
D02*
X1342Y705D02*
X1342Y667D01*
D02*
X1040Y849D02*
X1068Y815D01*
D02*
X1009Y842D02*
X1019Y813D01*
D02*
X975Y696D02*
X991Y687D01*
D02*
X1175Y665D02*
X1233Y665D01*
D02*
X867Y665D02*
X855Y675D01*
D02*
X1171Y816D02*
X1208Y824D01*
D02*
X1208Y824D02*
X1233Y823D01*
D02*
X989Y1023D02*
X975Y1104D01*
D02*
X984Y1024D02*
X989Y1023D01*
G54D30*
D02*
X388Y90D02*
X487Y64D01*
G36*
X576Y1338D02*
X576Y1260D01*
X606Y1260D01*
X606Y1338D01*
X576Y1338D01*
G37*
D02*
G36*
X1464Y1338D02*
X1464Y1246D01*
X1494Y1246D01*
X1494Y1338D01*
X1464Y1338D01*
G37*
D02*
G36*
X1586Y1338D02*
X1586Y1246D01*
X1610Y1246D01*
X1610Y1244D01*
X1718Y1244D01*
X1718Y1148D01*
X1720Y1148D01*
X1720Y1116D01*
X1750Y1116D01*
X1750Y1138D01*
X1748Y1138D01*
X1748Y1244D01*
X1854Y1244D01*
X1854Y1254D01*
X1852Y1254D01*
X1852Y1256D01*
X1850Y1256D01*
X1850Y1260D01*
X1848Y1260D01*
X1848Y1262D01*
X1846Y1262D01*
X1846Y1266D01*
X1844Y1266D01*
X1844Y1270D01*
X1842Y1270D01*
X1842Y1274D01*
X1840Y1274D01*
X1840Y1280D01*
X1838Y1280D01*
X1838Y1302D01*
X1840Y1302D01*
X1840Y1310D01*
X1842Y1310D01*
X1842Y1314D01*
X1844Y1314D01*
X1844Y1318D01*
X1846Y1318D01*
X1846Y1338D01*
X1586Y1338D01*
G37*
D02*
G36*
X1536Y1128D02*
X1536Y1106D01*
X1566Y1106D01*
X1566Y1108D01*
X1588Y1108D01*
X1588Y1128D01*
X1536Y1128D01*
G37*
D02*
G36*
X1500Y1064D02*
X1500Y1062D01*
X1476Y1062D01*
X1476Y1060D01*
X1454Y1060D01*
X1454Y1040D01*
X1532Y1040D01*
X1532Y1064D01*
X1500Y1064D01*
G37*
D02*
G36*
X1720Y1048D02*
X1720Y1044D01*
X1640Y1044D01*
X1640Y1024D01*
X1642Y1024D01*
X1642Y1008D01*
X1644Y1008D01*
X1644Y992D01*
X1646Y992D01*
X1646Y976D01*
X1648Y976D01*
X1648Y960D01*
X1650Y960D01*
X1650Y944D01*
X1652Y944D01*
X1652Y928D01*
X1654Y928D01*
X1654Y912D01*
X1656Y912D01*
X1656Y896D01*
X1658Y896D01*
X1658Y880D01*
X1660Y880D01*
X1660Y864D01*
X1662Y864D01*
X1662Y848D01*
X1664Y848D01*
X1664Y832D01*
X1666Y832D01*
X1666Y818D01*
X1668Y818D01*
X1668Y802D01*
X1670Y802D01*
X1670Y786D01*
X1672Y786D01*
X1672Y770D01*
X1674Y770D01*
X1674Y754D01*
X1676Y754D01*
X1676Y738D01*
X1678Y738D01*
X1678Y722D01*
X1680Y722D01*
X1680Y706D01*
X1682Y706D01*
X1682Y690D01*
X1684Y690D01*
X1684Y686D01*
X1718Y686D01*
X1718Y656D01*
X1820Y656D01*
X1820Y654D01*
X1824Y654D01*
X1824Y652D01*
X1828Y652D01*
X1828Y650D01*
X1830Y650D01*
X1830Y648D01*
X1832Y648D01*
X1832Y644D01*
X1834Y644D01*
X1834Y642D01*
X1836Y642D01*
X1836Y640D01*
X1874Y640D01*
X1874Y642D01*
X1868Y642D01*
X1868Y644D01*
X1864Y644D01*
X1864Y646D01*
X1860Y646D01*
X1860Y648D01*
X1858Y648D01*
X1858Y650D01*
X1854Y650D01*
X1854Y652D01*
X1852Y652D01*
X1852Y654D01*
X1850Y654D01*
X1850Y656D01*
X1848Y656D01*
X1848Y658D01*
X1846Y658D01*
X1846Y660D01*
X1844Y660D01*
X1844Y662D01*
X1842Y662D01*
X1842Y666D01*
X1840Y666D01*
X1840Y668D01*
X1838Y668D01*
X1838Y672D01*
X1836Y672D01*
X1836Y676D01*
X1834Y676D01*
X1834Y682D01*
X1832Y682D01*
X1832Y706D01*
X1834Y706D01*
X1834Y710D01*
X1836Y710D01*
X1836Y716D01*
X1838Y716D01*
X1838Y718D01*
X1840Y718D01*
X1840Y722D01*
X1842Y722D01*
X1842Y724D01*
X1844Y724D01*
X1844Y726D01*
X1846Y726D01*
X1846Y728D01*
X1848Y728D01*
X1848Y732D01*
X1852Y732D01*
X1852Y754D01*
X1850Y754D01*
X1850Y756D01*
X1848Y756D01*
X1848Y758D01*
X1846Y758D01*
X1846Y760D01*
X1844Y760D01*
X1844Y762D01*
X1842Y762D01*
X1842Y766D01*
X1840Y766D01*
X1840Y768D01*
X1838Y768D01*
X1838Y772D01*
X1836Y772D01*
X1836Y776D01*
X1834Y776D01*
X1834Y782D01*
X1832Y782D01*
X1832Y806D01*
X1834Y806D01*
X1834Y810D01*
X1836Y810D01*
X1836Y816D01*
X1838Y816D01*
X1838Y818D01*
X1840Y818D01*
X1840Y822D01*
X1842Y822D01*
X1842Y824D01*
X1844Y824D01*
X1844Y826D01*
X1846Y826D01*
X1846Y828D01*
X1848Y828D01*
X1848Y832D01*
X1852Y832D01*
X1852Y854D01*
X1850Y854D01*
X1850Y856D01*
X1848Y856D01*
X1848Y858D01*
X1846Y858D01*
X1846Y860D01*
X1844Y860D01*
X1844Y862D01*
X1842Y862D01*
X1842Y866D01*
X1840Y866D01*
X1840Y868D01*
X1838Y868D01*
X1838Y872D01*
X1836Y872D01*
X1836Y876D01*
X1834Y876D01*
X1834Y882D01*
X1832Y882D01*
X1832Y906D01*
X1834Y906D01*
X1834Y910D01*
X1836Y910D01*
X1836Y916D01*
X1838Y916D01*
X1838Y918D01*
X1840Y918D01*
X1840Y922D01*
X1842Y922D01*
X1842Y924D01*
X1844Y924D01*
X1844Y926D01*
X1846Y926D01*
X1846Y928D01*
X1848Y928D01*
X1848Y932D01*
X1852Y932D01*
X1852Y954D01*
X1850Y954D01*
X1850Y956D01*
X1848Y956D01*
X1848Y958D01*
X1846Y958D01*
X1846Y960D01*
X1844Y960D01*
X1844Y962D01*
X1842Y962D01*
X1842Y966D01*
X1840Y966D01*
X1840Y968D01*
X1838Y968D01*
X1838Y972D01*
X1836Y972D01*
X1836Y976D01*
X1834Y976D01*
X1834Y982D01*
X1832Y982D01*
X1832Y1006D01*
X1834Y1006D01*
X1834Y1010D01*
X1836Y1010D01*
X1836Y1016D01*
X1838Y1016D01*
X1838Y1018D01*
X1840Y1018D01*
X1840Y1022D01*
X1842Y1022D01*
X1842Y1024D01*
X1844Y1024D01*
X1844Y1026D01*
X1846Y1026D01*
X1846Y1028D01*
X1848Y1028D01*
X1848Y1032D01*
X1852Y1032D01*
X1852Y1044D01*
X1750Y1044D01*
X1750Y1048D01*
X1720Y1048D01*
G37*
D02*
G36*
X1718Y656D02*
X1718Y654D01*
X1766Y654D01*
X1766Y656D01*
X1718Y656D01*
G37*
D02*
G36*
X1906Y646D02*
X1906Y644D01*
X1902Y644D01*
X1902Y642D01*
X1896Y642D01*
X1896Y640D01*
X1928Y640D01*
X1928Y646D01*
X1906Y646D01*
G37*
D02*
G36*
X1838Y640D02*
X1838Y638D01*
X1928Y638D01*
X1928Y640D01*
X1838Y640D01*
G37*
D02*
G36*
X1838Y640D02*
X1838Y638D01*
X1928Y638D01*
X1928Y640D01*
X1838Y640D01*
G37*
D02*
G36*
X1838Y638D02*
X1838Y636D01*
X1840Y636D01*
X1840Y634D01*
X1842Y634D01*
X1842Y632D01*
X1844Y632D01*
X1844Y630D01*
X1846Y630D01*
X1846Y626D01*
X1848Y626D01*
X1848Y624D01*
X1850Y624D01*
X1850Y622D01*
X1852Y622D01*
X1852Y618D01*
X1854Y618D01*
X1854Y616D01*
X1928Y616D01*
X1928Y638D01*
X1838Y638D01*
G37*
D02*
G36*
X1430Y922D02*
X1430Y916D01*
X1428Y916D01*
X1428Y910D01*
X1426Y910D01*
X1426Y906D01*
X1424Y906D01*
X1424Y900D01*
X1422Y900D01*
X1422Y894D01*
X1420Y894D01*
X1420Y890D01*
X1418Y890D01*
X1418Y884D01*
X1416Y884D01*
X1416Y878D01*
X1414Y878D01*
X1414Y874D01*
X1412Y874D01*
X1412Y868D01*
X1410Y868D01*
X1410Y862D01*
X1408Y862D01*
X1408Y856D01*
X1406Y856D01*
X1406Y852D01*
X1404Y852D01*
X1404Y846D01*
X1402Y846D01*
X1402Y840D01*
X1400Y840D01*
X1400Y836D01*
X1398Y836D01*
X1398Y830D01*
X1396Y830D01*
X1396Y824D01*
X1394Y824D01*
X1394Y820D01*
X1392Y820D01*
X1392Y814D01*
X1390Y814D01*
X1390Y808D01*
X1388Y808D01*
X1388Y686D01*
X1390Y686D01*
X1390Y620D01*
X1392Y620D01*
X1392Y618D01*
X1394Y618D01*
X1394Y616D01*
X1396Y616D01*
X1396Y614D01*
X1418Y614D01*
X1418Y790D01*
X1478Y790D01*
X1478Y814D01*
X1476Y814D01*
X1476Y824D01*
X1478Y824D01*
X1478Y830D01*
X1480Y830D01*
X1480Y834D01*
X1482Y834D01*
X1482Y838D01*
X1484Y838D01*
X1484Y840D01*
X1486Y840D01*
X1486Y842D01*
X1488Y842D01*
X1488Y844D01*
X1490Y844D01*
X1490Y846D01*
X1492Y846D01*
X1492Y848D01*
X1496Y848D01*
X1496Y856D01*
X1498Y856D01*
X1498Y872D01*
X1500Y872D01*
X1500Y886D01*
X1502Y886D01*
X1502Y902D01*
X1504Y902D01*
X1504Y922D01*
X1430Y922D01*
G37*
D02*
G36*
X1544Y922D02*
X1544Y914D01*
X1542Y914D01*
X1542Y900D01*
X1540Y900D01*
X1540Y884D01*
X1538Y884D01*
X1538Y870D01*
X1536Y870D01*
X1536Y840D01*
X1538Y840D01*
X1538Y838D01*
X1540Y838D01*
X1540Y834D01*
X1542Y834D01*
X1542Y832D01*
X1544Y832D01*
X1544Y826D01*
X1546Y826D01*
X1546Y814D01*
X1544Y814D01*
X1544Y808D01*
X1542Y808D01*
X1542Y804D01*
X1540Y804D01*
X1540Y800D01*
X1538Y800D01*
X1538Y798D01*
X1536Y798D01*
X1536Y796D01*
X1534Y796D01*
X1534Y794D01*
X1532Y794D01*
X1532Y792D01*
X1528Y792D01*
X1528Y790D01*
X1526Y790D01*
X1526Y788D01*
X1522Y788D01*
X1522Y786D01*
X1516Y786D01*
X1516Y784D01*
X1510Y784D01*
X1510Y756D01*
X1550Y756D01*
X1550Y754D01*
X1556Y754D01*
X1556Y752D01*
X1558Y752D01*
X1558Y750D01*
X1580Y750D01*
X1580Y792D01*
X1578Y792D01*
X1578Y816D01*
X1576Y816D01*
X1576Y842D01*
X1574Y842D01*
X1574Y866D01*
X1572Y866D01*
X1572Y890D01*
X1570Y890D01*
X1570Y916D01*
X1568Y916D01*
X1568Y922D01*
X1544Y922D01*
G37*
D02*
G36*
X1510Y756D02*
X1510Y752D01*
X1530Y752D01*
X1530Y754D01*
X1534Y754D01*
X1534Y756D01*
X1510Y756D01*
G37*
D02*
G36*
X954Y872D02*
X954Y766D01*
X1016Y766D01*
X1016Y768D01*
X1012Y768D01*
X1012Y770D01*
X1008Y770D01*
X1008Y772D01*
X1004Y772D01*
X1004Y774D01*
X1002Y774D01*
X1002Y776D01*
X1000Y776D01*
X1000Y778D01*
X998Y778D01*
X998Y780D01*
X996Y780D01*
X996Y784D01*
X994Y784D01*
X994Y786D01*
X992Y786D01*
X992Y790D01*
X990Y790D01*
X990Y798D01*
X988Y798D01*
X988Y802D01*
X990Y802D01*
X990Y810D01*
X992Y810D01*
X992Y836D01*
X990Y836D01*
X990Y852D01*
X988Y852D01*
X988Y872D01*
X954Y872D01*
G37*
D02*
G36*
X1110Y796D02*
X1110Y794D01*
X1108Y794D01*
X1108Y790D01*
X1106Y790D01*
X1106Y786D01*
X1104Y786D01*
X1104Y784D01*
X1102Y784D01*
X1102Y782D01*
X1100Y782D01*
X1100Y780D01*
X1098Y780D01*
X1098Y778D01*
X1096Y778D01*
X1096Y776D01*
X1092Y776D01*
X1092Y774D01*
X1088Y774D01*
X1088Y772D01*
X1082Y772D01*
X1082Y770D01*
X1156Y770D01*
X1156Y778D01*
X1152Y778D01*
X1152Y780D01*
X1146Y780D01*
X1146Y782D01*
X1142Y782D01*
X1142Y784D01*
X1140Y784D01*
X1140Y786D01*
X1138Y786D01*
X1138Y788D01*
X1136Y788D01*
X1136Y790D01*
X1134Y790D01*
X1134Y792D01*
X1132Y792D01*
X1132Y794D01*
X1130Y794D01*
X1130Y796D01*
X1110Y796D01*
G37*
D02*
G36*
X1042Y774D02*
X1042Y772D01*
X1040Y772D01*
X1040Y770D01*
X1072Y770D01*
X1072Y772D01*
X1066Y772D01*
X1066Y774D01*
X1042Y774D01*
G37*
D02*
G36*
X1036Y770D02*
X1036Y768D01*
X1156Y768D01*
X1156Y770D01*
X1036Y770D01*
G37*
D02*
G36*
X1036Y770D02*
X1036Y768D01*
X1156Y768D01*
X1156Y770D01*
X1036Y770D01*
G37*
D02*
G36*
X1030Y768D02*
X1030Y766D01*
X1156Y766D01*
X1156Y768D01*
X1030Y768D01*
G37*
D02*
G36*
X954Y766D02*
X954Y764D01*
X1156Y764D01*
X1156Y766D01*
X954Y766D01*
G37*
D02*
G36*
X954Y766D02*
X954Y764D01*
X1156Y764D01*
X1156Y766D01*
X954Y766D01*
G37*
D02*
G36*
X954Y764D02*
X954Y716D01*
X1006Y716D01*
X1006Y714D01*
X1012Y714D01*
X1012Y712D01*
X1018Y712D01*
X1018Y710D01*
X1020Y710D01*
X1020Y708D01*
X1022Y708D01*
X1022Y706D01*
X1026Y706D01*
X1026Y704D01*
X1028Y704D01*
X1028Y700D01*
X1030Y700D01*
X1030Y698D01*
X1032Y698D01*
X1032Y696D01*
X1052Y696D01*
X1052Y694D01*
X1074Y694D01*
X1074Y692D01*
X1096Y692D01*
X1096Y690D01*
X1118Y690D01*
X1118Y688D01*
X1140Y688D01*
X1140Y686D01*
X1162Y686D01*
X1162Y684D01*
X1212Y684D01*
X1212Y722D01*
X1186Y722D01*
X1186Y724D01*
X1180Y724D01*
X1180Y726D01*
X1176Y726D01*
X1176Y728D01*
X1172Y728D01*
X1172Y730D01*
X1170Y730D01*
X1170Y732D01*
X1168Y732D01*
X1168Y734D01*
X1166Y734D01*
X1166Y736D01*
X1164Y736D01*
X1164Y738D01*
X1162Y738D01*
X1162Y742D01*
X1160Y742D01*
X1160Y744D01*
X1158Y744D01*
X1158Y750D01*
X1156Y750D01*
X1156Y764D01*
X954Y764D01*
G37*
D02*
G36*
X978Y716D02*
X978Y714D01*
X1000Y714D01*
X1000Y716D01*
X978Y716D01*
G37*
D02*
G36*
X1062Y872D02*
X1062Y852D01*
X1064Y852D01*
X1064Y848D01*
X1066Y848D01*
X1066Y846D01*
X1068Y846D01*
X1068Y844D01*
X1070Y844D01*
X1070Y842D01*
X1072Y842D01*
X1072Y840D01*
X1084Y840D01*
X1084Y838D01*
X1088Y838D01*
X1088Y836D01*
X1092Y836D01*
X1092Y834D01*
X1096Y834D01*
X1096Y832D01*
X1098Y832D01*
X1098Y830D01*
X1100Y830D01*
X1100Y828D01*
X1102Y828D01*
X1102Y826D01*
X1104Y826D01*
X1104Y824D01*
X1106Y824D01*
X1106Y822D01*
X1126Y822D01*
X1126Y826D01*
X1128Y826D01*
X1128Y830D01*
X1130Y830D01*
X1130Y832D01*
X1132Y832D01*
X1132Y834D01*
X1134Y834D01*
X1134Y836D01*
X1136Y836D01*
X1136Y838D01*
X1138Y838D01*
X1138Y840D01*
X1140Y840D01*
X1140Y842D01*
X1144Y842D01*
X1144Y844D01*
X1148Y844D01*
X1148Y872D01*
X1062Y872D01*
G37*
D02*
G36*
X1596Y692D02*
X1596Y584D01*
X1624Y584D01*
X1624Y692D01*
X1596Y692D01*
G37*
D02*
G36*
X954Y666D02*
X954Y646D01*
X996Y646D01*
X996Y648D01*
X990Y648D01*
X990Y650D01*
X986Y650D01*
X986Y652D01*
X984Y652D01*
X984Y654D01*
X982Y654D01*
X982Y656D01*
X980Y656D01*
X980Y658D01*
X978Y658D01*
X978Y660D01*
X976Y660D01*
X976Y662D01*
X974Y662D01*
X974Y666D01*
X954Y666D01*
G37*
D02*
G36*
X1026Y658D02*
X1026Y656D01*
X1024Y656D01*
X1024Y654D01*
X1022Y654D01*
X1022Y652D01*
X1018Y652D01*
X1018Y650D01*
X1016Y650D01*
X1016Y648D01*
X1010Y648D01*
X1010Y646D01*
X1160Y646D01*
X1160Y648D01*
X1138Y648D01*
X1138Y650D01*
X1116Y650D01*
X1116Y652D01*
X1094Y652D01*
X1094Y654D01*
X1072Y654D01*
X1072Y656D01*
X1050Y656D01*
X1050Y658D01*
X1026Y658D01*
G37*
D02*
G36*
X954Y646D02*
X954Y644D01*
X1212Y644D01*
X1212Y646D01*
X954Y646D01*
G37*
D02*
G36*
X954Y646D02*
X954Y644D01*
X1212Y644D01*
X1212Y646D01*
X954Y646D01*
G37*
D02*
G36*
X954Y644D02*
X954Y614D01*
X1212Y614D01*
X1212Y644D01*
X954Y644D01*
G37*
D02*
G36*
X1796Y606D02*
X1796Y520D01*
X1824Y520D01*
X1824Y596D01*
X1822Y596D01*
X1822Y598D01*
X1820Y598D01*
X1820Y600D01*
X1818Y600D01*
X1818Y604D01*
X1816Y604D01*
X1816Y606D01*
X1796Y606D01*
G37*
D02*
G36*
X1292Y582D02*
X1292Y578D01*
X1290Y578D01*
X1290Y576D01*
X1288Y576D01*
X1288Y572D01*
X1286Y572D01*
X1286Y570D01*
X1284Y570D01*
X1284Y568D01*
X1282Y568D01*
X1282Y566D01*
X1278Y566D01*
X1278Y564D01*
X1276Y564D01*
X1276Y562D01*
X1272Y562D01*
X1272Y560D01*
X1264Y560D01*
X1264Y538D01*
X1266Y538D01*
X1266Y524D01*
X1264Y524D01*
X1264Y518D01*
X1262Y518D01*
X1262Y516D01*
X1260Y516D01*
X1260Y512D01*
X1258Y512D01*
X1258Y510D01*
X1256Y510D01*
X1256Y508D01*
X1254Y508D01*
X1254Y506D01*
X1252Y506D01*
X1252Y504D01*
X1250Y504D01*
X1250Y502D01*
X1248Y502D01*
X1248Y482D01*
X1252Y482D01*
X1252Y480D01*
X1256Y480D01*
X1256Y478D01*
X1260Y478D01*
X1260Y476D01*
X1264Y476D01*
X1264Y474D01*
X1268Y474D01*
X1268Y472D01*
X1272Y472D01*
X1272Y470D01*
X1276Y470D01*
X1276Y468D01*
X1280Y468D01*
X1280Y466D01*
X1284Y466D01*
X1284Y464D01*
X1286Y464D01*
X1286Y462D01*
X1346Y462D01*
X1346Y460D01*
X1400Y460D01*
X1400Y458D01*
X1404Y458D01*
X1404Y456D01*
X1406Y456D01*
X1406Y454D01*
X1408Y454D01*
X1408Y452D01*
X1410Y452D01*
X1410Y446D01*
X1412Y446D01*
X1412Y382D01*
X1416Y382D01*
X1416Y380D01*
X1420Y380D01*
X1420Y378D01*
X1422Y378D01*
X1422Y376D01*
X1426Y376D01*
X1426Y374D01*
X1430Y374D01*
X1430Y372D01*
X1434Y372D01*
X1434Y370D01*
X1436Y370D01*
X1436Y368D01*
X1440Y368D01*
X1440Y366D01*
X1462Y366D01*
X1462Y456D01*
X1464Y456D01*
X1464Y514D01*
X1460Y514D01*
X1460Y516D01*
X1458Y516D01*
X1458Y518D01*
X1456Y518D01*
X1456Y520D01*
X1454Y520D01*
X1454Y522D01*
X1450Y522D01*
X1450Y524D01*
X1448Y524D01*
X1448Y526D01*
X1446Y526D01*
X1446Y528D01*
X1444Y528D01*
X1444Y530D01*
X1440Y530D01*
X1440Y532D01*
X1438Y532D01*
X1438Y534D01*
X1436Y534D01*
X1436Y536D01*
X1434Y536D01*
X1434Y538D01*
X1430Y538D01*
X1430Y540D01*
X1428Y540D01*
X1428Y542D01*
X1426Y542D01*
X1426Y544D01*
X1424Y544D01*
X1424Y546D01*
X1420Y546D01*
X1420Y548D01*
X1418Y548D01*
X1418Y550D01*
X1416Y550D01*
X1416Y552D01*
X1414Y552D01*
X1414Y554D01*
X1410Y554D01*
X1410Y556D01*
X1408Y556D01*
X1408Y558D01*
X1406Y558D01*
X1406Y560D01*
X1404Y560D01*
X1404Y562D01*
X1400Y562D01*
X1400Y564D01*
X1398Y564D01*
X1398Y566D01*
X1396Y566D01*
X1396Y568D01*
X1394Y568D01*
X1394Y570D01*
X1390Y570D01*
X1390Y572D01*
X1388Y572D01*
X1388Y574D01*
X1386Y574D01*
X1386Y576D01*
X1384Y576D01*
X1384Y578D01*
X1380Y578D01*
X1380Y580D01*
X1378Y580D01*
X1378Y582D01*
X1292Y582D01*
G37*
D02*
G36*
X1832Y512D02*
X1832Y490D01*
X1834Y490D01*
X1834Y482D01*
X1832Y482D01*
X1832Y476D01*
X1830Y476D01*
X1830Y456D01*
X1842Y456D01*
X1842Y390D01*
X1892Y390D01*
X1892Y388D01*
X1902Y388D01*
X1902Y386D01*
X1906Y386D01*
X1906Y384D01*
X1928Y384D01*
X1928Y512D01*
X1832Y512D01*
G37*
D02*
G36*
X1842Y390D02*
X1842Y380D01*
X1862Y380D01*
X1862Y382D01*
X1866Y382D01*
X1866Y384D01*
X1870Y384D01*
X1870Y386D01*
X1874Y386D01*
X1874Y388D01*
X1884Y388D01*
X1884Y390D01*
X1842Y390D01*
G37*
D02*
G36*
X1706Y512D02*
X1706Y492D01*
X1708Y492D01*
X1708Y490D01*
X1710Y490D01*
X1710Y488D01*
X1712Y488D01*
X1712Y478D01*
X1714Y478D01*
X1714Y462D01*
X1716Y462D01*
X1716Y456D01*
X1742Y456D01*
X1742Y372D01*
X1762Y372D01*
X1762Y456D01*
X1766Y456D01*
X1766Y478D01*
X1764Y478D01*
X1764Y492D01*
X1766Y492D01*
X1766Y512D01*
X1706Y512D01*
G37*
D02*
G36*
X1642Y444D02*
X1642Y372D01*
X1662Y372D01*
X1662Y444D01*
X1642Y444D01*
G37*
D02*
G36*
X1574Y372D02*
X1574Y370D01*
X1838Y370D01*
X1838Y372D01*
X1574Y372D01*
G37*
D02*
G36*
X1574Y372D02*
X1574Y370D01*
X1838Y370D01*
X1838Y372D01*
X1574Y372D01*
G37*
D02*
G36*
X1574Y370D02*
X1574Y320D01*
X1572Y320D01*
X1572Y314D01*
X1570Y314D01*
X1570Y312D01*
X1568Y312D01*
X1568Y292D01*
X1626Y292D01*
X1626Y294D01*
X1748Y294D01*
X1748Y296D01*
X1838Y296D01*
X1838Y320D01*
X1836Y320D01*
X1836Y326D01*
X1834Y326D01*
X1834Y344D01*
X1836Y344D01*
X1836Y350D01*
X1838Y350D01*
X1838Y370D01*
X1574Y370D01*
G37*
D02*
G36*
X1464Y372D02*
X1464Y352D01*
X1468Y352D01*
X1468Y350D01*
X1470Y350D01*
X1470Y348D01*
X1474Y348D01*
X1474Y346D01*
X1478Y346D01*
X1478Y344D01*
X1536Y344D01*
X1536Y372D01*
X1464Y372D01*
G37*
D02*
G36*
X152Y1338D02*
X152Y1318D01*
X154Y1318D01*
X154Y1314D01*
X156Y1314D01*
X156Y1310D01*
X158Y1310D01*
X158Y1304D01*
X160Y1304D01*
X160Y1296D01*
X360Y1296D01*
X360Y1294D01*
X364Y1294D01*
X364Y1292D01*
X370Y1292D01*
X370Y1290D01*
X372Y1290D01*
X372Y1288D01*
X376Y1288D01*
X376Y1286D01*
X378Y1286D01*
X378Y1284D01*
X380Y1284D01*
X380Y1282D01*
X382Y1282D01*
X382Y1280D01*
X384Y1280D01*
X384Y1278D01*
X386Y1278D01*
X386Y1276D01*
X388Y1276D01*
X388Y1274D01*
X390Y1274D01*
X390Y1272D01*
X392Y1272D01*
X392Y1268D01*
X394Y1268D01*
X394Y1264D01*
X396Y1264D01*
X396Y1260D01*
X398Y1260D01*
X398Y1252D01*
X400Y1252D01*
X400Y1240D01*
X398Y1240D01*
X398Y1232D01*
X396Y1232D01*
X396Y1228D01*
X394Y1228D01*
X394Y1224D01*
X392Y1224D01*
X392Y1220D01*
X390Y1220D01*
X390Y1218D01*
X388Y1218D01*
X388Y1216D01*
X386Y1216D01*
X386Y1214D01*
X384Y1214D01*
X384Y1212D01*
X382Y1212D01*
X382Y1210D01*
X380Y1210D01*
X380Y1208D01*
X378Y1208D01*
X378Y1206D01*
X376Y1206D01*
X376Y1204D01*
X372Y1204D01*
X372Y1202D01*
X370Y1202D01*
X370Y1200D01*
X366Y1200D01*
X366Y1198D01*
X360Y1198D01*
X360Y1196D01*
X590Y1196D01*
X590Y1256D01*
X484Y1256D01*
X484Y1338D01*
X152Y1338D01*
G37*
D02*
G36*
X1028Y1338D02*
X1028Y1244D01*
X1026Y1244D01*
X1026Y1242D01*
X1056Y1242D01*
X1056Y1338D01*
X1028Y1338D01*
G37*
D02*
G36*
X1150Y1338D02*
X1150Y1244D01*
X1148Y1244D01*
X1148Y1242D01*
X1406Y1242D01*
X1406Y1244D01*
X1372Y1244D01*
X1372Y1338D01*
X1150Y1338D01*
G37*
D02*
G36*
X160Y1296D02*
X160Y1280D01*
X158Y1280D01*
X158Y1274D01*
X156Y1274D01*
X156Y1270D01*
X234Y1270D01*
X234Y1268D01*
X306Y1268D01*
X306Y1272D01*
X308Y1272D01*
X308Y1274D01*
X310Y1274D01*
X310Y1276D01*
X312Y1276D01*
X312Y1278D01*
X314Y1278D01*
X314Y1280D01*
X316Y1280D01*
X316Y1282D01*
X318Y1282D01*
X318Y1284D01*
X320Y1284D01*
X320Y1286D01*
X322Y1286D01*
X322Y1288D01*
X326Y1288D01*
X326Y1290D01*
X328Y1290D01*
X328Y1292D01*
X334Y1292D01*
X334Y1294D01*
X338Y1294D01*
X338Y1296D01*
X160Y1296D01*
G37*
D02*
G36*
X156Y1270D02*
X156Y1268D01*
X154Y1268D01*
X154Y1264D01*
X152Y1264D01*
X152Y1262D01*
X150Y1262D01*
X150Y1258D01*
X148Y1258D01*
X148Y1256D01*
X146Y1256D01*
X146Y1254D01*
X144Y1254D01*
X144Y1252D01*
X142Y1252D01*
X142Y1250D01*
X140Y1250D01*
X140Y1248D01*
X138Y1248D01*
X138Y1246D01*
X136Y1246D01*
X136Y1244D01*
X132Y1244D01*
X132Y1242D01*
X130Y1242D01*
X130Y1240D01*
X126Y1240D01*
X126Y1238D01*
X122Y1238D01*
X122Y1236D01*
X116Y1236D01*
X116Y1234D01*
X188Y1234D01*
X188Y1254D01*
X190Y1254D01*
X190Y1260D01*
X192Y1260D01*
X192Y1262D01*
X194Y1262D01*
X194Y1264D01*
X196Y1264D01*
X196Y1266D01*
X198Y1266D01*
X198Y1268D01*
X202Y1268D01*
X202Y1270D01*
X156Y1270D01*
G37*
D02*
G36*
X910Y1260D02*
X910Y1242D01*
X934Y1242D01*
X934Y1260D01*
X910Y1260D01*
G37*
D02*
G36*
X40Y1254D02*
X40Y1234D01*
X88Y1234D01*
X88Y1236D01*
X82Y1236D01*
X82Y1238D01*
X78Y1238D01*
X78Y1240D01*
X74Y1240D01*
X74Y1242D01*
X72Y1242D01*
X72Y1244D01*
X68Y1244D01*
X68Y1246D01*
X66Y1246D01*
X66Y1248D01*
X64Y1248D01*
X64Y1250D01*
X62Y1250D01*
X62Y1252D01*
X60Y1252D01*
X60Y1254D01*
X40Y1254D01*
G37*
D02*
G36*
X910Y1242D02*
X910Y1240D01*
X1406Y1240D01*
X1406Y1242D01*
X910Y1242D01*
G37*
D02*
G36*
X910Y1242D02*
X910Y1240D01*
X1406Y1240D01*
X1406Y1242D01*
X910Y1242D01*
G37*
D02*
G36*
X910Y1242D02*
X910Y1240D01*
X1406Y1240D01*
X1406Y1242D01*
X910Y1242D01*
G37*
D02*
G36*
X910Y1240D02*
X910Y1214D01*
X694Y1214D01*
X694Y1188D01*
X1138Y1188D01*
X1138Y1176D01*
X1350Y1176D01*
X1350Y1100D01*
X1352Y1100D01*
X1352Y1096D01*
X1354Y1096D01*
X1354Y1094D01*
X1356Y1094D01*
X1356Y1092D01*
X1358Y1092D01*
X1358Y1090D01*
X1360Y1090D01*
X1360Y1088D01*
X1362Y1088D01*
X1362Y1086D01*
X1364Y1086D01*
X1364Y1084D01*
X1366Y1084D01*
X1366Y1082D01*
X1368Y1082D01*
X1368Y1080D01*
X1370Y1080D01*
X1370Y1078D01*
X1372Y1078D01*
X1372Y1074D01*
X1374Y1074D01*
X1374Y1072D01*
X1376Y1072D01*
X1376Y1070D01*
X1378Y1070D01*
X1378Y1068D01*
X1380Y1068D01*
X1380Y1066D01*
X1382Y1066D01*
X1382Y1064D01*
X1384Y1064D01*
X1384Y1062D01*
X1386Y1062D01*
X1386Y1060D01*
X1388Y1060D01*
X1388Y1058D01*
X1390Y1058D01*
X1390Y1056D01*
X1392Y1056D01*
X1392Y1054D01*
X1394Y1054D01*
X1394Y1050D01*
X1396Y1050D01*
X1396Y1048D01*
X1398Y1048D01*
X1398Y1046D01*
X1400Y1046D01*
X1400Y1044D01*
X1402Y1044D01*
X1402Y1042D01*
X1404Y1042D01*
X1404Y1040D01*
X1442Y1040D01*
X1442Y1060D01*
X1438Y1060D01*
X1438Y1062D01*
X1434Y1062D01*
X1434Y1064D01*
X1432Y1064D01*
X1432Y1066D01*
X1430Y1066D01*
X1430Y1070D01*
X1428Y1070D01*
X1428Y1082D01*
X1426Y1082D01*
X1426Y1096D01*
X1424Y1096D01*
X1424Y1112D01*
X1422Y1112D01*
X1422Y1128D01*
X1406Y1128D01*
X1406Y1240D01*
X910Y1240D01*
G37*
D02*
G36*
X40Y1234D02*
X40Y1232D01*
X188Y1232D01*
X188Y1234D01*
X40Y1234D01*
G37*
D02*
G36*
X40Y1234D02*
X40Y1232D01*
X188Y1232D01*
X188Y1234D01*
X40Y1234D01*
G37*
D02*
G36*
X40Y1232D02*
X40Y1206D01*
X130Y1206D01*
X130Y1102D01*
X128Y1102D01*
X128Y1002D01*
X158Y1002D01*
X158Y1108D01*
X160Y1108D01*
X160Y1206D01*
X188Y1206D01*
X188Y1232D01*
X40Y1232D01*
G37*
D02*
G36*
X226Y1230D02*
X226Y1206D01*
X252Y1206D01*
X252Y1196D01*
X338Y1196D01*
X338Y1198D01*
X332Y1198D01*
X332Y1200D01*
X328Y1200D01*
X328Y1202D01*
X326Y1202D01*
X326Y1204D01*
X322Y1204D01*
X322Y1206D01*
X320Y1206D01*
X320Y1208D01*
X318Y1208D01*
X318Y1210D01*
X316Y1210D01*
X316Y1212D01*
X314Y1212D01*
X314Y1214D01*
X312Y1214D01*
X312Y1216D01*
X310Y1216D01*
X310Y1218D01*
X308Y1218D01*
X308Y1220D01*
X306Y1220D01*
X306Y1224D01*
X304Y1224D01*
X304Y1228D01*
X290Y1228D01*
X290Y1230D01*
X226Y1230D01*
G37*
D02*
G36*
X252Y1196D02*
X252Y1194D01*
X590Y1194D01*
X590Y1196D01*
X252Y1196D01*
G37*
D02*
G36*
X252Y1196D02*
X252Y1194D01*
X590Y1194D01*
X590Y1196D01*
X252Y1196D01*
G37*
D02*
G36*
X252Y1194D02*
X252Y1168D01*
X590Y1168D01*
X590Y1194D01*
X252Y1194D01*
G37*
D02*
G36*
X694Y1188D02*
X694Y1168D01*
X924Y1168D01*
X924Y1188D01*
X694Y1188D01*
G37*
D02*
G36*
X1016Y1188D02*
X1016Y1084D01*
X1000Y1084D01*
X1000Y1064D01*
X1002Y1064D01*
X1002Y1052D01*
X1004Y1052D01*
X1004Y1040D01*
X1006Y1040D01*
X1006Y1028D01*
X1008Y1028D01*
X1008Y1018D01*
X1006Y1018D01*
X1006Y1004D01*
X1004Y1004D01*
X1004Y992D01*
X1002Y992D01*
X1002Y978D01*
X1000Y978D01*
X1000Y952D01*
X1100Y952D01*
X1100Y972D01*
X1098Y972D01*
X1098Y974D01*
X1096Y974D01*
X1096Y976D01*
X1094Y976D01*
X1094Y978D01*
X1092Y978D01*
X1092Y982D01*
X1090Y982D01*
X1090Y986D01*
X1088Y986D01*
X1088Y1006D01*
X1090Y1006D01*
X1090Y1010D01*
X1092Y1010D01*
X1092Y1012D01*
X1094Y1012D01*
X1094Y1016D01*
X1096Y1016D01*
X1096Y1018D01*
X1098Y1018D01*
X1098Y1020D01*
X1100Y1020D01*
X1100Y1022D01*
X1104Y1022D01*
X1104Y1024D01*
X1106Y1024D01*
X1106Y1026D01*
X1110Y1026D01*
X1110Y1028D01*
X1114Y1028D01*
X1114Y1030D01*
X1130Y1030D01*
X1130Y1034D01*
X1132Y1034D01*
X1132Y1038D01*
X1134Y1038D01*
X1134Y1040D01*
X1136Y1040D01*
X1136Y1042D01*
X1138Y1042D01*
X1138Y1044D01*
X1140Y1044D01*
X1140Y1046D01*
X1142Y1046D01*
X1142Y1048D01*
X1144Y1048D01*
X1144Y1050D01*
X1148Y1050D01*
X1148Y1070D01*
X1136Y1070D01*
X1136Y1084D01*
X1046Y1084D01*
X1046Y1188D01*
X1016Y1188D01*
G37*
D02*
G36*
X1228Y1176D02*
X1228Y1076D01*
X1230Y1076D01*
X1230Y1074D01*
X1232Y1074D01*
X1232Y1072D01*
X1234Y1072D01*
X1234Y1068D01*
X1236Y1068D01*
X1236Y1064D01*
X1238Y1064D01*
X1238Y1056D01*
X1240Y1056D01*
X1240Y1052D01*
X1238Y1052D01*
X1238Y1044D01*
X1236Y1044D01*
X1236Y1040D01*
X1234Y1040D01*
X1234Y1036D01*
X1232Y1036D01*
X1232Y1034D01*
X1230Y1034D01*
X1230Y1032D01*
X1228Y1032D01*
X1228Y1030D01*
X1226Y1030D01*
X1226Y1028D01*
X1224Y1028D01*
X1224Y1026D01*
X1222Y1026D01*
X1222Y1022D01*
X1220Y1022D01*
X1220Y996D01*
X1218Y996D01*
X1218Y972D01*
X1216Y972D01*
X1216Y952D01*
X1220Y952D01*
X1220Y880D01*
X1292Y880D01*
X1292Y790D01*
X1342Y790D01*
X1342Y794D01*
X1344Y794D01*
X1344Y800D01*
X1346Y800D01*
X1346Y804D01*
X1348Y804D01*
X1348Y810D01*
X1350Y810D01*
X1350Y816D01*
X1352Y816D01*
X1352Y820D01*
X1354Y820D01*
X1354Y826D01*
X1356Y826D01*
X1356Y832D01*
X1358Y832D01*
X1358Y836D01*
X1360Y836D01*
X1360Y842D01*
X1362Y842D01*
X1362Y848D01*
X1364Y848D01*
X1364Y854D01*
X1366Y854D01*
X1366Y858D01*
X1368Y858D01*
X1368Y864D01*
X1370Y864D01*
X1370Y870D01*
X1372Y870D01*
X1372Y874D01*
X1374Y874D01*
X1374Y880D01*
X1376Y880D01*
X1376Y886D01*
X1378Y886D01*
X1378Y890D01*
X1380Y890D01*
X1380Y896D01*
X1382Y896D01*
X1382Y902D01*
X1384Y902D01*
X1384Y906D01*
X1386Y906D01*
X1386Y912D01*
X1388Y912D01*
X1388Y918D01*
X1390Y918D01*
X1390Y924D01*
X1392Y924D01*
X1392Y928D01*
X1394Y928D01*
X1394Y934D01*
X1396Y934D01*
X1396Y940D01*
X1398Y940D01*
X1398Y944D01*
X1400Y944D01*
X1400Y950D01*
X1402Y950D01*
X1402Y956D01*
X1404Y956D01*
X1404Y960D01*
X1406Y960D01*
X1406Y984D01*
X1404Y984D01*
X1404Y986D01*
X1402Y986D01*
X1402Y988D01*
X1400Y988D01*
X1400Y990D01*
X1398Y990D01*
X1398Y992D01*
X1396Y992D01*
X1396Y994D01*
X1394Y994D01*
X1394Y996D01*
X1392Y996D01*
X1392Y998D01*
X1390Y998D01*
X1390Y1000D01*
X1388Y1000D01*
X1388Y1004D01*
X1386Y1004D01*
X1386Y1006D01*
X1384Y1006D01*
X1384Y1008D01*
X1382Y1008D01*
X1382Y1010D01*
X1380Y1010D01*
X1380Y1012D01*
X1378Y1012D01*
X1378Y1014D01*
X1376Y1014D01*
X1376Y1016D01*
X1374Y1016D01*
X1374Y1018D01*
X1372Y1018D01*
X1372Y1020D01*
X1370Y1020D01*
X1370Y1022D01*
X1368Y1022D01*
X1368Y1026D01*
X1366Y1026D01*
X1366Y1028D01*
X1364Y1028D01*
X1364Y1030D01*
X1362Y1030D01*
X1362Y1032D01*
X1360Y1032D01*
X1360Y1034D01*
X1358Y1034D01*
X1358Y1036D01*
X1356Y1036D01*
X1356Y1038D01*
X1354Y1038D01*
X1354Y1040D01*
X1352Y1040D01*
X1352Y1042D01*
X1350Y1042D01*
X1350Y1044D01*
X1348Y1044D01*
X1348Y1048D01*
X1346Y1048D01*
X1346Y1050D01*
X1344Y1050D01*
X1344Y1052D01*
X1342Y1052D01*
X1342Y1054D01*
X1340Y1054D01*
X1340Y1056D01*
X1338Y1056D01*
X1338Y1058D01*
X1336Y1058D01*
X1336Y1060D01*
X1334Y1060D01*
X1334Y1062D01*
X1332Y1062D01*
X1332Y1064D01*
X1330Y1064D01*
X1330Y1066D01*
X1328Y1066D01*
X1328Y1070D01*
X1258Y1070D01*
X1258Y1176D01*
X1228Y1176D01*
G37*
D02*
G36*
X252Y1168D02*
X252Y1166D01*
X924Y1166D01*
X924Y1168D01*
X252Y1168D01*
G37*
D02*
G36*
X252Y1168D02*
X252Y1166D01*
X924Y1166D01*
X924Y1168D01*
X252Y1168D01*
G37*
D02*
G36*
X252Y1166D02*
X252Y1138D01*
X694Y1138D01*
X694Y1124D01*
X924Y1124D01*
X924Y1166D01*
X252Y1166D01*
G37*
D02*
G36*
X252Y1138D02*
X252Y1104D01*
X354Y1104D01*
X354Y1102D01*
X362Y1102D01*
X362Y1100D01*
X366Y1100D01*
X366Y1098D01*
X370Y1098D01*
X370Y1096D01*
X374Y1096D01*
X374Y1094D01*
X376Y1094D01*
X376Y1092D01*
X380Y1092D01*
X380Y1090D01*
X382Y1090D01*
X382Y1088D01*
X384Y1088D01*
X384Y1086D01*
X386Y1086D01*
X386Y1084D01*
X388Y1084D01*
X388Y1080D01*
X390Y1080D01*
X390Y1078D01*
X392Y1078D01*
X392Y1074D01*
X394Y1074D01*
X394Y1072D01*
X396Y1072D01*
X396Y1066D01*
X398Y1066D01*
X398Y1058D01*
X400Y1058D01*
X400Y1048D01*
X398Y1048D01*
X398Y1040D01*
X396Y1040D01*
X396Y1034D01*
X394Y1034D01*
X394Y1030D01*
X392Y1030D01*
X392Y1028D01*
X390Y1028D01*
X390Y1024D01*
X388Y1024D01*
X388Y1022D01*
X386Y1022D01*
X386Y1020D01*
X384Y1020D01*
X384Y1018D01*
X382Y1018D01*
X382Y1016D01*
X380Y1016D01*
X380Y1014D01*
X378Y1014D01*
X378Y1012D01*
X374Y1012D01*
X374Y1010D01*
X372Y1010D01*
X372Y1008D01*
X368Y1008D01*
X368Y1006D01*
X362Y1006D01*
X362Y1004D01*
X356Y1004D01*
X356Y1002D01*
X470Y1002D01*
X470Y1100D01*
X472Y1100D01*
X472Y1104D01*
X474Y1104D01*
X474Y1106D01*
X476Y1106D01*
X476Y1108D01*
X480Y1108D01*
X480Y1110D01*
X590Y1110D01*
X590Y1138D01*
X252Y1138D01*
G37*
D02*
G36*
X252Y1104D02*
X252Y1102D01*
X250Y1102D01*
X250Y1074D01*
X260Y1074D01*
X260Y1072D01*
X304Y1072D01*
X304Y1074D01*
X306Y1074D01*
X306Y1078D01*
X308Y1078D01*
X308Y1080D01*
X310Y1080D01*
X310Y1084D01*
X312Y1084D01*
X312Y1086D01*
X314Y1086D01*
X314Y1088D01*
X316Y1088D01*
X316Y1090D01*
X318Y1090D01*
X318Y1092D01*
X322Y1092D01*
X322Y1094D01*
X324Y1094D01*
X324Y1096D01*
X328Y1096D01*
X328Y1098D01*
X332Y1098D01*
X332Y1100D01*
X336Y1100D01*
X336Y1102D01*
X344Y1102D01*
X344Y1104D01*
X252Y1104D01*
G37*
D02*
G36*
X508Y1072D02*
X508Y980D01*
X510Y980D01*
X510Y920D01*
X626Y920D01*
X626Y922D01*
X620Y922D01*
X620Y924D01*
X616Y924D01*
X616Y926D01*
X612Y926D01*
X612Y928D01*
X610Y928D01*
X610Y930D01*
X608Y930D01*
X608Y932D01*
X606Y932D01*
X606Y934D01*
X604Y934D01*
X604Y936D01*
X602Y936D01*
X602Y938D01*
X600Y938D01*
X600Y942D01*
X598Y942D01*
X598Y946D01*
X596Y946D01*
X596Y954D01*
X594Y954D01*
X594Y958D01*
X596Y958D01*
X596Y966D01*
X598Y966D01*
X598Y970D01*
X600Y970D01*
X600Y972D01*
X602Y972D01*
X602Y976D01*
X604Y976D01*
X604Y978D01*
X606Y978D01*
X606Y980D01*
X608Y980D01*
X608Y982D01*
X610Y982D01*
X610Y984D01*
X614Y984D01*
X614Y986D01*
X618Y986D01*
X618Y988D01*
X622Y988D01*
X622Y990D01*
X636Y990D01*
X636Y992D01*
X638Y992D01*
X638Y994D01*
X640Y994D01*
X640Y996D01*
X642Y996D01*
X642Y998D01*
X644Y998D01*
X644Y1000D01*
X646Y1000D01*
X646Y1002D01*
X648Y1002D01*
X648Y1004D01*
X650Y1004D01*
X650Y1006D01*
X652Y1006D01*
X652Y1008D01*
X654Y1008D01*
X654Y1010D01*
X656Y1010D01*
X656Y1014D01*
X658Y1014D01*
X658Y1016D01*
X660Y1016D01*
X660Y1018D01*
X662Y1018D01*
X662Y1020D01*
X664Y1020D01*
X664Y1022D01*
X666Y1022D01*
X666Y1024D01*
X668Y1024D01*
X668Y1026D01*
X670Y1026D01*
X670Y1046D01*
X590Y1046D01*
X590Y1072D01*
X508Y1072D01*
G37*
D02*
G36*
X250Y1034D02*
X250Y1002D01*
X342Y1002D01*
X342Y1004D01*
X336Y1004D01*
X336Y1006D01*
X330Y1006D01*
X330Y1008D01*
X326Y1008D01*
X326Y1010D01*
X324Y1010D01*
X324Y1012D01*
X320Y1012D01*
X320Y1014D01*
X318Y1014D01*
X318Y1016D01*
X316Y1016D01*
X316Y1018D01*
X314Y1018D01*
X314Y1020D01*
X312Y1020D01*
X312Y1022D01*
X310Y1022D01*
X310Y1024D01*
X308Y1024D01*
X308Y1028D01*
X306Y1028D01*
X306Y1030D01*
X304Y1030D01*
X304Y1034D01*
X250Y1034D01*
G37*
D02*
G36*
X910Y1030D02*
X910Y1008D01*
X870Y1008D01*
X870Y984D01*
X868Y984D01*
X868Y980D01*
X866Y980D01*
X866Y976D01*
X864Y976D01*
X864Y974D01*
X862Y974D01*
X862Y972D01*
X860Y972D01*
X860Y968D01*
X856Y968D01*
X856Y966D01*
X854Y966D01*
X854Y964D01*
X852Y964D01*
X852Y962D01*
X848Y962D01*
X848Y960D01*
X844Y960D01*
X844Y958D01*
X960Y958D01*
X960Y968D01*
X962Y968D01*
X962Y992D01*
X960Y992D01*
X960Y994D01*
X956Y994D01*
X956Y996D01*
X954Y996D01*
X954Y998D01*
X950Y998D01*
X950Y1000D01*
X948Y1000D01*
X948Y1002D01*
X946Y1002D01*
X946Y1004D01*
X944Y1004D01*
X944Y1008D01*
X942Y1008D01*
X942Y1010D01*
X940Y1010D01*
X940Y1014D01*
X938Y1014D01*
X938Y1020D01*
X936Y1020D01*
X936Y1030D01*
X910Y1030D01*
G37*
D02*
G36*
X704Y1008D02*
X704Y1006D01*
X702Y1006D01*
X702Y1004D01*
X700Y1004D01*
X700Y1002D01*
X698Y1002D01*
X698Y1000D01*
X696Y1000D01*
X696Y998D01*
X694Y998D01*
X694Y996D01*
X692Y996D01*
X692Y994D01*
X690Y994D01*
X690Y992D01*
X688Y992D01*
X688Y990D01*
X686Y990D01*
X686Y988D01*
X684Y988D01*
X684Y986D01*
X682Y986D01*
X682Y984D01*
X680Y984D01*
X680Y980D01*
X678Y980D01*
X678Y978D01*
X676Y978D01*
X676Y976D01*
X674Y976D01*
X674Y974D01*
X672Y974D01*
X672Y972D01*
X670Y972D01*
X670Y970D01*
X668Y970D01*
X668Y968D01*
X666Y968D01*
X666Y966D01*
X664Y966D01*
X664Y958D01*
X828Y958D01*
X828Y960D01*
X822Y960D01*
X822Y962D01*
X820Y962D01*
X820Y964D01*
X816Y964D01*
X816Y966D01*
X814Y966D01*
X814Y968D01*
X812Y968D01*
X812Y970D01*
X810Y970D01*
X810Y972D01*
X808Y972D01*
X808Y974D01*
X806Y974D01*
X806Y978D01*
X804Y978D01*
X804Y982D01*
X802Y982D01*
X802Y990D01*
X800Y990D01*
X800Y1008D01*
X704Y1008D01*
G37*
D02*
G36*
X40Y1002D02*
X40Y1000D01*
X470Y1000D01*
X470Y1002D01*
X40Y1002D01*
G37*
D02*
G36*
X40Y1002D02*
X40Y1000D01*
X470Y1000D01*
X470Y1002D01*
X40Y1002D01*
G37*
D02*
G36*
X40Y1002D02*
X40Y1000D01*
X470Y1000D01*
X470Y1002D01*
X40Y1002D01*
G37*
D02*
G36*
X40Y1000D02*
X40Y948D01*
X108Y948D01*
X108Y946D01*
X116Y946D01*
X116Y944D01*
X122Y944D01*
X122Y942D01*
X126Y942D01*
X126Y940D01*
X130Y940D01*
X130Y938D01*
X134Y938D01*
X134Y936D01*
X136Y936D01*
X136Y934D01*
X138Y934D01*
X138Y932D01*
X142Y932D01*
X142Y930D01*
X144Y930D01*
X144Y928D01*
X146Y928D01*
X146Y926D01*
X148Y926D01*
X148Y924D01*
X150Y924D01*
X150Y922D01*
X152Y922D01*
X152Y918D01*
X154Y918D01*
X154Y916D01*
X156Y916D01*
X156Y912D01*
X158Y912D01*
X158Y910D01*
X160Y910D01*
X160Y906D01*
X162Y906D01*
X162Y902D01*
X164Y902D01*
X164Y896D01*
X166Y896D01*
X166Y886D01*
X168Y886D01*
X168Y870D01*
X166Y870D01*
X166Y860D01*
X164Y860D01*
X164Y854D01*
X162Y854D01*
X162Y850D01*
X160Y850D01*
X160Y846D01*
X158Y846D01*
X158Y844D01*
X156Y844D01*
X156Y840D01*
X154Y840D01*
X154Y838D01*
X152Y838D01*
X152Y834D01*
X150Y834D01*
X150Y832D01*
X148Y832D01*
X148Y830D01*
X146Y830D01*
X146Y828D01*
X144Y828D01*
X144Y826D01*
X142Y826D01*
X142Y824D01*
X138Y824D01*
X138Y822D01*
X136Y822D01*
X136Y820D01*
X132Y820D01*
X132Y818D01*
X130Y818D01*
X130Y816D01*
X126Y816D01*
X126Y814D01*
X122Y814D01*
X122Y812D01*
X116Y812D01*
X116Y810D01*
X108Y810D01*
X108Y808D01*
X338Y808D01*
X338Y846D01*
X472Y846D01*
X472Y980D01*
X470Y980D01*
X470Y1000D01*
X40Y1000D01*
G37*
D02*
G36*
X664Y958D02*
X664Y956D01*
X960Y956D01*
X960Y958D01*
X664Y958D01*
G37*
D02*
G36*
X664Y958D02*
X664Y956D01*
X960Y956D01*
X960Y958D01*
X664Y958D01*
G37*
D02*
G36*
X664Y956D02*
X664Y948D01*
X662Y948D01*
X662Y942D01*
X660Y942D01*
X660Y940D01*
X658Y940D01*
X658Y936D01*
X656Y936D01*
X656Y934D01*
X654Y934D01*
X654Y932D01*
X652Y932D01*
X652Y930D01*
X650Y930D01*
X650Y928D01*
X648Y928D01*
X648Y926D01*
X644Y926D01*
X644Y924D01*
X640Y924D01*
X640Y922D01*
X632Y922D01*
X632Y920D01*
X946Y920D01*
X946Y952D01*
X958Y952D01*
X958Y954D01*
X960Y954D01*
X960Y956D01*
X664Y956D01*
G37*
D02*
G36*
X40Y948D02*
X40Y934D01*
X60Y934D01*
X60Y936D01*
X62Y936D01*
X62Y938D01*
X66Y938D01*
X66Y940D01*
X70Y940D01*
X70Y942D01*
X74Y942D01*
X74Y944D01*
X78Y944D01*
X78Y946D01*
X86Y946D01*
X86Y948D01*
X40Y948D01*
G37*
D02*
G36*
X510Y920D02*
X510Y918D01*
X946Y918D01*
X946Y920D01*
X510Y920D01*
G37*
D02*
G36*
X510Y920D02*
X510Y918D01*
X946Y918D01*
X946Y920D01*
X510Y920D01*
G37*
D02*
G36*
X510Y918D02*
X510Y896D01*
X736Y896D01*
X736Y894D01*
X742Y894D01*
X742Y892D01*
X746Y892D01*
X746Y890D01*
X748Y890D01*
X748Y888D01*
X750Y888D01*
X750Y886D01*
X752Y886D01*
X752Y884D01*
X754Y884D01*
X754Y882D01*
X756Y882D01*
X756Y880D01*
X758Y880D01*
X758Y878D01*
X760Y878D01*
X760Y874D01*
X762Y874D01*
X762Y868D01*
X764Y868D01*
X764Y848D01*
X766Y848D01*
X766Y846D01*
X768Y846D01*
X768Y844D01*
X770Y844D01*
X770Y840D01*
X772Y840D01*
X772Y838D01*
X774Y838D01*
X774Y836D01*
X776Y836D01*
X776Y834D01*
X778Y834D01*
X778Y830D01*
X780Y830D01*
X780Y828D01*
X782Y828D01*
X782Y826D01*
X784Y826D01*
X784Y824D01*
X786Y824D01*
X786Y822D01*
X788Y822D01*
X788Y818D01*
X790Y818D01*
X790Y816D01*
X792Y816D01*
X792Y814D01*
X794Y814D01*
X794Y812D01*
X796Y812D01*
X796Y808D01*
X798Y808D01*
X798Y806D01*
X800Y806D01*
X800Y804D01*
X802Y804D01*
X802Y802D01*
X804Y802D01*
X804Y800D01*
X806Y800D01*
X806Y796D01*
X808Y796D01*
X808Y794D01*
X810Y794D01*
X810Y792D01*
X812Y792D01*
X812Y790D01*
X814Y790D01*
X814Y788D01*
X816Y788D01*
X816Y784D01*
X818Y784D01*
X818Y782D01*
X820Y782D01*
X820Y780D01*
X822Y780D01*
X822Y778D01*
X874Y778D01*
X874Y880D01*
X946Y880D01*
X946Y918D01*
X510Y918D01*
G37*
D02*
G36*
X510Y896D02*
X510Y854D01*
X512Y854D01*
X512Y794D01*
X510Y794D01*
X510Y790D01*
X508Y790D01*
X508Y788D01*
X506Y788D01*
X506Y754D01*
X550Y754D01*
X550Y846D01*
X694Y846D01*
X694Y866D01*
X696Y866D01*
X696Y872D01*
X698Y872D01*
X698Y876D01*
X700Y876D01*
X700Y880D01*
X702Y880D01*
X702Y882D01*
X704Y882D01*
X704Y884D01*
X706Y884D01*
X706Y886D01*
X708Y886D01*
X708Y888D01*
X710Y888D01*
X710Y890D01*
X714Y890D01*
X714Y892D01*
X716Y892D01*
X716Y894D01*
X722Y894D01*
X722Y896D01*
X510Y896D01*
G37*
D02*
G36*
X40Y822D02*
X40Y808D01*
X88Y808D01*
X88Y810D01*
X80Y810D01*
X80Y812D01*
X74Y812D01*
X74Y814D01*
X70Y814D01*
X70Y816D01*
X66Y816D01*
X66Y818D01*
X62Y818D01*
X62Y820D01*
X60Y820D01*
X60Y822D01*
X40Y822D01*
G37*
D02*
G36*
X718Y822D02*
X718Y754D01*
X792Y754D01*
X792Y756D01*
X790Y756D01*
X790Y758D01*
X788Y758D01*
X788Y762D01*
X786Y762D01*
X786Y764D01*
X784Y764D01*
X784Y766D01*
X782Y766D01*
X782Y768D01*
X780Y768D01*
X780Y772D01*
X778Y772D01*
X778Y774D01*
X776Y774D01*
X776Y776D01*
X774Y776D01*
X774Y778D01*
X772Y778D01*
X772Y780D01*
X770Y780D01*
X770Y784D01*
X768Y784D01*
X768Y786D01*
X766Y786D01*
X766Y788D01*
X764Y788D01*
X764Y790D01*
X762Y790D01*
X762Y792D01*
X760Y792D01*
X760Y796D01*
X758Y796D01*
X758Y798D01*
X756Y798D01*
X756Y800D01*
X754Y800D01*
X754Y802D01*
X752Y802D01*
X752Y806D01*
X750Y806D01*
X750Y808D01*
X748Y808D01*
X748Y810D01*
X746Y810D01*
X746Y812D01*
X744Y812D01*
X744Y814D01*
X742Y814D01*
X742Y818D01*
X740Y818D01*
X740Y820D01*
X738Y820D01*
X738Y822D01*
X718Y822D01*
G37*
D02*
G36*
X40Y808D02*
X40Y806D01*
X338Y806D01*
X338Y808D01*
X40Y808D01*
G37*
D02*
G36*
X40Y808D02*
X40Y806D01*
X338Y806D01*
X338Y808D01*
X40Y808D01*
G37*
D02*
G36*
X40Y806D02*
X40Y738D01*
X292Y738D01*
X292Y736D01*
X298Y736D01*
X298Y734D01*
X302Y734D01*
X302Y732D01*
X306Y732D01*
X306Y730D01*
X308Y730D01*
X308Y728D01*
X310Y728D01*
X310Y726D01*
X314Y726D01*
X314Y724D01*
X316Y724D01*
X316Y722D01*
X318Y722D01*
X318Y720D01*
X320Y720D01*
X320Y716D01*
X322Y716D01*
X322Y714D01*
X324Y714D01*
X324Y710D01*
X326Y710D01*
X326Y706D01*
X328Y706D01*
X328Y700D01*
X330Y700D01*
X330Y680D01*
X328Y680D01*
X328Y674D01*
X326Y674D01*
X326Y670D01*
X324Y670D01*
X324Y666D01*
X322Y666D01*
X322Y664D01*
X320Y664D01*
X320Y662D01*
X318Y662D01*
X318Y660D01*
X316Y660D01*
X316Y658D01*
X314Y658D01*
X314Y656D01*
X312Y656D01*
X312Y654D01*
X310Y654D01*
X310Y652D01*
X308Y652D01*
X308Y630D01*
X310Y630D01*
X310Y628D01*
X312Y628D01*
X312Y626D01*
X314Y626D01*
X314Y624D01*
X316Y624D01*
X316Y622D01*
X318Y622D01*
X318Y620D01*
X320Y620D01*
X320Y618D01*
X322Y618D01*
X322Y616D01*
X324Y616D01*
X324Y612D01*
X326Y612D01*
X326Y610D01*
X334Y610D01*
X334Y608D01*
X398Y608D01*
X398Y668D01*
X400Y668D01*
X400Y754D01*
X338Y754D01*
X338Y806D01*
X40Y806D01*
G37*
D02*
G36*
X440Y754D02*
X440Y752D01*
X794Y752D01*
X794Y754D01*
X440Y754D01*
G37*
D02*
G36*
X440Y754D02*
X440Y752D01*
X794Y752D01*
X794Y754D01*
X440Y754D01*
G37*
D02*
G36*
X440Y752D02*
X440Y740D01*
X438Y740D01*
X438Y718D01*
X852Y718D01*
X852Y716D01*
X874Y716D01*
X874Y740D01*
X806Y740D01*
X806Y742D01*
X804Y742D01*
X804Y744D01*
X800Y744D01*
X800Y746D01*
X798Y746D01*
X798Y750D01*
X796Y750D01*
X796Y752D01*
X440Y752D01*
G37*
D02*
G36*
X40Y738D02*
X40Y544D01*
X196Y544D01*
X196Y546D01*
X190Y546D01*
X190Y548D01*
X186Y548D01*
X186Y550D01*
X182Y550D01*
X182Y552D01*
X178Y552D01*
X178Y554D01*
X176Y554D01*
X176Y556D01*
X174Y556D01*
X174Y558D01*
X172Y558D01*
X172Y560D01*
X170Y560D01*
X170Y562D01*
X168Y562D01*
X168Y564D01*
X166Y564D01*
X166Y568D01*
X164Y568D01*
X164Y570D01*
X162Y570D01*
X162Y574D01*
X160Y574D01*
X160Y578D01*
X158Y578D01*
X158Y586D01*
X156Y586D01*
X156Y596D01*
X158Y596D01*
X158Y604D01*
X160Y604D01*
X160Y610D01*
X162Y610D01*
X162Y614D01*
X164Y614D01*
X164Y616D01*
X166Y616D01*
X166Y620D01*
X168Y620D01*
X168Y622D01*
X170Y622D01*
X170Y624D01*
X172Y624D01*
X172Y626D01*
X174Y626D01*
X174Y628D01*
X176Y628D01*
X176Y630D01*
X180Y630D01*
X180Y652D01*
X176Y652D01*
X176Y654D01*
X174Y654D01*
X174Y656D01*
X172Y656D01*
X172Y658D01*
X170Y658D01*
X170Y660D01*
X168Y660D01*
X168Y662D01*
X166Y662D01*
X166Y666D01*
X164Y666D01*
X164Y668D01*
X162Y668D01*
X162Y672D01*
X160Y672D01*
X160Y678D01*
X158Y678D01*
X158Y686D01*
X156Y686D01*
X156Y696D01*
X158Y696D01*
X158Y704D01*
X160Y704D01*
X160Y708D01*
X162Y708D01*
X162Y712D01*
X164Y712D01*
X164Y714D01*
X166Y714D01*
X166Y718D01*
X168Y718D01*
X168Y720D01*
X170Y720D01*
X170Y722D01*
X172Y722D01*
X172Y724D01*
X174Y724D01*
X174Y726D01*
X176Y726D01*
X176Y728D01*
X178Y728D01*
X178Y730D01*
X182Y730D01*
X182Y732D01*
X186Y732D01*
X186Y734D01*
X190Y734D01*
X190Y736D01*
X196Y736D01*
X196Y738D01*
X40Y738D01*
G37*
D02*
G36*
X214Y738D02*
X214Y736D01*
X220Y736D01*
X220Y734D01*
X224Y734D01*
X224Y732D01*
X228Y732D01*
X228Y730D01*
X230Y730D01*
X230Y728D01*
X232Y728D01*
X232Y726D01*
X254Y726D01*
X254Y728D01*
X256Y728D01*
X256Y730D01*
X260Y730D01*
X260Y732D01*
X264Y732D01*
X264Y734D01*
X268Y734D01*
X268Y736D01*
X274Y736D01*
X274Y738D01*
X214Y738D01*
G37*
D02*
G36*
X438Y718D02*
X438Y668D01*
X436Y668D01*
X436Y596D01*
X434Y596D01*
X434Y594D01*
X836Y594D01*
X836Y596D01*
X832Y596D01*
X832Y598D01*
X828Y598D01*
X828Y600D01*
X826Y600D01*
X826Y602D01*
X824Y602D01*
X824Y604D01*
X822Y604D01*
X822Y606D01*
X820Y606D01*
X820Y608D01*
X818Y608D01*
X818Y610D01*
X816Y610D01*
X816Y614D01*
X814Y614D01*
X814Y616D01*
X812Y616D01*
X812Y622D01*
X810Y622D01*
X810Y634D01*
X812Y634D01*
X812Y640D01*
X814Y640D01*
X814Y644D01*
X816Y644D01*
X816Y646D01*
X818Y646D01*
X818Y666D01*
X816Y666D01*
X816Y668D01*
X814Y668D01*
X814Y672D01*
X812Y672D01*
X812Y678D01*
X810Y678D01*
X810Y688D01*
X812Y688D01*
X812Y694D01*
X814Y694D01*
X814Y698D01*
X816Y698D01*
X816Y702D01*
X818Y702D01*
X818Y704D01*
X820Y704D01*
X820Y706D01*
X822Y706D01*
X822Y708D01*
X824Y708D01*
X824Y710D01*
X826Y710D01*
X826Y712D01*
X830Y712D01*
X830Y714D01*
X834Y714D01*
X834Y716D01*
X838Y716D01*
X838Y718D01*
X438Y718D01*
G37*
D02*
G36*
X870Y608D02*
X870Y606D01*
X868Y606D01*
X868Y604D01*
X866Y604D01*
X866Y602D01*
X864Y602D01*
X864Y600D01*
X862Y600D01*
X862Y598D01*
X858Y598D01*
X858Y596D01*
X854Y596D01*
X854Y594D01*
X946Y594D01*
X946Y608D01*
X870Y608D01*
G37*
D02*
G36*
X434Y594D02*
X434Y592D01*
X946Y592D01*
X946Y594D01*
X434Y594D01*
G37*
D02*
G36*
X434Y594D02*
X434Y592D01*
X946Y592D01*
X946Y594D01*
X434Y594D01*
G37*
D02*
G36*
X434Y592D02*
X434Y580D01*
X432Y580D01*
X432Y576D01*
X430Y576D01*
X430Y574D01*
X428Y574D01*
X428Y572D01*
X426Y572D01*
X426Y570D01*
X422Y570D01*
X422Y568D01*
X946Y568D01*
X946Y592D01*
X434Y592D01*
G37*
D02*
G36*
X324Y570D02*
X324Y568D01*
X388Y568D01*
X388Y570D01*
X324Y570D01*
G37*
D02*
G36*
X322Y568D02*
X322Y566D01*
X946Y566D01*
X946Y568D01*
X322Y568D01*
G37*
D02*
G36*
X322Y568D02*
X322Y566D01*
X946Y566D01*
X946Y568D01*
X322Y568D01*
G37*
D02*
G36*
X320Y566D02*
X320Y564D01*
X318Y564D01*
X318Y560D01*
X316Y560D01*
X316Y558D01*
X314Y558D01*
X314Y556D01*
X310Y556D01*
X310Y554D01*
X308Y554D01*
X308Y552D01*
X306Y552D01*
X306Y550D01*
X302Y550D01*
X302Y542D01*
X722Y542D01*
X722Y516D01*
X936Y516D01*
X936Y514D01*
X940Y514D01*
X940Y512D01*
X944Y512D01*
X944Y510D01*
X948Y510D01*
X948Y508D01*
X950Y508D01*
X950Y506D01*
X952Y506D01*
X952Y504D01*
X954Y504D01*
X954Y502D01*
X956Y502D01*
X956Y498D01*
X958Y498D01*
X958Y496D01*
X960Y496D01*
X960Y492D01*
X962Y492D01*
X962Y458D01*
X970Y458D01*
X970Y350D01*
X1016Y350D01*
X1016Y348D01*
X1020Y348D01*
X1020Y346D01*
X1024Y346D01*
X1024Y344D01*
X1026Y344D01*
X1026Y342D01*
X1028Y342D01*
X1028Y340D01*
X1030Y340D01*
X1030Y338D01*
X1032Y338D01*
X1032Y336D01*
X1034Y336D01*
X1034Y334D01*
X1036Y334D01*
X1036Y330D01*
X1038Y330D01*
X1038Y326D01*
X1040Y326D01*
X1040Y318D01*
X1042Y318D01*
X1042Y314D01*
X1040Y314D01*
X1040Y306D01*
X1038Y306D01*
X1038Y302D01*
X1036Y302D01*
X1036Y298D01*
X1034Y298D01*
X1034Y296D01*
X1032Y296D01*
X1032Y294D01*
X1030Y294D01*
X1030Y292D01*
X1028Y292D01*
X1028Y290D01*
X1026Y290D01*
X1026Y288D01*
X1024Y288D01*
X1024Y286D01*
X1020Y286D01*
X1020Y284D01*
X1016Y284D01*
X1016Y282D01*
X1172Y282D01*
X1172Y458D01*
X1178Y458D01*
X1178Y478D01*
X1174Y478D01*
X1174Y480D01*
X1170Y480D01*
X1170Y482D01*
X1166Y482D01*
X1166Y484D01*
X1164Y484D01*
X1164Y486D01*
X1160Y486D01*
X1160Y488D01*
X1156Y488D01*
X1156Y490D01*
X1152Y490D01*
X1152Y492D01*
X1148Y492D01*
X1148Y494D01*
X1146Y494D01*
X1146Y496D01*
X1144Y496D01*
X1144Y500D01*
X1142Y500D01*
X1142Y534D01*
X948Y534D01*
X948Y536D01*
X946Y536D01*
X946Y566D01*
X320Y566D01*
G37*
D02*
G36*
X232Y556D02*
X232Y554D01*
X230Y554D01*
X230Y552D01*
X228Y552D01*
X228Y550D01*
X224Y550D01*
X224Y548D01*
X220Y548D01*
X220Y546D01*
X214Y546D01*
X214Y544D01*
X264Y544D01*
X264Y550D01*
X260Y550D01*
X260Y552D01*
X256Y552D01*
X256Y554D01*
X254Y554D01*
X254Y556D01*
X232Y556D01*
G37*
D02*
G36*
X40Y544D02*
X40Y542D01*
X264Y542D01*
X264Y544D01*
X40Y544D01*
G37*
D02*
G36*
X40Y544D02*
X40Y542D01*
X264Y542D01*
X264Y544D01*
X40Y544D01*
G37*
D02*
G36*
X40Y542D02*
X40Y474D01*
X108Y474D01*
X108Y472D01*
X116Y472D01*
X116Y470D01*
X122Y470D01*
X122Y468D01*
X126Y468D01*
X126Y466D01*
X130Y466D01*
X130Y464D01*
X134Y464D01*
X134Y462D01*
X136Y462D01*
X136Y460D01*
X138Y460D01*
X138Y458D01*
X142Y458D01*
X142Y456D01*
X144Y456D01*
X144Y454D01*
X146Y454D01*
X146Y452D01*
X148Y452D01*
X148Y450D01*
X150Y450D01*
X150Y448D01*
X152Y448D01*
X152Y444D01*
X154Y444D01*
X154Y442D01*
X156Y442D01*
X156Y438D01*
X158Y438D01*
X158Y436D01*
X160Y436D01*
X160Y432D01*
X162Y432D01*
X162Y428D01*
X164Y428D01*
X164Y422D01*
X166Y422D01*
X166Y412D01*
X168Y412D01*
X168Y396D01*
X166Y396D01*
X166Y386D01*
X164Y386D01*
X164Y380D01*
X162Y380D01*
X162Y376D01*
X160Y376D01*
X160Y372D01*
X158Y372D01*
X158Y370D01*
X156Y370D01*
X156Y366D01*
X154Y366D01*
X154Y364D01*
X152Y364D01*
X152Y360D01*
X150Y360D01*
X150Y358D01*
X148Y358D01*
X148Y356D01*
X146Y356D01*
X146Y354D01*
X144Y354D01*
X144Y352D01*
X142Y352D01*
X142Y350D01*
X138Y350D01*
X138Y348D01*
X136Y348D01*
X136Y346D01*
X132Y346D01*
X132Y344D01*
X130Y344D01*
X130Y342D01*
X126Y342D01*
X126Y340D01*
X122Y340D01*
X122Y338D01*
X116Y338D01*
X116Y336D01*
X108Y336D01*
X108Y334D01*
X194Y334D01*
X194Y396D01*
X260Y396D01*
X260Y476D01*
X262Y476D01*
X262Y504D01*
X264Y504D01*
X264Y542D01*
X40Y542D01*
G37*
D02*
G36*
X302Y542D02*
X302Y514D01*
X342Y514D01*
X342Y542D01*
X302Y542D01*
G37*
D02*
G36*
X508Y542D02*
X508Y448D01*
X554Y448D01*
X554Y542D01*
X508Y542D01*
G37*
D02*
G36*
X722Y516D02*
X722Y480D01*
X872Y480D01*
X872Y478D01*
X894Y478D01*
X894Y490D01*
X896Y490D01*
X896Y494D01*
X898Y494D01*
X898Y498D01*
X900Y498D01*
X900Y500D01*
X902Y500D01*
X902Y504D01*
X904Y504D01*
X904Y506D01*
X906Y506D01*
X906Y508D01*
X910Y508D01*
X910Y510D01*
X912Y510D01*
X912Y512D01*
X916Y512D01*
X916Y514D01*
X920Y514D01*
X920Y516D01*
X722Y516D01*
G37*
D02*
G36*
X722Y480D02*
X722Y450D01*
X720Y450D01*
X720Y448D01*
X834Y448D01*
X834Y456D01*
X836Y456D01*
X836Y460D01*
X838Y460D01*
X838Y462D01*
X840Y462D01*
X840Y464D01*
X842Y464D01*
X842Y468D01*
X844Y468D01*
X844Y470D01*
X846Y470D01*
X846Y472D01*
X850Y472D01*
X850Y474D01*
X852Y474D01*
X852Y476D01*
X856Y476D01*
X856Y478D01*
X862Y478D01*
X862Y480D01*
X722Y480D01*
G37*
D02*
G36*
X298Y476D02*
X298Y448D01*
X342Y448D01*
X342Y476D01*
X298Y476D01*
G37*
D02*
G36*
X40Y474D02*
X40Y460D01*
X60Y460D01*
X60Y462D01*
X62Y462D01*
X62Y464D01*
X66Y464D01*
X66Y466D01*
X70Y466D01*
X70Y468D01*
X74Y468D01*
X74Y470D01*
X78Y470D01*
X78Y472D01*
X86Y472D01*
X86Y474D01*
X40Y474D01*
G37*
D02*
G36*
X298Y448D02*
X298Y446D01*
X832Y446D01*
X832Y448D01*
X298Y448D01*
G37*
D02*
G36*
X298Y448D02*
X298Y446D01*
X832Y446D01*
X832Y448D01*
X298Y448D01*
G37*
D02*
G36*
X298Y448D02*
X298Y446D01*
X832Y446D01*
X832Y448D01*
X298Y448D01*
G37*
D02*
G36*
X298Y446D02*
X298Y396D01*
X364Y396D01*
X364Y346D01*
X744Y346D01*
X744Y438D01*
X832Y438D01*
X832Y446D01*
X298Y446D01*
G37*
D02*
G36*
X850Y368D02*
X850Y346D01*
X886Y346D01*
X886Y366D01*
X880Y366D01*
X880Y368D01*
X850Y368D01*
G37*
D02*
G36*
X970Y350D02*
X970Y344D01*
X990Y344D01*
X990Y346D01*
X994Y346D01*
X994Y348D01*
X998Y348D01*
X998Y350D01*
X970Y350D01*
G37*
D02*
G36*
X40Y348D02*
X40Y334D01*
X88Y334D01*
X88Y336D01*
X80Y336D01*
X80Y338D01*
X74Y338D01*
X74Y340D01*
X70Y340D01*
X70Y342D01*
X66Y342D01*
X66Y344D01*
X62Y344D01*
X62Y346D01*
X60Y346D01*
X60Y348D01*
X40Y348D01*
G37*
D02*
G36*
X364Y346D02*
X364Y344D01*
X886Y344D01*
X886Y346D01*
X364Y346D01*
G37*
D02*
G36*
X364Y346D02*
X364Y344D01*
X886Y344D01*
X886Y346D01*
X364Y346D01*
G37*
D02*
G36*
X364Y344D02*
X364Y316D01*
X850Y316D01*
X850Y214D01*
X852Y214D01*
X852Y212D01*
X862Y212D01*
X862Y210D01*
X886Y210D01*
X886Y344D01*
X364Y344D01*
G37*
D02*
G36*
X40Y334D02*
X40Y332D01*
X194Y332D01*
X194Y334D01*
X40Y334D01*
G37*
D02*
G36*
X40Y334D02*
X40Y332D01*
X194Y332D01*
X194Y334D01*
X40Y334D01*
G37*
D02*
G36*
X40Y332D02*
X40Y280D01*
X194Y280D01*
X194Y332D01*
X40Y332D01*
G37*
D02*
G36*
X364Y316D02*
X364Y280D01*
X744Y280D01*
X744Y316D01*
X364Y316D01*
G37*
D02*
G36*
X970Y288D02*
X970Y282D01*
X998Y282D01*
X998Y284D01*
X992Y284D01*
X992Y286D01*
X990Y286D01*
X990Y288D01*
X970Y288D01*
G37*
D02*
G36*
X970Y282D02*
X970Y280D01*
X1172Y280D01*
X1172Y282D01*
X970Y282D01*
G37*
D02*
G36*
X970Y282D02*
X970Y280D01*
X1172Y280D01*
X1172Y282D01*
X970Y282D01*
G37*
D02*
G36*
X40Y280D02*
X40Y278D01*
X744Y278D01*
X744Y280D01*
X40Y280D01*
G37*
D02*
G36*
X40Y280D02*
X40Y278D01*
X744Y278D01*
X744Y280D01*
X40Y280D01*
G37*
D02*
G36*
X970Y280D02*
X970Y248D01*
X1148Y248D01*
X1148Y246D01*
X1172Y246D01*
X1172Y280D01*
X970Y280D01*
G37*
D02*
G36*
X40Y278D02*
X40Y226D01*
X582Y226D01*
X582Y132D01*
X532Y132D01*
X532Y102D01*
X648Y102D01*
X648Y100D01*
X816Y100D01*
X816Y120D01*
X814Y120D01*
X814Y122D01*
X812Y122D01*
X812Y124D01*
X810Y124D01*
X810Y126D01*
X808Y126D01*
X808Y128D01*
X806Y128D01*
X806Y130D01*
X804Y130D01*
X804Y132D01*
X628Y132D01*
X628Y226D01*
X744Y226D01*
X744Y278D01*
X40Y278D01*
G37*
D02*
G36*
X970Y248D02*
X970Y178D01*
X1136Y178D01*
X1136Y180D01*
X1132Y180D01*
X1132Y182D01*
X1128Y182D01*
X1128Y184D01*
X1124Y184D01*
X1124Y186D01*
X1122Y186D01*
X1122Y188D01*
X1120Y188D01*
X1120Y190D01*
X1118Y190D01*
X1118Y192D01*
X1116Y192D01*
X1116Y194D01*
X1114Y194D01*
X1114Y198D01*
X1112Y198D01*
X1112Y200D01*
X1110Y200D01*
X1110Y206D01*
X1108Y206D01*
X1108Y220D01*
X1110Y220D01*
X1110Y226D01*
X1112Y226D01*
X1112Y230D01*
X1114Y230D01*
X1114Y232D01*
X1116Y232D01*
X1116Y234D01*
X1118Y234D01*
X1118Y236D01*
X1120Y236D01*
X1120Y238D01*
X1122Y238D01*
X1122Y240D01*
X1124Y240D01*
X1124Y242D01*
X1128Y242D01*
X1128Y244D01*
X1132Y244D01*
X1132Y246D01*
X1136Y246D01*
X1136Y248D01*
X970Y248D01*
G37*
D02*
G36*
X40Y226D02*
X40Y146D01*
X114Y146D01*
X114Y144D01*
X122Y144D01*
X122Y142D01*
X126Y142D01*
X126Y140D01*
X148Y140D01*
X148Y152D01*
X150Y152D01*
X150Y154D01*
X414Y154D01*
X414Y226D01*
X40Y226D01*
G37*
D02*
G36*
X1258Y192D02*
X1258Y82D01*
X1296Y82D01*
X1296Y84D01*
X1292Y84D01*
X1292Y88D01*
X1290Y88D01*
X1290Y90D01*
X1288Y90D01*
X1288Y192D01*
X1258Y192D01*
G37*
D02*
G36*
X1148Y180D02*
X1148Y178D01*
X1172Y178D01*
X1172Y180D01*
X1148Y180D01*
G37*
D02*
G36*
X970Y178D02*
X970Y176D01*
X1172Y176D01*
X1172Y178D01*
X970Y178D01*
G37*
D02*
G36*
X970Y178D02*
X970Y176D01*
X1172Y176D01*
X1172Y178D01*
X970Y178D01*
G37*
D02*
G36*
X970Y176D02*
X970Y140D01*
X1110Y140D01*
X1110Y138D01*
X1116Y138D01*
X1116Y136D01*
X1118Y136D01*
X1118Y134D01*
X1122Y134D01*
X1122Y132D01*
X1124Y132D01*
X1124Y130D01*
X1126Y130D01*
X1126Y128D01*
X1128Y128D01*
X1128Y126D01*
X1130Y126D01*
X1130Y124D01*
X1172Y124D01*
X1172Y176D01*
X970Y176D01*
G37*
D02*
G36*
X40Y146D02*
X40Y124D01*
X60Y124D01*
X60Y126D01*
X62Y126D01*
X62Y128D01*
X64Y128D01*
X64Y130D01*
X66Y130D01*
X66Y132D01*
X68Y132D01*
X68Y134D01*
X72Y134D01*
X72Y136D01*
X74Y136D01*
X74Y138D01*
X78Y138D01*
X78Y140D01*
X82Y140D01*
X82Y142D01*
X86Y142D01*
X86Y144D01*
X94Y144D01*
X94Y146D01*
X40Y146D01*
G37*
D02*
G36*
X970Y140D02*
X970Y82D01*
X902Y82D01*
X902Y72D01*
X1094Y72D01*
X1094Y74D01*
X1088Y74D01*
X1088Y76D01*
X1086Y76D01*
X1086Y78D01*
X1082Y78D01*
X1082Y80D01*
X1080Y80D01*
X1080Y82D01*
X1078Y82D01*
X1078Y84D01*
X1076Y84D01*
X1076Y86D01*
X1074Y86D01*
X1074Y90D01*
X1072Y90D01*
X1072Y92D01*
X1070Y92D01*
X1070Y98D01*
X1068Y98D01*
X1068Y114D01*
X1070Y114D01*
X1070Y120D01*
X1072Y120D01*
X1072Y122D01*
X1074Y122D01*
X1074Y126D01*
X1076Y126D01*
X1076Y128D01*
X1078Y128D01*
X1078Y130D01*
X1080Y130D01*
X1080Y132D01*
X1082Y132D01*
X1082Y134D01*
X1086Y134D01*
X1086Y136D01*
X1088Y136D01*
X1088Y138D01*
X1094Y138D01*
X1094Y140D01*
X970Y140D01*
G37*
D02*
G36*
X1128Y86D02*
X1128Y84D01*
X1126Y84D01*
X1126Y82D01*
X1172Y82D01*
X1172Y86D01*
X1128Y86D01*
G37*
D02*
G36*
X1124Y82D02*
X1124Y80D01*
X1298Y80D01*
X1298Y82D01*
X1124Y82D01*
G37*
D02*
G36*
X1124Y82D02*
X1124Y80D01*
X1298Y80D01*
X1298Y82D01*
X1124Y82D01*
G37*
D02*
G36*
X1122Y80D02*
X1122Y78D01*
X1118Y78D01*
X1118Y76D01*
X1116Y76D01*
X1116Y74D01*
X1110Y74D01*
X1110Y72D01*
X1346Y72D01*
X1346Y80D01*
X1122Y80D01*
G37*
D02*
G36*
X902Y72D02*
X902Y70D01*
X1346Y70D01*
X1346Y72D01*
X902Y72D01*
G37*
D02*
G36*
X902Y72D02*
X902Y70D01*
X1346Y70D01*
X1346Y72D01*
X902Y72D01*
G37*
D02*
G36*
X902Y70D02*
X902Y42D01*
X1346Y42D01*
X1346Y70D01*
X902Y70D01*
G37*
D02*
G36*
X1258Y314D02*
X1258Y284D01*
X1358Y284D01*
X1358Y268D01*
X1404Y268D01*
X1404Y288D01*
X1400Y288D01*
X1400Y290D01*
X1396Y290D01*
X1396Y292D01*
X1394Y292D01*
X1394Y294D01*
X1390Y294D01*
X1390Y296D01*
X1386Y296D01*
X1386Y298D01*
X1382Y298D01*
X1382Y300D01*
X1378Y300D01*
X1378Y302D01*
X1374Y302D01*
X1374Y304D01*
X1370Y304D01*
X1370Y306D01*
X1366Y306D01*
X1366Y308D01*
X1362Y308D01*
X1362Y310D01*
X1358Y310D01*
X1358Y312D01*
X1354Y312D01*
X1354Y314D01*
X1258Y314D01*
G37*
D02*
G36*
X1812Y214D02*
X1812Y212D01*
X1766Y212D01*
X1766Y210D01*
X1720Y210D01*
X1720Y182D01*
X1876Y182D01*
X1876Y184D01*
X1870Y184D01*
X1870Y186D01*
X1866Y186D01*
X1866Y188D01*
X1864Y188D01*
X1864Y190D01*
X1860Y190D01*
X1860Y192D01*
X1858Y192D01*
X1858Y194D01*
X1854Y194D01*
X1854Y196D01*
X1852Y196D01*
X1852Y198D01*
X1850Y198D01*
X1850Y200D01*
X1848Y200D01*
X1848Y202D01*
X1846Y202D01*
X1846Y206D01*
X1844Y206D01*
X1844Y208D01*
X1842Y208D01*
X1842Y212D01*
X1840Y212D01*
X1840Y214D01*
X1812Y214D01*
G37*
D02*
G36*
X1906Y186D02*
X1906Y184D01*
X1900Y184D01*
X1900Y182D01*
X1928Y182D01*
X1928Y186D01*
X1906Y186D01*
G37*
D02*
G36*
X1720Y182D02*
X1720Y180D01*
X1928Y180D01*
X1928Y182D01*
X1720Y182D01*
G37*
D02*
G36*
X1720Y182D02*
X1720Y180D01*
X1928Y180D01*
X1928Y182D01*
X1720Y182D01*
G37*
D02*
G36*
X1720Y180D02*
X1720Y130D01*
X1722Y130D01*
X1722Y80D01*
X1844Y80D01*
X1844Y94D01*
X1846Y94D01*
X1846Y100D01*
X1848Y100D01*
X1848Y104D01*
X1850Y104D01*
X1850Y108D01*
X1852Y108D01*
X1852Y112D01*
X1854Y112D01*
X1854Y114D01*
X1856Y114D01*
X1856Y116D01*
X1858Y116D01*
X1858Y120D01*
X1860Y120D01*
X1860Y122D01*
X1862Y122D01*
X1862Y124D01*
X1864Y124D01*
X1864Y126D01*
X1868Y126D01*
X1868Y128D01*
X1870Y128D01*
X1870Y130D01*
X1872Y130D01*
X1872Y132D01*
X1876Y132D01*
X1876Y134D01*
X1880Y134D01*
X1880Y136D01*
X1886Y136D01*
X1886Y138D01*
X1892Y138D01*
X1892Y140D01*
X1928Y140D01*
X1928Y180D01*
X1720Y180D01*
G37*
D02*
G36*
X1456Y208D02*
X1456Y188D01*
X1680Y188D01*
X1680Y196D01*
X1678Y196D01*
X1678Y206D01*
X1554Y206D01*
X1554Y208D01*
X1456Y208D01*
G37*
D02*
G36*
X1326Y192D02*
X1326Y188D01*
X1346Y188D01*
X1346Y192D01*
X1326Y192D01*
G37*
D02*
G36*
X1326Y188D02*
X1326Y186D01*
X1680Y186D01*
X1680Y188D01*
X1326Y188D01*
G37*
D02*
G36*
X1326Y188D02*
X1326Y186D01*
X1680Y186D01*
X1680Y188D01*
X1326Y188D01*
G37*
D02*
G36*
X1326Y186D02*
X1326Y140D01*
X1454Y140D01*
X1454Y138D01*
X1456Y138D01*
X1456Y120D01*
X1608Y120D01*
X1608Y118D01*
X1614Y118D01*
X1614Y116D01*
X1616Y116D01*
X1616Y114D01*
X1618Y114D01*
X1618Y112D01*
X1620Y112D01*
X1620Y108D01*
X1622Y108D01*
X1622Y80D01*
X1684Y80D01*
X1684Y104D01*
X1682Y104D01*
X1682Y150D01*
X1680Y150D01*
X1680Y186D01*
X1326Y186D01*
G37*
D02*
G36*
X1326Y140D02*
X1326Y118D01*
X1346Y118D01*
X1346Y138D01*
X1348Y138D01*
X1348Y140D01*
X1326Y140D01*
G37*
D02*
G36*
X1456Y120D02*
X1456Y118D01*
X1484Y118D01*
X1484Y120D01*
X1456Y120D01*
G37*
D02*
G36*
X187Y578D02*
X220Y578D01*
X220Y544D01*
X187Y544D01*
X187Y578D01*
G37*
D02*
G36*
X152Y611D02*
X186Y611D01*
X186Y578D01*
X152Y578D01*
X152Y611D01*
G37*
D02*
G36*
X68Y836D02*
X123Y836D01*
X123Y808D01*
X68Y808D01*
X68Y836D01*
G37*
D02*
G36*
X36Y908D02*
X50Y908D01*
X50Y853D01*
X36Y853D01*
X36Y908D01*
G37*
D02*
G36*
X140Y908D02*
X168Y908D01*
X168Y853D01*
X140Y853D01*
X140Y908D01*
G37*
D02*
G36*
X68Y478D02*
X123Y478D01*
X123Y452D01*
X68Y452D01*
X68Y478D01*
G37*
D02*
G36*
X36Y434D02*
X50Y434D01*
X50Y379D01*
X36Y379D01*
X36Y434D01*
G37*
D02*
G36*
X36Y1075D02*
X80Y1075D01*
X80Y1038D01*
X36Y1038D01*
X36Y1075D01*
G37*
D02*
G36*
X912Y736D02*
X954Y736D01*
X954Y725D01*
X912Y725D01*
X912Y736D01*
G37*
D02*
G36*
X1787Y416D02*
X1812Y416D01*
X1812Y372D01*
X1787Y372D01*
X1787Y416D01*
G37*
D02*
G36*
X1800Y430D02*
X1842Y430D01*
X1842Y403D01*
X1800Y403D01*
X1800Y430D01*
G37*
D02*
G36*
X174Y98D02*
X197Y98D01*
X197Y42D01*
X174Y42D01*
X174Y98D01*
G37*
D02*
G36*
X1074Y1138D02*
X1105Y1138D01*
X1105Y1084D01*
X1074Y1084D01*
X1074Y1138D01*
G37*
D02*
G36*
X66Y1210D02*
X97Y1210D01*
X97Y1158D01*
X66Y1158D01*
X66Y1210D01*
G37*
D02*
G36*
X36Y1175D02*
X80Y1175D01*
X80Y1138D01*
X36Y1138D01*
X36Y1175D01*
G37*
D02*
G36*
X912Y800D02*
X954Y800D01*
X954Y789D01*
X912Y789D01*
X912Y800D01*
G37*
D02*
G36*
X512Y1348D02*
X543Y1348D01*
X543Y1312D01*
X512Y1312D01*
X512Y1348D01*
G37*
D02*
G36*
X480Y1329D02*
X526Y1329D01*
X526Y1292D01*
X480Y1292D01*
X480Y1329D01*
G37*
D02*
G36*
X926Y366D02*
X970Y366D01*
X970Y359D01*
X926Y359D01*
X926Y366D01*
G37*
D02*
G36*
X636Y514D02*
X722Y514D01*
X722Y483D01*
X636Y483D01*
X636Y514D01*
G37*
D02*
G36*
X1760Y498D02*
X1790Y498D01*
X1790Y479D01*
X1760Y479D01*
X1760Y498D01*
G37*
D02*
G36*
X1804Y498D02*
X1834Y498D01*
X1834Y479D01*
X1804Y479D01*
X1804Y498D01*
G37*
D02*
G36*
X1400Y1342D02*
X1431Y1342D01*
X1431Y1300D01*
X1400Y1300D01*
X1400Y1342D01*
G37*
D02*
G36*
X1086Y1342D02*
X1117Y1342D01*
X1117Y1298D01*
X1086Y1298D01*
X1086Y1342D01*
G37*
D02*
G36*
X1530Y760D02*
X1549Y760D01*
X1549Y732D01*
X1530Y732D01*
X1530Y760D01*
G37*
D02*
G36*
X1476Y1044D02*
X1487Y1044D01*
X1487Y984D01*
X1476Y984D01*
X1476Y1044D01*
G37*
D02*
G36*
X926Y188D02*
X970Y188D01*
X970Y181D01*
X926Y181D01*
X926Y188D01*
G37*
D02*
G36*
X1180Y754D02*
X1199Y754D01*
X1199Y722D01*
X1180Y722D01*
X1180Y754D01*
G37*
D02*
G36*
X1152Y770D02*
X1182Y770D01*
X1182Y751D01*
X1152Y751D01*
X1152Y770D01*
G37*
D02*
G36*
X926Y162D02*
X970Y162D01*
X970Y155D01*
X926Y155D01*
X926Y162D01*
G37*
D02*
G04 End of Copper1*
M02*