G04 MADE WITH FRITZING*
G04 WWW.FRITZING.ORG*
G04 DOUBLE SIDED*
G04 HOLES PLATED*
G04 CONTOUR ON CENTER OF CONTOUR VECTOR*
%ASAXBY*%
%FSLAX23Y23*%
%MOIN*%
%OFA0B0*%
%SFA1.0B1.0*%
%ADD10R,0.078736X0.049208*%
%ADD11R,0.078736X0.049222*%
%ADD12R,0.074803X0.062992*%
%ADD13R,0.062992X0.074803*%
%ADD14R,0.050000X0.022000*%
%ADD15R,0.022000X0.050000*%
%ADD16R,0.024000X0.087000*%
%ADD17R,0.055000X0.013701*%
%ADD18R,0.137795X0.062992*%
%ADD19R,0.051181X0.055118*%
%ADD20R,0.048000X0.088000*%
%ADD21R,0.141732X0.086614*%
%ADD22R,0.001000X0.001000*%
%LNPASTEMASK1*%
G90*
G70*
G54D10*
X1401Y99D03*
G54D11*
X1401Y227D03*
G54D12*
X1306Y360D03*
X1306Y238D03*
G54D13*
X1510Y496D03*
X1632Y496D03*
G54D14*
X914Y854D03*
X914Y823D03*
X914Y791D03*
X914Y760D03*
X914Y728D03*
X914Y697D03*
X914Y665D03*
X914Y634D03*
G54D15*
X973Y575D03*
X1004Y575D03*
X1036Y575D03*
X1067Y575D03*
X1099Y575D03*
X1130Y575D03*
X1162Y575D03*
X1193Y575D03*
G54D14*
X1252Y634D03*
X1252Y665D03*
X1252Y697D03*
X1252Y728D03*
X1252Y760D03*
X1252Y791D03*
X1252Y823D03*
X1252Y854D03*
G54D15*
X1193Y913D03*
X1162Y913D03*
X1130Y913D03*
X1099Y913D03*
X1067Y913D03*
X1036Y913D03*
X1004Y913D03*
X973Y913D03*
G54D16*
X732Y1066D03*
X782Y1066D03*
X832Y1066D03*
X882Y1066D03*
X882Y1272D03*
X832Y1272D03*
X782Y1272D03*
X732Y1272D03*
X1433Y981D03*
X1483Y981D03*
X1533Y981D03*
X1583Y981D03*
X1583Y1187D03*
X1533Y1187D03*
X1483Y1187D03*
X1433Y1187D03*
G54D17*
X928Y104D03*
X928Y129D03*
X928Y155D03*
X928Y180D03*
X928Y206D03*
X928Y231D03*
X928Y257D03*
X928Y308D03*
X928Y283D03*
X928Y334D03*
X928Y359D03*
X928Y385D03*
X928Y411D03*
X928Y436D03*
X1215Y104D03*
X1215Y129D03*
X1215Y155D03*
X1215Y180D03*
X1215Y206D03*
X1215Y231D03*
X1215Y257D03*
X1215Y283D03*
X1215Y308D03*
X1215Y334D03*
X1215Y359D03*
X1215Y385D03*
X1215Y411D03*
X1215Y436D03*
G54D13*
X204Y1055D03*
X82Y1055D03*
X206Y1154D03*
X84Y1154D03*
X1418Y1297D03*
X1540Y1297D03*
X1549Y634D03*
X1671Y634D03*
X1343Y634D03*
X1465Y634D03*
X1674Y1096D03*
X1796Y1096D03*
X1672Y1191D03*
X1794Y1191D03*
X1342Y737D03*
X1464Y737D03*
X1103Y1295D03*
X981Y1295D03*
X530Y1308D03*
X652Y1308D03*
X1871Y564D03*
X1749Y564D03*
G54D12*
X641Y1214D03*
X641Y1092D03*
G54D18*
X425Y495D03*
X638Y495D03*
X498Y179D03*
X711Y179D03*
G54D13*
X970Y1136D03*
X1092Y1136D03*
G54D19*
X1502Y414D03*
X1602Y414D03*
X1702Y414D03*
X1802Y414D03*
X1505Y38D03*
X1605Y38D03*
X1705Y38D03*
X1805Y38D03*
G54D18*
X422Y800D03*
X634Y800D03*
G54D13*
X1182Y1123D03*
X1304Y1123D03*
G54D12*
X797Y270D03*
X797Y392D03*
G54D20*
X188Y94D03*
X279Y94D03*
X370Y94D03*
G54D21*
X279Y338D03*
G54D22*
D02*
G04 End of PasteMask1*
M02*