G04 DipTrace 2.4.0.2*
%INTop.gbr*%
%MOIN*%
%ADD14C,0.006*%
%ADD15C,0.0394*%
%ADD16C,0.025*%
%ADD17C,0.013*%
%ADD20R,0.0669X0.0669*%
%ADD21C,0.0669*%
%ADD22R,0.063X0.0709*%
%ADD23R,0.0709X0.063*%
%ADD24R,0.1024X0.063*%
%ADD25R,0.0709X0.0661*%
%ADD27R,0.0689X0.0689*%
%ADD28C,0.0689*%
%ADD30C,0.1181*%
%ADD31C,0.0787*%
%ADD33R,0.0669X0.0197*%
%ADD34R,0.0197X0.0669*%
%ADD35R,0.0591X0.0354*%
%ADD36R,0.063X0.063*%
%ADD37C,0.063*%
%ADD38C,0.1299*%
%ADD39C,0.048*%
%ADD40C,0.04*%
%FSLAX44Y44*%
G04*
G70*
G90*
G75*
G01*
%LNTop*%
%LPD*%
X18259Y12071D2*
D14*
X18523Y11807D1*
Y10904D1*
X18953Y6532D2*
X17151D1*
X17012Y6393D1*
Y5453D1*
X17156Y5310D1*
Y5146D1*
X17236Y13568D2*
Y13071D1*
X18259D1*
X7080Y10064D2*
X7644Y10628D1*
X12899D1*
X22664Y15137D2*
X22265Y15536D1*
Y16091D1*
X22886D1*
X21279Y9093D2*
X21722D1*
X21861Y9232D1*
Y9584D1*
X21722Y9723D1*
X21279D1*
X16556Y10937D2*
X16866Y10628D1*
Y8786D1*
X14187Y7687D2*
Y6672D1*
X14326Y6532D1*
X16873D1*
X17012Y6393D1*
X20835Y6532D2*
X23546D1*
X23685Y6671D1*
Y7737D1*
X17156Y5146D2*
X16298Y4288D1*
X11961D1*
X11500Y4750D1*
X22664Y15137D2*
X23443D1*
X22664D2*
X22681D1*
X18259Y13071D2*
X19219Y14031D1*
X21018D1*
Y14824D1*
X21157Y14963D1*
X22178D1*
X22352Y15137D1*
X22664D1*
X12899Y10628D2*
X14847D1*
X15687Y11469D1*
X22886Y16091D2*
Y17572D1*
X22747Y17711D1*
X21937D1*
X18852Y10202D2*
X18688Y10038D1*
X17972D1*
X21279Y9723D2*
X19408D1*
X18930Y10202D1*
X18852D1*
X19259Y12071D2*
X18805Y12524D1*
X17805D1*
Y11478D1*
X17972Y11312D1*
Y10353D1*
X19712Y11518D2*
X18977D1*
X18838Y11379D1*
Y10904D1*
X20237Y8999D2*
X19783Y8545D1*
Y7597D1*
X22611Y14039D2*
Y13524D1*
X19851D1*
X19712Y13385D1*
Y12618D1*
X20259Y12071D1*
X23443Y14035D2*
X22611Y14039D1*
X24348Y14034D2*
X23443Y14035D1*
X25245Y14002D2*
Y14034D1*
X24348D1*
X25149Y6053D2*
Y7737D1*
X25102D1*
Y8333D1*
X24656Y8779D1*
Y9175D1*
X25212D1*
X20198Y16362D2*
Y17551D1*
X20337Y17690D1*
X21064D1*
X9500Y4750D2*
Y5810D1*
X9397Y5912D1*
Y6813D1*
X21279Y8778D2*
X20835D1*
X20696Y8917D1*
Y9408D1*
X19512D1*
X19033Y9888D1*
X18554D1*
X18415Y9749D1*
Y9093D1*
X17972D1*
X20198Y16362D2*
X17475D1*
X17336Y16223D1*
Y15295D1*
X21764Y12958D2*
X20977D1*
X20864Y13071D1*
X20259D1*
X25212Y11081D2*
Y11687D1*
X25073Y11826D1*
X21903D1*
X21764Y11965D1*
Y12958D1*
X25212Y9175D2*
Y11081D1*
X24656Y8779D2*
X24517Y8640D1*
X23105D1*
X16134Y14257D2*
Y13568D1*
X17336Y15295D2*
X16273D1*
X16134Y15156D1*
Y14257D1*
X15458Y16362D2*
X17197D1*
X17336Y16223D1*
X21469Y16091D2*
Y16332D1*
X20228D1*
X20198Y16362D1*
X20696Y9408D2*
X20835D1*
X21279D1*
X23105Y8640D2*
X22726D1*
X22588Y8778D1*
X21279D1*
X15277Y5103D2*
Y5018D1*
X15477Y4818D1*
X15851D1*
X15687Y7689D2*
X16866Y7683D1*
X24110Y9175D2*
X23385D1*
X23381Y9178D1*
X22756D1*
X21897Y10038D1*
X21279D1*
X24348Y12931D2*
Y12445D1*
X24487Y12306D1*
X24884D1*
X25245D1*
Y12900D1*
X22398Y14654D2*
X21903D1*
X21764Y14515D1*
Y14060D1*
X20555Y8376D2*
X20402D1*
X20097Y8071D1*
Y7597D1*
X21761Y15295D2*
X18320D1*
X20680Y14508D2*
X18320D1*
X14187Y9577D2*
X14886Y8877D1*
Y7127D1*
X15025Y6988D1*
X18384D1*
X18523Y7127D1*
Y7597D1*
X22518Y7956D2*
X21716Y7154D1*
X20412D1*
Y7597D1*
X24110Y11081D2*
X23385D1*
X23382Y11078D1*
X22756D1*
X22031Y10353D1*
X21279D1*
X22581Y12343D2*
X22611Y12373D1*
Y12936D1*
X7621Y13599D2*
Y12773D1*
X7482Y12634D1*
X6473D1*
X6999Y11548D2*
X7930Y12478D1*
Y15044D1*
X8069Y15183D1*
X13568D1*
X15958Y12793D1*
X17329D1*
X17468Y12654D1*
Y8463D1*
X17972D1*
X8312Y14735D2*
Y12307D1*
X8451Y12168D1*
X17190D1*
X17329Y12029D1*
Y8287D1*
X17468Y8148D1*
X17972D1*
X10500Y4750D2*
Y5471D1*
Y6813D1*
X20699Y11518D2*
X20727Y11489D1*
Y10904D1*
X18830Y9579D2*
X18838Y9571D1*
Y7597D1*
X19638Y10021D2*
X20098D1*
X20412Y10335D1*
Y10904D1*
X15792Y5412D2*
X15851Y5472D1*
Y6117D1*
X12590Y6030D2*
Y4957D1*
X12729Y4818D1*
X13922D1*
X11924Y12717D2*
X12788D1*
X12927Y12856D1*
Y14219D1*
X21338Y4809D2*
D15*
Y5248D1*
X21532D1*
Y5657D1*
X21929Y6053D1*
X23732D1*
X13079Y5165D2*
X13144D1*
Y6209D1*
X12798Y6555D1*
X11972D1*
Y6403D1*
D14*
X13922D1*
Y6117D1*
X21937Y18813D2*
Y18792D1*
X21064D1*
X24026Y4650D2*
D15*
X23867Y4809D1*
X22787D1*
D40*
X5297Y4753D3*
X23429Y11823D3*
X17785Y5845D3*
X22664Y15137D3*
X12899Y10628D3*
X7080Y10064D3*
X20835Y6532D3*
X16556Y10937D3*
X18953Y6532D3*
X18852Y10202D3*
X19712Y11518D3*
X20237Y8999D3*
X15277Y5103D3*
X23105Y8640D3*
X16134Y14257D3*
X24884Y12306D3*
X22398Y14654D3*
X20555Y8376D3*
X21761Y15295D3*
X20680Y14508D3*
X22518Y7956D3*
X22581Y12343D3*
X6473Y12634D3*
X7621Y13599D3*
X6999Y11548D3*
X8312Y14735D3*
X20699Y11518D3*
X18830Y9579D3*
X19638Y10021D3*
X15792Y5412D3*
X12590Y6030D3*
X12927Y14219D3*
X21532Y5657D3*
X11972Y6403D3*
X13079Y5165D3*
X7118Y19045D2*
D16*
X20420D1*
X22579D2*
X22666D1*
X7118Y18796D2*
X20420D1*
X22579D2*
X22666D1*
X7114Y18548D2*
X20420D1*
X22579D2*
X22666D1*
X7114Y18299D2*
X20420D1*
X22579D2*
X22666D1*
X7110Y18050D2*
X20420D1*
X22579D2*
X22666D1*
X7110Y17802D2*
X20420D1*
X7106Y17553D2*
X20420D1*
X7106Y17304D2*
X20420D1*
X7102Y17056D2*
X9810D1*
X10536D2*
X12810D1*
X13536D2*
X14838D1*
X16079D2*
X19576D1*
X20817D2*
X22564D1*
X7102Y16807D2*
X9463D1*
X10884D2*
X12463D1*
X13884D2*
X14634D1*
X16282D2*
X19373D1*
X21020D2*
X22564D1*
X7098Y16558D2*
X9310D1*
X11036D2*
X12310D1*
X14036D2*
X14541D1*
X16376D2*
X19279D1*
X4548Y16310D2*
X9248D1*
X11098D2*
X12248D1*
X14098D2*
X14521D1*
X16395D2*
X19259D1*
X4544Y16061D2*
X9259D1*
X11091D2*
X12259D1*
X14091D2*
X14568D1*
X16345D2*
X19310D1*
X23688D2*
X25494D1*
X4544Y15812D2*
X9341D1*
X11009D2*
X12341D1*
X14009D2*
X14701D1*
X16212D2*
X17048D1*
X17622D2*
X18033D1*
X18606D2*
X19443D1*
X23688D2*
X25494D1*
X4544Y15564D2*
X9521D1*
X10825D2*
X12521D1*
X13825D2*
X14986D1*
X15927D2*
X16798D1*
X24087D2*
X25494D1*
X4540Y15315D2*
X7759D1*
X13880D2*
X16732D1*
X24087D2*
X25494D1*
X4540Y15066D2*
X7611D1*
X14126D2*
X16732D1*
X24087D2*
X25494D1*
X4536Y14817D2*
X7611D1*
X8794D2*
X13490D1*
X14376D2*
X16732D1*
X18837D2*
X20306D1*
X24087D2*
X25494D1*
X4536Y14569D2*
X7611D1*
X8770D2*
X12595D1*
X13259D2*
X13740D1*
X14626D2*
X16732D1*
X4532Y14320D2*
X7611D1*
X8634D2*
X11134D1*
X11712D2*
X12134D1*
X13407D2*
X13990D1*
X14872D2*
X16732D1*
X4532Y14071D2*
X7611D1*
X8634D2*
X10845D1*
X13391D2*
X14236D1*
X15122D2*
X15529D1*
X18727D2*
X18814D1*
X4528Y13823D2*
X7189D1*
X8634D2*
X10748D1*
X13247D2*
X14486D1*
X15372D2*
X15529D1*
X17841D2*
X18568D1*
X4528Y13574D2*
X7130D1*
X8634D2*
X10755D1*
X13247D2*
X14736D1*
X4528Y13325D2*
X7220D1*
X8634D2*
X10650D1*
X13247D2*
X14982D1*
X23255D2*
X23705D1*
X4524Y13077D2*
X6306D1*
X6638D2*
X7302D1*
X8634D2*
X10349D1*
X13247D2*
X15232D1*
X20891D2*
X21119D1*
X23255D2*
X23705D1*
X4524Y12828D2*
X6025D1*
X8634D2*
X10252D1*
X13247D2*
X15482D1*
X20841D2*
X21119D1*
X23255D2*
X23705D1*
X4520Y12579D2*
X5986D1*
X8634D2*
X10255D1*
X13095D2*
X15728D1*
X20641D2*
X21119D1*
X23255D2*
X23705D1*
X4520Y12331D2*
X6095D1*
X6852D2*
X7341D1*
X20837D2*
X22091D1*
X23071D2*
X24052D1*
X4516Y12082D2*
X7091D1*
X7973D2*
X8092D1*
X20891D2*
X22170D1*
X22989D2*
X24271D1*
X4516Y11833D2*
X6607D1*
X7727D2*
X13388D1*
X16485D2*
X17009D1*
X21067D2*
X25486D1*
X4513Y11585D2*
X6509D1*
X7489D2*
X13314D1*
X16559D2*
X17009D1*
X21184D2*
X23505D1*
X4513Y11336D2*
X6560D1*
X7438D2*
X13318D1*
X16821D2*
X17009D1*
X21153D2*
X22298D1*
X4513Y11087D2*
X6912D1*
X7087D2*
X12802D1*
X12996D2*
X13396D1*
X21114D2*
X22228D1*
X4509Y10838D2*
X7412D1*
X21114D2*
X22076D1*
X4509Y10590D2*
X7162D1*
X15251D2*
X16224D1*
X22907D2*
X23505D1*
X4505Y10341D2*
X6681D1*
X14938D2*
X15275D1*
X16098D2*
X16545D1*
X22462D2*
X25486D1*
X4505Y10092D2*
X6591D1*
X7567D2*
X13478D1*
X14895D2*
X14975D1*
X16395D2*
X16545D1*
X22286D2*
X25482D1*
X4501Y9844D2*
X6646D1*
X7513D2*
X13349D1*
X22532D2*
X25482D1*
X4501Y9595D2*
X13306D1*
X23067D2*
X23505D1*
X4501Y9346D2*
X13338D1*
X19259D2*
X19904D1*
X4497Y9098D2*
X13455D1*
X19157D2*
X19755D1*
X22149D2*
X22232D1*
X4497Y8849D2*
X13713D1*
X19157D2*
X19646D1*
X21911D2*
X22349D1*
X23165D2*
X23505D1*
X4493Y8600D2*
X14568D1*
X15208D2*
X16220D1*
X19157D2*
X19466D1*
X21903D2*
X23505D1*
X4493Y8352D2*
X13623D1*
X19157D2*
X19463D1*
X21903D2*
X22248D1*
X22790D2*
X25482D1*
X4489Y8103D2*
X13416D1*
X21903D2*
X22052D1*
X4489Y7854D2*
X13322D1*
X4485Y7606D2*
X13310D1*
X17509D2*
X18134D1*
X21114D2*
X21724D1*
X4485Y7357D2*
X8795D1*
X11106D2*
X13373D1*
X17509D2*
X18134D1*
X22360D2*
X22884D1*
X4485Y7108D2*
X8795D1*
X11106D2*
X13533D1*
X22114D2*
X23365D1*
X24005D2*
X25478D1*
X4481Y6859D2*
X8795D1*
X11106D2*
X11599D1*
X13173D2*
X13869D1*
X19309D2*
X20365D1*
X21763D2*
X23365D1*
X24005D2*
X25478D1*
X4481Y6611D2*
X8795D1*
X11106D2*
X11490D1*
X19434D2*
X20353D1*
X4477Y6362D2*
X8795D1*
X11106D2*
X11486D1*
X19411D2*
X20377D1*
X4477Y6113D2*
X10181D1*
X10821D2*
X11584D1*
X14509D2*
X15267D1*
X16438D2*
X16693D1*
X18188D2*
X18728D1*
X19180D2*
X20607D1*
X21063D2*
X21310D1*
X4473Y5865D2*
X10181D1*
X10821D2*
X12130D1*
X14509D2*
X15267D1*
X16438D2*
X16693D1*
X18274D2*
X21091D1*
X4473Y5616D2*
X10181D1*
X10821D2*
X12271D1*
X13630D2*
X15349D1*
X16235D2*
X16533D1*
X18552D2*
X18759D1*
X19552D2*
X21033D1*
X4473Y5367D2*
X10181D1*
X10821D2*
X12271D1*
X13630D2*
X15302D1*
X16278D2*
X16533D1*
X19739D2*
X20693D1*
X22020D2*
X22143D1*
X23430D2*
X25474D1*
X4470Y5119D2*
X7002D1*
X12126D2*
X12272D1*
X14509D2*
X15267D1*
X16438D2*
X16532D1*
X19778D2*
X20693D1*
X22001D2*
X22140D1*
X4470Y4870D2*
X6888D1*
X12126D2*
X12285D1*
X14509D2*
X15267D1*
X19712D2*
X20693D1*
X21981D2*
X22146D1*
X4466Y4621D2*
X6888D1*
X12126D2*
X12482D1*
X14509D2*
X15267D1*
X18470D2*
X18841D1*
X19470D2*
X20693D1*
X21981D2*
X22146D1*
X4466Y4373D2*
X7009D1*
X11025Y5349D2*
X12099D1*
Y4580D1*
X12551Y4583D1*
X12381Y4748D1*
X12313Y4856D1*
X12295Y4957D1*
Y5671D1*
X12241Y5723D1*
X12172Y5827D1*
X12132Y5965D1*
X12077Y5950D1*
X11953Y5938D1*
X11830Y5960D1*
X11717Y6014D1*
X11623Y6096D1*
X11554Y6199D1*
X11515Y6318D1*
X11510Y6555D1*
X11522Y6656D1*
X11554Y6752D1*
X11607Y6838D1*
X11678Y6911D1*
X11762Y6966D1*
X11857Y7002D1*
X11972Y7017D1*
X12798D1*
X12921Y7000D1*
X13066Y6931D1*
X13301Y6705D1*
X13309Y6697D1*
X13892Y6698D1*
Y6886D1*
X13796Y6926D1*
X13689Y6991D1*
X13593Y7071D1*
X13510Y7164D1*
X13441Y7268D1*
X13388Y7381D1*
X13352Y7501D1*
X13334Y7625D1*
Y7749D1*
X13352Y7873D1*
X13388Y7993D1*
X13441Y8106D1*
X13510Y8210D1*
X13593Y8303D1*
X13689Y8383D1*
X13796Y8448D1*
X13911Y8497D1*
X14032Y8528D1*
X14156Y8542D1*
X14280Y8537D1*
X14403Y8515D1*
X14522Y8474D1*
X14594Y8437D1*
X14589Y8757D1*
X14548Y8799D1*
X14403Y8749D1*
X14281Y8726D1*
X14156Y8722D1*
X14032Y8736D1*
X13911Y8767D1*
X13796Y8816D1*
X13689Y8881D1*
X13593Y8961D1*
X13510Y9054D1*
X13441Y9158D1*
X13388Y9271D1*
X13352Y9391D1*
X13334Y9514D1*
Y9639D1*
X13352Y9763D1*
X13388Y9882D1*
X13441Y9995D1*
X13510Y10100D1*
X13593Y10193D1*
X13689Y10272D1*
X13786Y10331D1*
X13257Y10333D1*
X13221Y10293D1*
X13120Y10219D1*
X13003Y10175D1*
X12879Y10164D1*
X12756Y10186D1*
X12644Y10239D1*
X12543Y10331D1*
X11524Y10333D1*
X7764Y10331D1*
X7540Y10107D1*
X7545Y10064D1*
X7528Y9941D1*
X7479Y9826D1*
X7402Y9728D1*
X7301Y9655D1*
X7184Y9611D1*
X7060Y9600D1*
X6937Y9621D1*
X6825Y9675D1*
X6731Y9757D1*
X6662Y9861D1*
X6623Y9979D1*
X6617Y10103D1*
X6644Y10225D1*
X6702Y10335D1*
X6788Y10426D1*
X6894Y10490D1*
X7014Y10524D1*
X7127Y10525D1*
X7435Y10837D1*
X7543Y10905D1*
X7644Y10923D1*
X12538D1*
X12607Y10990D1*
X12713Y11054D1*
X12833Y11088D1*
X12958Y11089D1*
X13078Y11057D1*
X13186Y10994D1*
X13254Y10924D1*
X13525D1*
X13441Y11048D1*
X13379Y11184D1*
X13343Y11330D1*
X13332Y11479D1*
X13347Y11628D1*
X13388Y11772D1*
X13435Y11873D1*
X8451D1*
X8327Y11901D1*
X8242Y11959D1*
X8067Y12144D1*
X7962Y12093D1*
X7462Y11593D1*
X7464Y11548D1*
X7448Y11424D1*
X7399Y11310D1*
X7321Y11212D1*
X7220Y11139D1*
X7104Y11095D1*
X6980Y11083D1*
X6857Y11105D1*
X6745Y11159D1*
X6650Y11241D1*
X6581Y11344D1*
X6542Y11463D1*
X6536Y11587D1*
X6563Y11709D1*
X6622Y11819D1*
X6707Y11910D1*
X6814Y11974D1*
X6934Y12008D1*
X7047Y12009D1*
X7374Y12339D1*
X6830D1*
X6795Y12298D1*
X6694Y12225D1*
X6577Y12181D1*
X6453Y12169D1*
X6331Y12191D1*
X6218Y12245D1*
X6124Y12326D1*
X6055Y12430D1*
X6016Y12548D1*
X6010Y12673D1*
X6037Y12795D1*
X6095Y12905D1*
X6181Y12995D1*
X6287Y13060D1*
X6407Y13094D1*
X6532Y13095D1*
X6652Y13063D1*
X6760Y12999D1*
X6828Y12930D1*
X7329Y12929D1*
X7326Y13237D1*
X7272Y13292D1*
X7203Y13396D1*
X7164Y13514D1*
X7158Y13638D1*
X7185Y13760D1*
X7243Y13870D1*
X7329Y13961D1*
X7435Y14025D1*
X7555Y14059D1*
X7637Y14060D1*
X7635Y15044D1*
X7663Y15169D1*
X7721Y15253D1*
X7860Y15392D1*
X7968Y15460D1*
X8069Y15478D1*
X9651D1*
X9539Y15572D1*
X9456Y15666D1*
X9387Y15770D1*
X9333Y15882D1*
X9295Y16001D1*
X9274Y16124D1*
X9270Y16249D1*
X9283Y16373D1*
X9313Y16495D1*
X9360Y16611D1*
X9422Y16719D1*
X9498Y16818D1*
X9587Y16905D1*
X9688Y16979D1*
X9798Y17039D1*
X9914Y17083D1*
X10036Y17111D1*
X10161Y17121D1*
X10285Y17114D1*
X10408Y17090D1*
X10526Y17050D1*
X10638Y16993D1*
X10740Y16922D1*
X10832Y16837D1*
X10911Y16741D1*
X10976Y16634D1*
X11026Y16520D1*
X11060Y16399D1*
X11079Y16216D1*
X11070Y16092D1*
X11044Y15970D1*
X11002Y15852D1*
X10944Y15741D1*
X10871Y15640D1*
X10785Y15549D1*
X10697Y15479D1*
X12651Y15478D1*
X12539Y15572D1*
X12456Y15666D1*
X12387Y15770D1*
X12333Y15882D1*
X12295Y16001D1*
X12274Y16124D1*
X12270Y16249D1*
X12283Y16373D1*
X12313Y16495D1*
X12360Y16611D1*
X12422Y16719D1*
X12498Y16818D1*
X12587Y16905D1*
X12688Y16979D1*
X12798Y17039D1*
X12914Y17083D1*
X13036Y17111D1*
X13161Y17121D1*
X13285Y17114D1*
X13408Y17090D1*
X13526Y17050D1*
X13638Y16993D1*
X13740Y16922D1*
X13832Y16837D1*
X13911Y16741D1*
X13976Y16634D1*
X14026Y16520D1*
X14060Y16399D1*
X14079Y16216D1*
X14070Y16092D1*
X14044Y15970D1*
X14002Y15852D1*
X13944Y15742D1*
X13871Y15640D1*
X13785Y15549D1*
X13671Y15462D1*
X13737Y15425D1*
X13953Y15215D1*
X15552Y13616D1*
X15554Y14174D1*
Y14187D1*
X16754D1*
X16756Y15088D1*
X16791D1*
X16760Y15224D1*
X16758Y15348D1*
X16783Y15471D1*
X16833Y15585D1*
X16907Y15686D1*
X17000Y15768D1*
X17109Y15829D1*
X17229Y15865D1*
X17353Y15875D1*
X17477Y15858D1*
X17594Y15815D1*
X17699Y15747D1*
X17787Y15659D1*
X17828Y15601D1*
X17891Y15686D1*
X17985Y15768D1*
X18093Y15829D1*
X18213Y15865D1*
X18337Y15875D1*
X18461Y15858D1*
X18578Y15815D1*
X18683Y15747D1*
X18771Y15659D1*
X18820Y15590D1*
X19707D1*
X19573Y15695D1*
X19472Y15806D1*
X19391Y15932D1*
X19331Y16069D1*
X19295Y16215D1*
X19283Y16364D1*
X19296Y16513D1*
X19333Y16659D1*
X19393Y16796D1*
X19474Y16922D1*
X19575Y17032D1*
X19693Y17125D1*
X19824Y17197D1*
X19966Y17247D1*
X20113Y17273D1*
X20263Y17274D1*
X20411Y17251D1*
X20445Y17243D1*
Y19295D1*
X7095Y19293D1*
X7073Y16474D1*
X7011Y16369D1*
X6949Y16350D1*
X4522Y16338D1*
X4440Y4335D1*
X5438D1*
X7059Y4341D1*
X6955Y4499D1*
X6915Y4617D1*
X6900Y4741D1*
X6912Y4866D1*
X6948Y4985D1*
X7009Y5094D1*
X7091Y5188D1*
X7190Y5263D1*
X7303Y5316D1*
X7425Y5345D1*
X7549Y5347D1*
X7672Y5324D1*
X7787Y5276D1*
X7890Y5205D1*
X7976Y5115D1*
X7998Y5078D1*
X8091Y5188D1*
X8190Y5263D1*
X8303Y5316D1*
X8425Y5345D1*
X8549Y5347D1*
X8672Y5324D1*
X8787Y5276D1*
X8890Y5205D1*
X8976Y5115D1*
X8998Y5078D1*
X9073Y5171D1*
X9169Y5250D1*
X9280Y5308D1*
X9400Y5341D1*
X9525Y5349D1*
X9648Y5331D1*
X9765Y5288D1*
X9871Y5221D1*
X9960Y5134D1*
X10000Y5081D1*
X10091Y5188D1*
X10208Y5272D1*
X10205Y5846D1*
Y6193D1*
X9920Y6197D1*
X9902Y6193D1*
X8818D1*
Y7432D1*
X11080D1*
Y6193D1*
X10795Y6188D1*
Y5272D1*
X10900Y5275D1*
Y5349D1*
X11025D1*
X23655Y11700D2*
X24690Y11696D1*
X24708Y11700D1*
X25511D1*
X25513Y12181D1*
X25411Y12063D1*
X25296Y12016D1*
X25241Y12011D1*
X25206Y11971D1*
X25105Y11897D1*
X24989Y11853D1*
X24865Y11842D1*
X24742Y11864D1*
X24630Y11917D1*
X24529Y12009D1*
X24366Y12037D1*
X24279Y12098D1*
X24140Y12237D1*
X24072Y12345D1*
X24103Y12282D1*
X23967Y12351D1*
X23729D1*
Y13458D1*
X23231Y13455D1*
X23230Y12357D1*
X23047D1*
X23029Y12219D1*
X22980Y12105D1*
X22903Y12007D1*
X22802Y11934D1*
X22686Y11890D1*
X22561Y11878D1*
X22439Y11900D1*
X22326Y11954D1*
X22232Y12035D1*
X22163Y12139D1*
X22124Y12258D1*
X22119Y12355D1*
X21992Y12357D1*
Y12376D1*
X21358Y12378D1*
X21144D1*
Y13230D1*
X20850Y13229D1*
X20867Y13100D1*
X20860Y12972D1*
X20827Y12851D1*
X20770Y12740D1*
X20692Y12643D1*
X20607Y12571D1*
X20707Y12484D1*
X20781Y12384D1*
X20834Y12271D1*
X20863Y12150D1*
X20868Y12071D1*
X20856Y11959D1*
X20986Y11883D1*
X21073Y11794D1*
X21133Y11685D1*
X21164Y11518D1*
X21147Y11394D1*
X21091Y11270D1*
Y10719D1*
X21878Y10716D1*
Y10650D1*
X21911D1*
X22256Y10995D1*
X22253Y11117D1*
X22278Y11239D1*
X22332Y11351D1*
X22412Y11447D1*
X22513Y11520D1*
X22628Y11567D1*
X22752Y11583D1*
X22876Y11569D1*
X22992Y11525D1*
X23095Y11453D1*
X23163Y11374D1*
X23529Y11376D1*
X23530Y11700D1*
X23655D1*
X24690Y10465D2*
X24440Y10462D1*
X23530D1*
Y10786D1*
X23167Y10783D1*
X23128Y10737D1*
X23033Y10656D1*
X22921Y10601D1*
X22799Y10575D1*
X22679Y10580D1*
X22236Y10142D1*
X22282Y10070D1*
X22677Y9675D1*
X22752Y9683D1*
X22876Y9669D1*
X22992Y9625D1*
X23095Y9553D1*
X23163Y9474D1*
X23529Y9470D1*
X23530Y9794D1*
X24690Y9790D1*
X24708Y9794D1*
X25508D1*
X25510Y10462D1*
X24633Y10463D1*
X24690Y8559D2*
X24440Y8556D1*
X23530D1*
Y8880D1*
X23167Y8883D1*
X23128Y8837D1*
X23033Y8756D1*
X22921Y8701D1*
X22799Y8675D1*
X22675Y8680D1*
X22555Y8715D1*
X22448Y8779D1*
X22359Y8866D1*
X22295Y8973D1*
X22259Y9092D1*
X22253Y9217D1*
X22261Y9259D1*
X22158Y9359D1*
X22156Y9232D1*
X22128Y9108D1*
X22070Y9023D1*
X21878Y8841D1*
Y7785D1*
X21093D1*
X21091Y7451D1*
X21595D1*
X22057Y7912D1*
X22055Y7996D1*
X22082Y8117D1*
X22141Y8227D1*
X22226Y8318D1*
X22333Y8383D1*
X22453Y8417D1*
X22577Y8418D1*
X22698Y8385D1*
X22805Y8322D1*
X22892Y8233D1*
X22909Y8202D1*
X22908Y8317D1*
X24461Y8313D1*
X24450Y8317D1*
X25506D1*
Y8556D1*
X24633D1*
X17485Y7784D2*
Y7283D1*
X18162D1*
X18159Y7783D1*
X17481Y7785D1*
X16246Y8335D2*
Y8928D1*
X16133Y8849D1*
X16022Y8791D1*
X15903Y8751D1*
X15781Y8728D1*
X15656Y8724D1*
X15532Y8737D1*
X15411Y8769D1*
X15296Y8818D1*
X15180Y8890D1*
X15181Y8381D1*
X15318Y8461D1*
X15458Y8513D1*
X15606Y8541D1*
X15756Y8542D1*
X15903Y8517D1*
X16044Y8466D1*
X16174Y8392D1*
X16247Y8336D1*
X24461Y7159D2*
X23981Y7158D1*
X23979Y6667D1*
X24080Y6633D1*
X24509Y6629D1*
X24498Y6633D1*
X25502D1*
X25503Y7157D1*
X24325Y7158D1*
X23387D2*
X22908D1*
Y7701D1*
X22840Y7621D1*
X22739Y7547D1*
X22623Y7503D1*
X22472Y7497D1*
X22020Y7041D1*
X21924Y6945D1*
X21816Y6877D1*
X21716Y6858D1*
X21165D1*
X21210Y6827D1*
X23394D1*
X23390Y7159D1*
X24965Y14582D2*
X25520D1*
Y16095D1*
X23666Y16081D1*
X23663Y15714D1*
X24063Y15717D1*
Y14611D1*
X24967Y14613D1*
Y14578D1*
X17816Y13925D2*
Y13488D1*
X17909Y13571D1*
X18018Y13631D1*
X18138Y13668D1*
X18262Y13680D1*
X18386Y13667D1*
X18427Y13654D1*
X18984Y14214D1*
X18817Y14213D1*
X18783Y14158D1*
X18697Y14068D1*
X18594Y13997D1*
X18479Y13950D1*
X18356Y13929D1*
X18231Y13935D1*
X18111Y13967D1*
X18000Y14024D1*
X17916Y14088D1*
Y13928D1*
X17818D1*
X22234Y16671D2*
X22590D1*
X22591Y17415D1*
X22556Y17416D1*
Y17131D1*
X21685D1*
X21683Y17110D1*
X20728Y17107D1*
X20842Y17011D1*
X20940Y16897D1*
X21017Y16769D1*
X21059Y16670D1*
X22234Y16671D1*
X24509Y5474D2*
X22955Y5473D1*
Y5594D1*
X22119Y5591D1*
X21993Y5464D1*
X21994Y5248D1*
X21957Y5029D1*
Y4400D1*
X22169Y4398D1*
X22167Y5404D1*
X23406D1*
X23412Y5271D1*
X23867D1*
X24051Y5249D1*
X24625D1*
Y5097D1*
X24738Y5175D1*
X24853Y5224D1*
X24975Y5247D1*
X25100Y5244D1*
X25222Y5216D1*
X25335Y5163D1*
X25434Y5088D1*
X25499Y5017D1*
X25500Y5470D1*
X25276Y5473D1*
X24373Y5474D1*
X20843Y5404D2*
X20902D1*
X20942Y5486D1*
X21042Y5602D1*
X21096Y5818D1*
X21155Y5928D1*
X21457Y6235D1*
X21198Y6237D1*
X21056Y6123D1*
X20939Y6079D1*
X20815Y6068D1*
X20693Y6090D1*
X20580Y6143D1*
X20486Y6225D1*
X20417Y6329D1*
X20378Y6447D1*
X20372Y6572D1*
X20399Y6693D1*
X20457Y6803D1*
X20508Y6857D1*
X20412Y6858D1*
X20291Y6885D1*
X20189Y6962D1*
X20167Y6991D1*
X20049Y6997D1*
X19419D1*
X18789D1*
X18768Y6958D1*
X18887Y6992D1*
X19012Y6993D1*
X19132Y6961D1*
X19240Y6898D1*
X19327Y6809D1*
X19387Y6700D1*
X19418Y6532D1*
X19401Y6409D1*
X19352Y6294D1*
X19275Y6197D1*
X19174Y6123D1*
X19058Y6079D1*
X18933Y6068D1*
X18811Y6090D1*
X18698Y6143D1*
X18598Y6235D1*
X18035Y6237D1*
X18159Y6121D1*
X18219Y6012D1*
X18250Y5845D1*
X18236Y5740D1*
X18328Y5721D1*
X18443Y5673D1*
X18546Y5602D1*
X18632Y5511D1*
X18654Y5475D1*
X18747Y5585D1*
X18846Y5660D1*
X18959Y5713D1*
X19081Y5741D1*
X19205Y5744D1*
X19328Y5721D1*
X19443Y5673D1*
X19546Y5602D1*
X19632Y5511D1*
X19697Y5405D1*
X19739Y5287D1*
X19755Y5146D1*
X19742Y5022D1*
X19704Y4903D1*
X19642Y4795D1*
X19559Y4702D1*
X19458Y4629D1*
X19344Y4577D1*
X19223Y4550D1*
X19098D1*
X18975Y4575D1*
X18861Y4624D1*
X18759Y4697D1*
X18657Y4819D1*
X18559Y4702D1*
X18458Y4629D1*
X18344Y4577D1*
X18223Y4550D1*
X18098D1*
X17975Y4575D1*
X17861Y4624D1*
X17757Y4699D1*
X17755Y4547D1*
X16970D1*
X16804Y4377D1*
X20715Y4393D1*
X20718Y5404D1*
X20843D1*
X22556Y19296D2*
X22552Y18234D1*
X22556Y18291D1*
X22562Y18006D1*
X22692D1*
Y19294D1*
X22555D1*
X14581Y10334D2*
X14734Y10234D1*
X14824Y10148D1*
X14900Y10049D1*
X14937Y9984D1*
X15010Y10102D1*
X15093Y10195D1*
X15189Y10274D1*
X15296Y10340D1*
X15411Y10388D1*
X15532Y10420D1*
X15656Y10434D1*
X15780Y10429D1*
X15903Y10406D1*
X16022Y10366D1*
X16133Y10309D1*
X16234Y10236D1*
X16324Y10150D1*
X16400Y10051D1*
X16462Y9942D1*
X16506Y9825D1*
X16533Y9703D1*
X16542Y9579D1*
X16533Y9454D1*
X16514Y9367D1*
X16571Y9411D1*
Y10469D1*
X16414Y10494D1*
X16301Y10548D1*
X16207Y10630D1*
X16133Y10738D1*
X16022Y10681D1*
X15903Y10641D1*
X15781Y10618D1*
X15656Y10614D1*
X15532Y10627D1*
X15411Y10659D1*
X15328Y10694D1*
X15055Y10420D1*
X14947Y10352D1*
X14847Y10333D1*
X14585D1*
X16437Y11876D2*
X16506Y11715D1*
X16533Y11593D1*
X16542Y11469D1*
X16538Y11402D1*
X16615Y11398D1*
X16736Y11366D1*
X16843Y11303D1*
X16930Y11214D1*
X16990Y11104D1*
X17021Y10937D1*
X17015Y10895D1*
X17034Y10876D1*
Y11869D1*
X16444Y11873D1*
X16681Y5746D2*
X16716D1*
X16717Y6238D1*
X16408Y6237D1*
X16412Y5675D1*
X16173D1*
X16225Y5579D1*
X16256Y5412D1*
X16240Y5289D1*
X16226Y5256D1*
X16366Y5260D1*
X16412D1*
Y4820D1*
X16556Y4964D1*
Y5746D1*
X16681D1*
X11924Y14145D2*
X12006Y14225D1*
X12109Y14295D1*
X12224Y14344D1*
X12346Y14370D1*
X12470Y14374D1*
X12488Y14372D1*
X12549Y14490D1*
X12635Y14581D1*
X12741Y14645D1*
X12861Y14679D1*
X12986Y14680D1*
X13106Y14648D1*
X13214Y14585D1*
X13300Y14496D1*
X13361Y14386D1*
X13392Y14219D1*
X13375Y14096D1*
X13326Y13981D1*
X13248Y13883D1*
X13220Y13863D1*
X13222Y12856D1*
X13193Y12731D1*
X13135Y12647D1*
X12951Y12471D1*
Y12463D1*
X17173D1*
Y12498D1*
X15958D1*
X15833Y12526D1*
X15749Y12584D1*
X13443Y14888D1*
X8751D1*
X8777Y14735D1*
X8760Y14612D1*
X8711Y14497D1*
X8634Y14400D1*
X8605Y14379D1*
X8607Y12466D1*
X9826Y12463D1*
X10314D1*
X10269Y12648D1*
X10268Y12772D1*
X10290Y12895D1*
X10335Y13012D1*
X10402Y13117D1*
X10487Y13209D1*
X10587Y13282D1*
X10700Y13336D1*
X10864Y13370D1*
X10794Y13525D1*
X10769Y13648D1*
X10768Y13772D1*
X10790Y13895D1*
X10835Y14012D1*
X10902Y14117D1*
X10987Y14209D1*
X11087Y14282D1*
X11200Y14336D1*
X11321Y14367D1*
X11446Y14375D1*
X11569Y14359D1*
X11688Y14320D1*
X11797Y14259D1*
X11893Y14179D1*
X11925Y14140D1*
X19134Y8197D2*
X19201Y8193D1*
X19491Y8197D1*
X19487Y8545D1*
X19516Y8669D1*
X19574Y8753D1*
X19776Y8955D1*
X19773Y9038D1*
X19800Y9160D1*
X19859Y9270D1*
X19944Y9360D1*
X20062Y9428D1*
X19408D1*
X19278Y9455D1*
X19229Y9341D1*
X19135Y9232D1*
X19133Y8446D1*
Y8200D1*
X19486Y8197D1*
X14482Y6235D2*
Y5675D1*
X13604D1*
X13606Y5260D1*
X14482D1*
Y4584D1*
X15294Y4583D1*
X15291Y5026D1*
Y5260D1*
X15353D1*
X15334Y5327D1*
X15328Y5451D1*
X15355Y5573D1*
X15408Y5673D1*
X15291Y5675D1*
Y6241D1*
X14873Y6237D1*
X14479D1*
X18741Y14902D2*
X18816Y14803D1*
X20324D1*
X20388Y14870D1*
X20494Y14934D1*
X20614Y14968D1*
X20758Y14964D1*
X20778Y14994D1*
X20636Y15000D1*
X18819D1*
X18743Y14903D1*
X16372Y16337D2*
X16356Y16188D1*
X16315Y16044D1*
X16252Y15908D1*
X16167Y15785D1*
X16063Y15677D1*
X15943Y15587D1*
X15810Y15518D1*
X15667Y15472D1*
X15519Y15450D1*
X15369Y15452D1*
X15222Y15479D1*
X15081Y15529D1*
X14950Y15602D1*
X14832Y15695D1*
X14732Y15806D1*
X14651Y15932D1*
X14591Y16069D1*
X14555Y16215D1*
X14543Y16364D1*
X14556Y16513D1*
X14593Y16659D1*
X14653Y16796D1*
X14734Y16922D1*
X14835Y17032D1*
X14953Y17125D1*
X15084Y17197D1*
X15226Y17247D1*
X15373Y17273D1*
X15523Y17274D1*
X15671Y17251D1*
X15813Y17205D1*
X15946Y17135D1*
X16066Y17045D1*
X16169Y16937D1*
X16254Y16813D1*
X16316Y16677D1*
X16356Y16532D1*
X16372Y16383D1*
Y16337D1*
X9500Y5349D2*
D17*
Y4750D1*
X25212Y11700D2*
Y10462D1*
Y9794D2*
Y8556D1*
X16866Y7683D2*
X17484D1*
X25102Y8317D2*
Y7158D1*
X21764Y12958D2*
Y12378D1*
X21145Y12958D2*
X21764D1*
X16134Y14187D2*
Y13568D1*
X15555D2*
X16134D1*
X21469Y16670D2*
Y16091D1*
X25149Y6632D2*
Y5474D1*
X20259Y13071D2*
X20867D1*
X13332Y11467D2*
X14187D1*
X15687Y8544D2*
Y7689D1*
X25026Y5249D2*
Y4650D1*
X9397Y7431D2*
Y6194D1*
X8818Y6813D2*
X9397D1*
X21064Y17690D2*
Y17111D1*
X20445Y17690D2*
X21064D1*
X12424Y14375D2*
Y13717D1*
X21279Y8778D2*
X21878D1*
X15292Y4818D2*
X16411D1*
X17336Y15875D2*
Y15295D1*
X16756D2*
X17336D1*
X20198Y17276D2*
Y16362D1*
X19284D2*
X20198D1*
X15458Y17276D2*
Y15448D1*
X14544Y16362D2*
X16372D1*
D20*
X11500Y4750D3*
D21*
X10500D3*
X9500D3*
X8500D3*
X7500D3*
D22*
X24110Y11081D3*
X25212D3*
X24110Y9175D3*
X25212D3*
D23*
X16866Y7683D3*
Y8786D3*
D24*
X23685Y7737D3*
X25102D3*
D23*
X21764Y14060D3*
Y12958D3*
X22611Y12936D3*
Y14039D3*
X25245Y12900D3*
Y14002D3*
D22*
X16134Y13568D3*
X17236D3*
D24*
X22886Y16091D3*
X21469D3*
X23732Y6053D3*
X25149D3*
D25*
X21338Y4809D3*
X22787D3*
D23*
X21937Y18813D3*
Y17711D3*
D27*
X18259Y12071D3*
D28*
X19259D3*
X20259D3*
Y13071D3*
X19259D3*
X18259D3*
D30*
X14187Y7687D3*
Y9577D3*
Y11467D3*
X15687Y11469D3*
Y9579D3*
Y7689D3*
D20*
X24026Y4650D3*
D21*
X25026D3*
D20*
X17156Y5146D3*
D21*
X18156D3*
X19156D3*
D23*
X24348Y12931D3*
Y14034D3*
D22*
X10500Y6813D3*
X9397D3*
D23*
X21064Y18792D3*
Y17690D3*
X23443Y14035D3*
Y15137D3*
D31*
X12424Y13717D3*
X11924Y12717D3*
X11424Y13717D3*
X10924Y12717D3*
D33*
X21279Y8148D3*
Y8463D3*
Y8778D3*
Y9093D3*
Y9408D3*
Y9723D3*
Y10038D3*
Y10353D3*
D34*
X20727Y10904D3*
X20412D3*
X20097D3*
X19783D3*
X19468D3*
X19153D3*
X18838D3*
X18523D3*
D33*
X17972Y10353D3*
Y10038D3*
Y9723D3*
Y9408D3*
Y9093D3*
Y8778D3*
Y8463D3*
Y8148D3*
D34*
X18523Y7597D3*
X18838D3*
X19153D3*
X19468D3*
X19783D3*
X20097D3*
X20412D3*
X20727D3*
D35*
X13922Y6117D3*
Y4818D3*
X15851D3*
Y6117D3*
D36*
X17336Y14508D3*
D37*
X18320D3*
Y15295D3*
X17336D3*
D38*
X20198Y16362D3*
X15458D3*
D39*
X22756Y11078D3*
Y9178D3*
M02*
