G04 DipTrace 2.4.0.2*
%INBottomMask.gbr*%
%MOIN*%
%ADD41C,0.128*%
%ADD51C,0.0559*%
%ADD53C,0.1378*%
%ADD55C,0.0709*%
%ADD57R,0.0709X0.0709*%
%ADD59R,0.0669X0.0433*%
%ADD65C,0.0866*%
%ADD67C,0.126*%
%ADD69R,0.0315X0.0866*%
%ADD71C,0.0768*%
%ADD73R,0.0768X0.0768*%
%ADD75R,0.063X0.0197*%
%ADD81R,0.0787X0.0709*%
%ADD83R,0.0709X0.0787*%
%ADD85C,0.0748*%
%ADD87R,0.0748X0.0748*%
%ADD89R,0.0945X0.1496*%
%ADD91R,0.0959X0.0559*%
%FSLAX44Y44*%
G04*
G70*
G90*
G75*
G01*
%LNBotMask*%
%LPD*%
D91*
X21687Y6812D3*
Y7718D3*
Y8623D3*
D89*
X24125Y7717D3*
D87*
X11375Y4875D3*
D85*
X10375D3*
X9375D3*
X8375D3*
X7375D3*
D81*
X19687Y7687D3*
Y6585D3*
X19500Y12750D3*
Y13852D3*
D83*
X19687Y11750D3*
X18585D3*
X19687Y10812D3*
X18585D3*
X6437Y13312D3*
X5335D3*
X6249Y7000D3*
X5147D3*
D81*
X5187Y8938D3*
Y7836D3*
D83*
X6437Y14187D3*
X5335D3*
D81*
X7499Y5875D3*
Y6977D3*
X8761Y10511D3*
Y11613D3*
D83*
X7636Y16738D3*
X8738D3*
X5062Y12000D3*
X6164D3*
D75*
X24625Y15437D3*
Y15181D3*
Y14925D3*
Y14669D3*
Y14413D3*
Y14157D3*
Y13902D3*
Y13646D3*
Y13390D3*
Y13134D3*
Y12878D3*
Y12622D3*
Y12366D3*
Y12110D3*
X21554D3*
Y12366D3*
Y12622D3*
Y12878D3*
Y13134D3*
Y13390D3*
Y13646D3*
Y13902D3*
Y14157D3*
Y14413D3*
Y14669D3*
Y14925D3*
Y15181D3*
Y15437D3*
D73*
X21375Y19062D3*
D71*
Y18062D3*
Y17062D3*
X22375D3*
Y18062D3*
Y19062D3*
D69*
X5999Y10875D3*
X6499D3*
X6999D3*
X7499D3*
Y7962D3*
X6999D3*
X6499D3*
X5999D3*
X7312Y15562D3*
X7812D3*
X8312D3*
X8812D3*
Y12649D3*
X8312D3*
X7812D3*
X7312D3*
D67*
X14187Y7687D3*
Y9577D3*
Y11467D3*
X15687Y11469D3*
Y9579D3*
Y7689D3*
D87*
X24939Y4875D3*
D85*
X23939D3*
D87*
X20376Y4812D3*
D85*
X21376D3*
X22376D3*
D83*
X19687Y9750D3*
X18585D3*
D81*
X6511Y15136D3*
Y16238D3*
X5187Y9813D3*
Y10915D3*
D83*
X18607Y8750D3*
X19710D3*
D65*
X12424Y13717D3*
X11924Y12717D3*
X11424Y13717D3*
X10924Y12717D3*
D41*
X10174Y16216D3*
X13174D3*
D59*
X13937Y4812D3*
Y6111D3*
X15866D3*
Y4812D3*
D57*
X17336Y14508D3*
D55*
X18320D3*
Y15295D3*
X17336D3*
D53*
X20198Y16362D3*
X15458D3*
D51*
X24500Y10375D3*
X22600D3*
M02*
