G04 DipTrace 2.4.0.2*
%INBottom.gbr*%
%MOIN*%
%ADD14C,0.006*%
%ADD15C,0.025*%
%ADD16C,0.013*%
%ADD17R,0.088X0.048*%
%ADD18R,0.0866X0.1417*%
%ADD19R,0.0669X0.0669*%
%ADD20C,0.0669*%
%ADD21R,0.063X0.0709*%
%ADD22R,0.0709X0.063*%
%ADD25R,0.0551X0.0118*%
%ADD26R,0.0689X0.0689*%
%ADD27C,0.0689*%
%ADD28R,0.0236X0.0787*%
%ADD29C,0.1181*%
%ADD30C,0.0787*%
%ADD34R,0.0591X0.0354*%
%ADD35R,0.063X0.063*%
%ADD36C,0.063*%
%ADD37C,0.1299*%
%ADD38C,0.048*%
%ADD39C,0.04*%
%FSLAX44Y44*%
G04*
G70*
G90*
G75*
G01*
%LNBottom*%
%LPD*%
X21828Y15775D2*
D14*
Y18609D1*
X21375Y19062D1*
X8812Y15562D2*
Y13819D1*
X8539Y13546D1*
Y12176D1*
X8400Y12037D1*
X8178D1*
X8039Y12176D1*
Y13151D1*
X7539D1*
Y11738D1*
X7499Y11698D1*
Y10875D1*
X21375Y19062D2*
X9301D1*
X9162Y18923D1*
Y16204D1*
X9023Y16065D1*
X8812D1*
Y15562D1*
X5999Y10875D2*
Y11378D1*
X5740D1*
Y10915D1*
X5187D1*
X6511Y16238D2*
X7312D1*
X7636D1*
Y16738D1*
X5187Y10915D2*
X4638D1*
X4499Y10776D1*
Y5000D1*
X5249Y4250D1*
X10750D1*
X11375Y4875D1*
X22375Y19062D2*
X22828Y18609D1*
Y16506D1*
X22514Y16191D1*
Y14732D1*
X22495Y14713D1*
Y14404D1*
X17336Y14508D2*
Y13664D1*
Y11607D1*
X17465Y11478D1*
Y7687D1*
X19762Y4812D2*
X20376D1*
X7312Y15562D2*
Y16238D1*
X5062Y12000D2*
X4911D1*
Y16099D1*
X5050Y16238D1*
X6511D1*
X5187Y10915D2*
Y12000D1*
X5062D1*
X11375Y4875D2*
X11818Y4431D1*
X12750D1*
X12889Y4570D1*
Y7548D1*
X13028Y7687D1*
X14187D1*
X22495Y14404D2*
X22077Y13986D1*
Y13529D1*
X21938Y13390D1*
X21554D1*
X21687Y7718D2*
X23274D1*
Y7717D1*
X24125D1*
X19687Y7687D2*
Y7718D1*
X21687D1*
X17465Y7687D2*
X19687D1*
X15687Y11469D2*
X17197D1*
X17336Y11607D1*
X19687Y7687D2*
X19710D1*
Y8750D1*
X21375Y18062D2*
X9623D1*
X9437Y17876D1*
Y11376D1*
X9125Y11063D1*
X7981D1*
Y10087D1*
X6499Y8605D1*
Y7962D1*
X7981Y11063D2*
X7842Y11202D1*
Y12649D1*
X7812D1*
X21375Y17062D2*
X20921Y17515D1*
X17898D1*
X17759Y17376D1*
Y11888D1*
X17898Y11750D1*
X18585D1*
X21677Y10048D2*
X22015Y9710D1*
X22948D1*
X18607Y8750D2*
X17991D1*
Y9116D1*
X18585Y9750D2*
Y8750D1*
X18607D1*
X18585Y10812D2*
Y9750D1*
Y11750D2*
Y10812D1*
X22495Y13351D2*
Y13017D1*
X22356Y12878D1*
X22077D1*
X21554D1*
X9687Y5875D2*
Y5312D1*
X9250Y4875D1*
X9375D1*
X17336Y15295D2*
Y16223D1*
X17197Y16362D1*
X15458D1*
X19500Y13852D2*
Y14669D1*
X19638Y14808D1*
X20198D1*
Y16362D1*
X15866Y6111D2*
Y5317D1*
X24038Y13321D2*
Y13763D1*
X24177Y13902D1*
X24625D1*
X21554Y12878D2*
X21139D1*
Y13646D1*
X20933Y13852D1*
X19500D1*
X22077Y12878D2*
Y11801D1*
X21938Y11662D1*
X20999D1*
X15458Y16362D2*
Y14848D1*
X14187Y13578D1*
Y11467D1*
X20198Y14808D2*
X20337Y14669D1*
X20861D1*
X21000Y14808D1*
X21117Y14925D1*
X21554D1*
X21000Y14808D2*
X21139Y14669D1*
X21554D1*
X21139Y13646D2*
X21554D1*
X7812Y15562D2*
Y16065D1*
X7951Y16204D1*
X8738D1*
Y16738D1*
X7812Y14650D2*
Y15562D1*
X5335Y14187D2*
Y15421D1*
X5474Y15560D1*
X6974D1*
Y14984D1*
X7308Y14650D1*
X7812D1*
X5335Y13312D2*
Y14187D1*
X6164Y12000D2*
Y12464D1*
X5474D1*
X5335Y12603D1*
Y13312D1*
X6499Y10875D2*
Y11517D1*
X6164D1*
Y12000D1*
X5187Y7836D2*
X4723D1*
Y10237D1*
X6499D1*
Y10875D1*
X5147Y7000D2*
X5187D1*
Y7836D1*
X9375Y4875D2*
X8931Y4431D1*
X5286D1*
X5147Y4570D1*
Y7000D1*
X22487Y6812D2*
X23939Y5360D1*
Y4875D1*
X21687Y6812D2*
X22487D1*
X19687Y6585D2*
X20850D1*
X21078Y6812D1*
X21687D1*
X15866Y6111D2*
Y6446D1*
X16005Y6585D1*
X19687D1*
X15687Y7689D2*
Y6130D1*
X15705Y6111D1*
X15866D1*
X14187Y11467D2*
X14886Y10767D1*
Y7689D1*
X15687D1*
X12424Y13717D2*
X14048D1*
X14187Y13578D1*
X21554Y14925D2*
X21938D1*
X22375Y15362D1*
Y17062D1*
X22600Y10375D2*
X23113Y10888D1*
Y14265D1*
X19687Y9750D2*
Y10812D1*
X22665D1*
X22804Y10951D1*
Y15042D1*
X22943Y15181D1*
X24625D1*
X19500Y12750D2*
Y12622D1*
X21554D1*
X24008Y12438D2*
Y11942D1*
X24147Y11803D1*
X24870D1*
X25009Y11942D1*
Y15437D1*
X24625D1*
X20281Y11968D2*
X20423Y12110D1*
X21554D1*
X16556Y15889D2*
Y12083D1*
X18320Y15889D2*
Y15295D1*
Y14508D2*
Y12416D1*
X18459Y12277D1*
X20205D1*
X20294Y12366D1*
X21554D1*
X23287Y10049D2*
X23422Y10184D1*
Y14274D1*
X23561Y14413D1*
X24625D1*
X24500Y10375D2*
X25318D1*
X25457Y10513D1*
Y15097D1*
X19687Y11750D2*
X19263D1*
Y9213D1*
X23457D1*
X23596Y9352D1*
Y12739D1*
X23735Y12878D1*
X24625D1*
X6999Y7962D2*
Y7402D1*
X6911D1*
X6772Y7263D1*
Y7000D1*
X6249D1*
X8312Y12649D2*
Y13173D1*
X8173Y13312D1*
X6437D1*
X5187Y9813D2*
Y8938D1*
X5860D1*
X5999Y8799D1*
Y7962D1*
X6437Y14187D2*
X6013D1*
Y12849D1*
X6861D1*
Y13012D1*
X7000Y13151D1*
X7312D1*
Y12649D1*
X6511Y15136D2*
X6437D1*
Y14187D1*
X8812Y12649D2*
X8761D1*
Y11613D1*
X7499Y7962D2*
Y7402D1*
Y6977D1*
X6999Y10875D2*
Y11976D1*
X8312Y14528D2*
Y15562D1*
X7499Y5875D2*
Y4875D1*
X7375D1*
X16695Y9579D2*
X15687D1*
X24323Y15775D2*
X25009D1*
X25148Y15636D1*
Y11725D1*
X24147Y10723D1*
Y9887D1*
X25382Y8651D1*
Y4443D1*
X25189Y4250D1*
X22189D1*
X21819Y4619D1*
Y5117D1*
X21680Y5256D1*
X18617D1*
X17799Y4437D1*
X16063D1*
X15866Y4634D1*
Y4812D1*
X15153D1*
X8375Y4875D2*
Y6904D1*
X8761Y7290D1*
Y10511D1*
X11924Y12717D2*
X11422Y12214D1*
X10422D1*
X10283Y12353D1*
Y13578D1*
X10422Y13717D1*
X11424D1*
X11988Y4763D2*
X11924Y4827D1*
Y12717D1*
X22376Y4812D2*
X22813Y4375D1*
X24189D1*
X24382Y4568D1*
Y5763D1*
X24805Y6186D1*
Y8484D1*
X24666Y8623D1*
X21687D1*
X21376Y4812D2*
X20813Y4250D1*
X14875D1*
X14327Y4798D1*
X14480Y4951D1*
Y6797D1*
X14341Y6936D1*
X13572D1*
X13937Y4812D2*
X14327Y4798D1*
D39*
X21828Y15775D3*
X19762Y4812D3*
X17336Y13664D3*
X17465Y7687D3*
X22495Y14404D3*
X22948Y9710D3*
X21677Y10048D3*
X17991Y9116D3*
X7812Y14650D3*
X15866Y5317D3*
X20999Y11662D3*
X9687Y5875D3*
X22487Y6812D3*
X24038Y13321D3*
X22495Y13351D3*
X23113Y14265D3*
X24008Y12438D3*
X20281Y11968D3*
X16556Y12083D3*
Y15889D3*
X18320D3*
X23287Y10049D3*
X25457Y15097D3*
X6999Y11976D3*
X8312Y14528D3*
X16695Y9579D3*
X15153Y4812D3*
X24323Y15775D3*
X11988Y4763D3*
X13572Y6936D3*
X7151Y18940D2*
D15*
X8843D1*
X7151Y18692D2*
X8843D1*
X9483D2*
X20742D1*
X7151Y18443D2*
X8843D1*
X9483D2*
X20875D1*
X7151Y18194D2*
X8843D1*
X7151Y17945D2*
X8843D1*
X7151Y17697D2*
X8843D1*
X9757D2*
X17636D1*
X7151Y17448D2*
X8843D1*
X9757D2*
X17449D1*
X9757Y17199D2*
X15066D1*
X15850D2*
X17441D1*
X18081D2*
X19804D1*
X10729Y16951D2*
X12621D1*
X13729D2*
X14734D1*
X16182D2*
X17441D1*
X18081D2*
X19472D1*
X10964Y16702D2*
X12386D1*
X13964D2*
X14585D1*
X16331D2*
X17441D1*
X18081D2*
X19324D1*
X11073Y16453D2*
X12277D1*
X14073D2*
X14523D1*
X16393D2*
X17441D1*
X18081D2*
X19261D1*
X21132D2*
X21324D1*
X21428D2*
X21506D1*
X11104Y16205D2*
X12246D1*
X14104D2*
X14531D1*
X16921D2*
X17441D1*
X18686D2*
X19273D1*
X21124D2*
X21507D1*
X11065Y15956D2*
X12285D1*
X14065D2*
X14613D1*
X17042D2*
X17441D1*
X18803D2*
X19355D1*
X21042D2*
X21375D1*
X22835D2*
X23871D1*
X25268D2*
X25539D1*
X5229Y15707D2*
X5867D1*
X10948D2*
X12402D1*
X13948D2*
X14796D1*
X18772D2*
X19535D1*
X20862D2*
X20988D1*
X22835D2*
X23839D1*
X25460D2*
X25537D1*
X5229Y15459D2*
X5867D1*
X10694D2*
X12656D1*
X13694D2*
X15293D1*
X15624D2*
X16238D1*
X18901D2*
X20035D1*
X20362D2*
X20988D1*
X5229Y15210D2*
X5867D1*
X9757D2*
X16238D1*
X18917D2*
X20988D1*
X5229Y14961D2*
X5867D1*
X9757D2*
X16238D1*
X18819D2*
X20988D1*
X7155Y14713D2*
X7859D1*
X9757D2*
X16238D1*
X18885D2*
X20988D1*
X23264D2*
X24058D1*
X7042Y14464D2*
X7828D1*
X9757D2*
X16238D1*
X18925D2*
X20988D1*
X7042Y14215D2*
X7945D1*
X9757D2*
X10968D1*
X11878D2*
X11967D1*
X12878D2*
X16238D1*
X20143D2*
X20988D1*
X7042Y13966D2*
X8492D1*
X9757D2*
X10242D1*
X13057D2*
X16238D1*
X18639D2*
X18855D1*
X20143D2*
X20988D1*
X23741D2*
X24058D1*
X7042Y13718D2*
X8273D1*
X9757D2*
X10000D1*
X13108D2*
X16238D1*
X18639D2*
X18855D1*
X20143D2*
X20988D1*
X22397D2*
X22484D1*
X23741D2*
X24058D1*
X8905Y13469D2*
X9117D1*
X9757D2*
X9964D1*
X13061D2*
X16238D1*
X18639D2*
X18855D1*
X20143D2*
X20988D1*
X22389D2*
X22484D1*
X23741D2*
X24058D1*
X9757Y13220D2*
X9964D1*
X12882D2*
X16238D1*
X16878D2*
X17015D1*
X18639D2*
X18855D1*
X20143D2*
X20988D1*
X22210D2*
X22484D1*
X23741D2*
X24058D1*
X9757Y12972D2*
X9964D1*
X12557D2*
X16238D1*
X16878D2*
X17015D1*
X18639D2*
X18855D1*
X20143D2*
X20988D1*
X22120D2*
X22484D1*
X9757Y12723D2*
X9964D1*
X12608D2*
X16238D1*
X16878D2*
X17015D1*
X18639D2*
X18855D1*
X22120D2*
X22484D1*
X9757Y12474D2*
X9964D1*
X12561D2*
X16238D1*
X16878D2*
X17015D1*
X22120D2*
X22484D1*
X9757Y12226D2*
X9992D1*
X12389D2*
X13769D1*
X14608D2*
X15265D1*
X22120D2*
X22484D1*
X9757Y11977D2*
X10222D1*
X12245D2*
X13476D1*
X14897D2*
X14976D1*
X22120D2*
X22484D1*
X9757Y11728D2*
X11605D1*
X12245D2*
X13347D1*
X20702D2*
X22484D1*
X9757Y11480D2*
X11605D1*
X12245D2*
X13308D1*
X20292D2*
X22484D1*
X23917D2*
X24460D1*
X9718Y11231D2*
X11605D1*
X12245D2*
X13339D1*
X17784D2*
X17980D1*
X20292D2*
X22484D1*
X23917D2*
X24210D1*
X9487Y10982D2*
X11605D1*
X12245D2*
X13457D1*
X16417D2*
X17144D1*
X17784D2*
X17980D1*
X24846D2*
X25136D1*
X9405Y10734D2*
X11605D1*
X12245D2*
X13722D1*
X14651D2*
X15226D1*
X16151D2*
X17144D1*
X17784D2*
X17980D1*
X24878D2*
X25136D1*
X9405Y10485D2*
X11605D1*
X12245D2*
X17144D1*
X17784D2*
X17980D1*
X20292D2*
X21492D1*
X21862D2*
X22082D1*
X9405Y10236D2*
X11605D1*
X12245D2*
X13617D1*
X14757D2*
X15117D1*
X16260D2*
X17144D1*
X17784D2*
X17980D1*
X20292D2*
X21226D1*
X5831Y9987D2*
X7441D1*
X9405D2*
X11605D1*
X12245D2*
X13414D1*
X16940D2*
X17144D1*
X17784D2*
X17980D1*
X20292D2*
X21191D1*
X24850D2*
X25539D1*
X5831Y9739D2*
X7191D1*
X8073D2*
X8441D1*
X9081D2*
X11605D1*
X12245D2*
X13324D1*
X17784D2*
X17980D1*
X20292D2*
X21304D1*
X24737D2*
X25539D1*
X5831Y9490D2*
X6941D1*
X7827D2*
X8441D1*
X9081D2*
X11605D1*
X12245D2*
X13312D1*
X23917D2*
X24101D1*
X24987D2*
X25539D1*
X5831Y9241D2*
X6695D1*
X7577D2*
X8441D1*
X9081D2*
X11605D1*
X12245D2*
X13375D1*
X17042D2*
X17148D1*
X23893D2*
X24351D1*
X25233D2*
X25539D1*
X6245Y8993D2*
X6445D1*
X7327D2*
X8441D1*
X9081D2*
X11605D1*
X12245D2*
X13539D1*
X14839D2*
X15039D1*
X16335D2*
X17144D1*
X23678D2*
X24597D1*
X7081Y8744D2*
X8441D1*
X9081D2*
X11605D1*
X12245D2*
X13968D1*
X14409D2*
X15476D1*
X15897D2*
X17144D1*
X20315D2*
X20957D1*
X7909Y8495D2*
X8441D1*
X9081D2*
X11605D1*
X12245D2*
X13882D1*
X14491D2*
X15378D1*
X15999D2*
X17144D1*
X20315D2*
X20957D1*
X7909Y8247D2*
X8441D1*
X9081D2*
X11605D1*
X12245D2*
X13515D1*
X14858D2*
X15015D1*
X16362D2*
X17144D1*
X17784D2*
X18003D1*
X20331D2*
X20957D1*
X22417D2*
X23402D1*
X7909Y7998D2*
X8441D1*
X9081D2*
X11605D1*
X12245D2*
X13367D1*
X16510D2*
X17093D1*
X17835D2*
X19043D1*
X7909Y7749D2*
X8441D1*
X9081D2*
X11605D1*
X12245D2*
X12648D1*
X16565D2*
X16980D1*
X8143Y7501D2*
X8441D1*
X9081D2*
X11605D1*
X12245D2*
X12570D1*
X16546D2*
X17015D1*
X8143Y7252D2*
X8281D1*
X9077D2*
X11605D1*
X12245D2*
X12570D1*
X16448D2*
X17277D1*
X17655D2*
X19043D1*
X20331D2*
X20957D1*
X22417D2*
X23402D1*
X8917Y7003D2*
X11605D1*
X12245D2*
X12570D1*
X14725D2*
X15152D1*
X16221D2*
X19043D1*
X20331D2*
X20957D1*
X22417D2*
X23402D1*
X8694Y6755D2*
X11605D1*
X12245D2*
X12570D1*
X14800D2*
X19043D1*
X20331D2*
X20957D1*
X22417D2*
X23402D1*
X8694Y6506D2*
X11605D1*
X12245D2*
X12570D1*
X13210D2*
X13351D1*
X14800D2*
X15281D1*
X16452D2*
X19043D1*
X20331D2*
X20957D1*
X22417D2*
X24484D1*
X4819Y6257D2*
X6855D1*
X8694D2*
X11605D1*
X12245D2*
X12570D1*
X13210D2*
X13351D1*
X14800D2*
X15281D1*
X16452D2*
X19043D1*
X20331D2*
X24433D1*
X4819Y6008D2*
X6855D1*
X8694D2*
X11605D1*
X12245D2*
X12570D1*
X13210D2*
X13351D1*
X14800D2*
X15281D1*
X16452D2*
X19043D1*
X20331D2*
X24187D1*
X4819Y5760D2*
X6855D1*
X8694D2*
X11605D1*
X12245D2*
X12570D1*
X13210D2*
X13351D1*
X14800D2*
X15281D1*
X16452D2*
X24062D1*
X24823D2*
X25062D1*
X4819Y5511D2*
X6855D1*
X8694D2*
X11605D1*
X12245D2*
X12570D1*
X13210D2*
X14160D1*
X14800D2*
X18445D1*
X21854D2*
X24062D1*
X24702D2*
X25062D1*
X4819Y5262D2*
X6894D1*
X12245D2*
X12570D1*
X13210D2*
X14160D1*
X14800D2*
X15015D1*
X15292D2*
X18183D1*
X22796D2*
X23457D1*
X4928Y5014D2*
X6765D1*
X12405D2*
X12572D1*
X13210D2*
X13351D1*
X16452D2*
X17933D1*
X22964D2*
X23332D1*
X5175Y4765D2*
X6761D1*
X12479D2*
X12570D1*
X13210D2*
X13351D1*
X16452D2*
X17683D1*
X18569D2*
X19277D1*
X22999D2*
X23324D1*
X13206Y4516D2*
X13351D1*
X22392Y7317D2*
Y6307D1*
X20982D1*
Y7420D1*
X20308Y7422D1*
X20306Y7107D1*
Y6005D1*
X19068D1*
Y7392D1*
X17824D1*
X17787Y7351D1*
X17686Y7278D1*
X17569Y7234D1*
X17445Y7223D1*
X17322Y7244D1*
X17210Y7298D1*
X17116Y7380D1*
X17047Y7484D1*
X17008Y7602D1*
X17002Y7726D1*
X17029Y7848D1*
X17087Y7958D1*
X17170Y8046D1*
Y11175D1*
X16490Y11173D1*
X16400Y10996D1*
X16324Y10898D1*
X16234Y10811D1*
X16133Y10738D1*
X16022Y10681D1*
X15903Y10641D1*
X15781Y10618D1*
X15656Y10614D1*
X15532Y10627D1*
X15411Y10659D1*
X15296Y10708D1*
X15189Y10773D1*
X15093Y10853D1*
X15010Y10946D1*
X14939Y11053D1*
X14841Y10915D1*
X14734Y10809D1*
X14611Y10724D1*
X14475Y10661D1*
X14330Y10623D1*
X14181Y10611D1*
X14032Y10625D1*
X13887Y10665D1*
X13752Y10730D1*
X13630Y10817D1*
X13525Y10924D1*
X13441Y11048D1*
X13379Y11184D1*
X13343Y11330D1*
X13332Y11479D1*
X13347Y11628D1*
X13388Y11772D1*
X13454Y11907D1*
X13542Y12028D1*
X13649Y12132D1*
X13774Y12216D1*
X13911Y12276D1*
X14056Y12312D1*
X14206Y12322D1*
X14355Y12305D1*
X14498Y12263D1*
X14633Y12197D1*
X14753Y12108D1*
X14856Y11999D1*
X14936Y11879D1*
X15010Y11991D1*
X15093Y12084D1*
X15189Y12164D1*
X15296Y12229D1*
X15411Y12278D1*
X15532Y12310D1*
X15656Y12323D1*
X15780Y12319D1*
X15903Y12296D1*
X16022Y12256D1*
X16108Y12211D1*
X16179Y12354D1*
X16261Y12442D1*
Y15532D1*
X16207Y15582D1*
X16138Y15686D1*
X16122Y15734D1*
X16005Y15629D1*
X15878Y15550D1*
X15740Y15492D1*
X15594Y15458D1*
X15444Y15448D1*
X15295Y15462D1*
X15150Y15501D1*
X15014Y15563D1*
X14889Y15646D1*
X14780Y15748D1*
X14689Y15867D1*
X14618Y15999D1*
X14570Y16141D1*
X14546Y16289D1*
Y16439D1*
X14571Y16587D1*
X14620Y16729D1*
X14691Y16860D1*
X14782Y16979D1*
X14892Y17081D1*
X15017Y17164D1*
X15154Y17225D1*
X15299Y17263D1*
X15448Y17277D1*
X15598Y17266D1*
X15743Y17231D1*
X15881Y17173D1*
X16008Y17093D1*
X16120Y16993D1*
X16214Y16876D1*
X16288Y16746D1*
X16339Y16605D1*
X16367Y16458D1*
X16371Y16315D1*
X16491Y16349D1*
X16615Y16350D1*
X16736Y16318D1*
X16843Y16255D1*
X16930Y16166D1*
X16990Y16056D1*
X17021Y15889D1*
X17005Y15769D1*
X17086Y15819D1*
X17204Y15860D1*
X17328Y15875D1*
X17452Y15863D1*
X17465Y15860D1*
X17464Y17376D1*
X17493Y17501D1*
X17551Y17585D1*
X17736Y17760D1*
X17375Y17767D1*
X9743Y17765D1*
X9732Y17751D1*
Y17005D1*
X9914Y17083D1*
X10036Y17111D1*
X10161Y17121D1*
X10285Y17114D1*
X10408Y17090D1*
X10526Y17050D1*
X10638Y16993D1*
X10740Y16922D1*
X10832Y16837D1*
X10911Y16741D1*
X10976Y16634D1*
X11026Y16520D1*
X11060Y16399D1*
X11079Y16216D1*
X11070Y16092D1*
X11044Y15970D1*
X11002Y15852D1*
X10944Y15741D1*
X10871Y15640D1*
X10785Y15549D1*
X10688Y15472D1*
X10580Y15408D1*
X10465Y15360D1*
X10344Y15328D1*
X10220Y15313D1*
X10095Y15315D1*
X9972Y15335D1*
X9852Y15371D1*
X9729Y15430D1*
X9732Y14626D1*
Y11376D1*
X9704Y11251D1*
X9646Y11167D1*
X9379Y10900D1*
X9380Y9931D1*
X9056D1*
Y7290D1*
X9027Y7166D1*
X8969Y7081D1*
X8670Y6779D1*
Y5400D1*
X8765Y5330D1*
X8851Y5240D1*
X8873Y5203D1*
X8948Y5296D1*
X9044Y5375D1*
X9155Y5433D1*
X9275Y5466D1*
X9399Y5474D1*
X9523Y5456D1*
X9640Y5413D1*
X9746Y5346D1*
X9835Y5259D1*
X9875Y5206D1*
X9966Y5313D1*
X10065Y5388D1*
X10178Y5441D1*
X10300Y5470D1*
X10424Y5472D1*
X10547Y5449D1*
X10662Y5401D1*
X10773Y5322D1*
X10775Y5474D1*
X11631D1*
X11629Y12003D1*
X11588Y11970D1*
X11473Y11923D1*
X11172Y11919D1*
X10422D1*
X10297Y11947D1*
X10213Y12005D1*
X10074Y12144D1*
X10006Y12252D1*
X9988Y12353D1*
Y13578D1*
X10016Y13702D1*
X10074Y13786D1*
X10213Y13925D1*
X10321Y13993D1*
X10422Y14012D1*
X10835D1*
X10902Y14117D1*
X10987Y14209D1*
X11087Y14282D1*
X11200Y14336D1*
X11321Y14367D1*
X11446Y14375D1*
X11569Y14359D1*
X11688Y14320D1*
X11797Y14259D1*
X11893Y14179D1*
X11925Y14140D1*
X11968Y14192D1*
X12066Y14269D1*
X12177Y14327D1*
X12296Y14363D1*
X12421Y14375D1*
X12545Y14364D1*
X12665Y14330D1*
X12776Y14273D1*
X12875Y14197D1*
X12957Y14103D1*
X13021Y13996D1*
X13063Y13878D1*
X13082Y13755D1*
X13075Y13617D1*
X13045Y13496D1*
X12992Y13383D1*
X12919Y13282D1*
X12828Y13196D1*
X12723Y13129D1*
X12606Y13084D1*
X12486Y13061D1*
X12531Y12973D1*
X12568Y12854D1*
X12583Y12717D1*
X12571Y12592D1*
X12536Y12472D1*
X12479Y12361D1*
X12402Y12263D1*
X12308Y12181D1*
X12217Y12128D1*
X12219Y10842D1*
Y5166D1*
X12275Y5129D1*
X12362Y5039D1*
X12422Y4930D1*
X12453Y4763D1*
X12448Y4728D1*
X12596Y4726D1*
X12594Y7548D1*
X12622Y7672D1*
X12680Y7757D1*
X12819Y7896D1*
X12927Y7964D1*
X13028Y7982D1*
X13383D1*
X13441Y8106D1*
X13510Y8210D1*
X13593Y8303D1*
X13689Y8383D1*
X13796Y8448D1*
X13911Y8497D1*
X14032Y8528D1*
X14156Y8542D1*
X14280Y8537D1*
X14403Y8515D1*
X14522Y8474D1*
X14633Y8417D1*
X14734Y8345D1*
X14824Y8258D1*
X14900Y8159D1*
X14937Y8094D1*
X14980Y8171D1*
X15075Y8287D1*
X15189Y8385D1*
X15318Y8461D1*
X15458Y8513D1*
X15606Y8541D1*
X15756Y8542D1*
X15903Y8517D1*
X16044Y8466D1*
X16174Y8392D1*
X16290Y8296D1*
X16386Y8182D1*
X16462Y8052D1*
X16513Y7911D1*
X16539Y7764D1*
Y7614D1*
X16513Y7467D1*
X16462Y7326D1*
X16386Y7196D1*
X16290Y7082D1*
X16175Y6986D1*
X16044Y6912D1*
X15903Y6861D1*
X15756Y6836D1*
X15606Y6837D1*
X15459Y6865D1*
X15318Y6917D1*
X15189Y6993D1*
X15076Y7091D1*
X14981Y7207D1*
X14938Y7276D1*
X14824Y7116D1*
X14693Y7000D1*
X14724Y6963D1*
X14771Y6848D1*
X14775Y6547D1*
Y5083D1*
X14861Y5174D1*
X14968Y5238D1*
X15087Y5272D1*
X15212Y5273D1*
X15306Y5254D1*
X16426D1*
Y4735D1*
X17676Y4732D1*
X18409Y5464D1*
X18517Y5532D1*
X18617Y5551D1*
X21680D1*
X21805Y5523D1*
X21889Y5465D1*
X22030Y5322D1*
X22066Y5326D1*
X22179Y5379D1*
X22301Y5407D1*
X22425Y5410D1*
X22548Y5387D1*
X22663Y5339D1*
X22766Y5268D1*
X22852Y5177D1*
X22917Y5071D1*
X22959Y4953D1*
X22975Y4812D1*
X22956Y4670D1*
X23375D1*
X23345Y4792D1*
X23341Y4916D1*
X23362Y5039D1*
X23409Y5155D1*
X23478Y5259D1*
X23568Y5346D1*
X23673Y5412D1*
X23790Y5456D1*
X23913Y5474D1*
X24038Y5466D1*
X24088Y5456D1*
X24087Y5763D1*
X24116Y5887D1*
X24174Y5972D1*
X24510Y6311D1*
Y6745D1*
X23427Y6744D1*
Y7420D1*
X22899Y7422D1*
X22395D1*
X22388Y7213D1*
X22391Y8222D2*
X22392Y8015D1*
X23274Y8013D1*
X23427Y8012D1*
Y8326D1*
X22389Y8328D1*
X22388Y8118D1*
X20982Y8013D2*
X20986Y8222D1*
X20982Y8493D1*
Y8919D1*
X20289Y8918D1*
X20290Y8263D1*
X20306Y8267D1*
X20312Y8013D1*
X20980D1*
X20982Y8243D1*
X6876Y4547D2*
X6830Y4624D1*
X6790Y4742D1*
X6775Y4866D1*
X6787Y4991D1*
X6823Y5110D1*
X6884Y5219D1*
X6948Y5292D1*
X6880Y5295D1*
X6884Y6455D1*
X6880Y6397D1*
Y6729D1*
X6856Y6718D1*
X6829Y6620D1*
Y6381D1*
X5669Y6385D1*
X5652Y6381D1*
X4793D1*
X4796Y5120D1*
X5374Y4545D1*
X6878D1*
X19068Y8107D2*
X19062Y8130D1*
X18027D1*
Y8454D1*
X17870Y8481D1*
X17768Y8558D1*
X17760Y8353D1*
Y8045D1*
X17840Y7982D1*
X19068D1*
Y8107D1*
X20115Y13329D2*
X20119Y13079D1*
X20125Y12917D1*
X21013Y12923D1*
X21017Y12946D1*
X21013Y13029D1*
X21017Y13714D1*
X21013Y13797D1*
X21017Y14481D1*
X21013Y14470D1*
Y15761D1*
X21361D1*
X21392Y15936D1*
X21450Y16046D1*
X21533Y16134D1*
Y16474D1*
X21457Y16458D1*
X21332Y16454D1*
X21209Y16476D1*
X21097Y16520D1*
X21111Y16408D1*
X21107Y16262D1*
X21078Y16115D1*
X21026Y15975D1*
X20952Y15845D1*
X20857Y15729D1*
X20745Y15629D1*
X20618Y15550D1*
X20480Y15492D1*
X20334Y15458D1*
X20184Y15448D1*
X20035Y15462D1*
X19890Y15501D1*
X19754Y15563D1*
X19629Y15646D1*
X19520Y15748D1*
X19429Y15867D1*
X19358Y15999D1*
X19310Y16141D1*
X19286Y16289D1*
X19287Y16439D1*
X19311Y16587D1*
X19360Y16729D1*
X19431Y16860D1*
X19523Y16979D1*
X19632Y17081D1*
X19757Y17164D1*
X19882Y17220D1*
X18058D1*
X18054Y16376D1*
Y16271D1*
X18134Y16315D1*
X18254Y16349D1*
X18379Y16350D1*
X18499Y16318D1*
X18607Y16255D1*
X18694Y16166D1*
X18754Y16056D1*
X18785Y15889D1*
X18768Y15765D1*
X18739Y15697D1*
X18839Y15554D1*
X18882Y15437D1*
X18900Y15295D1*
X18886Y15171D1*
X18847Y15053D1*
X18783Y14946D1*
X18743Y14903D1*
X18839Y14767D1*
X18882Y14650D1*
X18900Y14508D1*
X18892Y14434D1*
X19205Y14432D1*
X20119D1*
X20118Y13272D1*
X18880Y12572D2*
X18884Y13329D1*
X18880Y13347D1*
Y14359D1*
X18847Y14266D1*
X18783Y14158D1*
X18697Y14068D1*
X18615Y14008D1*
Y12574D1*
X18877Y12572D1*
X20267Y11505D2*
X20263Y11130D1*
X20267Y11181D1*
Y11107D1*
X22511D1*
X22509Y13576D1*
Y13939D1*
X22449Y13945D1*
X22372Y13861D1*
Y13529D1*
X22344Y13404D1*
X22286Y13320D1*
X22101Y13145D1*
X22094Y13102D1*
X22090Y12042D1*
X22094Y11934D1*
Y11786D1*
X21013D1*
Y11814D1*
X20722Y11815D1*
X20680Y11730D1*
X20602Y11633D1*
X20502Y11559D1*
X20385Y11515D1*
X20265Y11504D1*
X20267Y11181D1*
X18006Y11130D2*
X18009Y11431D1*
X17960Y11454D1*
X17898D1*
X17774Y11483D1*
X17760Y11478D1*
Y9521D1*
X17925Y9577D1*
X18007D1*
X18005Y10369D1*
Y11431D1*
X20267Y10513D2*
X20263Y10193D1*
X20267Y10244D1*
Y9505D1*
X21798Y9508D1*
X21657Y9584D1*
X21534Y9606D1*
X21422Y9659D1*
X21328Y9741D1*
X21259Y9845D1*
X21220Y9963D1*
X21213Y10088D1*
X21240Y10209D1*
X21299Y10319D1*
X21385Y10410D1*
X21491Y10475D1*
X21611Y10509D1*
X21736Y10510D1*
X21856Y10477D1*
X21963Y10414D1*
X22050Y10325D1*
X22110Y10216D1*
X22142Y10048D1*
X22140Y10005D1*
X22253D1*
X22202Y10063D1*
X22138Y10169D1*
X22102Y10289D1*
X22096Y10413D1*
X22117Y10516D1*
X20271Y10517D1*
X20267Y10244D1*
X7016Y13931D2*
X7017Y13607D1*
X8228Y13602D1*
X8249Y13601D1*
X8297Y13715D1*
X8515Y13940D1*
X8517Y14112D1*
X8416Y14075D1*
X8292Y14063D1*
X8170Y14085D1*
X8057Y14139D1*
X7963Y14221D1*
X7894Y14324D1*
X7855Y14443D1*
X7849Y14567D1*
X7876Y14689D1*
X7934Y14799D1*
X8017Y14887D1*
Y14907D1*
X7820Y14903D1*
X7129D1*
X7130Y14556D1*
X7017D1*
Y13607D1*
X5803Y9518D2*
X5806Y9233D1*
X5860D1*
X5985Y9205D1*
X6069Y9147D1*
X6208Y9008D1*
X6276Y8900D1*
X6290Y8849D1*
X6379Y8902D1*
X7686Y10216D1*
X7116Y10221D1*
X7007Y10217D1*
X6616Y10221D1*
X6532Y10217D1*
X5808D1*
X5806Y9233D1*
X5857Y14803D2*
X5880Y14806D1*
X5891D1*
X5895Y15716D1*
X5892Y15658D1*
X5886Y15943D1*
X5202D1*
X5206Y15224D1*
Y14806D1*
X5880D1*
X7884Y7557D2*
X8119D1*
Y7053D1*
X8166Y7113D1*
X8466Y7415D1*
Y9934D1*
X8230Y9931D1*
X8190Y9878D1*
X6933Y8622D1*
X7382Y8617D1*
X7491Y8621D1*
X7882D1*
Y7554D1*
X7122Y17357D2*
X8216Y17354D1*
X8233Y17357D1*
X8867D1*
Y18923D1*
X8895Y19047D1*
X8953Y19132D1*
X9011Y19190D1*
X7124Y19189D1*
Y17357D1*
X4501Y12620D2*
X4616Y12625D1*
X4621Y16154D1*
X4624Y16189D1*
X4499D1*
Y12622D1*
X24087Y14857D2*
X24084Y14884D1*
X23500Y14886D1*
X23097D1*
X23099Y14734D1*
X23172Y14727D1*
X23292Y14694D1*
X23376Y14645D1*
X23509Y14704D1*
X23811Y14708D1*
X24084Y14714D1*
X24088Y14737D1*
X24084Y14851D1*
X24087Y13322D2*
X24084Y13970D1*
X24000Y14118D1*
X23714D1*
X23717Y13169D1*
X23985Y13173D1*
X24084Y13179D1*
X24088Y13202D1*
X24084Y13316D1*
X24087Y13834D1*
X24084Y14084D1*
Y14103D1*
X22094Y15392D2*
X22090Y14857D1*
X22218D1*
Y15525D1*
X22150Y15439D1*
X22096Y15400D1*
X22094Y15113D1*
Y14631D1*
X22117Y14675D1*
X22206Y14768D1*
X22218Y14815D1*
X20910Y18453D2*
X20765D1*
Y18769D1*
X19125Y18767D1*
X9457D1*
Y18302D1*
X9522Y18339D1*
X9623Y18357D1*
X20838D1*
X20910Y18452D1*
X8831Y13307D2*
X9144D1*
X9142Y14903D1*
X9107Y14812D1*
Y13819D1*
X9079Y13695D1*
X9021Y13610D1*
X8834Y13421D1*
Y13308D1*
X14937Y9169D2*
X14900Y9105D1*
X14824Y9006D1*
X14734Y8919D1*
X14633Y8847D1*
X14522Y8789D1*
X14403Y8749D1*
X14281Y8726D1*
X14156Y8722D1*
X14032Y8736D1*
X13911Y8767D1*
X13796Y8816D1*
X13689Y8881D1*
X13593Y8961D1*
X13510Y9054D1*
X13441Y9158D1*
X13388Y9271D1*
X13352Y9391D1*
X13334Y9514D1*
Y9639D1*
X13352Y9763D1*
X13388Y9882D1*
X13441Y9995D1*
X13510Y10100D1*
X13593Y10193D1*
X13689Y10272D1*
X13796Y10338D1*
X13911Y10386D1*
X14032Y10418D1*
X14156Y10432D1*
X14280Y10427D1*
X14403Y10404D1*
X14522Y10364D1*
X14633Y10307D1*
X14734Y10234D1*
X14824Y10148D1*
X14900Y10049D1*
X14937Y9984D1*
X15010Y10102D1*
X15093Y10195D1*
X15189Y10274D1*
X15296Y10340D1*
X15411Y10388D1*
X15532Y10420D1*
X15656Y10434D1*
X15780Y10429D1*
X15903Y10406D1*
X16022Y10366D1*
X16133Y10309D1*
X16234Y10236D1*
X16324Y10150D1*
X16400Y10051D1*
X16444Y9973D1*
X16510Y10005D1*
X16630Y10039D1*
X16754Y10040D1*
X16875Y10008D1*
X16982Y9945D1*
X17069Y9855D1*
X17129Y9746D1*
X17160Y9579D1*
X17143Y9455D1*
X17095Y9341D1*
X17017Y9243D1*
X16916Y9170D1*
X16800Y9126D1*
X16676Y9114D1*
X16553Y9136D1*
X16444Y9188D1*
X16400Y9107D1*
X16324Y9008D1*
X16234Y8921D1*
X16133Y8849D1*
X16022Y8791D1*
X15903Y8751D1*
X15781Y8728D1*
X15656Y8724D1*
X15532Y8737D1*
X15411Y8769D1*
X15296Y8818D1*
X15189Y8883D1*
X15093Y8963D1*
X15010Y9056D1*
X14939Y9164D1*
X24679Y5474D2*
X25085D1*
X25087Y6096D1*
X25047Y6017D1*
X24837Y5801D1*
X24677Y5638D1*
Y5478D1*
X14070Y16092D2*
X14044Y15970D1*
X14002Y15852D1*
X13944Y15742D1*
X13871Y15640D1*
X13785Y15549D1*
X13688Y15472D1*
X13580Y15408D1*
X13465Y15360D1*
X13344Y15328D1*
X13220Y15313D1*
X13095Y15315D1*
X12972Y15335D1*
X12852Y15371D1*
X12739Y15423D1*
X12634Y15491D1*
X12539Y15572D1*
X12456Y15666D1*
X12387Y15770D1*
X12333Y15882D1*
X12295Y16001D1*
X12274Y16124D1*
X12270Y16249D1*
X12283Y16373D1*
X12313Y16495D1*
X12360Y16611D1*
X12422Y16719D1*
X12498Y16818D1*
X12587Y16905D1*
X12688Y16979D1*
X12798Y17039D1*
X12914Y17083D1*
X13036Y17111D1*
X13161Y17121D1*
X13285Y17114D1*
X13408Y17090D1*
X13526Y17050D1*
X13638Y16993D1*
X13740Y16922D1*
X13832Y16837D1*
X13911Y16741D1*
X13976Y16634D1*
X14026Y16520D1*
X14060Y16399D1*
X14079Y16216D1*
X14070Y16092D1*
X13502Y5254D2*
X14185D1*
Y5666D1*
X13497Y5669D1*
X13377D1*
Y6517D1*
X13317Y6547D1*
X13223Y6629D1*
X13182Y6690D1*
X13184Y4570D1*
X13156Y4446D1*
X13177Y4512D1*
X13249Y4437D1*
X13378D1*
X13377Y5254D1*
X13502D1*
X15331Y6553D2*
X16426D1*
Y5669D1*
X15306D1*
Y6553D1*
X15331D1*
X16951Y13928D2*
X16849D1*
X16851Y12440D1*
X16930Y12360D1*
X16990Y12251D1*
X17021Y12083D1*
X17004Y11960D1*
X16956Y11845D1*
X16890Y11763D1*
X17042Y11764D1*
X17041Y13307D1*
X16987Y13357D1*
X16918Y13461D1*
X16879Y13579D1*
X16872Y13704D1*
X16899Y13825D1*
X16952Y13925D1*
X19385Y4547D2*
X19344Y4609D1*
X19305Y4727D1*
X19299Y4852D1*
X19324Y4962D1*
X18737Y4959D1*
X18326Y4547D1*
X19379Y4545D1*
X25442Y15557D2*
X25516Y15558D1*
X25565Y15545D1*
X25564Y16189D1*
X24537D1*
X24610Y16141D1*
X24677Y16071D1*
X25009Y16070D1*
X25133Y16041D1*
X25218Y15983D1*
X25357Y15844D1*
X25424Y15736D1*
X25443Y15636D1*
Y15562D1*
X23967Y15477D2*
X23905Y15571D1*
X23866Y15690D1*
X23859Y15814D1*
X23887Y15936D1*
X23945Y16046D1*
X24031Y16136D1*
X24114Y16187D1*
X22929Y16189D1*
X22809Y16066D1*
Y15445D1*
X22891Y15472D1*
X23193Y15476D1*
X23970D1*
X24905Y10081D2*
X24871Y10033D1*
X24776Y9952D1*
X24665Y9897D1*
X24569Y9877D1*
X25239Y9211D1*
X25567Y8884D1*
X25564Y9937D1*
Y10207D1*
X25526Y10166D1*
X25418Y10098D1*
X25318Y10079D1*
X24908D1*
X24681Y10842D2*
X24736Y10821D1*
X24838Y10749D1*
X24907Y10670D1*
X25160D1*
X25162Y11322D1*
X24685Y10845D1*
X24515Y11508D2*
X24147D1*
X24022Y11537D1*
X23938Y11595D1*
X23891Y11642D1*
Y10868D1*
X23938Y10932D1*
X24515Y11509D1*
X23716Y9055D2*
X23665Y9004D1*
X23557Y8936D1*
X23562Y8918D1*
X24670Y8917D1*
X24643Y8973D1*
X23903Y9720D1*
X23891Y9739D1*
Y9352D1*
X23862Y9227D1*
X23804Y9143D1*
X23716Y9055D1*
X21687Y6812D2*
D16*
Y6308D1*
X20983Y6812D2*
X22391D1*
X9375Y5474D2*
Y4875D1*
X19687Y6585D2*
Y6005D1*
X19068Y6585D2*
X20306D1*
X19500Y14431D2*
Y13852D1*
X18881D2*
X20118D1*
X5147Y7000D2*
Y6382D1*
X5335Y14806D2*
Y14187D1*
X8738Y17357D2*
Y16738D1*
X24084Y13902D2*
X24625D1*
X21014Y12878D2*
X22094D1*
X21014Y13646D2*
X21554D1*
X21014Y14669D2*
X22094D1*
X21014Y14925D2*
X22094D1*
X6499Y10875D2*
Y10217D1*
X7812Y15562D2*
Y14904D1*
X14187Y12322D2*
Y10612D1*
X13332Y11467D2*
X14187D1*
X15687Y8544D2*
Y6834D1*
Y7689D2*
X16542D1*
X23939Y5474D2*
Y4875D1*
X23340D2*
X23939D1*
X12424Y14375D2*
Y13058D1*
Y13717D2*
X13082D1*
X15866Y6553D2*
Y5670D1*
X15306Y6111D2*
X16426D1*
X17336Y15875D2*
Y15295D1*
X20198Y16362D2*
Y15448D1*
X19284Y16362D2*
X21112D1*
X15458Y17276D2*
Y15448D1*
X14544Y16362D2*
X16372D1*
D17*
X21687Y6812D3*
Y7718D3*
Y8623D3*
D18*
X24125Y7717D3*
D19*
X11375Y4875D3*
D20*
X10375D3*
X9375D3*
X8375D3*
X7375D3*
D22*
X19687Y7687D3*
Y6585D3*
X19500Y12750D3*
Y13852D3*
D21*
X19687Y11750D3*
X18585D3*
X19687Y10812D3*
X18585D3*
X6437Y13312D3*
X5335D3*
X6249Y7000D3*
X5147D3*
D22*
X5187Y8938D3*
Y7836D3*
D21*
X6437Y14187D3*
X5335D3*
D22*
X7499Y5875D3*
Y6977D3*
X8761Y10511D3*
Y11613D3*
D21*
X7636Y16738D3*
X8738D3*
X5062Y12000D3*
X6164D3*
D25*
X24625Y15437D3*
Y15181D3*
Y14925D3*
Y14669D3*
Y14413D3*
Y14157D3*
Y13902D3*
Y13646D3*
Y13390D3*
Y13134D3*
Y12878D3*
Y12622D3*
Y12366D3*
Y12110D3*
X21554D3*
Y12366D3*
Y12622D3*
Y12878D3*
Y13134D3*
Y13390D3*
Y13646D3*
Y13902D3*
Y14157D3*
Y14413D3*
Y14669D3*
Y14925D3*
Y15181D3*
Y15437D3*
D26*
X21375Y19062D3*
D27*
Y18062D3*
Y17062D3*
X22375D3*
Y18062D3*
Y19062D3*
D28*
X5999Y10875D3*
X6499D3*
X6999D3*
X7499D3*
Y7962D3*
X6999D3*
X6499D3*
X5999D3*
X7312Y15562D3*
X7812D3*
X8312D3*
X8812D3*
Y12649D3*
X8312D3*
X7812D3*
X7312D3*
D29*
X14187Y7687D3*
Y9577D3*
Y11467D3*
X15687Y11469D3*
Y9579D3*
Y7689D3*
D19*
X24939Y4875D3*
D20*
X23939D3*
D19*
X20376Y4812D3*
D20*
X21376D3*
X22376D3*
D21*
X19687Y9750D3*
X18585D3*
D22*
X6511Y15136D3*
Y16238D3*
X5187Y9813D3*
Y10915D3*
D21*
X18607Y8750D3*
X19710D3*
D30*
X12424Y13717D3*
X11924Y12717D3*
X11424Y13717D3*
X10924Y12717D3*
D34*
X13937Y4812D3*
Y6111D3*
X15866D3*
Y4812D3*
D35*
X17336Y14508D3*
D36*
X18320D3*
Y15295D3*
X17336D3*
D37*
X20198Y16362D3*
X15458D3*
D38*
X24500Y10375D3*
X22600D3*
M02*
