M48
INCH
T01C0.0191
T02C0.032
T03C0.035
T04C0.0362
T05C0.0433
T06C0.0449
T07C0.0453
T08C0.0906
T09C0.128
%
T01
X+021828Y+015775
X+022495Y+014404
X+023113Y+014265
X+022495Y+013351
X+024038Y+013321
X+024008Y+012438
X+023287Y+010049
X+022948Y+009710
X+021677Y+010048
X+020999Y+011662
X+020281Y+011968
X+017336Y+013664
X+016556Y+012083
X+016695Y+009579
X+017991Y+009116
X+017465Y+007687
X+015866Y+005317
X+015153Y+004812
X+013572Y+006936
X+011988Y+004763
X+009687Y+005875
X+006999Y+011976
X+007812Y+014650
X+008312Y+014528
X+016556Y+015889
X+018320Y+015889
X+024323Y+015775
X+025457Y+015097
X+022487Y+006812
X+019762Y+004812
T02
X+024500Y+010375
X+022600Y+010375
T03
X+012424Y+013717
X+011424Y+013717
X+011924Y+012717
X+010924Y+012717
T04
X+017336Y+014508
X+017336Y+015295
X+018320Y+015295
X+018320Y+014508
T05
X+011375Y+004875
X+010375Y+004875
X+009375Y+004875
X+008375Y+004875
X+007375Y+004875
X+020376Y+004812
X+021376Y+004812
X+022376Y+004812
X+023939Y+004875
X+024939Y+004875
T06
X+021375Y+019062
X+021375Y+018062
X+021375Y+017062
X+022375Y+017062
X+022375Y+018062
X+022375Y+019062
T07
X+014187Y+007687
X+015687Y+007689
X+015687Y+009579
X+014187Y+009577
X+014187Y+011467
X+015687Y+011469
T08
X+020198Y+016362
X+015458Y+016362
T09
X+010174Y+016216
X+013174Y+016216
T00
M30
