G04 DipTrace 2.4.0.2*
%INTopPaste.gbr*%
%MOIN*%
%ADD60R,0.0512X0.0276*%
%ADD62R,0.0118X0.0591*%
%ADD64R,0.0591X0.0118*%
%ADD78R,0.063X0.0583*%
%ADD80R,0.0945X0.0551*%
%ADD82R,0.063X0.0551*%
%ADD84R,0.0551X0.063*%
%FSLAX44Y44*%
G04*
G70*
G90*
G75*
G01*
%LNTopPaste*%
%LPD*%
D84*
X25062Y8937D3*
X23960D3*
X22125D3*
X23227D3*
D82*
X20750Y12562D3*
Y13664D3*
D80*
X18812Y5375D3*
X17395D3*
D82*
X19875Y12562D3*
Y13664D3*
D80*
X19187Y9625D3*
X20604D3*
X19187Y7687D3*
X20604D3*
D78*
X23689Y7250D3*
X25137D3*
D82*
X18062Y11562D3*
Y12664D3*
D84*
X10500Y6813D3*
X9397D3*
D82*
X19000Y11562D3*
Y12664D3*
D64*
X25189Y12376D3*
Y12691D3*
Y13006D3*
Y13321D3*
Y13635D3*
Y13950D3*
Y14265D3*
Y14580D3*
D62*
X24638Y15132D3*
X24323D3*
X24008D3*
X23693D3*
X23378D3*
X23063D3*
X22748D3*
X22433D3*
D64*
X21882Y14580D3*
Y14265D3*
Y13950D3*
Y13635D3*
Y13321D3*
Y13006D3*
Y12691D3*
Y12376D3*
D62*
X22433Y11824D3*
X22748D3*
X23063D3*
X23378D3*
X23693D3*
X24008D3*
X24323D3*
X24638D3*
D60*
X13937Y6062D3*
Y4763D3*
X15866D3*
Y6062D3*
M02*
