; NON-PLATED HOLES START AT T1
; THROUGH (PLATED) HOLES START AT T100
M48
INCH
T1C0.086614
T100C0.031496
T101C0.040000
T102C0.036000
T103C0.015748
T104C0.090000
T105C0.038000
T106C0.031555
%
T1
X001035Y000877
X018961Y012917
X019019Y000814
X001021Y012913
T100
X015308Y003923
T101
X003626Y012770
X002626Y011770
X002626Y010770
X002626Y012770
X003626Y011770
X003626Y010770
T102
X002826Y006901
X002826Y005917
X002046Y005917
X002046Y006901
T103
X006556Y007295
X014658Y007656
X005650Y012329
X005250Y008029
X013522Y006205
X014827Y008160
X017357Y010924
X005450Y005129
X011050Y012329
X015201Y010672
X005450Y003229
X012828Y006707
X013161Y007092
X014871Y009388
X010441Y011419
X010427Y010566
X012918Y009704
X017050Y005241
X003650Y008129
X007550Y011129
X013559Y009311
X005525Y010693
X013530Y007453
T104
X000976Y008779
X000976Y004039
T105
X018852Y007934
X018852Y006934
X010796Y000875
X008319Y000898
X018852Y005934
X018852Y009934
X011796Y000875
X018852Y008934
X018852Y011934
X007319Y000898
X018852Y010934
T106
X013377Y003923
T00
M30
