M48
INCH
T01C0.0191
T02C0.032
T03C0.035
T04C0.0362
T05C0.0433
T06C0.0449
T07C0.0453
T08C0.0906
T09C0.128
%
T01
X+005297Y+004753
X+007080Y+010064
X+006999Y+011548
X+006473Y+012634
X+007621Y+013599
X+008312Y+014735
X+012927Y+014219
X+016134Y+014257
X+016556Y+010937
X+018852Y+010202
X+018830Y+009579
X+019638Y+010021
X+020237Y+008999
X+020555Y+008376
X+020835Y+006532
X+021532Y+005657
X+022518Y+007956
X+023105Y+008640
X+023429Y+011823
X+022581Y+012343
X+020699Y+011518
X+019712Y+011518
X+020680Y+014508
X+021761Y+015295
X+022398Y+014654
X+022664Y+015137
X+024884Y+012306
X+018953Y+006532
X+017785Y+005845
X+015792Y+005412
X+015277Y+005103
X+013079Y+005165
X+012590Y+006030
X+011972Y+006403
X+012899Y+010628
T02
X+022756Y+011078
X+022756Y+009178
T03
X+012424Y+013717
X+011424Y+013717
X+011924Y+012717
X+010924Y+012717
T04
X+017336Y+014508
X+017336Y+015295
X+018320Y+015295
X+018320Y+014508
T05
X+011500Y+004750
X+010500Y+004750
X+009500Y+004750
X+008500Y+004750
X+007500Y+004750
X+017156Y+005146
X+018156Y+005146
X+019156Y+005146
X+024026Y+004650
X+025026Y+004650
T06
X+018259Y+012071
X+019259Y+012071
X+020259Y+012071
X+020259Y+013071
X+019259Y+013071
X+018259Y+013071
T07
X+014187Y+007687
X+015687Y+007689
X+015687Y+009579
X+014187Y+009577
X+014187Y+011467
X+015687Y+011469
T08
X+020198Y+016362
X+015458Y+016362
T09
X+010174Y+016216
X+013174Y+016216
T00
M30
