G04 DipTrace 2.4.0.2*
%INBottomMask.gbr*%
%MOIN*%
%ADD41C,0.128*%
%ADD51C,0.056*%
%ADD53C,0.138*%
%ADD55C,0.071*%
%ADD57R,0.071X0.071*%
%ADD59R,0.0671X0.0435*%
%ADD65C,0.0868*%
%ADD67C,0.1261*%
%ADD69R,0.0317X0.0868*%
%ADD71C,0.0769*%
%ADD73R,0.0769X0.0769*%
%ADD75R,0.0198X0.0631*%
%ADD81R,0.0789X0.071*%
%ADD83R,0.071X0.0789*%
%ADD85C,0.075*%
%ADD87R,0.075X0.075*%
%ADD89R,0.0946X0.1498*%
%ADD91R,0.096X0.056*%
%FSLAX44Y44*%
G04*
G70*
G90*
G75*
G01*
%LNBotMask*%
%LPD*%
D91*
X22254Y7441D3*
Y6535D3*
Y5630D3*
D89*
X19817Y6535D3*
D87*
X11503Y4753D3*
D85*
X10503D3*
X9503D3*
X8503D3*
X7503D3*
D83*
X17289Y13505D3*
X16186D3*
X6440Y13315D3*
X5338D3*
X6252Y7004D3*
X5150D3*
D81*
X5190Y8941D3*
Y7839D3*
D83*
X6440Y14190D3*
X5338D3*
D81*
X7503Y5878D3*
Y6980D3*
X8764Y10514D3*
Y11616D3*
D83*
X7639Y16741D3*
X8741D3*
X5065Y12004D3*
X6167D3*
D75*
X24553Y12941D3*
X24297D3*
X24042D3*
X23786D3*
X23530D3*
X23274D3*
X23018D3*
X22762D3*
X22506D3*
X22250D3*
X21994D3*
X21738D3*
X21482D3*
X21227D3*
Y16012D3*
X21482D3*
X21738D3*
X21994D3*
X22250D3*
X22506D3*
X22762D3*
X23018D3*
X23274D3*
X23530D3*
X23786D3*
X24042D3*
X24297D3*
X24553D3*
D73*
X18262Y12074D3*
D71*
X19262D3*
X20262D3*
Y13074D3*
X19262D3*
X18262D3*
D69*
X5997Y10701D3*
X6500D3*
X7004D3*
X7508D3*
Y8142D3*
X7004D3*
X6500D3*
X5997D3*
X7309Y15388D3*
X7813D3*
X8317D3*
X8821D3*
Y12829D3*
X8317D3*
X7813D3*
X7309D3*
D67*
X14190Y7690D3*
Y9580D3*
Y11470D3*
X15690Y11472D3*
Y9582D3*
Y7692D3*
D87*
X24029Y4653D3*
D85*
X25029D3*
D87*
X17159Y5149D3*
D85*
X18159D3*
X19159D3*
D81*
X6514Y15139D3*
Y16241D3*
X5190Y9816D3*
Y10919D3*
D65*
X12427Y13720D3*
X11927Y12720D3*
X11427Y13720D3*
X10927Y12720D3*
D41*
X10177Y16220D3*
X13177D3*
D59*
X13931Y5000D3*
Y6299D3*
X15860D3*
Y5000D3*
D57*
X17339Y14511D3*
D55*
X18323D3*
Y15298D3*
X17339D3*
D53*
X20201Y16365D3*
X15461D3*
D51*
X22759Y11081D3*
Y9181D3*
M02*
