G04 DipTrace 2.4.0.2*
%INBottomPaste.gbr*%
%MOIN*%
%ADD60R,0.051X0.0274*%
%ADD70R,0.0156X0.0707*%
%ADD76R,0.0038X0.0471*%
%ADD82R,0.0628X0.055*%
%ADD84R,0.055X0.0628*%
%ADD90R,0.0786X0.1337*%
%ADD92R,0.08X0.04*%
%FSLAX44Y44*%
G04*
G70*
G90*
G75*
G01*
%LNBotPaste*%
%LPD*%
D92*
X22254Y7441D3*
Y6535D3*
Y5630D3*
D90*
X19817Y6535D3*
D84*
X17289Y13505D3*
X16186D3*
X6440Y13315D3*
X5338D3*
X6252Y7004D3*
X5150D3*
D82*
X5190Y8941D3*
Y7839D3*
D84*
X6440Y14190D3*
X5338D3*
D82*
X7503Y5878D3*
Y6980D3*
X8764Y10514D3*
Y11616D3*
D84*
X7639Y16741D3*
X8741D3*
X5065Y12004D3*
X6167D3*
D76*
X24553Y12941D3*
X24297D3*
X24042D3*
X23786D3*
X23530D3*
X23274D3*
X23018D3*
X22762D3*
X22506D3*
X22250D3*
X21994D3*
X21738D3*
X21482D3*
X21227D3*
Y16012D3*
X21482D3*
X21738D3*
X21994D3*
X22250D3*
X22506D3*
X22762D3*
X23018D3*
X23274D3*
X23530D3*
X23786D3*
X24042D3*
X24297D3*
X24553D3*
D70*
X5997Y10701D3*
X6500D3*
X7004D3*
X7508D3*
Y8142D3*
X7004D3*
X6500D3*
X5997D3*
X7309Y15388D3*
X7813D3*
X8317D3*
X8821D3*
Y12829D3*
X8317D3*
X7813D3*
X7309D3*
D82*
X6514Y15139D3*
Y16241D3*
X5190Y9816D3*
Y10919D3*
D60*
X13931Y5000D3*
Y6299D3*
X15860D3*
Y5000D3*
M02*
