G04 DipTrace 2.4.0.2*
%INTop.gbr*%
%MOIN*%
%ADD14C,0.006*%
%ADD15C,0.0394*%
%ADD16C,0.025*%
%ADD19R,0.0669X0.0669*%
%ADD20C,0.0669*%
%ADD21R,0.063X0.0709*%
%ADD22R,0.0709X0.063*%
%ADD23R,0.1024X0.063*%
%ADD24R,0.0709X0.0661*%
%ADD26R,0.0689X0.0689*%
%ADD27C,0.0689*%
%ADD29C,0.1181*%
%ADD30C,0.0787*%
%ADD32R,0.0669X0.0197*%
%ADD33R,0.0197X0.0669*%
%ADD34R,0.0591X0.0354*%
%ADD35R,0.063X0.063*%
%ADD36C,0.063*%
%ADD37C,0.1299*%
%ADD38C,0.048*%
%ADD39C,0.04*%
%FSLAX44Y44*%
G04*
G70*
G90*
G75*
G01*
%LNTop*%
%LPD*%
X18262Y12074D2*
D14*
X18526Y11810D1*
Y10907D1*
X18956Y6535D2*
X17154D1*
X17015Y6396D1*
Y5456D1*
X17159Y5313D1*
Y5149D1*
X17240Y13571D2*
Y13074D1*
X18262D1*
X7085Y10021D2*
X7696Y10631D1*
X12902D1*
X21282Y9096D2*
X21725D1*
X21864Y9235D1*
Y9587D1*
X21725Y9726D1*
X21282D1*
X16559Y10940D2*
X16869Y10631D1*
Y8789D1*
X14190Y7690D2*
Y6675D1*
X14330Y6535D1*
X16876D1*
X17015Y6396D1*
X20838Y6535D2*
X23549D1*
X23688Y6674D1*
Y7741D1*
X17159Y5149D2*
X16301Y4291D1*
X11965D1*
X11503Y4753D1*
X12902Y10631D2*
X14850D1*
X15690Y11472D1*
X18855Y10205D2*
X18691Y10041D1*
X17975D1*
X21282Y9726D2*
X19412D1*
X18933Y10205D1*
X18855D1*
X18262Y13074D2*
X19067Y13879D1*
Y14114D1*
X19684D1*
X23555Y14780D2*
X22830D1*
X22691Y14919D1*
Y16740D1*
X22228D1*
X21940D1*
Y17714D1*
X19684Y14114D2*
X21171Y15601D1*
Y16601D1*
X21310Y16740D1*
X22228D1*
X19262Y12074D2*
X18808Y12528D1*
X17808D1*
Y11481D1*
X17975Y11315D1*
Y10356D1*
X19715Y11521D2*
X18980D1*
X18841Y11382D1*
Y10907D1*
X20240Y9002D2*
X19786Y8548D1*
Y7600D1*
X20262Y12074D2*
X21552Y13365D1*
Y13991D1*
X21691Y13852D1*
X23200D1*
Y13388D1*
X21552Y13991D2*
Y15499D1*
X21691Y15638D1*
X22228D1*
X24076Y13425D2*
Y13849D1*
X24932D1*
Y13397D1*
X23200Y13388D2*
Y13425D1*
X24076D1*
X25153Y6056D2*
Y7741D1*
X25105D1*
Y8336D1*
X24659Y8782D1*
Y9178D1*
X25216D1*
X21282Y8781D2*
X20838D1*
X20699Y8920D1*
Y9411D1*
X19515D1*
X19036Y9891D1*
X18557D1*
X18418Y9752D1*
Y9096D1*
X17975D1*
X25216Y9178D2*
Y11084D1*
X24659Y8782D2*
X24520Y8643D1*
X23108D1*
X20699Y9411D2*
X20838D1*
X21282D1*
X23108Y8643D2*
X22730D1*
X22591Y8781D1*
X21282D1*
X20201Y16365D2*
Y17554D1*
X20340Y17693D1*
X21067D1*
X9503Y4753D2*
Y5813D1*
X9401Y5915D1*
Y6816D1*
X20201Y16365D2*
X17478D1*
X17339Y16226D1*
Y15298D1*
X16137Y14260D2*
Y13571D1*
X17339Y15298D2*
X16276D1*
X16137Y15159D1*
Y14260D1*
X15461Y16365D2*
X17200D1*
X17339Y16226D1*
X15281Y5106D2*
Y5021D1*
X15481Y4821D1*
X15855D1*
X15690Y7692D2*
X16869Y7687D1*
X20262Y13074D2*
X21129Y13941D1*
Y14451D1*
X25216Y11084D2*
X25639D1*
Y14780D1*
X24972D1*
X24113Y9178D2*
X23388D1*
X23385Y9181D1*
X22759D1*
X21900Y10041D1*
X21282D1*
X24076Y12323D2*
Y11917D1*
X24276Y11717D1*
X24297D1*
X24793D1*
X24932Y11856D1*
Y12295D1*
X22700Y17696D2*
X22859D1*
Y16479D1*
X22969Y16369D1*
X24037D1*
X24176Y16230D1*
Y14356D1*
X22750D1*
X22655Y14451D1*
X22231D1*
X22453Y7960D2*
X21580Y7087D1*
X20101D1*
Y7600D1*
X19056Y15298D2*
X18323D1*
X19056Y14593D2*
X18974Y14511D1*
X18323D1*
X14190Y9580D2*
X14890Y8881D1*
Y7130D1*
X15029Y6991D1*
X18387D1*
X18526Y7130D1*
Y7600D1*
X20668Y8214D2*
X20616D1*
X20416Y8014D1*
Y7600D1*
X24113Y11084D2*
X23388D1*
X23385Y11081D1*
X22759D1*
X22034Y10356D1*
X21282D1*
X21994Y12387D2*
X22097Y12490D1*
Y13388D1*
X7633Y13649D2*
Y12785D1*
X7485Y12637D1*
X6476D1*
X7002Y11551D2*
X7933Y12481D1*
Y15047D1*
X8072Y15186D1*
X13571D1*
X15961Y12796D1*
X17332D1*
X17471Y12657D1*
Y8466D1*
X17975D1*
X8315Y14739D2*
Y12310D1*
X8454Y12171D1*
X17193D1*
X17332Y12032D1*
Y8290D1*
X17471Y8151D1*
X17975D1*
X10503Y4753D2*
Y5474D1*
Y5475D1*
Y6816D1*
X20702Y11521D2*
X20731Y11493D1*
Y10907D1*
X18833Y9582D2*
X18841Y9574D1*
Y7600D1*
X19641Y10024D2*
X20101D1*
X20416Y10339D1*
Y10907D1*
X15795Y5415D2*
X15855Y5475D1*
Y6120D1*
X12593Y6033D2*
Y4960D1*
X12732Y4821D1*
X13925D1*
X11927Y12720D2*
X12791D1*
X12930Y12859D1*
Y14222D1*
X21341Y4812D2*
D15*
Y5251D1*
X21535D1*
Y5660D1*
X21932Y6056D1*
X23735D1*
X13082Y5168D2*
X13147D1*
Y6212D1*
X12801Y6558D1*
X11975D1*
Y6406D1*
D14*
X13925D1*
Y6120D1*
X21940Y18817D2*
Y18796D1*
X21067D1*
X24029Y4653D2*
D15*
X23870Y4812D1*
X22790D1*
D39*
X5300Y4756D3*
X17788Y5848D3*
X12902Y10631D3*
X7085Y10021D3*
X20838Y6535D3*
X16559Y10940D3*
X18956Y6535D3*
X18855Y10205D3*
X19715Y11521D3*
X20240Y9002D3*
X15281Y5106D3*
X23108Y8643D3*
X16137Y14260D3*
X6476Y12637D3*
X7633Y13649D3*
X7002Y11551D3*
X8315Y14739D3*
X20702Y11521D3*
X18833Y9582D3*
X19641Y10024D3*
X15795Y5415D3*
X19684Y14114D3*
X12593Y6033D3*
X12930Y14222D3*
X21535Y5660D3*
X11975Y6406D3*
X13082Y5168D3*
X24297Y11717D3*
X22700Y17696D3*
X22453Y7960D3*
X19056Y15298D3*
Y14593D3*
X20668Y8214D3*
X21994Y12387D3*
X7121Y19048D2*
D16*
X20423D1*
X22582D2*
X22669D1*
X7121Y18800D2*
X20423D1*
X22582D2*
X22669D1*
X7117Y18551D2*
X20423D1*
X22582D2*
X22669D1*
X7117Y18302D2*
X20423D1*
X22582D2*
X22669D1*
X7113Y18054D2*
X20423D1*
X7113Y17805D2*
X20009D1*
X7109Y17556D2*
X19880D1*
X7109Y17308D2*
X19880D1*
X7106Y17059D2*
X9813D1*
X10539D2*
X12813D1*
X13539D2*
X14841D1*
X16082D2*
X19579D1*
X20820D2*
X21583D1*
X7106Y16810D2*
X9466D1*
X10887D2*
X12466D1*
X13887D2*
X14638D1*
X16285D2*
X19376D1*
X7102Y16561D2*
X9313D1*
X11039D2*
X12313D1*
X14039D2*
X14544D1*
X4551Y16313D2*
X9251D1*
X11102D2*
X12251D1*
X14102D2*
X14524D1*
X21492D2*
X21586D1*
X4547Y16064D2*
X9263D1*
X11094D2*
X12263D1*
X14094D2*
X14571D1*
X16348D2*
X17020D1*
X17660D2*
X19313D1*
X21492D2*
X21586D1*
X23012D2*
X23856D1*
X24496D2*
X25497D1*
X4547Y15815D2*
X9345D1*
X11012D2*
X12345D1*
X14012D2*
X14704D1*
X16215D2*
X17020D1*
X17660D2*
X18036D1*
X18609D2*
X19446D1*
X23012D2*
X23856D1*
X24496D2*
X25497D1*
X4547Y15567D2*
X9524D1*
X10828D2*
X12524D1*
X13828D2*
X14989D1*
X15930D2*
X16130D1*
X19461D2*
X19731D1*
X23012D2*
X23856D1*
X24496D2*
X25497D1*
X4543Y15318D2*
X7763D1*
X13883D2*
X15864D1*
X19547D2*
X20446D1*
X4543Y15069D2*
X7614D1*
X14129D2*
X15817D1*
X19484D2*
X20196D1*
X4539Y14821D2*
X7614D1*
X8797D2*
X13493D1*
X14379D2*
X15817D1*
X16457D2*
X16735D1*
X19484D2*
X19950D1*
X4539Y14572D2*
X7614D1*
X8773D2*
X12598D1*
X13262D2*
X13743D1*
X14629D2*
X15766D1*
X16508D2*
X16735D1*
X4535Y14323D2*
X7614D1*
X8637D2*
X11138D1*
X11715D2*
X12138D1*
X13410D2*
X13993D1*
X14875D2*
X15653D1*
X16621D2*
X16733D1*
X20336D2*
X20524D1*
X4535Y14075D2*
X7423D1*
X8637D2*
X10848D1*
X13395D2*
X14239D1*
X15125D2*
X15532D1*
X20172D2*
X20524D1*
X25148D2*
X25321D1*
X4531Y13826D2*
X7181D1*
X8637D2*
X10751D1*
X13250D2*
X14489D1*
X15375D2*
X15532D1*
X17844D2*
X18571D1*
X20074D2*
X20571D1*
X4531Y13577D2*
X7149D1*
X8637D2*
X10759D1*
X13250D2*
X14739D1*
X19629D2*
X19891D1*
X4531Y13329D2*
X7270D1*
X8637D2*
X10653D1*
X13250D2*
X14985D1*
X20957D2*
X21075D1*
X4527Y13080D2*
X6309D1*
X6641D2*
X7313D1*
X8637D2*
X10352D1*
X13250D2*
X15235D1*
X4527Y12831D2*
X6028D1*
X8637D2*
X10255D1*
X13250D2*
X15485D1*
X4523Y12582D2*
X5989D1*
X8637D2*
X10259D1*
X13098D2*
X15731D1*
X21211D2*
X21548D1*
X22441D2*
X23431D1*
X4523Y12334D2*
X6098D1*
X6856D2*
X7345D1*
X20965D2*
X21509D1*
X22481D2*
X23431D1*
X4520Y12085D2*
X7095D1*
X7977D2*
X8096D1*
X20895D2*
X21614D1*
X22371D2*
X23431D1*
X4520Y11836D2*
X6610D1*
X7731D2*
X13391D1*
X16488D2*
X17013D1*
X21070D2*
X23431D1*
X4516Y11588D2*
X6513D1*
X7492D2*
X13317D1*
X16563D2*
X17013D1*
X21188D2*
X23509D1*
X4516Y11339D2*
X6563D1*
X7441D2*
X13321D1*
X16824D2*
X17013D1*
X21156D2*
X22302D1*
X4516Y11090D2*
X6915D1*
X7090D2*
X12806D1*
X13000D2*
X13399D1*
X21117D2*
X22231D1*
X4512Y10842D2*
X7466D1*
X21117D2*
X22079D1*
X4512Y10593D2*
X7216D1*
X15254D2*
X16227D1*
X22910D2*
X23509D1*
X4508Y10344D2*
X6727D1*
X14941D2*
X15278D1*
X16102D2*
X16548D1*
X22465D2*
X24895D1*
X4508Y10096D2*
X6602D1*
X7602D2*
X13481D1*
X14898D2*
X14978D1*
X16398D2*
X16548D1*
X22289D2*
X24895D1*
X4504Y9847D2*
X6630D1*
X7543D2*
X13352D1*
X22535D2*
X24895D1*
X4504Y9598D2*
X6864D1*
X7305D2*
X13309D1*
X23070D2*
X23509D1*
X4504Y9350D2*
X13341D1*
X4500Y9101D2*
X13458D1*
X19160D2*
X19759D1*
X4500Y8852D2*
X13716D1*
X19160D2*
X19649D1*
X4496Y8603D2*
X14571D1*
X15211D2*
X16223D1*
X19160D2*
X19470D1*
X4496Y8355D2*
X13626D1*
X19160D2*
X19466D1*
X21906D2*
X22184D1*
X4492Y8106D2*
X13419D1*
X21906D2*
X21987D1*
X4492Y7857D2*
X13325D1*
X4488Y7609D2*
X13313D1*
X17512D2*
X18138D1*
X21117D2*
X21661D1*
X22781D2*
X22885D1*
X4488Y7360D2*
X8798D1*
X11109D2*
X13376D1*
X17512D2*
X18138D1*
X22297D2*
X22888D1*
X4488Y7111D2*
X8798D1*
X11109D2*
X13536D1*
X22047D2*
X23368D1*
X24008D2*
X24833D1*
X4484Y6863D2*
X8798D1*
X11109D2*
X11602D1*
X13176D2*
X13872D1*
X19313D2*
X19884D1*
X21797D2*
X23368D1*
X24008D2*
X24833D1*
X4484Y6614D2*
X8798D1*
X11109D2*
X11493D1*
X19438D2*
X20356D1*
X4481Y6365D2*
X8798D1*
X11109D2*
X11489D1*
X19414D2*
X20380D1*
X4481Y6117D2*
X9079D1*
X9719D2*
X10184D1*
X10824D2*
X11587D1*
X14512D2*
X15270D1*
X16441D2*
X16696D1*
X18191D2*
X18731D1*
X19184D2*
X20610D1*
X21066D2*
X21313D1*
X4477Y5868D2*
X9083D1*
X9816D2*
X10184D1*
X10824D2*
X12134D1*
X14512D2*
X15270D1*
X16441D2*
X16696D1*
X18277D2*
X21095D1*
X4477Y5619D2*
X9184D1*
X9824D2*
X10184D1*
X10824D2*
X12274D1*
X13633D2*
X15352D1*
X16238D2*
X16536D1*
X18555D2*
X18763D1*
X19555D2*
X21036D1*
X4477Y5370D2*
X9184D1*
X9824D2*
X10184D1*
X10824D2*
X12274D1*
X13633D2*
X14872D1*
X16281D2*
X16536D1*
X19742D2*
X20696D1*
X22023D2*
X22146D1*
X23434D2*
X25477D1*
X4473Y5122D2*
X4989D1*
X5609D2*
X7005D1*
X12129D2*
X12275D1*
X14512D2*
X14790D1*
X16441D2*
X16535D1*
X19781D2*
X20696D1*
X22004D2*
X22144D1*
X4473Y4873D2*
X4825D1*
X5773D2*
X6891D1*
X12129D2*
X12289D1*
X14512D2*
X14852D1*
X19715D2*
X20696D1*
X21984D2*
X22149D1*
X4469Y4624D2*
X4829D1*
X5770D2*
X6891D1*
X12129D2*
X12485D1*
X14512D2*
X15235D1*
X18473D2*
X18845D1*
X19473D2*
X20696D1*
X21984D2*
X22149D1*
X4469Y4376D2*
X5009D1*
X5594D2*
X7013D1*
X11028Y5353D2*
X12103D1*
Y4583D1*
X12554Y4586D1*
X12384Y4751D1*
X12317Y4859D1*
X12298Y4960D1*
Y5675D1*
X12244Y5726D1*
X12175Y5830D1*
X12135Y5968D1*
X12080Y5953D1*
X11956Y5942D1*
X11833Y5963D1*
X11721Y6017D1*
X11626Y6099D1*
X11557Y6203D1*
X11518Y6321D1*
X11514Y6558D1*
X11525Y6659D1*
X11558Y6755D1*
X11610Y6841D1*
X11681Y6914D1*
X11766Y6970D1*
X11860Y7005D1*
X11975Y7020D1*
X12801D1*
X12924Y7003D1*
X13070Y6934D1*
X13304Y6708D1*
X13312Y6700D1*
X13895Y6701D1*
Y6890D1*
X13799Y6929D1*
X13692Y6994D1*
X13596Y7074D1*
X13513Y7167D1*
X13444Y7271D1*
X13391Y7385D1*
X13355Y7504D1*
X13337Y7628D1*
Y7753D1*
X13355Y7876D1*
X13391Y7996D1*
X13444Y8109D1*
X13513Y8213D1*
X13596Y8306D1*
X13692Y8386D1*
X13799Y8451D1*
X13914Y8500D1*
X14035Y8531D1*
X14159Y8545D1*
X14284Y8541D1*
X14406Y8518D1*
X14525Y8478D1*
X14598Y8440D1*
X14593Y8760D1*
X14551Y8802D1*
X14407Y8752D1*
X14284Y8730D1*
X14159Y8725D1*
X14035Y8739D1*
X13914Y8770D1*
X13799Y8819D1*
X13692Y8884D1*
X13596Y8964D1*
X13513Y9057D1*
X13444Y9161D1*
X13391Y9274D1*
X13355Y9394D1*
X13337Y9517D1*
Y9642D1*
X13355Y9766D1*
X13391Y9885D1*
X13444Y9999D1*
X13513Y10103D1*
X13596Y10196D1*
X13692Y10276D1*
X13789Y10335D1*
X13260Y10336D1*
X13224Y10296D1*
X13123Y10222D1*
X13006Y10178D1*
X12882Y10167D1*
X12760Y10189D1*
X12647Y10242D1*
X12547Y10334D1*
X11527Y10336D1*
X7816Y10334D1*
X7548Y10066D1*
X7533Y9897D1*
X7484Y9782D1*
X7407Y9685D1*
X7306Y9611D1*
X7189Y9567D1*
X7065Y9556D1*
X6943Y9578D1*
X6830Y9632D1*
X6736Y9713D1*
X6667Y9817D1*
X6628Y9935D1*
X6622Y10060D1*
X6649Y10182D1*
X6707Y10292D1*
X6793Y10382D1*
X6900Y10447D1*
X7019Y10481D1*
X7132Y10482D1*
X7487Y10840D1*
X7595Y10908D1*
X7696Y10926D1*
X12544D1*
X12610Y10993D1*
X12716Y11058D1*
X12836Y11092D1*
X12961D1*
X13081Y11060D1*
X13189Y10997D1*
X13257Y10927D1*
X13531Y10926D1*
X13444Y11051D1*
X13391Y11164D1*
X13355Y11284D1*
X13337Y11407D1*
Y11532D1*
X13355Y11656D1*
X13391Y11775D1*
X13439Y11878D1*
X8454Y11876D1*
X8330Y11904D1*
X8246Y11962D1*
X8070Y12147D1*
X7965Y12096D1*
X7465Y11596D1*
X7467Y11551D1*
X7451Y11428D1*
X7402Y11313D1*
X7324Y11215D1*
X7223Y11142D1*
X7107Y11098D1*
X6983Y11087D1*
X6860Y11109D1*
X6748Y11162D1*
X6654Y11244D1*
X6584Y11348D1*
X6545Y11466D1*
X6539Y11590D1*
X6566Y11712D1*
X6625Y11822D1*
X6710Y11913D1*
X6817Y11977D1*
X6937Y12011D1*
X7050Y12012D1*
X7377Y12343D1*
X6833Y12342D1*
X6798Y12301D1*
X6697Y12228D1*
X6581Y12184D1*
X6456Y12172D1*
X6334Y12194D1*
X6221Y12248D1*
X6127Y12330D1*
X6058Y12433D1*
X6019Y12552D1*
X6013Y12676D1*
X6040Y12798D1*
X6098Y12908D1*
X6184Y12998D1*
X6291Y13063D1*
X6411Y13097D1*
X6535Y13098D1*
X6656Y13066D1*
X6763Y13003D1*
X6831Y12933D1*
X7339Y12932D1*
X7338Y13289D1*
X7284Y13342D1*
X7215Y13445D1*
X7176Y13564D1*
X7170Y13688D1*
X7197Y13810D1*
X7256Y13920D1*
X7341Y14010D1*
X7448Y14075D1*
X7568Y14109D1*
X7642Y14110D1*
X7638Y14981D1*
Y15047D1*
X7666Y15172D1*
X7724Y15256D1*
X7863Y15395D1*
X7971Y15463D1*
X8072Y15481D1*
X9654D1*
X9542Y15575D1*
X9459Y15669D1*
X9390Y15773D1*
X9336Y15886D1*
X9298Y16005D1*
X9277Y16128D1*
X9273Y16252D1*
X9286Y16377D1*
X9316Y16498D1*
X9363Y16614D1*
X9425Y16722D1*
X9501Y16821D1*
X9591Y16908D1*
X9691Y16983D1*
X9801Y17042D1*
X9918Y17086D1*
X10039Y17114D1*
X10164Y17124D1*
X10289Y17117D1*
X10411Y17093D1*
X10529Y17053D1*
X10641Y16996D1*
X10743Y16925D1*
X10835Y16840D1*
X10914Y16744D1*
X10980Y16637D1*
X11029Y16523D1*
X11063Y16403D1*
X11082Y16220D1*
X11073Y16095D1*
X11048Y15973D1*
X11005Y15855D1*
X10947Y15745D1*
X10874Y15643D1*
X10788Y15553D1*
X10700Y15482D1*
X12654Y15481D1*
X12542Y15575D1*
X12459Y15669D1*
X12390Y15773D1*
X12336Y15886D1*
X12298Y16005D1*
X12277Y16128D1*
X12273Y16252D1*
X12286Y16377D1*
X12316Y16498D1*
X12363Y16614D1*
X12425Y16722D1*
X12501Y16821D1*
X12591Y16908D1*
X12691Y16983D1*
X12801Y17042D1*
X12918Y17086D1*
X13039Y17114D1*
X13164Y17124D1*
X13289Y17117D1*
X13411Y17093D1*
X13529Y17053D1*
X13641Y16996D1*
X13743Y16925D1*
X13835Y16840D1*
X13914Y16744D1*
X13980Y16637D1*
X14029Y16523D1*
X14063Y16403D1*
X14082Y16220D1*
X14073Y16095D1*
X14048Y15973D1*
X14005Y15855D1*
X13947Y15745D1*
X13874Y15643D1*
X13788Y15553D1*
X13674Y15465D1*
X13740Y15428D1*
X13956Y15218D1*
X15555Y13619D1*
X15557Y14190D1*
X15678D1*
X15674Y14299D1*
X15701Y14421D1*
X15760Y14531D1*
X15842Y14619D1*
Y15159D1*
X15871Y15284D1*
X15929Y15368D1*
X16068Y15507D1*
X16176Y15575D1*
X16276Y15593D1*
X16843D1*
X16910Y15689D1*
X17003Y15771D1*
X17044Y15798D1*
Y16068D1*
X16329Y16070D1*
X16242Y15890D1*
X16170Y15788D1*
X16085Y15697D1*
X15988Y15618D1*
X15881Y15553D1*
X15766Y15503D1*
X15646Y15470D1*
X15522Y15453D1*
X15397D1*
X15274Y15470D1*
X15153Y15504D1*
X15039Y15554D1*
X14932Y15619D1*
X14836Y15698D1*
X14750Y15789D1*
X14679Y15892D1*
X14621Y16003D1*
X14580Y16120D1*
X14555Y16243D1*
X14546Y16367D1*
X14555Y16492D1*
X14581Y16614D1*
X14623Y16732D1*
X14681Y16842D1*
X14753Y16944D1*
X14838Y17035D1*
X14935Y17114D1*
X15042Y17179D1*
X15157Y17228D1*
X15277Y17261D1*
X15401Y17278D1*
X15526D1*
X15650Y17260D1*
X15770Y17226D1*
X15884Y17176D1*
X15991Y17111D1*
X16087Y17031D1*
X16172Y16940D1*
X16244Y16838D1*
X16323Y16664D1*
X16711Y16660D1*
X17200D1*
X17324Y16632D1*
X17426Y16656D1*
X17728Y16660D1*
X19333D1*
X19421Y16842D1*
X19493Y16944D1*
X19579Y17035D1*
X19676Y17114D1*
X19783Y17179D1*
X19909Y17231D1*
X19906Y17554D1*
X19934Y17679D1*
X19992Y17763D1*
X20131Y17902D1*
X20239Y17970D1*
X20340Y17988D1*
X20448D1*
X20452Y18273D1*
X20448Y18216D1*
X20445Y19297D1*
X7098Y19296D1*
X7076Y16477D1*
X7014Y16372D1*
X6952Y16353D1*
X4525Y16341D1*
X4443Y4338D1*
X5102Y4337D1*
X5045Y4367D1*
X4951Y4448D1*
X4882Y4552D1*
X4843Y4671D1*
X4836Y4795D1*
X4864Y4917D1*
X4922Y5027D1*
X5008Y5117D1*
X5114Y5182D1*
X5234Y5216D1*
X5359Y5217D1*
X5479Y5185D1*
X5587Y5122D1*
X5673Y5032D1*
X5734Y4923D1*
X5765Y4756D1*
X5748Y4632D1*
X5699Y4518D1*
X5621Y4420D1*
X5495Y4337D1*
X7062Y4344D1*
X6958Y4502D1*
X6918Y4621D1*
X6904Y4744D1*
X6915Y4869D1*
X6951Y4988D1*
X7012Y5097D1*
X7094Y5191D1*
X7193Y5266D1*
X7306Y5319D1*
X7428Y5348D1*
X7553Y5351D1*
X7675Y5327D1*
X7790Y5279D1*
X7893Y5208D1*
X7979Y5118D1*
X8001Y5081D1*
X8094Y5191D1*
X8193Y5266D1*
X8306Y5319D1*
X8428Y5348D1*
X8553Y5351D1*
X8675Y5327D1*
X8790Y5279D1*
X8893Y5208D1*
X8979Y5118D1*
X9001Y5081D1*
X9094Y5191D1*
X9211Y5275D1*
X9208Y5694D1*
X9136Y5785D1*
X9110Y5864D1*
X9105Y6196D1*
X8821D1*
Y7435D1*
X9980Y7431D1*
X9923Y7435D1*
X11083D1*
Y6196D1*
X10798Y6191D1*
Y5275D1*
X10903Y5278D1*
Y5353D1*
X11028D1*
X10003Y5080D2*
X10094Y5191D1*
X10211Y5275D1*
X10208Y5850D1*
Y6196D1*
X9923Y6200D1*
X9980Y6196D1*
X9696Y6191D1*
Y6038D1*
X9768Y5943D1*
X9794Y5864D1*
X9798Y5563D1*
Y5278D1*
X9893Y5208D1*
X9979Y5118D1*
X10001Y5081D1*
X23658Y11704D2*
X23834D1*
X23820Y11743D1*
X23457D1*
Y12770D1*
X22620Y12769D1*
X22392D1*
Y12627D1*
X22428Y12554D1*
X22459Y12387D1*
X22443Y12263D1*
X22394Y12149D1*
X22316Y12051D1*
X22215Y11978D1*
X22099Y11934D1*
X21975Y11922D1*
X21852Y11944D1*
X21739Y11998D1*
X21645Y12080D1*
X21576Y12183D1*
X21537Y12302D1*
X21531Y12426D1*
X21558Y12548D1*
X21617Y12658D1*
X21702Y12749D1*
X21739Y12771D1*
X21517Y12769D1*
Y12914D1*
X20847Y12242D1*
X20871Y12074D1*
X20860Y11962D1*
X20989Y11887D1*
X21076Y11797D1*
X21136Y11688D1*
X21167Y11521D1*
X21151Y11397D1*
X21094Y11273D1*
Y10722D1*
X21881Y10719D1*
Y10653D1*
X21914D1*
X22259Y10998D1*
X22256Y11120D1*
X22281Y11242D1*
X22335Y11355D1*
X22415Y11450D1*
X22516Y11524D1*
X22631Y11570D1*
X22755Y11586D1*
X22879Y11572D1*
X22995Y11528D1*
X23098Y11456D1*
X23166Y11377D1*
X23532Y11379D1*
X23533Y11704D1*
X23658D1*
X24693Y10469D2*
X24443Y10465D1*
X23533D1*
Y10789D1*
X23170Y10786D1*
X23131Y10740D1*
X23036Y10659D1*
X22925Y10604D1*
X22803Y10578D1*
X22682Y10583D1*
X22240Y10145D1*
X22285Y10073D1*
X22680Y9678D1*
X22755Y9686D1*
X22879Y9672D1*
X22995Y9628D1*
X23098Y9556D1*
X23166Y9477D1*
X23533Y9473D1*
Y9797D1*
X24693Y9793D1*
X24636Y9797D1*
X24921Y9803D1*
X24920Y10465D1*
X24636Y10469D1*
X17488Y7786D2*
Y7286D1*
X18165D1*
X18162Y7786D1*
X17484Y7788D1*
X16249Y8338D2*
Y8932D1*
X16136Y8852D1*
X16025Y8795D1*
X15907Y8754D1*
X15784Y8732D1*
X15659Y8727D1*
X15535Y8741D1*
X15414Y8772D1*
X15299Y8821D1*
X15183Y8894D1*
X15185Y8384D1*
X15299Y8453D1*
X15414Y8502D1*
X15535Y8533D1*
X15659Y8547D1*
X15784Y8542D1*
X15906Y8520D1*
X16025Y8479D1*
X16136Y8422D1*
X16251Y8336D1*
X24465Y7162D2*
X23984Y7161D1*
X23982Y6671D1*
X24084Y6636D1*
X24512Y6632D1*
X24626Y6636D1*
X24856D1*
X24858Y7162D1*
X24328Y7165D1*
X23390Y7161D2*
X22911D1*
Y7883D1*
X22901Y7836D1*
X22852Y7721D1*
X22774Y7624D1*
X22674Y7550D1*
X22557Y7506D1*
X22406Y7500D1*
X21954Y7044D1*
X21743Y6842D1*
X21838Y6830D1*
X23397D1*
X23393Y7163D1*
X20603Y13831D2*
X20549D1*
Y14562D1*
X20145Y14158D1*
X20149Y14114D1*
X20132Y13991D1*
X20084Y13876D1*
X20006Y13779D1*
X19905Y13705D1*
X19789Y13661D1*
X19665Y13650D1*
X19542Y13672D1*
X19429Y13726D1*
X19350Y13794D1*
X19307Y13709D1*
X19389Y13670D1*
X19508Y13632D1*
X19616Y13570D1*
X19710Y13487D1*
X19759Y13422D1*
X19818Y13492D1*
X19913Y13574D1*
X20022Y13634D1*
X20141Y13672D1*
X20265Y13684D1*
X20389Y13670D1*
X20430Y13657D1*
X20603Y13833D1*
X16600Y14190D2*
X16717Y14186D1*
X16660Y14190D1*
X16757D1*
X16759Y15005D1*
X16429Y15003D1*
X16432Y14616D1*
X16511Y14536D1*
X16571Y14427D1*
X16602Y14260D1*
X16592Y14186D1*
X17819Y13929D2*
Y13491D1*
X17913Y13574D1*
X18022Y13634D1*
X18141Y13672D1*
X18265Y13684D1*
X18389Y13670D1*
X18430Y13657D1*
X18772Y14004D1*
Y14118D1*
X18597Y14000D1*
X18482Y13953D1*
X18359Y13932D1*
X18234Y13938D1*
X18114Y13970D1*
X18003Y14028D1*
X17919Y14091D1*
Y13931D1*
X17821D1*
X22985Y15359D2*
X23884D1*
X23881Y16078D1*
X23287Y16074D1*
X22984D1*
X22986Y15361D1*
X24473Y15359D2*
X25520D1*
X25524Y16098D1*
X24474Y16091D1*
X24471Y15359D1*
X25347Y14200D2*
X24425D1*
X24451Y14144D1*
X24932D1*
X25053Y14118D1*
X25155Y14041D1*
X25177Y14012D1*
X25313Y13977D1*
X25348D1*
X25344Y14198D1*
X24512Y5477D2*
X22959Y5476D1*
Y5597D1*
X22122Y5594D1*
X21996Y5467D1*
X21997Y5251D1*
X21960Y5033D1*
Y4404D1*
X22172Y4401D1*
X22170Y5408D1*
X23409D1*
X23415Y5274D1*
X23870D1*
X24054Y5252D1*
X24629D1*
Y5100D1*
X24719Y5166D1*
X24832Y5219D1*
X24954Y5247D1*
X25079Y5250D1*
X25201Y5227D1*
X25316Y5179D1*
X25419Y5108D1*
X25502Y5020D1*
X25503Y5473D1*
X24679Y5476D1*
X24376Y5480D1*
X20847Y5408D2*
X20905D1*
X20945Y5489D1*
X21045Y5605D1*
X21099Y5821D1*
X21158Y5931D1*
X21460Y6238D1*
X21201Y6240D1*
X21059Y6126D1*
X20943Y6082D1*
X20818Y6071D1*
X20696Y6093D1*
X20583Y6146D1*
X20489Y6228D1*
X20420Y6332D1*
X20381Y6450D1*
X20375Y6575D1*
X20402Y6696D1*
X20451Y6789D1*
X20101Y6792D1*
X19979Y6818D1*
X19880Y6892D1*
X19818Y7004D1*
X19422Y7001D1*
X18792D1*
X18771Y6962D1*
X18891Y6996D1*
X19015Y6997D1*
X19136Y6964D1*
X19243Y6901D1*
X19330Y6812D1*
X19390Y6703D1*
X19421Y6535D1*
X19404Y6412D1*
X19356Y6297D1*
X19278Y6200D1*
X19177Y6126D1*
X19061Y6082D1*
X18937Y6071D1*
X18814Y6093D1*
X18701Y6146D1*
X18601Y6238D1*
X18038Y6240D1*
X18162Y6124D1*
X18222Y6015D1*
X18253Y5848D1*
X18239Y5744D1*
X18331Y5724D1*
X18446Y5676D1*
X18549Y5605D1*
X18635Y5514D1*
X18657Y5478D1*
X18750Y5588D1*
X18849Y5663D1*
X18962Y5716D1*
X19084Y5744D1*
X19209Y5747D1*
X19331Y5724D1*
X19446Y5676D1*
X19549Y5605D1*
X19635Y5514D1*
X19700Y5408D1*
X19742Y5290D1*
X19759Y5149D1*
X19746Y5025D1*
X19707Y4907D1*
X19645Y4798D1*
X19562Y4705D1*
X19461Y4632D1*
X19348Y4580D1*
X19226Y4554D1*
X19101Y4553D1*
X18979Y4578D1*
X18864Y4627D1*
X18763Y4700D1*
X18660Y4822D1*
X18562Y4705D1*
X18461Y4632D1*
X18348Y4580D1*
X18226Y4554D1*
X18101Y4553D1*
X17979Y4578D1*
X17864Y4627D1*
X17760Y4703D1*
X17759Y4550D1*
X16973D1*
X16807Y4380D1*
X20719Y4396D1*
X20722Y5408D1*
X20847D1*
X22559Y19299D2*
X22555Y18237D1*
X22559Y18294D1*
Y18142D1*
X22634Y18157D1*
X22692D1*
X22695Y19202D1*
Y19297D1*
X22558D1*
X20845Y13240D2*
X20869Y13101D1*
X21257Y13490D1*
Y13650D1*
X20848Y13244D1*
X14584Y10337D2*
X14737Y10238D1*
X14827Y10151D1*
X14904Y10052D1*
X14940Y9987D1*
X15013Y10105D1*
X15096Y10198D1*
X15192Y10278D1*
X15299Y10343D1*
X15414Y10392D1*
X15535Y10423D1*
X15659Y10437D1*
X15784Y10432D1*
X15906Y10410D1*
X16025Y10369D1*
X16136Y10312D1*
X16237Y10240D1*
X16327Y10153D1*
X16404Y10054D1*
X16465Y9945D1*
X16509Y9828D1*
X16536Y9707D1*
X16546Y9582D1*
X16537Y9457D1*
X16517Y9370D1*
X16574Y9414D1*
Y10472D1*
X16417Y10498D1*
X16305Y10551D1*
X16210Y10633D1*
X16136Y10741D1*
X16025Y10684D1*
X15907Y10644D1*
X15784Y10621D1*
X15659Y10617D1*
X15535Y10630D1*
X15414Y10662D1*
X15331Y10697D1*
X15058Y10423D1*
X14950Y10355D1*
X14850Y10336D1*
X14588D1*
X16440Y11879D2*
X16509Y11718D1*
X16536Y11596D1*
X16546Y11472D1*
X16541Y11405D1*
X16618Y11401D1*
X16739Y11369D1*
X16846Y11306D1*
X16933Y11217D1*
X16993Y11108D1*
X17024Y10940D1*
X17019Y10898D1*
X17037Y10879D1*
Y11872D1*
X16447Y11876D1*
X16684Y5749D2*
X16720D1*
Y6242D1*
X16412Y6240D1*
X16415Y5678D1*
X16176D1*
X16228Y5583D1*
X16260Y5415D1*
X16243Y5292D1*
X16229Y5259D1*
X16415Y5263D1*
Y4821D1*
X16559Y4967D1*
Y5749D1*
X16684D1*
X21612Y17113D2*
X20731Y17111D1*
X20828Y17031D1*
X20913Y16940D1*
X20986Y16834D1*
X21101Y16949D1*
X21209Y17017D1*
X21310Y17035D1*
X21608D1*
Y17117D1*
Y15921D2*
X21612Y16218D1*
X21608Y16160D1*
X21603Y16445D1*
X21466D1*
Y15831D1*
X21591Y15914D1*
X21529Y15883D1*
X11929Y14146D2*
X11990Y14212D1*
X12090Y14286D1*
X12203Y14339D1*
X12324Y14370D1*
X12491Y14373D1*
X12552Y14493D1*
X12638Y14584D1*
X12744Y14649D1*
X12864Y14683D1*
X12989D1*
X13109Y14651D1*
X13217Y14588D1*
X13304Y14499D1*
X13364Y14390D1*
X13395Y14222D1*
X13378Y14099D1*
X13329Y13984D1*
X13252Y13887D1*
X13223Y13866D1*
X13225Y12859D1*
X13197Y12734D1*
X13139Y12650D1*
X12954Y12475D1*
Y12466D1*
X17176D1*
Y12501D1*
X15961D1*
X15837Y12530D1*
X15752Y12588D1*
X13446Y14891D1*
X8754D1*
X8780Y14739D1*
X8763Y14615D1*
X8714Y14500D1*
X8637Y14403D1*
X8609Y14382D1*
X8610Y12469D1*
X9829Y12466D1*
X10317D1*
X10272Y12651D1*
X10271Y12775D1*
X10293Y12898D1*
X10339Y13015D1*
X10405Y13120D1*
X10490Y13212D1*
X10590Y13286D1*
X10703Y13339D1*
X10867Y13373D1*
X10797Y13528D1*
X10772Y13651D1*
X10771Y13775D1*
X10793Y13898D1*
X10839Y14015D1*
X10905Y14120D1*
X10990Y14212D1*
X11090Y14286D1*
X11203Y14339D1*
X11324Y14370D1*
X11449Y14378D1*
X11572Y14362D1*
X11691Y14323D1*
X11800Y14263D1*
X11896Y14183D1*
X11928Y14143D1*
X21881Y8487D2*
Y7804D1*
X21993Y7917D1*
X21989Y7999D1*
X22016Y8121D1*
X22075Y8231D1*
X22160Y8321D1*
X22267Y8386D1*
X22387Y8420D1*
X22511Y8421D1*
X22545Y8412D1*
X22466Y8486D1*
X21884D1*
X21881Y8103D1*
X21877D1*
X21862Y7788D2*
X21096D1*
X21094Y7383D1*
X21460Y7384D1*
X21902Y7826D1*
X19137Y8200D2*
X19204Y8196D1*
X19494Y8200D1*
X19491Y8548D1*
X19519Y8672D1*
X19577Y8757D1*
X19779Y8958D1*
X19776Y9041D1*
X19793Y9114D1*
X19515Y9116D1*
X19391Y9145D1*
X19307Y9203D1*
X19205Y9305D1*
X19139Y9235D1*
X19136Y8449D1*
Y8203D1*
X19489Y8200D1*
X14486Y6238D2*
Y5678D1*
X13607D1*
X13609Y5263D1*
X14486D1*
Y4587D1*
X15297Y4586D1*
X15242Y4643D1*
X15138Y4664D1*
X15026Y4717D1*
X14932Y4799D1*
X14862Y4903D1*
X14823Y5021D1*
X14817Y5146D1*
X14844Y5267D1*
X14903Y5377D1*
X14988Y5468D1*
X15095Y5533D1*
X15215Y5567D1*
X15351Y5564D1*
X15411Y5676D1*
X15294Y5678D1*
Y6244D1*
X14876Y6240D1*
X14482D1*
X17832Y15604D2*
X17894Y15689D1*
X17988Y15771D1*
X18097Y15832D1*
X18216Y15868D1*
X18340Y15878D1*
X18464Y15861D1*
X18581Y15818D1*
X18686Y15751D1*
X18772Y15665D1*
X18870Y15725D1*
X18990Y15759D1*
X19115Y15760D1*
X19235Y15727D1*
X19343Y15664D1*
X19429Y15575D1*
X19489Y15466D1*
X19521Y15298D1*
X19504Y15175D1*
X19455Y15060D1*
X19355Y14947D1*
X19429Y14870D1*
X19489Y14760D1*
X19521Y14593D1*
X19515Y14551D1*
X19619Y14575D1*
X19732D1*
X20448Y15295D1*
X20876Y15726D1*
Y15745D1*
X20728Y15618D1*
X20621Y15553D1*
X20507Y15503D1*
X20386Y15470D1*
X20262Y15453D1*
X20138D1*
X20014Y15470D1*
X19894Y15504D1*
X19779Y15554D1*
X19672Y15619D1*
X19576Y15698D1*
X19491Y15789D1*
X19419Y15892D1*
X19362Y16003D1*
X19337Y16072D1*
X17951Y16070D1*
X17635D1*
X17634Y15801D1*
X17702Y15751D1*
X17790Y15662D1*
X17830Y15600D1*
D19*
X11503Y4753D3*
D20*
X10503D3*
X9503D3*
X8503D3*
X7503D3*
D21*
X24113Y11084D3*
X25216D3*
X24113Y9178D3*
X25216D3*
D22*
X16869Y7687D3*
Y8789D3*
D23*
X23688Y7741D3*
X25105D3*
D21*
X22231Y14451D3*
X21129D3*
X22097Y13388D3*
X23200D3*
D22*
X24076Y12323D3*
Y13425D3*
D21*
X16137Y13571D3*
X17240D3*
D23*
X23555Y14780D3*
X24972D3*
X23735Y6056D3*
X25153D3*
D24*
X21341Y4812D3*
X22790D3*
D22*
X21940Y18817D3*
Y17714D3*
D26*
X18262Y12074D3*
D27*
X19262D3*
X20262D3*
Y13074D3*
X19262D3*
X18262D3*
D29*
X14190Y7690D3*
Y9580D3*
Y11470D3*
X15690Y11472D3*
Y9582D3*
Y7692D3*
D19*
X24029Y4653D3*
D20*
X25029D3*
D19*
X17159Y5149D3*
D20*
X18159D3*
X19159D3*
D22*
X24932Y12295D3*
Y13397D3*
D21*
X10503Y6816D3*
X9401D3*
D22*
X21067Y18796D3*
Y17693D3*
X22228Y15638D3*
Y16740D3*
D30*
X12427Y13720D3*
X11927Y12720D3*
X11427Y13720D3*
X10927Y12720D3*
D32*
X21282Y8151D3*
Y8466D3*
Y8781D3*
Y9096D3*
Y9411D3*
Y9726D3*
Y10041D3*
Y10356D3*
D33*
X20731Y10907D3*
X20416D3*
X20101D3*
X19786D3*
X19471D3*
X19156D3*
X18841D3*
X18526D3*
D32*
X17975Y10356D3*
Y10041D3*
Y9726D3*
Y9411D3*
Y9096D3*
Y8781D3*
Y8466D3*
Y8151D3*
D33*
X18526Y7600D3*
X18841D3*
X19156D3*
X19471D3*
X19786D3*
X20101D3*
X20416D3*
X20731D3*
D34*
X13925Y6120D3*
Y4821D3*
X15855D3*
Y6120D3*
D35*
X17339Y14511D3*
D36*
X18323D3*
Y15298D3*
X17339D3*
D37*
X20201Y16365D3*
X15461D3*
D38*
X22759Y11081D3*
Y9181D3*
M02*
