G04 DipTrace 2.4.0.2*
%INTopAssy.gbr*%
%MOIN*%
%ADD10C,0.0098*%
%ADD12C,0.003*%
%ADD95C,0.0046*%
%FSLAX44Y44*%
G04*
G70*
G90*
G75*
G01*
%LNTopAssy*%
%LPD*%
X12495Y4155D2*
D10*
X6511D1*
X23135Y5251D2*
X25923D1*
X20587Y20421D2*
X15075D1*
X10498Y3772D2*
D12*
Y3973D1*
X10412D1*
X10383Y3963D1*
X10373Y3953D1*
X10364Y3934D1*
Y3906D1*
X10373Y3886D1*
X10383Y3877D1*
X10412Y3867D1*
X10383Y3858D1*
X10373Y3848D1*
X10364Y3829D1*
Y3810D1*
X10373Y3791D1*
X10383Y3781D1*
X10412Y3772D1*
X10498D1*
Y3867D2*
X10412D1*
X10245Y3772D2*
X10264Y3781D1*
X10283Y3800D1*
X10293Y3819D1*
X10302Y3848D1*
Y3896D1*
X10293Y3925D1*
X10283Y3944D1*
X10264Y3963D1*
X10245Y3973D1*
X10206D1*
X10187Y3963D1*
X10168Y3944D1*
X10159Y3925D1*
X10149Y3896D1*
Y3848D1*
X10159Y3819D1*
X10168Y3800D1*
X10187Y3781D1*
X10206Y3772D1*
X10245D1*
X9934Y3973D2*
X10011Y3772D1*
X10087Y3973D1*
X10059Y3906D2*
X9963D1*
X9872Y3867D2*
X9786D1*
X9758Y3858D1*
X9748Y3848D1*
X9738Y3829D1*
Y3810D1*
X9748Y3791D1*
X9758Y3781D1*
X9786Y3772D1*
X9872D1*
Y3973D1*
X9805Y3867D2*
X9738Y3973D1*
X9677Y3772D2*
Y3973D1*
X9610D1*
X9581Y3963D1*
X9562Y3944D1*
X9552Y3925D1*
X9543Y3896D1*
Y3848D1*
X9552Y3819D1*
X9562Y3800D1*
X9581Y3781D1*
X9610Y3772D1*
X9677D1*
X9162D2*
X9286D1*
Y3973D1*
X9162D1*
X9286Y3867D2*
X9210D1*
X9100Y3772D2*
Y3973D1*
X9033D1*
X9005Y3963D1*
X8985Y3944D1*
X8976Y3925D1*
X8966Y3896D1*
Y3848D1*
X8976Y3819D1*
X8985Y3800D1*
X9005Y3781D1*
X9033Y3772D1*
X9100D1*
X8761Y3819D2*
X8771Y3800D1*
X8790Y3781D1*
X8809Y3772D1*
X8847D1*
X8866Y3781D1*
X8885Y3800D1*
X8895Y3819D1*
X8905Y3848D1*
Y3896D1*
X8895Y3925D1*
X8885Y3944D1*
X8866Y3963D1*
X8847Y3973D1*
X8809D1*
X8790Y3963D1*
X8771Y3944D1*
X8761Y3925D1*
Y3896D1*
X8809D1*
X8575Y3772D2*
X8699D1*
Y3973D1*
X8575D1*
X8699Y3867D2*
X8623D1*
X23544Y5585D2*
Y5384D1*
X23630D1*
X23659Y5394D1*
X23669Y5403D1*
X23678Y5422D1*
Y5451D1*
X23669Y5470D1*
X23659Y5480D1*
X23630Y5489D1*
X23659Y5499D1*
X23669Y5508D1*
X23678Y5527D1*
Y5547D1*
X23669Y5566D1*
X23659Y5575D1*
X23630Y5585D1*
X23544D1*
Y5489D2*
X23630D1*
X23797Y5585D2*
X23778Y5575D1*
X23759Y5556D1*
X23750Y5537D1*
X23740Y5508D1*
Y5460D1*
X23750Y5432D1*
X23759Y5413D1*
X23778Y5394D1*
X23797Y5384D1*
X23836D1*
X23855Y5394D1*
X23874Y5413D1*
X23883Y5432D1*
X23893Y5460D1*
Y5508D1*
X23883Y5537D1*
X23874Y5556D1*
X23855Y5575D1*
X23836Y5585D1*
X23797D1*
X24108Y5384D2*
X24031Y5585D1*
X23955Y5384D1*
X23983Y5451D2*
X24079D1*
X24170Y5489D2*
X24256D1*
X24284Y5499D1*
X24294Y5508D1*
X24304Y5527D1*
Y5547D1*
X24294Y5566D1*
X24284Y5575D1*
X24256Y5585D1*
X24170D1*
Y5384D1*
X24237Y5489D2*
X24304Y5384D1*
X24365Y5585D2*
Y5384D1*
X24432D1*
X24461Y5394D1*
X24480Y5413D1*
X24490Y5432D1*
X24499Y5460D1*
Y5508D1*
X24490Y5537D1*
X24480Y5556D1*
X24461Y5575D1*
X24432Y5585D1*
X24365D1*
X24880D2*
X24756D1*
Y5384D1*
X24880D1*
X24756Y5489D2*
X24832D1*
X24942Y5585D2*
Y5384D1*
X25009D1*
X25037Y5394D1*
X25057Y5413D1*
X25066Y5432D1*
X25076Y5460D1*
Y5508D1*
X25066Y5537D1*
X25057Y5556D1*
X25037Y5575D1*
X25009Y5585D1*
X24942D1*
X25281Y5537D2*
X25271Y5556D1*
X25252Y5575D1*
X25233Y5585D1*
X25195D1*
X25176Y5575D1*
X25157Y5556D1*
X25147Y5537D1*
X25137Y5508D1*
Y5460D1*
X25147Y5432D1*
X25157Y5413D1*
X25176Y5394D1*
X25195Y5384D1*
X25233D1*
X25252Y5394D1*
X25271Y5413D1*
X25281Y5432D1*
Y5460D1*
X25233D1*
X25467Y5585D2*
X25343D1*
Y5384D1*
X25467D1*
X25343Y5489D2*
X25419D1*
X17267Y20039D2*
D95*
X17454D1*
Y20341D1*
X17267D1*
X17454Y20183D2*
X17339D1*
X17175Y20039D2*
Y20341D1*
X17074D1*
X17031Y20326D1*
X17002Y20297D1*
X16988Y20269D1*
X16974Y20226D1*
Y20154D1*
X16988Y20111D1*
X17002Y20082D1*
X17031Y20053D1*
X17074Y20039D1*
X17175D1*
X16666Y20111D2*
X16680Y20082D1*
X16709Y20053D1*
X16738Y20039D1*
X16795D1*
X16824Y20053D1*
X16852Y20082D1*
X16867Y20111D1*
X16881Y20154D1*
Y20226D1*
X16867Y20269D1*
X16852Y20297D1*
X16824Y20326D1*
X16795Y20341D1*
X16738D1*
X16709Y20326D1*
X16680Y20297D1*
X16666Y20269D1*
Y20226D1*
X16738D1*
X16387Y20039D2*
X16573D1*
Y20341D1*
X16387D1*
X16573Y20183D2*
X16459D1*
X19245Y20043D2*
Y20344D1*
X19116D1*
X19073Y20330D1*
X19058Y20315D1*
X19044Y20287D1*
Y20244D1*
X19058Y20215D1*
X19073Y20201D1*
X19116Y20186D1*
X19073Y20172D1*
X19058Y20158D1*
X19044Y20129D1*
Y20100D1*
X19058Y20072D1*
X19073Y20057D1*
X19116Y20043D1*
X19245D1*
Y20186D2*
X19116D1*
X18865Y20043D2*
X18894Y20057D1*
X18923Y20086D1*
X18937Y20115D1*
X18952Y20158D1*
Y20230D1*
X18937Y20272D1*
X18923Y20301D1*
X18894Y20330D1*
X18865Y20344D1*
X18808D1*
X18779Y20330D1*
X18751Y20301D1*
X18736Y20272D1*
X18722Y20230D1*
Y20158D1*
X18736Y20115D1*
X18751Y20086D1*
X18779Y20057D1*
X18808Y20043D1*
X18865D1*
X18400Y20344D2*
X18515Y20043D1*
X18629Y20344D1*
X18586Y20244D2*
X18443D1*
X18307Y20186D2*
X18178D1*
X18135Y20172D1*
X18120Y20158D1*
X18106Y20129D1*
Y20100D1*
X18120Y20072D1*
X18135Y20057D1*
X18178Y20043D1*
X18307D1*
Y20344D1*
X18206Y20186D2*
X18106Y20344D1*
X18013Y20043D2*
Y20344D1*
X17913D1*
X17870Y20330D1*
X17841Y20301D1*
X17827Y20272D1*
X17812Y20230D1*
Y20158D1*
X17827Y20115D1*
X17841Y20086D1*
X17870Y20057D1*
X17913Y20043D1*
X18013D1*
M02*
