G04 DipTrace 2.4.0.2*
%INTopDimension.gbr*%
%MOIN*%
%ADD13C,0.0014*%
%ADD97C,0.0062*%
%FSLAX44Y44*%
G04*
G70*
G90*
G75*
G01*
%LNTopDimension*%
%LPD*%
X6690Y19690D2*
D13*
X-3132D1*
X9451Y20419D2*
X-3132D1*
X-2935D2*
Y19690D1*
Y21009D2*
Y20813D1*
G36*
Y20419D2*
X-3014Y20813D1*
X-2856D1*
X-2935Y20419D1*
G37*
Y19100D2*
D13*
Y19296D1*
G36*
Y19690D2*
X-2856Y19296D1*
X-3014D1*
X-2935Y19690D1*
G37*
Y21853D2*
D13*
Y20419D1*
X13904D2*
X14762D1*
X15429Y20421D2*
X14368D1*
X14565D2*
Y20419D1*
Y21011D2*
Y20814D1*
G36*
Y20421D2*
X14486Y20814D1*
X14644D1*
X14565Y20421D1*
G37*
Y19828D2*
D13*
Y20025D1*
G36*
Y20419D2*
X14644Y20025D1*
X14486D1*
X14565Y20419D1*
G37*
Y19757D2*
D13*
Y20421D1*
X3940Y16815D2*
Y24637D1*
X9451Y20419D2*
Y24637D1*
X6696Y24440D2*
X4334D1*
G36*
X3940D2*
X4334Y24519D1*
Y24361D1*
X3940Y24440D1*
G37*
X6696D2*
D13*
X9057D1*
G36*
X9451D2*
X9057Y24361D1*
Y24519D1*
X9451Y24440D1*
G37*
X20233Y20421D2*
D13*
Y24887D1*
X25940Y16690D2*
Y24887D1*
X23086Y24690D2*
X20626D1*
G36*
X20233D2*
X20626Y24769D1*
Y24611D1*
X20233Y24690D1*
G37*
X23086D2*
D13*
X25546D1*
G36*
X25940D2*
X25546Y24611D1*
Y24769D1*
X25940Y24690D1*
G37*
X3940Y16815D2*
D13*
Y28327D1*
X25940Y16690D2*
Y28327D1*
X14940Y28130D2*
X4334D1*
G36*
X3940D2*
X4334Y28209D1*
Y28052D1*
X3940Y28130D1*
G37*
X14940D2*
D13*
X25546D1*
G36*
X25940D2*
X25546Y28052D1*
Y28209D1*
X25940Y28130D1*
G37*
X3940Y16815D2*
D13*
Y20387D1*
X6690Y16815D2*
Y20387D1*
X5315Y20190D2*
X4334D1*
G36*
X3940D2*
X4334Y20269D1*
Y20111D1*
X3940Y20190D1*
G37*
X5315D2*
D13*
X6296D1*
G36*
X6690D2*
X6296Y20111D1*
Y20269D1*
X6690Y20190D1*
G37*
Y19690D2*
D13*
X993D1*
X3940Y16815D2*
X993D1*
X1190Y18253D2*
Y19296D1*
G36*
Y19690D2*
X1269Y19296D1*
X1111D1*
X1190Y19690D1*
G37*
Y18253D2*
D13*
Y17209D1*
G36*
Y16815D2*
X1111Y17209D1*
X1269D1*
X1190Y16815D1*
G37*
X23190Y19690D2*
D13*
X30262D1*
X23190Y16690D2*
X30262D1*
X30065Y18190D2*
Y19296D1*
G36*
Y19690D2*
X30144Y19296D1*
X29986D1*
X30065Y19690D1*
G37*
Y18190D2*
D13*
Y17084D1*
G36*
Y16690D2*
X29986Y17084D1*
X30144D1*
X30065Y16690D1*
G37*
X23190Y19690D2*
D13*
Y21887D1*
X25940Y16690D2*
Y21887D1*
X24565Y21690D2*
X23584D1*
G36*
X23190D2*
X23584Y21769D1*
Y21611D1*
X23190Y21690D1*
G37*
X24565D2*
D13*
X25546D1*
G36*
X25940D2*
X25546Y21611D1*
Y21769D1*
X25940Y21690D1*
G37*
X6690Y19690D2*
D13*
X-6507D1*
X3940Y3940D2*
X-6507D1*
X-6310Y11815D2*
Y19296D1*
G36*
Y19690D2*
X-6231Y19296D1*
X-6389D1*
X-6310Y19690D1*
G37*
Y11815D2*
D13*
Y4334D1*
G36*
Y3940D2*
X-6389Y4334D1*
X-6231D1*
X-6310Y3940D1*
G37*
X3940Y16815D2*
D13*
Y27262D1*
X14940Y3940D2*
Y27262D1*
X9440Y27065D2*
X4334D1*
G36*
X3940D2*
X4334Y27144D1*
Y26986D1*
X3940Y27065D1*
G37*
X9440D2*
D13*
X14546D1*
G36*
X14940D2*
X14546Y26986D1*
Y27144D1*
X14940Y27065D1*
G37*
X14190Y11470D2*
D13*
Y2618D1*
X14940Y3940D2*
Y2618D1*
X14190Y2815D2*
X14940D1*
X13600D2*
X13796D1*
G36*
X14190D2*
X13796Y2736D1*
Y2894D1*
X14190Y2815D1*
G37*
X15531D2*
D13*
X15334D1*
G36*
X14940D2*
X15334Y2894D1*
Y2736D1*
X14940Y2815D1*
G37*
X15964D2*
D13*
X14940D1*
X15690Y7692D2*
Y1993D1*
X14940Y2815D2*
Y1993D1*
Y2190D2*
X15690D1*
X14350D2*
X14546D1*
G36*
X14940D2*
X14546Y2111D1*
Y2269D1*
X14940Y2190D1*
G37*
X16281D2*
D13*
X16084D1*
G36*
X15690D2*
X16084Y2269D1*
Y2111D1*
X15690Y2190D1*
G37*
X16934D2*
D13*
X15690D1*
X14190Y11470D2*
X17262D1*
X15690Y11472D2*
X17262D1*
X17065D2*
Y11470D1*
Y12062D2*
Y11865D1*
G36*
Y11472D2*
X16986Y11865D1*
X17144D1*
X17065Y11472D1*
G37*
Y10879D2*
D13*
Y11076D1*
G36*
Y11470D2*
X17144Y11076D1*
X16986D1*
X17065Y11470D1*
G37*
Y10035D2*
D13*
Y11472D1*
X6690Y19690D2*
X-1632D1*
X14190Y11470D2*
X-1632D1*
X-1435Y15580D2*
Y19296D1*
G36*
Y19690D2*
X-1356Y19296D1*
X-1514D1*
X-1435Y19690D1*
G37*
Y15580D2*
D13*
Y11863D1*
G36*
Y11470D2*
X-1514Y11863D1*
X-1356D1*
X-1435Y11470D1*
G37*
X6690Y19690D2*
D13*
X-3132D1*
X14190Y9580D2*
X-3132D1*
X-2935Y14635D2*
Y19296D1*
G36*
Y19690D2*
X-2856Y19296D1*
X-3014D1*
X-2935Y19690D1*
G37*
Y14635D2*
D13*
Y9974D1*
G36*
Y9580D2*
X-3014Y9974D1*
X-2856D1*
X-2935Y9580D1*
G37*
X13904Y20419D2*
D13*
Y29262D1*
X15429Y20421D2*
Y29262D1*
X13904Y29065D2*
X15429D1*
X13313D2*
X13510D1*
G36*
X13904D2*
X13510Y28986D1*
Y29144D1*
X13904Y29065D1*
G37*
X16020D2*
D13*
X15823D1*
G36*
X15429D2*
X15823Y29144D1*
Y28986D1*
X15429Y29065D1*
G37*
X17746Y13590D2*
D13*
Y22512D1*
X20233Y20421D2*
Y22512D1*
X18989Y22315D2*
X18140D1*
G36*
X17746D2*
X18140Y22394D1*
Y22236D1*
X17746Y22315D1*
G37*
X18989D2*
D13*
X19839D1*
G36*
X20233D2*
X19839Y22236D1*
Y22394D1*
X20233Y22315D1*
G37*
X23190Y19690D2*
D13*
Y26512D1*
X6690Y19690D2*
Y26512D1*
X14940Y26315D2*
X22796D1*
G36*
X23190D2*
X22796Y26236D1*
Y26394D1*
X23190Y26315D1*
G37*
X14940D2*
D13*
X7084D1*
G36*
X6690D2*
X7084Y26394D1*
Y26236D1*
X6690Y26315D1*
G37*
X-3382Y20905D2*
D97*
X-3401Y20944D1*
X-3458Y21001D1*
X-3057D1*
X-3095Y21144D2*
X-3076Y21125D1*
X-3057Y21144D1*
X-3076Y21163D1*
X-3095Y21144D1*
X-3458Y21382D2*
X-3439Y21325D1*
X-3401Y21306D1*
X-3363D1*
X-3325Y21325D1*
X-3305Y21363D1*
X-3286Y21440D1*
X-3267Y21497D1*
X-3229Y21535D1*
X-3191Y21554D1*
X-3133D1*
X-3095Y21535D1*
X-3076Y21516D1*
X-3057Y21459D1*
Y21382D1*
X-3076Y21325D1*
X-3095Y21306D1*
X-3133Y21287D1*
X-3191D1*
X-3229Y21306D1*
X-3267Y21344D1*
X-3286Y21401D1*
X-3305Y21478D1*
X-3325Y21516D1*
X-3363Y21535D1*
X-3401D1*
X-3439Y21516D1*
X-3458Y21459D1*
Y21382D1*
Y21907D2*
Y21716D1*
X-3286Y21697D1*
X-3305Y21716D1*
X-3325Y21774D1*
Y21831D1*
X-3305Y21888D1*
X-3267Y21927D1*
X-3210Y21946D1*
X-3172D1*
X-3114Y21927D1*
X-3076Y21888D1*
X-3057Y21831D1*
Y21774D1*
X-3076Y21716D1*
X-3095Y21697D1*
X-3133Y21678D1*
X15089Y19818D2*
X15070Y19875D1*
X15012Y19914D1*
X14917Y19933D1*
X14859D1*
X14764Y19914D1*
X14706Y19875D1*
X14687Y19818D1*
Y19780D1*
X14706Y19722D1*
X14764Y19684D1*
X14859Y19665D1*
X14917D1*
X15012Y19684D1*
X15070Y19722D1*
X15089Y19780D1*
Y19818D1*
X15012Y19684D2*
X14764Y19914D1*
X6473Y24887D2*
X6512Y24907D1*
X6569Y24964D1*
Y24562D1*
X6884D2*
Y24964D1*
X6693Y24696D1*
X6980D1*
X22587Y25137D2*
X22626Y25157D1*
X22683Y25214D1*
Y24812D1*
X22998D2*
Y25214D1*
X22807Y24946D1*
X23094D1*
X23236Y24851D2*
X23217Y24831D1*
X23236Y24812D1*
X23256Y24831D1*
X23236Y24851D1*
X23609Y25214D2*
X23418D1*
X23399Y25042D1*
X23418Y25061D1*
X23475Y25080D1*
X23532D1*
X23590Y25061D1*
X23628Y25023D1*
X23647Y24965D1*
Y24927D1*
X23628Y24870D1*
X23590Y24831D1*
X23532Y24812D1*
X23475D1*
X23418Y24831D1*
X23399Y24851D1*
X23379Y24889D1*
X14399Y28654D2*
X14208D1*
X14189Y28482D1*
X14208Y28501D1*
X14265Y28521D1*
X14322D1*
X14380Y28501D1*
X14418Y28463D1*
X14437Y28406D1*
Y28368D1*
X14418Y28310D1*
X14380Y28272D1*
X14322Y28253D1*
X14265D1*
X14208Y28272D1*
X14189Y28291D1*
X14169Y28329D1*
X14790Y28654D2*
X14599D1*
X14580Y28482D1*
X14599Y28501D1*
X14657Y28521D1*
X14714D1*
X14771Y28501D1*
X14810Y28463D1*
X14829Y28406D1*
Y28368D1*
X14810Y28310D1*
X14771Y28272D1*
X14714Y28253D1*
X14657D1*
X14599Y28272D1*
X14580Y28291D1*
X14561Y28329D1*
X14971Y28291D2*
X14952Y28272D1*
X14971Y28253D1*
X14991Y28272D1*
X14971Y28291D1*
X15210Y28654D2*
X15153Y28635D1*
X15133Y28597D1*
Y28559D1*
X15153Y28521D1*
X15191Y28501D1*
X15267Y28482D1*
X15325Y28463D1*
X15363Y28425D1*
X15382Y28387D1*
Y28329D1*
X15363Y28291D1*
X15344Y28272D1*
X15286Y28253D1*
X15210D1*
X15153Y28272D1*
X15133Y28291D1*
X15114Y28329D1*
Y28387D1*
X15133Y28425D1*
X15172Y28463D1*
X15229Y28482D1*
X15305Y28501D1*
X15344Y28521D1*
X15363Y28559D1*
Y28597D1*
X15344Y28635D1*
X15286Y28654D1*
X15210D1*
X15601D2*
X15544Y28635D1*
X15524Y28597D1*
Y28559D1*
X15544Y28521D1*
X15582Y28501D1*
X15658Y28482D1*
X15716Y28463D1*
X15754Y28425D1*
X15773Y28387D1*
Y28329D1*
X15754Y28291D1*
X15735Y28272D1*
X15677Y28253D1*
X15601D1*
X15544Y28272D1*
X15524Y28291D1*
X15505Y28329D1*
Y28387D1*
X15524Y28425D1*
X15563Y28463D1*
X15620Y28482D1*
X15696Y28501D1*
X15735Y28521D1*
X15754Y28559D1*
Y28597D1*
X15735Y28635D1*
X15677Y28654D1*
X15601D1*
X4998Y20657D2*
X4979Y20695D1*
X4921Y20714D1*
X4883D1*
X4826Y20695D1*
X4787Y20637D1*
X4768Y20542D1*
Y20446D1*
X4787Y20370D1*
X4826Y20331D1*
X4883Y20312D1*
X4902D1*
X4959Y20331D1*
X4998Y20370D1*
X5017Y20427D1*
Y20446D1*
X4998Y20504D1*
X4959Y20542D1*
X4902Y20561D1*
X4883D1*
X4826Y20542D1*
X4787Y20504D1*
X4768Y20446D1*
X5159Y20351D2*
X5140Y20331D1*
X5159Y20312D1*
X5179Y20331D1*
X5159Y20351D1*
X5551Y20580D2*
X5532Y20523D1*
X5494Y20484D1*
X5436Y20465D1*
X5417D1*
X5360Y20484D1*
X5322Y20523D1*
X5302Y20580D1*
Y20599D1*
X5322Y20657D1*
X5360Y20695D1*
X5417Y20714D1*
X5436D1*
X5494Y20695D1*
X5532Y20657D1*
X5551Y20580D1*
Y20484D1*
X5532Y20389D1*
X5494Y20331D1*
X5436Y20312D1*
X5398D1*
X5341Y20331D1*
X5322Y20370D1*
X5924Y20580D2*
X5904Y20523D1*
X5866Y20484D1*
X5809Y20465D1*
X5790D1*
X5732Y20484D1*
X5694Y20523D1*
X5675Y20580D1*
Y20599D1*
X5694Y20657D1*
X5732Y20695D1*
X5790Y20714D1*
X5809D1*
X5866Y20695D1*
X5904Y20657D1*
X5924Y20580D1*
Y20484D1*
X5904Y20389D1*
X5866Y20331D1*
X5809Y20312D1*
X5771D1*
X5713Y20331D1*
X5694Y20370D1*
X1068Y17949D2*
X667Y18141D1*
Y17873D1*
X1030Y18283D2*
X1049Y18264D1*
X1068Y18283D1*
X1049Y18303D1*
X1030Y18283D1*
X667Y18465D2*
Y18675D1*
X820Y18560D1*
Y18618D1*
X839Y18656D1*
X858Y18675D1*
X915Y18694D1*
X953D1*
X1011Y18675D1*
X1049Y18637D1*
X1068Y18579D1*
Y18522D1*
X1049Y18465D1*
X1030Y18446D1*
X992Y18426D1*
X30187Y18679D2*
X30589Y18488D1*
Y18756D1*
X30226Y18346D2*
X30206Y18365D1*
X30187Y18346D1*
X30206Y18326D1*
X30226Y18346D1*
X30532Y17973D2*
X30570Y17992D1*
X30589Y18050D1*
Y18088D1*
X30570Y18145D1*
X30512Y18184D1*
X30417Y18203D1*
X30321D1*
X30245Y18184D1*
X30206Y18145D1*
X30187Y18088D1*
Y18069D1*
X30206Y18012D1*
X30245Y17973D1*
X30302Y17954D1*
X30321D1*
X30379Y17973D1*
X30417Y18012D1*
X30436Y18069D1*
Y18088D1*
X30417Y18145D1*
X30379Y18184D1*
X30321Y18203D1*
X30493Y17811D2*
X30512D1*
X30551Y17792D1*
X30570Y17773D1*
X30589Y17735D1*
Y17658D1*
X30570Y17620D1*
X30551Y17601D1*
X30512Y17582D1*
X30474D1*
X30436Y17601D1*
X30379Y17639D1*
X30187Y17831D1*
Y17563D1*
X24248Y22157D2*
X24229Y22195D1*
X24171Y22214D1*
X24133D1*
X24076Y22195D1*
X24037Y22137D1*
X24018Y22042D1*
Y21946D1*
X24037Y21870D1*
X24076Y21831D1*
X24133Y21812D1*
X24152D1*
X24209Y21831D1*
X24248Y21870D1*
X24267Y21927D1*
Y21946D1*
X24248Y22004D1*
X24209Y22042D1*
X24152Y22061D1*
X24133D1*
X24076Y22042D1*
X24037Y22004D1*
X24018Y21946D1*
X24409Y21851D2*
X24390Y21831D1*
X24409Y21812D1*
X24429Y21831D1*
X24409Y21851D1*
X24801Y22080D2*
X24782Y22023D1*
X24744Y21984D1*
X24686Y21965D1*
X24667D1*
X24610Y21984D1*
X24572Y22023D1*
X24552Y22080D1*
Y22099D1*
X24572Y22157D1*
X24610Y22195D1*
X24667Y22214D1*
X24686D1*
X24744Y22195D1*
X24782Y22157D1*
X24801Y22080D1*
Y21984D1*
X24782Y21889D1*
X24744Y21831D1*
X24686Y21812D1*
X24648D1*
X24591Y21831D1*
X24572Y21870D1*
X25174Y22080D2*
X25154Y22023D1*
X25116Y21984D1*
X25059Y21965D1*
X25040D1*
X24982Y21984D1*
X24944Y22023D1*
X24925Y22080D1*
Y22099D1*
X24944Y22157D1*
X24982Y22195D1*
X25040Y22214D1*
X25059D1*
X25116Y22195D1*
X25154Y22157D1*
X25174Y22080D1*
Y21984D1*
X25154Y21889D1*
X25116Y21831D1*
X25059Y21812D1*
X25021D1*
X24963Y21831D1*
X24944Y21870D1*
X-6432Y11312D2*
X-6833D1*
X-6566Y11120D1*
Y11407D1*
X-6833Y11646D2*
X-6814Y11588D1*
X-6757Y11550D1*
X-6661Y11531D1*
X-6604D1*
X-6508Y11550D1*
X-6451Y11588D1*
X-6432Y11646D1*
Y11684D1*
X-6451Y11741D1*
X-6508Y11779D1*
X-6604Y11799D1*
X-6661D1*
X-6757Y11779D1*
X-6814Y11741D1*
X-6833Y11684D1*
Y11646D1*
X-6757Y11779D2*
X-6508Y11550D1*
X-6470Y11941D2*
X-6451Y11922D1*
X-6432Y11941D1*
X-6451Y11961D1*
X-6470Y11941D1*
X-6833Y12199D2*
X-6814Y12142D1*
X-6757Y12103D1*
X-6661Y12084D1*
X-6604D1*
X-6508Y12103D1*
X-6451Y12142D1*
X-6432Y12199D1*
Y12237D1*
X-6451Y12295D1*
X-6508Y12333D1*
X-6604Y12352D1*
X-6661D1*
X-6757Y12333D1*
X-6814Y12295D1*
X-6833Y12237D1*
Y12199D1*
X-6757Y12333D2*
X-6508Y12103D1*
X-6757Y12476D2*
X-6776Y12514D1*
X-6833Y12572D1*
X-6432D1*
X8688Y27493D2*
Y27512D1*
X8707Y27551D1*
X8726Y27570D1*
X8765Y27589D1*
X8841D1*
X8879Y27570D1*
X8898Y27551D1*
X8918Y27512D1*
Y27474D1*
X8898Y27436D1*
X8860Y27379D1*
X8669Y27187D1*
X8937D1*
X9137D2*
X9328Y27589D1*
X9060D1*
X9471Y27226D2*
X9452Y27206D1*
X9471Y27187D1*
X9490Y27206D1*
X9471Y27226D1*
X9863Y27455D2*
X9843Y27398D1*
X9805Y27359D1*
X9748Y27340D1*
X9729D1*
X9671Y27359D1*
X9633Y27398D1*
X9614Y27455D1*
Y27474D1*
X9633Y27532D1*
X9671Y27570D1*
X9729Y27589D1*
X9748D1*
X9805Y27570D1*
X9843Y27532D1*
X9863Y27455D1*
Y27359D1*
X9843Y27264D1*
X9805Y27206D1*
X9748Y27187D1*
X9710D1*
X9652Y27206D1*
X9633Y27245D1*
X10178Y27187D2*
Y27589D1*
X9986Y27321D1*
X10273D1*
X15426Y3262D2*
X15465Y3282D1*
X15522Y3339D1*
Y2937D1*
X15665Y2976D2*
X15646Y2956D1*
X15665Y2937D1*
X15684Y2956D1*
X15665Y2976D1*
X16057Y3205D2*
X16037Y3148D1*
X15999Y3109D1*
X15942Y3090D1*
X15923D1*
X15865Y3109D1*
X15827Y3148D1*
X15808Y3205D1*
Y3224D1*
X15827Y3282D1*
X15865Y3320D1*
X15923Y3339D1*
X15942D1*
X15999Y3320D1*
X16037Y3282D1*
X16057Y3205D1*
Y3109D1*
X16037Y3014D1*
X15999Y2956D1*
X15942Y2937D1*
X15904D1*
X15846Y2956D1*
X15827Y2995D1*
X16176Y2637D2*
X16215Y2657D1*
X16272Y2714D1*
Y2312D1*
X16415Y2351D2*
X16396Y2331D1*
X16415Y2312D1*
X16434Y2331D1*
X16415Y2351D1*
X16807Y2580D2*
X16787Y2523D1*
X16749Y2484D1*
X16692Y2465D1*
X16673D1*
X16615Y2484D1*
X16577Y2523D1*
X16558Y2580D1*
Y2599D1*
X16577Y2657D1*
X16615Y2695D1*
X16673Y2714D1*
X16692D1*
X16749Y2695D1*
X16787Y2657D1*
X16807Y2580D1*
Y2484D1*
X16787Y2389D1*
X16749Y2331D1*
X16692Y2312D1*
X16654D1*
X16596Y2331D1*
X16577Y2370D1*
X16930Y2637D2*
X16969Y2657D1*
X17026Y2714D1*
Y2312D1*
X17589Y10868D2*
X17570Y10926D1*
X17512Y10964D1*
X17417Y10983D1*
X17359D1*
X17264Y10964D1*
X17206Y10926D1*
X17187Y10868D1*
Y10830D1*
X17206Y10773D1*
X17264Y10735D1*
X17359Y10715D1*
X17417D1*
X17512Y10735D1*
X17570Y10773D1*
X17589Y10830D1*
Y10868D1*
X17512Y10735D2*
X17264Y10964D1*
X17226Y10573D2*
X17206Y10592D1*
X17187Y10573D1*
X17206Y10553D1*
X17226Y10573D1*
X17589Y10315D2*
X17570Y10372D1*
X17512Y10411D1*
X17417Y10430D1*
X17359D1*
X17264Y10411D1*
X17206Y10372D1*
X17187Y10315D1*
Y10277D1*
X17206Y10219D1*
X17264Y10181D1*
X17359Y10162D1*
X17417D1*
X17512Y10181D1*
X17570Y10219D1*
X17589Y10277D1*
Y10315D1*
X17512Y10181D2*
X17264Y10411D1*
X17512Y10038D2*
X17532Y10000D1*
X17589Y9942D1*
X17187D1*
X-1863Y14829D2*
X-1882D1*
X-1920Y14848D1*
X-1939Y14867D1*
X-1958Y14905D1*
Y14982D1*
X-1939Y15020D1*
X-1920Y15039D1*
X-1882Y15058D1*
X-1844D1*
X-1805Y15039D1*
X-1748Y15001D1*
X-1557Y14809D1*
Y15077D1*
X-1958Y15316D2*
X-1939Y15258D1*
X-1882Y15220D1*
X-1786Y15201D1*
X-1729D1*
X-1633Y15220D1*
X-1576Y15258D1*
X-1557Y15316D1*
Y15354D1*
X-1576Y15411D1*
X-1633Y15449D1*
X-1729Y15468D1*
X-1786D1*
X-1882Y15449D1*
X-1939Y15411D1*
X-1958Y15354D1*
Y15316D1*
X-1882Y15449D2*
X-1633Y15220D1*
X-1595Y15611D2*
X-1576Y15592D1*
X-1557Y15611D1*
X-1576Y15630D1*
X-1595Y15611D1*
X-1958Y15849D2*
X-1939Y15792D1*
X-1901Y15773D1*
X-1863D1*
X-1825Y15792D1*
X-1805Y15830D1*
X-1786Y15907D1*
X-1767Y15964D1*
X-1729Y16002D1*
X-1691Y16021D1*
X-1633D1*
X-1595Y16002D1*
X-1576Y15983D1*
X-1557Y15926D1*
Y15849D1*
X-1576Y15792D1*
X-1595Y15773D1*
X-1633Y15754D1*
X-1691D1*
X-1729Y15773D1*
X-1767Y15811D1*
X-1786Y15869D1*
X-1805Y15945D1*
X-1825Y15983D1*
X-1863Y16002D1*
X-1901D1*
X-1939Y15983D1*
X-1958Y15926D1*
Y15849D1*
Y16241D2*
X-1939Y16183D1*
X-1901Y16164D1*
X-1863D1*
X-1825Y16183D1*
X-1805Y16222D1*
X-1786Y16298D1*
X-1767Y16355D1*
X-1729Y16394D1*
X-1691Y16413D1*
X-1633D1*
X-1595Y16394D1*
X-1576Y16374D1*
X-1557Y16317D1*
Y16241D1*
X-1576Y16183D1*
X-1595Y16164D1*
X-1633Y16145D1*
X-1691D1*
X-1729Y16164D1*
X-1767Y16202D1*
X-1786Y16260D1*
X-1805Y16336D1*
X-1825Y16374D1*
X-1863Y16394D1*
X-1901D1*
X-1939Y16374D1*
X-1958Y16317D1*
Y16241D1*
X-3363Y13893D2*
X-3382D1*
X-3420Y13912D1*
X-3439Y13931D1*
X-3458Y13970D1*
Y14046D1*
X-3439Y14084D1*
X-3420Y14103D1*
X-3382Y14123D1*
X-3344D1*
X-3305Y14103D1*
X-3248Y14065D1*
X-3057Y13874D1*
Y14142D1*
X-3458Y14495D2*
Y14304D1*
X-3286Y14285D1*
X-3305Y14304D1*
X-3325Y14361D1*
Y14418D1*
X-3305Y14476D1*
X-3267Y14514D1*
X-3210Y14533D1*
X-3172D1*
X-3114Y14514D1*
X-3076Y14476D1*
X-3057Y14418D1*
Y14361D1*
X-3076Y14304D1*
X-3095Y14285D1*
X-3133Y14265D1*
X-3095Y14676D2*
X-3076Y14657D1*
X-3057Y14676D1*
X-3076Y14695D1*
X-3095Y14676D1*
X-3401Y15048D2*
X-3439Y15029D1*
X-3458Y14972D1*
Y14934D1*
X-3439Y14876D1*
X-3382Y14838D1*
X-3286Y14819D1*
X-3191D1*
X-3114Y14838D1*
X-3076Y14876D1*
X-3057Y14934D1*
Y14953D1*
X-3076Y15010D1*
X-3114Y15048D1*
X-3172Y15067D1*
X-3191D1*
X-3248Y15048D1*
X-3286Y15010D1*
X-3305Y14953D1*
Y14934D1*
X-3286Y14876D1*
X-3248Y14838D1*
X-3191Y14819D1*
X-3458Y15286D2*
X-3439Y15229D1*
X-3401Y15210D1*
X-3363D1*
X-3325Y15229D1*
X-3305Y15267D1*
X-3286Y15344D1*
X-3267Y15401D1*
X-3229Y15439D1*
X-3191Y15458D1*
X-3133D1*
X-3095Y15439D1*
X-3076Y15420D1*
X-3057Y15363D1*
Y15286D1*
X-3076Y15229D1*
X-3095Y15210D1*
X-3133Y15191D1*
X-3191D1*
X-3229Y15210D1*
X-3267Y15248D1*
X-3286Y15305D1*
X-3305Y15382D1*
X-3325Y15420D1*
X-3363Y15439D1*
X-3401D1*
X-3439Y15420D1*
X-3458Y15363D1*
Y15286D1*
X14130Y29589D2*
X14340D1*
X14225Y29436D1*
X14283D1*
X14321Y29417D1*
X14340Y29398D1*
X14359Y29340D1*
Y29302D1*
X14340Y29245D1*
X14302Y29206D1*
X14244Y29187D1*
X14187D1*
X14130Y29206D1*
X14111Y29226D1*
X14091Y29264D1*
X14502Y29226D2*
X14483Y29206D1*
X14502Y29187D1*
X14521Y29206D1*
X14502Y29226D1*
X14740Y29589D2*
X14683Y29570D1*
X14664Y29532D1*
Y29493D1*
X14683Y29455D1*
X14721Y29436D1*
X14797Y29417D1*
X14855Y29398D1*
X14893Y29359D1*
X14912Y29321D1*
Y29264D1*
X14893Y29226D1*
X14874Y29206D1*
X14817Y29187D1*
X14740D1*
X14683Y29206D1*
X14664Y29226D1*
X14645Y29264D1*
Y29321D1*
X14664Y29359D1*
X14702Y29398D1*
X14759Y29417D1*
X14836Y29436D1*
X14874Y29455D1*
X14893Y29493D1*
Y29532D1*
X14874Y29570D1*
X14817Y29589D1*
X14740D1*
X15112Y29187D2*
X15303Y29589D1*
X15036D1*
X18653Y22782D2*
X18634Y22820D1*
X18577Y22839D1*
X18539D1*
X18481Y22820D1*
X18443Y22762D1*
X18424Y22667D1*
Y22571D1*
X18443Y22495D1*
X18481Y22456D1*
X18539Y22437D1*
X18558D1*
X18615Y22456D1*
X18653Y22495D1*
X18672Y22552D1*
Y22571D1*
X18653Y22629D1*
X18615Y22667D1*
X18558Y22686D1*
X18539D1*
X18481Y22667D1*
X18443Y22629D1*
X18424Y22571D1*
X18815Y22476D2*
X18796Y22456D1*
X18815Y22437D1*
X18834Y22456D1*
X18815Y22476D1*
X18996Y22839D2*
X19206D1*
X19092Y22686D1*
X19149D1*
X19187Y22667D1*
X19206Y22648D1*
X19225Y22590D1*
Y22552D1*
X19206Y22495D1*
X19168Y22456D1*
X19111Y22437D1*
X19053D1*
X18996Y22456D1*
X18977Y22476D1*
X18958Y22514D1*
X19368Y22743D2*
Y22762D1*
X19387Y22801D1*
X19406Y22820D1*
X19445Y22839D1*
X19521D1*
X19559Y22820D1*
X19578Y22801D1*
X19598Y22762D1*
Y22724D1*
X19578Y22686D1*
X19540Y22629D1*
X19349Y22437D1*
X19617D1*
X14532Y26437D2*
Y26839D1*
X14341Y26571D1*
X14628D1*
X14751Y26762D2*
X14790Y26782D1*
X14847Y26839D1*
Y26437D1*
X14990Y26476D2*
X14971Y26456D1*
X14990Y26437D1*
X15009Y26456D1*
X14990Y26476D1*
X15382Y26705D2*
X15362Y26648D1*
X15324Y26609D1*
X15267Y26590D1*
X15248D1*
X15190Y26609D1*
X15152Y26648D1*
X15133Y26705D1*
Y26724D1*
X15152Y26782D1*
X15190Y26820D1*
X15248Y26839D1*
X15267D1*
X15324Y26820D1*
X15362Y26782D1*
X15382Y26705D1*
Y26609D1*
X15362Y26514D1*
X15324Y26456D1*
X15267Y26437D1*
X15229D1*
X15171Y26456D1*
X15152Y26495D1*
X15505Y26762D2*
X15544Y26782D1*
X15601Y26839D1*
Y26437D1*
M02*
