G04 DipTrace 2.4.0.2*
%INTopSilk.gbr*%
%MOIN*%
%ADD10C,0.0098*%
%ADD31O,0.0165X0.0164*%
%ADD93C,0.0077*%
%ADD95C,0.0046*%
%FSLAX44Y44*%
G04*
G70*
G90*
G75*
G01*
%LNTopSilk*%
%LPD*%
X12003Y4253D2*
D10*
X7003D1*
Y5253D1*
X12003D1*
Y4253D1*
X24621Y10770D2*
Y11399D1*
X24547Y10770D2*
Y11399D1*
Y10770D2*
X24782D1*
X24547Y11399D2*
X24782D1*
X24621Y8863D2*
Y9493D1*
X24547Y8863D2*
Y9493D1*
Y8863D2*
X24782D1*
X24547Y9493D2*
X24782D1*
X17183Y8194D2*
X16554D1*
X17183Y8120D2*
X16554D1*
X17183D2*
Y8355D1*
X16554Y8120D2*
Y8355D1*
X25209Y8553D2*
Y6928D1*
X23897D1*
X23584Y7241D1*
X23583Y8241D1*
X23897Y8553D1*
X25209D1*
X23994Y7053D2*
Y7366D1*
X24153Y7241D2*
X23785D1*
X21723Y14765D2*
Y14136D1*
X21798Y14765D2*
Y14136D1*
Y14765D2*
X21562D1*
X21798Y14136D2*
X21562D1*
X22605Y13074D2*
Y13703D1*
X22531Y13074D2*
Y13703D1*
Y13074D2*
X22766D1*
X22531Y13703D2*
X22766D1*
X24391Y12831D2*
X23762D1*
X24391Y12756D2*
X23762D1*
X24391D2*
Y12992D1*
X23762Y12756D2*
Y12992D1*
X16645Y13256D2*
Y13886D1*
X16571Y13256D2*
Y13886D1*
Y13256D2*
X16806D1*
X16571Y13886D2*
X16806D1*
X25076Y15592D2*
Y13967D1*
X23764D1*
X23451Y14280D1*
X23450Y15280D1*
X23764Y15592D1*
X25076D1*
X23862Y14092D2*
Y14404D1*
X24020Y14280D2*
X23652D1*
X25257Y6869D2*
Y5244D1*
X23944D1*
X23631Y5556D1*
Y6556D1*
X23944Y6869D1*
X25257D1*
X24042Y5369D2*
Y5681D1*
X24201Y5556D2*
X23832D1*
X21190Y5437D2*
X23003D1*
Y4187D1*
X21190D1*
Y5437D1*
X21815Y5374D2*
Y4187D1*
X21940Y5437D2*
Y4249D1*
X21878Y5374D2*
Y4249D1*
X22254Y18383D2*
Y18148D1*
X21625Y18383D2*
Y18148D1*
Y18309D2*
X22254D1*
X21625Y18384D2*
X22254D1*
X17746Y13590D2*
X20777D1*
Y11558D1*
X17746D1*
Y13590D1*
X23529Y5153D2*
X25529D1*
Y4153D1*
X23529D1*
Y5153D1*
X25247Y12728D2*
Y12964D1*
X24617Y12728D2*
Y12964D1*
X10070Y7130D2*
X9834D1*
X10070Y6501D2*
X9834D1*
X20753Y18362D2*
Y18127D1*
X21382Y18362D2*
Y18127D1*
X22542Y16071D2*
Y16307D1*
X21913Y16071D2*
Y16307D1*
X13904Y12165D2*
X9451D1*
Y20419D1*
X13904D1*
Y12165D1*
X20770Y8132D2*
X18487D1*
Y10415D1*
X20770D1*
Y8132D1*
D31*
X21286Y7820D3*
G36*
X20770Y8132D2*
Y8447D1*
X20455Y8132D1*
X20770D1*
G37*
X13890Y6470D2*
D10*
X15890D1*
Y4470D1*
X13890D1*
Y6470D1*
X15890Y4908D2*
X15390Y4470D1*
X15515D2*
X15828Y4783D1*
X15640Y4470D2*
X15890Y4720D1*
X15765Y4533D2*
X15828Y4595D1*
Y4533D2*
X15765Y4595D1*
X20233Y20421D2*
X15429D1*
X20233D2*
Y17232D1*
X15429Y17192D2*
Y20421D1*
X20233Y15499D2*
Y14200D1*
X18736D1*
X16846D2*
X15429D1*
Y15539D1*
X21909Y11331D2*
Y8931D1*
X23609Y11331D2*
Y8931D1*
X22109Y11331D2*
Y8931D1*
X23410D2*
Y11331D1*
X23060Y10231D2*
Y10031D1*
X22459D1*
Y10231D1*
X23060D1*
Y9881D2*
X22759D1*
X22459D1*
X23060Y10381D2*
X22759D1*
X22459D1*
X22759Y9881D2*
Y9631D1*
Y10381D2*
Y10632D1*
X23609Y11331D2*
G03X21909Y11331I-850J0D01*
G01*
Y8931D2*
G03X23609Y8931I850J0D01*
G01*
X23410Y11331D2*
G03X22109Y11331I-650J0D01*
G01*
Y8931D2*
G03X23410Y8931I650J0D01*
G01*
X22478Y17645D2*
D93*
X22981D1*
Y17932D1*
X22478Y18397D2*
Y18086D1*
X22981D1*
Y18397D1*
X22718Y18086D2*
Y18277D1*
X22478Y18551D2*
X22981D1*
Y18718D1*
X22956Y18790D1*
X22909Y18838D1*
X22861Y18862D1*
X22789Y18886D1*
X22670D1*
X22598Y18862D1*
X22550Y18838D1*
X22502Y18790D1*
X22478Y18718D1*
Y18551D1*
X10931Y20912D2*
X11146D1*
X11218Y20936D1*
X11242Y20960D1*
X11266Y21007D1*
Y21056D1*
X11242Y21103D1*
X11218Y21127D1*
X11146Y21151D1*
X10931D1*
Y20649D1*
X11099Y20912D2*
X11266Y20649D1*
X11660Y21151D2*
Y20769D1*
X11636Y20697D1*
X11612Y20673D1*
X11564Y20649D1*
X11516D1*
X11469Y20673D1*
X11445Y20697D1*
X11421Y20769D1*
Y20816D1*
X11814Y21055D2*
X11862Y21079D1*
X11934Y21151D1*
Y20649D1*
X12232Y21151D2*
X12160Y21127D1*
X12112Y21055D1*
X12089Y20936D1*
Y20864D1*
X12112Y20744D1*
X12160Y20672D1*
X12232Y20649D1*
X12280D1*
X12352Y20672D1*
X12399Y20744D1*
X12424Y20864D1*
Y20936D1*
X12399Y21055D1*
X12352Y21127D1*
X12280Y21151D1*
X12232D1*
X12399Y21055D2*
X12112Y20744D1*
X13290Y7203D2*
X13410Y6700D1*
X13530Y7203D1*
X13649Y6700D1*
X13769Y7203D1*
X14258Y7131D2*
X14211Y7179D1*
X14139Y7203D1*
X14043D1*
X13972Y7179D1*
X13923Y7131D1*
Y7083D1*
X13948Y7035D1*
X13972Y7011D1*
X14019Y6988D1*
X14163Y6940D1*
X14211Y6916D1*
X14235Y6891D1*
X14258Y6844D1*
Y6772D1*
X14211Y6725D1*
X14139Y6700D1*
X14043D1*
X13972Y6725D1*
X13923Y6772D1*
X14437Y7083D2*
Y7106D1*
X14461Y7155D1*
X14485Y7178D1*
X14533Y7202D1*
X14628D1*
X14676Y7178D1*
X14700Y7155D1*
X14724Y7106D1*
Y7059D1*
X14700Y7011D1*
X14652Y6940D1*
X14413Y6700D1*
X14748D1*
X15022Y7202D2*
X14950Y7178D1*
X14926Y7131D1*
Y7083D1*
X14950Y7035D1*
X14998Y7011D1*
X15093Y6987D1*
X15165Y6963D1*
X15213Y6915D1*
X15237Y6868D1*
Y6796D1*
X15213Y6748D1*
X15189Y6724D1*
X15117Y6700D1*
X15022D1*
X14950Y6724D1*
X14926Y6748D1*
X14902Y6796D1*
Y6868D1*
X14926Y6915D1*
X14974Y6963D1*
X15045Y6987D1*
X15141Y7011D1*
X15189Y7035D1*
X15213Y7083D1*
Y7131D1*
X15189Y7178D1*
X15117Y7202D1*
X15022D1*
X15391Y7106D2*
X15439Y7131D1*
X15511Y7202D1*
Y6700D1*
X15690Y7083D2*
Y7106D1*
X15713Y7155D1*
X15737Y7178D1*
X15785Y7202D1*
X15881D1*
X15928Y7178D1*
X15952Y7155D1*
X15976Y7106D1*
Y7059D1*
X15952Y7011D1*
X15905Y6940D1*
X15665Y6700D1*
X16000D1*
X16155Y7203D2*
Y6700D1*
X16370D1*
X16442Y6725D1*
X16466Y6748D1*
X16490Y6796D1*
Y6868D1*
X16466Y6916D1*
X16442Y6940D1*
X16370Y6963D1*
X16442Y6988D1*
X16466Y7011D1*
X16490Y7059D1*
Y7107D1*
X16466Y7155D1*
X16442Y7179D1*
X16370Y7203D1*
X16155D1*
Y6963D2*
X16370D1*
X17174Y21215D2*
Y20856D1*
X17198Y20784D1*
X17246Y20737D1*
X17318Y20712D1*
X17365D1*
X17437Y20737D1*
X17485Y20784D1*
X17509Y20856D1*
Y21215D1*
X17998Y21143D2*
X17951Y21191D1*
X17879Y21215D1*
X17783D1*
X17712Y21191D1*
X17663Y21143D1*
Y21095D1*
X17688Y21047D1*
X17712Y21023D1*
X17759Y21000D1*
X17903Y20952D1*
X17951Y20928D1*
X17975Y20903D1*
X17998Y20856D1*
Y20784D1*
X17951Y20737D1*
X17879Y20712D1*
X17783D1*
X17712Y20737D1*
X17663Y20784D1*
X18153Y21215D2*
Y20712D1*
X18368D1*
X18440Y20737D1*
X18464Y20760D1*
X18488Y20808D1*
Y20880D1*
X18464Y20928D1*
X18440Y20952D1*
X18368Y20975D1*
X18440Y21000D1*
X18464Y21023D1*
X18488Y21071D1*
Y21119D1*
X18464Y21167D1*
X18440Y21191D1*
X18368Y21215D1*
X18153D1*
Y20975D2*
X18368D1*
X7397Y6021D2*
Y5519D1*
X7229Y6021D2*
X7564D1*
X8230Y5781D2*
X8445D1*
X8516Y5805D1*
X8541Y5829D1*
X8564Y5877D1*
Y5925D1*
X8541Y5972D1*
X8516Y5997D1*
X8445Y6020D1*
X8230D1*
Y5518D1*
X8397Y5781D2*
X8564Y5518D1*
X9440Y5948D2*
X9392Y5997D1*
X9320Y6020D1*
X9225D1*
X9153Y5997D1*
X9105Y5948D1*
Y5901D1*
X9129Y5853D1*
X9153Y5829D1*
X9200Y5805D1*
X9344Y5757D1*
X9392Y5733D1*
X9416Y5709D1*
X9440Y5662D1*
Y5590D1*
X9392Y5542D1*
X9320Y5518D1*
X9225D1*
X9153Y5542D1*
X9105Y5590D1*
X10190Y6060D2*
Y5557D1*
X10406D1*
X10478Y5582D1*
X10502Y5605D1*
X10525Y5653D1*
Y5725D1*
X10502Y5773D1*
X10478Y5797D1*
X10406Y5820D1*
X10478Y5845D1*
X10502Y5868D1*
X10525Y5916D1*
Y5964D1*
X10502Y6012D1*
X10478Y6036D1*
X10406Y6060D1*
X10190D1*
Y5820D2*
X10406D1*
X11267Y6020D2*
X11028D1*
X11004Y5805D1*
X11028Y5829D1*
X11100Y5853D1*
X11171D1*
X11243Y5829D1*
X11291Y5781D1*
X11315Y5709D1*
Y5662D1*
X11291Y5590D1*
X11243Y5542D1*
X11171Y5518D1*
X11100D1*
X11028Y5542D1*
X11004Y5566D1*
X10980Y5614D1*
X11469Y5853D2*
X11613Y5518D1*
X11756Y5853D1*
X16651Y5943D2*
D95*
X16780D1*
X16823Y5958D1*
X16837Y5972D1*
X16852Y6001D1*
Y6029D1*
X16837Y6058D1*
X16823Y6073D1*
X16780Y6087D1*
X16651D1*
Y5785D1*
X16751Y5943D2*
X16852Y5785D1*
X16944Y5900D2*
X17116D1*
Y5929D1*
X17102Y5958D1*
X17088Y5972D1*
X17059Y5986D1*
X17016D1*
X16987Y5972D1*
X16958Y5943D1*
X16944Y5900D1*
Y5872D1*
X16958Y5829D1*
X16987Y5800D1*
X17016Y5785D1*
X17059D1*
X17088Y5800D1*
X17116Y5829D1*
X17381Y5972D2*
Y5742D1*
X17367Y5700D1*
X17353Y5685D1*
X17324Y5671D1*
X17281D1*
X17252Y5685D1*
X17381Y5929D2*
X17353Y5958D1*
X17324Y5972D1*
X17281D1*
X17252Y5958D1*
X17223Y5929D1*
X17209Y5886D1*
Y5857D1*
X17223Y5814D1*
X17252Y5785D1*
X17281Y5771D1*
X17324D1*
X17353Y5785D1*
X17381Y5814D1*
X18710Y6048D2*
Y5833D1*
X18724Y5790D1*
X18753Y5762D1*
X18796Y5747D1*
X18824D1*
X18867Y5762D1*
X18896Y5790D1*
X18911Y5833D1*
Y6048D1*
X19003Y5948D2*
Y5747D1*
Y5891D2*
X19046Y5934D1*
X19075Y5948D1*
X19118D1*
X19147Y5934D1*
X19161Y5891D1*
Y5747D1*
X19254Y5905D2*
X19383D1*
X19426Y5919D1*
X19440Y5934D1*
X19455Y5962D1*
Y5991D1*
X19440Y6020D1*
X19426Y6034D1*
X19383Y6048D1*
X19254D1*
Y5747D1*
X19354Y5905D2*
X19455Y5747D1*
X19547Y5862D2*
X19719D1*
Y5891D1*
X19705Y5919D1*
X19691Y5934D1*
X19662Y5948D1*
X19619D1*
X19590Y5934D1*
X19562Y5905D1*
X19547Y5862D1*
Y5833D1*
X19562Y5790D1*
X19590Y5762D1*
X19619Y5747D1*
X19662D1*
X19691Y5762D1*
X19719Y5790D1*
X19984Y5934D2*
Y5704D1*
X19970Y5661D1*
X19956Y5647D1*
X19927Y5632D1*
X19884D1*
X19855Y5647D1*
X19984Y5891D2*
X19956Y5919D1*
X19927Y5934D1*
X19884D1*
X19855Y5919D1*
X19826Y5891D1*
X19812Y5848D1*
Y5819D1*
X19826Y5776D1*
X19855Y5747D1*
X19884Y5733D1*
X19927D1*
X19956Y5747D1*
X19984Y5776D1*
M02*
