# This file uses centimeters as units for non-parametric coordinates.

v -268.661285 -0.000000 221.031952
v -214.929016 -0.000000 221.031952
v -161.196762 -0.000000 221.031952
v -107.464500 -0.000000 221.031952
v -53.732250 -0.000000 221.031952
v 0.000000 -0.000000 221.031952
v 53.732265 -0.000000 221.031952
v 107.464500 -0.000000 221.031952
v 161.196762 -0.000000 221.031952
v 214.929031 -0.000000 221.031952
v 268.661285 -0.000000 221.031952
v -268.661285 -0.000000 176.825562
v -214.929016 -0.000000 176.825562
v -161.196762 -0.000000 176.825562
v -107.464500 -0.000000 176.825562
v -53.732250 -0.000000 176.825562
v 0.000000 -0.000000 176.825562
v 53.732265 -0.000000 176.825562
v 107.464500 -0.000000 176.825562
v 161.196762 -0.000000 176.825562
v 214.929031 -0.000000 176.825562
v 268.661285 -0.000000 176.825562
v -268.661285 -0.000000 132.619186
v -214.929016 -0.000000 132.619186
v -161.196762 -0.000000 132.619186
v -107.464500 -0.000000 132.619186
v -53.732250 -0.000000 132.619186
v 0.000000 -0.000000 132.619186
v 53.732265 -0.000000 132.619186
v 107.464500 -0.000000 132.619186
v 161.196762 -0.000000 132.619186
v 214.929031 -0.000000 132.619186
v 268.661285 -0.000000 132.619186
v -268.661285 -0.000000 88.412773
v -214.929016 -0.000000 88.412773
v -161.196762 -0.000000 88.412773
v -107.464500 -0.000000 88.412773
v -53.732250 -0.000000 88.412773
v 0.000000 -0.000000 88.412773
v 53.732265 -0.000000 88.412773
v 107.464500 -0.000000 88.412773
v 161.196762 -0.000000 88.412773
v 214.929031 -0.000000 88.412773
v 268.661285 -0.000000 88.412773
v -268.661285 -0.000000 44.206387
v -214.929016 -0.000000 44.206387
v -161.196762 -0.000000 44.206387
v -107.464500 -0.000000 44.206387
v -53.732250 -0.000000 44.206387
v 0.000000 -0.000000 44.206387
v 53.732265 -0.000000 44.206387
v 107.464500 -0.000000 44.206387
v 161.196762 -0.000000 44.206387
v 214.929031 -0.000000 44.206387
v 268.661285 -0.000000 44.206387
v -268.661285 0.000000 0.000000
v -214.929016 0.000000 0.000000
v -161.196762 0.000000 0.000000
v -107.464500 0.000000 0.000000
v -53.732250 0.000000 0.000000
v 0.000000 0.000000 0.000000
v 53.732265 0.000000 0.000000
v 107.464500 0.000000 0.000000
v 161.196762 0.000000 0.000000
v 214.929031 0.000000 0.000000
v 268.661285 0.000000 0.000000
v -268.661285 0.000000 -44.206398
v -214.929016 0.000000 -44.206398
v -161.196762 0.000000 -44.206398
v -107.464500 0.000000 -44.206398
v -53.732250 0.000000 -44.206398
v 0.000000 0.000000 -44.206398
v 53.732265 0.000000 -44.206398
v 107.464500 0.000000 -44.206398
v 161.196762 0.000000 -44.206398
v 214.929031 0.000000 -44.206398
v 268.661285 0.000000 -44.206398
v -268.661285 0.000000 -88.412773
v -214.929016 0.000000 -88.412773
v -161.196762 0.000000 -88.412773
v -107.464500 0.000000 -88.412773
v -53.732250 0.000000 -88.412773
v 0.000000 0.000000 -88.412773
v 53.732265 0.000000 -88.412773
v 107.464500 0.000000 -88.412773
v 161.196762 0.000000 -88.412773
v 214.929031 0.000000 -88.412773
v 268.661285 0.000000 -88.412773
v -268.661285 0.000000 -132.619186
v 268.661285 0.000000 -132.619186
v -268.661285 0.000000 -176.825577
v 268.661285 0.000000 -176.825577
v -268.661285 0.000000 -221.031952
v -214.929016 0.000000 -221.031952
v -161.196762 0.000000 -221.031952
v -107.464500 0.000000 -221.031952
v -53.732250 0.000000 -221.031952
v 0.000000 0.000000 -221.031952
v 53.732265 0.000000 -221.031952
v 107.464500 0.000000 -221.031952
v 161.196762 0.000000 -221.031952
v 214.929031 0.000000 -221.031952
v 268.661285 0.000000 -221.031952
v -268.661285 261.560852 -88.412773
v -214.929016 261.560852 -88.412773
v -214.929016 261.560852 -132.619186
v -268.661285 261.560852 -132.619186
v -161.196762 261.560852 -88.412773
v -161.196762 261.560852 -132.619186
v -107.464500 261.560852 -88.412773
v -107.464500 261.560852 -132.619186
v -53.732250 261.560852 -88.412773
v -53.732250 261.560852 -132.619186
v 0.000000 261.560852 -88.412773
v 0.000000 261.560852 -132.619186
v 53.732265 261.560852 -88.412773
v 53.732265 261.560852 -132.619186
v 107.464500 261.560852 -88.412773
v 107.464500 261.560852 -132.619186
v 161.196762 261.560852 -88.412773
v 161.196762 261.560852 -132.619186
v 214.929031 261.560852 -88.412773
v 214.929031 261.560852 -132.619186
v 268.661285 261.560852 -88.412773
v 268.661285 261.560852 -132.619186
v -214.929016 261.560852 -176.825577
v -268.661285 261.560852 -176.825577
v -161.196762 261.560852 -176.825577
v -107.464500 261.560852 -176.825577
v -53.732250 261.560852 -176.825577
v 0.000000 261.560852 -176.825577
v 53.732265 261.560852 -176.825577
v 107.464500 261.560852 -176.825577
v 161.196762 261.560852 -176.825577
v 214.929031 261.560852 -176.825577
v 268.661285 261.560852 -176.825577
v -214.929016 261.560852 -221.031952
v -268.661285 261.560852 -221.031952
v -161.196762 261.560852 -221.031952
v -107.464500 261.560852 -221.031952
v -53.732250 261.560852 -221.031952
v 0.000000 261.560852 -221.031952
v 53.732265 261.560852 -221.031952
v 107.464500 261.560852 -221.031952
v 161.196762 261.560852 -221.031952
v 214.929031 261.560852 -221.031952
v 268.661285 261.560852 -221.031952
vt 0.000000 0.000000
vt 0.100000 0.000000
vt 0.200000 0.000000
vt 0.300000 0.000000
vt 0.400000 0.000000
vt 0.500000 0.000000
vt 0.600000 0.000000
vt 0.700000 0.000000
vt 0.800000 0.000000
vt 0.900000 0.000000
vt 1.000000 0.000000
vt 0.000000 0.100000
vt 0.100000 0.100000
vt 0.200000 0.100000
vt 0.300000 0.100000
vt 0.400000 0.100000
vt 0.500000 0.100000
vt 0.600000 0.100000
vt 0.700000 0.100000
vt 0.800000 0.100000
vt 0.900000 0.100000
vt 1.000000 0.100000
vt 0.000000 0.200000
vt 0.100000 0.200000
vt 0.200000 0.200000
vt 0.300000 0.200000
vt 0.400000 0.200000
vt 0.500000 0.200000
vt 0.600000 0.200000
vt 0.700000 0.200000
vt 0.800000 0.200000
vt 0.900000 0.200000
vt 1.000000 0.200000
vt 0.000000 0.300000
vt 0.100000 0.300000
vt 0.200000 0.300000
vt 0.300000 0.300000
vt 0.400000 0.300000
vt 0.500000 0.300000
vt 0.600000 0.300000
vt 0.700000 0.300000
vt 0.800000 0.300000
vt 0.900000 0.300000
vt 1.000000 0.300000
vt 0.000000 0.400000
vt 0.100000 0.400000
vt 0.200000 0.400000
vt 0.300000 0.400000
vt 0.400000 0.400000
vt 0.500000 0.400000
vt 0.600000 0.400000
vt 0.700000 0.400000
vt 0.800000 0.400000
vt 0.900000 0.400000
vt 1.000000 0.400000
vt 0.000000 0.500000
vt 0.100000 0.500000
vt 0.200000 0.500000
vt 0.300000 0.500000
vt 0.400000 0.500000
vt 0.500000 0.500000
vt 0.600000 0.500000
vt 0.700000 0.500000
vt 0.800000 0.500000
vt 0.900000 0.500000
vt 1.000000 0.500000
vt 0.000000 0.600000
vt 0.100000 0.600000
vt 0.200000 0.600000
vt 0.300000 0.600000
vt 0.400000 0.600000
vt 0.500000 0.600000
vt 0.600000 0.600000
vt 0.700000 0.600000
vt 0.800000 0.600000
vt 0.900000 0.600000
vt 1.000000 0.600000
vt 0.000000 0.700000
vt 0.100000 0.700000
vt 0.200000 0.700000
vt 0.300000 0.700000
vt 0.400000 0.700000
vt 0.500000 0.700000
vt 0.600000 0.700000
vt 0.700000 0.700000
vt 0.800000 0.700000
vt 0.900000 0.700000
vt 1.000000 0.700000
vt 0.000000 0.800000
vt 0.100000 0.800000
vt 0.200000 0.800000
vt 0.300000 0.800000
vt 0.400000 0.800000
vt 0.500000 0.800000
vt 0.600000 0.800000
vt 0.700000 0.800000
vt 0.800000 0.800000
vt 0.900000 0.800000
vt 1.000000 0.800000
vt 0.000000 0.900000
vt 0.100000 0.900000
vt 0.200000 0.900000
vt 0.300000 0.900000
vt 0.400000 0.900000
vt 0.500000 0.900000
vt 0.600000 0.900000
vt 0.700000 0.900000
vt 0.800000 0.900000
vt 0.900000 0.900000
vt 1.000000 0.900000
vt 0.000000 1.000000
vt 0.100000 1.000000
vt 0.200000 1.000000
vt 0.300000 1.000000
vt 0.400000 1.000000
vt 0.500000 1.000000
vt 0.600000 1.000000
vt 0.700000 1.000000
vt 0.800000 1.000000
vt 0.900000 1.000000
vt 1.000000 1.000000
vt 0.000000 0.700000
vt 0.100000 0.700000
vt 0.000000 0.800000
vt 0.200000 0.700000
vt 0.300000 0.700000
vt 0.400000 0.700000
vt 0.500000 0.700000
vt 0.600000 0.700000
vt 0.700000 0.700000
vt 0.800000 0.700000
vt 0.900000 0.700000
vt 1.000000 0.700000
vt 1.000000 0.800000
vt 0.000000 0.900000
vt 1.000000 0.900000
vt 0.100000 1.000000
vt 0.000000 1.000000
vt 0.200000 1.000000
vt 0.300000 1.000000
vt 0.400000 1.000000
vt 0.500000 1.000000
vt 0.600000 1.000000
vt 0.700000 1.000000
vt 0.800000 1.000000
vt 0.900000 1.000000
vt 1.000000 1.000000
vn 0.000000 1.000000 0.000000
vn 0.000000 1.000000 0.000000
vn 0.000000 1.000000 0.000000
vn 0.000000 1.000000 0.000000
vn 0.000000 1.000000 0.000000
vn 0.000000 1.000000 0.000000
vn 0.000000 1.000000 0.000000
vn 0.000000 1.000000 0.000000
vn 0.000000 1.000000 0.000000
vn 0.000000 1.000000 0.000000
vn 0.000000 1.000000 0.000000
vn 0.000000 1.000000 0.000000
vn 0.000000 1.000000 0.000000
vn 0.000000 1.000000 0.000000
vn 0.000000 1.000000 0.000000
vn 0.000000 1.000000 0.000000
vn 0.000000 1.000000 0.000000
vn 0.000000 1.000000 0.000000
vn 0.000000 1.000000 0.000000
vn 0.000000 1.000000 0.000000
vn 0.000000 1.000000 0.000000
vn 0.000000 1.000000 0.000000
vn 0.000000 1.000000 0.000000
vn 0.000000 1.000000 0.000000
vn 0.000000 1.000000 0.000000
vn 0.000000 1.000000 0.000000
vn 0.000000 1.000000 0.000000
vn 0.000000 1.000000 0.000000
vn 0.000000 1.000000 0.000000
vn 0.000000 1.000000 0.000000
vn 0.000000 1.000000 0.000000
vn 0.000000 1.000000 0.000000
vn 0.000000 1.000000 0.000000
vn 0.000000 1.000000 0.000000
vn 0.000000 1.000000 0.000000
vn 0.000000 1.000000 0.000000
vn 0.000000 1.000000 0.000000
vn 0.000000 1.000000 0.000000
vn 0.000000 1.000000 0.000000
vn 0.000000 1.000000 0.000000
vn 0.000000 1.000000 0.000000
vn 0.000000 1.000000 0.000000
vn 0.000000 1.000000 0.000000
vn 0.000000 1.000000 0.000000
vn 0.000000 1.000000 0.000000
vn 0.000000 1.000000 0.000000
vn 0.000000 1.000000 0.000000
vn 0.000000 1.000000 0.000000
vn 0.000000 1.000000 0.000000
vn 0.000000 1.000000 0.000000
vn 0.000000 1.000000 0.000000
vn 0.000000 1.000000 0.000000
vn 0.000000 1.000000 0.000000
vn 0.000000 1.000000 0.000000
vn 0.000000 1.000000 0.000000
vn 0.000000 1.000000 0.000000
vn 0.000000 1.000000 0.000000
vn 0.000000 1.000000 0.000000
vn 0.000000 1.000000 0.000000
vn 0.000000 1.000000 0.000000
vn 0.000000 1.000000 0.000000
vn 0.000000 1.000000 0.000000
vn 0.000000 1.000000 0.000000
vn 0.000000 1.000000 0.000000
vn 0.000000 1.000000 0.000000
vn 0.000000 1.000000 0.000000
vn 0.000000 1.000000 0.000000
vn 0.000000 1.000000 0.000000
vn 0.000000 1.000000 0.000000
vn 0.000000 1.000000 0.000000
vn 0.000000 1.000000 0.000000
vn 0.000000 1.000000 0.000000
vn 0.000000 1.000000 0.000000
vn 0.000000 1.000000 0.000000
vn 0.000000 1.000000 0.000000
vn 0.000000 1.000000 0.000000
vn 0.000000 1.000000 0.000000
vn 0.000000 1.000000 0.000000
vn 0.000000 1.000000 0.000000
vn 0.000000 1.000000 0.000000
vn 0.000000 1.000000 0.000000
vn 0.000000 1.000000 0.000000
vn 0.000000 1.000000 0.000000
vn 0.000000 1.000000 0.000000
vn 0.000000 1.000000 0.000000
vn 0.000000 1.000000 0.000000
vn 0.000000 1.000000 0.000000
vn 0.000000 1.000000 0.000000
vn 0.000000 1.000000 0.000000
vn 0.000000 1.000000 0.000000
vn 0.000000 1.000000 0.000000
vn 0.000000 1.000000 0.000000
vn 0.000000 1.000000 0.000000
vn 0.000000 1.000000 0.000000
vn 0.000000 1.000000 0.000000
vn 0.000000 1.000000 0.000000
vn 0.000000 1.000000 0.000000
vn 0.000000 1.000000 0.000000
vn 0.000000 1.000000 0.000000
vn 0.000000 1.000000 0.000000
vn 0.000000 1.000000 0.000000
vn 0.000000 1.000000 0.000000
vn 0.000000 1.000000 0.000000
vn 0.000000 1.000000 0.000000
vn 0.000000 1.000000 0.000000
vn 0.000000 1.000000 0.000000
vn 0.000000 1.000000 0.000000
vn 0.000000 1.000000 0.000000
vn 0.000000 1.000000 0.000000
vn 0.000000 1.000000 0.000000
vn 0.000000 1.000000 0.000000
vn 0.000000 1.000000 0.000000
vn 0.000000 1.000000 0.000000
vn 0.000000 1.000000 0.000000
vn 0.000000 1.000000 0.000000
vn 0.000000 1.000000 0.000000
vn 0.000000 1.000000 0.000000
vn 0.000000 1.000000 0.000000
vn 0.000000 1.000000 0.000000
vn 0.000000 1.000000 0.000000
vn 0.000000 1.000000 0.000000
vn 0.000000 1.000000 0.000000
vn 0.000000 1.000000 0.000000
vn 0.000000 1.000000 0.000000
vn 0.000000 1.000000 0.000000
vn 0.000000 1.000000 0.000000
vn 0.000000 1.000000 0.000000
vn 0.000000 1.000000 0.000000
vn 0.000000 1.000000 0.000000
vn 0.000000 1.000000 0.000000
vn 0.000000 1.000000 0.000000
vn 0.000000 1.000000 0.000000
vn 0.000000 0.000000 1.000000
vn 0.000000 0.000000 1.000000
vn 0.000000 0.000000 1.000000
vn 0.000000 0.000000 1.000000
vn -1.000000 0.000000 0.000000
vn -1.000000 0.000000 0.000000
vn -1.000000 0.000000 0.000000
vn -1.000000 0.000000 0.000000
vn 0.000000 0.000000 1.000000
vn 0.000000 0.000000 1.000000
vn 0.000000 0.000000 1.000000
vn 0.000000 0.000000 1.000000
vn 0.000000 0.000000 1.000000
vn 0.000000 0.000000 1.000000
vn 0.000000 0.000000 1.000000
vn 0.000000 0.000000 1.000000
vn 0.000000 0.000000 1.000000
vn 0.000000 0.000000 1.000000
vn 0.000000 0.000000 1.000000
vn 0.000000 0.000000 1.000000
vn 0.000000 0.000000 1.000000
vn 0.000000 0.000000 1.000000
vn 0.000000 0.000000 1.000000
vn 0.000000 0.000000 1.000000
vn 0.000000 0.000000 1.000000
vn 0.000000 0.000000 1.000000
vn 0.000000 0.000000 1.000000
vn 0.000000 0.000000 1.000000
vn 0.000000 0.000000 1.000000
vn 0.000000 0.000000 1.000000
vn 0.000000 0.000000 1.000000
vn 0.000000 0.000000 1.000000
vn 0.000000 0.000000 1.000000
vn 0.000000 0.000000 1.000000
vn 0.000000 0.000000 1.000000
vn 0.000000 0.000000 1.000000
vn 0.000000 0.000000 1.000000
vn 0.000000 0.000000 1.000000
vn 0.000000 0.000000 1.000000
vn 0.000000 0.000000 1.000000
vn 0.000000 0.000000 1.000000
vn 0.000000 0.000000 1.000000
vn 0.000000 0.000000 1.000000
vn 0.000000 0.000000 1.000000
vn 1.000000 0.000000 0.000000
vn 1.000000 0.000000 0.000000
vn 1.000000 0.000000 0.000000
vn 1.000000 0.000000 0.000000
vn -1.000000 0.000000 0.000000
vn -1.000000 0.000000 0.000000
vn -1.000000 0.000000 0.000000
vn -1.000000 0.000000 0.000000
vn 1.000000 0.000000 0.000000
vn 1.000000 0.000000 0.000000
vn 1.000000 0.000000 0.000000
vn 1.000000 0.000000 0.000000
vn 0.000000 0.000000 -1.000000
vn 0.000000 0.000000 -1.000000
vn 0.000000 0.000000 -1.000000
vn 0.000000 0.000000 -1.000000
vn -1.000000 0.000000 0.000000
vn -1.000000 0.000000 0.000000
vn -1.000000 0.000000 0.000000
vn -1.000000 0.000000 0.000000
vn 0.000000 0.000000 -1.000000
vn 0.000000 0.000000 -1.000000
vn 0.000000 0.000000 -1.000000
vn 0.000000 0.000000 -1.000000
vn 0.000000 0.000000 -1.000000
vn 0.000000 0.000000 -1.000000
vn 0.000000 0.000000 -1.000000
vn 0.000000 0.000000 -1.000000
vn 0.000000 0.000000 -1.000000
vn 0.000000 0.000000 -1.000000
vn 0.000000 0.000000 -1.000000
vn 0.000000 0.000000 -1.000000
vn 0.000000 0.000000 -1.000000
vn 0.000000 0.000000 -1.000000
vn 0.000000 0.000000 -1.000000
vn 0.000000 0.000000 -1.000000
vn 0.000000 0.000000 -1.000000
vn 0.000000 0.000000 -1.000000
vn 0.000000 0.000000 -1.000000
vn 0.000000 0.000000 -1.000000
vn 0.000000 0.000000 -1.000000
vn 0.000000 0.000000 -1.000000
vn 0.000000 0.000000 -1.000000
vn 0.000000 0.000000 -1.000000
vn 0.000000 0.000000 -1.000000
vn 0.000000 0.000000 -1.000000
vn 0.000000 0.000000 -1.000000
vn 0.000000 0.000000 -1.000000
vn 0.000000 0.000000 -1.000000
vn 0.000000 0.000000 -1.000000
vn 0.000000 0.000000 -1.000000
vn 0.000000 0.000000 -1.000000
vn 1.000000 0.000000 0.000000
vn 1.000000 0.000000 0.000000
vn 1.000000 0.000000 0.000000
vn 1.000000 0.000000 0.000000
vn 0.000000 0.000000 -1.000000
vn 0.000000 0.000000 -1.000000
vn 0.000000 0.000000 -1.000000
vn 0.000000 0.000000 -1.000000
f 1/1/1 2/2/2 13/13/3 12/12/4
f 2/2/2 3/3/5 14/14/6 13/13/3
f 3/3/5 4/4/7 15/15/8 14/14/6
f 4/4/7 5/5/9 16/16/10 15/15/8
f 5/5/9 6/6/11 17/17/12 16/16/10
f 6/6/11 7/7/13 18/18/14 17/17/12
f 7/7/13 8/8/15 19/19/16 18/18/14
f 8/8/15 9/9/17 20/20/18 19/19/16
f 9/9/17 10/10/19 21/21/20 20/20/18
f 10/10/19 11/11/21 22/22/22 21/21/20
f 12/12/4 13/13/3 24/24/23 23/23/24
f 13/13/3 14/14/6 25/25/25 24/24/23
f 14/14/6 15/15/8 26/26/26 25/25/25
f 15/15/8 16/16/10 27/27/27 26/26/26
f 16/16/10 17/17/12 28/28/28 27/27/27
f 17/17/12 18/18/14 29/29/29 28/28/28
f 18/18/14 19/19/16 30/30/30 29/29/29
f 19/19/16 20/20/18 31/31/31 30/30/30
f 20/20/18 21/21/20 32/32/32 31/31/31
f 21/21/20 22/22/22 33/33/33 32/32/32
f 23/23/24 24/24/23 35/35/34 34/34/35
f 24/24/23 25/25/25 36/36/36 35/35/34
f 25/25/25 26/26/26 37/37/37 36/36/36
f 26/26/26 27/27/27 38/38/38 37/37/37
f 27/27/27 28/28/28 39/39/39 38/38/38
f 28/28/28 29/29/29 40/40/40 39/39/39
f 29/29/29 30/30/30 41/41/41 40/40/40
f 30/30/30 31/31/31 42/42/42 41/41/41
f 31/31/31 32/32/32 43/43/43 42/42/42
f 32/32/32 33/33/33 44/44/44 43/43/43
f 34/34/35 35/35/34 46/46/45 45/45/46
f 35/35/34 36/36/36 47/47/47 46/46/45
f 36/36/36 37/37/37 48/48/48 47/47/47
f 37/37/37 38/38/38 49/49/49 48/48/48
f 38/38/38 39/39/39 50/50/50 49/49/49
f 39/39/39 40/40/40 51/51/51 50/50/50
f 40/40/40 41/41/41 52/52/52 51/51/51
f 41/41/41 42/42/42 53/53/53 52/52/52
f 42/42/42 43/43/43 54/54/54 53/53/53
f 43/43/43 44/44/44 55/55/55 54/54/54
f 45/45/46 46/46/45 57/57/56 56/56/57
f 46/46/45 47/47/47 58/58/58 57/57/56
f 47/47/47 48/48/48 59/59/59 58/58/58
f 48/48/48 49/49/49 60/60/60 59/59/59
f 49/49/49 50/50/50 61/61/61 60/60/60
f 50/50/50 51/51/51 62/62/62 61/61/61
f 51/51/51 52/52/52 63/63/63 62/62/62
f 52/52/52 53/53/53 64/64/64 63/63/63
f 53/53/53 54/54/54 65/65/65 64/64/64
f 54/54/54 55/55/55 66/66/66 65/65/65
f 56/56/57 57/57/56 68/68/67 67/67/68
f 57/57/56 58/58/58 69/69/69 68/68/67
f 58/58/58 59/59/59 70/70/70 69/69/69
f 59/59/59 60/60/60 71/71/71 70/70/70
f 60/60/60 61/61/61 72/72/72 71/71/71
f 61/61/61 62/62/62 73/73/73 72/72/72
f 62/62/62 63/63/63 74/74/74 73/73/73
f 63/63/63 64/64/64 75/75/75 74/74/74
f 64/64/64 65/65/65 76/76/76 75/75/75
f 65/65/65 66/66/66 77/77/77 76/76/76
f 67/67/68 68/68/67 79/79/78 78/78/79
f 68/68/67 69/69/69 80/80/80 79/79/78
f 69/69/69 70/70/70 81/81/81 80/80/80
f 70/70/70 71/71/71 82/82/82 81/81/81
f 71/71/71 72/72/72 83/83/83 82/82/82
f 72/72/72 73/73/73 84/84/84 83/83/83
f 73/73/73 74/74/74 85/85/85 84/84/84
f 74/74/74 75/75/75 86/86/86 85/85/85
f 75/75/75 76/76/76 87/87/87 86/86/86
f 76/76/76 77/77/77 88/88/88 87/87/87
f 104/122/89 105/123/90 106/90/91 107/124/92
f 105/123/90 108/125/93 109/91/94 106/90/91
f 108/125/93 110/126/95 111/92/96 109/91/94
f 110/126/95 112/127/97 113/93/98 111/92/96
f 112/127/97 114/128/99 115/94/100 113/93/98
f 114/128/99 116/129/101 117/95/102 115/94/100
f 116/129/101 118/130/103 119/96/104 117/95/102
f 118/130/103 120/131/105 121/97/106 119/96/104
f 120/131/105 122/132/107 123/98/108 121/97/106
f 122/132/107 124/133/109 125/134/110 123/98/108
f 107/124/92 106/90/91 126/101/111 127/135/112
f 106/90/91 109/91/94 128/102/113 126/101/111
f 109/91/94 111/92/96 129/103/114 128/102/113
f 111/92/96 113/93/98 130/104/115 129/103/114
f 113/93/98 115/94/100 131/105/116 130/104/115
f 115/94/100 117/95/102 132/106/117 131/105/116
f 117/95/102 119/96/104 133/107/118 132/106/117
f 119/96/104 121/97/106 134/108/119 133/107/118
f 121/97/106 123/98/108 135/109/120 134/108/119
f 123/98/108 125/134/110 136/136/121 135/109/120
f 127/135/112 126/101/111 137/137/122 138/138/123
f 126/101/111 128/102/113 139/139/124 137/137/122
f 128/102/113 129/103/114 140/140/125 139/139/124
f 129/103/114 130/104/115 141/141/126 140/140/125
f 130/104/115 131/105/116 142/142/127 141/141/126
f 131/105/116 132/106/117 143/143/128 142/142/127
f 132/106/117 133/107/118 144/144/129 143/143/128
f 133/107/118 134/108/119 145/145/130 144/144/129
f 134/108/119 135/109/120 146/146/131 145/145/130
f 135/109/120 136/136/121 147/147/132 146/146/131
f 78/78/133 79/79/134 105/123/135 104/122/136
f 89/89/137 78/78/138 104/122/139 107/124/140
f 79/79/141 80/80/142 108/125/143 105/123/144
f 80/80/145 81/81/146 110/126/147 108/125/148
f 81/81/149 82/82/150 112/127/151 110/126/152
f 82/82/153 83/83/154 114/128/155 112/127/156
f 83/83/157 84/84/158 116/129/159 114/128/160
f 84/84/161 85/85/162 118/130/163 116/129/164
f 85/85/165 86/86/166 120/131/167 118/130/168
f 86/86/169 87/87/170 122/132/171 120/131/172
f 87/87/173 88/88/174 124/133/175 122/132/176
f 88/88/177 90/99/178 125/134/179 124/133/180
f 91/100/181 89/89/182 107/124/183 127/135/184
f 90/99/185 92/110/186 136/136/187 125/134/188
f 94/112/189 93/111/190 138/138/191 137/137/192
f 93/111/193 91/100/194 127/135/195 138/138/196
f 95/113/197 94/112/198 137/137/199 139/139/200
f 96/114/201 95/113/202 139/139/203 140/140/204
f 97/115/205 96/114/206 140/140/207 141/141/208
f 98/116/209 97/115/210 141/141/211 142/142/212
f 99/117/213 98/116/214 142/142/215 143/143/216
f 100/118/217 99/117/218 143/143/219 144/144/220
f 101/119/221 100/118/222 144/144/223 145/145/224
f 102/120/225 101/119/226 145/145/227 146/146/228
f 92/110/229 103/121/230 147/147/231 136/136/232
f 103/121/233 102/120/234 146/146/235 147/147/236
