G04 DipTrace 2.4.0.2*
%INBottomSilk.gbr*%
%MOIN*%
%ADD10C,0.0098*%
%ADD93C,0.0077*%
%ADD96C,0.0154*%
%FSLAX44Y44*%
G04*
G70*
G90*
G75*
G01*
%LNBotSilk*%
%LPD*%
X23500Y6530D2*
D10*
X22312D1*
Y8905D1*
X23500D1*
Y6530D1*
X20002Y7179D2*
X19372D1*
X20002Y7254D2*
X19372D1*
X20002D2*
Y7018D1*
X19372Y7254D2*
Y7018D1*
X19185Y13257D2*
X19814D1*
X19185Y13183D2*
X19814D1*
X19185D2*
Y13418D1*
X19814Y13183D2*
Y13418D1*
X19179Y11435D2*
Y12064D1*
X19254Y11435D2*
Y12064D1*
Y11435D2*
X19018D1*
X19254Y12064D2*
X19018D1*
X19179Y10497D2*
Y11127D1*
X19254Y10497D2*
Y11127D1*
Y10497D2*
X19018D1*
X19254Y11127D2*
X19018D1*
X5929Y12997D2*
Y13627D1*
X6004Y12997D2*
Y13627D1*
Y12997D2*
X5768D1*
X6004Y13627D2*
X5768D1*
X5741Y6686D2*
Y7315D1*
X5816Y6686D2*
Y7315D1*
Y6686D2*
X5580D1*
X5816Y7315D2*
X5580D1*
X5501Y8430D2*
X4872D1*
X5501Y8505D2*
X4872D1*
X5501D2*
Y8269D1*
X4872Y8505D2*
Y8269D1*
X5929Y13872D2*
Y14502D1*
X6004Y13872D2*
Y14502D1*
Y13872D2*
X5768D1*
X6004Y14502D2*
X5768D1*
X7185Y6383D2*
X7814D1*
X7185Y6308D2*
X7814D1*
X7185D2*
Y6544D1*
X7814Y6308D2*
Y6544D1*
X8446Y11019D2*
X9075D1*
X8446Y10944D2*
X9075D1*
X8446D2*
Y11180D1*
X9075Y10944D2*
Y11180D1*
X8144Y17053D2*
Y16424D1*
X8069Y17053D2*
Y16424D1*
Y17053D2*
X8305D1*
X8069Y16424D2*
X8305D1*
X5570Y12315D2*
Y11686D1*
X5495Y12315D2*
Y11686D1*
Y12315D2*
X5731D1*
X5495Y11686D2*
X5731D1*
X23961Y15765D2*
Y11782D1*
X22217Y15765D2*
Y11782D1*
X23961D2*
X22217D1*
X23961Y15765D2*
X23369D1*
X22809D2*
X22217D1*
X23369D2*
G02X22809Y15765I-280J-196D01*
G01*
X5726Y10285D2*
X7773D1*
X5726Y8553D2*
X7773D1*
Y10285D2*
Y8553D1*
X5726Y10285D2*
Y9696D1*
Y9141D2*
Y8553D1*
Y9696D2*
G02X5726Y9141I-1J-278D01*
G01*
X7038Y14971D2*
X9086D1*
X7038Y13239D2*
X9086D1*
Y14971D2*
Y13239D1*
X7038Y14971D2*
Y14383D1*
Y13828D2*
Y13239D1*
Y14383D2*
G02X7038Y13828I-1J-278D01*
G01*
X19254Y9435D2*
X19018D1*
X19254Y10064D2*
X19018D1*
X6196Y15569D2*
Y15805D1*
X6825Y15569D2*
Y15805D1*
X4872Y10246D2*
Y10482D1*
X5501Y10246D2*
Y10482D1*
X19041Y9064D2*
X19276D1*
X19041Y8435D2*
X19276D1*
X13902Y4462D2*
X15902D1*
Y6462D1*
X13902D1*
Y4462D1*
X15902Y6024D2*
X15401Y6462D1*
X15526D2*
X15839Y6149D1*
X15652Y6462D2*
X15902Y6212D1*
X15777Y6399D2*
X15839Y6337D1*
Y6399D2*
X15777Y6337D1*
X23618Y9637D2*
D93*
X23857D1*
X23880Y9422D1*
X23857Y9445D1*
X23785Y9470D1*
X23713D1*
X23642Y9445D1*
X23594Y9398D1*
X23570Y9326D1*
Y9279D1*
X23594Y9207D1*
X23642Y9159D1*
X23713Y9135D1*
X23785D1*
X23857Y9159D1*
X23880Y9183D1*
X23905Y9230D1*
X23415Y9470D2*
X23272Y9135D1*
X23129Y9470D1*
X22974D2*
Y9135D1*
Y9326D2*
X22950Y9398D1*
X22902Y9446D1*
X22854Y9470D1*
X22782D1*
X22628Y9326D2*
X22341D1*
Y9374D1*
X22365Y9422D1*
X22389Y9446D1*
X22437Y9470D1*
X22509D1*
X22556Y9446D1*
X22604Y9398D1*
X22628Y9326D1*
Y9279D1*
X22604Y9207D1*
X22556Y9159D1*
X22509Y9135D1*
X22437D1*
X22389Y9159D1*
X22341Y9207D1*
X21900Y9446D2*
Y9063D1*
X21924Y8992D1*
X21947Y8967D1*
X21995Y8944D1*
X22067D1*
X22115Y8967D1*
X21900Y9374D2*
X21947Y9422D1*
X21995Y9446D1*
X22067D1*
X22115Y9422D1*
X22163Y9374D1*
X22187Y9302D1*
Y9254D1*
X22163Y9183D1*
X22115Y9135D1*
X22067Y9111D1*
X21995D1*
X21947Y9135D1*
X21900Y9183D1*
X15314Y7194D2*
Y6835D1*
X15290Y6763D1*
X15242Y6716D1*
X15170Y6691D1*
X15122D1*
X15051Y6716D1*
X15003Y6763D1*
X14979Y6835D1*
Y7194D1*
X14776Y7193D2*
X14514D1*
X14657Y7002D1*
X14585D1*
X14538Y6978D1*
X14514Y6955D1*
X14489Y6883D1*
Y6835D1*
X14514Y6763D1*
X14561Y6715D1*
X14633Y6691D1*
X14705D1*
X14776Y6715D1*
X14800Y6740D1*
X14824Y6787D1*
X19494Y17735D2*
D96*
X19877Y18739D1*
X20260Y17735D1*
X20116Y18070D2*
X19638D1*
X19185Y18404D2*
Y17926D1*
X19137Y17783D1*
X19041Y17735D1*
X18898D1*
X18803Y17783D1*
X18659Y17926D1*
Y18404D2*
Y17735D1*
X17776Y18739D2*
Y17735D1*
Y18261D2*
X17871Y18357D1*
X17968Y18404D1*
X18111D1*
X18206Y18357D1*
X18303Y18261D1*
X18350Y18117D1*
Y18022D1*
X18303Y17878D1*
X18206Y17783D1*
X18111Y17735D1*
X17968D1*
X17871Y17783D1*
X17776Y17878D1*
X17468Y18739D2*
X17420Y18692D1*
X17371Y18739D1*
X17420Y18788D1*
X17468Y18739D1*
X17420Y18404D2*
Y17735D1*
X16824Y18404D2*
X16919Y18357D1*
X17015Y18261D1*
X17063Y18117D1*
Y18022D1*
X17015Y17878D1*
X16919Y17783D1*
X16824Y17735D1*
X16680D1*
X16584Y17783D1*
X16489Y17878D1*
X16440Y18022D1*
Y18117D1*
X16489Y18261D1*
X16584Y18357D1*
X16680Y18404D1*
X16824D1*
X16132Y18739D2*
Y17735D1*
X15558D1*
X15249Y18404D2*
Y17926D1*
X15202Y17783D1*
X15105Y17735D1*
X14962D1*
X14867Y17783D1*
X14723Y17926D1*
Y18404D2*
Y17735D1*
X14414Y18404D2*
X13888Y17735D1*
Y18404D2*
X14414Y17735D1*
X12320Y18739D2*
X12416Y18692D1*
X12511Y18596D1*
X12560Y18501D1*
X12607Y18357D1*
Y18117D1*
X12560Y17974D1*
X12511Y17878D1*
X12416Y17783D1*
X12320Y17735D1*
X12128D1*
X12033Y17783D1*
X11937Y17878D1*
X11890Y17974D1*
X11842Y18117D1*
Y18357D1*
X11890Y18501D1*
X11937Y18596D1*
X12033Y18692D1*
X12128Y18739D1*
X12320D1*
X11533Y18404D2*
Y17735D1*
Y18213D2*
X11390Y18357D1*
X11294Y18404D1*
X11151D1*
X11055Y18357D1*
X11007Y18213D1*
Y17735D1*
X10698Y18117D2*
X10125D1*
Y18213D1*
X10172Y18309D1*
X10220Y18357D1*
X10316Y18404D1*
X10460D1*
X10555Y18357D1*
X10651Y18261D1*
X10698Y18117D1*
Y18022D1*
X10651Y17878D1*
X10555Y17783D1*
X10460Y17735D1*
X10316D1*
X10220Y17783D1*
X10125Y17878D1*
X11766Y7363D2*
X11383Y6358D1*
X11001Y7363D1*
X10405Y7362D2*
X10548Y7315D1*
X10644Y7171D1*
X10692Y6932D1*
Y6788D1*
X10644Y6550D1*
X10548Y6406D1*
X10405Y6358D1*
X10309D1*
X10166Y6406D1*
X10071Y6550D1*
X10022Y6788D1*
Y6932D1*
X10071Y7171D1*
X10166Y7315D1*
X10309Y7362D1*
X10405D1*
X10071Y7171D2*
X10644Y6550D1*
X9666Y6455D2*
X9713Y6406D1*
X9666Y6358D1*
X9617Y6406D1*
X9666Y6455D1*
X8735Y7219D2*
X8782Y7315D1*
X8926Y7362D1*
X9021D1*
X9165Y7315D1*
X9261Y7171D1*
X9308Y6932D1*
Y6693D1*
X9261Y6502D1*
X9165Y6406D1*
X9021Y6358D1*
X8973D1*
X8831Y6406D1*
X8735Y6502D1*
X8687Y6646D1*
Y6693D1*
X8735Y6837D1*
X8831Y6932D1*
X8973Y6980D1*
X9021D1*
X9165Y6932D1*
X9261Y6837D1*
X9308Y6693D1*
M02*
