G04 DipTrace 2.4.0.2*
%INTopAssy.gbr*%
%MOIN*%
%ADD10C,0.0098*%
%ADD12C,0.003*%
%ADD95C,0.0046*%
%FSLAX44Y44*%
G04*
G70*
G90*
G75*
G01*
%LNTopAssy*%
%LPD*%
X12367Y4276D2*
D10*
X6383D1*
X25833D2*
X23045D1*
X19482Y5411D2*
X23270D1*
X20584Y20418D2*
X15072D1*
X10370Y3893D2*
D12*
Y4094D1*
X10283D1*
X10255Y4085D1*
X10245Y4075D1*
X10236Y4056D1*
Y4027D1*
X10245Y4008D1*
X10255Y3999D1*
X10283Y3989D1*
X10255Y3979D1*
X10245Y3970D1*
X10236Y3951D1*
Y3932D1*
X10245Y3913D1*
X10255Y3903D1*
X10283Y3893D1*
X10370D1*
Y3989D2*
X10283D1*
X10116Y3893D2*
X10136Y3903D1*
X10155Y3922D1*
X10164Y3941D1*
X10174Y3970D1*
Y4018D1*
X10164Y4046D1*
X10155Y4066D1*
X10136Y4085D1*
X10116Y4094D1*
X10078D1*
X10059Y4085D1*
X10040Y4066D1*
X10030Y4046D1*
X10021Y4018D1*
Y3970D1*
X10030Y3941D1*
X10040Y3922D1*
X10059Y3903D1*
X10078Y3893D1*
X10116D1*
X9806Y4094D2*
X9883Y3893D1*
X9959Y4094D1*
X9930Y4027D2*
X9835D1*
X9744Y3989D2*
X9658D1*
X9629Y3979D1*
X9620Y3970D1*
X9610Y3951D1*
Y3932D1*
X9620Y3913D1*
X9629Y3903D1*
X9658Y3893D1*
X9744D1*
Y4094D1*
X9677Y3989D2*
X9610Y4094D1*
X9548Y3893D2*
Y4094D1*
X9481D1*
X9453Y4085D1*
X9433Y4066D1*
X9424Y4046D1*
X9414Y4018D1*
Y3970D1*
X9424Y3941D1*
X9433Y3922D1*
X9453Y3903D1*
X9481Y3893D1*
X9548D1*
X9034D2*
X9158D1*
Y4094D1*
X9034D1*
X9158Y3989D2*
X9082D1*
X8972Y3893D2*
Y4094D1*
X8905D1*
X8877Y4085D1*
X8857Y4066D1*
X8848Y4046D1*
X8838Y4018D1*
Y3970D1*
X8848Y3941D1*
X8857Y3922D1*
X8877Y3903D1*
X8905Y3893D1*
X8972D1*
X8633Y3941D2*
X8643Y3922D1*
X8662Y3903D1*
X8681Y3893D1*
X8719D1*
X8738Y3903D1*
X8757Y3922D1*
X8767Y3941D1*
X8777Y3970D1*
Y4018D1*
X8767Y4046D1*
X8757Y4066D1*
X8738Y4085D1*
X8719Y4094D1*
X8681D1*
X8662Y4085D1*
X8643Y4066D1*
X8633Y4046D1*
Y4018D1*
X8681D1*
X8447Y3893D2*
X8571D1*
Y4094D1*
X8447D1*
X8571Y3989D2*
X8495D1*
X25423Y3943D2*
Y4144D1*
X25337D1*
X25309Y4134D1*
X25299Y4124D1*
X25290Y4105D1*
Y4077D1*
X25299Y4057D1*
X25309Y4048D1*
X25337Y4038D1*
X25309Y4029D1*
X25299Y4019D1*
X25290Y4000D1*
Y3981D1*
X25299Y3962D1*
X25309Y3952D1*
X25337Y3943D1*
X25423D1*
Y4038D2*
X25337D1*
X25170Y3943D2*
X25190Y3952D1*
X25209Y3971D1*
X25218Y3990D1*
X25228Y4019D1*
Y4067D1*
X25218Y4096D1*
X25209Y4115D1*
X25190Y4134D1*
X25170Y4144D1*
X25132D1*
X25113Y4134D1*
X25094Y4115D1*
X25084Y4096D1*
X25075Y4067D1*
Y4019D1*
X25084Y3990D1*
X25094Y3971D1*
X25113Y3952D1*
X25132Y3943D1*
X25170D1*
X24860Y4144D2*
X24937Y3943D1*
X25013Y4144D1*
X24984Y4077D2*
X24889D1*
X24798Y4038D2*
X24712D1*
X24683Y4029D1*
X24674Y4019D1*
X24664Y4000D1*
Y3981D1*
X24674Y3962D1*
X24683Y3952D1*
X24712Y3943D1*
X24798D1*
Y4144D1*
X24731Y4038D2*
X24664Y4144D1*
X24602Y3943D2*
Y4144D1*
X24535D1*
X24507Y4134D1*
X24487Y4115D1*
X24478Y4096D1*
X24468Y4067D1*
Y4019D1*
X24478Y3990D1*
X24487Y3971D1*
X24507Y3952D1*
X24535Y3943D1*
X24602D1*
X24088D2*
X24212D1*
Y4144D1*
X24088D1*
X24212Y4038D2*
X24136D1*
X24026Y3943D2*
Y4144D1*
X23959D1*
X23930Y4134D1*
X23911Y4115D1*
X23902Y4096D1*
X23892Y4067D1*
Y4019D1*
X23902Y3990D1*
X23911Y3971D1*
X23930Y3952D1*
X23959Y3943D1*
X24026D1*
X23687Y3990D2*
X23696Y3971D1*
X23716Y3952D1*
X23735Y3943D1*
X23773D1*
X23792Y3952D1*
X23811Y3971D1*
X23821Y3990D1*
X23830Y4019D1*
Y4067D1*
X23821Y4096D1*
X23811Y4115D1*
X23792Y4134D1*
X23773Y4144D1*
X23735D1*
X23716Y4134D1*
X23696Y4115D1*
X23687Y4096D1*
Y4067D1*
X23735D1*
X23501Y3943D2*
X23625D1*
Y4144D1*
X23501D1*
X23625Y4038D2*
X23549D1*
X20391Y5745D2*
Y5544D1*
X20478D1*
X20506Y5553D1*
X20516Y5563D1*
X20525Y5582D1*
Y5611D1*
X20516Y5630D1*
X20506Y5639D1*
X20478Y5649D1*
X20506Y5659D1*
X20516Y5668D1*
X20525Y5687D1*
Y5706D1*
X20516Y5725D1*
X20506Y5735D1*
X20478Y5745D1*
X20391D1*
Y5649D2*
X20478D1*
X20645Y5745D2*
X20625Y5735D1*
X20606Y5716D1*
X20597Y5697D1*
X20587Y5668D1*
Y5620D1*
X20597Y5592D1*
X20606Y5572D1*
X20625Y5553D1*
X20645Y5544D1*
X20683D1*
X20702Y5553D1*
X20721Y5572D1*
X20731Y5592D1*
X20740Y5620D1*
Y5668D1*
X20731Y5697D1*
X20721Y5716D1*
X20702Y5735D1*
X20683Y5745D1*
X20645D1*
X20955Y5544D2*
X20878Y5745D1*
X20802Y5544D1*
X20831Y5611D2*
X20926D1*
X21017Y5649D2*
X21103D1*
X21132Y5659D1*
X21141Y5668D1*
X21151Y5687D1*
Y5706D1*
X21141Y5725D1*
X21132Y5735D1*
X21103Y5745D1*
X21017D1*
Y5544D1*
X21084Y5649D2*
X21151Y5544D1*
X21213Y5745D2*
Y5544D1*
X21280D1*
X21308Y5553D1*
X21328Y5572D1*
X21337Y5592D1*
X21347Y5620D1*
Y5668D1*
X21337Y5697D1*
X21328Y5716D1*
X21308Y5735D1*
X21280Y5745D1*
X21213D1*
X21727D2*
X21603D1*
Y5544D1*
X21727D1*
X21603Y5649D2*
X21679D1*
X21789Y5745D2*
Y5544D1*
X21856D1*
X21884Y5553D1*
X21904Y5572D1*
X21913Y5592D1*
X21923Y5620D1*
Y5668D1*
X21913Y5697D1*
X21904Y5716D1*
X21884Y5735D1*
X21856Y5745D1*
X21789D1*
X22128Y5697D2*
X22118Y5716D1*
X22099Y5735D1*
X22080Y5745D1*
X22042D1*
X22023Y5735D1*
X22004Y5716D1*
X21994Y5697D1*
X21984Y5668D1*
Y5620D1*
X21994Y5592D1*
X22004Y5572D1*
X22023Y5553D1*
X22042Y5544D1*
X22080D1*
X22099Y5553D1*
X22118Y5572D1*
X22128Y5592D1*
Y5620D1*
X22080D1*
X22314Y5745D2*
X22190D1*
Y5544D1*
X22314D1*
X22190Y5649D2*
X22266D1*
X17264Y20036D2*
D95*
X17451D1*
Y20337D1*
X17264D1*
X17451Y20180D2*
X17336D1*
X17172Y20036D2*
Y20337D1*
X17071D1*
X17028Y20323D1*
X16999Y20294D1*
X16985Y20265D1*
X16971Y20223D1*
Y20151D1*
X16985Y20108D1*
X16999Y20079D1*
X17028Y20050D1*
X17071Y20036D1*
X17172D1*
X16663Y20108D2*
X16677Y20079D1*
X16706Y20050D1*
X16734Y20036D1*
X16792D1*
X16821Y20050D1*
X16849Y20079D1*
X16864Y20108D1*
X16878Y20151D1*
Y20223D1*
X16864Y20265D1*
X16849Y20294D1*
X16821Y20323D1*
X16792Y20337D1*
X16734D1*
X16706Y20323D1*
X16677Y20294D1*
X16663Y20265D1*
Y20223D1*
X16734D1*
X16384Y20036D2*
X16570D1*
Y20337D1*
X16384D1*
X16570Y20180D2*
X16455D1*
X19242Y20040D2*
Y20341D1*
X19113D1*
X19070Y20327D1*
X19055Y20312D1*
X19041Y20284D1*
Y20241D1*
X19055Y20212D1*
X19070Y20198D1*
X19113Y20183D1*
X19070Y20169D1*
X19055Y20154D1*
X19041Y20126D1*
Y20097D1*
X19055Y20069D1*
X19070Y20054D1*
X19113Y20040D1*
X19242D1*
Y20183D2*
X19113D1*
X18862Y20040D2*
X18891Y20054D1*
X18920Y20083D1*
X18934Y20111D1*
X18948Y20154D1*
Y20226D1*
X18934Y20269D1*
X18920Y20298D1*
X18891Y20327D1*
X18862Y20341D1*
X18805D1*
X18776Y20327D1*
X18747Y20298D1*
X18733Y20269D1*
X18719Y20226D1*
Y20154D1*
X18733Y20111D1*
X18747Y20083D1*
X18776Y20054D1*
X18805Y20040D1*
X18862D1*
X18396Y20341D2*
X18512Y20040D1*
X18626Y20341D1*
X18583Y20241D2*
X18440D1*
X18304Y20183D2*
X18175D1*
X18132Y20169D1*
X18117Y20154D1*
X18103Y20126D1*
Y20097D1*
X18117Y20069D1*
X18132Y20054D1*
X18175Y20040D1*
X18304D1*
Y20341D1*
X18203Y20183D2*
X18103Y20341D1*
X18010Y20040D2*
Y20341D1*
X17910D1*
X17867Y20327D1*
X17838Y20298D1*
X17824Y20269D1*
X17809Y20226D1*
Y20154D1*
X17824Y20111D1*
X17838Y20083D1*
X17867Y20054D1*
X17910Y20040D1*
X18010D1*
M02*
