G04 DipTrace 2.4.0.2*
%INTopDimension.gbr*%
%MOIN*%
%ADD13C,0.0014*%
%ADD97C,0.0062*%
%FSLAX44Y44*%
G04*
G70*
G90*
G75*
G01*
%LNTopDimension*%
%LPD*%
X6687Y19687D2*
D13*
X-3135D1*
X9448Y20416D2*
X-3135D1*
X-2938D2*
Y19687D1*
Y21006D2*
Y20809D1*
G36*
Y20416D2*
X-3017Y20809D1*
X-2859D1*
X-2938Y20416D1*
G37*
Y19096D2*
D13*
Y19293D1*
G36*
Y19687D2*
X-2859Y19293D1*
X-3017D1*
X-2938Y19687D1*
G37*
Y21850D2*
D13*
Y20416D1*
X13901D2*
X14759D1*
X15426Y20418D2*
X14365D1*
X14562D2*
Y20416D1*
Y21008D2*
Y20811D1*
G36*
Y20418D2*
X14483Y20811D1*
X14641D1*
X14562Y20418D1*
G37*
Y19825D2*
D13*
Y20022D1*
G36*
Y20416D2*
X14641Y20022D1*
X14483D1*
X14562Y20416D1*
G37*
Y19754D2*
D13*
Y20418D1*
X3937Y16812D2*
Y24634D1*
X9448Y20416D2*
Y24634D1*
X6692Y24437D2*
X4331D1*
G36*
X3937D2*
X4331Y24516D1*
Y24358D1*
X3937Y24437D1*
G37*
X6692D2*
D13*
X9054D1*
G36*
X9448D2*
X9054Y24358D1*
Y24516D1*
X9448Y24437D1*
G37*
X20230Y20418D2*
D13*
Y24884D1*
X25937Y16687D2*
Y24884D1*
X23083Y24687D2*
X20623D1*
G36*
X20230D2*
X20623Y24766D1*
Y24608D1*
X20230Y24687D1*
G37*
X23083D2*
D13*
X25543D1*
G36*
X25937D2*
X25543Y24608D1*
Y24766D1*
X25937Y24687D1*
G37*
X3937Y16812D2*
D13*
Y28259D1*
X25937Y16687D2*
Y28259D1*
X14937Y28062D2*
X4331D1*
G36*
X3937D2*
X4331Y28141D1*
Y27983D1*
X3937Y28062D1*
G37*
X14937D2*
D13*
X25543D1*
G36*
X25937D2*
X25543Y27983D1*
Y28141D1*
X25937Y28062D1*
G37*
X3937Y16812D2*
D13*
Y20384D1*
X6687Y16812D2*
Y20384D1*
X5312Y20187D2*
X4331D1*
G36*
X3937D2*
X4331Y20266D1*
Y20108D1*
X3937Y20187D1*
G37*
X5312D2*
D13*
X6293D1*
G36*
X6687D2*
X6293Y20108D1*
Y20266D1*
X6687Y20187D1*
G37*
Y19687D2*
D13*
X990D1*
X3937Y16812D2*
X990D1*
X1187Y18250D2*
Y19293D1*
G36*
Y19687D2*
X1266Y19293D1*
X1108D1*
X1187Y19687D1*
G37*
Y18250D2*
D13*
Y17206D1*
G36*
Y16812D2*
X1108Y17206D1*
X1266D1*
X1187Y16812D1*
G37*
X23187Y19687D2*
D13*
X30259D1*
X23187Y16687D2*
X30259D1*
X30062Y18187D2*
Y19293D1*
G36*
Y19687D2*
X30141Y19293D1*
X29983D1*
X30062Y19687D1*
G37*
Y18187D2*
D13*
Y17081D1*
G36*
Y16687D2*
X29983Y17081D1*
X30141D1*
X30062Y16687D1*
G37*
X23187Y19687D2*
D13*
Y21884D1*
X25937Y16687D2*
Y21884D1*
X24562Y21687D2*
X23581D1*
G36*
X23187D2*
X23581Y21766D1*
Y21608D1*
X23187Y21687D1*
G37*
X24562D2*
D13*
X25543D1*
G36*
X25937D2*
X25543Y21608D1*
Y21766D1*
X25937Y21687D1*
G37*
X6687Y19687D2*
D13*
X-6510D1*
X3937Y3937D2*
X-6510D1*
X-6313Y11812D2*
Y19293D1*
G36*
Y19687D2*
X-6234Y19293D1*
X-6392D1*
X-6313Y19687D1*
G37*
Y11812D2*
D13*
Y4331D1*
G36*
Y3937D2*
X-6392Y4331D1*
X-6234D1*
X-6313Y3937D1*
G37*
X3937Y16812D2*
D13*
Y27259D1*
X14937Y3937D2*
Y27259D1*
X9437Y27062D2*
X4331D1*
G36*
X3937D2*
X4331Y27141D1*
Y26983D1*
X3937Y27062D1*
G37*
X9437D2*
D13*
X14543D1*
G36*
X14937D2*
X14543Y26983D1*
Y27141D1*
X14937Y27062D1*
G37*
X14187Y11467D2*
D13*
Y2615D1*
X14937Y3937D2*
Y2615D1*
X14187Y2812D2*
X14937D1*
X13596D2*
X13793D1*
G36*
X14187D2*
X13793Y2733D1*
Y2891D1*
X14187Y2812D1*
G37*
X15528D2*
D13*
X15331D1*
G36*
X14937D2*
X15331Y2891D1*
Y2733D1*
X14937Y2812D1*
G37*
X15961D2*
D13*
X14937D1*
X15687Y7689D2*
Y1990D1*
X14937Y2812D2*
Y1990D1*
Y2187D2*
X15687D1*
X14346D2*
X14543D1*
G36*
X14937D2*
X14543Y2108D1*
Y2266D1*
X14937Y2187D1*
G37*
X16278D2*
D13*
X16081D1*
G36*
X15687D2*
X16081Y2266D1*
Y2108D1*
X15687Y2187D1*
G37*
X16931D2*
D13*
X15687D1*
X14187Y11467D2*
X17259D1*
X15687Y11469D2*
X17259D1*
X17062D2*
Y11467D1*
Y12059D2*
Y11862D1*
G36*
Y11469D2*
X16983Y11862D1*
X17141D1*
X17062Y11469D1*
G37*
Y10876D2*
D13*
Y11073D1*
G36*
Y11467D2*
X17141Y11073D1*
X16983D1*
X17062Y11467D1*
G37*
Y10032D2*
D13*
Y11469D1*
X6687Y19687D2*
X-1635D1*
X14187Y11467D2*
X-1635D1*
X-1438Y15577D2*
Y19293D1*
G36*
Y19687D2*
X-1359Y19293D1*
X-1517D1*
X-1438Y19687D1*
G37*
Y15577D2*
D13*
Y11860D1*
G36*
Y11467D2*
X-1517Y11860D1*
X-1359D1*
X-1438Y11467D1*
G37*
X6687Y19687D2*
D13*
X-3135D1*
X14187Y9577D2*
X-3135D1*
X-2938Y14632D2*
Y19293D1*
G36*
Y19687D2*
X-2859Y19293D1*
X-3017D1*
X-2938Y19687D1*
G37*
Y14632D2*
D13*
Y9970D1*
G36*
Y9577D2*
X-3017Y9970D1*
X-2859D1*
X-2938Y9577D1*
G37*
X13901Y20416D2*
D13*
Y29259D1*
X15426Y20418D2*
Y29259D1*
X13901Y29062D2*
X15426D1*
X13310D2*
X13507D1*
G36*
X13901D2*
X13507Y28983D1*
Y29141D1*
X13901Y29062D1*
G37*
X16016D2*
D13*
X15820D1*
G36*
X15426D2*
X15820Y29141D1*
Y28983D1*
X15426Y29062D1*
G37*
X20859Y19578D2*
D13*
Y22509D1*
X20230Y20418D2*
Y22509D1*
Y22312D2*
X20859D1*
X19639D2*
X19836D1*
G36*
X20230D2*
X19836Y22233D1*
Y22391D1*
X20230Y22312D1*
G37*
X21449D2*
D13*
X21252D1*
G36*
X20859D2*
X21252Y22391D1*
Y22233D1*
X20859Y22312D1*
G37*
X21882D2*
D13*
X20859D1*
X23187Y19687D2*
Y26509D1*
X6687Y19687D2*
Y26509D1*
X14937Y26312D2*
X22793D1*
G36*
X23187D2*
X22793Y26233D1*
Y26391D1*
X23187Y26312D1*
G37*
X14937D2*
D13*
X7081D1*
G36*
X6687D2*
X7081Y26391D1*
Y26233D1*
X6687Y26312D1*
G37*
X-3385Y20902D2*
D97*
X-3405Y20941D1*
X-3462Y20998D1*
X-3060D1*
X-3099Y21141D2*
X-3079Y21122D1*
X-3060Y21141D1*
X-3079Y21160D1*
X-3099Y21141D1*
X-3462Y21379D2*
X-3443Y21322D1*
X-3405Y21303D1*
X-3366D1*
X-3328Y21322D1*
X-3309Y21360D1*
X-3290Y21437D1*
X-3271Y21494D1*
X-3232Y21532D1*
X-3194Y21551D1*
X-3137D1*
X-3099Y21532D1*
X-3079Y21513D1*
X-3060Y21456D1*
Y21379D1*
X-3079Y21322D1*
X-3099Y21303D1*
X-3137Y21284D1*
X-3194D1*
X-3232Y21303D1*
X-3271Y21341D1*
X-3290Y21398D1*
X-3309Y21475D1*
X-3328Y21513D1*
X-3366Y21532D1*
X-3405D1*
X-3443Y21513D1*
X-3462Y21456D1*
Y21379D1*
Y21904D2*
Y21713D1*
X-3290Y21694D1*
X-3309Y21713D1*
X-3328Y21770D1*
Y21828D1*
X-3309Y21885D1*
X-3271Y21923D1*
X-3213Y21942D1*
X-3175D1*
X-3118Y21923D1*
X-3079Y21885D1*
X-3060Y21828D1*
Y21770D1*
X-3079Y21713D1*
X-3099Y21694D1*
X-3137Y21675D1*
X15086Y19814D2*
X15067Y19872D1*
X15009Y19910D1*
X14914Y19929D1*
X14856D1*
X14761Y19910D1*
X14703Y19872D1*
X14684Y19814D1*
Y19776D1*
X14703Y19719D1*
X14761Y19681D1*
X14856Y19661D1*
X14914D1*
X15009Y19681D1*
X15067Y19719D1*
X15086Y19776D1*
Y19814D1*
X15009Y19681D2*
X14761Y19910D1*
X6470Y24884D2*
X6509Y24904D1*
X6566Y24961D1*
Y24559D1*
X6881D2*
Y24961D1*
X6690Y24693D1*
X6977D1*
X22584Y25134D2*
X22623Y25154D1*
X22680Y25211D1*
Y24809D1*
X22995D2*
Y25211D1*
X22804Y24943D1*
X23091D1*
X23233Y24848D2*
X23214Y24828D1*
X23233Y24809D1*
X23253Y24828D1*
X23233Y24848D1*
X23606Y25211D2*
X23415D1*
X23396Y25039D1*
X23415Y25058D1*
X23472Y25077D1*
X23529D1*
X23587Y25058D1*
X23625Y25020D1*
X23644Y24962D1*
Y24924D1*
X23625Y24867D1*
X23587Y24828D1*
X23529Y24809D1*
X23472D1*
X23415Y24828D1*
X23396Y24848D1*
X23376Y24886D1*
X14396Y28586D2*
X14205D1*
X14186Y28414D1*
X14205Y28433D1*
X14262Y28452D1*
X14319D1*
X14377Y28433D1*
X14415Y28395D1*
X14434Y28337D1*
Y28299D1*
X14415Y28242D1*
X14377Y28203D1*
X14319Y28184D1*
X14262D1*
X14205Y28203D1*
X14186Y28223D1*
X14166Y28261D1*
X14787Y28586D2*
X14596D1*
X14577Y28414D1*
X14596Y28433D1*
X14654Y28452D1*
X14711D1*
X14768Y28433D1*
X14807Y28395D1*
X14826Y28337D1*
Y28299D1*
X14807Y28242D1*
X14768Y28203D1*
X14711Y28184D1*
X14654D1*
X14596Y28203D1*
X14577Y28223D1*
X14558Y28261D1*
X14968Y28223D2*
X14949Y28203D1*
X14968Y28184D1*
X14988Y28203D1*
X14968Y28223D1*
X15207Y28586D2*
X15150Y28567D1*
X15130Y28529D1*
Y28490D1*
X15150Y28452D1*
X15188Y28433D1*
X15264Y28414D1*
X15322Y28395D1*
X15360Y28356D1*
X15379Y28318D1*
Y28261D1*
X15360Y28223D1*
X15341Y28203D1*
X15283Y28184D1*
X15207D1*
X15150Y28203D1*
X15130Y28223D1*
X15111Y28261D1*
Y28318D1*
X15130Y28356D1*
X15169Y28395D1*
X15226Y28414D1*
X15302Y28433D1*
X15341Y28452D1*
X15360Y28490D1*
Y28529D1*
X15341Y28567D1*
X15283Y28586D1*
X15207D1*
X15598D2*
X15541Y28567D1*
X15521Y28529D1*
Y28490D1*
X15541Y28452D1*
X15579Y28433D1*
X15655Y28414D1*
X15713Y28395D1*
X15751Y28356D1*
X15770Y28318D1*
Y28261D1*
X15751Y28223D1*
X15732Y28203D1*
X15674Y28184D1*
X15598D1*
X15541Y28203D1*
X15521Y28223D1*
X15502Y28261D1*
Y28318D1*
X15521Y28356D1*
X15560Y28395D1*
X15617Y28414D1*
X15693Y28433D1*
X15732Y28452D1*
X15751Y28490D1*
Y28529D1*
X15732Y28567D1*
X15674Y28586D1*
X15598D1*
X4995Y20654D2*
X4976Y20692D1*
X4918Y20711D1*
X4880D1*
X4823Y20692D1*
X4784Y20634D1*
X4765Y20539D1*
Y20443D1*
X4784Y20367D1*
X4823Y20328D1*
X4880Y20309D1*
X4899D1*
X4956Y20328D1*
X4995Y20367D1*
X5014Y20424D1*
Y20443D1*
X4995Y20501D1*
X4956Y20539D1*
X4899Y20558D1*
X4880D1*
X4823Y20539D1*
X4784Y20501D1*
X4765Y20443D1*
X5156Y20348D2*
X5137Y20328D1*
X5156Y20309D1*
X5176Y20328D1*
X5156Y20348D1*
X5548Y20577D2*
X5529Y20520D1*
X5491Y20481D1*
X5433Y20462D1*
X5414D1*
X5357Y20481D1*
X5319Y20520D1*
X5299Y20577D1*
Y20596D1*
X5319Y20654D1*
X5357Y20692D1*
X5414Y20711D1*
X5433D1*
X5491Y20692D1*
X5529Y20654D1*
X5548Y20577D1*
Y20481D1*
X5529Y20386D1*
X5491Y20328D1*
X5433Y20309D1*
X5395D1*
X5338Y20328D1*
X5319Y20367D1*
X5921Y20577D2*
X5901Y20520D1*
X5863Y20481D1*
X5806Y20462D1*
X5787D1*
X5729Y20481D1*
X5691Y20520D1*
X5672Y20577D1*
Y20596D1*
X5691Y20654D1*
X5729Y20692D1*
X5787Y20711D1*
X5806D1*
X5863Y20692D1*
X5901Y20654D1*
X5921Y20577D1*
Y20481D1*
X5901Y20386D1*
X5863Y20328D1*
X5806Y20309D1*
X5768D1*
X5710Y20328D1*
X5691Y20367D1*
X1065Y17946D2*
X663Y18138D1*
Y17870D1*
X1026Y18280D2*
X1046Y18261D1*
X1065Y18280D1*
X1046Y18300D1*
X1026Y18280D1*
X663Y18462D2*
Y18672D1*
X816Y18557D1*
Y18615D1*
X835Y18653D1*
X854Y18672D1*
X912Y18691D1*
X950D1*
X1007Y18672D1*
X1046Y18634D1*
X1065Y18576D1*
Y18519D1*
X1046Y18462D1*
X1026Y18443D1*
X988Y18423D1*
X30184Y18676D2*
X30586Y18485D1*
Y18753D1*
X30223Y18342D2*
X30203Y18361D1*
X30184Y18342D1*
X30203Y18323D1*
X30223Y18342D1*
X30529Y17970D2*
X30567Y17989D1*
X30586Y18046D1*
Y18084D1*
X30567Y18142D1*
X30509Y18180D1*
X30414Y18199D1*
X30318D1*
X30242Y18180D1*
X30203Y18142D1*
X30184Y18084D1*
Y18065D1*
X30203Y18008D1*
X30242Y17970D1*
X30299Y17951D1*
X30318D1*
X30376Y17970D1*
X30414Y18008D1*
X30433Y18065D1*
Y18084D1*
X30414Y18142D1*
X30376Y18180D1*
X30318Y18199D1*
X30490Y17808D2*
X30509D1*
X30548Y17789D1*
X30567Y17770D1*
X30586Y17731D1*
Y17655D1*
X30567Y17617D1*
X30548Y17598D1*
X30509Y17578D1*
X30471D1*
X30433Y17598D1*
X30376Y17636D1*
X30184Y17827D1*
Y17559D1*
X24245Y22154D2*
X24226Y22192D1*
X24168Y22211D1*
X24130D1*
X24073Y22192D1*
X24034Y22134D1*
X24015Y22039D1*
Y21943D1*
X24034Y21867D1*
X24073Y21828D1*
X24130Y21809D1*
X24149D1*
X24206Y21828D1*
X24245Y21867D1*
X24264Y21924D1*
Y21943D1*
X24245Y22001D1*
X24206Y22039D1*
X24149Y22058D1*
X24130D1*
X24073Y22039D1*
X24034Y22001D1*
X24015Y21943D1*
X24406Y21848D2*
X24387Y21828D1*
X24406Y21809D1*
X24426Y21828D1*
X24406Y21848D1*
X24798Y22077D2*
X24779Y22020D1*
X24741Y21981D1*
X24683Y21962D1*
X24664D1*
X24607Y21981D1*
X24569Y22020D1*
X24549Y22077D1*
Y22096D1*
X24569Y22154D1*
X24607Y22192D1*
X24664Y22211D1*
X24683D1*
X24741Y22192D1*
X24779Y22154D1*
X24798Y22077D1*
Y21981D1*
X24779Y21886D1*
X24741Y21828D1*
X24683Y21809D1*
X24645D1*
X24588Y21828D1*
X24569Y21867D1*
X25171Y22077D2*
X25151Y22020D1*
X25113Y21981D1*
X25056Y21962D1*
X25037D1*
X24979Y21981D1*
X24941Y22020D1*
X24922Y22077D1*
Y22096D1*
X24941Y22154D1*
X24979Y22192D1*
X25037Y22211D1*
X25056D1*
X25113Y22192D1*
X25151Y22154D1*
X25171Y22077D1*
Y21981D1*
X25151Y21886D1*
X25113Y21828D1*
X25056Y21809D1*
X25018D1*
X24960Y21828D1*
X24941Y21867D1*
X-6435Y11309D2*
X-6837D1*
X-6569Y11117D1*
Y11404D1*
X-6837Y11643D2*
X-6818Y11585D1*
X-6760Y11547D1*
X-6665Y11528D1*
X-6607D1*
X-6512Y11547D1*
X-6454Y11585D1*
X-6435Y11643D1*
Y11681D1*
X-6454Y11738D1*
X-6512Y11776D1*
X-6607Y11796D1*
X-6665D1*
X-6760Y11776D1*
X-6818Y11738D1*
X-6837Y11681D1*
Y11643D1*
X-6760Y11776D2*
X-6512Y11547D1*
X-6474Y11938D2*
X-6454Y11919D1*
X-6435Y11938D1*
X-6454Y11958D1*
X-6474Y11938D1*
X-6837Y12196D2*
X-6818Y12139D1*
X-6760Y12100D1*
X-6665Y12081D1*
X-6607D1*
X-6512Y12100D1*
X-6454Y12139D1*
X-6435Y12196D1*
Y12234D1*
X-6454Y12292D1*
X-6512Y12330D1*
X-6607Y12349D1*
X-6665D1*
X-6760Y12330D1*
X-6818Y12292D1*
X-6837Y12234D1*
Y12196D1*
X-6760Y12330D2*
X-6512Y12100D1*
X-6760Y12473D2*
X-6780Y12511D1*
X-6837Y12569D1*
X-6435D1*
X8685Y27490D2*
Y27509D1*
X8704Y27548D1*
X8723Y27567D1*
X8762Y27586D1*
X8838D1*
X8876Y27567D1*
X8895Y27548D1*
X8915Y27509D1*
Y27471D1*
X8895Y27433D1*
X8857Y27376D1*
X8666Y27184D1*
X8934D1*
X9134D2*
X9325Y27586D1*
X9057D1*
X9468Y27223D2*
X9449Y27203D1*
X9468Y27184D1*
X9487Y27203D1*
X9468Y27223D1*
X9860Y27452D2*
X9840Y27395D1*
X9802Y27356D1*
X9745Y27337D1*
X9726D1*
X9668Y27356D1*
X9630Y27395D1*
X9611Y27452D1*
Y27471D1*
X9630Y27529D1*
X9668Y27567D1*
X9726Y27586D1*
X9745D1*
X9802Y27567D1*
X9840Y27529D1*
X9860Y27452D1*
Y27356D1*
X9840Y27261D1*
X9802Y27203D1*
X9745Y27184D1*
X9707D1*
X9649Y27203D1*
X9630Y27242D1*
X10175Y27184D2*
Y27586D1*
X9983Y27318D1*
X10270D1*
X15423Y3259D2*
X15462Y3279D1*
X15519Y3336D1*
Y2934D1*
X15662Y2973D2*
X15643Y2953D1*
X15662Y2934D1*
X15681Y2953D1*
X15662Y2973D1*
X16054Y3202D2*
X16034Y3145D1*
X15996Y3106D1*
X15939Y3087D1*
X15920D1*
X15862Y3106D1*
X15824Y3145D1*
X15805Y3202D1*
Y3221D1*
X15824Y3279D1*
X15862Y3317D1*
X15920Y3336D1*
X15939D1*
X15996Y3317D1*
X16034Y3279D1*
X16054Y3202D1*
Y3106D1*
X16034Y3011D1*
X15996Y2953D1*
X15939Y2934D1*
X15901D1*
X15843Y2953D1*
X15824Y2992D1*
X16173Y2634D2*
X16212Y2654D1*
X16269Y2711D1*
Y2309D1*
X16412Y2348D2*
X16393Y2328D1*
X16412Y2309D1*
X16431Y2328D1*
X16412Y2348D1*
X16804Y2577D2*
X16784Y2520D1*
X16746Y2481D1*
X16689Y2462D1*
X16670D1*
X16612Y2481D1*
X16574Y2520D1*
X16555Y2577D1*
Y2596D1*
X16574Y2654D1*
X16612Y2692D1*
X16670Y2711D1*
X16689D1*
X16746Y2692D1*
X16784Y2654D1*
X16804Y2577D1*
Y2481D1*
X16784Y2386D1*
X16746Y2328D1*
X16689Y2309D1*
X16651D1*
X16593Y2328D1*
X16574Y2367D1*
X16927Y2634D2*
X16966Y2654D1*
X17023Y2711D1*
Y2309D1*
X17586Y10865D2*
X17567Y10923D1*
X17509Y10961D1*
X17414Y10980D1*
X17356D1*
X17261Y10961D1*
X17203Y10923D1*
X17184Y10865D1*
Y10827D1*
X17203Y10770D1*
X17261Y10732D1*
X17356Y10712D1*
X17414D1*
X17509Y10732D1*
X17567Y10770D1*
X17586Y10827D1*
Y10865D1*
X17509Y10732D2*
X17261Y10961D1*
X17223Y10570D2*
X17203Y10589D1*
X17184Y10570D1*
X17203Y10550D1*
X17223Y10570D1*
X17586Y10312D2*
X17567Y10369D1*
X17509Y10408D1*
X17414Y10427D1*
X17356D1*
X17261Y10408D1*
X17203Y10369D1*
X17184Y10312D1*
Y10274D1*
X17203Y10216D1*
X17261Y10178D1*
X17356Y10159D1*
X17414D1*
X17509Y10178D1*
X17567Y10216D1*
X17586Y10274D1*
Y10312D1*
X17509Y10178D2*
X17261Y10408D1*
X17509Y10035D2*
X17529Y9997D1*
X17586Y9939D1*
X17184D1*
X-1866Y14825D2*
X-1885D1*
X-1924Y14844D1*
X-1943Y14863D1*
X-1962Y14902D1*
Y14978D1*
X-1943Y15016D1*
X-1924Y15035D1*
X-1885Y15055D1*
X-1847D1*
X-1809Y15035D1*
X-1752Y14997D1*
X-1560Y14806D1*
Y15074D1*
X-1962Y15312D2*
X-1943Y15255D1*
X-1885Y15216D1*
X-1790Y15197D1*
X-1732D1*
X-1637Y15216D1*
X-1579Y15255D1*
X-1560Y15312D1*
Y15350D1*
X-1579Y15408D1*
X-1637Y15446D1*
X-1732Y15465D1*
X-1790D1*
X-1885Y15446D1*
X-1943Y15408D1*
X-1962Y15350D1*
Y15312D1*
X-1885Y15446D2*
X-1637Y15216D1*
X-1599Y15608D2*
X-1579Y15589D1*
X-1560Y15608D1*
X-1579Y15627D1*
X-1599Y15608D1*
X-1962Y15846D2*
X-1943Y15789D1*
X-1905Y15770D1*
X-1866D1*
X-1828Y15789D1*
X-1809Y15827D1*
X-1790Y15904D1*
X-1771Y15961D1*
X-1732Y15999D1*
X-1694Y16018D1*
X-1637D1*
X-1599Y15999D1*
X-1579Y15980D1*
X-1560Y15923D1*
Y15846D1*
X-1579Y15789D1*
X-1599Y15770D1*
X-1637Y15751D1*
X-1694D1*
X-1732Y15770D1*
X-1771Y15808D1*
X-1790Y15865D1*
X-1809Y15942D1*
X-1828Y15980D1*
X-1866Y15999D1*
X-1905D1*
X-1943Y15980D1*
X-1962Y15923D1*
Y15846D1*
Y16237D2*
X-1943Y16180D1*
X-1905Y16161D1*
X-1866D1*
X-1828Y16180D1*
X-1809Y16218D1*
X-1790Y16295D1*
X-1771Y16352D1*
X-1732Y16390D1*
X-1694Y16409D1*
X-1637D1*
X-1599Y16390D1*
X-1579Y16371D1*
X-1560Y16314D1*
Y16237D1*
X-1579Y16180D1*
X-1599Y16161D1*
X-1637Y16142D1*
X-1694D1*
X-1732Y16161D1*
X-1771Y16199D1*
X-1790Y16256D1*
X-1809Y16333D1*
X-1828Y16371D1*
X-1866Y16390D1*
X-1905D1*
X-1943Y16371D1*
X-1962Y16314D1*
Y16237D1*
X-3366Y13890D2*
X-3385D1*
X-3424Y13909D1*
X-3443Y13928D1*
X-3462Y13967D1*
Y14043D1*
X-3443Y14081D1*
X-3424Y14100D1*
X-3385Y14119D1*
X-3347D1*
X-3309Y14100D1*
X-3252Y14062D1*
X-3060Y13871D1*
Y14139D1*
X-3462Y14492D2*
Y14300D1*
X-3290Y14281D1*
X-3309Y14300D1*
X-3328Y14358D1*
Y14415D1*
X-3309Y14472D1*
X-3271Y14511D1*
X-3213Y14530D1*
X-3175D1*
X-3118Y14511D1*
X-3079Y14472D1*
X-3060Y14415D1*
Y14358D1*
X-3079Y14300D1*
X-3099Y14281D1*
X-3137Y14262D1*
X-3099Y14672D2*
X-3079Y14653D1*
X-3060Y14672D1*
X-3079Y14692D1*
X-3099Y14672D1*
X-3405Y15045D2*
X-3443Y15026D1*
X-3462Y14968D1*
Y14930D1*
X-3443Y14873D1*
X-3385Y14834D1*
X-3290Y14815D1*
X-3194D1*
X-3118Y14834D1*
X-3079Y14873D1*
X-3060Y14930D1*
Y14949D1*
X-3079Y15006D1*
X-3118Y15045D1*
X-3175Y15064D1*
X-3194D1*
X-3252Y15045D1*
X-3290Y15006D1*
X-3309Y14949D1*
Y14930D1*
X-3290Y14873D1*
X-3252Y14834D1*
X-3194Y14815D1*
X-3462Y15283D2*
X-3443Y15226D1*
X-3405Y15206D1*
X-3366D1*
X-3328Y15226D1*
X-3309Y15264D1*
X-3290Y15340D1*
X-3271Y15398D1*
X-3232Y15436D1*
X-3194Y15455D1*
X-3137D1*
X-3099Y15436D1*
X-3079Y15417D1*
X-3060Y15359D1*
Y15283D1*
X-3079Y15226D1*
X-3099Y15206D1*
X-3137Y15187D1*
X-3194D1*
X-3232Y15206D1*
X-3271Y15245D1*
X-3290Y15302D1*
X-3309Y15378D1*
X-3328Y15417D1*
X-3366Y15436D1*
X-3405D1*
X-3443Y15417D1*
X-3462Y15359D1*
Y15283D1*
X14126Y29586D2*
X14336D1*
X14222Y29433D1*
X14279D1*
X14317Y29414D1*
X14336Y29395D1*
X14356Y29337D1*
Y29299D1*
X14336Y29242D1*
X14298Y29203D1*
X14241Y29184D1*
X14183D1*
X14126Y29203D1*
X14107Y29223D1*
X14088Y29261D1*
X14498Y29223D2*
X14479Y29203D1*
X14498Y29184D1*
X14518Y29203D1*
X14498Y29223D1*
X14737Y29586D2*
X14680Y29567D1*
X14660Y29529D1*
Y29490D1*
X14680Y29452D1*
X14718Y29433D1*
X14794Y29414D1*
X14852Y29395D1*
X14890Y29356D1*
X14909Y29318D1*
Y29261D1*
X14890Y29223D1*
X14871Y29203D1*
X14813Y29184D1*
X14737D1*
X14680Y29203D1*
X14660Y29223D1*
X14641Y29261D1*
Y29318D1*
X14660Y29356D1*
X14699Y29395D1*
X14756Y29414D1*
X14832Y29433D1*
X14871Y29452D1*
X14890Y29490D1*
Y29529D1*
X14871Y29567D1*
X14813Y29586D1*
X14737D1*
X15109Y29184D2*
X15300Y29586D1*
X15032D1*
X21345Y22759D2*
X21384Y22779D1*
X21441Y22836D1*
Y22434D1*
X21584Y22473D2*
X21565Y22453D1*
X21584Y22434D1*
X21603Y22453D1*
X21584Y22473D1*
X21956Y22779D2*
X21937Y22817D1*
X21880Y22836D1*
X21842D1*
X21784Y22817D1*
X21746Y22759D1*
X21727Y22664D1*
Y22568D1*
X21746Y22492D1*
X21784Y22453D1*
X21842Y22434D1*
X21861D1*
X21918Y22453D1*
X21956Y22492D1*
X21975Y22549D1*
Y22568D1*
X21956Y22626D1*
X21918Y22664D1*
X21861Y22683D1*
X21842D1*
X21784Y22664D1*
X21746Y22626D1*
X21727Y22568D1*
X14529Y26434D2*
Y26836D1*
X14338Y26568D1*
X14625D1*
X14748Y26759D2*
X14787Y26779D1*
X14844Y26836D1*
Y26434D1*
X14987Y26473D2*
X14968Y26453D1*
X14987Y26434D1*
X15006Y26453D1*
X14987Y26473D1*
X15379Y26702D2*
X15359Y26645D1*
X15321Y26606D1*
X15264Y26587D1*
X15245D1*
X15187Y26606D1*
X15149Y26645D1*
X15130Y26702D1*
Y26721D1*
X15149Y26779D1*
X15187Y26817D1*
X15245Y26836D1*
X15264D1*
X15321Y26817D1*
X15359Y26779D1*
X15379Y26702D1*
Y26606D1*
X15359Y26511D1*
X15321Y26453D1*
X15264Y26434D1*
X15226D1*
X15168Y26453D1*
X15149Y26492D1*
X15502Y26759D2*
X15541Y26779D1*
X15598Y26836D1*
Y26434D1*
M02*
