G04 MADE WITH FRITZING*
G04 WWW.FRITZING.ORG*
G04 DOUBLE SIDED*
G04 HOLES PLATED*
G04 CONTOUR ON CENTER OF CONTOUR VECTOR*
%ASAXBY*%
%FSLAX23Y23*%
%MOIN*%
%OFA0B0*%
%SFA1.0B1.0*%
%ADD10C,0.084000*%
%ADD11C,0.080925*%
%ADD12C,0.080866*%
%ADD13C,0.049370*%
%ADD14C,0.076000*%
%ADD15C,0.120000*%
%ADD16C,0.088000*%
%ADD17C,0.096614*%
%ADD18R,0.001000X0.001000*%
%LNMASK0*%
G90*
G70*
G54D10*
X363Y1077D03*
X263Y1077D03*
X363Y1177D03*
X263Y1177D03*
X363Y1277D03*
X263Y1277D03*
G54D11*
X1338Y392D03*
G54D12*
X1531Y392D03*
G54D13*
X1353Y745D03*
X1316Y709D03*
X1283Y671D03*
G54D14*
X283Y592D03*
X283Y690D03*
X205Y690D03*
X205Y592D03*
G54D15*
X98Y404D03*
X98Y878D03*
G54D16*
X1885Y1193D03*
X1885Y1093D03*
X1885Y993D03*
X1885Y893D03*
X1885Y793D03*
X1885Y693D03*
X1885Y593D03*
G54D17*
X1902Y81D03*
X104Y88D03*
X1896Y1292D03*
X102Y1291D03*
G54D16*
X832Y90D03*
X732Y90D03*
X1544Y78D03*
X1444Y76D03*
G54D13*
X656Y730D03*
X1736Y1092D03*
X1044Y1142D03*
X1483Y816D03*
X1466Y766D03*
X1043Y1057D03*
X553Y1069D03*
X1520Y1067D03*
X1292Y970D03*
X545Y513D03*
X547Y354D03*
X525Y803D03*
X755Y1113D03*
X565Y1233D03*
X365Y813D03*
X1105Y1233D03*
X1352Y621D03*
X1705Y524D03*
X1487Y939D03*
X1356Y931D03*
G54D16*
X1258Y176D03*
X1158Y176D03*
X1058Y176D03*
G54D13*
X421Y503D03*
X1101Y937D03*
X959Y884D03*
G54D18*
X321Y1119D02*
X404Y1119D01*
X321Y1118D02*
X404Y1118D01*
X321Y1117D02*
X404Y1117D01*
X321Y1116D02*
X404Y1116D01*
X321Y1115D02*
X404Y1115D01*
X321Y1114D02*
X404Y1114D01*
X321Y1113D02*
X404Y1113D01*
X321Y1112D02*
X404Y1112D01*
X321Y1111D02*
X404Y1111D01*
X321Y1110D02*
X404Y1110D01*
X321Y1109D02*
X404Y1109D01*
X321Y1108D02*
X404Y1108D01*
X321Y1107D02*
X404Y1107D01*
X321Y1106D02*
X404Y1106D01*
X321Y1105D02*
X404Y1105D01*
X321Y1104D02*
X404Y1104D01*
X321Y1103D02*
X404Y1103D01*
X321Y1102D02*
X404Y1102D01*
X321Y1101D02*
X404Y1101D01*
X321Y1100D02*
X404Y1100D01*
X321Y1099D02*
X404Y1099D01*
X321Y1098D02*
X404Y1098D01*
X321Y1097D02*
X404Y1097D01*
X321Y1096D02*
X404Y1096D01*
X321Y1095D02*
X404Y1095D01*
X321Y1094D02*
X404Y1094D01*
X321Y1093D02*
X404Y1093D01*
X321Y1092D02*
X356Y1092D01*
X368Y1092D02*
X404Y1092D01*
X321Y1091D02*
X354Y1091D01*
X370Y1091D02*
X404Y1091D01*
X321Y1090D02*
X352Y1090D01*
X372Y1090D02*
X404Y1090D01*
X321Y1089D02*
X351Y1089D01*
X373Y1089D02*
X404Y1089D01*
X321Y1088D02*
X350Y1088D01*
X374Y1088D02*
X404Y1088D01*
X321Y1087D02*
X349Y1087D01*
X375Y1087D02*
X404Y1087D01*
X321Y1086D02*
X349Y1086D01*
X376Y1086D02*
X404Y1086D01*
X321Y1085D02*
X348Y1085D01*
X376Y1085D02*
X404Y1085D01*
X321Y1084D02*
X348Y1084D01*
X376Y1084D02*
X404Y1084D01*
X321Y1083D02*
X347Y1083D01*
X377Y1083D02*
X404Y1083D01*
X321Y1082D02*
X347Y1082D01*
X377Y1082D02*
X404Y1082D01*
X321Y1081D02*
X347Y1081D01*
X377Y1081D02*
X404Y1081D01*
X321Y1080D02*
X347Y1080D01*
X377Y1080D02*
X404Y1080D01*
X321Y1079D02*
X347Y1079D01*
X378Y1079D02*
X404Y1079D01*
X321Y1078D02*
X347Y1078D01*
X378Y1078D02*
X404Y1078D01*
X321Y1077D02*
X347Y1077D01*
X378Y1077D02*
X404Y1077D01*
X321Y1076D02*
X347Y1076D01*
X377Y1076D02*
X404Y1076D01*
X321Y1075D02*
X347Y1075D01*
X377Y1075D02*
X404Y1075D01*
X321Y1074D02*
X347Y1074D01*
X377Y1074D02*
X404Y1074D01*
X321Y1073D02*
X347Y1073D01*
X377Y1073D02*
X404Y1073D01*
X321Y1072D02*
X348Y1072D01*
X377Y1072D02*
X404Y1072D01*
X321Y1071D02*
X348Y1071D01*
X376Y1071D02*
X404Y1071D01*
X321Y1070D02*
X348Y1070D01*
X376Y1070D02*
X404Y1070D01*
X321Y1069D02*
X349Y1069D01*
X375Y1069D02*
X404Y1069D01*
X321Y1068D02*
X350Y1068D01*
X374Y1068D02*
X404Y1068D01*
X321Y1067D02*
X351Y1067D01*
X373Y1067D02*
X404Y1067D01*
X321Y1066D02*
X352Y1066D01*
X372Y1066D02*
X404Y1066D01*
X321Y1065D02*
X353Y1065D01*
X371Y1065D02*
X404Y1065D01*
X321Y1064D02*
X355Y1064D01*
X369Y1064D02*
X404Y1064D01*
X321Y1063D02*
X359Y1063D01*
X365Y1063D02*
X404Y1063D01*
X321Y1062D02*
X404Y1062D01*
X321Y1061D02*
X404Y1061D01*
X321Y1060D02*
X404Y1060D01*
X321Y1059D02*
X404Y1059D01*
X321Y1058D02*
X404Y1058D01*
X321Y1057D02*
X404Y1057D01*
X321Y1056D02*
X404Y1056D01*
X321Y1055D02*
X404Y1055D01*
X321Y1054D02*
X404Y1054D01*
X321Y1053D02*
X404Y1053D01*
X321Y1052D02*
X404Y1052D01*
X321Y1051D02*
X404Y1051D01*
X321Y1050D02*
X404Y1050D01*
X321Y1049D02*
X404Y1049D01*
X321Y1048D02*
X404Y1048D01*
X321Y1047D02*
X404Y1047D01*
X321Y1046D02*
X404Y1046D01*
X321Y1045D02*
X404Y1045D01*
X321Y1044D02*
X404Y1044D01*
X321Y1043D02*
X404Y1043D01*
X321Y1042D02*
X404Y1042D01*
X321Y1041D02*
X404Y1041D01*
X321Y1040D02*
X404Y1040D01*
X321Y1039D02*
X404Y1039D01*
X321Y1038D02*
X404Y1038D01*
X321Y1037D02*
X404Y1037D01*
X321Y1036D02*
X403Y1036D01*
D02*
G04 End of Mask0*
M02*