M48
INCH
T01C0.0191
T02C0.032
T03C0.035
T04C0.0362
T05C0.0433
T06C0.0449
T07C0.0906
T08C0.128
%
T01
X+017781Y+016140
X+017393Y+016611
X+018656Y+017444
X+018955Y+014424
X+018656Y+013827
X+018059Y+014424
X+015835Y+014106
X+014752Y+014170
X+015051Y+014917
X+014000Y+016791
X+014596Y+017027
X+013521Y+017270
X+012770Y+015131
X+010221Y+014448
X+009585Y+014374
X+009923Y+013838
X+009083Y+015435
X+007562Y+017065
X+011440Y+011534
X+013573Y+011908
X+014052Y+012157
X+013327Y+008439
X+018543Y+011893
X+021665Y+008940
X+020389Y+007486
X+023440Y+012539
X+023440Y+015168
X+023854Y+015761
X+024064Y+016524
T02
X+019065Y+013190
X+019065Y+015090
T03
X+009460Y+007940
X+009460Y+006940
X+010460Y+007440
X+010460Y+006440
T04
X+008669Y+012440
X+007881Y+012440
X+007881Y+013424
X+008669Y+013424
T05
X+024940Y+004940
X+023940Y+004940
X+022940Y+004940
X+021940Y+004940
X+019440Y+004940
X+018440Y+004940
X+014065Y+004815
X+013065Y+004815
X+012065Y+004815
X+013940Y+008940
X+013940Y+009940
X+013940Y+010940
X+015940Y+010940
X+015940Y+009940
X+015940Y+008940
T06
X+008440Y+016065
X+009440Y+016065
X+010440Y+016065
X+010440Y+017065
X+009440Y+017065
X+008440Y+017065
T07
X+006814Y+015302
X+006814Y+010562
T08
X+006960Y+005690
X+006960Y+008690
T00
M30
