; NON-PLATED HOLES START AT T1
; THROUGH (PLATED) HOLES START AT T100
M48
INCH
T1C0.086614
T100C0.031496
T101C0.036000
T102C0.015748
T103C0.090000
T104C0.038000
T105C0.031555
%
T1
X001035Y000877
X018961Y012917
X019019Y000814
X001021Y012913
T100
X003490Y010527
T101
X002826Y006901
X002826Y005917
X002046Y005917
X002046Y006901
T102
X015662Y010504
X010063Y003158
X015422Y007217
X008450Y006831
X007292Y008614
X011905Y007570
X010028Y006803
X009188Y012944
X012611Y005935
X011020Y001059
X009283Y004815
X015112Y008192
X007781Y013432
X012045Y010539
X017313Y010821
X011822Y008568
X011424Y002129
X008355Y009922
X011623Y010208
X009216Y010645
X017986Y004854
X012315Y005312
X016033Y007268
X010771Y008050
X015008Y011211
X009710Y010253
X006296Y009554
X010236Y008004
X008675Y004448
X011581Y008127
X011216Y009952
X008450Y006281
T103
X000976Y008779
X000976Y004039
T104
X018852Y007934
X018852Y006934
X008485Y001592
X018881Y003351
X018852Y009934
X008485Y000592
X018881Y002351
X018852Y008934
X018852Y011934
X018852Y010934
T105
X003490Y012458
T00
M30
