G04 DipTrace 2.4.0.2*
%INBottomPaste.gbr*%
%MOIN*%
%ADD61R,0.0512X0.0276*%
%ADD71R,0.0157X0.0709*%
%ADD77R,0.0039X0.0472*%
%ADD83R,0.063X0.0551*%
%ADD85R,0.0551X0.063*%
%ADD91R,0.0787X0.1339*%
%ADD93R,0.0801X0.0401*%
%FSLAX44Y44*%
G04*
G70*
G90*
G75*
G01*
%LNBotPaste*%
%LPD*%
D93*
X22251Y7438D3*
Y6532D3*
Y5627D3*
D91*
X19814Y6532D3*
D85*
X17286Y13502D3*
X16183D3*
X6437Y13312D3*
X5335D3*
X6249Y7000D3*
X5147D3*
D83*
X5187Y8938D3*
Y7836D3*
D85*
X6437Y14187D3*
X5335D3*
D83*
X7499Y5875D3*
Y6977D3*
X8761Y10511D3*
Y11613D3*
D85*
X7636Y16738D3*
X8738D3*
X5062Y12000D3*
X6164D3*
D77*
X25140Y12938D3*
X24884D3*
X24628D3*
X24373D3*
X24117D3*
X23861D3*
X23605D3*
X23349D3*
X23093D3*
X22837D3*
X22581D3*
X22325D3*
X22069D3*
X21813D3*
Y16009D3*
X22069D3*
X22325D3*
X22581D3*
X22837D3*
X23093D3*
X23349D3*
X23605D3*
X23861D3*
X24117D3*
X24373D3*
X24628D3*
X24884D3*
X25140D3*
D71*
X5999Y10875D3*
X6499D3*
X6999D3*
X7499D3*
Y7962D3*
X6999D3*
X6499D3*
X5999D3*
X7312Y15562D3*
X7812D3*
X8312D3*
X8812D3*
Y12649D3*
X8312D3*
X7812D3*
X7312D3*
D83*
X6511Y15136D3*
Y16238D3*
X5187Y9813D3*
Y10915D3*
D61*
X13928Y4997D3*
Y6296D3*
X15857D3*
Y4997D3*
M02*
