G04 DipTrace 2.4.0.2*
%INBottom.gbr*%
%MOIN*%
%ADD14C,0.006*%
%ADD15C,0.0394*%
%ADD16C,0.025*%
%ADD17C,0.013*%
%ADD18R,0.088X0.048*%
%ADD19R,0.0866X0.1417*%
%ADD20R,0.0669X0.0669*%
%ADD21C,0.0669*%
%ADD22R,0.063X0.0709*%
%ADD23R,0.0709X0.063*%
%ADD26R,0.0118X0.0551*%
%ADD27R,0.0689X0.0689*%
%ADD28C,0.0689*%
%ADD29R,0.0236X0.0787*%
%ADD30C,0.1181*%
%ADD31C,0.0787*%
%ADD35R,0.0591X0.0354*%
%ADD36R,0.063X0.063*%
%ADD37C,0.063*%
%ADD38C,0.1299*%
%ADD39C,0.048*%
%ADD40C,0.04*%
%FSLAX44Y44*%
G04*
G70*
G90*
G75*
G01*
%LNBottom*%
%LPD*%
X18259Y12071D2*
D14*
X18744Y12556D1*
Y15719D1*
X18605Y15858D1*
X17038D1*
X16249Y15070D1*
X9178D1*
Y13790D1*
X8539Y13151D1*
Y12176D1*
X8400Y12037D1*
X8178D1*
X8039Y12176D1*
Y13151D1*
X7539D1*
Y10875D1*
X7499D1*
X9178Y15070D2*
Y15926D1*
X9039Y16065D1*
X8812D1*
Y15562D1*
X7080Y10064D2*
X6138D1*
X5999Y10203D1*
Y10875D1*
X16556Y10937D2*
Y11246D1*
X16386Y11416D1*
Y11469D1*
X17570D1*
X17709Y11607D1*
X18852Y10465D1*
Y10202D1*
X22664Y15137D2*
X23093Y15566D1*
Y16009D1*
X14187Y7687D2*
X12899Y8975D1*
Y10628D1*
X6511Y16238D2*
X7173D1*
X7312Y16099D1*
X7497D1*
X7636Y16238D1*
Y16738D1*
X15687Y11469D2*
X16386D1*
X7312Y16099D2*
Y15562D1*
X5062Y12000D2*
X4638D1*
X4499Y12139D1*
Y16099D1*
X4638Y16238D1*
X6511D1*
X5187Y10915D2*
Y12000D1*
X5062D1*
X5999Y10875D2*
Y11378D1*
X5789D1*
X5650Y11239D1*
Y10915D1*
X5187D1*
X20835Y6532D2*
X22251D1*
X19814D2*
X20835D1*
X18953D2*
X19814D1*
X18259Y13071D2*
X17709Y12522D1*
Y11607D1*
X17286Y13502D2*
X17709D1*
Y13071D1*
X18259D1*
X17336Y14508D2*
X17286Y14458D1*
Y13502D1*
X19259Y12071D2*
Y10027D1*
X19120Y9888D1*
X17981D1*
X17453Y10415D1*
X15025D1*
X14886Y10554D1*
Y12345D1*
X15025Y12484D1*
X16468D1*
X16607Y12623D1*
Y14427D1*
X16468Y14566D1*
X9936D1*
X9797Y14427D1*
Y11328D1*
X9658Y11189D1*
X7951D1*
Y10213D1*
X6499Y8761D1*
Y7962D1*
X7951Y11189D2*
X7812Y11328D1*
Y12649D1*
X19712Y11518D2*
Y12618D1*
X19259Y13071D1*
X20259Y12071D2*
Y8999D1*
X20237D1*
X24628Y16009D2*
Y16393D1*
X24373D1*
Y16009D1*
X23605Y12938D2*
Y11823D1*
Y9140D1*
X23105Y8640D1*
X6499Y10875D2*
Y11378D1*
X6303D1*
X6164Y11517D1*
Y12000D1*
X23349Y16009D2*
Y16393D1*
X22581D1*
X21302D1*
X21271Y16362D1*
X20198D1*
X15687Y7689D2*
Y6851D1*
X15374Y6538D1*
Y5860D1*
X15513Y5721D1*
X15277Y5486D1*
Y5103D1*
X16134Y14257D2*
X14588D1*
X14048Y13717D1*
X14187Y13578D1*
Y11467D1*
X20198Y16362D2*
Y14708D1*
X20259Y14647D1*
Y13071D1*
X22581Y16393D2*
Y16009D1*
X24373D2*
Y15625D1*
X24234Y15486D1*
X23488D1*
X23349Y15625D1*
Y16009D1*
X5147Y7000D2*
Y7836D1*
X5187D1*
X9500Y4750D2*
X9001Y4250D1*
X5286D1*
X5147Y4389D1*
Y4753D1*
Y7000D1*
X15277Y5103D2*
X14861D1*
X14389Y5576D1*
X10326D1*
X9500Y4750D1*
X15513Y5721D2*
X15857D1*
Y6296D1*
X14187Y11467D2*
Y10626D1*
X14886Y9926D1*
Y8490D1*
X15687Y7689D1*
X14048Y13717D2*
X12424D1*
X16183Y13502D2*
X16164D1*
Y14227D1*
X16134Y14257D1*
X22251Y7438D2*
X24887D1*
X25026Y7299D1*
Y4650D1*
X23105Y8640D2*
X21841D1*
X21702Y8501D1*
Y7438D1*
X22251D1*
X8738Y16738D2*
Y17201D1*
X8877Y17340D1*
X14480D1*
X15458Y16362D1*
X7812Y15562D2*
Y16065D1*
X7951Y16204D1*
X8738D1*
Y16738D1*
X5335Y14187D2*
Y15421D1*
X5474Y15560D1*
X6974D1*
Y15198D1*
X7113Y15059D1*
X7812D1*
Y15562D1*
X5335Y13312D2*
Y14187D1*
X6164Y12000D2*
Y12464D1*
X5474D1*
X5335Y12603D1*
Y13312D1*
X5297Y4753D2*
X5147D1*
X23429Y11823D2*
X23605D1*
X24884Y12938D2*
Y12306D1*
X22398Y14654D2*
X22325Y14727D1*
Y16009D1*
X20555Y8376D2*
X21327Y9148D1*
Y13323D1*
X21466Y13462D1*
X25001D1*
X25140Y13323D1*
Y12938D1*
X21761Y15295D2*
X21813Y15348D1*
Y16009D1*
X20680Y14508D2*
X21930D1*
X22069Y14647D1*
Y16009D1*
X22518Y7956D2*
X23093D1*
X24117Y8980D1*
Y12938D1*
X22581D2*
Y12343D1*
X6249Y7000D2*
X6860D1*
X6999Y7140D1*
Y7962D1*
X7621Y13599D2*
X8173D1*
X8312Y13460D1*
Y12649D1*
X6473Y12634D2*
X6437Y12670D1*
Y13312D1*
X5187Y9813D2*
Y8938D1*
X5860D1*
X5999Y8799D1*
Y7962D1*
X6511Y15136D2*
Y14187D1*
X6437D1*
X7173D1*
X7312Y14048D1*
Y12649D1*
X8761Y11613D2*
X8812D1*
Y12649D1*
X7499Y7962D2*
Y6977D1*
X6999Y10875D2*
Y11548D1*
X8312Y14735D2*
Y15562D1*
X10500Y4750D2*
X11028Y4222D1*
X18427D1*
X18585Y4380D1*
Y8226D1*
X18879Y8519D1*
X20190D1*
X20699Y9028D1*
Y11518D1*
X7499Y5875D2*
X7500Y4750D1*
X18830Y9579D2*
X15687D1*
X19638Y10021D2*
Y8867D1*
X19428Y8658D1*
X17110D1*
X16844Y8392D1*
Y5655D1*
X16601Y5412D1*
X15792D1*
Y4997D1*
X15857D1*
X8500Y4750D2*
Y7271D1*
X8761Y7532D1*
Y10511D1*
X11924Y12717D2*
X12590Y12051D1*
Y6030D1*
X12927Y14219D2*
X11927D1*
X11424Y13717D1*
X22251Y5627D2*
X21562D1*
X21532Y5657D1*
D15*
X21022Y5146D1*
X19156D1*
X11972Y6403D2*
X10924Y7451D1*
Y12717D1*
X13079Y5165D2*
X13928D1*
Y4997D1*
Y4527D1*
X17737D1*
X18156Y4946D1*
Y5146D1*
D40*
X5297Y4753D3*
X23429Y11823D3*
X17785Y5845D3*
X22664Y15137D3*
X12899Y10628D3*
X7080Y10064D3*
X20835Y6532D3*
X16556Y10937D3*
X18953Y6532D3*
X18852Y10202D3*
X19712Y11518D3*
X20237Y8999D3*
X15277Y5103D3*
X23105Y8640D3*
X16134Y14257D3*
X24884Y12306D3*
X22398Y14654D3*
X20555Y8376D3*
X21761Y15295D3*
X20680Y14508D3*
X22518Y7956D3*
X22581Y12343D3*
X6473Y12634D3*
X7621Y13599D3*
X6999Y11548D3*
X8312Y14735D3*
X20699Y11518D3*
X18830Y9579D3*
X19638Y10021D3*
X15792Y5412D3*
X12590Y6030D3*
X12927Y14219D3*
X21532Y5657D3*
X11972Y6403D3*
X13079Y5165D3*
X7122Y19020D2*
D16*
X22685D1*
X7118Y18771D2*
X22685D1*
X7118Y18522D2*
X22685D1*
X7118Y18274D2*
X22682D1*
X7118Y18025D2*
X22682D1*
X7114Y17776D2*
X22678D1*
X7114Y17528D2*
X22678D1*
X9345Y17279D2*
X22678D1*
X9345Y17030D2*
X9756D1*
X10595D2*
X12756D1*
X13595D2*
X14807D1*
X16107D2*
X19549D1*
X20849D2*
X22674D1*
X9345Y16782D2*
X9443D1*
X10903D2*
X12443D1*
X13903D2*
X14619D1*
X16294D2*
X19361D1*
X21036D2*
X22674D1*
X11048Y16533D2*
X12303D1*
X14048D2*
X14533D1*
X16380D2*
X19275D1*
X21122D2*
X21463D1*
X11103Y16284D2*
X12248D1*
X14103D2*
X14521D1*
X16396D2*
X19264D1*
X21134D2*
X21463D1*
X11087Y16035D2*
X12264D1*
X14087D2*
X14580D1*
X16337D2*
X16771D1*
X18868D2*
X19318D1*
X21075D2*
X21463D1*
X4818Y15787D2*
X5865D1*
X10993D2*
X12353D1*
X13993D2*
X14721D1*
X16193D2*
X16525D1*
X19056D2*
X19463D1*
X20935D2*
X21463D1*
X4818Y15538D2*
X5865D1*
X10798D2*
X12549D1*
X13798D2*
X15037D1*
X15880D2*
X16275D1*
X19064D2*
X19775D1*
X20618D2*
X21338D1*
X4818Y15289D2*
X5865D1*
X19064D2*
X21271D1*
X23259D2*
X25502D1*
X4818Y15041D2*
X5865D1*
X19064D2*
X21346D1*
X23146D2*
X25502D1*
X7153Y14792D2*
X7826D1*
X19064D2*
X20287D1*
X23001D2*
X25502D1*
X7040Y14543D2*
X7865D1*
X8759D2*
X8857D1*
X19064D2*
X20193D1*
X22876D2*
X25502D1*
X7509Y14295D2*
X8139D1*
X8485D2*
X8857D1*
X19064D2*
X20240D1*
X22720D2*
X25506D1*
X7775Y14046D2*
X8857D1*
X10118D2*
X10830D1*
X13384D2*
X15580D1*
X19064D2*
X20603D1*
X20757D2*
X25506D1*
X8415Y13797D2*
X8744D1*
X10118D2*
X10744D1*
X13146D2*
X15580D1*
X17892D2*
X18424D1*
X19064D2*
X25506D1*
X9380Y13549D2*
X9474D1*
X10118D2*
X10764D1*
X13087D2*
X15580D1*
X19661D2*
X19853D1*
X20661D2*
X21111D1*
X25357D2*
X25504D1*
X9220Y13300D2*
X9478D1*
X10118D2*
X10596D1*
X12958D2*
X15580D1*
X20849D2*
X21006D1*
X9220Y13051D2*
X9478D1*
X10118D2*
X10334D1*
X12517D2*
X15580D1*
X20892D2*
X21005D1*
X9220Y12803D2*
X9478D1*
X10118D2*
X10249D1*
X12603D2*
X16287D1*
X16927D2*
X17549D1*
X20829D2*
X21006D1*
X9220Y12554D2*
X9478D1*
X10118D2*
X10264D1*
X12587D2*
X14654D1*
X16919D2*
X17393D1*
X20653D2*
X21006D1*
X6825Y12305D2*
X6903D1*
X9220D2*
X9478D1*
X10118D2*
X10385D1*
X12778D2*
X13994D1*
X14380D2*
X14568D1*
X16732D2*
X17389D1*
X20845D2*
X21006D1*
X21646D2*
X22092D1*
X23068D2*
X23795D1*
X25372D2*
X25507D1*
X6771Y12056D2*
X6907D1*
X10118D2*
X10439D1*
X11411D2*
X12143D1*
X12911D2*
X13541D1*
X16333D2*
X17389D1*
X20892D2*
X21005D1*
X21646D2*
X22189D1*
X22974D2*
X23795D1*
X25302D2*
X25510D1*
X10118Y11808D2*
X10439D1*
X11411D2*
X12271D1*
X12911D2*
X13377D1*
X16497D2*
X17389D1*
X21646D2*
X23795D1*
X24435D2*
X25514D1*
X4364Y11559D2*
X4461D1*
X10118D2*
X10439D1*
X11411D2*
X12271D1*
X12911D2*
X13310D1*
X21646D2*
X22576D1*
X22935D2*
X23795D1*
X24435D2*
X25514D1*
X4364Y11310D2*
X4543D1*
X10114D2*
X10439D1*
X11411D2*
X12271D1*
X12911D2*
X13322D1*
X18450D2*
X18939D1*
X21646D2*
X22283D1*
X23228D2*
X23795D1*
X24435D2*
X25514D1*
X4364Y11062D2*
X4543D1*
X9974D2*
X10439D1*
X11411D2*
X12271D1*
X13091D2*
X13408D1*
X17028D2*
X17814D1*
X18696D2*
X18939D1*
X19825D2*
X19939D1*
X21646D2*
X22228D1*
X23286D2*
X23795D1*
X24435D2*
X25514D1*
X4364Y10813D2*
X4543D1*
X9403D2*
X10439D1*
X11411D2*
X12271D1*
X13349D2*
X13611D1*
X17028D2*
X18060D1*
X19579D2*
X19939D1*
X21646D2*
X22303D1*
X23212D2*
X23795D1*
X24435D2*
X25514D1*
X4364Y10564D2*
X4543D1*
X9403D2*
X10439D1*
X11411D2*
X12271D1*
X13384D2*
X14568D1*
X17747D2*
X18310D1*
X19579D2*
X19939D1*
X21646D2*
X23795D1*
X24435D2*
X25514D1*
X4364Y10316D2*
X4543D1*
X9403D2*
X10439D1*
X11411D2*
X12271D1*
X13267D2*
X13732D1*
X17993D2*
X18369D1*
X21646D2*
X23795D1*
X24435D2*
X25518D1*
X4368Y10067D2*
X4544D1*
X9403D2*
X10439D1*
X11411D2*
X12271D1*
X13220D2*
X13463D1*
X16415D2*
X17361D1*
X21646D2*
X23795D1*
X24435D2*
X25518D1*
X4368Y9818D2*
X4544D1*
X5829D2*
X5951D1*
X7997D2*
X8439D1*
X9079D2*
X10439D1*
X11411D2*
X12271D1*
X13220D2*
X13342D1*
X21646D2*
X23795D1*
X24435D2*
X25518D1*
X4368Y9570D2*
X4544D1*
X5829D2*
X6865D1*
X7751D2*
X8439D1*
X9079D2*
X10439D1*
X11411D2*
X12271D1*
X13220D2*
X13307D1*
X21646D2*
X22412D1*
X23099D2*
X23795D1*
X24435D2*
X25518D1*
X4368Y9321D2*
X4544D1*
X5829D2*
X6619D1*
X7501D2*
X8439D1*
X9079D2*
X10439D1*
X11411D2*
X12271D1*
X13220D2*
X13346D1*
X19239D2*
X19321D1*
X21646D2*
X22248D1*
X23267D2*
X23795D1*
X24435D2*
X25518D1*
X4368Y9072D2*
X4544D1*
X6169D2*
X6369D1*
X7251D2*
X8439D1*
X9079D2*
X10439D1*
X11411D2*
X12271D1*
X13243D2*
X13471D1*
X16400D2*
X19318D1*
X21638D2*
X22236D1*
X23275D2*
X23768D1*
X24435D2*
X25521D1*
X4368Y8824D2*
X4544D1*
X7005D2*
X8439D1*
X9079D2*
X10439D1*
X11411D2*
X12271D1*
X13493D2*
X13756D1*
X14618D2*
X15260D1*
X16114D2*
X16834D1*
X21446D2*
X22373D1*
X23142D2*
X23518D1*
X24392D2*
X25521D1*
X4368Y8575D2*
X4544D1*
X7907D2*
X8439D1*
X9079D2*
X10439D1*
X11411D2*
X12271D1*
X13739D2*
X16588D1*
X21196D2*
X23268D1*
X24153D2*
X25521D1*
X4368Y8326D2*
X4544D1*
X7907D2*
X8439D1*
X9079D2*
X10439D1*
X11411D2*
X12271D1*
X12911D2*
X13107D1*
X14782D2*
X15092D1*
X16282D2*
X16525D1*
X17220D2*
X18283D1*
X21044D2*
X22213D1*
X22825D2*
X23021D1*
X23903D2*
X25521D1*
X4372Y8077D2*
X4544D1*
X7907D2*
X8439D1*
X9079D2*
X10439D1*
X11411D2*
X12271D1*
X12911D2*
X13353D1*
X17165D2*
X18264D1*
X18903D2*
X20174D1*
X20935D2*
X22045D1*
X23657D2*
X25521D1*
X4372Y7829D2*
X4544D1*
X7907D2*
X8439D1*
X9079D2*
X10439D1*
X11411D2*
X12271D1*
X12911D2*
X13318D1*
X17165D2*
X18264D1*
X18903D2*
X21521D1*
X23407D2*
X25525D1*
X4372Y7580D2*
X4544D1*
X7907D2*
X8369D1*
X9079D2*
X10439D1*
X11474D2*
X12271D1*
X12911D2*
X13314D1*
X17165D2*
X18264D1*
X18903D2*
X21521D1*
X22982D2*
X25525D1*
X4372Y7331D2*
X4544D1*
X9001D2*
X10455D1*
X11720D2*
X12271D1*
X12911D2*
X13385D1*
X17165D2*
X18264D1*
X18903D2*
X19092D1*
X20536D2*
X21521D1*
X22982D2*
X25525D1*
X4372Y7083D2*
X4544D1*
X8821D2*
X10615D1*
X11970D2*
X12271D1*
X12911D2*
X13557D1*
X14818D2*
X15060D1*
X16314D2*
X16525D1*
X17165D2*
X18264D1*
X18903D2*
X19092D1*
X20536D2*
X21521D1*
X22982D2*
X25525D1*
X4372Y6834D2*
X4544D1*
X8821D2*
X10865D1*
X12911D2*
X14100D1*
X14275D2*
X15639D1*
X15738D2*
X16525D1*
X17165D2*
X18264D1*
X21212D2*
X21521D1*
X22982D2*
X25525D1*
X4372Y6585D2*
X4544D1*
X8821D2*
X11111D1*
X12911D2*
X13342D1*
X14513D2*
X15271D1*
X16443D2*
X16527D1*
X17165D2*
X18264D1*
X22982D2*
X25529D1*
X4372Y6337D2*
X6853D1*
X8821D2*
X11361D1*
X12966D2*
X13342D1*
X14513D2*
X15271D1*
X16443D2*
X16527D1*
X17165D2*
X18264D1*
X22982D2*
X25529D1*
X4372Y6088D2*
X6853D1*
X8821D2*
X11603D1*
X13075D2*
X13342D1*
X14513D2*
X15271D1*
X16443D2*
X16527D1*
X17165D2*
X17365D1*
X20536D2*
X20671D1*
X20997D2*
X21334D1*
X22982D2*
X25529D1*
X4376Y5839D2*
X6853D1*
X8821D2*
X12143D1*
X13040D2*
X15584D1*
X16001D2*
X16525D1*
X17165D2*
X17296D1*
X18903D2*
X19092D1*
X20536D2*
X21037D1*
X22982D2*
X25529D1*
X4376Y5591D2*
X6853D1*
X8821D2*
X12416D1*
X12767D2*
X12866D1*
X14130D2*
X15338D1*
X22982D2*
X25529D1*
X4376Y5342D2*
X6853D1*
X8821D2*
X9381D1*
X9618D2*
X10381D1*
X10618D2*
X10877D1*
X12126D2*
X12623D1*
X14513D2*
X15271D1*
X22982D2*
X25533D1*
X4376Y5093D2*
X6982D1*
X12126D2*
X12596D1*
X14513D2*
X15271D1*
X21646D2*
X23400D1*
X25454D2*
X25533D1*
X4376Y4845D2*
X6885D1*
X12126D2*
X12717D1*
X21400D2*
X23400D1*
X4376Y4596D2*
X6896D1*
X12126D2*
X13342D1*
X19419D2*
X23400D1*
X21571Y7943D2*
X22053D1*
X22055Y7996D1*
X22082Y8117D1*
X22141Y8227D1*
X22226Y8318D1*
X22333Y8383D1*
X22453Y8417D1*
X22577Y8418D1*
X22698Y8385D1*
X22805Y8322D1*
X22873Y8252D1*
X22972Y8253D1*
X23822Y9105D1*
X23816Y12398D1*
X23793Y12402D1*
X23804Y12398D1*
X23043D1*
X23046Y12343D1*
X23029Y12219D1*
X22980Y12105D1*
X22903Y12007D1*
X22802Y11934D1*
X22686Y11890D1*
X22561Y11878D1*
X22439Y11900D1*
X22326Y11954D1*
X22232Y12035D1*
X22163Y12139D1*
X22124Y12258D1*
X22122Y12401D1*
X22001Y12402D1*
X21887Y12398D1*
X21626D1*
X21622Y11698D1*
Y9148D1*
X21594Y9023D1*
X21536Y8939D1*
X21019Y8423D1*
X21003Y8252D1*
X20954Y8137D1*
X20877Y8040D1*
X20776Y7967D1*
X20659Y7923D1*
X20535Y7911D1*
X20413Y7933D1*
X20300Y7987D1*
X20206Y8068D1*
X20137Y8172D1*
X20119Y8228D1*
X19440Y8224D1*
X18999Y8222D1*
X18880Y8101D1*
Y6987D1*
X19012Y6993D1*
X19114Y6966D1*
X19116Y7506D1*
X20512D1*
Y6869D1*
X20649Y6958D1*
X20769Y6992D1*
X20894Y6993D1*
X21014Y6961D1*
X21122Y6898D1*
X21190Y6828D1*
X21550Y6827D1*
X21546Y7037D1*
Y7943D1*
X21571D1*
X21546Y6125D2*
Y6234D1*
X21192Y6237D1*
X21157Y6197D1*
X21056Y6123D1*
X20939Y6079D1*
X20815Y6068D1*
X20693Y6090D1*
X20580Y6143D1*
X20513Y6202D1*
X20512Y5606D1*
X20832Y5608D1*
X21240Y6018D1*
X21347Y6083D1*
X21467Y6117D1*
X21546Y6122D1*
X21550Y6132D1*
X19116Y5742D2*
Y6094D1*
X19058Y6079D1*
X18933Y6068D1*
X18884Y6077D1*
X18880Y5675D1*
X18959Y5713D1*
X19116Y5742D1*
X11025Y5349D2*
X12099D1*
Y4517D1*
X13469D1*
X13466Y4555D1*
X13368D1*
Y4707D1*
X13060Y4701D1*
X12937Y4722D1*
X12824Y4776D1*
X12730Y4858D1*
X12661Y4962D1*
X12622Y5080D1*
X12616Y5204D1*
X12643Y5326D1*
X12702Y5436D1*
X12787Y5527D1*
X12894Y5591D1*
X13014Y5625D1*
X13049Y5626D1*
X12912Y5695D1*
X12811Y5621D1*
X12694Y5577D1*
X12570Y5566D1*
X12448Y5588D1*
X12335Y5641D1*
X12241Y5723D1*
X12172Y5827D1*
X12132Y5965D1*
X12077Y5950D1*
X11953Y5938D1*
X11830Y5960D1*
X11717Y6014D1*
X11557Y6165D1*
X10598Y7124D1*
X10522Y7224D1*
X10469Y7376D1*
X10462Y7701D1*
Y12244D1*
X10410Y12305D1*
X10341Y12410D1*
X10294Y12525D1*
X10269Y12648D1*
X10268Y12772D1*
X10290Y12895D1*
X10335Y13012D1*
X10402Y13117D1*
X10487Y13209D1*
X10587Y13282D1*
X10700Y13336D1*
X10864Y13370D1*
X10794Y13525D1*
X10769Y13648D1*
X10768Y13772D1*
X10790Y13895D1*
X10835Y14012D1*
X10902Y14117D1*
X10987Y14209D1*
X11072Y14271D1*
X10089Y14270D1*
X10092Y12427D1*
Y11328D1*
X10063Y11204D1*
X10005Y11120D1*
X9866Y10981D1*
X9758Y10913D1*
X9658Y10894D1*
X9380D1*
Y9931D1*
X9056D1*
Y7532D1*
X9027Y7407D1*
X8969Y7323D1*
X8795Y7146D1*
Y5275D1*
X8890Y5205D1*
X8976Y5115D1*
X8998Y5078D1*
X9073Y5171D1*
X9169Y5250D1*
X9280Y5308D1*
X9400Y5341D1*
X9525Y5349D1*
X9648Y5331D1*
X9765Y5288D1*
X9871Y5221D1*
X9960Y5134D1*
X10000Y5081D1*
X10091Y5188D1*
X10190Y5263D1*
X10303Y5316D1*
X10425Y5345D1*
X10549Y5347D1*
X10672Y5324D1*
X10787Y5276D1*
X10898Y5197D1*
X10900Y5349D1*
X11025D1*
X7001Y4422D2*
X6955Y4499D1*
X6915Y4617D1*
X6900Y4741D1*
X6912Y4866D1*
X6948Y4985D1*
X7009Y5094D1*
X7091Y5188D1*
X7208Y5272D1*
X7119Y5295D1*
X6880D1*
X6884Y6455D1*
X6880Y6397D1*
Y6706D1*
X6833Y6705D1*
X6829Y6381D1*
X5669Y6385D1*
X5652Y6381D1*
X4567D1*
X4568Y9518D1*
Y10393D1*
Y11378D1*
X4482Y11381D1*
Y11752D1*
X4429Y11792D1*
X4339Y11882D1*
X4353Y4424D1*
X6997Y4421D1*
X17865Y13930D2*
Y13750D1*
X17953Y13669D1*
X18018Y13631D1*
X18138Y13668D1*
X18262Y13680D1*
X18386Y13667D1*
X18449Y13647D1*
Y13943D1*
X18356Y13929D1*
X18231Y13935D1*
X18111Y13967D1*
X18000Y14024D1*
X17916Y14088D1*
Y13928D1*
X17865D1*
X17479Y12883D2*
X16901D1*
X16902Y12623D1*
X16874Y12498D1*
X16816Y12414D1*
X16677Y12275D1*
X16569Y12207D1*
X16468Y12189D1*
X16152D1*
X16234Y12126D1*
X16324Y12039D1*
X16400Y11941D1*
X16462Y11832D1*
X16488Y11762D1*
X17414Y11764D1*
Y12522D1*
X17443Y12646D1*
X17501Y12731D1*
X17575Y12805D1*
X17486Y12879D1*
X6013Y12693D2*
X5857Y12697D1*
X5840Y12693D1*
X4793D1*
X4857Y12620D1*
X5642Y12616D1*
X5659Y12620D1*
X6009D1*
X6014Y12692D1*
X5865Y12693D1*
X5803Y9518D2*
X5806Y9233D1*
X5860D1*
X5985Y9205D1*
X6069Y9147D1*
X6244Y8962D1*
X6291Y8970D1*
X6937Y9621D1*
X6825Y9675D1*
X6724Y9767D1*
X6138Y9769D1*
X6014Y9797D1*
X5930Y9855D1*
X5805Y9980D1*
X5806Y9233D1*
X5857Y14803D2*
X5880Y14806D1*
X5891D1*
X5895Y15716D1*
X5892Y15658D1*
X5886Y15943D1*
X4796D1*
X4794Y14806D1*
X5880D1*
X8115Y6455D2*
X8119Y6205D1*
Y5295D1*
X8205Y5269D1*
Y6375D1*
X7884Y7557D2*
X8119D1*
X8115Y6397D1*
X8205Y6375D1*
Y7271D1*
X8233Y7395D1*
X8291Y7479D1*
X8466Y7657D1*
Y9934D1*
X8142Y9931D1*
Y9990D1*
X6792Y8637D1*
X6794Y8624D1*
X6882Y8617D1*
X6991Y8621D1*
X7382Y8617D1*
X7491Y8621D1*
X7882D1*
Y7554D1*
X9192Y12193D2*
X9380D1*
Y11486D1*
X9502Y11484D1*
Y14427D1*
X9530Y14551D1*
X9588Y14635D1*
X9730Y14776D1*
X9472Y14775D1*
X9473Y13790D1*
X9445Y13666D1*
X9387Y13582D1*
X9113Y13308D1*
X9195Y13307D1*
Y12194D1*
X6744Y12256D2*
Y11936D1*
X6814Y11974D1*
X6930Y12007D1*
X6929Y12541D1*
X6872Y12395D1*
X6795Y12298D1*
X6741Y12259D1*
X18868Y11606D2*
Y11462D1*
X18270D1*
X18965Y10769D1*
X18964Y11538D1*
X18870Y11602D1*
X7695Y14905D2*
X7129Y14903D1*
X7130Y14556D1*
X7017D1*
X7062Y14482D1*
X7173D1*
X7297Y14454D1*
X7382Y14396D1*
X7521Y14257D1*
X7589Y14149D1*
X7603Y14098D1*
X7680Y14060D1*
X7800Y14028D1*
X7908Y13965D1*
X7976Y13895D1*
X8173Y13894D1*
X8297Y13866D1*
X8382Y13808D1*
X8557Y13623D1*
X8596Y13625D1*
X8883Y13915D1*
Y14903D1*
X8746D1*
X8777Y14735D1*
X8760Y14612D1*
X8711Y14497D1*
X8634Y14400D1*
X8533Y14326D1*
X8416Y14282D1*
X8292Y14271D1*
X8170Y14293D1*
X8057Y14347D1*
X7963Y14428D1*
X7894Y14532D1*
X7855Y14650D1*
X7849Y14775D1*
X7881Y14907D1*
X7745Y14903D1*
X7429Y14904D1*
X16346Y10122D2*
X16400Y10051D1*
X16462Y9942D1*
X16488Y9873D1*
X17582Y9874D1*
X17328Y10120D1*
X16348D1*
X17138Y5746D2*
X17334D1*
X17322Y5884D1*
X17349Y6006D1*
X17407Y6116D1*
X17493Y6206D1*
X17599Y6271D1*
X17719Y6305D1*
X17844Y6306D1*
X17964Y6274D1*
X18072Y6211D1*
X18159Y6121D1*
X18219Y6012D1*
X18250Y5845D1*
X18236Y5740D1*
X18290Y5755D1*
Y8226D1*
X18319Y8350D1*
X18303Y8363D1*
X17231Y8361D1*
X17140Y8267D1*
Y5743D1*
X12130Y12094D2*
X12082Y12077D1*
X11959Y12059D1*
X11834Y12064D1*
X11713Y12093D1*
X11599Y12144D1*
X11497Y12216D1*
X11423Y12291D1*
X11387Y12250D1*
X11386Y7642D1*
X12263Y6765D1*
X12295Y6780D1*
X12293Y11931D1*
X12130Y12094D1*
X13493Y6738D2*
X14488D1*
Y5854D1*
X13368D1*
Y6738D1*
X13493D1*
X16756Y14698D2*
Y15088D1*
X16791D1*
X16769Y15172D1*
X16455Y14859D1*
X16592Y14832D1*
X16677Y14774D1*
X16757Y14694D1*
X21112Y16337D2*
X21096Y16188D1*
X21055Y16044D1*
X20992Y15908D1*
X20907Y15785D1*
X20803Y15677D1*
X20683Y15587D1*
X20550Y15518D1*
X20407Y15472D1*
X20259Y15450D1*
X20110Y15452D1*
X19962Y15479D1*
X19821Y15529D1*
X19690Y15602D1*
X19573Y15695D1*
X19472Y15806D1*
X19391Y15932D1*
X19331Y16069D1*
X19295Y16215D1*
X19283Y16364D1*
X19296Y16513D1*
X19333Y16659D1*
X19393Y16796D1*
X19474Y16922D1*
X19575Y17032D1*
X19693Y17125D1*
X19824Y17197D1*
X19966Y17247D1*
X20113Y17273D1*
X20263Y17274D1*
X20411Y17251D1*
X20554Y17205D1*
X20686Y17135D1*
X20806Y17045D1*
X20909Y16937D1*
X20994Y16813D1*
X21057Y16677D1*
X21096Y16532D1*
X21112Y16383D1*
Y16337D1*
X16372D2*
X16356Y16188D1*
X16315Y16044D1*
X16252Y15908D1*
X16167Y15785D1*
X16063Y15677D1*
X15943Y15587D1*
X15810Y15518D1*
X15667Y15472D1*
X15519Y15450D1*
X15369Y15452D1*
X15222Y15479D1*
X15081Y15529D1*
X14950Y15602D1*
X14832Y15695D1*
X14732Y15806D1*
X14651Y15932D1*
X14591Y16069D1*
X14555Y16215D1*
X14543Y16364D1*
X14556Y16513D1*
X14593Y16659D1*
X14653Y16796D1*
X14734Y16922D1*
X14835Y17032D1*
X14953Y17125D1*
X15084Y17197D1*
X15226Y17247D1*
X15373Y17273D1*
X15523Y17274D1*
X15671Y17251D1*
X15813Y17205D1*
X15946Y17135D1*
X16066Y17045D1*
X16169Y16937D1*
X16254Y16813D1*
X16316Y16677D1*
X16356Y16532D1*
X16372Y16383D1*
Y16337D1*
X23246Y10955D2*
X23201Y10838D1*
X23128Y10737D1*
X23033Y10656D1*
X22921Y10601D1*
X22799Y10575D1*
X22675Y10580D1*
X22555Y10615D1*
X22448Y10679D1*
X22359Y10766D1*
X22295Y10873D1*
X22259Y10992D1*
X22253Y11117D1*
X22278Y11239D1*
X22332Y11351D1*
X22412Y11447D1*
X22513Y11520D1*
X22628Y11567D1*
X22752Y11583D1*
X22876Y11569D1*
X22992Y11525D1*
X23095Y11453D1*
X23176Y11359D1*
X23232Y11247D1*
X23261Y11078D1*
X23246Y10955D1*
Y9055D2*
X23201Y8938D1*
X23128Y8837D1*
X23033Y8756D1*
X22921Y8701D1*
X22799Y8675D1*
X22675Y8680D1*
X22555Y8715D1*
X22448Y8779D1*
X22359Y8866D1*
X22295Y8973D1*
X22259Y9092D1*
X22253Y9217D1*
X22278Y9339D1*
X22332Y9451D1*
X22412Y9547D1*
X22513Y9620D1*
X22628Y9667D1*
X22752Y9683D1*
X22876Y9669D1*
X22992Y9625D1*
X23095Y9553D1*
X23176Y9459D1*
X23232Y9347D1*
X23261Y9178D1*
X23246Y9055D1*
X17005Y10814D2*
X16960Y10710D1*
X17453D1*
X17578Y10682D1*
X17662Y10624D1*
X18106Y10183D1*
X18375D1*
X18374Y10219D1*
X18401Y10341D1*
X18452Y10448D1*
X17698Y11202D1*
X17622Y11178D1*
X17320Y11173D1*
X16957D1*
X16990Y11104D1*
X17021Y10937D1*
X17005Y10814D1*
X19961Y11129D2*
X19933Y11108D1*
X19816Y11064D1*
X19692Y11053D1*
X19552Y11083D1*
X19554Y10481D1*
X19696Y10482D1*
X19817Y10450D1*
X19924Y10387D1*
X19965Y10345D1*
X19964Y11128D1*
X21033Y11197D2*
X20993Y11161D1*
X20994Y9232D1*
X21032Y9273D1*
Y11191D1*
X13130Y5627D2*
X13928D1*
X14051Y5610D1*
X14166Y5561D1*
X14279Y5464D1*
X14301Y5439D1*
X14488D1*
Y4990D1*
X15299Y4989D1*
X15297Y5439D1*
X15324D1*
X15355Y5573D1*
X15414Y5683D1*
X15499Y5774D1*
X15606Y5838D1*
X15662Y5854D1*
X15297D1*
Y6738D1*
X16417D1*
Y5854D1*
X15935D1*
X16078Y5778D1*
X16146Y5708D1*
X16481Y5709D1*
X16549Y5780D1*
Y8392D1*
X16578Y8517D1*
X16636Y8601D1*
X16902Y8867D1*
X17010Y8935D1*
X17110Y8953D1*
X19308Y8955D1*
X19342Y8992D1*
Y9660D1*
X19292Y9625D1*
X19278Y9455D1*
X19229Y9341D1*
X19151Y9243D1*
X19051Y9170D1*
X18934Y9126D1*
X18810Y9114D1*
X18687Y9136D1*
X18575Y9190D1*
X18474Y9281D1*
X17455Y9284D1*
X16488Y9285D1*
X16462Y9216D1*
X16400Y9107D1*
X16324Y9008D1*
X16234Y8921D1*
X16133Y8849D1*
X16022Y8791D1*
X15903Y8751D1*
X15781Y8728D1*
X15656Y8724D1*
X15532Y8737D1*
X15411Y8769D1*
X15296Y8818D1*
X15189Y8883D1*
X15093Y8963D1*
X15010Y9056D1*
X14937Y9169D1*
X14900Y9105D1*
X14824Y9006D1*
X14734Y8919D1*
X14633Y8847D1*
X14522Y8789D1*
X14403Y8749D1*
X14281Y8726D1*
X14156Y8722D1*
X14032Y8736D1*
X13911Y8767D1*
X13796Y8816D1*
X13689Y8881D1*
X13593Y8961D1*
X13510Y9054D1*
X13441Y9158D1*
X13388Y9271D1*
X13352Y9391D1*
X13334Y9514D1*
Y9639D1*
X13352Y9763D1*
X13388Y9882D1*
X13441Y9995D1*
X13510Y10100D1*
X13593Y10193D1*
X13689Y10272D1*
X13796Y10338D1*
X13911Y10386D1*
X14032Y10418D1*
X14156Y10432D1*
X14280Y10427D1*
X14403Y10404D1*
X14522Y10364D1*
X14633Y10307D1*
X14734Y10234D1*
X14824Y10148D1*
X14900Y10049D1*
X14937Y9984D1*
X15010Y10102D1*
X15028Y10122D1*
X14971Y10125D1*
X14856Y10173D1*
X14678Y10346D1*
X14610Y10454D1*
X14591Y10554D1*
X14589Y10712D1*
X14451Y10653D1*
X14305Y10619D1*
X14156Y10612D1*
X14007Y10630D1*
X13864Y10674D1*
X13731Y10743D1*
X13612Y10834D1*
X13510Y10944D1*
X13429Y11070D1*
X13372Y11208D1*
X13339Y11354D1*
X13332Y11504D1*
X13352Y11652D1*
X13397Y11795D1*
X13467Y11928D1*
X13558Y12047D1*
X13669Y12147D1*
X13796Y12227D1*
X13935Y12284D1*
X14081Y12315D1*
X14231Y12321D1*
X14379Y12300D1*
X14522Y12254D1*
X14591Y12220D1*
Y12345D1*
X14620Y12469D1*
X14678Y12553D1*
X14817Y12692D1*
X14925Y12760D1*
X15025Y12779D1*
X16311D1*
X16312Y12883D1*
X15603D1*
Y14122D1*
X16312Y14123D1*
Y14267D1*
X15468Y14270D1*
X13389Y14265D1*
X13375Y14096D1*
X13326Y13981D1*
X13248Y13883D1*
X13148Y13810D1*
X13080Y13780D1*
X13079Y13642D1*
X13053Y13520D1*
X13004Y13405D1*
X12935Y13301D1*
X12847Y13212D1*
X12745Y13141D1*
X12630Y13091D1*
X12509Y13063D1*
X12486Y13061D1*
X12531Y12973D1*
X12568Y12854D1*
X12583Y12717D1*
X12571Y12592D1*
X12548Y12514D1*
X12799Y12259D1*
X12866Y12151D1*
X12885Y12051D1*
Y11094D1*
X12958Y11089D1*
X13078Y11057D1*
X13186Y10994D1*
X13273Y10905D1*
X13333Y10795D1*
X13364Y10628D1*
X13347Y10505D1*
X13298Y10390D1*
X13221Y10293D1*
X13192Y10272D1*
X13194Y9101D1*
X13828Y8463D1*
X13911Y8497D1*
X14032Y8528D1*
X14156Y8542D1*
X14280Y8537D1*
X14403Y8515D1*
X14522Y8474D1*
X14633Y8417D1*
X14734Y8345D1*
X14824Y8258D1*
X14900Y8159D1*
X14937Y8094D1*
X14980Y8171D1*
X15075Y8287D1*
X15189Y8385D1*
X15318Y8461D1*
X15458Y8513D1*
X15606Y8541D1*
X15756Y8542D1*
X15903Y8517D1*
X16044Y8466D1*
X16174Y8392D1*
X16290Y8296D1*
X16386Y8182D1*
X16462Y8052D1*
X16513Y7911D1*
X16539Y7764D1*
Y7614D1*
X16513Y7467D1*
X16462Y7326D1*
X16386Y7196D1*
X16290Y7082D1*
X16175Y6986D1*
X16044Y6912D1*
X15903Y6861D1*
X15756Y6836D1*
X15606Y6837D1*
X15459Y6865D1*
X15318Y6917D1*
X15189Y6993D1*
X15076Y7091D1*
X14981Y7207D1*
X14938Y7276D1*
X14824Y7116D1*
X14734Y7029D1*
X14633Y6957D1*
X14522Y6900D1*
X14403Y6859D1*
X14281Y6837D1*
X14156Y6832D1*
X14032Y6846D1*
X13911Y6877D1*
X13796Y6926D1*
X13689Y6991D1*
X13593Y7071D1*
X13510Y7164D1*
X13441Y7268D1*
X13388Y7381D1*
X13352Y7501D1*
X13334Y7625D1*
Y7749D1*
X13352Y7873D1*
X13413Y8046D1*
X12887Y8569D1*
X12885Y7426D1*
Y6391D1*
X12964Y6307D1*
X13024Y6198D1*
X13055Y6030D1*
X13038Y5907D1*
X12989Y5792D1*
X12912Y5695D1*
X22710Y19268D2*
X7097Y19266D1*
X7091Y17357D1*
X8216Y17354D1*
X8233Y17357D1*
X9318D1*
Y16508D1*
X9360Y16611D1*
X9422Y16719D1*
X9498Y16818D1*
X9587Y16905D1*
X9688Y16979D1*
X9798Y17039D1*
X9914Y17083D1*
X10036Y17111D1*
X10161Y17121D1*
X10285Y17114D1*
X10408Y17090D1*
X10526Y17050D1*
X10638Y16993D1*
X10740Y16922D1*
X10832Y16837D1*
X10911Y16741D1*
X10976Y16634D1*
X11026Y16520D1*
X11060Y16399D1*
X11079Y16216D1*
X11070Y16092D1*
X11044Y15970D1*
X11002Y15852D1*
X10944Y15741D1*
X10871Y15640D1*
X10785Y15549D1*
X10688Y15472D1*
X10580Y15408D1*
X10476Y15364D1*
X12869Y15365D1*
X12739Y15423D1*
X12634Y15491D1*
X12539Y15572D1*
X12456Y15666D1*
X12387Y15770D1*
X12333Y15882D1*
X12295Y16001D1*
X12274Y16124D1*
X12270Y16249D1*
X12283Y16373D1*
X12313Y16495D1*
X12360Y16611D1*
X12422Y16719D1*
X12498Y16818D1*
X12587Y16905D1*
X12688Y16979D1*
X12798Y17039D1*
X12914Y17083D1*
X13036Y17111D1*
X13161Y17121D1*
X13285Y17114D1*
X13408Y17090D1*
X13526Y17050D1*
X13638Y16993D1*
X13740Y16922D1*
X13832Y16837D1*
X13911Y16741D1*
X13976Y16634D1*
X14026Y16520D1*
X14060Y16399D1*
X14079Y16216D1*
X14070Y16092D1*
X14044Y15970D1*
X14002Y15852D1*
X13944Y15742D1*
X13871Y15640D1*
X13785Y15549D1*
X13688Y15472D1*
X13580Y15408D1*
X13476Y15364D1*
X16129Y15367D1*
X16829Y16067D1*
X16937Y16135D1*
X17038Y16153D1*
X18605D1*
X18729Y16125D1*
X18813Y16067D1*
X18952Y15928D1*
X19020Y15820D1*
X19039Y15719D1*
Y13637D1*
X19138Y13668D1*
X19262Y13680D1*
X19386Y13667D1*
X19505Y13629D1*
X19613Y13567D1*
X19707Y13484D1*
X19756Y13419D1*
X19851Y13524D1*
X19952Y13598D1*
X20065Y13649D1*
X20187Y13676D1*
X20312Y13678D1*
X20434Y13655D1*
X20549Y13607D1*
X20652Y13536D1*
X20739Y13446D1*
X20805Y13340D1*
X20849Y13223D1*
X20867Y13100D1*
X20860Y12972D1*
X20827Y12851D1*
X20770Y12740D1*
X20692Y12643D1*
X20607Y12571D1*
X20707Y12484D1*
X20781Y12384D1*
X20834Y12271D1*
X20863Y12150D1*
X20868Y12071D1*
X20856Y11959D1*
X20986Y11883D1*
X21032Y11836D1*
Y13323D1*
X21061Y13447D1*
X21119Y13531D1*
X21258Y13670D1*
X21366Y13738D1*
X21466Y13757D1*
X25001D1*
X25126Y13728D1*
X25210Y13670D1*
X25385Y13485D1*
X25464Y13479D1*
Y12398D1*
X25343D1*
X25349Y12306D1*
X25333Y12183D1*
X25284Y12068D1*
X25206Y11971D1*
X25105Y11897D1*
X24989Y11853D1*
X24865Y11842D1*
X24742Y11864D1*
X24630Y11917D1*
X24535Y11999D1*
X24466Y12103D1*
X24427Y12221D1*
X24421Y12346D1*
X24412Y12313D1*
Y8980D1*
X24383Y8856D1*
X24325Y8772D1*
X23301Y7748D1*
X23193Y7680D1*
X23093Y7661D1*
X22956Y7662D1*
X22952Y6027D1*
X22956Y5757D1*
Y5122D1*
X21647D1*
X21348Y4820D1*
X21249Y4744D1*
X21097Y4691D1*
X20772Y4685D1*
X19541D1*
X19458Y4629D1*
X19344Y4577D1*
X19223Y4550D1*
X19098D1*
X18975Y4575D1*
X18879Y4616D1*
X18880Y4407D1*
X23427Y4404D1*
X23426Y5249D1*
X24625D1*
Y5097D1*
X24738Y5175D1*
X24853Y5224D1*
X24975Y5247D1*
X25100Y5244D1*
X25222Y5216D1*
X25335Y5163D1*
X25434Y5088D1*
X25516Y4994D1*
X25558Y4925D1*
X25522Y16102D1*
X25463Y16103D1*
X25464Y15468D1*
X24816Y15472D1*
X24827Y15468D1*
X23537D1*
X23372D1*
X23335Y15397D1*
X23128Y15183D1*
X23113Y15014D1*
X23064Y14899D1*
X22986Y14801D1*
X22860Y14718D1*
X22863Y14654D1*
X22846Y14530D1*
X22797Y14416D1*
X22720Y14318D1*
X22619Y14245D1*
X22502Y14201D1*
X22378Y14189D1*
X22256Y14211D1*
X22123Y14283D1*
X21982Y14217D1*
X21680Y14213D1*
X21036D1*
X21002Y14172D1*
X20901Y14099D1*
X20784Y14055D1*
X20660Y14043D1*
X20537Y14065D1*
X20425Y14119D1*
X20331Y14201D1*
X20262Y14304D1*
X20223Y14423D1*
X20217Y14547D1*
X20244Y14669D1*
X20302Y14779D1*
X20388Y14870D1*
X20494Y14934D1*
X20614Y14968D1*
X20739Y14969D1*
X20859Y14937D1*
X20967Y14874D1*
X21035Y14804D1*
X21777Y14803D1*
X21741Y14831D1*
X21618Y14853D1*
X21506Y14906D1*
X21412Y14988D1*
X21342Y15092D1*
X21303Y15210D1*
X21297Y15335D1*
X21324Y15456D1*
X21383Y15566D1*
X21492Y15671D1*
X21490Y16550D1*
X22137Y16546D1*
X22251Y16550D1*
X22649Y16546D1*
X22697Y16550D1*
X22657D1*
X22698D1*
X22713Y19268D1*
X21547Y7438D2*
D17*
X22955D1*
X9500Y5349D2*
Y4750D1*
X16183Y14121D2*
Y12884D1*
X15604Y13502D2*
X16183D1*
X5335Y13312D2*
Y12693D1*
X5147Y7000D2*
Y6382D1*
X4568Y7000D2*
X5147D1*
X4568Y7836D2*
X5187D1*
X5335Y14806D2*
Y14187D1*
X8738Y17357D2*
Y16738D1*
X9318D1*
X6164Y12000D2*
X6744D1*
X23605Y12938D2*
Y12398D1*
X22581Y16549D2*
Y16009D1*
X23349D2*
Y15469D1*
X24373Y16009D2*
Y15469D1*
X24628Y16009D2*
Y15469D1*
X20259Y13680D2*
Y13071D1*
X20867D1*
X7812Y15562D2*
Y14904D1*
X14187Y12322D2*
Y10612D1*
X13332Y11467D2*
X14187D1*
X15687Y8544D2*
Y6834D1*
Y7689D2*
X16542D1*
X25026Y5249D2*
Y4650D1*
X12424Y13717D2*
Y13058D1*
Y13717D2*
X13082D1*
X15857Y6738D2*
Y5854D1*
X15297Y6296D2*
X16417D1*
X20198Y17276D2*
Y15448D1*
X19284Y16362D2*
X21112D1*
X15458Y17276D2*
Y15448D1*
X14544Y16362D2*
X16372D1*
D18*
X22251Y7438D3*
Y6532D3*
Y5627D3*
D19*
X19814Y6532D3*
D20*
X11500Y4750D3*
D21*
X10500D3*
X9500D3*
X8500D3*
X7500D3*
D22*
X17286Y13502D3*
X16183D3*
X6437Y13312D3*
X5335D3*
X6249Y7000D3*
X5147D3*
D23*
X5187Y8938D3*
Y7836D3*
D22*
X6437Y14187D3*
X5335D3*
D23*
X7499Y5875D3*
Y6977D3*
X8761Y10511D3*
Y11613D3*
D22*
X7636Y16738D3*
X8738D3*
X5062Y12000D3*
X6164D3*
D26*
X25140Y12938D3*
X24884D3*
X24628D3*
X24373D3*
X24117D3*
X23861D3*
X23605D3*
X23349D3*
X23093D3*
X22837D3*
X22581D3*
X22325D3*
X22069D3*
X21813D3*
Y16009D3*
X22069D3*
X22325D3*
X22581D3*
X22837D3*
X23093D3*
X23349D3*
X23605D3*
X23861D3*
X24117D3*
X24373D3*
X24628D3*
X24884D3*
X25140D3*
D27*
X18259Y12071D3*
D28*
X19259D3*
X20259D3*
Y13071D3*
X19259D3*
X18259D3*
D29*
X5999Y10875D3*
X6499D3*
X6999D3*
X7499D3*
Y7962D3*
X6999D3*
X6499D3*
X5999D3*
X7312Y15562D3*
X7812D3*
X8312D3*
X8812D3*
Y12649D3*
X8312D3*
X7812D3*
X7312D3*
D30*
X14187Y7687D3*
Y9577D3*
Y11467D3*
X15687Y11469D3*
Y9579D3*
Y7689D3*
D20*
X24026Y4650D3*
D21*
X25026D3*
D20*
X17156Y5146D3*
D21*
X18156D3*
X19156D3*
D23*
X6511Y15136D3*
Y16238D3*
X5187Y9813D3*
Y10915D3*
D31*
X12424Y13717D3*
X11924Y12717D3*
X11424Y13717D3*
X10924Y12717D3*
D35*
X13928Y4997D3*
Y6296D3*
X15857D3*
Y4997D3*
D36*
X17336Y14508D3*
D37*
X18320D3*
Y15295D3*
X17336D3*
D38*
X20198Y16362D3*
X15458D3*
D39*
X22756Y11078D3*
Y9178D3*
M02*
