G04 DipTrace 2.4.0.2*
%INBottomAssy.gbr*%
%MOIN*%
%ADD10C,0.0098*%
%ADD12C,0.003*%
%FSLAX44Y44*%
G04*
G70*
G90*
G75*
G01*
%LNBotAssy*%
%LPD*%
X16262Y4548D2*
D10*
X20050D1*
X17171Y4214D2*
D12*
Y4415D1*
X17257D1*
X17286Y4405D1*
X17296Y4396D1*
X17305Y4377D1*
Y4348D1*
X17296Y4329D1*
X17286Y4319D1*
X17257Y4310D1*
X17286Y4300D1*
X17296Y4291D1*
X17305Y4272D1*
Y4252D1*
X17296Y4233D1*
X17286Y4224D1*
X17257Y4214D1*
X17171D1*
Y4310D2*
X17257D1*
X17424Y4214D2*
X17405Y4224D1*
X17386Y4243D1*
X17376Y4262D1*
X17367Y4291D1*
Y4339D1*
X17376Y4367D1*
X17386Y4386D1*
X17405Y4405D1*
X17424Y4415D1*
X17463D1*
X17482Y4405D1*
X17501Y4386D1*
X17510Y4367D1*
X17520Y4339D1*
Y4291D1*
X17510Y4262D1*
X17501Y4243D1*
X17482Y4224D1*
X17463Y4214D1*
X17424D1*
X17735Y4415D2*
X17658Y4214D1*
X17582Y4415D1*
X17610Y4348D2*
X17706D1*
X17797Y4310D2*
X17883D1*
X17911Y4300D1*
X17921Y4291D1*
X17931Y4272D1*
Y4252D1*
X17921Y4233D1*
X17911Y4224D1*
X17883Y4214D1*
X17797D1*
Y4415D1*
X17864Y4310D2*
X17931Y4415D1*
X17992Y4214D2*
Y4415D1*
X18059D1*
X18088Y4405D1*
X18107Y4386D1*
X18117Y4367D1*
X18126Y4339D1*
Y4291D1*
X18117Y4262D1*
X18107Y4243D1*
X18088Y4224D1*
X18059Y4214D1*
X17992D1*
X18507D2*
X18382D1*
X18383Y4415D1*
X18507D1*
X18382Y4310D2*
X18459D1*
X18569Y4214D2*
Y4415D1*
X18635D1*
X18664Y4405D1*
X18683Y4386D1*
X18693Y4367D1*
X18702Y4339D1*
Y4291D1*
X18693Y4262D1*
X18683Y4243D1*
X18664Y4224D1*
X18635Y4214D1*
X18569D1*
X18908Y4262D2*
X18898Y4243D1*
X18879Y4224D1*
X18860Y4214D1*
X18822D1*
X18802Y4224D1*
X18783Y4243D1*
X18774Y4262D1*
X18764Y4291D1*
Y4339D1*
X18774Y4367D1*
X18783Y4386D1*
X18802Y4405D1*
X18822Y4415D1*
X18860D1*
X18879Y4405D1*
X18898Y4386D1*
X18908Y4367D1*
Y4339D1*
X18860D1*
X19094Y4214D2*
X18969D1*
Y4415D1*
X19094D1*
X18969Y4310D2*
X19046D1*
M02*
