G04 DipTrace 2.4.0.2*
%INBottomSilk.gbr*%
%MOIN*%
%ADD10C,0.0098*%
%ADD94C,0.0077*%
%ADD95C,0.0124*%
%ADD97C,0.0154*%
%FSLAX44Y44*%
G04*
G70*
G90*
G75*
G01*
%LNBotSilk*%
%LPD*%
X20439Y7720D2*
D10*
X21626D1*
Y5345D1*
X20439D1*
Y7720D1*
X16778Y13188D2*
Y13817D1*
X16852Y13188D2*
Y13817D1*
Y13188D2*
X16617D1*
X16852Y13817D2*
X16617D1*
X5929Y12997D2*
Y13627D1*
X6004Y12997D2*
Y13627D1*
Y12997D2*
X5768D1*
X6004Y13627D2*
X5768D1*
X5741Y6686D2*
Y7315D1*
X5816Y6686D2*
Y7315D1*
Y6686D2*
X5580D1*
X5816Y7315D2*
X5580D1*
X5501Y8430D2*
X4872D1*
X5501Y8505D2*
X4872D1*
X5501D2*
Y8269D1*
X4872Y8505D2*
Y8269D1*
X5929Y13872D2*
Y14502D1*
X6004Y13872D2*
Y14502D1*
Y13872D2*
X5768D1*
X6004Y14502D2*
X5768D1*
X7185Y6383D2*
X7814D1*
X7185Y6308D2*
X7814D1*
X7185D2*
Y6544D1*
X7814Y6308D2*
Y6544D1*
X8446Y11019D2*
X9075D1*
X8446Y10944D2*
X9075D1*
X8446D2*
Y11180D1*
X9075Y10944D2*
Y11180D1*
X8144Y17053D2*
Y16424D1*
X8069Y17053D2*
Y16424D1*
Y17053D2*
X8305D1*
X8069Y16424D2*
X8305D1*
X5570Y12315D2*
Y11686D1*
X5495Y12315D2*
Y11686D1*
Y12315D2*
X5731D1*
X5495Y11686D2*
X5731D1*
X25468Y13601D2*
X21485D1*
X25468Y15346D2*
X21485D1*
Y13601D2*
Y15346D1*
X25468Y13601D2*
Y14194D1*
Y14753D2*
Y15346D1*
Y14194D2*
G02X25468Y14753I-196J280D01*
G01*
X5726Y10285D2*
X7773D1*
X5726Y8553D2*
X7773D1*
Y10285D2*
Y8553D1*
X5726Y10285D2*
Y9696D1*
Y9141D2*
Y8553D1*
Y9696D2*
G02X5726Y9141I-1J-278D01*
G01*
X7038Y14971D2*
X9086D1*
X7038Y13239D2*
X9086D1*
Y14971D2*
Y13239D1*
X7038Y14971D2*
Y14383D1*
Y13828D2*
Y13239D1*
Y14383D2*
G02X7038Y13828I-1J-278D01*
G01*
X16656Y4646D2*
X19656D1*
Y5646D1*
X16656D1*
Y4646D1*
X6196Y15569D2*
Y15805D1*
X6825Y15569D2*
Y15805D1*
X4872Y10246D2*
Y10482D1*
X5501Y10246D2*
Y10482D1*
X13892Y4646D2*
X15892D1*
Y6646D1*
X13892D1*
Y4646D1*
X15892Y6209D2*
X15392Y6646D1*
X15517D2*
X15830Y6334D1*
X15643Y6646D2*
X15892Y6396D1*
X15768Y6584D2*
X15830Y6521D1*
Y6584D2*
X15768Y6521D1*
X21751Y8451D2*
D94*
X21990D1*
X22014Y8236D1*
X21990Y8260D1*
X21918Y8284D1*
X21847D1*
X21775Y8260D1*
X21727Y8213D1*
X21703Y8141D1*
Y8093D1*
X21727Y8021D1*
X21775Y7973D1*
X21847Y7949D1*
X21918D1*
X21990Y7973D1*
X22014Y7998D1*
X22038Y8045D1*
X21549Y8284D2*
X21405Y7949D1*
X21262Y8284D1*
X21108D2*
Y7949D1*
Y8141D2*
X21083Y8213D1*
X21036Y8261D1*
X20988Y8284D1*
X20916D1*
X20761Y8141D2*
X20475D1*
Y8189D1*
X20498Y8237D1*
X20522Y8261D1*
X20570Y8284D1*
X20642D1*
X20690Y8261D1*
X20738Y8213D1*
X20761Y8141D1*
Y8093D1*
X20738Y8021D1*
X20690Y7974D1*
X20642Y7949D1*
X20570D1*
X20522Y7974D1*
X20475Y8021D1*
X20033Y8261D2*
Y7878D1*
X20057Y7806D1*
X20081Y7782D1*
X20129Y7758D1*
X20201D1*
X20248Y7782D1*
X20033Y8189D2*
X20081Y8236D1*
X20129Y8261D1*
X20201D1*
X20248Y8236D1*
X20296Y8189D1*
X20320Y8117D1*
Y8069D1*
X20296Y7998D1*
X20248Y7949D1*
X20201Y7926D1*
X20129D1*
X20081Y7949D1*
X20033Y7998D1*
X19645Y6303D2*
X19429D1*
X19358Y6327D1*
X19334Y6351D1*
X19310Y6399D1*
Y6470D1*
X19334Y6518D1*
X19358Y6542D1*
X19429Y6566D1*
X19645D1*
Y6064D1*
X19155Y6566D2*
X19036Y6064D1*
X18916Y6566D1*
X18797Y6064D1*
X18677Y6566D1*
X18522Y6327D2*
X18307D1*
X18236Y6351D1*
X18211Y6375D1*
X18188Y6422D1*
Y6470D1*
X18211Y6518D1*
X18236Y6542D1*
X18307Y6566D1*
X18522D1*
Y6064D1*
X18355Y6327D2*
X18188Y6064D1*
X17698Y6494D2*
X17746Y6542D1*
X17818Y6566D1*
X17913D1*
X17985Y6542D1*
X18033Y6494D1*
Y6447D1*
X18009Y6399D1*
X17985Y6375D1*
X17938Y6351D1*
X17794Y6303D1*
X17746Y6279D1*
X17722Y6255D1*
X17698Y6207D1*
Y6135D1*
X17746Y6088D1*
X17818Y6064D1*
X17913D1*
X17985Y6088D1*
X18033Y6135D1*
X17233Y6566D2*
X17544D1*
Y6064D1*
X17233D1*
X17544Y6327D2*
X17353D1*
X17079Y6566D2*
Y6064D1*
X16792D1*
X15305Y7379D2*
Y7020D1*
X15281Y6948D1*
X15233Y6901D1*
X15161Y6876D1*
X15113D1*
X15041Y6901D1*
X14993Y6948D1*
X14970Y7020D1*
Y7379D1*
X14767Y7378D2*
X14505D1*
X14648Y7187D1*
X14576D1*
X14528Y7163D1*
X14505Y7139D1*
X14480Y7067D1*
Y7020D1*
X14505Y6948D1*
X14552Y6900D1*
X14624Y6876D1*
X14696D1*
X14767Y6900D1*
X14791Y6924D1*
X14815Y6972D1*
X24010Y6043D2*
D95*
Y5354D1*
X24354Y5698D2*
X23666D1*
X25496Y5714D2*
X24769D1*
X18792Y18080D2*
D97*
X19176Y19085D1*
X19558Y18080D1*
X19414Y18415D2*
X18936D1*
X18483Y18750D2*
Y18271D1*
X18436Y18129D1*
X18340Y18080D1*
X18196D1*
X18101Y18129D1*
X17957Y18271D1*
Y18750D2*
Y18080D1*
X17075Y19085D2*
Y18080D1*
Y18606D2*
X17170Y18702D1*
X17266Y18750D1*
X17410D1*
X17505Y18702D1*
X17601Y18606D1*
X17648Y18463D1*
Y18368D1*
X17601Y18224D1*
X17505Y18129D1*
X17410Y18080D1*
X17266D1*
X17170Y18129D1*
X17075Y18224D1*
X16766Y19085D2*
X16718Y19037D1*
X16670Y19085D1*
X16718Y19134D1*
X16766Y19085D1*
X16718Y18750D2*
Y18080D1*
X16122Y18750D2*
X16217Y18702D1*
X16313Y18606D1*
X16361Y18463D1*
Y18368D1*
X16313Y18224D1*
X16217Y18129D1*
X16122Y18080D1*
X15978D1*
X15882Y18129D1*
X15787Y18224D1*
X15739Y18368D1*
Y18463D1*
X15787Y18606D1*
X15882Y18702D1*
X15978Y18750D1*
X16122D1*
X15430Y19085D2*
Y18080D1*
X14856D1*
X14547Y18750D2*
Y18271D1*
X14500Y18129D1*
X14404Y18080D1*
X14260D1*
X14165Y18129D1*
X14021Y18271D1*
Y18750D2*
Y18080D1*
X13712Y18750D2*
X13186Y18080D1*
Y18750D2*
X13712Y18080D1*
X11618Y19085D2*
X11714Y19037D1*
X11809Y18941D1*
X11858Y18846D1*
X11905Y18702D1*
Y18463D1*
X11858Y18320D1*
X11809Y18224D1*
X11714Y18129D1*
X11618Y18080D1*
X11427D1*
X11332Y18129D1*
X11236Y18224D1*
X11188Y18320D1*
X11140Y18463D1*
Y18702D1*
X11188Y18846D1*
X11236Y18941D1*
X11332Y19037D1*
X11427Y19085D1*
X11618D1*
X10832Y18750D2*
Y18080D1*
Y18559D2*
X10688Y18702D1*
X10592Y18750D1*
X10449D1*
X10353Y18702D1*
X10306Y18559D1*
Y18080D1*
X9997Y18463D2*
X9423D1*
Y18559D1*
X9471Y18655D1*
X9518Y18702D1*
X9614Y18750D1*
X9758D1*
X9853Y18702D1*
X9949Y18606D1*
X9997Y18463D1*
Y18368D1*
X9949Y18224D1*
X9853Y18129D1*
X9758Y18080D1*
X9614D1*
X9518Y18129D1*
X9423Y18224D1*
X19295Y17122D2*
X18913Y16117D1*
X18530Y17122D1*
X17934Y17121D2*
X18078Y17074D1*
X18174Y16930D1*
X18221Y16691D1*
Y16547D1*
X18174Y16309D1*
X18078Y16165D1*
X17934Y16117D1*
X17839D1*
X17695Y16165D1*
X17600Y16309D1*
X17551Y16547D1*
Y16691D1*
X17600Y16930D1*
X17695Y17074D1*
X17839Y17121D1*
X17934D1*
X17600Y16930D2*
X18174Y16309D1*
X17195Y16214D2*
X17243Y16165D1*
X17195Y16117D1*
X17146Y16165D1*
X17195Y16214D1*
X16646Y16117D2*
X16168Y17121D1*
X16838D1*
M02*
