G04 DipTrace 2.4.0.2*
%INTopSilk.gbr*%
%MOIN*%
%ADD10C,0.0098*%
%ADD32O,0.0165X0.0164*%
%ADD94C,0.0077*%
%ADD96C,0.0046*%
%FSLAX44Y44*%
G04*
G70*
G90*
G75*
G01*
%LNTopSilk*%
%LPD*%
X12000Y4250D2*
D10*
X7000D1*
Y5250D1*
X12000D1*
Y4250D1*
X24618Y10767D2*
Y11396D1*
X24543Y10767D2*
Y11396D1*
Y10767D2*
X24779D1*
X24543Y11396D2*
X24779D1*
X24618Y8860D2*
Y9489D1*
X24543Y8860D2*
Y9489D1*
Y8860D2*
X24779D1*
X24543Y9489D2*
X24779D1*
X17180Y8191D2*
X16551D1*
X17180Y8117D2*
X16551D1*
X17180D2*
Y8352D1*
X16551Y8117D2*
Y8352D1*
X25206Y8550D2*
Y6925D1*
X23893D1*
X23581Y7237D1*
X23580Y8237D1*
X23893Y8550D1*
X25206D1*
X23991Y7050D2*
Y7362D1*
X24150Y7237D2*
X23781D1*
X21449Y13552D2*
X22078D1*
X21449Y13627D2*
X22078D1*
X21449D2*
Y13391D1*
X22078Y13627D2*
Y13391D1*
X22926Y13444D2*
X22297D1*
X22926Y13370D2*
X22297D1*
X22926D2*
Y13605D1*
X22297Y13370D2*
Y13605D1*
X25559Y13408D2*
X24930D1*
X25559Y13333D2*
X24930D1*
X25559D2*
Y13569D1*
X24930Y13333D2*
Y13569D1*
X16642Y13253D2*
Y13883D1*
X16567Y13253D2*
Y13883D1*
Y13253D2*
X16803D1*
X16567Y13883D2*
X16803D1*
X21365Y15279D2*
Y16904D1*
X22677D1*
X22990Y16591D1*
X22991Y15591D1*
X22677Y15279D1*
X21365D1*
X22579Y16779D2*
Y16466D1*
X22421Y16591D2*
X22789D1*
X25253Y6866D2*
Y5241D1*
X23941D1*
X23628Y5553D1*
X23627Y6553D1*
X23941Y6866D1*
X25253D1*
X24039Y5366D2*
Y5678D1*
X24197Y5553D2*
X23829D1*
X21187Y5434D2*
X23000D1*
Y4184D1*
X21187D1*
Y5434D1*
X21812Y5371D2*
Y4184D1*
X21937Y5434D2*
Y4246D1*
X21875Y5371D2*
Y4246D1*
X22251Y18380D2*
Y18144D1*
X21622Y18380D2*
Y18144D1*
Y18306D2*
X22251D1*
X21622Y18380D2*
X22251D1*
X17743Y13587D2*
X20774D1*
Y11555D1*
X17743D1*
Y13587D1*
X23526Y5150D2*
X25526D1*
Y4150D1*
X23526D1*
Y5150D1*
X24663Y13365D2*
Y13600D1*
X24034Y13365D2*
Y13600D1*
X10066Y7127D2*
X9831D1*
X10066Y6498D2*
X9831D1*
X20749Y18359D2*
Y18124D1*
X21379Y18359D2*
Y18124D1*
X23758Y14468D2*
Y14704D1*
X23129Y14468D2*
Y14704D1*
X13901Y12162D2*
X9448D1*
Y20416D1*
X13901D1*
Y12162D1*
X20767Y8128D2*
X18483D1*
Y10412D1*
X20767D1*
Y8128D1*
D32*
X21283Y7817D3*
G36*
X20767Y8128D2*
Y8443D1*
X20452Y8128D1*
X20767D1*
G37*
X13887Y6467D2*
D10*
X15887D1*
Y4467D1*
X13887D1*
Y6467D1*
X15887Y4905D2*
X15387Y4467D1*
X15512D2*
X15824Y4780D1*
X15637Y4467D2*
X15887Y4717D1*
X15762Y4530D2*
X15824Y4592D1*
Y4530D2*
X15762Y4592D1*
X20230Y20418D2*
X15426D1*
X20230D2*
Y17229D1*
X15426Y17189D2*
Y20418D1*
X20230Y15496D2*
Y14197D1*
X18733D1*
X16843D2*
X15426D1*
Y15536D1*
X21906Y11328D2*
Y8928D1*
X23606Y11328D2*
Y8928D1*
X22106Y11328D2*
Y8928D1*
X23406D2*
Y11328D1*
X23056Y10228D2*
Y10028D1*
X22456D1*
Y10228D1*
X23056D1*
Y9878D2*
X22756D1*
X22456D1*
X23056Y10378D2*
X22756D1*
X22456D1*
X22756Y9878D2*
Y9628D1*
Y10378D2*
Y10628D1*
X23606Y11328D2*
G03X21906Y11328I-850J0D01*
G01*
Y8928D2*
G03X23606Y8928I850J0D01*
G01*
X23406Y11328D2*
G03X22106Y11328I-650J0D01*
G01*
Y8928D2*
G03X23406Y8928I650J0D01*
G01*
X22475Y17642D2*
D94*
X22978D1*
Y17928D1*
X22475Y18393D2*
Y18083D1*
X22978D1*
Y18393D1*
X22714Y18083D2*
Y18274D1*
X22475Y18548D2*
X22978D1*
Y18715D1*
X22953Y18787D1*
X22906Y18835D1*
X22858Y18859D1*
X22786Y18883D1*
X22666D1*
X22595Y18859D1*
X22547Y18835D1*
X22499Y18787D1*
X22475Y18715D1*
Y18548D1*
X10928Y20909D2*
X11143D1*
X11215Y20933D1*
X11239Y20957D1*
X11263Y21004D1*
Y21052D1*
X11239Y21100D1*
X11215Y21124D1*
X11143Y21148D1*
X10928D1*
Y20646D1*
X11096Y20909D2*
X11263Y20646D1*
X11657Y21148D2*
Y20766D1*
X11633Y20694D1*
X11609Y20670D1*
X11561Y20646D1*
X11513D1*
X11465Y20670D1*
X11442Y20694D1*
X11417Y20766D1*
Y20813D1*
X11811Y21052D2*
X11859Y21076D1*
X11931Y21147D1*
Y20646D1*
X12229Y21147D2*
X12157Y21124D1*
X12109Y21052D1*
X12085Y20932D1*
Y20861D1*
X12109Y20741D1*
X12157Y20669D1*
X12229Y20646D1*
X12277D1*
X12349Y20669D1*
X12396Y20741D1*
X12420Y20861D1*
Y20932D1*
X12396Y21052D1*
X12349Y21124D1*
X12277Y21147D1*
X12229D1*
X12396Y21052D2*
X12109Y20741D1*
X13287Y7199D2*
X13407Y6697D1*
X13527Y7199D1*
X13646Y6697D1*
X13766Y7199D1*
X14255Y7128D2*
X14208Y7176D1*
X14136Y7199D1*
X14040D1*
X13968Y7176D1*
X13920Y7128D1*
Y7080D1*
X13945Y7032D1*
X13968Y7008D1*
X14016Y6984D1*
X14160Y6936D1*
X14208Y6913D1*
X14232Y6888D1*
X14255Y6841D1*
Y6769D1*
X14208Y6721D1*
X14136Y6697D1*
X14040D1*
X13968Y6721D1*
X13920Y6769D1*
X14434Y7080D2*
Y7103D1*
X14458Y7151D1*
X14482Y7175D1*
X14530Y7199D1*
X14625D1*
X14673Y7175D1*
X14697Y7151D1*
X14721Y7103D1*
Y7056D1*
X14697Y7008D1*
X14649Y6936D1*
X14410Y6697D1*
X14745D1*
X15018Y7199D2*
X14947Y7175D1*
X14923Y7128D1*
Y7080D1*
X14947Y7032D1*
X14995Y7008D1*
X15090Y6984D1*
X15162Y6960D1*
X15210Y6912D1*
X15233Y6865D1*
Y6793D1*
X15210Y6745D1*
X15186Y6721D1*
X15114Y6697D1*
X15018D1*
X14947Y6721D1*
X14923Y6745D1*
X14899Y6793D1*
Y6865D1*
X14923Y6912D1*
X14971Y6960D1*
X15042Y6984D1*
X15138Y7008D1*
X15186Y7032D1*
X15210Y7080D1*
Y7128D1*
X15186Y7175D1*
X15114Y7199D1*
X15018D1*
X15388Y7103D2*
X15436Y7128D1*
X15508Y7199D1*
Y6697D1*
X15686Y7080D2*
Y7103D1*
X15710Y7151D1*
X15734Y7175D1*
X15782Y7199D1*
X15878D1*
X15925Y7175D1*
X15949Y7151D1*
X15973Y7103D1*
Y7056D1*
X15949Y7008D1*
X15901Y6936D1*
X15662Y6697D1*
X15997D1*
X16151Y7199D2*
Y6697D1*
X16367D1*
X16439Y6721D1*
X16463Y6745D1*
X16486Y6793D1*
Y6865D1*
X16463Y6913D1*
X16439Y6936D1*
X16367Y6960D1*
X16439Y6984D1*
X16463Y7008D1*
X16486Y7056D1*
Y7104D1*
X16463Y7151D1*
X16439Y7176D1*
X16367Y7199D1*
X16151D1*
Y6960D2*
X16367D1*
X17171Y21211D2*
Y20853D1*
X17195Y20781D1*
X17243Y20733D1*
X17315Y20709D1*
X17362D1*
X17434Y20733D1*
X17482Y20781D1*
X17506Y20853D1*
Y21211D1*
X17995Y21140D2*
X17948Y21188D1*
X17876Y21211D1*
X17780D1*
X17708Y21188D1*
X17660Y21140D1*
Y21092D1*
X17685Y21044D1*
X17708Y21020D1*
X17756Y20996D1*
X17900Y20948D1*
X17948Y20925D1*
X17971Y20900D1*
X17995Y20853D1*
Y20781D1*
X17948Y20733D1*
X17876Y20709D1*
X17780D1*
X17708Y20733D1*
X17660Y20781D1*
X18150Y21211D2*
Y20709D1*
X18365D1*
X18437Y20733D1*
X18461Y20757D1*
X18485Y20805D1*
Y20877D1*
X18461Y20925D1*
X18437Y20948D1*
X18365Y20972D1*
X18437Y20996D1*
X18461Y21020D1*
X18485Y21068D1*
Y21116D1*
X18461Y21163D1*
X18437Y21188D1*
X18365Y21211D1*
X18150D1*
Y20972D2*
X18365D1*
X7394Y6018D2*
Y5516D1*
X7226Y6018D2*
X7561D1*
X8226Y5778D2*
X8441D1*
X8513Y5802D1*
X8538Y5826D1*
X8561Y5873D1*
Y5922D1*
X8538Y5969D1*
X8513Y5993D1*
X8441Y6017D1*
X8226D1*
Y5515D1*
X8394Y5778D2*
X8561Y5515D1*
X9436Y5945D2*
X9389Y5993D1*
X9317Y6017D1*
X9221D1*
X9150Y5993D1*
X9101Y5945D1*
Y5898D1*
X9126Y5850D1*
X9150Y5826D1*
X9197Y5802D1*
X9341Y5754D1*
X9389Y5730D1*
X9413Y5706D1*
X9436Y5658D1*
Y5587D1*
X9389Y5539D1*
X9317Y5515D1*
X9221D1*
X9150Y5539D1*
X9101Y5587D1*
X10187Y6057D2*
Y5554D1*
X10403D1*
X10475Y5578D1*
X10498Y5602D1*
X10522Y5650D1*
Y5722D1*
X10498Y5770D1*
X10475Y5793D1*
X10403Y5817D1*
X10475Y5842D1*
X10498Y5865D1*
X10522Y5913D1*
Y5961D1*
X10498Y6008D1*
X10475Y6033D1*
X10403Y6057D1*
X10187D1*
Y5817D2*
X10403D1*
X11264Y6017D2*
X11025D1*
X11001Y5802D1*
X11025Y5825D1*
X11097Y5850D1*
X11168D1*
X11240Y5825D1*
X11288Y5778D1*
X11312Y5706D1*
Y5658D1*
X11288Y5587D1*
X11240Y5539D1*
X11168Y5515D1*
X11097D1*
X11025Y5539D1*
X11001Y5563D1*
X10977Y5610D1*
X11466Y5850D2*
X11610Y5515D1*
X11753Y5850D1*
X16347Y5382D2*
D96*
X16476D1*
X16519Y5397D1*
X16534Y5411D1*
X16548Y5440D1*
Y5468D1*
X16534Y5497D1*
X16519Y5512D1*
X16476Y5526D1*
X16347D1*
Y5224D1*
X16448Y5382D2*
X16548Y5224D1*
X16641Y5339D2*
X16813D1*
Y5368D1*
X16799Y5397D1*
X16784Y5411D1*
X16755Y5425D1*
X16712D1*
X16684Y5411D1*
X16655Y5382D1*
X16641Y5339D1*
Y5311D1*
X16655Y5267D1*
X16684Y5239D1*
X16712Y5224D1*
X16755D1*
X16784Y5239D1*
X16813Y5267D1*
X17078Y5411D2*
Y5181D1*
X17063Y5138D1*
X17049Y5124D1*
X17020Y5110D1*
X16977D1*
X16949Y5124D1*
X17078Y5368D2*
X17049Y5396D1*
X17020Y5411D1*
X16977D1*
X16949Y5396D1*
X16920Y5368D1*
X16905Y5325D1*
Y5296D1*
X16920Y5253D1*
X16949Y5224D1*
X16977Y5210D1*
X17020D1*
X17049Y5224D1*
X17078Y5253D1*
X18031Y5595D2*
Y5379D1*
X18045Y5336D1*
X18074Y5308D1*
X18117Y5293D1*
X18145D1*
X18188Y5308D1*
X18217Y5336D1*
X18231Y5379D1*
Y5595D1*
X18324Y5494D2*
Y5293D1*
Y5437D2*
X18367Y5480D1*
X18396Y5494D1*
X18439D1*
X18468Y5480D1*
X18482Y5437D1*
Y5293D1*
X18575Y5451D2*
X18704D1*
X18747Y5466D1*
X18761Y5480D1*
X18776Y5508D1*
Y5537D1*
X18761Y5566D1*
X18747Y5580D1*
X18704Y5595D1*
X18575D1*
Y5293D1*
X18675Y5451D2*
X18776Y5293D1*
X18868Y5408D2*
X19040D1*
Y5437D1*
X19026Y5466D1*
X19012Y5480D1*
X18983Y5494D1*
X18940D1*
X18911Y5480D1*
X18882Y5451D1*
X18868Y5408D1*
Y5379D1*
X18882Y5336D1*
X18911Y5308D1*
X18940Y5293D1*
X18983D1*
X19012Y5308D1*
X19040Y5336D1*
X19305Y5480D2*
Y5250D1*
X19291Y5207D1*
X19277Y5193D1*
X19248Y5179D1*
X19205D1*
X19176Y5193D1*
X19305Y5437D2*
X19277Y5465D1*
X19248Y5480D1*
X19205D1*
X19176Y5465D1*
X19147Y5437D1*
X19133Y5394D1*
Y5365D1*
X19147Y5322D1*
X19176Y5293D1*
X19205Y5279D1*
X19248D1*
X19277Y5293D1*
X19305Y5322D1*
M02*
