G04 DipTrace 3.0.0.0*
G04 Bottom.gbr*
%MOIN*%
G04 #@! TF.FileFunction,Copper,L2,Bot*
G04 #@! TF.Part,Single*
G04 #@! TA.AperFunction,Conductor*
%ADD14C,0.006*%
G04 #@! TA.AperFunction,ComponentPad*
%ADD15C,0.07874*%
G04 #@! TA.AperFunction,Conductor*
%ADD16C,0.03937*%
G04 #@! TA.AperFunction,CopperBalancing*
%ADD22C,0.025*%
%ADD23C,0.012992*%
G04 #@! TA.AperFunction,ComponentPad*
%ADD38C,0.059055*%
%ADD39C,0.051181*%
G04 #@! TA.AperFunction,ViaPad*
%ADD40C,0.04*%
%FSLAX26Y26*%
G04*
G70*
G90*
G75*
G01*
G04 Bottom*
%LPD*%
X1965118Y1034252D2*
D14*
X2015118Y984252D1*
Y934252D1*
X754646D2*
Y984252D1*
X704646Y1034252D1*
Y1319549D1*
X517999Y1506196D1*
X1535241Y1939764D2*
D16*
X1485241Y1889764D1*
Y1839764D1*
X1915118Y934252D2*
X1865247Y959717D1*
Y1070718D1*
X1893867Y1091161D1*
Y1171734D1*
X804630Y1939764D2*
X904630D1*
X2165105D2*
X2115105Y1889764D1*
Y1839764D1*
X1893867Y1171734D2*
X1894728D1*
X1943248Y1123214D1*
X2059867D1*
X2133782Y1197129D1*
Y1830049D1*
X2065105Y1898726D1*
Y1939764D1*
X904630D2*
X854630Y1889764D1*
Y1839764D1*
X2091699Y1358797D2*
X2085223D1*
Y1220833D1*
X1863692D1*
X1798963Y1285562D1*
Y1467150D1*
X1850613Y1518799D1*
X1865894D1*
X1285241Y1839764D2*
X1185241D1*
X1863692Y1220833D2*
D14*
Y1239757D1*
X1892689Y1210760D1*
X2043974D1*
X1915105Y1839764D2*
D16*
X1865105Y1889764D1*
Y1939764D1*
X554630Y1839764D2*
X607390Y1892524D1*
X604630Y1939764D1*
X1870441Y1591567D2*
X1815105Y1646903D1*
Y1839764D1*
X1865894Y1518799D2*
X1870563D1*
X1916633Y1472729D1*
X1967145D1*
X1999803Y1505387D1*
Y1550472D1*
X1958709Y1591567D1*
X1870441D1*
X1185241Y1839764D2*
Y1889764D1*
X1235241Y1939764D1*
D15*
Y1961934D1*
X1152194Y2044982D1*
X675757D1*
X604630Y1973854D1*
Y1939764D1*
X2015105Y1839764D2*
D14*
X1965105Y1889764D1*
Y1939764D1*
X2015106Y1744087D2*
X2015105Y1839764D1*
X2233016Y1640602D2*
Y1528194D1*
X2240295D1*
X754630Y1350406D2*
Y1839764D1*
X704630Y1889764D1*
Y1939764D1*
X2154488Y1099803D2*
Y1574366D1*
X2163588D1*
X2046835Y1646583D2*
X2053634Y1653382D1*
Y1878291D1*
X2003634Y1928291D1*
Y1978291D1*
X1991634Y1990291D1*
X1776575D1*
X1764575Y1978291D1*
Y1559799D1*
X1776575Y1547799D1*
X1917583D1*
X1941709Y1523673D1*
X2187016Y1132331D2*
Y1538654D1*
X2193386D1*
D40*
X1920046Y1356127D3*
X1964223Y1371025D3*
X1921588Y1311694D3*
X1963710Y1310667D3*
X1893867Y1171734D3*
X1865894Y1518799D3*
X2043974Y1210760D3*
X2091699Y1358797D3*
X1870441Y1591567D3*
X2015106Y1744087D3*
X754630Y1350406D3*
X1941709Y1523673D3*
X2046835Y1646583D3*
X2193386Y1538654D3*
X2187016Y1132331D3*
X2240295Y1528194D3*
X2233016Y1640602D3*
X2163588Y1574366D3*
X2154488Y1099803D3*
X2021202Y1369323D3*
X2018553Y1334869D3*
X2019290Y1298872D3*
X1910316Y1424514D3*
X1984647Y1426531D3*
X2014607Y1446932D3*
X1908113Y1357804D2*
D22*
X1970936D1*
X1908211Y1332936D2*
X1970984D1*
X1908308Y1308067D2*
X1971033D1*
X1908406Y1283198D2*
X1971081D1*
X1973358Y1382631D2*
X1905487Y1382404D1*
X1906106Y1260012D1*
X1973635Y1259785D1*
X1973391Y1382617D1*
X2013903Y1356510D2*
X2099136D1*
X2013903Y1331642D2*
X2099136D1*
X2013903Y1306773D2*
X2099136D1*
X2013903Y1281904D2*
X2099136D1*
X2013903Y1257035D2*
X2099136D1*
X2013903Y1232167D2*
X2099136D1*
X1988316Y1207298D2*
X2088883D1*
X1988415Y1182429D2*
X2065739D1*
X2011379Y1381331D2*
X2011226Y1232707D1*
X2010017Y1228988D1*
X2007718Y1225824D1*
X2004554Y1223525D1*
X2000835Y1222316D1*
X1985748Y1221833D1*
X1985987Y1167860D1*
X2054911Y1168131D1*
X2101654Y1218294D1*
X2101555Y1380785D1*
X2011371Y1381307D1*
X434710Y2338222D2*
X2281858D1*
X434710Y2313353D2*
X2281858D1*
X434710Y2288484D2*
X2281858D1*
X434710Y2263615D2*
X448295D1*
X560930D2*
X898312D1*
X1010930D2*
X1078928D1*
X1191546D2*
X1528928D1*
X1641546D2*
X1708811D1*
X1821428D2*
X2158811D1*
X2271428D2*
X2281858D1*
X584270Y2238747D2*
X875022D1*
X1034270D2*
X1055588D1*
X1214886D2*
X1505588D1*
X1664886D2*
X1685471D1*
X1844719D2*
X2135471D1*
X595256Y2213878D2*
X863987D1*
X1225871D2*
X1494602D1*
X1855755D2*
X2124484D1*
X598479Y2189009D2*
X860764D1*
X1229094D2*
X1491379D1*
X1858976D2*
X2121214D1*
X594816Y2164140D2*
X864427D1*
X1225432D2*
X1495042D1*
X1855315D2*
X2124924D1*
X583294Y2139272D2*
X875999D1*
X1033294D2*
X1056564D1*
X1213908D2*
X1506564D1*
X1663908D2*
X1686448D1*
X1843743D2*
X2136448D1*
X434710Y2114403D2*
X450441D1*
X558782D2*
X900462D1*
X1008782D2*
X1081076D1*
X1189396D2*
X1531076D1*
X1639396D2*
X1710959D1*
X1819280D2*
X2160959D1*
X2269280D2*
X2281858D1*
X434710Y2089534D2*
X624680D1*
X1203264D2*
X2281858D1*
X434710Y2064665D2*
X599778D1*
X1228167D2*
X2281858D1*
X434710Y2039797D2*
X574924D1*
X1253020D2*
X2281858D1*
X434710Y2014928D2*
X550656D1*
X1277874D2*
X1757883D1*
X2010344D2*
X2281858D1*
X434710Y1990059D2*
X538303D1*
X1297307D2*
X1308098D1*
X1362395D2*
X1408079D1*
X1462395D2*
X1508079D1*
X1562395D2*
X1735031D1*
X2092278D2*
X2137912D1*
X2192278D2*
X2281858D1*
X434710Y1965190D2*
X536252D1*
X957024D2*
X1136350D1*
X1587639D2*
X1732591D1*
X2217522D2*
X2281858D1*
X434710Y1940322D2*
X536252D1*
X963127D2*
X1161203D1*
X1593743D2*
X1732591D1*
X1796575D2*
X1806564D1*
X2223626D2*
X2281858D1*
X434710Y1915453D2*
X540940D1*
X957610D2*
X1144358D1*
X1588224D2*
X1732591D1*
X1796575D2*
X1812131D1*
X2218059D2*
X2281858D1*
X434710Y1890584D2*
X528538D1*
X933976D2*
X1136594D1*
X1564543D2*
X1732591D1*
X2194427D2*
X2281858D1*
X434710Y1865715D2*
X502463D1*
X906780D2*
X1133079D1*
X1537395D2*
X1732591D1*
X2167228D2*
X2281858D1*
X434710Y1840846D2*
X496115D1*
X913127D2*
X1126731D1*
X1543743D2*
X1732591D1*
X2173626D2*
X2281858D1*
X434710Y1815978D2*
X501390D1*
X907854D2*
X1132004D1*
X1538470D2*
X1732591D1*
X2168303D2*
X2281858D1*
X434710Y1791109D2*
X524387D1*
X584904D2*
X624387D1*
X684904D2*
X722630D1*
X786614D2*
X824387D1*
X884904D2*
X1154954D1*
X1215520D2*
X1254954D1*
X1315520D2*
X1354954D1*
X1415520D2*
X1454954D1*
X1515520D2*
X1732591D1*
X1863762D2*
X1884836D1*
X1945354D2*
X1983127D1*
X2145354D2*
X2281858D1*
X434710Y1766240D2*
X722630D1*
X786614D2*
X1732591D1*
X1863762D2*
X1971751D1*
X2085638D2*
X2281858D1*
X434710Y1741371D2*
X722630D1*
X786614D2*
X1732591D1*
X1863762D2*
X1966184D1*
X2085638D2*
X2281858D1*
X434710Y1716503D2*
X722630D1*
X786614D2*
X1732591D1*
X1863762D2*
X1975168D1*
X2085638D2*
X2281858D1*
X434710Y1691634D2*
X722630D1*
X786614D2*
X1732591D1*
X1863762D2*
X2021652D1*
X2085638D2*
X2281858D1*
X434710Y1666765D2*
X722630D1*
X786614D2*
X1732591D1*
X1863762D2*
X2002463D1*
X2091203D2*
X2192063D1*
X2273967D2*
X2281891D1*
X434710Y1641896D2*
X476438D1*
X559563D2*
X722630D1*
X786614D2*
X1732591D1*
X1887932D2*
X1998068D1*
X2095598D2*
X2184055D1*
X434710Y1617028D2*
X455979D1*
X580022D2*
X722630D1*
X786614D2*
X1732591D1*
X2085247D2*
X2142600D1*
X434710Y1592159D2*
X449759D1*
X586272D2*
X722630D1*
X786614D2*
X1732591D1*
X2025920D2*
X2118138D1*
X2265031D2*
X2281858D1*
X434710Y1567290D2*
X453270D1*
X582707D2*
X722630D1*
X786614D2*
X1732591D1*
X2045306D2*
X2115159D1*
X2267962D2*
X2281858D1*
X434710Y1542421D2*
X468820D1*
X567180D2*
X722630D1*
X786614D2*
X1738255D1*
X2048479D2*
X2122483D1*
X434710Y1517552D2*
X464671D1*
X571331D2*
X722630D1*
X786614D2*
X1781564D1*
X2048479D2*
X2122483D1*
X434710Y1492684D2*
X465207D1*
X575724D2*
X722630D1*
X786614D2*
X1757980D1*
X2048479D2*
X2122483D1*
X2272795D2*
X2281848D1*
X434710Y1467815D2*
X480295D1*
X600579D2*
X722630D1*
X786614D2*
X1750315D1*
X2041984D2*
X2122483D1*
X2218987D2*
X2281858D1*
X434710Y1442946D2*
X465794D1*
X625480D2*
X722630D1*
X786614D2*
X1750266D1*
X1847648D2*
X1878635D1*
X2019084D2*
X2122483D1*
X2218987D2*
X2281858D1*
X434710Y1418077D2*
X464280D1*
X650335D2*
X722630D1*
X786614D2*
X1750266D1*
X1847648D2*
X1877659D1*
X2218987D2*
X2281858D1*
X434710Y1393209D2*
X476243D1*
X559759D2*
X586790D1*
X675188D2*
X722630D1*
X786614D2*
X1750266D1*
X1847648D2*
X1863974D1*
X2218987D2*
X2281858D1*
X434710Y1368340D2*
X467259D1*
X568743D2*
X611643D1*
X700042D2*
X709270D1*
X800042D2*
X1750266D1*
X1847648D2*
X1864070D1*
X2218987D2*
X2281858D1*
X434710Y1343471D2*
X463694D1*
X572307D2*
X636496D1*
X803118D2*
X1750266D1*
X1847648D2*
X1864165D1*
X2218987D2*
X2281858D1*
X434710Y1318602D2*
X473020D1*
X562980D2*
X661399D1*
X791056D2*
X1750266D1*
X1847648D2*
X1864261D1*
X2218987D2*
X2281858D1*
X434710Y1293734D2*
X455735D1*
X580266D2*
X672630D1*
X736614D2*
X1750266D1*
X2218987D2*
X2281858D1*
X434710Y1268865D2*
X449660D1*
X586320D2*
X672630D1*
X736614D2*
X1753391D1*
X2218987D2*
X2281858D1*
X434710Y1243996D2*
X453466D1*
X582560D2*
X672630D1*
X736614D2*
X1772727D1*
X2218987D2*
X2281858D1*
X434710Y1219127D2*
X469260D1*
X566740D2*
X672630D1*
X736614D2*
X1797580D1*
X2218987D2*
X2281858D1*
X434710Y1194259D2*
X672630D1*
X736614D2*
X1822483D1*
X2218987D2*
X2281858D1*
X434710Y1169390D2*
X672630D1*
X736614D2*
X1944504D1*
X2111858D2*
X2122507D1*
X2218987D2*
X2281858D1*
X434710Y1144521D2*
X672630D1*
X736614D2*
X1946848D1*
X2088714D2*
X2122483D1*
X2234367D2*
X2281858D1*
X434710Y1119652D2*
X672630D1*
X736614D2*
X2109934D1*
X2234270D2*
X2281858D1*
X434710Y1094783D2*
X672630D1*
X736614D2*
X776194D1*
X833098D2*
X1936643D1*
X1993596D2*
X2036643D1*
X2093596D2*
X2105783D1*
X2216936D2*
X2281858D1*
X434710Y1069915D2*
X646751D1*
X862542D2*
X1907248D1*
X2192619D2*
X2281858D1*
X434710Y1045046D2*
X637180D1*
X872112D2*
X1897630D1*
X2132610D2*
X2281858D1*
X434710Y1020177D2*
X637815D1*
X871476D2*
X1898264D1*
X2131975D2*
X2281858D1*
X434710Y995308D2*
X627463D1*
X860247D2*
X1887912D1*
X2120744D2*
X2281858D1*
X434710Y970440D2*
X597092D1*
X823430D2*
X1857591D1*
X2083928D2*
X2281858D1*
X434710Y945571D2*
X587278D1*
X822014D2*
X1847727D1*
X2082512D2*
X2281858D1*
X434710Y920702D2*
X587668D1*
X821575D2*
X1848167D1*
X2082072D2*
X2281858D1*
X434710Y895833D2*
X598655D1*
X810638D2*
X1859104D1*
X2071135D2*
X2281858D1*
X434710Y870965D2*
X633908D1*
X675383D2*
X733908D1*
X775383D2*
X1894407D1*
X1935832D2*
X1994407D1*
X2035832D2*
X2281858D1*
X434710Y846096D2*
X2281858D1*
X434710Y821227D2*
X2281858D1*
X434710Y796358D2*
X2281858D1*
X434710Y771490D2*
X553147D1*
X606144D2*
X853147D1*
X906144D2*
X1813644D1*
X1866643D2*
X2113644D1*
X2166643D2*
X2281858D1*
X434710Y746621D2*
X511643D1*
X647698D2*
X811643D1*
X947698D2*
X1772092D1*
X1908196D2*
X2072092D1*
X2208196D2*
X2281858D1*
X434710Y721752D2*
X494846D1*
X664495D2*
X794846D1*
X964495D2*
X1755295D1*
X1924992D2*
X2055295D1*
X2224992D2*
X2281858D1*
X434710Y696883D2*
X487571D1*
X671770D2*
X787571D1*
X971770D2*
X1748068D1*
X1932219D2*
X2048068D1*
X2232219D2*
X2281858D1*
X434710Y672014D2*
X487522D1*
X671819D2*
X787522D1*
X971819D2*
X1748020D1*
X1932268D2*
X2048020D1*
X2232268D2*
X2281858D1*
X434710Y647146D2*
X494651D1*
X664690D2*
X794651D1*
X964690D2*
X1755148D1*
X1925139D2*
X2055148D1*
X2225139D2*
X2281858D1*
X434710Y622277D2*
X511252D1*
X648039D2*
X811252D1*
X948039D2*
X1771751D1*
X1908538D2*
X2071751D1*
X2208538D2*
X2281858D1*
X434710Y597408D2*
X551828D1*
X607463D2*
X851828D1*
X907463D2*
X1812327D1*
X1867962D2*
X2112327D1*
X2167962D2*
X2281858D1*
X434710Y572539D2*
X2281858D1*
X434710Y547671D2*
X2281858D1*
X434710Y522802D2*
X2281858D1*
X434710Y497933D2*
X2281858D1*
X434710Y473064D2*
X2281858D1*
X434710Y448196D2*
X2281858D1*
X2221068Y1937265D2*
X2220235Y1929816D1*
X2218413Y1922547D1*
X2215638Y1915585D1*
X2211958Y1909056D1*
X2207441Y1903077D1*
X2202164Y1897755D1*
X2196226Y1893184D1*
X2189730Y1889446D1*
X2182793Y1886610D1*
X2175539Y1884724D1*
X2168098Y1883824D1*
X2160605Y1883925D1*
X2153192Y1885025D1*
X2145992Y1887105D1*
X2143314Y1888164D1*
X2150655Y1883058D1*
X2156117Y1877925D1*
X2160843Y1872109D1*
X2164752Y1865715D1*
X2167772Y1858856D1*
X2169848Y1851655D1*
X2170945Y1844241D1*
X2170902Y1834770D1*
X2169736Y1827367D1*
X2167592Y1820186D1*
X2164509Y1813356D1*
X2160542Y1806997D1*
X2155761Y1801224D1*
X2150253Y1796143D1*
X2144117Y1791841D1*
X2137461Y1788398D1*
X2130404Y1785874D1*
X2123073Y1784314D1*
X2115601Y1783747D1*
X2108118Y1784181D1*
X2100762Y1785612D1*
X2093661Y1788010D1*
X2086946Y1791336D1*
X2083122Y1793782D1*
X2083126Y1675606D1*
X2086475Y1670875D1*
X2089787Y1664374D1*
X2092042Y1657436D1*
X2093184Y1650231D1*
Y1642934D1*
X2092042Y1635730D1*
X2089787Y1628791D1*
X2086475Y1622290D1*
X2082188Y1616388D1*
X2077029Y1611230D1*
X2071127Y1606942D1*
X2064626Y1603630D1*
X2057688Y1601375D1*
X2050483Y1600234D1*
X2043186D1*
X2035982Y1601375D1*
X2029043Y1603630D1*
X2022542Y1606942D1*
X2016640Y1611230D1*
X2011482Y1616388D1*
X2007194Y1622290D1*
X2003882Y1628791D1*
X2001627Y1635730D1*
X2000486Y1642934D1*
Y1650231D1*
X2001627Y1657436D1*
X2003882Y1664374D1*
X2007194Y1670875D1*
X2011482Y1676777D1*
X2016640Y1681936D1*
X2022542Y1686223D1*
X2024147Y1687122D1*
X2024142Y1698450D1*
X2015106Y1697594D1*
X2007833Y1698167D1*
X2000739Y1699870D1*
X1993999Y1702661D1*
X1987780Y1706474D1*
X1982231Y1711211D1*
X1977493Y1716760D1*
X1973681Y1722979D1*
X1970890Y1729719D1*
X1969186Y1736814D1*
X1968614Y1744087D1*
X1969186Y1751360D1*
X1970890Y1758454D1*
X1973681Y1765194D1*
X1977493Y1771413D1*
X1982231Y1776962D1*
X1985618Y1779996D1*
X1985613Y1792182D1*
X1978723Y1797167D1*
X1972508Y1803382D1*
X1967340Y1810493D1*
X1965018Y1814332D1*
X1960427Y1806836D1*
X1954717Y1800152D1*
X1948033Y1794442D1*
X1940537Y1789850D1*
X1932416Y1786486D1*
X1923869Y1784434D1*
X1915105Y1783744D1*
X1906341Y1784434D1*
X1897794Y1786486D1*
X1889673Y1789850D1*
X1882177Y1794442D1*
X1875493Y1800152D1*
X1869783Y1806836D1*
X1865112Y1814503D1*
X1861276Y1808108D1*
X1861282Y1665984D1*
X1889570Y1637743D1*
X1962332Y1637602D1*
X1969488Y1636469D1*
X1976381Y1634230D1*
X1982836Y1630940D1*
X1988698Y1626680D1*
X2032455Y1583125D1*
X2037161Y1577614D1*
X2040948Y1571437D1*
X2043720Y1564741D1*
X2045412Y1557696D1*
X2045980Y1550472D1*
X2045839Y1487836D1*
X2044705Y1480680D1*
X2042466Y1473787D1*
X2039176Y1467332D1*
X2034916Y1461470D1*
X2002219Y1428571D1*
X1996709Y1423865D1*
X1993682Y1421844D1*
X1994007Y1420383D1*
X2116358Y1419610D1*
X2122459Y1418361D1*
X2124273Y1417685D1*
X2124996Y1424803D1*
Y1548484D1*
X2122163Y1553259D1*
X2119371Y1559999D1*
X2117668Y1567093D1*
X2117096Y1574366D1*
X2117668Y1581639D1*
X2119371Y1588734D1*
X2122163Y1595474D1*
X2125975Y1601693D1*
X2130713Y1607241D1*
X2136261Y1611979D1*
X2142480Y1615791D1*
X2149220Y1618583D1*
X2156315Y1620286D1*
X2163588Y1620858D1*
X2170861Y1620286D1*
X2177955Y1618583D1*
X2184696Y1615791D1*
X2190915Y1611979D1*
X2196463Y1607241D1*
X2201201Y1601693D1*
X2203529Y1598123D1*
X2203524Y1604707D1*
X2197663Y1610408D1*
X2193375Y1616310D1*
X2190063Y1622811D1*
X2187808Y1629749D1*
X2186667Y1636954D1*
Y1644251D1*
X2187808Y1651455D1*
X2190063Y1658394D1*
X2193375Y1664895D1*
X2197663Y1670797D1*
X2202822Y1675955D1*
X2208723Y1680243D1*
X2215224Y1683555D1*
X2222163Y1685810D1*
X2229367Y1686951D1*
X2236664D1*
X2243869Y1685810D1*
X2250807Y1683555D1*
X2257308Y1680243D1*
X2263210Y1675955D1*
X2268369Y1670797D1*
X2272656Y1664895D1*
X2275969Y1658394D1*
X2278223Y1651455D1*
X2279365Y1644251D1*
Y1636954D1*
X2278223Y1629749D1*
X2275969Y1622811D1*
X2272656Y1616310D1*
X2268369Y1610408D1*
X2262504Y1604693D1*
X2262508Y1569070D1*
X2270490Y1563547D1*
X2275648Y1558388D1*
X2279936Y1552487D1*
X2283248Y1545986D1*
X2284349Y1543003D1*
X2284350Y2130182D1*
X2274446Y2120285D1*
X2262846Y2111857D1*
X2250071Y2105348D1*
X2236436Y2100917D1*
X2222274Y2098675D1*
X2207936D1*
X2193774Y2100917D1*
X2180139Y2105348D1*
X2167364Y2111857D1*
X2155764Y2120285D1*
X2145626Y2130423D1*
X2137198Y2142022D1*
X2130689Y2154798D1*
X2126259Y2168433D1*
X2124016Y2182594D1*
Y2196933D1*
X2126259Y2211094D1*
X2130689Y2224730D1*
X2137198Y2237505D1*
X2145626Y2249105D1*
X2155764Y2259243D1*
X2167364Y2267671D1*
X2180139Y2274180D1*
X2193774Y2278610D1*
X2207936Y2280853D1*
X2222274D1*
X2236436Y2278610D1*
X2250071Y2274180D1*
X2262846Y2267671D1*
X2274446Y2259243D1*
X2284337Y2249373D1*
X2284350Y2363093D1*
X432154Y2363091D1*
X432185Y2245463D1*
X440021Y2254373D1*
X450923Y2263685D1*
X463148Y2271176D1*
X476395Y2276663D1*
X490336Y2280010D1*
X504630Y2281135D1*
X518924Y2280010D1*
X532865Y2276663D1*
X546112Y2271176D1*
X558337Y2263685D1*
X569239Y2254373D1*
X578551Y2243471D1*
X586042Y2231245D1*
X591529Y2217999D1*
X594877Y2204058D1*
X596001Y2189764D1*
X594877Y2175470D1*
X591529Y2161529D1*
X586042Y2148282D1*
X578551Y2136056D1*
X569239Y2125155D1*
X558337Y2115843D1*
X546112Y2108352D1*
X532865Y2102865D1*
X518924Y2099517D1*
X504630Y2098392D1*
X490336Y2099517D1*
X476395Y2102865D1*
X463148Y2108352D1*
X450923Y2115843D1*
X440021Y2125155D1*
X432184Y2134186D1*
X432185Y432182D1*
X2284382Y432185D1*
X2284350Y1513386D1*
X2281720Y1507087D1*
X2277908Y1500867D1*
X2273171Y1495319D1*
X2267622Y1490581D1*
X2261403Y1486769D1*
X2254663Y1483978D1*
X2247568Y1482274D1*
X2240295Y1481702D1*
X2233022Y1482274D1*
X2225928Y1483978D1*
X2219188Y1486769D1*
X2216513Y1488268D1*
X2216508Y1168293D1*
X2222369Y1162525D1*
X2226656Y1156623D1*
X2229969Y1150122D1*
X2232223Y1143184D1*
X2233365Y1135979D1*
Y1128682D1*
X2232223Y1121478D1*
X2229969Y1114539D1*
X2226656Y1108038D1*
X2222369Y1102136D1*
X2217210Y1096978D1*
X2211308Y1092690D1*
X2204807Y1089378D1*
X2199337Y1087537D1*
X2195913Y1078696D1*
X2192101Y1072476D1*
X2187364Y1066928D1*
X2181815Y1062190D1*
X2175596Y1058378D1*
X2168856Y1055587D1*
X2161761Y1053883D1*
X2154488Y1053311D1*
X2147215Y1053883D1*
X2140121Y1055587D1*
X2133381Y1058378D1*
X2127161Y1062190D1*
X2123028Y1065622D1*
X2125967Y1059457D1*
X2129160Y1049627D1*
X2130777Y1039420D1*
Y1029084D1*
X2129160Y1018877D1*
X2125967Y1009047D1*
X2121274Y999839D1*
X2115199Y991478D1*
X2107892Y984171D1*
X2099531Y978096D1*
X2090323Y973403D1*
X2080493Y970210D1*
X2071274Y968665D1*
X2075967Y959457D1*
X2079160Y949627D1*
X2080777Y939420D1*
Y929084D1*
X2079160Y918877D1*
X2075967Y909047D1*
X2071274Y899839D1*
X2065199Y891478D1*
X2057892Y884171D1*
X2049531Y878096D1*
X2040323Y873403D1*
X2030493Y870210D1*
X2020286Y868593D1*
X2009950D1*
X1999743Y870210D1*
X1989913Y873403D1*
X1980705Y878096D1*
X1972344Y884171D1*
X1965133Y891374D1*
X1959320Y885425D1*
X1951427Y879302D1*
X1942697Y874442D1*
X1933333Y870959D1*
X1923551Y868932D1*
X1913575Y868408D1*
X1903634Y869399D1*
X1893957Y871882D1*
X1884766Y875801D1*
X1876274Y881063D1*
X1868677Y887550D1*
X1862147Y895112D1*
X1856837Y903573D1*
X1852867Y912741D1*
X1850331Y922404D1*
X1849283Y932340D1*
X1849752Y942319D1*
X1851724Y952113D1*
X1855155Y961496D1*
X1859966Y970252D1*
X1866045Y978180D1*
X1873253Y985097D1*
X1881425Y990844D1*
X1890373Y995289D1*
X1899888Y998329D1*
X1908962Y999839D1*
X1904269Y1009047D1*
X1901076Y1018877D1*
X1899459Y1029084D1*
Y1039420D1*
X1901076Y1049627D1*
X1904269Y1059457D1*
X1908962Y1068665D1*
X1915037Y1077026D1*
X1922344Y1084333D1*
X1930705Y1090408D1*
X1939913Y1095101D1*
X1949743Y1098294D1*
X1959950Y1099911D1*
X1970286D1*
X1980493Y1098294D1*
X1990323Y1095101D1*
X1999531Y1090408D1*
X2007892Y1084333D1*
X2015104Y1077130D1*
X2022344Y1084333D1*
X2030705Y1090408D1*
X2039913Y1095101D1*
X2049743Y1098294D1*
X2059950Y1099911D1*
X2070286D1*
X2080493Y1098294D1*
X2090323Y1095101D1*
X2099531Y1090408D1*
X2107892Y1084333D1*
X2112388Y1080067D1*
X2109281Y1088950D1*
X2108139Y1096155D1*
Y1103451D1*
X2109281Y1110656D1*
X2111535Y1117594D1*
X2114848Y1124096D1*
X2119135Y1129997D1*
X2125000Y1135713D1*
X2124987Y1186139D1*
X2078273Y1136127D1*
X2073219Y1132487D1*
X2067457Y1130126D1*
X2061294Y1129177D1*
X1971562Y1128892D1*
X1965449Y1130084D1*
X1959783Y1132668D1*
X1954878Y1136505D1*
X1951003Y1141381D1*
X1948374Y1147025D1*
X1947135Y1153129D1*
X1946961Y1174678D1*
X1860068Y1174798D1*
X1852912Y1175932D1*
X1846020Y1178171D1*
X1839564Y1181461D1*
X1833702Y1185720D1*
X1778007Y1241214D1*
X1763850Y1255572D1*
X1759591Y1261434D1*
X1756301Y1267891D1*
X1754062Y1274782D1*
X1752928Y1281938D1*
X1752786Y1360562D1*
X1752928Y1470773D1*
X1754062Y1477929D1*
X1756301Y1484820D1*
X1759591Y1491277D1*
X1763850Y1497139D1*
X1784783Y1518273D1*
X1771961Y1518671D1*
X1765289Y1520552D1*
X1759240Y1523940D1*
X1755720Y1526945D1*
X1742148Y1540646D1*
X1738297Y1546409D1*
X1735898Y1552915D1*
X1735083Y1559799D1*
X1735173Y1980605D1*
X1736526Y1987406D1*
X1739429Y1993701D1*
X1743720Y1999146D1*
X1757421Y2012718D1*
X1763185Y2016570D1*
X1769690Y2018969D1*
X1776575Y2019783D1*
X1993948Y2019693D1*
X2000748Y2018340D1*
X2007043Y2015437D1*
X2012488Y2011146D1*
X2026060Y1997445D1*
X2029912Y1991681D1*
X2031685Y1987396D1*
X2033165Y1985786D1*
X2039594Y1989638D1*
X2046480Y1992597D1*
X2053698Y1994610D1*
X2061122Y1995642D1*
X2068615Y1995673D1*
X2076047Y1994705D1*
X2083283Y1992752D1*
X2090194Y1989852D1*
X2096655Y1986054D1*
X2102551Y1981429D1*
X2107778Y1976058D1*
X2112240Y1970037D1*
X2115102Y1965005D1*
X2119096Y1971722D1*
X2123773Y1977577D1*
X2129190Y1982756D1*
X2135251Y1987165D1*
X2141845Y1990726D1*
X2148856Y1993375D1*
X2156157Y1995064D1*
X2163618Y1995764D1*
X2171106Y1995461D1*
X2178488Y1994161D1*
X2185629Y1991888D1*
X2192403Y1988682D1*
X2198689Y1984601D1*
X2204373Y1979717D1*
X2209354Y1974118D1*
X2213545Y1967904D1*
X2216867Y1961186D1*
X2219264Y1954085D1*
X2220690Y1946728D1*
X2221068Y1937265D1*
X1818934Y1908108D2*
X1815192Y1914332D1*
X1811827Y1922453D1*
X1809776Y1931000D1*
X1809085Y1939764D1*
X1809776Y1948528D1*
X1811827Y1957075D1*
X1813201Y1960799D1*
X1794026D1*
X1794067Y1891719D1*
X1802028Y1894236D1*
X1810710Y1895610D1*
X1818933Y1895633D1*
X1818928Y1908075D1*
X1856194Y2182594D2*
X1853951Y2168433D1*
X1849521Y2154798D1*
X1843012Y2142022D1*
X1834584Y2130423D1*
X1824446Y2120285D1*
X1812846Y2111857D1*
X1800071Y2105348D1*
X1786436Y2100917D1*
X1772274Y2098675D1*
X1757936D1*
X1743774Y2100917D1*
X1730139Y2105348D1*
X1717364Y2111857D1*
X1705764Y2120285D1*
X1695626Y2130423D1*
X1687198Y2142022D1*
X1680689Y2154798D1*
X1676259Y2168433D1*
X1675203Y2173739D1*
X1672140Y2161529D1*
X1666654Y2148282D1*
X1659163Y2136056D1*
X1649850Y2125155D1*
X1638949Y2115843D1*
X1626723Y2108352D1*
X1613476Y2102865D1*
X1599535Y2099517D1*
X1585241Y2098392D1*
X1570948Y2099517D1*
X1557007Y2102865D1*
X1543760Y2108352D1*
X1531534Y2115843D1*
X1520633Y2125155D1*
X1511320Y2136056D1*
X1503829Y2148282D1*
X1498343Y2161529D1*
X1494995Y2175470D1*
X1493870Y2189764D1*
X1494995Y2204058D1*
X1498343Y2217999D1*
X1503829Y2231245D1*
X1511320Y2243471D1*
X1520633Y2254373D1*
X1531534Y2263685D1*
X1543760Y2271176D1*
X1557007Y2276663D1*
X1570948Y2280010D1*
X1585241Y2281135D1*
X1599535Y2280010D1*
X1613476Y2276663D1*
X1626723Y2271176D1*
X1638949Y2263685D1*
X1649850Y2254373D1*
X1659163Y2243471D1*
X1666654Y2231245D1*
X1672140Y2217999D1*
X1675143Y2205789D1*
X1678206Y2217999D1*
X1683693Y2231245D1*
X1691184Y2243471D1*
X1700496Y2254373D1*
X1711398Y2263685D1*
X1723623Y2271176D1*
X1736870Y2276663D1*
X1750811Y2280010D1*
X1765105Y2281135D1*
X1779399Y2280010D1*
X1793340Y2276663D1*
X1806587Y2271176D1*
X1818812Y2263685D1*
X1829714Y2254373D1*
X1839026Y2243471D1*
X1846517Y2231245D1*
X1852004Y2217999D1*
X1855352Y2204058D1*
X1856476Y2189764D1*
X1856194Y2182594D1*
X960593Y1937265D2*
X959760Y1929816D1*
X957938Y1922547D1*
X955163Y1915585D1*
X951483Y1909056D1*
X946966Y1903077D1*
X941689Y1897755D1*
X935751Y1893184D1*
X929255Y1889446D1*
X922318Y1886610D1*
X915064Y1884724D1*
X907623Y1883824D1*
X900130Y1883925D1*
X892717Y1885025D1*
X885517Y1887105D1*
X882839Y1888164D1*
X890180Y1883058D1*
X895642Y1877925D1*
X900367Y1872109D1*
X904277Y1865715D1*
X907297Y1858856D1*
X909373Y1851655D1*
X910470Y1844241D1*
X910427Y1834770D1*
X909261Y1827367D1*
X907117Y1820186D1*
X904034Y1813356D1*
X900067Y1806997D1*
X895286Y1801224D1*
X889778Y1796143D1*
X883642Y1791841D1*
X876986Y1788398D1*
X869929Y1785874D1*
X862598Y1784314D1*
X855126Y1783747D1*
X847643Y1784181D1*
X840287Y1785612D1*
X833186Y1788010D1*
X826471Y1791336D1*
X820259Y1795528D1*
X814661Y1800512D1*
X809780Y1806198D1*
X805701Y1812486D1*
X804543Y1814332D1*
X799951Y1806836D1*
X794241Y1800152D1*
X787558Y1794442D1*
X784114Y1792142D1*
X784122Y1386395D1*
X789983Y1380600D1*
X794270Y1374698D1*
X797583Y1368197D1*
X799837Y1361259D1*
X800979Y1354054D1*
Y1346757D1*
X799837Y1339552D1*
X797583Y1332614D1*
X794270Y1326113D1*
X789983Y1320211D1*
X784824Y1315052D1*
X778923Y1310765D1*
X772421Y1307453D1*
X765483Y1305198D1*
X758278Y1304056D1*
X750982D1*
X743777Y1305198D1*
X736839Y1307453D1*
X734131Y1308701D1*
X734138Y1093133D1*
X743358Y1087535D1*
X751218Y1080824D1*
X754631Y1077130D1*
X761871Y1084333D1*
X770232Y1090408D1*
X779441Y1095101D1*
X789270Y1098294D1*
X799478Y1099911D1*
X809814D1*
X820021Y1098294D1*
X829850Y1095101D1*
X839059Y1090408D1*
X847420Y1084333D1*
X854727Y1077026D1*
X860802Y1068665D1*
X865495Y1059457D1*
X868688Y1049627D1*
X870304Y1039420D1*
Y1029084D1*
X868688Y1018877D1*
X865495Y1009047D1*
X860802Y999839D1*
X854727Y991478D1*
X847420Y984171D1*
X839059Y978096D1*
X829850Y973403D1*
X820021Y970210D1*
X810802Y968665D1*
X815495Y959457D1*
X818688Y949627D1*
X820304Y939420D1*
Y929084D1*
X818688Y918877D1*
X815495Y909047D1*
X810802Y899839D1*
X804727Y891478D1*
X797420Y884171D1*
X789059Y878096D1*
X779850Y873403D1*
X770021Y870210D1*
X759814Y868593D1*
X749478D1*
X739270Y870210D1*
X729441Y873403D1*
X720232Y878096D1*
X711871Y884171D1*
X704660Y891374D1*
X698848Y885425D1*
X690954Y879302D1*
X682224Y874442D1*
X672861Y870959D1*
X663079Y868932D1*
X653102Y868408D1*
X643161Y869399D1*
X633484Y871882D1*
X624294Y875801D1*
X615802Y881063D1*
X608205Y887550D1*
X601675Y895112D1*
X596365Y903573D1*
X592395Y912741D1*
X589858Y922404D1*
X588811Y932340D1*
X589280Y942319D1*
X591252Y952113D1*
X594682Y961496D1*
X599493Y970252D1*
X605572Y978180D1*
X612781Y985097D1*
X620953Y990844D1*
X629900Y995289D1*
X639416Y998329D1*
X648490Y999839D1*
X643797Y1009047D1*
X640604Y1018877D1*
X638987Y1029084D1*
Y1039420D1*
X640604Y1049627D1*
X643797Y1059457D1*
X648490Y1068665D1*
X654564Y1077026D1*
X661871Y1084333D1*
X670232Y1090408D1*
X675167Y1093130D1*
X674953Y1307533D1*
X568369Y1414117D1*
X566117Y1407524D1*
X562407Y1400241D1*
X557602Y1393630D1*
X552093Y1388101D1*
X557602Y1382541D1*
X562407Y1375928D1*
X566117Y1368646D1*
X568643Y1360874D1*
X569921Y1352802D1*
Y1344629D1*
X568643Y1336556D1*
X566117Y1328783D1*
X562407Y1321501D1*
X559453Y1317236D1*
X564571Y1312609D1*
X571282Y1304751D1*
X576682Y1295938D1*
X580638Y1286391D1*
X583050Y1276341D1*
X583861Y1266038D1*
X583050Y1255735D1*
X580638Y1245685D1*
X576682Y1236136D1*
X571282Y1227325D1*
X564571Y1219466D1*
X556711Y1212755D1*
X547900Y1207354D1*
X538352Y1203399D1*
X528302Y1200987D1*
X517999Y1200176D1*
X507696Y1200987D1*
X497647Y1203399D1*
X488098Y1207354D1*
X479286Y1212755D1*
X471428Y1219466D1*
X464715Y1227325D1*
X459315Y1236136D1*
X455361Y1245685D1*
X452948Y1255735D1*
X452136Y1266038D1*
X452948Y1276341D1*
X455361Y1286391D1*
X459315Y1295938D1*
X464715Y1304751D1*
X471428Y1312609D1*
X476542Y1317157D1*
X471593Y1325070D1*
X468466Y1332621D1*
X466558Y1340567D1*
X465916Y1348715D1*
X466558Y1356862D1*
X468466Y1364810D1*
X471593Y1372360D1*
X475864Y1379328D1*
X481171Y1385543D1*
X483904Y1388070D1*
X478395Y1393630D1*
X473592Y1400241D1*
X469881Y1407524D1*
X467356Y1415297D1*
X466077Y1423369D1*
Y1431542D1*
X467356Y1439614D1*
X469881Y1447386D1*
X473592Y1454668D1*
X478395Y1461281D1*
X483904Y1466810D1*
X478395Y1472370D1*
X473592Y1478982D1*
X469881Y1486264D1*
X467356Y1494037D1*
X466077Y1502109D1*
Y1510282D1*
X467356Y1518354D1*
X469881Y1526126D1*
X473592Y1533408D1*
X476546Y1537675D1*
X471428Y1542301D1*
X464715Y1550160D1*
X459315Y1558971D1*
X455361Y1568520D1*
X452948Y1578570D1*
X452136Y1588873D1*
X452948Y1599176D1*
X455361Y1609226D1*
X459315Y1618773D1*
X464715Y1627585D1*
X471428Y1635444D1*
X479286Y1642156D1*
X488098Y1647556D1*
X497647Y1651512D1*
X507696Y1653924D1*
X517999Y1654735D1*
X528302Y1653924D1*
X538352Y1651512D1*
X547900Y1647556D1*
X556711Y1642156D1*
X564571Y1635444D1*
X571282Y1627585D1*
X576682Y1618773D1*
X580638Y1609226D1*
X583050Y1599176D1*
X583861Y1588873D1*
X583050Y1578570D1*
X580638Y1568520D1*
X576682Y1558971D1*
X571282Y1550160D1*
X564571Y1542301D1*
X559457Y1537752D1*
X564406Y1529840D1*
X567533Y1522290D1*
X569441Y1514343D1*
X570081Y1506196D1*
X569176Y1496717D1*
X708621Y1357282D1*
X710413Y1364773D1*
X713205Y1371513D1*
X717017Y1377732D1*
X721755Y1383281D1*
X725142Y1386315D1*
X725138Y1792154D1*
X718248Y1797167D1*
X712033Y1803382D1*
X706865Y1810493D1*
X704543Y1814332D1*
X699951Y1806836D1*
X694241Y1800152D1*
X687558Y1794442D1*
X680062Y1789850D1*
X671941Y1786486D1*
X663394Y1784434D1*
X654630Y1783744D1*
X645866Y1784434D1*
X637319Y1786486D1*
X629198Y1789850D1*
X621702Y1794442D1*
X615018Y1800152D1*
X609308Y1806836D1*
X604636Y1814503D1*
X599951Y1806836D1*
X594241Y1800152D1*
X587558Y1794442D1*
X580062Y1789850D1*
X571941Y1786486D1*
X563394Y1784434D1*
X554630Y1783744D1*
X545866Y1784434D1*
X537319Y1786486D1*
X529198Y1789850D1*
X521702Y1794442D1*
X515018Y1800152D1*
X509308Y1806836D1*
X504717Y1814332D1*
X501352Y1822453D1*
X499301Y1831000D1*
X498610Y1839764D1*
X499301Y1848528D1*
X501352Y1857075D1*
X504717Y1865196D1*
X509308Y1872692D1*
X515018Y1879375D1*
X521702Y1885085D1*
X529198Y1889677D1*
X537319Y1893042D1*
X544366Y1894795D1*
X551014Y1901453D1*
X545946Y1909864D1*
X541991Y1919411D1*
X539579Y1929461D1*
X538768Y1939764D1*
X538971Y1979022D1*
X540588Y1989230D1*
X543781Y1999059D1*
X548474Y2008268D1*
X554547Y2016629D1*
X584575Y2046942D1*
X632983Y2095063D1*
X641344Y2101138D1*
X650552Y2105831D1*
X660382Y2109024D1*
X670589Y2110640D1*
X713257Y2110844D1*
X908618D1*
X900923Y2115843D1*
X890021Y2125155D1*
X880709Y2136056D1*
X873218Y2148282D1*
X867731Y2161529D1*
X864383Y2175470D1*
X863259Y2189764D1*
X864383Y2204058D1*
X867731Y2217999D1*
X873218Y2231245D1*
X880709Y2243471D1*
X890021Y2254373D1*
X900923Y2263685D1*
X913148Y2271176D1*
X926395Y2276663D1*
X940336Y2280010D1*
X954630Y2281135D1*
X968924Y2280010D1*
X982865Y2276663D1*
X996112Y2271176D1*
X1008337Y2263685D1*
X1019239Y2254373D1*
X1028551Y2243471D1*
X1036042Y2231245D1*
X1041529Y2217999D1*
X1044877Y2204058D1*
X1044925Y2203640D1*
X1048343Y2217999D1*
X1053829Y2231245D1*
X1061320Y2243471D1*
X1070633Y2254373D1*
X1081534Y2263685D1*
X1093760Y2271176D1*
X1107007Y2276663D1*
X1120948Y2280010D1*
X1135241Y2281135D1*
X1149535Y2280010D1*
X1163476Y2276663D1*
X1176723Y2271176D1*
X1188949Y2263685D1*
X1199850Y2254373D1*
X1209163Y2243471D1*
X1216654Y2231245D1*
X1222140Y2217999D1*
X1225488Y2204058D1*
X1226613Y2189764D1*
X1225488Y2175470D1*
X1222140Y2161529D1*
X1216654Y2148282D1*
X1209163Y2136056D1*
X1199850Y2125155D1*
X1188949Y2115843D1*
X1176723Y2108352D1*
X1174051Y2107119D1*
X1182094Y2103665D1*
X1190907Y2098265D1*
X1198765Y2091552D1*
X1285324Y2004707D1*
X1291398Y1996346D1*
X1296091Y1987138D1*
X1297886Y1982266D1*
X1298860Y1982361D1*
X1305971Y1987529D1*
X1313803Y1991520D1*
X1322164Y1994236D1*
X1330846Y1995610D1*
X1339636D1*
X1348319Y1994236D1*
X1356680Y1991520D1*
X1364512Y1987529D1*
X1371623Y1982361D1*
X1377839Y1976146D1*
X1383007Y1969034D1*
X1385378Y1965294D1*
X1389232Y1971722D1*
X1393909Y1977577D1*
X1399327Y1982756D1*
X1405387Y1987165D1*
X1411982Y1990726D1*
X1418992Y1993375D1*
X1426294Y1995064D1*
X1433755Y1995764D1*
X1441243Y1995461D1*
X1448625Y1994161D1*
X1455765Y1991888D1*
X1462539Y1988682D1*
X1468825Y1984601D1*
X1474509Y1979717D1*
X1479491Y1974118D1*
X1483681Y1967904D1*
X1485378Y1965294D1*
X1489232Y1971722D1*
X1493909Y1977577D1*
X1499327Y1982756D1*
X1505387Y1987165D1*
X1511982Y1990726D1*
X1518992Y1993375D1*
X1526294Y1995064D1*
X1533755Y1995764D1*
X1541243Y1995461D1*
X1548625Y1994161D1*
X1555765Y1991888D1*
X1562539Y1988682D1*
X1568825Y1984601D1*
X1574509Y1979717D1*
X1579491Y1974118D1*
X1583681Y1967904D1*
X1587004Y1961186D1*
X1589400Y1954085D1*
X1590827Y1946728D1*
X1591205Y1937265D1*
X1590371Y1929816D1*
X1588550Y1922547D1*
X1585774Y1915585D1*
X1582094Y1909056D1*
X1577577Y1903077D1*
X1572301Y1897755D1*
X1566362Y1893184D1*
X1559866Y1889446D1*
X1552929Y1886610D1*
X1545676Y1884724D1*
X1538235Y1883824D1*
X1530741Y1883925D1*
X1523328Y1885025D1*
X1516129Y1887105D1*
X1513450Y1888164D1*
X1520791Y1883058D1*
X1526253Y1877925D1*
X1530979Y1872109D1*
X1534888Y1865715D1*
X1537908Y1858856D1*
X1539984Y1851655D1*
X1541081Y1844241D1*
X1541038Y1834770D1*
X1539873Y1827367D1*
X1537728Y1820186D1*
X1534646Y1813356D1*
X1530678Y1806997D1*
X1525898Y1801224D1*
X1520390Y1796143D1*
X1514253Y1791841D1*
X1507597Y1788398D1*
X1500541Y1785874D1*
X1493210Y1784314D1*
X1485738Y1783747D1*
X1478255Y1784181D1*
X1470899Y1785612D1*
X1463798Y1788010D1*
X1457083Y1791336D1*
X1450870Y1795528D1*
X1445273Y1800512D1*
X1440391Y1806198D1*
X1436312Y1812486D1*
X1435155Y1814332D1*
X1430563Y1806836D1*
X1424853Y1800152D1*
X1418169Y1794442D1*
X1410673Y1789850D1*
X1402552Y1786486D1*
X1394005Y1784434D1*
X1385241Y1783744D1*
X1376478Y1784434D1*
X1367930Y1786486D1*
X1359810Y1789850D1*
X1352314Y1794442D1*
X1345630Y1800152D1*
X1339920Y1806836D1*
X1335248Y1814503D1*
X1330563Y1806836D1*
X1324853Y1800152D1*
X1318169Y1794442D1*
X1310673Y1789850D1*
X1302552Y1786486D1*
X1294005Y1784434D1*
X1285241Y1783744D1*
X1276478Y1784434D1*
X1267930Y1786486D1*
X1259810Y1789850D1*
X1253585Y1793593D1*
X1216930Y1793587D1*
X1210673Y1789850D1*
X1202552Y1786486D1*
X1194005Y1784434D1*
X1185241Y1783744D1*
X1176478Y1784434D1*
X1167930Y1786486D1*
X1159810Y1789850D1*
X1152314Y1794442D1*
X1145630Y1800152D1*
X1139920Y1806836D1*
X1135328Y1814332D1*
X1131963Y1822453D1*
X1129912Y1831000D1*
X1129222Y1839764D1*
X1129912Y1848528D1*
X1131963Y1857075D1*
X1135328Y1865196D1*
X1139071Y1871420D1*
X1139206Y1893387D1*
X1140340Y1900543D1*
X1142579Y1907434D1*
X1145869Y1913891D1*
X1150129Y1919753D1*
X1167125Y1936951D1*
X1124899Y1979133D1*
X944528Y1979119D1*
X950367Y1972109D1*
X954277Y1965715D1*
X957297Y1958856D1*
X959373Y1951655D1*
X960470Y1944241D1*
X960593Y1937265D1*
X1044925Y2175887D2*
X1043476Y2168433D1*
X1039046Y2154798D1*
X1032537Y2142022D1*
X1024109Y2130423D1*
X1013971Y2120285D1*
X1002371Y2111857D1*
X1000757Y2110844D1*
X1089185D1*
X1081534Y2115843D1*
X1070633Y2125155D1*
X1061320Y2136056D1*
X1053829Y2148282D1*
X1048343Y2161529D1*
X1044995Y2175470D1*
X1044946Y2175887D1*
X969854Y677164D2*
X967634Y663143D1*
X963247Y649642D1*
X956802Y636993D1*
X948458Y625508D1*
X938420Y615470D1*
X926934Y607126D1*
X914286Y600681D1*
X900785Y596294D1*
X886764Y594073D1*
X872567D1*
X858546Y596294D1*
X845045Y600681D1*
X832396Y607126D1*
X820911Y615470D1*
X810873Y625508D1*
X802529Y636993D1*
X796084Y649642D1*
X791697Y663143D1*
X789476Y677164D1*
Y691361D1*
X791697Y705382D1*
X796084Y718883D1*
X802529Y731531D1*
X810873Y743017D1*
X820911Y753055D1*
X832396Y761399D1*
X845045Y767844D1*
X858546Y772231D1*
X872567Y774451D1*
X886764D1*
X900785Y772231D1*
X914286Y767844D1*
X926934Y761399D1*
X938420Y753055D1*
X948458Y743017D1*
X956802Y731531D1*
X963247Y718883D1*
X967634Y705382D1*
X969854Y691361D1*
Y677164D1*
X669854Y677163D2*
X667634Y663142D1*
X663247Y649640D1*
X656802Y636992D1*
X648458Y625507D1*
X638420Y615469D1*
X626934Y607125D1*
X614286Y600680D1*
X600785Y596293D1*
X586764Y594072D1*
X572567D1*
X558546Y596293D1*
X545045Y600680D1*
X532396Y607125D1*
X520911Y615469D1*
X510873Y625507D1*
X502529Y636992D1*
X496084Y649640D1*
X491697Y663142D1*
X489476Y677163D1*
Y691360D1*
X491697Y705381D1*
X496084Y718882D1*
X502529Y731530D1*
X510873Y743016D1*
X520911Y753054D1*
X532396Y761398D1*
X545045Y767843D1*
X558546Y772230D1*
X572567Y774450D1*
X586764D1*
X600785Y772230D1*
X614286Y767843D1*
X626934Y761398D1*
X638420Y753054D1*
X648458Y743016D1*
X656802Y731530D1*
X663247Y718882D1*
X667634Y705381D1*
X669854Y691360D1*
Y677163D1*
X2230327Y677164D2*
X2228106Y663143D1*
X2223719Y649642D1*
X2217274Y636993D1*
X2208930Y625508D1*
X2198892Y615470D1*
X2187407Y607126D1*
X2174759Y600681D1*
X2161257Y596294D1*
X2147236Y594073D1*
X2133039D1*
X2119018Y596294D1*
X2105517Y600681D1*
X2092869Y607126D1*
X2081383Y615470D1*
X2071345Y625508D1*
X2063001Y636993D1*
X2056556Y649642D1*
X2052169Y663143D1*
X2049949Y677164D1*
Y691361D1*
X2052169Y705382D1*
X2056556Y718883D1*
X2063001Y731531D1*
X2071345Y743017D1*
X2081383Y753055D1*
X2092869Y761399D1*
X2105517Y767844D1*
X2119018Y772231D1*
X2133039Y774451D1*
X2147236D1*
X2161257Y772231D1*
X2174759Y767844D1*
X2187407Y761399D1*
X2198892Y753055D1*
X2208930Y743017D1*
X2217274Y731531D1*
X2223719Y718883D1*
X2228106Y705382D1*
X2230327Y691361D1*
Y677164D1*
X1930327Y677163D2*
X1928106Y663142D1*
X1923719Y649640D1*
X1917274Y636992D1*
X1908930Y625507D1*
X1898892Y615469D1*
X1887407Y607125D1*
X1874759Y600680D1*
X1861257Y596293D1*
X1847236Y594072D1*
X1833039D1*
X1819018Y596293D1*
X1805517Y600680D1*
X1792869Y607125D1*
X1781383Y615469D1*
X1771345Y625507D1*
X1763001Y636992D1*
X1756556Y649640D1*
X1752169Y663142D1*
X1749949Y677163D1*
Y691360D1*
X1752169Y705381D1*
X1756556Y718882D1*
X1763001Y731530D1*
X1771345Y743016D1*
X1781383Y753054D1*
X1792869Y761398D1*
X1805517Y767843D1*
X1819018Y772230D1*
X1833039Y774450D1*
X1847236D1*
X1861257Y772230D1*
X1874759Y767843D1*
X1887407Y761398D1*
X1898892Y753054D1*
X1908930Y743016D1*
X1917274Y731530D1*
X1923719Y718882D1*
X1928106Y705381D1*
X1930327Y691360D1*
Y677163D1*
X1866923Y1282940D2*
X1866524Y1396829D1*
X1867713Y1402942D1*
X1870295Y1408609D1*
X1874130Y1413516D1*
X1879005Y1417392D1*
X1884650Y1420022D1*
X1890752Y1421264D1*
X1904816Y1421394D1*
X1898150Y1426110D1*
X1860580Y1463478D1*
X1845113Y1447995D1*
X1845140Y1304698D1*
X1866936Y1282894D1*
X2165105Y1995735D2*
D23*
Y1883793D1*
Y1939764D2*
X2221076D1*
X2115105Y1839764D2*
Y1783793D1*
Y1839764D2*
X2171076D1*
X2065105Y1995735D2*
Y1939764D1*
X904630D2*
Y1883793D1*
Y1939764D2*
X960601D1*
X854630Y1839764D2*
Y1783793D1*
Y1839764D2*
X910601D1*
X1535241Y1995735D2*
Y1883793D1*
Y1939764D2*
X1591213D1*
X1485241Y1839764D2*
Y1783793D1*
Y1839764D2*
X1541213D1*
X1435241Y1995735D2*
Y1939764D1*
X654646Y1000066D2*
Y868438D1*
X588832Y934252D2*
X654646D1*
X1915118Y1000066D2*
Y868438D1*
X1849304Y934252D2*
X1915118D1*
D38*
X2165105Y1939764D3*
X2115105Y1839764D3*
X2065105Y1939764D3*
X2015105Y1839764D3*
X1965105Y1939764D3*
X1915105Y1839764D3*
X1865105Y1939764D3*
X1815105Y1839764D3*
X904630Y1939764D3*
X854630Y1839764D3*
X804630Y1939764D3*
X754630Y1839764D3*
X704630Y1939764D3*
X654630Y1839764D3*
X604630Y1939764D3*
X554630Y1839764D3*
X1535241Y1939764D3*
X1485241Y1839764D3*
X1435241Y1939764D3*
X1385241Y1839764D3*
X1335241Y1939764D3*
X1285241Y1839764D3*
X1235241Y1939764D3*
X1185241Y1839764D3*
D39*
X517999Y1348715D3*
Y1427455D3*
Y1506196D3*
D15*
Y1266038D3*
Y1588873D3*
X654646Y934252D3*
X704646Y1034252D3*
X754646Y934252D3*
X804646Y1034252D3*
X1915118Y934252D3*
X1965118Y1034252D3*
X2015118Y934252D3*
X2065118Y1034252D3*
M02*
