G04 DipTrace 3.0.0.0*
G04 TopPaste.gbr*
%MOIN*%
G04 #@! TF.FileFunction,Paste,Top*
G04 #@! TF.Part,Single*
%ADD51R,0.027559X0.007874*%
%ADD53R,0.188976X0.114173*%
%ADD55R,0.055118X0.023622*%
%ADD57R,0.055118X0.094488*%
%ADD59R,0.019685X0.027559*%
%ADD61R,0.027559X0.019685*%
%ADD63R,0.027559X0.103543*%
%ADD65R,0.07874X0.103543*%
%ADD67R,0.137795X0.055118*%
%ADD69R,0.003937X0.007874*%
%ADD71R,0.007874X0.003937*%
%FSLAX26Y26*%
G04*
G70*
G90*
G75*
G01*
G04 TopPaste*
%LPD*%
D71*
X1867290Y1465192D3*
Y1439601D3*
Y1414010D3*
Y1388420D3*
Y1362829D3*
Y1337239D3*
Y1311648D3*
Y1286058D3*
D69*
X1897802Y1261451D3*
X1923392D3*
X1948983D3*
X1974573D3*
X2000164D3*
X2025755D3*
D71*
X2056266Y1286058D3*
Y1311648D3*
Y1337239D3*
Y1362829D3*
Y1388420D3*
Y1414010D3*
Y1439601D3*
Y1465192D3*
D69*
X2025755Y1489798D3*
X2000164D3*
X1974573D3*
X1948983D3*
X1923392D3*
X1897802D3*
D67*
X1961778Y1436648D3*
D65*
X1942093Y1335664D3*
D63*
X2016896D3*
D61*
X2108268Y1448608D3*
X2159449D3*
D59*
X1811024Y1464386D3*
Y1413205D3*
D61*
X1942913Y1221542D3*
X1994094D3*
X1942913Y1172110D3*
X1994094D3*
D59*
X2106299Y1547648D3*
Y1496467D3*
D61*
X1842285Y1677944D3*
X1791104D3*
D57*
X1528052Y1017591D3*
Y875858D3*
X1176543Y1017591D3*
Y875858D3*
X1352017Y1017591D3*
Y875858D3*
D55*
X2247618Y1452996D3*
Y1586854D3*
D53*
X1361888Y1662978D3*
Y1225970D3*
D51*
X940550Y1350403D3*
Y1375993D3*
Y1401584D3*
X853936D3*
Y1375993D3*
Y1350403D3*
D61*
X558228Y1740920D3*
X609409D3*
X1923228Y1623801D3*
X1974409D3*
Y1565378D3*
X1923228D3*
X2106299Y1597269D3*
X2055118D3*
X1841438Y1636012D3*
X1790257D3*
D59*
X1811024Y1528379D3*
Y1579560D3*
D61*
X1916841Y1744087D3*
X1968022D3*
D59*
X1003446Y1319129D3*
Y1370310D3*
X799274Y1436312D3*
Y1385131D3*
M02*
