M48
INCH
T01C0.0191
T02C0.032
T03C0.035
T04C0.0362
T05C0.0433
T06C0.0449
T07C0.0453
T08C0.0906
T09C0.128
%
T01
X+005300Y+004756
X+007085Y+010021
X+007002Y+011551
X+006476Y+012637
X+007633Y+013649
X+008315Y+014739
X+012930Y+014222
X+016137Y+014260
X+019056Y+014593
X+019056Y+015298
X+019684Y+014114
X+019715Y+011521
X+020702Y+011521
X+021994Y+012387
X+024297Y+011717
X+023108Y+008643
X+022453Y+007960
X+020668Y+008214
X+020240Y+009002
X+019641Y+010024
X+018855Y+010205
X+018833Y+009582
X+016559Y+010940
X+012902Y+010631
X+011975Y+006406
X+012593Y+006033
X+013082Y+005168
X+015281Y+005106
X+015795Y+005415
X+017788Y+005848
X+018956Y+006535
X+020838Y+006535
X+021535Y+005660
X+022700Y+017696
T02
X+022759Y+011081
X+022759Y+009181
T03
X+012427Y+013720
X+011427Y+013720
X+011927Y+012720
X+010927Y+012720
T04
X+017339Y+014511
X+017339Y+015298
X+018323Y+015298
X+018323Y+014511
T05
X+011503Y+004753
X+010503Y+004753
X+009503Y+004753
X+008503Y+004753
X+007503Y+004753
X+017159Y+005149
X+018159Y+005149
X+019159Y+005149
X+024029Y+004653
X+025029Y+004653
T06
X+018262Y+012074
X+019262Y+012074
X+020262Y+012074
X+020262Y+013074
X+019262Y+013074
X+018262Y+013074
T07
X+014190Y+007690
X+015690Y+007692
X+015690Y+009582
X+014190Y+009580
X+014190Y+011470
X+015690Y+011472
T08
X+020201Y+016365
X+015461Y+016365
T09
X+010177Y+016220
X+013177Y+016220
T00
M30
