G04 DipTrace 2.4.0.2*
%INBottomMask.gbr*%
%MOIN*%
%ADD44C,0.128*%
%ADD54C,0.056*%
%ADD56C,0.138*%
%ADD58C,0.071*%
%ADD60R,0.071X0.071*%
%ADD62C,0.0828*%
%ADD64R,0.1041X0.0525*%
%ADD66R,0.0671X0.0435*%
%ADD72C,0.0868*%
%ADD74C,0.1261*%
%ADD76R,0.0317X0.0868*%
%ADD78C,0.0769*%
%ADD80R,0.0769X0.0769*%
%ADD82C,0.075*%
%ADD84R,0.075X0.075*%
%ADD86R,0.0198X0.0631*%
%ADD92R,0.0789X0.071*%
%ADD94R,0.071X0.0789*%
%ADD96R,0.1498X0.0946*%
%ADD98R,0.056X0.096*%
%FSLAX44Y44*%
G04*
G70*
G90*
G75*
G01*
%LNBotMask*%
%LPD*%
D98*
X25307Y16336D3*
X24401D3*
X23496D3*
D96*
X24402Y18773D3*
D94*
X17289Y24135D3*
X16186D3*
X6440Y23945D3*
X5338D3*
X6252Y17634D3*
X5150D3*
D92*
X5190Y19571D3*
Y18469D3*
D94*
X6440Y24820D3*
X5338D3*
D92*
X7503Y16508D3*
Y17610D3*
X8764Y21144D3*
Y22246D3*
D94*
X7639Y27371D3*
X8741D3*
X5065Y22634D3*
X6167D3*
D86*
X24553Y23571D3*
X24297D3*
X24042D3*
X23786D3*
X23530D3*
X23274D3*
X23018D3*
X22762D3*
X22506D3*
X22250D3*
X21994D3*
X21738D3*
X21482D3*
X21227D3*
Y26642D3*
X21482D3*
X21738D3*
X21994D3*
X22250D3*
X22506D3*
X22762D3*
X23018D3*
X23274D3*
X23530D3*
X23786D3*
X24042D3*
X24297D3*
X24553D3*
D84*
X13850Y4536D3*
D82*
X12850D3*
D80*
X18262Y22704D3*
D78*
X19262D3*
X20262D3*
Y23704D3*
X19262D3*
X18262D3*
D76*
X5997Y21331D3*
X6500D3*
X7004D3*
X7508D3*
Y18772D3*
X7004D3*
X6500D3*
X5997D3*
X7309Y26018D3*
X7813D3*
X8317D3*
X8821D3*
Y23459D3*
X8317D3*
X7813D3*
X7309D3*
D74*
X14190Y18320D3*
Y20210D3*
Y22100D3*
X15690Y22102D3*
Y20212D3*
Y18322D3*
D84*
X23749Y4542D3*
D82*
X24749D3*
D84*
X25164Y13104D3*
D82*
Y14104D3*
Y15104D3*
D92*
X6514Y25769D3*
Y26871D3*
X5190Y20446D3*
Y21548D3*
X16187Y14104D3*
Y13001D3*
X15337Y14104D3*
Y13001D3*
X14472Y14104D3*
Y13001D3*
X13656Y14104D3*
Y13001D3*
X12770Y14104D3*
Y13001D3*
D72*
X12427Y24350D3*
X11927Y23350D3*
X11427Y24350D3*
X10927Y23350D3*
D44*
X10177Y26850D3*
X13177D3*
D66*
X15902Y16170D3*
Y14870D3*
X13973D3*
Y16170D3*
D64*
X17923Y13418D3*
Y14418D3*
Y15418D3*
Y16418D3*
Y17418D3*
Y18418D3*
Y19418D3*
Y20418D3*
Y21418D3*
X21309D3*
Y20418D3*
Y19418D3*
Y18418D3*
Y17418D3*
Y16418D3*
Y15418D3*
Y14418D3*
Y13418D3*
D62*
X19209Y5619D3*
X21709D3*
X24209D3*
Y12009D3*
X21709D3*
X19209D3*
X10673D3*
X8173D3*
X5673D3*
Y5619D3*
X8173D3*
X10673D3*
D60*
X17339Y25141D3*
D58*
X18323D3*
Y25928D3*
X17339D3*
D56*
X20201Y26995D3*
X15461D3*
D54*
X22759Y21711D3*
Y19811D3*
M02*
