G04 DipTrace 2.4.0.2*
%INTop.gbr*%
%MOIN*%
%ADD14C,0.006*%
%ADD15C,0.0394*%
%ADD16C,0.0787*%
%ADD17C,0.025*%
%ADD18C,0.0079*%
%ADD21R,0.063X0.0709*%
%ADD22R,0.0709X0.063*%
%ADD23R,0.1024X0.063*%
%ADD24R,0.0709X0.0661*%
%ADD26R,0.0669X0.0669*%
%ADD27C,0.0669*%
%ADD28R,0.0689X0.0689*%
%ADD29C,0.0689*%
%ADD31C,0.1181*%
%ADD33R,0.0669X0.0197*%
%ADD34R,0.0197X0.0669*%
%ADD35R,0.0591X0.0354*%
%ADD37C,0.0748*%
%ADD38R,0.063X0.063*%
%ADD39C,0.063*%
%ADD40C,0.1299*%
%ADD41C,0.048*%
%ADD42C,0.04*%
%FSLAX44Y44*%
G04*
G70*
G90*
G75*
G01*
%LNTop*%
%LPD*%
X18262Y22704D2*
D14*
X17808Y22251D1*
Y21676D1*
X17947Y21537D1*
X18526D1*
X18262Y23704D2*
X17765Y24201D1*
X17240D1*
X21940Y28448D2*
Y27370D1*
X22228D1*
X22773Y18773D2*
Y18371D1*
X23688D1*
X21282Y19726D2*
X20838D1*
Y20356D1*
X21282D1*
X17240Y24201D2*
Y22333D1*
X16869Y21963D1*
X16730Y22102D1*
X15690D1*
X11243Y18852D2*
X9575Y20520D1*
X5858D1*
X14190Y18320D2*
X11775D1*
X11243Y18852D1*
X15690Y22102D2*
X14890Y21301D1*
Y19019D1*
X14190Y18320D1*
X16869Y21963D2*
Y20989D1*
X23212Y26003D2*
X23555D1*
Y25409D1*
X22228Y27370D2*
Y26830D1*
X22367Y26691D1*
X23073D1*
X23212Y26552D1*
Y26003D1*
X21282Y20356D2*
X22207D1*
X16869Y20989D2*
X17332D1*
Y20810D1*
X17471Y20671D1*
X17975D1*
Y20986D2*
X17471D1*
Y23019D1*
X17610Y23158D1*
X18576D1*
X18715Y23296D1*
Y24525D1*
X18576Y24664D1*
X16700D1*
X16561Y24525D1*
Y22940D1*
X16422Y22801D1*
X7375D1*
X6912Y22338D1*
X18715Y23296D2*
Y22704D1*
X19262D1*
X18149Y21981D2*
X18841D1*
Y21537D1*
X20262Y22704D2*
X21268Y23710D1*
Y24081D1*
X21807Y24620D1*
X21946Y24481D1*
X23200D1*
Y24018D1*
X21807Y24620D2*
Y25544D1*
X22089D1*
X22228Y25683D1*
Y26268D1*
X20262Y19700D2*
X19786Y19224D1*
Y18230D1*
X24076Y24055D2*
Y24479D1*
X24932D1*
Y24027D1*
X23200Y24018D2*
Y24055D1*
X24076D1*
X22424Y15821D2*
Y15175D1*
X22226Y14977D1*
Y14669D1*
X24749Y4542D2*
X24306Y4986D1*
X22342D1*
X21709Y5619D1*
X20262Y23704D2*
X21129Y24571D1*
Y25081D1*
X17975Y19726D2*
X17493D1*
X17332Y19887D1*
X16869D1*
X20201Y26995D2*
X21067Y27861D1*
Y28448D1*
X14581Y16286D2*
X13931D1*
X21282Y19411D2*
X21725D1*
Y19550D1*
Y20041D1*
X21282D1*
X21563Y14669D2*
Y14713D1*
X21333Y14483D1*
X20758D1*
X20671Y14396D1*
X20059D1*
X19887Y14567D1*
Y14669D1*
X16137Y24834D2*
Y24201D1*
X19887Y14669D2*
X19091D1*
X20758Y14483D2*
X20724Y14669D1*
X22226D2*
X21563D1*
X19209Y5619D2*
X18588Y4998D1*
X6295D1*
X5673Y5619D1*
X21709D2*
X19209D1*
X15461Y26995D2*
X14190Y25725D1*
Y24201D1*
X20201Y26995D2*
X15461D1*
X21129Y25081D2*
X20340D1*
X20201Y25220D1*
Y26995D1*
X16869Y19887D2*
Y18461D1*
X16730Y18322D1*
X15690D1*
X21725Y19550D2*
X21864Y19411D1*
X23221D1*
X25307Y17280D2*
X25277Y17250D1*
Y16686D1*
X25153D1*
X25105Y18371D2*
Y17790D1*
X25307Y17589D1*
Y17280D1*
X25216Y19808D2*
X25105D1*
Y18371D1*
X25216Y21714D2*
Y19808D1*
X24972Y25409D2*
X25395D1*
Y22357D1*
X25216Y22177D1*
Y21714D1*
X24972Y24790D2*
Y25409D1*
X13931Y16286D2*
X12404D1*
X24113Y19808D2*
X23388D1*
X23385Y19811D1*
X22759D1*
Y20532D1*
X22620Y20671D1*
X21282D1*
X24076Y22953D2*
X24932D1*
Y22925D1*
Y22486D1*
X24856Y22410D1*
Y22338D1*
X22825Y24790D2*
Y24881D1*
X22625Y25081D1*
X22231D1*
X20268Y17617D2*
X20101Y17784D1*
Y18230D1*
X12956Y17074D2*
X18387D1*
X18526Y17213D1*
Y18230D1*
X20550Y19082D2*
X20416Y18948D1*
Y18230D1*
X23068Y20727D2*
X22810Y20986D1*
X21282D1*
X22759Y21711D2*
X23385D1*
X23388Y21714D1*
X24113D1*
X21994Y23017D2*
X22097Y23120D1*
Y24018D1*
X17975Y19096D2*
X17147D1*
X17008Y18957D1*
Y17661D1*
X16869Y17522D1*
X8392D1*
X8253Y17661D1*
Y19275D1*
X8317Y25161D2*
X4332Y21176D1*
Y17522D1*
X4471Y17383D1*
X17008D1*
X17147Y17522D1*
Y18642D1*
X17286Y18781D1*
X17975D1*
X13478Y7508D2*
X18899D1*
X22887Y11495D1*
Y16924D1*
X22424D1*
Y18943D1*
X22563Y19082D1*
X24398D1*
X24629Y19313D1*
Y22051D1*
X24504Y22176D1*
X20818D1*
X21013Y21981D1*
X20731D1*
Y21537D1*
X12817Y16595D2*
X18702D1*
X18841Y16734D1*
Y18230D1*
X18821Y19021D2*
X20416Y20616D1*
Y21537D1*
X13931Y15417D2*
Y14987D1*
X14537Y8735D2*
D16*
X18434D1*
X21709Y12009D1*
X11927Y15809D2*
D14*
X16390Y15811D1*
X11927Y23350D2*
D15*
Y23699D1*
X11277Y24350D1*
X11427D1*
X19887Y15771D2*
D14*
Y16371D1*
X20731Y17214D1*
Y18230D1*
X23735Y16686D2*
D15*
X23390D1*
Y14797D1*
X23601Y15007D1*
X23971D1*
X23390Y14797D2*
X23347Y14839D1*
Y13384D1*
X23462D1*
X23971Y15007D2*
X24248D1*
Y15104D1*
X25164D1*
X22578Y14104D2*
Y14063D1*
X21459D1*
X21004Y13608D1*
X16598D1*
X15860Y14346D1*
Y14987D1*
X25164Y14104D2*
X23867D1*
Y14086D1*
X15861Y15467D2*
X15361D1*
X14263Y14369D1*
X10922D1*
Y14425D1*
X15860Y14987D2*
Y15467D1*
X15861D1*
X21067Y29550D2*
D14*
Y29974D1*
X21940D1*
Y29550D1*
X17129Y15231D2*
X20724D1*
Y15771D1*
Y16262D1*
X21282Y16819D1*
Y18781D1*
Y19096D2*
X21725D1*
Y15771D1*
X21563D1*
Y15231D1*
X21424Y15092D1*
X18628D1*
X18489Y14953D1*
Y14370D1*
X18781Y14078D1*
X22078Y12722D2*
D15*
Y13384D1*
X22013D1*
X19821Y22151D2*
D14*
X19901D1*
X20101Y21951D1*
Y21537D1*
X19681Y20897D2*
X19786Y21002D1*
Y21537D1*
X19372Y20418D2*
Y21537D1*
X19471D1*
X19051Y20897D2*
X19156Y21002D1*
Y21537D1*
X13239Y22116D2*
X11408D1*
Y22101D1*
X19091Y15771D2*
Y17972D1*
X19156Y18036D1*
Y18230D1*
X17020Y14081D2*
X16745Y14356D1*
Y15632D1*
X16884Y15771D1*
X19091D1*
X10673Y5619D2*
D16*
X12402Y7348D1*
Y9011D1*
X15400Y12009D1*
X19209D1*
D42*
X14537Y8735D3*
X5858Y20520D3*
X22773Y18773D3*
X22207Y20356D3*
X11243Y18852D3*
X23212Y26003D3*
X6912Y22338D3*
X18149Y21981D3*
X20262Y19700D3*
X23221Y19411D3*
X16137Y24834D3*
X24972Y24790D3*
X14581Y16286D3*
X14190Y24201D3*
X22226Y14669D3*
X12404Y16286D3*
X25307Y17280D3*
X24856Y22338D3*
X22825Y24790D3*
X20268Y17617D3*
X12956Y17074D3*
X20550Y19082D3*
X23068Y20727D3*
X21994Y23017D3*
X8253Y19275D3*
X8317Y25161D3*
X13478Y7508D3*
X12817Y16595D3*
X18821Y19021D3*
X13931Y15417D3*
X9303Y10743D3*
X16390Y15811D3*
X11927Y15809D3*
X19887Y16371D3*
X23971Y15007D3*
X22578Y14104D3*
X23867Y14086D3*
X10922Y14425D3*
X15861Y15467D3*
X17129Y15231D3*
X18781Y14078D3*
X22078Y12722D3*
X19821Y22151D3*
X19681Y20897D3*
X19372Y20418D3*
X19051Y20897D3*
X17020Y14081D3*
X11408Y22101D3*
X13239Y22116D3*
X7098Y29687D2*
D17*
X20423D1*
X22582D2*
X22779D1*
X7098Y29438D2*
X20423D1*
X22582D2*
X22779D1*
X7098Y29189D2*
X20423D1*
X22582D2*
X22779D1*
X7098Y28940D2*
X20423D1*
X22582D2*
X22779D1*
X7098Y28692D2*
X20423D1*
X22582D2*
X22779D1*
X7098Y28443D2*
X20423D1*
X22582D2*
X22779D1*
X7098Y28194D2*
X20423D1*
X22582D2*
X22779D1*
X7098Y27946D2*
X20423D1*
X7098Y27697D2*
X9837D1*
X10520D2*
X12837D1*
X13520D2*
X14849D1*
X16071D2*
X19591D1*
X20813D2*
X21583D1*
X7098Y27448D2*
X9474D1*
X10879D2*
X12474D1*
X13879D2*
X14642D1*
X16282D2*
X19380D1*
X21020D2*
X21583D1*
X7098Y27200D2*
X9318D1*
X11036D2*
X12318D1*
X14036D2*
X14544D1*
X16375D2*
X19286D1*
X21118D2*
X21583D1*
X4350Y26951D2*
X9255D1*
X11102D2*
X12255D1*
X14102D2*
X14521D1*
X16399D2*
X19263D1*
X21141D2*
X21583D1*
X4350Y26702D2*
X9259D1*
X11094D2*
X12259D1*
X14094D2*
X14571D1*
X16352D2*
X19310D1*
X21090D2*
X21583D1*
X23493D2*
X25529D1*
X4350Y26454D2*
X9337D1*
X11016D2*
X12337D1*
X14016D2*
X14700D1*
X16223D2*
X17068D1*
X17610D2*
X18052D1*
X18594D2*
X19439D1*
X20961D2*
X21583D1*
X23532D2*
X25529D1*
X4350Y26205D2*
X9517D1*
X10836D2*
X12517D1*
X13836D2*
X14978D1*
X15946D2*
X16806D1*
X18856D2*
X19716D1*
X20684D2*
X21583D1*
X23793D2*
X25529D1*
X4350Y25956D2*
X10009D1*
X10344D2*
X13009D1*
X13344D2*
X16736D1*
X18926D2*
X21583D1*
X4350Y25708D2*
X16736D1*
X18883D2*
X21536D1*
X4350Y25459D2*
X7935D1*
X8700D2*
X16736D1*
X18832D2*
X20525D1*
X4350Y25210D2*
X7829D1*
X8805D2*
X16736D1*
X18922D2*
X20525D1*
X4350Y24961D2*
X7677D1*
X8762D2*
X11157D1*
X11696D2*
X12157D1*
X12696D2*
X16736D1*
X18899D2*
X20525D1*
X4350Y24713D2*
X7427D1*
X8465D2*
X10853D1*
X13000D2*
X15532D1*
X18969D2*
X20525D1*
X23407D2*
X23872D1*
X25137D2*
X25529D1*
X4350Y24464D2*
X7177D1*
X8063D2*
X10755D1*
X13102D2*
X15532D1*
X19036D2*
X20525D1*
X4350Y24215D2*
X6931D1*
X7813D2*
X10759D1*
X13098D2*
X15532D1*
X19618D2*
X19904D1*
X20618D2*
X20982D1*
X4350Y23967D2*
X6681D1*
X7567D2*
X10673D1*
X12989D2*
X15532D1*
X20836D2*
X20946D1*
X4350Y23718D2*
X6431D1*
X7317D2*
X10357D1*
X12637D2*
X15532D1*
X4350Y23469D2*
X6185D1*
X7067D2*
X10255D1*
X12598D2*
X16239D1*
X4350Y23221D2*
X5935D1*
X6821D2*
X10255D1*
X12598D2*
X16239D1*
X21219D2*
X21552D1*
X22438D2*
X23431D1*
X4350Y22972D2*
X5685D1*
X6571D2*
X7103D1*
X20973D2*
X21505D1*
X22481D2*
X23431D1*
X4350Y22723D2*
X5439D1*
X6321D2*
X6626D1*
X16786D2*
X16922D1*
X20895D2*
X21611D1*
X22379D2*
X23431D1*
X4350Y22475D2*
X5189D1*
X6075D2*
X6443D1*
X7493D2*
X11107D1*
X11711D2*
X12919D1*
X16485D2*
X16919D1*
X20852D2*
X23431D1*
X4350Y22226D2*
X4939D1*
X5825D2*
X6435D1*
X7387D2*
X10935D1*
X4350Y21977D2*
X4693D1*
X5575D2*
X6595D1*
X7231D2*
X10935D1*
X4350Y21729D2*
X4443D1*
X5329D2*
X11107D1*
X11711D2*
X12958D1*
X21192D2*
X22232D1*
X5079Y21480D2*
X13575D1*
X21118D2*
X22286D1*
X4829Y21231D2*
X14571D1*
X15262D2*
X16224D1*
X23000D2*
X23509D1*
X4653Y20982D2*
X5786D1*
X5930D2*
X13798D1*
X15211D2*
X15294D1*
X16086D2*
X16224D1*
X23481D2*
X24310D1*
X24950D2*
X25529D1*
X4653Y20734D2*
X5419D1*
X9801D2*
X13489D1*
X23559D2*
X24310D1*
X24950D2*
X25529D1*
X4653Y20485D2*
X5368D1*
X10051D2*
X13357D1*
X18598D2*
X18810D1*
X23489D2*
X24310D1*
X24950D2*
X25529D1*
X4653Y20236D2*
X5466D1*
X10301D2*
X13310D1*
X18598D2*
X18919D1*
X23079D2*
X23509D1*
X4653Y19988D2*
X9665D1*
X10551D2*
X13341D1*
X18598D2*
X19173D1*
X4653Y19739D2*
X9915D1*
X10797D2*
X13450D1*
X18598D2*
X19095D1*
X21907D2*
X22236D1*
X4653Y19490D2*
X7818D1*
X8692D2*
X10161D1*
X11047D2*
X13704D1*
X18598D2*
X18849D1*
X21907D2*
X22345D1*
X4653Y19242D2*
X7763D1*
X8743D2*
X10411D1*
X11520D2*
X14571D1*
X15211D2*
X16849D1*
X22008D2*
X22279D1*
X4653Y18993D2*
X7861D1*
X8649D2*
X10661D1*
X11711D2*
X13638D1*
X16246D2*
X16689D1*
X19309D2*
X19466D1*
X24750D2*
X25529D1*
X4653Y18744D2*
X7935D1*
X8575D2*
X10767D1*
X11793D2*
X13423D1*
X16457D2*
X16689D1*
X4653Y18496D2*
X7935D1*
X8575D2*
X10919D1*
X16551D2*
X16689D1*
X4653Y18247D2*
X7935D1*
X8575D2*
X11407D1*
X16567D2*
X16689D1*
X17465D2*
X18138D1*
X4653Y17998D2*
X7935D1*
X8575D2*
X13372D1*
X16508D2*
X16689D1*
X17465D2*
X18138D1*
X22743D2*
X22885D1*
X4653Y17750D2*
X7935D1*
X17465D2*
X18138D1*
X22743D2*
X25529D1*
X17465Y17501D2*
X18204D1*
X19411D2*
X19794D1*
X23067D2*
X25529D1*
X19411Y17252D2*
X19954D1*
X4350Y17003D2*
X12470D1*
X19411D2*
X20079D1*
X4350Y16755D2*
X12357D1*
X19411D2*
X19599D1*
X4350Y16506D2*
X12337D1*
X4350Y16257D2*
X11779D1*
X12075D2*
X12474D1*
X13161D2*
X13345D1*
X14516D2*
X15275D1*
X16543D2*
X18446D1*
X4350Y16009D2*
X11482D1*
X23875D2*
X25529D1*
X4350Y15760D2*
X11439D1*
X23875D2*
X25529D1*
X4350Y15511D2*
X11544D1*
X12309D2*
X13450D1*
X23875D2*
X24004D1*
X4350Y15263D2*
X13345D1*
X4350Y15014D2*
X13345D1*
X22207D2*
X22568D1*
X4350Y14765D2*
X10579D1*
X17063D2*
X18169D1*
X22207D2*
X22568D1*
X4350Y14517D2*
X10443D1*
X15090D2*
X15372D1*
X17207D2*
X18169D1*
X4350Y14268D2*
X10446D1*
X14840D2*
X15380D1*
X17469D2*
X18189D1*
X4350Y14019D2*
X10595D1*
X14590D2*
X15509D1*
X4350Y13771D2*
X15759D1*
X4350Y13522D2*
X16005D1*
X24106D2*
X24540D1*
X4350Y13273D2*
X16255D1*
X24106D2*
X24540D1*
X4350Y13024D2*
X21368D1*
X24106D2*
X24540D1*
X4350Y12776D2*
X21591D1*
X23207D2*
X24540D1*
X4350Y12527D2*
X5275D1*
X6071D2*
X7775D1*
X8571D2*
X10275D1*
X11071D2*
X14970D1*
X19641D2*
X21279D1*
X23207D2*
X23810D1*
X4350Y12278D2*
X5068D1*
X6278D2*
X7568D1*
X8778D2*
X10068D1*
X11278D2*
X14712D1*
X19836D2*
X21021D1*
X22336D2*
X22568D1*
X23207D2*
X23603D1*
X24813D2*
X25529D1*
X4350Y12030D2*
X5009D1*
X6336D2*
X7509D1*
X8836D2*
X10009D1*
X11336D2*
X14466D1*
X19891D2*
X20775D1*
X22391D2*
X22568D1*
X23207D2*
X23544D1*
X24871D2*
X25529D1*
X4350Y11781D2*
X5052D1*
X6293D2*
X7552D1*
X8793D2*
X10052D1*
X11293D2*
X14216D1*
X19852D2*
X20525D1*
X22352D2*
X22568D1*
X23207D2*
X23587D1*
X24829D2*
X25529D1*
X4350Y11532D2*
X5224D1*
X6125D2*
X7724D1*
X8625D2*
X10224D1*
X11125D2*
X13966D1*
X19688D2*
X20275D1*
X22188D2*
X22482D1*
X23207D2*
X23759D1*
X24661D2*
X25529D1*
X4350Y11284D2*
X13720D1*
X15629D2*
X20029D1*
X21938D2*
X22232D1*
X23118D2*
X25529D1*
X4350Y11035D2*
X8915D1*
X9688D2*
X13470D1*
X15383D2*
X19779D1*
X21692D2*
X21986D1*
X22868D2*
X25529D1*
X4350Y10786D2*
X8814D1*
X9789D2*
X13220D1*
X15133D2*
X19529D1*
X21442D2*
X21736D1*
X22621D2*
X25529D1*
X4350Y10538D2*
X8861D1*
X9746D2*
X12974D1*
X14883D2*
X19282D1*
X21192D2*
X21486D1*
X22371D2*
X25529D1*
X4350Y10289D2*
X9177D1*
X9432D2*
X12724D1*
X14637D2*
X19032D1*
X20946D2*
X21239D1*
X22121D2*
X25529D1*
X4350Y10040D2*
X12474D1*
X14387D2*
X18782D1*
X20696D2*
X20989D1*
X21875D2*
X25529D1*
X4350Y9792D2*
X12228D1*
X14137D2*
X18536D1*
X20446D2*
X20739D1*
X21625D2*
X25529D1*
X4350Y9543D2*
X11978D1*
X13891D2*
X18286D1*
X20200D2*
X20493D1*
X21375D2*
X25529D1*
X4350Y9294D2*
X11782D1*
X13641D2*
X14165D1*
X19950D2*
X20243D1*
X21129D2*
X25529D1*
X4350Y9045D2*
X11720D1*
X13391D2*
X13931D1*
X19700D2*
X19993D1*
X20879D2*
X25529D1*
X4350Y8797D2*
X11720D1*
X13145D2*
X13857D1*
X19454D2*
X19747D1*
X20629D2*
X25529D1*
X4350Y8548D2*
X11720D1*
X13086D2*
X13880D1*
X19204D2*
X19497D1*
X20383D2*
X25529D1*
X4350Y8299D2*
X11720D1*
X13086D2*
X14017D1*
X18954D2*
X19247D1*
X20133D2*
X25529D1*
X4350Y8051D2*
X11720D1*
X13086D2*
X19001D1*
X19883D2*
X25529D1*
X4350Y7802D2*
X11720D1*
X19637D2*
X25529D1*
X4350Y7553D2*
X11650D1*
X19387D2*
X25529D1*
X4350Y7305D2*
X11404D1*
X19137D2*
X25529D1*
X4350Y7056D2*
X11154D1*
X13016D2*
X13345D1*
X13614D2*
X25529D1*
X4350Y6807D2*
X10904D1*
X12817D2*
X25529D1*
X4350Y6559D2*
X10657D1*
X12571D2*
X25529D1*
X4350Y6310D2*
X10407D1*
X12321D2*
X25529D1*
X4350Y6061D2*
X5189D1*
X6161D2*
X7689D1*
X8661D2*
X10161D1*
X12071D2*
X18724D1*
X19696D2*
X21224D1*
X22196D2*
X23724D1*
X24696D2*
X25529D1*
X4350Y5813D2*
X5040D1*
X6309D2*
X7540D1*
X8809D2*
X10021D1*
X11825D2*
X18575D1*
X19844D2*
X21075D1*
X22344D2*
X23575D1*
X24844D2*
X25529D1*
X4350Y5564D2*
X5013D1*
X6336D2*
X7513D1*
X8836D2*
X9993D1*
X11575D2*
X18548D1*
X19871D2*
X21048D1*
X22371D2*
X23548D1*
X24871D2*
X25529D1*
X4350Y5315D2*
X5087D1*
X6262D2*
X7587D1*
X8762D2*
X10064D1*
X11325D2*
X18622D1*
X19797D2*
X21122D1*
X22297D2*
X23622D1*
X24797D2*
X25529D1*
X4350Y5066D2*
X5329D1*
X6020D2*
X7829D1*
X8520D2*
X10290D1*
X11055D2*
X12548D1*
X14473D2*
X18864D1*
X19555D2*
X21364D1*
X22055D2*
X23126D1*
X25067D2*
X25529D1*
X4350Y4818D2*
X12294D1*
X14473D2*
X23126D1*
X25305D2*
X25529D1*
X4350Y4569D2*
X12228D1*
X14473D2*
X23126D1*
X25371D2*
X25532D1*
X24338Y21095D2*
X23533D1*
Y21419D1*
X23170Y21416D1*
X23131Y21370D1*
X23036Y21289D1*
X22949Y21246D1*
X23021Y21192D1*
X23127Y21188D1*
X23248Y21156D1*
X23355Y21093D1*
X23442Y21004D1*
X23502Y20895D1*
X23533Y20727D1*
X23517Y20604D1*
X23468Y20489D1*
X23390Y20392D1*
X23289Y20318D1*
X23173Y20274D1*
X23053Y20263D1*
X23098Y20186D1*
X23166Y20107D1*
X23533Y20103D1*
Y20427D1*
X24334D1*
Y21098D1*
X25556Y21095D2*
X24924D1*
Y20430D1*
X25211Y20427D1*
X25555D1*
Y21095D1*
X25556Y19189D2*
X24896D1*
X24838Y19105D1*
X24686Y18953D1*
X25103Y18950D1*
X25556D1*
X25555Y19188D1*
X16940Y19307D2*
X16249D1*
Y19564D1*
X16136Y19482D1*
X16025Y19424D1*
X15907Y19384D1*
X15784Y19361D1*
X15659Y19357D1*
X15535Y19371D1*
X15414Y19402D1*
X15299Y19451D1*
X15183Y19524D1*
X15184Y19016D1*
X15299Y19083D1*
X15438Y19139D1*
X15584Y19171D1*
X15734Y19176D1*
X15882Y19156D1*
X16025Y19109D1*
X16157Y19039D1*
X16275Y18947D1*
X16375Y18835D1*
X16454Y18708D1*
X16509Y18569D1*
X16540Y18422D1*
X16544Y18272D1*
X16522Y18124D1*
X16475Y17982D1*
X16404Y17850D1*
X16381Y17817D1*
X16716D1*
X16713Y18536D1*
Y18957D1*
X16741Y19082D1*
X16799Y19166D1*
X16941Y19307D1*
X16249Y20858D2*
Y21452D1*
X16136Y21371D1*
X16025Y21314D1*
X15907Y21274D1*
X15784Y21251D1*
X15659Y21247D1*
X15535Y21260D1*
X15414Y21292D1*
X15331Y21327D1*
X15185Y21176D1*
Y20899D1*
X15299Y20973D1*
X15414Y21021D1*
X15535Y21053D1*
X15659Y21067D1*
X15784Y21062D1*
X15906Y21039D1*
X16025Y20999D1*
X16136Y20942D1*
X16251Y20856D1*
X24465Y17792D2*
X22911Y17791D1*
Y18076D1*
X22733Y18079D1*
X22719Y18068D1*
Y17502D1*
X23043Y17504D1*
Y17265D1*
X24512Y17262D1*
X24501Y17266D1*
X25555D1*
Y17790D1*
X24328Y17791D1*
X20574Y25700D2*
X21557D1*
X21608Y25813D1*
X21612Y26847D1*
X21608Y26790D1*
Y27872D1*
X21461Y27868D1*
X20487Y27864D1*
X20625Y27806D1*
X20751Y27726D1*
X20863Y27626D1*
X20957Y27510D1*
X21031Y27379D1*
X21083Y27238D1*
X21110Y27091D1*
X21114Y26945D1*
X21094Y26797D1*
X21049Y26654D1*
X20982Y26520D1*
X20894Y26399D1*
X20787Y26293D1*
X20665Y26207D1*
X20530Y26142D1*
X20386Y26100D1*
X20238Y26081D1*
X20088Y26088D1*
X19941Y26118D1*
X19801Y26173D1*
X19672Y26249D1*
X19558Y26345D1*
X19460Y26459D1*
X19383Y26587D1*
X19327Y26726D1*
X19295Y26873D1*
X19287Y27022D1*
X19304Y27171D1*
X19344Y27315D1*
X19408Y27451D1*
X19493Y27574D1*
X19597Y27682D1*
X19717Y27771D1*
X19851Y27840D1*
X19993Y27886D1*
X20141Y27908D1*
X20291Y27905D1*
X20448Y27876D1*
Y29935D1*
X7075D1*
Y27185D1*
X7014Y27080D1*
X6950Y27060D1*
X4325D1*
Y21588D1*
X7855Y25116D1*
X7854Y25200D1*
X7881Y25322D1*
X7939Y25432D1*
X8025Y25523D1*
X8132Y25587D1*
X8251Y25621D1*
X8376Y25622D1*
X8496Y25590D1*
X8604Y25527D1*
X8691Y25438D1*
X8751Y25328D1*
X8782Y25161D1*
X8765Y25038D1*
X8716Y24923D1*
X8639Y24825D1*
X8538Y24752D1*
X8422Y24708D1*
X8271Y24701D1*
X7819Y24245D1*
X4627Y21051D1*
Y17680D1*
X7721Y17678D1*
X7960D1*
X7958Y18915D1*
X7904Y18968D1*
X7835Y19071D1*
X7796Y19190D1*
X7790Y19314D1*
X7817Y19436D1*
X7876Y19546D1*
X7961Y19637D1*
X8068Y19701D1*
X8188Y19735D1*
X8312Y19736D1*
X8433Y19704D1*
X8540Y19641D1*
X8627Y19551D1*
X8687Y19442D1*
X8718Y19275D1*
X8702Y19151D1*
X8653Y19037D1*
X8575Y18939D1*
X8547Y18919D1*
X8548Y17818D1*
X13498Y17817D1*
X13444Y17901D1*
X13388Y18026D1*
X11775Y18025D1*
X11650Y18053D1*
X11566Y18111D1*
X11287Y18390D1*
X11223Y18388D1*
X11101Y18409D1*
X10988Y18463D1*
X10894Y18545D1*
X10825Y18649D1*
X10786Y18767D1*
X10781Y18895D1*
X9452Y20226D1*
X6220Y20225D1*
X6179Y20184D1*
X6079Y20111D1*
X5962Y20067D1*
X5838Y20055D1*
X5715Y20077D1*
X5603Y20131D1*
X5509Y20213D1*
X5440Y20316D1*
X5400Y20435D1*
X5394Y20559D1*
X5421Y20681D1*
X5480Y20791D1*
X5565Y20882D1*
X5672Y20946D1*
X5792Y20980D1*
X5917Y20981D1*
X6037Y20949D1*
X6144Y20886D1*
X6212Y20816D1*
X9575Y20815D1*
X9699Y20787D1*
X9784Y20729D1*
X11195Y19317D1*
X11302Y19313D1*
X11422Y19281D1*
X11530Y19218D1*
X11617Y19129D1*
X11677Y19019D1*
X11708Y18852D1*
X11702Y18810D1*
X11900Y18615D1*
X13388D1*
X13444Y18739D1*
X13513Y18843D1*
X13596Y18936D1*
X13692Y19016D1*
X13799Y19081D1*
X13914Y19130D1*
X14035Y19161D1*
X14159Y19175D1*
X14284Y19170D1*
X14406Y19148D1*
X14549Y19095D1*
X14595Y19144D1*
Y19453D1*
X14407Y19382D1*
X14284Y19360D1*
X14159Y19355D1*
X14035Y19369D1*
X13914Y19400D1*
X13799Y19449D1*
X13692Y19514D1*
X13596Y19594D1*
X13513Y19687D1*
X13444Y19791D1*
X13391Y19904D1*
X13355Y20024D1*
X13337Y20147D1*
Y20272D1*
X13355Y20396D1*
X13391Y20515D1*
X13444Y20628D1*
X13513Y20733D1*
X13596Y20826D1*
X13692Y20906D1*
X13799Y20971D1*
X13914Y21019D1*
X14035Y21051D1*
X14159Y21065D1*
X14284Y21060D1*
X14406Y21038D1*
X14525Y20997D1*
X14598Y20960D1*
X14595Y21305D1*
X14570Y21333D1*
X14431Y21279D1*
X14284Y21249D1*
X14134Y21246D1*
X13986Y21269D1*
X13844Y21317D1*
X13713Y21390D1*
X13596Y21484D1*
X13498Y21597D1*
X13436Y21695D1*
X13343Y21663D1*
X13219Y21651D1*
X13096Y21673D1*
X12984Y21727D1*
X12883Y21818D1*
X11864Y21821D1*
X11782D1*
X11730Y21765D1*
X11629Y21692D1*
X11513Y21648D1*
X11389Y21636D1*
X11266Y21658D1*
X11153Y21712D1*
X11059Y21794D1*
X10990Y21897D1*
X10951Y22016D1*
X10945Y22140D1*
X10972Y22262D1*
X11031Y22372D1*
X11116Y22462D1*
X11186Y22505D1*
X7496Y22506D1*
X7377Y22385D1*
X7361Y22215D1*
X7312Y22100D1*
X7234Y22003D1*
X7133Y21929D1*
X7017Y21885D1*
X6893Y21874D1*
X6770Y21896D1*
X6658Y21949D1*
X6563Y22031D1*
X6494Y22135D1*
X6455Y22253D1*
X6449Y22378D1*
X6476Y22499D1*
X6535Y22609D1*
X6620Y22700D1*
X6727Y22764D1*
X6847Y22798D1*
X6960Y22799D1*
X7167Y23010D1*
X7275Y23078D1*
X7375Y23096D1*
X10317D1*
X10272Y23281D1*
X10271Y23405D1*
X10293Y23528D1*
X10339Y23645D1*
X10405Y23750D1*
X10490Y23842D1*
X10590Y23916D1*
X10703Y23969D1*
X10867Y24003D1*
X10797Y24158D1*
X10772Y24281D1*
X10771Y24405D1*
X10793Y24528D1*
X10839Y24645D1*
X10905Y24750D1*
X10990Y24842D1*
X11090Y24916D1*
X11203Y24969D1*
X11324Y25000D1*
X11449Y25008D1*
X11572Y24992D1*
X11691Y24953D1*
X11800Y24893D1*
X11896Y24812D1*
X11928Y24773D1*
X11971Y24825D1*
X12069Y24902D1*
X12180Y24960D1*
X12300Y24996D1*
X12424Y25008D1*
X12548Y24997D1*
X12668Y24963D1*
X12779Y24906D1*
X12878Y24830D1*
X12961Y24736D1*
X13024Y24629D1*
X13066Y24511D1*
X13085Y24388D1*
X13078Y24250D1*
X13048Y24129D1*
X12995Y24016D1*
X12922Y23915D1*
X12831Y23829D1*
X12726Y23762D1*
X12610Y23717D1*
X12489Y23694D1*
X12534Y23606D1*
X12572Y23487D1*
X12586Y23350D1*
X12574Y23225D1*
X12534Y23095D1*
X16270Y23096D1*
X16266Y23584D1*
X15942Y23582D1*
X15557D1*
Y24820D1*
X16441Y24822D1*
X16491Y24873D1*
X16599Y24941D1*
X16700Y24959D1*
X16759D1*
Y25721D1*
X16794D1*
X16763Y25857D1*
X16761Y25982D1*
X16786Y26104D1*
X16836Y26218D1*
X16910Y26319D1*
X17003Y26401D1*
X17112Y26462D1*
X17232Y26498D1*
X17356Y26508D1*
X17480Y26491D1*
X17597Y26448D1*
X17702Y26380D1*
X17790Y26292D1*
X17831Y26234D1*
X17894Y26319D1*
X17988Y26401D1*
X18097Y26462D1*
X18216Y26498D1*
X18340Y26508D1*
X18464Y26491D1*
X18581Y26448D1*
X18686Y26380D1*
X18774Y26292D1*
X18842Y26187D1*
X18885Y26070D1*
X18903Y25928D1*
X18889Y25804D1*
X18850Y25686D1*
X18786Y25579D1*
X18746Y25536D1*
X18842Y25400D1*
X18885Y25283D1*
X18903Y25141D1*
X18889Y25017D1*
X18850Y24899D1*
X18816Y24842D1*
X18924Y24734D1*
X18992Y24626D1*
X19010Y24525D1*
Y24256D1*
X19141Y24301D1*
X19265Y24314D1*
X19389Y24300D1*
X19508Y24262D1*
X19616Y24200D1*
X19710Y24117D1*
X19759Y24052D1*
X19854Y24157D1*
X19955Y24231D1*
X20068Y24282D1*
X20190Y24309D1*
X20315Y24311D1*
X20437Y24288D1*
X20553Y24240D1*
X20656Y24169D1*
X20742Y24079D1*
X20808Y23974D1*
X20852Y23857D1*
X20871Y23729D1*
X20973Y23835D1*
Y24081D1*
X21001Y24205D1*
X21059Y24290D1*
X21233Y24464D1*
X20634Y24461D1*
X20549D1*
Y25700D1*
X20574D1*
X22677Y23403D2*
X22392Y23399D1*
Y23257D1*
X22428Y23184D1*
X22459Y23017D1*
X22443Y22893D1*
X22394Y22779D1*
X22316Y22681D1*
X22215Y22608D1*
X22099Y22564D1*
X21975Y22552D1*
X21852Y22574D1*
X21739Y22628D1*
X21645Y22710D1*
X21576Y22813D1*
X21537Y22932D1*
X21531Y23056D1*
X21558Y23178D1*
X21617Y23288D1*
X21702Y23379D1*
X21739Y23401D1*
X21517Y23399D1*
Y23551D1*
X21388Y23413D1*
X20849Y22874D1*
X20871Y22704D1*
X20858Y22580D1*
X20824Y22472D1*
X23454Y22471D1*
X23457Y23400D1*
X22620Y23399D1*
Y23403D1*
X23452Y24638D2*
X23780Y24634D1*
X23993Y24761D1*
X24076Y24774D1*
X24932D1*
X25053Y24748D1*
X25155Y24671D1*
X25177Y24642D1*
X25313Y24607D1*
X25551D1*
X25547Y23447D1*
X25555Y23450D1*
X25549Y24830D1*
X23289D1*
X23286Y24763D1*
X23321Y24750D1*
X23423Y24673D1*
X23445Y24644D1*
X23853Y25989D2*
X24332Y25985D1*
X24321Y25989D1*
X25556D1*
X25555Y26935D1*
X23242Y26933D1*
X23421Y26761D1*
X23489Y26653D1*
X23507Y26552D1*
Y26361D1*
X23592Y26296D1*
X23709Y26255D1*
X23799Y26170D1*
X23846Y26055D1*
X23850Y25991D1*
X23837Y26086D1*
X24512Y16107D2*
X23852Y16106D1*
Y15471D1*
X23989Y15486D1*
X24103Y15542D1*
X24231Y15565D1*
X24783Y15566D1*
X24854Y15617D1*
X24967Y15670D1*
X25089Y15699D1*
X25214Y15701D1*
X25336Y15678D1*
X25451Y15630D1*
X25557Y15556D1*
X25554Y16106D1*
X24376Y16107D1*
X24081Y13640D2*
Y12788D1*
X23179D1*
X23182Y11674D1*
Y11495D1*
X23154Y11371D1*
X23095Y11287D1*
X19108Y7299D1*
X19000Y7231D1*
X18899Y7213D1*
X13841D1*
X13699Y7099D1*
X13583Y7055D1*
X13458Y7043D1*
X13336Y7065D1*
X13223Y7119D1*
X13129Y7201D1*
X13059Y7308D1*
X13031Y7153D1*
X12983Y7037D1*
X12914Y6933D1*
X12426Y6440D1*
X11139Y5154D1*
X11043Y5074D1*
X10933Y5014D1*
X10815Y4976D1*
X10691Y4961D1*
X10566Y4969D1*
X10446Y5001D1*
X10333Y5055D1*
X10233Y5130D1*
X10148Y5222D1*
X10083Y5328D1*
X10038Y5445D1*
X10017Y5568D1*
X10019Y5692D1*
X10044Y5814D1*
X10093Y5930D1*
X10161Y6034D1*
X10650Y6527D1*
X11746Y7624D1*
X11743Y9011D1*
X11755Y9135D1*
X11790Y9255D1*
X11847Y9366D1*
X11936Y9477D1*
X14934Y12475D1*
X15030Y12554D1*
X15140Y12614D1*
X15259Y12652D1*
X15400Y12668D1*
X19209D1*
X19333Y12656D1*
X19453Y12621D1*
X19564Y12564D1*
X19662Y12487D1*
X19744Y12393D1*
X19807Y12285D1*
X19848Y12167D1*
X19866Y12044D1*
X19861Y11919D1*
X19832Y11797D1*
X19781Y11684D1*
X19710Y11581D1*
X19620Y11495D1*
X19515Y11426D1*
X19400Y11379D1*
X19278Y11354D1*
X18584Y11350D1*
X15674D1*
X13062Y8740D1*
X13061Y7710D1*
X13100Y7779D1*
X13186Y7870D1*
X13293Y7934D1*
X13412Y7968D1*
X13537Y7969D1*
X13657Y7937D1*
X13765Y7874D1*
X13833Y7804D1*
X18779Y7805D1*
X22592Y11620D1*
Y12788D1*
X22541Y12768D1*
X22526Y12598D1*
X22477Y12484D1*
X22400Y12386D1*
X22295Y12311D1*
X22344Y12184D1*
X22365Y12061D1*
X22363Y11936D1*
X22338Y11814D1*
X22290Y11699D1*
X22221Y11595D1*
X21732Y11101D1*
X18900Y8269D1*
X18804Y8189D1*
X18694Y8130D1*
X18575Y8091D1*
X18434Y8076D1*
X14537D1*
X14413Y8088D1*
X14293Y8123D1*
X14182Y8180D1*
X14083Y8257D1*
X14001Y8351D1*
X13939Y8459D1*
X13897Y8577D1*
X13879Y8700D1*
X13884Y8825D1*
X13913Y8946D1*
X13964Y9060D1*
X14036Y9162D1*
X14126Y9249D1*
X14230Y9317D1*
X14345Y9365D1*
X14468Y9390D1*
X15162Y9393D1*
X18158D1*
X19471Y10703D1*
X21243Y12475D1*
X21339Y12554D1*
X21449Y12614D1*
X21567Y12652D1*
X21618Y12658D1*
X21616Y12765D1*
X21507Y12788D1*
X21394D1*
Y13347D1*
X21331Y13281D1*
X21231Y13206D1*
X21079Y13152D1*
X20754Y13146D1*
X16598D1*
X16474Y13163D1*
X16329Y13233D1*
X16094Y13458D1*
X15534Y14019D1*
X15458Y14118D1*
X15405Y14270D1*
X15398Y14545D1*
X15300D1*
Y14752D1*
X14590Y14043D1*
X14490Y13967D1*
X14338Y13914D1*
X14013Y13907D1*
X10922D1*
X10798Y13924D1*
X10684Y13973D1*
X10587Y14051D1*
X10514Y14153D1*
X10467Y14287D1*
X10459Y14464D1*
X10486Y14586D1*
X10544Y14696D1*
X10630Y14786D1*
X10736Y14851D1*
X10856Y14885D1*
X10981Y14886D1*
X11101Y14854D1*
X11131Y14836D1*
X11422Y14831D1*
X13371D1*
Y15429D1*
X13468D1*
X13480Y15514D1*
X12284D1*
X12249Y15474D1*
X12148Y15400D1*
X12032Y15356D1*
X11908Y15345D1*
X11785Y15367D1*
X11673Y15420D1*
X11578Y15502D1*
X11509Y15606D1*
X11470Y15724D1*
X11464Y15849D1*
X11491Y15970D1*
X11550Y16080D1*
X11635Y16171D1*
X11742Y16235D1*
X11862Y16269D1*
X11986Y16270D1*
X12107Y16238D1*
X12214Y16175D1*
X12282Y16105D1*
X13369D1*
X13371Y16300D1*
X13174D1*
X13138Y16260D1*
X13038Y16186D1*
X12921Y16142D1*
X12797Y16131D1*
X12674Y16153D1*
X12562Y16206D1*
X12468Y16288D1*
X12399Y16392D1*
X12360Y16510D1*
X12353Y16635D1*
X12381Y16756D1*
X12439Y16866D1*
X12511Y16943D1*
X12499Y16989D1*
X12494Y17086D1*
X5383Y17088D1*
X4471D1*
X4347Y17116D1*
X4325Y17060D1*
Y4325D1*
X12290D1*
X12265Y4403D1*
X12250Y4527D1*
X12262Y4651D1*
X12298Y4770D1*
X12359Y4880D1*
X12441Y4974D1*
X12540Y5049D1*
X12653Y5102D1*
X12775Y5130D1*
X12899Y5133D1*
X13022Y5110D1*
X13137Y5062D1*
X13248Y4982D1*
X13250Y5135D1*
X14449D1*
X14450Y4325D1*
X23149D1*
Y5142D1*
X23786D1*
X23681Y5259D1*
X23621Y5369D1*
X23583Y5488D1*
X23570Y5612D1*
X23581Y5736D1*
X23615Y5856D1*
X23673Y5967D1*
X23750Y6065D1*
X23846Y6145D1*
X23955Y6206D1*
X24074Y6244D1*
X24198Y6258D1*
X24322Y6248D1*
X24442Y6214D1*
X24553Y6157D1*
X24651Y6080D1*
X24732Y5985D1*
X24794Y5876D1*
X24832Y5758D1*
X24848Y5619D1*
X24835Y5495D1*
X24799Y5376D1*
X24741Y5265D1*
X24662Y5169D1*
X24611Y5127D1*
X24749Y5142D1*
X24873Y5129D1*
X24992Y5091D1*
X25100Y5029D1*
X25193Y4946D1*
X25267Y4845D1*
X25318Y4731D1*
X25345Y4609D1*
X25347Y4492D1*
X25323Y4370D1*
X25308Y4325D1*
X25555D1*
Y12501D1*
X25014Y12504D1*
X24614Y12503D1*
X24702Y12415D1*
X24772Y12311D1*
X24820Y12196D1*
X24844Y12074D1*
X24846Y11959D1*
X24824Y11836D1*
X24778Y11720D1*
X24711Y11615D1*
X24625Y11525D1*
X24523Y11453D1*
X24409Y11402D1*
X24287Y11375D1*
X24162Y11372D1*
X24039Y11393D1*
X23923Y11438D1*
X23817Y11504D1*
X23726Y11590D1*
X23654Y11692D1*
X23603Y11805D1*
X23575Y11927D1*
X23571Y12052D1*
X23592Y12175D1*
X23636Y12292D1*
X23701Y12398D1*
X23787Y12489D1*
X23888Y12562D1*
X24002Y12613D1*
X24123Y12642D1*
X24248Y12647D1*
X24371Y12627D1*
X24488Y12584D1*
X24564Y12540D1*
Y13641D1*
X24082Y13642D1*
X22559Y29939D2*
X22555Y28971D1*
X22559Y29028D1*
Y27946D1*
X22808Y27950D1*
X22805Y29935D1*
X22559D1*
X16440Y22509D2*
X16491Y22396D1*
X16730Y22397D1*
X16854Y22368D1*
X16788Y22390D1*
X16925Y22436D1*
X16945Y22458D1*
X16944Y23582D1*
X16855D1*
X16856Y22940D1*
X16828Y22816D1*
X16770Y22731D1*
X16631Y22592D1*
X16523Y22524D1*
X16472Y22510D1*
X22019Y17504D2*
X22129D1*
Y18943D1*
X22157Y19068D1*
X22215Y19152D1*
X22354Y19291D1*
X22462Y19359D1*
X22451Y19412D1*
X22362Y19499D1*
X22298Y19606D1*
X22262Y19725D1*
X22256Y19850D1*
X22265Y19892D1*
X22187D1*
X22065Y19914D1*
X21952Y19967D1*
X21879Y20031D1*
X21881Y19678D1*
X21877Y19363D1*
X21881Y19460D1*
Y19346D1*
X21946Y19292D1*
X22007Y19180D1*
X22020Y19096D1*
Y17506D1*
X22592Y15242D2*
X22183D1*
X22178Y15191D1*
X22182Y15173D1*
Y14524D1*
X22392Y14530D1*
X22512Y14564D1*
X22547D1*
X22592Y14620D1*
Y15241D1*
X11073Y26725D2*
X11048Y26603D1*
X11005Y26485D1*
X10947Y26375D1*
X10874Y26273D1*
X10788Y26183D1*
X10691Y26105D1*
X10583Y26041D1*
X10468Y25993D1*
X10347Y25961D1*
X10223Y25946D1*
X10098Y25948D1*
X9975Y25968D1*
X9855Y26004D1*
X9742Y26056D1*
X9637Y26124D1*
X9542Y26205D1*
X9459Y26299D1*
X9390Y26403D1*
X9336Y26515D1*
X9298Y26634D1*
X9277Y26758D1*
X9273Y26882D1*
X9286Y27007D1*
X9316Y27128D1*
X9363Y27244D1*
X9425Y27352D1*
X9501Y27451D1*
X9591Y27538D1*
X9691Y27612D1*
X9801Y27672D1*
X9918Y27716D1*
X10039Y27744D1*
X10164Y27754D1*
X10289Y27747D1*
X10411Y27723D1*
X10529Y27683D1*
X10641Y27626D1*
X10743Y27555D1*
X10835Y27470D1*
X10914Y27374D1*
X10980Y27267D1*
X11029Y27153D1*
X11063Y27033D1*
X11082Y26850D1*
X11073Y26725D1*
X14073D2*
X14048Y26603D1*
X14005Y26485D1*
X13947Y26375D1*
X13874Y26273D1*
X13788Y26183D1*
X13691Y26105D1*
X13583Y26041D1*
X13468Y25993D1*
X13347Y25961D1*
X13223Y25946D1*
X13098Y25948D1*
X12975Y25968D1*
X12855Y26004D1*
X12742Y26056D1*
X12637Y26124D1*
X12542Y26205D1*
X12459Y26299D1*
X12390Y26403D1*
X12336Y26515D1*
X12298Y26634D1*
X12277Y26758D1*
X12273Y26882D1*
X12286Y27007D1*
X12316Y27128D1*
X12363Y27244D1*
X12425Y27352D1*
X12501Y27451D1*
X12591Y27538D1*
X12691Y27612D1*
X12801Y27672D1*
X12918Y27716D1*
X13039Y27744D1*
X13164Y27754D1*
X13289Y27747D1*
X13411Y27723D1*
X13529Y27683D1*
X13641Y27626D1*
X13743Y27555D1*
X13835Y27470D1*
X13914Y27374D1*
X13980Y27267D1*
X14029Y27153D1*
X14063Y27033D1*
X14082Y26850D1*
X14073Y26725D1*
X21092Y21349D2*
X21881D1*
Y21283D1*
X22497Y21281D1*
X22451Y21312D1*
X22362Y21399D1*
X22298Y21506D1*
X22262Y21625D1*
X22256Y21750D1*
X22286Y21883D1*
X21289Y21881D1*
X21274Y21843D1*
X21176Y21736D1*
X21094Y21637D1*
Y21352D1*
X18591Y20938D2*
X18588Y20936D1*
X18574Y20909D1*
X18570Y20308D1*
X18574Y19904D1*
X18570Y19678D1*
X18574Y19690D1*
Y19417D1*
X18636Y19448D1*
X18755Y19482D1*
X18868Y19483D1*
X19339Y19957D1*
X19230Y19976D1*
X19117Y20029D1*
X19023Y20111D1*
X18954Y20215D1*
X18915Y20333D1*
X18909Y20455D1*
X18796Y20508D1*
X18702Y20590D1*
X18633Y20694D1*
X18594Y20812D1*
X18588Y20936D1*
X18164Y18418D2*
X17442D1*
Y17522D1*
X17413Y17398D1*
X17456Y17369D1*
X18233D1*
X18231Y17631D1*
X18162D1*
Y18416D1*
X19242Y18830D2*
X19494D1*
X19491Y19224D1*
X19475Y19258D1*
X19285Y19068D1*
X19269Y18898D1*
X19240Y18830D1*
X19489D1*
X19807Y17631D2*
X19422D1*
X19385D1*
X19387Y16351D1*
X19420D1*
X19424Y16410D1*
X19451Y16532D1*
X19510Y16642D1*
X19595Y16733D1*
X19702Y16797D1*
X19822Y16831D1*
X19935Y16832D1*
X20250Y17151D1*
X20126Y17174D1*
X20013Y17228D1*
X19919Y17309D1*
X19850Y17413D1*
X19811Y17532D1*
X19806Y17629D1*
X19422Y17631D1*
X15300Y16106D2*
Y16301D1*
X14495Y16300D1*
X14491Y16129D1*
Y16104D1*
X15298Y16105D1*
X16375Y26970D2*
X16359Y26821D1*
X16318Y26677D1*
X16255Y26541D1*
X16170Y26418D1*
X16066Y26310D1*
X15946Y26220D1*
X15813Y26151D1*
X15670Y26105D1*
X15522Y26083D1*
X15373Y26085D1*
X15225Y26112D1*
X15084Y26162D1*
X14953Y26235D1*
X14836Y26328D1*
X14735Y26439D1*
X14654Y26565D1*
X14594Y26702D1*
X14558Y26848D1*
X14546Y26997D1*
X14559Y27147D1*
X14596Y27292D1*
X14656Y27429D1*
X14737Y27555D1*
X14838Y27665D1*
X14956Y27758D1*
X15087Y27830D1*
X15229Y27880D1*
X15376Y27906D1*
X15526Y27907D1*
X15674Y27885D1*
X15817Y27838D1*
X15949Y27768D1*
X16069Y27678D1*
X16172Y27570D1*
X16257Y27446D1*
X16320Y27310D1*
X16359Y27165D1*
X16375Y27016D1*
Y26970D1*
X20350Y16351D2*
X20446D1*
X20482Y16431D1*
X20692Y16647D1*
X20987Y16944D1*
Y17065D1*
X20939Y17005D1*
X20351Y16417D1*
X20350Y16352D1*
X20445Y16351D1*
X18472Y16191D2*
Y16304D1*
X18202Y16300D1*
X16417D1*
X16448Y16272D1*
X16569Y16240D1*
X16676Y16177D1*
X16763Y16087D1*
X16784Y16050D1*
X16884Y16066D1*
X18472D1*
Y16191D1*
X19847Y5594D2*
X19830Y5471D1*
X19789Y5353D1*
X19726Y5245D1*
X19644Y5151D1*
X19545Y5076D1*
X19432Y5021D1*
X19312Y4989D1*
X19187Y4981D1*
X19064Y4997D1*
X18945Y5037D1*
X18837Y5099D1*
X18743Y5182D1*
X18667Y5280D1*
X18611Y5392D1*
X18579Y5513D1*
X18570Y5637D1*
X18586Y5761D1*
X18625Y5879D1*
X18687Y5988D1*
X18768Y6082D1*
X18867Y6159D1*
X18978Y6215D1*
X19098Y6249D1*
X19223Y6258D1*
X19347Y6243D1*
X19465Y6204D1*
X19574Y6143D1*
X19669Y6062D1*
X19746Y5964D1*
X19803Y5853D1*
X19837Y5733D1*
X19848Y5619D1*
X19847Y5594D1*
X22347D2*
X22330Y5471D1*
X22289Y5353D1*
X22226Y5245D1*
X22144Y5151D1*
X22045Y5076D1*
X21932Y5021D1*
X21812Y4989D1*
X21687Y4981D1*
X21564Y4997D1*
X21445Y5037D1*
X21337Y5099D1*
X21243Y5182D1*
X21167Y5280D1*
X21111Y5392D1*
X21079Y5513D1*
X21070Y5637D1*
X21086Y5761D1*
X21125Y5879D1*
X21187Y5988D1*
X21268Y6082D1*
X21367Y6159D1*
X21478Y6215D1*
X21598Y6249D1*
X21723Y6258D1*
X21847Y6243D1*
X21965Y6204D1*
X22074Y6143D1*
X22169Y6062D1*
X22246Y5964D1*
X22303Y5853D1*
X22337Y5733D1*
X22348Y5619D1*
X22347Y5594D1*
X11300Y11885D2*
X11264Y11765D1*
X11205Y11655D1*
X11127Y11559D1*
X11030Y11479D1*
X10920Y11420D1*
X10801Y11383D1*
X10677Y11370D1*
X10553Y11382D1*
X10433Y11417D1*
X10323Y11475D1*
X10226Y11553D1*
X10145Y11649D1*
X10086Y11759D1*
X10048Y11878D1*
X10035Y12002D1*
X10045Y12126D1*
X10080Y12246D1*
X10137Y12357D1*
X10215Y12454D1*
X10311Y12535D1*
X10420Y12595D1*
X10539Y12634D1*
X10663Y12648D1*
X10787Y12638D1*
X10907Y12604D1*
X11018Y12547D1*
X11116Y12470D1*
X11197Y12375D1*
X11258Y12266D1*
X11297Y12148D1*
X11312Y12009D1*
X11300Y11885D1*
X8800D2*
X8764Y11765D1*
X8705Y11655D1*
X8627Y11559D1*
X8530Y11479D1*
X8420Y11420D1*
X8301Y11383D1*
X8177Y11370D1*
X8053Y11382D1*
X7933Y11417D1*
X7823Y11475D1*
X7726Y11553D1*
X7645Y11649D1*
X7586Y11759D1*
X7548Y11878D1*
X7535Y12002D1*
X7545Y12126D1*
X7580Y12246D1*
X7637Y12357D1*
X7715Y12454D1*
X7811Y12535D1*
X7920Y12595D1*
X8039Y12634D1*
X8163Y12648D1*
X8287Y12638D1*
X8407Y12604D1*
X8518Y12547D1*
X8616Y12470D1*
X8697Y12375D1*
X8758Y12266D1*
X8797Y12148D1*
X8812Y12009D1*
X8800Y11885D1*
X6300D2*
X6264Y11765D1*
X6205Y11655D1*
X6127Y11559D1*
X6030Y11479D1*
X5920Y11420D1*
X5801Y11383D1*
X5677Y11370D1*
X5553Y11382D1*
X5433Y11417D1*
X5323Y11475D1*
X5226Y11553D1*
X5145Y11649D1*
X5086Y11759D1*
X5048Y11878D1*
X5035Y12002D1*
X5045Y12126D1*
X5080Y12246D1*
X5137Y12357D1*
X5215Y12454D1*
X5311Y12535D1*
X5420Y12595D1*
X5539Y12634D1*
X5663Y12648D1*
X5787Y12638D1*
X5907Y12604D1*
X6018Y12547D1*
X6116Y12470D1*
X6197Y12375D1*
X6258Y12266D1*
X6297Y12148D1*
X6312Y12009D1*
X6300Y11885D1*
X6312Y5594D2*
X6295Y5471D1*
X6254Y5353D1*
X6191Y5245D1*
X6109Y5151D1*
X6009Y5076D1*
X5897Y5021D1*
X5777Y4989D1*
X5652Y4981D1*
X5528Y4997D1*
X5410Y5037D1*
X5302Y5099D1*
X5208Y5182D1*
X5132Y5280D1*
X5076Y5392D1*
X5043Y5513D1*
X5035Y5637D1*
X5050Y5761D1*
X5090Y5879D1*
X5151Y5988D1*
X5233Y6082D1*
X5331Y6159D1*
X5443Y6215D1*
X5563Y6249D1*
X5688Y6258D1*
X5811Y6243D1*
X5930Y6204D1*
X6039Y6143D1*
X6134Y6062D1*
X6211Y5964D1*
X6268Y5853D1*
X6302Y5733D1*
X6312Y5619D1*
Y5594D1*
X8800Y5495D2*
X8764Y5376D1*
X8705Y5265D1*
X8627Y5169D1*
X8530Y5089D1*
X8420Y5030D1*
X8301Y4993D1*
X8177Y4980D1*
X8053Y4992D1*
X7933Y5027D1*
X7823Y5085D1*
X7726Y5164D1*
X7645Y5259D1*
X7586Y5369D1*
X7548Y5488D1*
X7535Y5612D1*
X7545Y5736D1*
X7580Y5856D1*
X7637Y5967D1*
X7715Y6065D1*
X7811Y6145D1*
X7920Y6206D1*
X8039Y6244D1*
X8163Y6258D1*
X8287Y6248D1*
X8407Y6214D1*
X8518Y6157D1*
X8616Y6080D1*
X8697Y5985D1*
X8758Y5876D1*
X8797Y5758D1*
X8812Y5619D1*
X8800Y5495D1*
X9751Y10619D2*
X9702Y10504D1*
X9624Y10407D1*
X9524Y10334D1*
X9407Y10290D1*
X9283Y10278D1*
X9160Y10300D1*
X9048Y10354D1*
X8954Y10435D1*
X8885Y10539D1*
X8846Y10657D1*
X8840Y10782D1*
X8867Y10904D1*
X8925Y11014D1*
X9011Y11104D1*
X9117Y11169D1*
X9237Y11203D1*
X9362Y11204D1*
X9482Y11172D1*
X9590Y11108D1*
X9676Y11019D1*
X9737Y10910D1*
X9768Y10743D1*
X9751Y10619D1*
X17482Y14935D2*
X17451Y14896D1*
X17350Y14822D1*
X17234Y14778D1*
X17110Y14767D1*
X17037Y14780D1*
X17040Y14542D1*
X17079D1*
X17199Y14510D1*
X17307Y14447D1*
X17394Y14357D1*
X17454Y14248D1*
X17485Y14081D1*
X17483Y14069D1*
X18320Y14070D1*
X18319Y14121D1*
X18281Y14161D1*
X18213Y14269D1*
X18194Y14370D1*
Y14935D1*
X17486Y14936D1*
X11625Y22508D2*
X11695Y22467D1*
X11752Y22408D1*
X12533Y22411D1*
X12881D1*
X12947Y22477D1*
X12997Y22508D1*
X11637Y22506D1*
X25216Y21714D2*
D18*
Y21095D1*
Y20427D2*
Y19189D1*
X16869Y19887D2*
Y19307D1*
X25105Y18950D2*
Y17791D1*
X21129Y25699D2*
Y24462D1*
X20549Y25081D2*
X21129D1*
X16137Y24820D2*
Y23582D1*
X15558Y24201D2*
X16137D1*
X24972Y25989D2*
Y24830D1*
X25153Y17266D2*
Y16107D1*
X20262Y24313D2*
Y23704D1*
X20871D1*
X14190Y22100D2*
Y21245D1*
X15690Y19177D2*
Y18322D1*
X16545D1*
X24749Y5141D2*
Y4542D1*
X25348D1*
X22424Y15821D2*
Y15242D1*
X21067Y28448D2*
Y27869D1*
X20448Y28448D2*
X21067D1*
X12427Y25008D2*
Y23691D1*
Y24350D2*
X13085D1*
X21282Y19411D2*
X21881D1*
X21282Y20041D2*
X21881D1*
X17975Y19726D2*
X18574D1*
X13371Y16286D2*
X14491D1*
X17339Y26508D2*
Y25928D1*
X16759D2*
X17339D1*
X20201Y27909D2*
Y26081D1*
X19287Y26995D2*
X21115D1*
X15461Y27909D2*
Y26081D1*
X14547Y26995D2*
X16375D1*
X21563Y14669D2*
X22182D1*
X19209Y6258D2*
Y4981D1*
X18570Y5619D2*
X19847D1*
X21709Y6258D2*
Y4981D1*
X21070Y5619D2*
X22347D1*
X24209Y12648D2*
Y11371D1*
X23570Y12009D2*
X24847D1*
X5673Y6258D2*
Y4981D1*
X5035Y5619D2*
X6312D1*
D21*
X24113Y21714D3*
X25216D3*
X24113Y19808D3*
X25216D3*
D22*
X16869Y19887D3*
Y20989D3*
D23*
X23688Y18371D3*
X25105D3*
D21*
X22231Y25081D3*
X21129D3*
X22097Y24018D3*
X23200D3*
D22*
X24076Y22953D3*
Y24055D3*
D21*
X16137Y24201D3*
X17240D3*
D23*
X23555Y25409D3*
X24972D3*
X23735Y16686D3*
X25153D3*
D24*
X23462Y13384D3*
X22013D3*
D22*
X21940Y29550D3*
Y28448D3*
D26*
X13850Y4536D3*
D27*
X12850D3*
D28*
X18262Y22704D3*
D29*
X19262D3*
X20262D3*
Y23704D3*
X19262D3*
X18262D3*
D31*
X14190Y18320D3*
Y20210D3*
Y22100D3*
X15690Y22102D3*
Y20212D3*
Y18322D3*
D26*
X23749Y4542D3*
D27*
X24749D3*
D26*
X25164Y13104D3*
D27*
Y14104D3*
Y15104D3*
D22*
X24932Y22925D3*
Y24027D3*
X22424Y16924D3*
Y15821D3*
X21067Y29550D3*
Y28448D3*
X19887Y15771D3*
Y14669D3*
X20724Y15771D3*
Y14669D3*
X21563Y15771D3*
Y14669D3*
X22228Y26268D3*
Y27370D3*
X19091Y15771D3*
Y14669D3*
D16*
X12427Y24350D3*
X11927Y23350D3*
X11427Y24350D3*
X10927Y23350D3*
D33*
X21282Y18781D3*
Y19096D3*
Y19411D3*
Y19726D3*
Y20041D3*
Y20356D3*
Y20671D3*
Y20986D3*
D34*
X20731Y21537D3*
X20416D3*
X20101D3*
X19786D3*
X19471D3*
X19156D3*
X18841D3*
X18526D3*
D33*
X17975Y20986D3*
Y20671D3*
Y20356D3*
Y20041D3*
Y19726D3*
Y19411D3*
Y19096D3*
Y18781D3*
D34*
X18526Y18230D3*
X18841D3*
X19156D3*
X19471D3*
X19786D3*
X20101D3*
X20416D3*
X20731D3*
D35*
X15860Y14987D3*
Y16286D3*
X13931D3*
Y14987D3*
D37*
X19209Y5619D3*
X21709D3*
X24209D3*
Y12009D3*
X21709D3*
X19209D3*
X10673D3*
X8173D3*
X5673D3*
Y5619D3*
X8173D3*
X10673D3*
D38*
X17339Y25141D3*
D39*
X18323D3*
Y25928D3*
X17339D3*
D40*
X20201Y26995D3*
X15461D3*
D41*
X22759Y21711D3*
Y19811D3*
M02*
