G04 DipTrace 2.4.0.2*
%INTopAssy.gbr*%
%MOIN*%
%ADD10C,0.0098*%
%ADD12C,0.003*%
%ADD102C,0.0046*%
%FSLAX44Y44*%
G04*
G70*
G90*
G75*
G01*
%LNTopAssy*%
%LPD*%
X14744Y3937D2*
D10*
X11956D1*
X22855Y5141D2*
X25643D1*
X20587Y31051D2*
X15075D1*
X14334Y3603D2*
D12*
Y3804D1*
X14248D1*
X14220Y3795D1*
X14210Y3785D1*
X14201Y3766D1*
Y3737D1*
X14210Y3718D1*
X14220Y3709D1*
X14248Y3699D1*
X14220Y3689D1*
X14210Y3680D1*
X14201Y3661D1*
Y3642D1*
X14210Y3623D1*
X14220Y3613D1*
X14248Y3603D1*
X14334D1*
Y3699D2*
X14248D1*
X14081Y3603D2*
X14101Y3613D1*
X14120Y3632D1*
X14129Y3651D1*
X14139Y3680D1*
Y3728D1*
X14129Y3756D1*
X14120Y3776D1*
X14101Y3795D1*
X14081Y3804D1*
X14043D1*
X14024Y3795D1*
X14005Y3776D1*
X13995Y3756D1*
X13986Y3728D1*
Y3680D1*
X13995Y3651D1*
X14005Y3632D1*
X14024Y3613D1*
X14043Y3603D1*
X14081D1*
X13771Y3804D2*
X13848Y3603D1*
X13924Y3804D1*
X13895Y3737D2*
X13800D1*
X13709Y3699D2*
X13623D1*
X13594Y3689D1*
X13585Y3680D1*
X13575Y3661D1*
Y3642D1*
X13585Y3623D1*
X13594Y3613D1*
X13623Y3603D1*
X13709D1*
Y3804D1*
X13642Y3699D2*
X13575Y3804D1*
X13513Y3603D2*
Y3804D1*
X13446D1*
X13418Y3795D1*
X13398Y3776D1*
X13389Y3756D1*
X13379Y3728D1*
Y3680D1*
X13389Y3651D1*
X13398Y3632D1*
X13418Y3613D1*
X13446Y3603D1*
X13513D1*
X12999D2*
X13123D1*
Y3804D1*
X12999D1*
X13123Y3699D2*
X13047D1*
X12937Y3603D2*
Y3804D1*
X12870D1*
X12841Y3795D1*
X12822Y3776D1*
X12813Y3756D1*
X12803Y3728D1*
Y3680D1*
X12813Y3651D1*
X12822Y3632D1*
X12841Y3613D1*
X12870Y3603D1*
X12937D1*
X12598Y3651D2*
X12607Y3632D1*
X12627Y3613D1*
X12646Y3603D1*
X12684D1*
X12703Y3613D1*
X12722Y3632D1*
X12732Y3651D1*
X12741Y3680D1*
Y3728D1*
X12732Y3756D1*
X12722Y3776D1*
X12703Y3795D1*
X12684Y3804D1*
X12646D1*
X12627Y3795D1*
X12607Y3776D1*
X12598Y3756D1*
Y3728D1*
X12646D1*
X12412Y3603D2*
X12536D1*
Y3804D1*
X12412D1*
X12536Y3699D2*
X12460D1*
X23264Y5475D2*
Y5274D1*
X23351D1*
X23379Y5283D1*
X23389Y5293D1*
X23398Y5312D1*
Y5341D1*
X23389Y5360D1*
X23379Y5369D1*
X23351Y5379D1*
X23379Y5389D1*
X23389Y5398D1*
X23398Y5417D1*
Y5436D1*
X23389Y5455D1*
X23379Y5465D1*
X23351Y5475D1*
X23264D1*
Y5379D2*
X23351D1*
X23518Y5475D2*
X23498Y5465D1*
X23479Y5446D1*
X23470Y5427D1*
X23460Y5398D1*
Y5350D1*
X23470Y5322D1*
X23479Y5302D1*
X23498Y5283D1*
X23518Y5274D1*
X23556D1*
X23575Y5283D1*
X23594Y5302D1*
X23604Y5322D1*
X23613Y5350D1*
Y5398D1*
X23604Y5427D1*
X23594Y5446D1*
X23575Y5465D1*
X23556Y5475D1*
X23518D1*
X23828Y5274D2*
X23751Y5475D1*
X23675Y5274D1*
X23704Y5341D2*
X23799D1*
X23890Y5379D2*
X23976D1*
X24005Y5389D1*
X24014Y5398D1*
X24024Y5417D1*
Y5436D1*
X24014Y5455D1*
X24005Y5465D1*
X23976Y5475D1*
X23890D1*
Y5274D1*
X23957Y5379D2*
X24024Y5274D1*
X24086Y5475D2*
Y5274D1*
X24153D1*
X24181Y5283D1*
X24201Y5302D1*
X24210Y5322D1*
X24220Y5350D1*
Y5398D1*
X24210Y5427D1*
X24201Y5446D1*
X24181Y5465D1*
X24153Y5475D1*
X24086D1*
X24600D2*
X24476D1*
Y5274D1*
X24600D1*
X24476Y5379D2*
X24552D1*
X24662Y5475D2*
Y5274D1*
X24729D1*
X24757Y5283D1*
X24777Y5302D1*
X24786Y5322D1*
X24796Y5350D1*
Y5398D1*
X24786Y5427D1*
X24777Y5446D1*
X24757Y5465D1*
X24729Y5475D1*
X24662D1*
X25001Y5427D2*
X24991Y5446D1*
X24972Y5465D1*
X24953Y5475D1*
X24915D1*
X24896Y5465D1*
X24877Y5446D1*
X24867Y5427D1*
X24857Y5398D1*
Y5350D1*
X24867Y5322D1*
X24877Y5302D1*
X24896Y5283D1*
X24915Y5274D1*
X24953D1*
X24972Y5283D1*
X24991Y5302D1*
X25001Y5322D1*
Y5350D1*
X24953D1*
X25187Y5475D2*
X25063D1*
Y5274D1*
X25187D1*
X25063Y5379D2*
X25139D1*
X17267Y30669D2*
D102*
X17454D1*
Y30970D1*
X17267D1*
X17454Y30813D2*
X17339D1*
X17175Y30669D2*
Y30970D1*
X17074D1*
X17031Y30956D1*
X17002Y30927D1*
X16988Y30899D1*
X16974Y30856D1*
Y30784D1*
X16988Y30741D1*
X17002Y30712D1*
X17031Y30683D1*
X17074Y30669D1*
X17175D1*
X16666Y30741D2*
X16680Y30712D1*
X16709Y30683D1*
X16738Y30669D1*
X16795D1*
X16824Y30683D1*
X16852Y30712D1*
X16867Y30741D1*
X16881Y30784D1*
Y30856D1*
X16867Y30899D1*
X16852Y30927D1*
X16824Y30956D1*
X16795Y30970D1*
X16738D1*
X16709Y30956D1*
X16680Y30927D1*
X16666Y30899D1*
Y30856D1*
X16738D1*
X16387Y30669D2*
X16573D1*
Y30970D1*
X16387D1*
X16573Y30813D2*
X16459D1*
X19245Y30673D2*
Y30974D1*
X19116D1*
X19073Y30960D1*
X19058Y30945D1*
X19044Y30917D1*
Y30874D1*
X19058Y30845D1*
X19073Y30831D1*
X19116Y30816D1*
X19073Y30802D1*
X19058Y30788D1*
X19044Y30759D1*
Y30730D1*
X19058Y30702D1*
X19073Y30687D1*
X19116Y30673D1*
X19245D1*
Y30816D2*
X19116D1*
X18865Y30673D2*
X18894Y30687D1*
X18923Y30716D1*
X18937Y30744D1*
X18952Y30788D1*
Y30860D1*
X18937Y30902D1*
X18923Y30931D1*
X18894Y30960D1*
X18865Y30974D1*
X18808D1*
X18779Y30960D1*
X18751Y30931D1*
X18736Y30902D1*
X18722Y30860D1*
Y30788D1*
X18736Y30744D1*
X18751Y30716D1*
X18779Y30687D1*
X18808Y30673D1*
X18865D1*
X18400Y30974D2*
X18515Y30673D1*
X18629Y30974D1*
X18586Y30874D2*
X18443D1*
X18307Y30816D2*
X18178D1*
X18135Y30802D1*
X18120Y30788D1*
X18106Y30759D1*
Y30730D1*
X18120Y30702D1*
X18135Y30687D1*
X18178Y30673D1*
X18307D1*
Y30974D1*
X18206Y30816D2*
X18106Y30974D1*
X18013Y30673D2*
Y30974D1*
X17913D1*
X17870Y30960D1*
X17841Y30931D1*
X17827Y30902D1*
X17812Y30860D1*
Y30788D1*
X17827Y30744D1*
X17841Y30716D1*
X17870Y30687D1*
X17913Y30673D1*
X18013D1*
M02*
