; NON-PLATED HOLES START AT T1
; THROUGH (PLATED) HOLES START AT T100
M48
INCH
T1C0.086614
T100C0.031496
T101C0.015748
T102C0.038000
T103C0.031555
T104C0.036000
T105C0.035000
T106C0.042000
T107C0.040000
T108C0.090000
%
T1
X000844Y000836
X018769Y012875
X000830Y012871
X018828Y000773
T100
X014459Y003184
T101
X012548Y010517
X005354Y011236
X015339Y004367
X008548Y011524
X012543Y011158
X006637Y010502
X011344Y013364
T102
X008179Y005428
X007179Y005428
X004179Y005428
X006179Y005428
X005179Y005428
T103
X012528Y003184
T104
X002712Y006511
X001932Y006511
X002712Y007495
X001932Y007495
T105
X009553Y009590
X007553Y006590
X014553Y009590
X012553Y006590
X008553Y009590
X006553Y006590
X015553Y009590
X004553Y006590
X013553Y009590
X011553Y006590
X017553Y006590
X007553Y009590
X005553Y006590
X012553Y009590
X010553Y006590
X016553Y006590
X006553Y009590
X009553Y006590
X014553Y006590
X004553Y009590
X008553Y006590
X011553Y009590
X017553Y009590
X015553Y006590
X005553Y009590
X010553Y009590
X016553Y009590
X013553Y006590
T106
X002823Y010517
X002823Y011517
X002823Y012517
T107
X018649Y003589
X018799Y009695
X018799Y010695
X018799Y007695
X017079Y000985
X015979Y000985
X018749Y002589
X018799Y006695
X018799Y005695
X018749Y004589
X018799Y008695
T108
X000862Y004633
X000862Y009373
T00
M30
