G04 MADE WITH FRITZING*
G04 WWW.FRITZING.ORG*
G04 DOUBLE SIDED*
G04 HOLES PLATED*
G04 CONTOUR ON CENTER OF CONTOUR VECTOR*
%ASAXBY*%
%FSLAX23Y23*%
%MOIN*%
%OFA0B0*%
%SFA1.0B1.0*%
%ADD10R,0.087000X0.024000*%
%ADD11R,0.062992X0.157480*%
%ADD12R,0.074803X0.062992*%
%ADD13R,0.062992X0.074803*%
%ADD14R,0.001000X0.001000*%
%LNPASTEMASK1*%
G90*
G70*
G54D10*
X740Y1200D03*
X740Y1150D03*
X740Y1100D03*
X740Y1050D03*
X946Y1050D03*
X946Y1100D03*
X946Y1150D03*
X946Y1200D03*
X1340Y1200D03*
X1340Y1150D03*
X1340Y1100D03*
X1340Y1050D03*
X1546Y1050D03*
X1546Y1100D03*
X1546Y1150D03*
X1546Y1200D03*
G54D11*
X383Y407D03*
X383Y92D03*
G54D12*
X1127Y436D03*
X1127Y558D03*
G54D11*
X883Y407D03*
X883Y92D03*
G54D12*
X1357Y175D03*
X1357Y53D03*
X1465Y177D03*
X1465Y55D03*
X1621Y362D03*
X1621Y485D03*
X1717Y485D03*
X1717Y363D03*
G54D13*
X1746Y1164D03*
X1868Y1164D03*
G54D12*
X1651Y1170D03*
X1651Y1292D03*
X1156Y1209D03*
X1156Y1087D03*
X1056Y1163D03*
X1056Y1285D03*
G54D13*
X1727Y274D03*
X1605Y274D03*
X1509Y1276D03*
X1387Y1276D03*
X949Y1275D03*
X827Y1275D03*
G54D14*
D02*
G04 End of PasteMask1*
M02*