G04 DipTrace 2.4.0.2*
%INTopSilk.gbr*%
%MOIN*%
%ADD10C,0.0098*%
%ADD51C,0.0077*%
%ADD52C,0.0093*%
%FSLAX44Y44*%
G04*
G70*
G90*
G75*
G01*
%LNTopSilk*%
%LPD*%
X6628Y16795D2*
D10*
X5003D1*
Y18108D1*
X5315Y18421D1*
X6315D1*
X6628Y18108D1*
Y16795D1*
X5128Y18010D2*
X5440D1*
X5315Y17851D2*
Y18220D1*
X9449Y8126D2*
Y8755D1*
X9374Y8126D2*
Y8755D1*
Y8126D2*
X9610D1*
X9374Y8755D2*
X9610D1*
X10339Y11850D2*
X8292D1*
X10339Y10118D2*
X8292D1*
Y11850D2*
Y10118D1*
X10339Y11850D2*
Y11260D1*
Y10709D2*
Y10118D1*
Y11260D2*
G03X10339Y10709I0J-276D01*
G01*
X10410Y14191D2*
X8035D1*
Y15379D1*
X10410D1*
Y14191D1*
X7878Y16583D2*
X6878D1*
X7878Y17425D2*
X6878D1*
X4390Y17650D2*
D51*
X4342Y17626D1*
X4294Y17578D1*
X4271Y17531D1*
Y17435D1*
X4294Y17387D1*
X4342Y17340D1*
X4390Y17315D1*
X4462Y17291D1*
X4582D1*
X4653Y17315D1*
X4701Y17340D1*
X4749Y17387D1*
X4773Y17435D1*
Y17531D1*
X4749Y17578D1*
X4701Y17626D1*
X4653Y17650D1*
X4367Y17805D2*
X4342Y17853D1*
X4271Y17925D1*
X4773D1*
X9427Y9408D2*
X9403Y9455D1*
X9355Y9503D1*
X9307Y9527D1*
X9212D1*
X9163Y9503D1*
X9116Y9455D1*
X9092Y9408D1*
X9068Y9336D1*
Y9216D1*
X9092Y9145D1*
X9116Y9097D1*
X9163Y9049D1*
X9212Y9025D1*
X9307D1*
X9355Y9049D1*
X9403Y9097D1*
X9427Y9145D1*
X9605Y9407D2*
Y9431D1*
X9629Y9479D1*
X9653Y9503D1*
X9701Y9527D1*
X9796D1*
X9844Y9503D1*
X9868Y9479D1*
X9892Y9431D1*
Y9383D1*
X9868Y9335D1*
X9820Y9264D1*
X9581Y9025D1*
X9916D1*
X6296Y11793D2*
Y12008D1*
X6273Y12080D1*
X6248Y12104D1*
X6201Y12128D1*
X6129D1*
X6081Y12104D1*
X6057Y12080D1*
X6033Y12008D1*
Y11793D1*
X6536D1*
X6033Y12426D2*
X6057Y12378D1*
X6105Y12330D1*
X6153Y12306D1*
X6225Y12282D1*
X6345D1*
X6416Y12306D1*
X6464Y12330D1*
X6511Y12378D1*
X6536Y12426D1*
Y12522D1*
X6511Y12569D1*
X6464Y12617D1*
X6416Y12641D1*
X6345Y12665D1*
X6225D1*
X6153Y12641D1*
X6105Y12617D1*
X6057Y12569D1*
X6033Y12522D1*
Y12426D1*
Y12987D2*
X6536D1*
X6033Y12819D2*
Y13154D1*
X7560Y10680D2*
X7919D1*
X7991Y10703D1*
X8038Y10752D1*
X8062Y10823D1*
Y10871D1*
X8038Y10943D1*
X7991Y10991D1*
X7919Y11015D1*
X7560D1*
X7656Y11169D2*
X7632Y11217D1*
X7561Y11289D1*
X8062D1*
X8811Y17176D2*
Y16817D1*
X8834Y16746D1*
X8883Y16698D1*
X8954Y16674D1*
X9002D1*
X9074Y16698D1*
X9122Y16746D1*
X9146Y16817D1*
Y17176D1*
X9324Y17056D2*
Y17080D1*
X9348Y17128D1*
X9372Y17152D1*
X9420Y17176D1*
X9516D1*
X9563Y17152D1*
X9587Y17128D1*
X9611Y17080D1*
Y17032D1*
X9587Y16984D1*
X9539Y16913D1*
X9300Y16674D1*
X9635D1*
X6865Y18157D2*
X7056Y17655D1*
X7247Y18157D1*
X7402D2*
Y17655D1*
X7891Y18157D2*
Y17655D1*
X7556Y18157D1*
Y17655D1*
X4511Y19616D2*
D52*
Y19100D1*
X4253Y19358D2*
X4769D1*
X4511Y5990D2*
Y5473D1*
X4253Y5731D2*
X4769D1*
M02*
