G04 MADE WITH FRITZING*
G04 WWW.FRITZING.ORG*
G04 DOUBLE SIDED*
G04 HOLES PLATED*
G04 CONTOUR ON CENTER OF CONTOUR VECTOR*
%ASAXBY*%
%FSLAX23Y23*%
%MOIN*%
%OFA0B0*%
%SFA1.0B1.0*%
%ADD10R,1.968500X1.377950X1.952500X1.361950*%
%ADD11C,0.008000*%
%ADD12R,0.001000X0.001000*%
%LNSILK0*%
G90*
G70*
G54D11*
X4Y1374D02*
X1965Y1374D01*
X1965Y4D01*
X4Y4D01*
X4Y1374D01*
D02*
G54D12*
X626Y1290D02*
X629Y1290D01*
X734Y1290D02*
X767Y1290D01*
X798Y1290D02*
X802Y1290D01*
X836Y1290D02*
X839Y1290D01*
X935Y1290D02*
X978Y1290D01*
X1003Y1290D02*
X1007Y1290D01*
X1035Y1290D02*
X1047Y1290D01*
X1089Y1290D02*
X1095Y1290D01*
X1209Y1290D02*
X1212Y1290D01*
X1246Y1290D02*
X1249Y1290D01*
X1277Y1290D02*
X1280Y1290D01*
X1314Y1290D02*
X1318Y1290D01*
X1383Y1290D02*
X1386Y1290D01*
X1431Y1290D02*
X1437Y1290D01*
X1482Y1290D02*
X1522Y1290D01*
X1568Y1290D02*
X1591Y1290D01*
X1619Y1290D02*
X1622Y1290D01*
X1656Y1290D02*
X1660Y1290D01*
X1706Y1290D02*
X1709Y1290D01*
X625Y1289D02*
X630Y1289D01*
X732Y1289D02*
X769Y1289D01*
X797Y1289D02*
X803Y1289D01*
X835Y1289D02*
X840Y1289D01*
X934Y1289D02*
X978Y1289D01*
X1002Y1289D02*
X1008Y1289D01*
X1035Y1289D02*
X1047Y1289D01*
X1087Y1289D02*
X1098Y1289D01*
X1207Y1289D02*
X1213Y1289D01*
X1245Y1289D02*
X1251Y1289D01*
X1276Y1289D02*
X1282Y1289D01*
X1313Y1289D02*
X1319Y1289D01*
X1382Y1289D02*
X1387Y1289D01*
X1429Y1289D02*
X1440Y1289D01*
X1481Y1289D02*
X1524Y1289D01*
X1566Y1289D02*
X1593Y1289D01*
X1618Y1289D02*
X1623Y1289D01*
X1655Y1289D02*
X1661Y1289D01*
X1705Y1289D02*
X1710Y1289D01*
X624Y1288D02*
X631Y1288D01*
X730Y1288D02*
X770Y1288D01*
X796Y1288D02*
X804Y1288D01*
X834Y1288D02*
X841Y1288D01*
X933Y1288D02*
X978Y1288D01*
X1002Y1288D02*
X1009Y1288D01*
X1034Y1288D02*
X1047Y1288D01*
X1085Y1288D02*
X1099Y1288D01*
X1207Y1288D02*
X1214Y1288D01*
X1244Y1288D02*
X1251Y1288D01*
X1275Y1288D02*
X1282Y1288D01*
X1313Y1288D02*
X1320Y1288D01*
X1381Y1288D02*
X1388Y1288D01*
X1427Y1288D02*
X1441Y1288D01*
X1480Y1288D02*
X1525Y1288D01*
X1564Y1288D02*
X1593Y1288D01*
X1617Y1288D02*
X1624Y1288D01*
X1655Y1288D02*
X1662Y1288D01*
X1704Y1288D02*
X1711Y1288D01*
X624Y1287D02*
X631Y1287D01*
X730Y1287D02*
X771Y1287D01*
X796Y1287D02*
X804Y1287D01*
X834Y1287D02*
X841Y1287D01*
X933Y1287D02*
X978Y1287D01*
X1001Y1287D02*
X1009Y1287D01*
X1034Y1287D02*
X1047Y1287D01*
X1084Y1287D02*
X1100Y1287D01*
X1206Y1287D02*
X1215Y1287D01*
X1244Y1287D02*
X1252Y1287D01*
X1275Y1287D02*
X1282Y1287D01*
X1312Y1287D02*
X1320Y1287D01*
X1381Y1287D02*
X1388Y1287D01*
X1426Y1287D02*
X1442Y1287D01*
X1480Y1287D02*
X1525Y1287D01*
X1563Y1287D02*
X1594Y1287D01*
X1617Y1287D02*
X1624Y1287D01*
X1654Y1287D02*
X1662Y1287D01*
X1704Y1287D02*
X1711Y1287D01*
X623Y1286D02*
X632Y1286D01*
X729Y1286D02*
X772Y1286D01*
X796Y1286D02*
X804Y1286D01*
X833Y1286D02*
X842Y1286D01*
X933Y1286D02*
X978Y1286D01*
X1001Y1286D02*
X1009Y1286D01*
X1034Y1286D02*
X1047Y1286D01*
X1083Y1286D02*
X1101Y1286D01*
X1206Y1286D02*
X1215Y1286D01*
X1243Y1286D02*
X1252Y1286D01*
X1275Y1286D02*
X1283Y1286D01*
X1312Y1286D02*
X1320Y1286D01*
X1380Y1286D02*
X1388Y1286D01*
X1425Y1286D02*
X1443Y1286D01*
X1480Y1286D02*
X1525Y1286D01*
X1562Y1286D02*
X1594Y1286D01*
X1616Y1286D02*
X1625Y1286D01*
X1654Y1286D02*
X1662Y1286D01*
X1703Y1286D02*
X1712Y1286D01*
X623Y1285D02*
X632Y1285D01*
X728Y1285D02*
X772Y1285D01*
X796Y1285D02*
X804Y1285D01*
X833Y1285D02*
X842Y1285D01*
X933Y1285D02*
X978Y1285D01*
X1001Y1285D02*
X1009Y1285D01*
X1033Y1285D02*
X1047Y1285D01*
X1082Y1285D02*
X1102Y1285D01*
X1206Y1285D02*
X1216Y1285D01*
X1242Y1285D02*
X1252Y1285D01*
X1275Y1285D02*
X1283Y1285D01*
X1312Y1285D02*
X1320Y1285D01*
X1380Y1285D02*
X1389Y1285D01*
X1424Y1285D02*
X1444Y1285D01*
X1480Y1285D02*
X1525Y1285D01*
X1561Y1285D02*
X1594Y1285D01*
X1616Y1285D02*
X1625Y1285D01*
X1654Y1285D02*
X1662Y1285D01*
X1703Y1285D02*
X1712Y1285D01*
X623Y1284D02*
X632Y1284D01*
X728Y1284D02*
X773Y1284D01*
X796Y1284D02*
X804Y1284D01*
X833Y1284D02*
X842Y1284D01*
X933Y1284D02*
X978Y1284D01*
X1001Y1284D02*
X1009Y1284D01*
X1033Y1284D02*
X1047Y1284D01*
X1082Y1284D02*
X1103Y1284D01*
X1207Y1284D02*
X1216Y1284D01*
X1242Y1284D02*
X1251Y1284D01*
X1275Y1284D02*
X1283Y1284D01*
X1312Y1284D02*
X1320Y1284D01*
X1380Y1284D02*
X1389Y1284D01*
X1424Y1284D02*
X1444Y1284D01*
X1480Y1284D02*
X1525Y1284D01*
X1561Y1284D02*
X1593Y1284D01*
X1616Y1284D02*
X1625Y1284D01*
X1654Y1284D02*
X1662Y1284D01*
X1703Y1284D02*
X1712Y1284D01*
X623Y1283D02*
X632Y1283D01*
X728Y1283D02*
X773Y1283D01*
X796Y1283D02*
X804Y1283D01*
X833Y1283D02*
X842Y1283D01*
X934Y1283D02*
X978Y1283D01*
X1001Y1283D02*
X1009Y1283D01*
X1032Y1283D02*
X1047Y1283D01*
X1081Y1283D02*
X1103Y1283D01*
X1207Y1283D02*
X1217Y1283D01*
X1241Y1283D02*
X1251Y1283D01*
X1275Y1283D02*
X1283Y1283D01*
X1312Y1283D02*
X1320Y1283D01*
X1380Y1283D02*
X1389Y1283D01*
X1423Y1283D02*
X1445Y1283D01*
X1481Y1283D02*
X1524Y1283D01*
X1560Y1283D02*
X1593Y1283D01*
X1616Y1283D02*
X1625Y1283D01*
X1654Y1283D02*
X1662Y1283D01*
X1702Y1283D02*
X1713Y1283D01*
X598Y1282D02*
X601Y1282D01*
X623Y1282D02*
X632Y1282D01*
X728Y1282D02*
X773Y1282D01*
X796Y1282D02*
X804Y1282D01*
X833Y1282D02*
X842Y1282D01*
X935Y1282D02*
X978Y1282D01*
X1001Y1282D02*
X1009Y1282D01*
X1032Y1282D02*
X1047Y1282D01*
X1081Y1282D02*
X1104Y1282D01*
X1208Y1282D02*
X1218Y1282D01*
X1241Y1282D02*
X1250Y1282D01*
X1275Y1282D02*
X1283Y1282D01*
X1312Y1282D02*
X1320Y1282D01*
X1380Y1282D02*
X1389Y1282D01*
X1423Y1282D02*
X1445Y1282D01*
X1482Y1282D02*
X1523Y1282D01*
X1559Y1282D02*
X1591Y1282D01*
X1616Y1282D02*
X1625Y1282D01*
X1654Y1282D02*
X1662Y1282D01*
X1702Y1282D02*
X1713Y1282D01*
X597Y1281D02*
X602Y1281D01*
X623Y1281D02*
X632Y1281D01*
X727Y1281D02*
X736Y1281D01*
X765Y1281D02*
X773Y1281D01*
X796Y1281D02*
X804Y1281D01*
X833Y1281D02*
X842Y1281D01*
X970Y1281D02*
X978Y1281D01*
X1001Y1281D02*
X1009Y1281D01*
X1031Y1281D02*
X1047Y1281D01*
X1080Y1281D02*
X1091Y1281D01*
X1093Y1281D02*
X1104Y1281D01*
X1208Y1281D02*
X1218Y1281D01*
X1240Y1281D02*
X1250Y1281D01*
X1275Y1281D02*
X1283Y1281D01*
X1312Y1281D02*
X1320Y1281D01*
X1380Y1281D02*
X1389Y1281D01*
X1422Y1281D02*
X1433Y1281D01*
X1435Y1281D02*
X1446Y1281D01*
X1498Y1281D02*
X1507Y1281D01*
X1559Y1281D02*
X1570Y1281D01*
X1576Y1281D02*
X1585Y1281D01*
X1616Y1281D02*
X1625Y1281D01*
X1654Y1281D02*
X1662Y1281D01*
X1702Y1281D02*
X1713Y1281D01*
X596Y1280D02*
X603Y1280D01*
X623Y1280D02*
X632Y1280D01*
X727Y1280D02*
X736Y1280D01*
X765Y1280D02*
X773Y1280D01*
X796Y1280D02*
X804Y1280D01*
X833Y1280D02*
X842Y1280D01*
X970Y1280D02*
X978Y1280D01*
X1001Y1280D02*
X1009Y1280D01*
X1031Y1280D02*
X1047Y1280D01*
X1080Y1280D02*
X1089Y1280D01*
X1095Y1280D02*
X1105Y1280D01*
X1209Y1280D02*
X1219Y1280D01*
X1239Y1280D02*
X1249Y1280D01*
X1275Y1280D02*
X1283Y1280D01*
X1312Y1280D02*
X1320Y1280D01*
X1380Y1280D02*
X1389Y1280D01*
X1422Y1280D02*
X1431Y1280D01*
X1437Y1280D02*
X1446Y1280D01*
X1498Y1280D02*
X1507Y1280D01*
X1558Y1280D02*
X1569Y1280D01*
X1576Y1280D02*
X1584Y1280D01*
X1616Y1280D02*
X1625Y1280D01*
X1654Y1280D02*
X1662Y1280D01*
X1702Y1280D02*
X1714Y1280D01*
X596Y1279D02*
X603Y1279D01*
X623Y1279D02*
X632Y1279D01*
X727Y1279D02*
X736Y1279D01*
X765Y1279D02*
X773Y1279D01*
X796Y1279D02*
X804Y1279D01*
X833Y1279D02*
X842Y1279D01*
X970Y1279D02*
X978Y1279D01*
X1001Y1279D02*
X1009Y1279D01*
X1031Y1279D02*
X1047Y1279D01*
X1079Y1279D02*
X1089Y1279D01*
X1096Y1279D02*
X1105Y1279D01*
X1209Y1279D02*
X1219Y1279D01*
X1239Y1279D02*
X1249Y1279D01*
X1275Y1279D02*
X1283Y1279D01*
X1312Y1279D02*
X1320Y1279D01*
X1380Y1279D02*
X1389Y1279D01*
X1421Y1279D02*
X1431Y1279D01*
X1438Y1279D02*
X1447Y1279D01*
X1498Y1279D02*
X1507Y1279D01*
X1558Y1279D02*
X1568Y1279D01*
X1576Y1279D02*
X1584Y1279D01*
X1616Y1279D02*
X1625Y1279D01*
X1654Y1279D02*
X1662Y1279D01*
X1701Y1279D02*
X1714Y1279D01*
X595Y1278D02*
X603Y1278D01*
X623Y1278D02*
X632Y1278D01*
X727Y1278D02*
X736Y1278D01*
X765Y1278D02*
X773Y1278D01*
X796Y1278D02*
X804Y1278D01*
X833Y1278D02*
X842Y1278D01*
X970Y1278D02*
X978Y1278D01*
X1001Y1278D02*
X1009Y1278D01*
X1030Y1278D02*
X1047Y1278D01*
X1079Y1278D02*
X1088Y1278D01*
X1096Y1278D02*
X1106Y1278D01*
X1210Y1278D02*
X1220Y1278D01*
X1238Y1278D02*
X1248Y1278D01*
X1275Y1278D02*
X1283Y1278D01*
X1312Y1278D02*
X1320Y1278D01*
X1380Y1278D02*
X1389Y1278D01*
X1421Y1278D02*
X1430Y1278D01*
X1438Y1278D02*
X1447Y1278D01*
X1498Y1278D02*
X1507Y1278D01*
X1558Y1278D02*
X1567Y1278D01*
X1576Y1278D02*
X1584Y1278D01*
X1616Y1278D02*
X1625Y1278D01*
X1654Y1278D02*
X1662Y1278D01*
X1701Y1278D02*
X1714Y1278D01*
X595Y1277D02*
X603Y1277D01*
X623Y1277D02*
X632Y1277D01*
X727Y1277D02*
X736Y1277D01*
X765Y1277D02*
X773Y1277D01*
X796Y1277D02*
X804Y1277D01*
X833Y1277D02*
X842Y1277D01*
X970Y1277D02*
X978Y1277D01*
X1001Y1277D02*
X1009Y1277D01*
X1030Y1277D02*
X1047Y1277D01*
X1078Y1277D02*
X1088Y1277D01*
X1097Y1277D02*
X1106Y1277D01*
X1210Y1277D02*
X1220Y1277D01*
X1238Y1277D02*
X1248Y1277D01*
X1275Y1277D02*
X1283Y1277D01*
X1312Y1277D02*
X1320Y1277D01*
X1380Y1277D02*
X1389Y1277D01*
X1420Y1277D02*
X1430Y1277D01*
X1439Y1277D02*
X1448Y1277D01*
X1498Y1277D02*
X1507Y1277D01*
X1557Y1277D02*
X1567Y1277D01*
X1576Y1277D02*
X1584Y1277D01*
X1616Y1277D02*
X1625Y1277D01*
X1654Y1277D02*
X1662Y1277D01*
X1701Y1277D02*
X1714Y1277D01*
X595Y1276D02*
X604Y1276D01*
X623Y1276D02*
X632Y1276D01*
X727Y1276D02*
X736Y1276D01*
X765Y1276D02*
X773Y1276D01*
X796Y1276D02*
X804Y1276D01*
X833Y1276D02*
X842Y1276D01*
X970Y1276D02*
X978Y1276D01*
X1001Y1276D02*
X1009Y1276D01*
X1029Y1276D02*
X1047Y1276D01*
X1078Y1276D02*
X1087Y1276D01*
X1097Y1276D02*
X1107Y1276D01*
X1211Y1276D02*
X1221Y1276D01*
X1237Y1276D02*
X1247Y1276D01*
X1275Y1276D02*
X1283Y1276D01*
X1312Y1276D02*
X1320Y1276D01*
X1380Y1276D02*
X1389Y1276D01*
X1420Y1276D02*
X1429Y1276D01*
X1439Y1276D02*
X1448Y1276D01*
X1498Y1276D02*
X1507Y1276D01*
X1557Y1276D02*
X1566Y1276D01*
X1576Y1276D02*
X1584Y1276D01*
X1616Y1276D02*
X1625Y1276D01*
X1654Y1276D02*
X1662Y1276D01*
X1700Y1276D02*
X1715Y1276D01*
X595Y1275D02*
X604Y1275D01*
X623Y1275D02*
X632Y1275D01*
X727Y1275D02*
X736Y1275D01*
X765Y1275D02*
X773Y1275D01*
X796Y1275D02*
X804Y1275D01*
X833Y1275D02*
X842Y1275D01*
X970Y1275D02*
X978Y1275D01*
X1001Y1275D02*
X1009Y1275D01*
X1029Y1275D02*
X1047Y1275D01*
X1077Y1275D02*
X1087Y1275D01*
X1098Y1275D02*
X1107Y1275D01*
X1212Y1275D02*
X1222Y1275D01*
X1236Y1275D02*
X1246Y1275D01*
X1275Y1275D02*
X1283Y1275D01*
X1312Y1275D02*
X1320Y1275D01*
X1380Y1275D02*
X1389Y1275D01*
X1419Y1275D02*
X1429Y1275D01*
X1440Y1275D02*
X1449Y1275D01*
X1498Y1275D02*
X1507Y1275D01*
X1556Y1275D02*
X1566Y1275D01*
X1576Y1275D02*
X1584Y1275D01*
X1616Y1275D02*
X1625Y1275D01*
X1654Y1275D02*
X1662Y1275D01*
X1700Y1275D02*
X1715Y1275D01*
X595Y1274D02*
X604Y1274D01*
X623Y1274D02*
X632Y1274D01*
X727Y1274D02*
X736Y1274D01*
X765Y1274D02*
X773Y1274D01*
X796Y1274D02*
X804Y1274D01*
X833Y1274D02*
X842Y1274D01*
X970Y1274D02*
X978Y1274D01*
X1001Y1274D02*
X1009Y1274D01*
X1028Y1274D02*
X1047Y1274D01*
X1077Y1274D02*
X1086Y1274D01*
X1098Y1274D02*
X1108Y1274D01*
X1212Y1274D02*
X1222Y1274D01*
X1236Y1274D02*
X1246Y1274D01*
X1275Y1274D02*
X1283Y1274D01*
X1312Y1274D02*
X1320Y1274D01*
X1380Y1274D02*
X1389Y1274D01*
X1419Y1274D02*
X1428Y1274D01*
X1440Y1274D02*
X1449Y1274D01*
X1498Y1274D02*
X1507Y1274D01*
X1556Y1274D02*
X1565Y1274D01*
X1576Y1274D02*
X1584Y1274D01*
X1616Y1274D02*
X1625Y1274D01*
X1654Y1274D02*
X1662Y1274D01*
X1700Y1274D02*
X1715Y1274D01*
X595Y1273D02*
X604Y1273D01*
X623Y1273D02*
X632Y1273D01*
X727Y1273D02*
X736Y1273D01*
X765Y1273D02*
X773Y1273D01*
X796Y1273D02*
X804Y1273D01*
X833Y1273D02*
X842Y1273D01*
X970Y1273D02*
X978Y1273D01*
X1001Y1273D02*
X1009Y1273D01*
X1028Y1273D02*
X1047Y1273D01*
X1076Y1273D02*
X1086Y1273D01*
X1099Y1273D02*
X1108Y1273D01*
X1213Y1273D02*
X1223Y1273D01*
X1235Y1273D02*
X1245Y1273D01*
X1275Y1273D02*
X1283Y1273D01*
X1312Y1273D02*
X1320Y1273D01*
X1380Y1273D02*
X1389Y1273D01*
X1418Y1273D02*
X1428Y1273D01*
X1441Y1273D02*
X1450Y1273D01*
X1498Y1273D02*
X1507Y1273D01*
X1555Y1273D02*
X1565Y1273D01*
X1576Y1273D02*
X1584Y1273D01*
X1616Y1273D02*
X1625Y1273D01*
X1654Y1273D02*
X1662Y1273D01*
X1699Y1273D02*
X1716Y1273D01*
X595Y1272D02*
X604Y1272D01*
X623Y1272D02*
X632Y1272D01*
X727Y1272D02*
X736Y1272D01*
X765Y1272D02*
X773Y1272D01*
X796Y1272D02*
X804Y1272D01*
X833Y1272D02*
X842Y1272D01*
X970Y1272D02*
X978Y1272D01*
X1001Y1272D02*
X1009Y1272D01*
X1027Y1272D02*
X1047Y1272D01*
X1076Y1272D02*
X1085Y1272D01*
X1099Y1272D02*
X1109Y1272D01*
X1213Y1272D02*
X1223Y1272D01*
X1235Y1272D02*
X1245Y1272D01*
X1275Y1272D02*
X1283Y1272D01*
X1312Y1272D02*
X1320Y1272D01*
X1380Y1272D02*
X1389Y1272D01*
X1418Y1272D02*
X1427Y1272D01*
X1441Y1272D02*
X1450Y1272D01*
X1498Y1272D02*
X1507Y1272D01*
X1555Y1272D02*
X1564Y1272D01*
X1576Y1272D02*
X1584Y1272D01*
X1616Y1272D02*
X1625Y1272D01*
X1654Y1272D02*
X1662Y1272D01*
X1699Y1272D02*
X1716Y1272D01*
X595Y1271D02*
X604Y1271D01*
X623Y1271D02*
X632Y1271D01*
X727Y1271D02*
X736Y1271D01*
X765Y1271D02*
X773Y1271D01*
X796Y1271D02*
X804Y1271D01*
X833Y1271D02*
X842Y1271D01*
X970Y1271D02*
X978Y1271D01*
X1001Y1271D02*
X1009Y1271D01*
X1027Y1271D02*
X1036Y1271D01*
X1038Y1271D02*
X1047Y1271D01*
X1075Y1271D02*
X1085Y1271D01*
X1100Y1271D02*
X1109Y1271D01*
X1214Y1271D02*
X1224Y1271D01*
X1234Y1271D02*
X1244Y1271D01*
X1275Y1271D02*
X1283Y1271D01*
X1312Y1271D02*
X1320Y1271D01*
X1380Y1271D02*
X1389Y1271D01*
X1417Y1271D02*
X1427Y1271D01*
X1442Y1271D02*
X1451Y1271D01*
X1498Y1271D02*
X1507Y1271D01*
X1554Y1271D02*
X1564Y1271D01*
X1576Y1271D02*
X1584Y1271D01*
X1616Y1271D02*
X1625Y1271D01*
X1654Y1271D02*
X1662Y1271D01*
X1699Y1271D02*
X1716Y1271D01*
X595Y1270D02*
X604Y1270D01*
X623Y1270D02*
X632Y1270D01*
X727Y1270D02*
X736Y1270D01*
X765Y1270D02*
X773Y1270D01*
X796Y1270D02*
X804Y1270D01*
X833Y1270D02*
X842Y1270D01*
X970Y1270D02*
X978Y1270D01*
X1001Y1270D02*
X1009Y1270D01*
X1027Y1270D02*
X1036Y1270D01*
X1038Y1270D02*
X1047Y1270D01*
X1075Y1270D02*
X1084Y1270D01*
X1100Y1270D02*
X1110Y1270D01*
X1215Y1270D02*
X1225Y1270D01*
X1234Y1270D02*
X1243Y1270D01*
X1275Y1270D02*
X1283Y1270D01*
X1312Y1270D02*
X1320Y1270D01*
X1380Y1270D02*
X1389Y1270D01*
X1417Y1270D02*
X1426Y1270D01*
X1442Y1270D02*
X1451Y1270D01*
X1498Y1270D02*
X1507Y1270D01*
X1554Y1270D02*
X1563Y1270D01*
X1576Y1270D02*
X1584Y1270D01*
X1616Y1270D02*
X1625Y1270D01*
X1654Y1270D02*
X1662Y1270D01*
X1699Y1270D02*
X1716Y1270D01*
X595Y1269D02*
X604Y1269D01*
X623Y1269D02*
X632Y1269D01*
X727Y1269D02*
X736Y1269D01*
X765Y1269D02*
X773Y1269D01*
X796Y1269D02*
X805Y1269D01*
X833Y1269D02*
X841Y1269D01*
X970Y1269D02*
X978Y1269D01*
X1001Y1269D02*
X1009Y1269D01*
X1026Y1269D02*
X1035Y1269D01*
X1038Y1269D02*
X1047Y1269D01*
X1074Y1269D02*
X1084Y1269D01*
X1101Y1269D02*
X1110Y1269D01*
X1215Y1269D02*
X1225Y1269D01*
X1233Y1269D02*
X1243Y1269D01*
X1275Y1269D02*
X1283Y1269D01*
X1312Y1269D02*
X1320Y1269D01*
X1380Y1269D02*
X1389Y1269D01*
X1416Y1269D02*
X1426Y1269D01*
X1443Y1269D02*
X1452Y1269D01*
X1498Y1269D02*
X1507Y1269D01*
X1553Y1269D02*
X1563Y1269D01*
X1576Y1269D02*
X1584Y1269D01*
X1616Y1269D02*
X1625Y1269D01*
X1654Y1269D02*
X1662Y1269D01*
X1698Y1269D02*
X1717Y1269D01*
X595Y1268D02*
X604Y1268D01*
X623Y1268D02*
X632Y1268D01*
X727Y1268D02*
X736Y1268D01*
X765Y1268D02*
X773Y1268D01*
X796Y1268D02*
X805Y1268D01*
X832Y1268D02*
X841Y1268D01*
X970Y1268D02*
X978Y1268D01*
X1001Y1268D02*
X1009Y1268D01*
X1026Y1268D02*
X1035Y1268D01*
X1038Y1268D02*
X1047Y1268D01*
X1074Y1268D02*
X1083Y1268D01*
X1101Y1268D02*
X1111Y1268D01*
X1216Y1268D02*
X1226Y1268D01*
X1232Y1268D02*
X1242Y1268D01*
X1275Y1268D02*
X1283Y1268D01*
X1312Y1268D02*
X1320Y1268D01*
X1380Y1268D02*
X1389Y1268D01*
X1416Y1268D02*
X1425Y1268D01*
X1443Y1268D02*
X1452Y1268D01*
X1498Y1268D02*
X1507Y1268D01*
X1553Y1268D02*
X1562Y1268D01*
X1576Y1268D02*
X1584Y1268D01*
X1616Y1268D02*
X1625Y1268D01*
X1654Y1268D02*
X1662Y1268D01*
X1698Y1268D02*
X1717Y1268D01*
X595Y1267D02*
X604Y1267D01*
X623Y1267D02*
X632Y1267D01*
X727Y1267D02*
X736Y1267D01*
X765Y1267D02*
X773Y1267D01*
X797Y1267D02*
X806Y1267D01*
X832Y1267D02*
X841Y1267D01*
X970Y1267D02*
X978Y1267D01*
X1001Y1267D02*
X1009Y1267D01*
X1025Y1267D02*
X1035Y1267D01*
X1038Y1267D02*
X1047Y1267D01*
X1073Y1267D02*
X1083Y1267D01*
X1102Y1267D02*
X1111Y1267D01*
X1216Y1267D02*
X1226Y1267D01*
X1232Y1267D02*
X1242Y1267D01*
X1275Y1267D02*
X1283Y1267D01*
X1312Y1267D02*
X1320Y1267D01*
X1380Y1267D02*
X1389Y1267D01*
X1415Y1267D02*
X1425Y1267D01*
X1444Y1267D02*
X1453Y1267D01*
X1498Y1267D02*
X1507Y1267D01*
X1552Y1267D02*
X1562Y1267D01*
X1576Y1267D02*
X1584Y1267D01*
X1616Y1267D02*
X1625Y1267D01*
X1654Y1267D02*
X1662Y1267D01*
X1698Y1267D02*
X1707Y1267D01*
X1709Y1267D02*
X1717Y1267D01*
X595Y1266D02*
X604Y1266D01*
X623Y1266D02*
X632Y1266D01*
X727Y1266D02*
X736Y1266D01*
X765Y1266D02*
X773Y1266D01*
X797Y1266D02*
X806Y1266D01*
X831Y1266D02*
X841Y1266D01*
X970Y1266D02*
X978Y1266D01*
X1001Y1266D02*
X1009Y1266D01*
X1025Y1266D02*
X1034Y1266D01*
X1038Y1266D02*
X1047Y1266D01*
X1073Y1266D02*
X1082Y1266D01*
X1102Y1266D02*
X1112Y1266D01*
X1217Y1266D02*
X1227Y1266D01*
X1231Y1266D02*
X1241Y1266D01*
X1275Y1266D02*
X1283Y1266D01*
X1312Y1266D02*
X1320Y1266D01*
X1380Y1266D02*
X1389Y1266D01*
X1415Y1266D02*
X1424Y1266D01*
X1444Y1266D02*
X1453Y1266D01*
X1498Y1266D02*
X1507Y1266D01*
X1552Y1266D02*
X1561Y1266D01*
X1576Y1266D02*
X1584Y1266D01*
X1616Y1266D02*
X1625Y1266D01*
X1654Y1266D02*
X1662Y1266D01*
X1697Y1266D02*
X1706Y1266D01*
X1709Y1266D02*
X1718Y1266D01*
X595Y1265D02*
X604Y1265D01*
X623Y1265D02*
X632Y1265D01*
X727Y1265D02*
X736Y1265D01*
X765Y1265D02*
X773Y1265D01*
X797Y1265D02*
X806Y1265D01*
X831Y1265D02*
X840Y1265D01*
X970Y1265D02*
X978Y1265D01*
X1001Y1265D02*
X1009Y1265D01*
X1024Y1265D02*
X1034Y1265D01*
X1038Y1265D02*
X1047Y1265D01*
X1072Y1265D02*
X1082Y1265D01*
X1103Y1265D02*
X1112Y1265D01*
X1217Y1265D02*
X1227Y1265D01*
X1231Y1265D02*
X1240Y1265D01*
X1275Y1265D02*
X1283Y1265D01*
X1312Y1265D02*
X1320Y1265D01*
X1380Y1265D02*
X1389Y1265D01*
X1414Y1265D02*
X1424Y1265D01*
X1445Y1265D02*
X1454Y1265D01*
X1498Y1265D02*
X1507Y1265D01*
X1551Y1265D02*
X1561Y1265D01*
X1576Y1265D02*
X1584Y1265D01*
X1616Y1265D02*
X1625Y1265D01*
X1654Y1265D02*
X1662Y1265D01*
X1697Y1265D02*
X1706Y1265D01*
X1709Y1265D02*
X1718Y1265D01*
X595Y1264D02*
X604Y1264D01*
X623Y1264D02*
X632Y1264D01*
X727Y1264D02*
X736Y1264D01*
X765Y1264D02*
X773Y1264D01*
X798Y1264D02*
X807Y1264D01*
X831Y1264D02*
X840Y1264D01*
X970Y1264D02*
X978Y1264D01*
X1001Y1264D02*
X1009Y1264D01*
X1024Y1264D02*
X1033Y1264D01*
X1038Y1264D02*
X1047Y1264D01*
X1072Y1264D02*
X1081Y1264D01*
X1103Y1264D02*
X1113Y1264D01*
X1218Y1264D02*
X1228Y1264D01*
X1230Y1264D02*
X1240Y1264D01*
X1275Y1264D02*
X1283Y1264D01*
X1312Y1264D02*
X1320Y1264D01*
X1380Y1264D02*
X1389Y1264D01*
X1414Y1264D02*
X1423Y1264D01*
X1445Y1264D02*
X1454Y1264D01*
X1498Y1264D02*
X1507Y1264D01*
X1551Y1264D02*
X1560Y1264D01*
X1576Y1264D02*
X1584Y1264D01*
X1616Y1264D02*
X1625Y1264D01*
X1654Y1264D02*
X1662Y1264D01*
X1697Y1264D02*
X1706Y1264D01*
X1710Y1264D02*
X1718Y1264D01*
X595Y1263D02*
X604Y1263D01*
X623Y1263D02*
X632Y1263D01*
X727Y1263D02*
X736Y1263D01*
X765Y1263D02*
X773Y1263D01*
X798Y1263D02*
X807Y1263D01*
X830Y1263D02*
X839Y1263D01*
X970Y1263D02*
X978Y1263D01*
X1001Y1263D02*
X1009Y1263D01*
X1024Y1263D02*
X1033Y1263D01*
X1038Y1263D02*
X1047Y1263D01*
X1071Y1263D02*
X1081Y1263D01*
X1104Y1263D02*
X1113Y1263D01*
X1219Y1263D02*
X1239Y1263D01*
X1275Y1263D02*
X1283Y1263D01*
X1312Y1263D02*
X1320Y1263D01*
X1380Y1263D02*
X1389Y1263D01*
X1413Y1263D02*
X1423Y1263D01*
X1446Y1263D02*
X1455Y1263D01*
X1498Y1263D02*
X1507Y1263D01*
X1550Y1263D02*
X1560Y1263D01*
X1576Y1263D02*
X1584Y1263D01*
X1616Y1263D02*
X1625Y1263D01*
X1654Y1263D02*
X1662Y1263D01*
X1697Y1263D02*
X1705Y1263D01*
X1710Y1263D02*
X1719Y1263D01*
X595Y1262D02*
X604Y1262D01*
X623Y1262D02*
X632Y1262D01*
X727Y1262D02*
X736Y1262D01*
X765Y1262D02*
X773Y1262D01*
X799Y1262D02*
X808Y1262D01*
X830Y1262D02*
X839Y1262D01*
X970Y1262D02*
X978Y1262D01*
X1001Y1262D02*
X1009Y1262D01*
X1023Y1262D02*
X1032Y1262D01*
X1038Y1262D02*
X1047Y1262D01*
X1071Y1262D02*
X1080Y1262D01*
X1104Y1262D02*
X1113Y1262D01*
X1219Y1262D02*
X1239Y1262D01*
X1275Y1262D02*
X1283Y1262D01*
X1312Y1262D02*
X1320Y1262D01*
X1380Y1262D02*
X1389Y1262D01*
X1413Y1262D02*
X1422Y1262D01*
X1446Y1262D02*
X1455Y1262D01*
X1498Y1262D02*
X1507Y1262D01*
X1550Y1262D02*
X1559Y1262D01*
X1576Y1262D02*
X1584Y1262D01*
X1616Y1262D02*
X1625Y1262D01*
X1654Y1262D02*
X1662Y1262D01*
X1696Y1262D02*
X1705Y1262D01*
X1710Y1262D02*
X1719Y1262D01*
X595Y1261D02*
X604Y1261D01*
X623Y1261D02*
X632Y1261D01*
X727Y1261D02*
X736Y1261D01*
X765Y1261D02*
X773Y1261D01*
X799Y1261D02*
X808Y1261D01*
X830Y1261D02*
X839Y1261D01*
X970Y1261D02*
X978Y1261D01*
X1001Y1261D02*
X1009Y1261D01*
X1023Y1261D02*
X1032Y1261D01*
X1038Y1261D02*
X1047Y1261D01*
X1071Y1261D02*
X1080Y1261D01*
X1105Y1261D02*
X1114Y1261D01*
X1220Y1261D02*
X1238Y1261D01*
X1275Y1261D02*
X1283Y1261D01*
X1312Y1261D02*
X1320Y1261D01*
X1380Y1261D02*
X1389Y1261D01*
X1412Y1261D02*
X1422Y1261D01*
X1447Y1261D02*
X1456Y1261D01*
X1498Y1261D02*
X1507Y1261D01*
X1549Y1261D02*
X1559Y1261D01*
X1576Y1261D02*
X1584Y1261D01*
X1616Y1261D02*
X1625Y1261D01*
X1654Y1261D02*
X1662Y1261D01*
X1696Y1261D02*
X1705Y1261D01*
X1710Y1261D02*
X1719Y1261D01*
X595Y1260D02*
X604Y1260D01*
X623Y1260D02*
X632Y1260D01*
X727Y1260D02*
X736Y1260D01*
X765Y1260D02*
X773Y1260D01*
X799Y1260D02*
X808Y1260D01*
X829Y1260D02*
X838Y1260D01*
X970Y1260D02*
X978Y1260D01*
X1001Y1260D02*
X1009Y1260D01*
X1022Y1260D02*
X1031Y1260D01*
X1038Y1260D02*
X1047Y1260D01*
X1070Y1260D02*
X1079Y1260D01*
X1105Y1260D02*
X1114Y1260D01*
X1220Y1260D02*
X1238Y1260D01*
X1275Y1260D02*
X1283Y1260D01*
X1312Y1260D02*
X1320Y1260D01*
X1380Y1260D02*
X1389Y1260D01*
X1412Y1260D02*
X1421Y1260D01*
X1447Y1260D02*
X1456Y1260D01*
X1498Y1260D02*
X1507Y1260D01*
X1549Y1260D02*
X1558Y1260D01*
X1576Y1260D02*
X1584Y1260D01*
X1616Y1260D02*
X1625Y1260D01*
X1654Y1260D02*
X1662Y1260D01*
X1696Y1260D02*
X1705Y1260D01*
X1711Y1260D02*
X1719Y1260D01*
X595Y1259D02*
X604Y1259D01*
X623Y1259D02*
X632Y1259D01*
X727Y1259D02*
X736Y1259D01*
X765Y1259D02*
X773Y1259D01*
X800Y1259D02*
X809Y1259D01*
X829Y1259D02*
X838Y1259D01*
X970Y1259D02*
X978Y1259D01*
X1001Y1259D02*
X1009Y1259D01*
X1022Y1259D02*
X1031Y1259D01*
X1038Y1259D02*
X1047Y1259D01*
X1070Y1259D02*
X1079Y1259D01*
X1106Y1259D02*
X1115Y1259D01*
X1221Y1259D02*
X1237Y1259D01*
X1275Y1259D02*
X1283Y1259D01*
X1312Y1259D02*
X1320Y1259D01*
X1380Y1259D02*
X1389Y1259D01*
X1412Y1259D02*
X1421Y1259D01*
X1448Y1259D02*
X1456Y1259D01*
X1498Y1259D02*
X1507Y1259D01*
X1549Y1259D02*
X1558Y1259D01*
X1576Y1259D02*
X1584Y1259D01*
X1616Y1259D02*
X1625Y1259D01*
X1654Y1259D02*
X1662Y1259D01*
X1695Y1259D02*
X1704Y1259D01*
X1711Y1259D02*
X1720Y1259D01*
X595Y1258D02*
X604Y1258D01*
X623Y1258D02*
X632Y1258D01*
X727Y1258D02*
X736Y1258D01*
X765Y1258D02*
X773Y1258D01*
X800Y1258D02*
X809Y1258D01*
X828Y1258D02*
X837Y1258D01*
X955Y1258D02*
X978Y1258D01*
X1001Y1258D02*
X1009Y1258D01*
X1021Y1258D02*
X1031Y1258D01*
X1038Y1258D02*
X1047Y1258D01*
X1070Y1258D02*
X1078Y1258D01*
X1108Y1258D02*
X1115Y1258D01*
X1222Y1258D02*
X1236Y1258D01*
X1275Y1258D02*
X1283Y1258D01*
X1312Y1258D02*
X1320Y1258D01*
X1380Y1258D02*
X1389Y1258D01*
X1412Y1258D02*
X1420Y1258D01*
X1448Y1258D02*
X1457Y1258D01*
X1498Y1258D02*
X1507Y1258D01*
X1548Y1258D02*
X1557Y1258D01*
X1576Y1258D02*
X1584Y1258D01*
X1616Y1258D02*
X1625Y1258D01*
X1654Y1258D02*
X1662Y1258D01*
X1695Y1258D02*
X1704Y1258D01*
X1711Y1258D02*
X1720Y1258D01*
X595Y1257D02*
X604Y1257D01*
X623Y1257D02*
X632Y1257D01*
X727Y1257D02*
X736Y1257D01*
X765Y1257D02*
X773Y1257D01*
X800Y1257D02*
X809Y1257D01*
X828Y1257D02*
X837Y1257D01*
X953Y1257D02*
X978Y1257D01*
X1001Y1257D02*
X1009Y1257D01*
X1021Y1257D02*
X1030Y1257D01*
X1038Y1257D02*
X1047Y1257D01*
X1070Y1257D02*
X1078Y1257D01*
X1112Y1257D02*
X1115Y1257D01*
X1222Y1257D02*
X1236Y1257D01*
X1275Y1257D02*
X1283Y1257D01*
X1312Y1257D02*
X1320Y1257D01*
X1380Y1257D02*
X1389Y1257D01*
X1411Y1257D02*
X1420Y1257D01*
X1448Y1257D02*
X1457Y1257D01*
X1498Y1257D02*
X1507Y1257D01*
X1548Y1257D02*
X1557Y1257D01*
X1576Y1257D02*
X1584Y1257D01*
X1616Y1257D02*
X1625Y1257D01*
X1654Y1257D02*
X1662Y1257D01*
X1695Y1257D02*
X1704Y1257D01*
X1712Y1257D02*
X1720Y1257D01*
X595Y1256D02*
X604Y1256D01*
X623Y1256D02*
X632Y1256D01*
X727Y1256D02*
X736Y1256D01*
X765Y1256D02*
X773Y1256D01*
X801Y1256D02*
X810Y1256D01*
X828Y1256D02*
X837Y1256D01*
X952Y1256D02*
X978Y1256D01*
X1001Y1256D02*
X1009Y1256D01*
X1020Y1256D02*
X1030Y1256D01*
X1038Y1256D02*
X1047Y1256D01*
X1069Y1256D02*
X1078Y1256D01*
X1114Y1256D02*
X1115Y1256D01*
X1223Y1256D02*
X1235Y1256D01*
X1275Y1256D02*
X1283Y1256D01*
X1312Y1256D02*
X1320Y1256D01*
X1380Y1256D02*
X1389Y1256D01*
X1411Y1256D02*
X1420Y1256D01*
X1449Y1256D02*
X1457Y1256D01*
X1498Y1256D02*
X1507Y1256D01*
X1548Y1256D02*
X1557Y1256D01*
X1576Y1256D02*
X1584Y1256D01*
X1616Y1256D02*
X1625Y1256D01*
X1654Y1256D02*
X1662Y1256D01*
X1694Y1256D02*
X1703Y1256D01*
X1712Y1256D02*
X1721Y1256D01*
X595Y1255D02*
X604Y1255D01*
X623Y1255D02*
X632Y1255D01*
X727Y1255D02*
X736Y1255D01*
X765Y1255D02*
X773Y1255D01*
X801Y1255D02*
X810Y1255D01*
X827Y1255D02*
X836Y1255D01*
X951Y1255D02*
X978Y1255D01*
X1001Y1255D02*
X1009Y1255D01*
X1020Y1255D02*
X1029Y1255D01*
X1038Y1255D02*
X1047Y1255D01*
X1069Y1255D02*
X1078Y1255D01*
X1223Y1255D02*
X1235Y1255D01*
X1275Y1255D02*
X1283Y1255D01*
X1312Y1255D02*
X1320Y1255D01*
X1380Y1255D02*
X1389Y1255D01*
X1411Y1255D02*
X1420Y1255D01*
X1449Y1255D02*
X1457Y1255D01*
X1498Y1255D02*
X1507Y1255D01*
X1548Y1255D02*
X1556Y1255D01*
X1576Y1255D02*
X1584Y1255D01*
X1616Y1255D02*
X1625Y1255D01*
X1654Y1255D02*
X1662Y1255D01*
X1694Y1255D02*
X1703Y1255D01*
X1712Y1255D02*
X1721Y1255D01*
X595Y1254D02*
X604Y1254D01*
X623Y1254D02*
X632Y1254D01*
X727Y1254D02*
X736Y1254D01*
X765Y1254D02*
X773Y1254D01*
X802Y1254D02*
X811Y1254D01*
X827Y1254D02*
X836Y1254D01*
X951Y1254D02*
X978Y1254D01*
X1001Y1254D02*
X1009Y1254D01*
X1020Y1254D02*
X1029Y1254D01*
X1038Y1254D02*
X1047Y1254D01*
X1069Y1254D02*
X1078Y1254D01*
X1224Y1254D02*
X1234Y1254D01*
X1275Y1254D02*
X1283Y1254D01*
X1312Y1254D02*
X1320Y1254D01*
X1380Y1254D02*
X1389Y1254D01*
X1411Y1254D02*
X1420Y1254D01*
X1449Y1254D02*
X1457Y1254D01*
X1498Y1254D02*
X1507Y1254D01*
X1548Y1254D02*
X1556Y1254D01*
X1576Y1254D02*
X1584Y1254D01*
X1616Y1254D02*
X1625Y1254D01*
X1654Y1254D02*
X1662Y1254D01*
X1694Y1254D02*
X1703Y1254D01*
X1712Y1254D02*
X1721Y1254D01*
X595Y1253D02*
X604Y1253D01*
X623Y1253D02*
X632Y1253D01*
X727Y1253D02*
X736Y1253D01*
X765Y1253D02*
X773Y1253D01*
X802Y1253D02*
X811Y1253D01*
X826Y1253D02*
X835Y1253D01*
X951Y1253D02*
X978Y1253D01*
X1001Y1253D02*
X1009Y1253D01*
X1019Y1253D02*
X1028Y1253D01*
X1038Y1253D02*
X1047Y1253D01*
X1069Y1253D02*
X1078Y1253D01*
X1224Y1253D02*
X1234Y1253D01*
X1275Y1253D02*
X1283Y1253D01*
X1312Y1253D02*
X1320Y1253D01*
X1380Y1253D02*
X1389Y1253D01*
X1411Y1253D02*
X1420Y1253D01*
X1449Y1253D02*
X1457Y1253D01*
X1498Y1253D02*
X1507Y1253D01*
X1548Y1253D02*
X1556Y1253D01*
X1576Y1253D02*
X1584Y1253D01*
X1616Y1253D02*
X1625Y1253D01*
X1654Y1253D02*
X1662Y1253D01*
X1694Y1253D02*
X1703Y1253D01*
X1713Y1253D02*
X1721Y1253D01*
X595Y1252D02*
X604Y1252D01*
X623Y1252D02*
X632Y1252D01*
X727Y1252D02*
X736Y1252D01*
X765Y1252D02*
X773Y1252D01*
X802Y1252D02*
X811Y1252D01*
X826Y1252D02*
X835Y1252D01*
X951Y1252D02*
X978Y1252D01*
X1001Y1252D02*
X1009Y1252D01*
X1019Y1252D02*
X1028Y1252D01*
X1038Y1252D02*
X1047Y1252D01*
X1069Y1252D02*
X1078Y1252D01*
X1223Y1252D02*
X1235Y1252D01*
X1275Y1252D02*
X1283Y1252D01*
X1312Y1252D02*
X1320Y1252D01*
X1380Y1252D02*
X1389Y1252D01*
X1411Y1252D02*
X1420Y1252D01*
X1449Y1252D02*
X1457Y1252D01*
X1498Y1252D02*
X1507Y1252D01*
X1548Y1252D02*
X1556Y1252D01*
X1576Y1252D02*
X1584Y1252D01*
X1616Y1252D02*
X1625Y1252D01*
X1654Y1252D02*
X1662Y1252D01*
X1693Y1252D02*
X1702Y1252D01*
X1713Y1252D02*
X1722Y1252D01*
X595Y1251D02*
X604Y1251D01*
X623Y1251D02*
X632Y1251D01*
X727Y1251D02*
X736Y1251D01*
X765Y1251D02*
X773Y1251D01*
X803Y1251D02*
X812Y1251D01*
X826Y1251D02*
X835Y1251D01*
X952Y1251D02*
X978Y1251D01*
X1001Y1251D02*
X1009Y1251D01*
X1018Y1251D02*
X1027Y1251D01*
X1038Y1251D02*
X1047Y1251D01*
X1070Y1251D02*
X1078Y1251D01*
X1222Y1251D02*
X1236Y1251D01*
X1275Y1251D02*
X1283Y1251D01*
X1312Y1251D02*
X1320Y1251D01*
X1380Y1251D02*
X1389Y1251D01*
X1411Y1251D02*
X1420Y1251D01*
X1448Y1251D02*
X1457Y1251D01*
X1498Y1251D02*
X1507Y1251D01*
X1548Y1251D02*
X1557Y1251D01*
X1576Y1251D02*
X1584Y1251D01*
X1616Y1251D02*
X1625Y1251D01*
X1654Y1251D02*
X1662Y1251D01*
X1693Y1251D02*
X1702Y1251D01*
X1713Y1251D02*
X1722Y1251D01*
X594Y1250D02*
X632Y1250D01*
X727Y1250D02*
X736Y1250D01*
X765Y1250D02*
X773Y1250D01*
X803Y1250D02*
X812Y1250D01*
X825Y1250D02*
X834Y1250D01*
X953Y1250D02*
X978Y1250D01*
X1001Y1250D02*
X1009Y1250D01*
X1018Y1250D02*
X1027Y1250D01*
X1038Y1250D02*
X1047Y1250D01*
X1070Y1250D02*
X1078Y1250D01*
X1222Y1250D02*
X1236Y1250D01*
X1275Y1250D02*
X1283Y1250D01*
X1312Y1250D02*
X1320Y1250D01*
X1380Y1250D02*
X1389Y1250D01*
X1412Y1250D02*
X1420Y1250D01*
X1448Y1250D02*
X1457Y1250D01*
X1498Y1250D02*
X1507Y1250D01*
X1548Y1250D02*
X1557Y1250D01*
X1576Y1250D02*
X1584Y1250D01*
X1616Y1250D02*
X1625Y1250D01*
X1654Y1250D02*
X1662Y1250D01*
X1693Y1250D02*
X1702Y1250D01*
X1714Y1250D02*
X1722Y1250D01*
X592Y1249D02*
X632Y1249D01*
X727Y1249D02*
X736Y1249D01*
X765Y1249D02*
X773Y1249D01*
X804Y1249D02*
X813Y1249D01*
X825Y1249D02*
X834Y1249D01*
X956Y1249D02*
X978Y1249D01*
X1001Y1249D02*
X1009Y1249D01*
X1017Y1249D02*
X1027Y1249D01*
X1038Y1249D02*
X1047Y1249D01*
X1070Y1249D02*
X1079Y1249D01*
X1221Y1249D02*
X1237Y1249D01*
X1275Y1249D02*
X1283Y1249D01*
X1312Y1249D02*
X1320Y1249D01*
X1380Y1249D02*
X1389Y1249D01*
X1412Y1249D02*
X1420Y1249D01*
X1448Y1249D02*
X1457Y1249D01*
X1498Y1249D02*
X1507Y1249D01*
X1549Y1249D02*
X1557Y1249D01*
X1576Y1249D02*
X1584Y1249D01*
X1616Y1249D02*
X1625Y1249D01*
X1654Y1249D02*
X1662Y1249D01*
X1692Y1249D02*
X1701Y1249D01*
X1714Y1249D02*
X1723Y1249D01*
X591Y1248D02*
X632Y1248D01*
X727Y1248D02*
X736Y1248D01*
X765Y1248D02*
X773Y1248D01*
X804Y1248D02*
X813Y1248D01*
X824Y1248D02*
X834Y1248D01*
X970Y1248D02*
X978Y1248D01*
X1001Y1248D02*
X1009Y1248D01*
X1017Y1248D02*
X1026Y1248D01*
X1038Y1248D02*
X1047Y1248D01*
X1070Y1248D02*
X1079Y1248D01*
X1221Y1248D02*
X1237Y1248D01*
X1275Y1248D02*
X1283Y1248D01*
X1312Y1248D02*
X1320Y1248D01*
X1380Y1248D02*
X1389Y1248D01*
X1412Y1248D02*
X1421Y1248D01*
X1447Y1248D02*
X1456Y1248D01*
X1498Y1248D02*
X1507Y1248D01*
X1549Y1248D02*
X1558Y1248D01*
X1576Y1248D02*
X1584Y1248D01*
X1616Y1248D02*
X1625Y1248D01*
X1654Y1248D02*
X1662Y1248D01*
X1692Y1248D02*
X1701Y1248D01*
X1714Y1248D02*
X1723Y1248D01*
X591Y1247D02*
X632Y1247D01*
X727Y1247D02*
X736Y1247D01*
X765Y1247D02*
X773Y1247D01*
X804Y1247D02*
X813Y1247D01*
X824Y1247D02*
X833Y1247D01*
X970Y1247D02*
X978Y1247D01*
X1001Y1247D02*
X1009Y1247D01*
X1017Y1247D02*
X1026Y1247D01*
X1038Y1247D02*
X1047Y1247D01*
X1070Y1247D02*
X1080Y1247D01*
X1220Y1247D02*
X1238Y1247D01*
X1275Y1247D02*
X1283Y1247D01*
X1312Y1247D02*
X1320Y1247D01*
X1380Y1247D02*
X1389Y1247D01*
X1412Y1247D02*
X1421Y1247D01*
X1447Y1247D02*
X1456Y1247D01*
X1498Y1247D02*
X1507Y1247D01*
X1549Y1247D02*
X1558Y1247D01*
X1576Y1247D02*
X1584Y1247D01*
X1616Y1247D02*
X1625Y1247D01*
X1654Y1247D02*
X1662Y1247D01*
X1692Y1247D02*
X1701Y1247D01*
X1715Y1247D02*
X1723Y1247D01*
X591Y1246D02*
X632Y1246D01*
X676Y1246D02*
X687Y1246D01*
X727Y1246D02*
X736Y1246D01*
X765Y1246D02*
X773Y1246D01*
X805Y1246D02*
X814Y1246D01*
X824Y1246D02*
X833Y1246D01*
X970Y1246D02*
X978Y1246D01*
X1001Y1246D02*
X1009Y1246D01*
X1016Y1246D02*
X1025Y1246D01*
X1038Y1246D02*
X1047Y1246D01*
X1071Y1246D02*
X1080Y1246D01*
X1219Y1246D02*
X1238Y1246D01*
X1275Y1246D02*
X1283Y1246D01*
X1312Y1246D02*
X1320Y1246D01*
X1380Y1246D02*
X1389Y1246D01*
X1413Y1246D02*
X1422Y1246D01*
X1446Y1246D02*
X1456Y1246D01*
X1498Y1246D02*
X1507Y1246D01*
X1549Y1246D02*
X1559Y1246D01*
X1576Y1246D02*
X1584Y1246D01*
X1616Y1246D02*
X1625Y1246D01*
X1654Y1246D02*
X1662Y1246D01*
X1692Y1246D02*
X1700Y1246D01*
X1715Y1246D02*
X1724Y1246D01*
X591Y1245D02*
X632Y1245D01*
X674Y1245D02*
X689Y1245D01*
X727Y1245D02*
X736Y1245D01*
X765Y1245D02*
X773Y1245D01*
X805Y1245D02*
X814Y1245D01*
X823Y1245D02*
X832Y1245D01*
X970Y1245D02*
X978Y1245D01*
X1001Y1245D02*
X1009Y1245D01*
X1016Y1245D02*
X1025Y1245D01*
X1038Y1245D02*
X1047Y1245D01*
X1071Y1245D02*
X1081Y1245D01*
X1219Y1245D02*
X1239Y1245D01*
X1275Y1245D02*
X1283Y1245D01*
X1312Y1245D02*
X1320Y1245D01*
X1380Y1245D02*
X1389Y1245D01*
X1413Y1245D02*
X1422Y1245D01*
X1446Y1245D02*
X1455Y1245D01*
X1498Y1245D02*
X1507Y1245D01*
X1550Y1245D02*
X1559Y1245D01*
X1576Y1245D02*
X1584Y1245D01*
X1616Y1245D02*
X1625Y1245D01*
X1654Y1245D02*
X1662Y1245D01*
X1691Y1245D02*
X1700Y1245D01*
X1715Y1245D02*
X1724Y1245D01*
X591Y1244D02*
X632Y1244D01*
X674Y1244D02*
X690Y1244D01*
X727Y1244D02*
X736Y1244D01*
X765Y1244D02*
X773Y1244D01*
X805Y1244D02*
X815Y1244D01*
X823Y1244D02*
X832Y1244D01*
X970Y1244D02*
X978Y1244D01*
X1001Y1244D02*
X1009Y1244D01*
X1015Y1244D02*
X1024Y1244D01*
X1038Y1244D02*
X1047Y1244D01*
X1072Y1244D02*
X1081Y1244D01*
X1218Y1244D02*
X1240Y1244D01*
X1275Y1244D02*
X1283Y1244D01*
X1312Y1244D02*
X1320Y1244D01*
X1380Y1244D02*
X1389Y1244D01*
X1414Y1244D02*
X1423Y1244D01*
X1445Y1244D02*
X1455Y1244D01*
X1498Y1244D02*
X1507Y1244D01*
X1550Y1244D02*
X1560Y1244D01*
X1576Y1244D02*
X1584Y1244D01*
X1616Y1244D02*
X1625Y1244D01*
X1654Y1244D02*
X1662Y1244D01*
X1691Y1244D02*
X1700Y1244D01*
X1715Y1244D02*
X1724Y1244D01*
X591Y1243D02*
X632Y1243D01*
X673Y1243D02*
X690Y1243D01*
X727Y1243D02*
X736Y1243D01*
X765Y1243D02*
X773Y1243D01*
X806Y1243D02*
X815Y1243D01*
X823Y1243D02*
X832Y1243D01*
X970Y1243D02*
X978Y1243D01*
X1001Y1243D02*
X1009Y1243D01*
X1015Y1243D02*
X1024Y1243D01*
X1038Y1243D02*
X1047Y1243D01*
X1072Y1243D02*
X1081Y1243D01*
X1218Y1243D02*
X1228Y1243D01*
X1230Y1243D02*
X1240Y1243D01*
X1275Y1243D02*
X1283Y1243D01*
X1312Y1243D02*
X1320Y1243D01*
X1380Y1243D02*
X1389Y1243D01*
X1414Y1243D02*
X1423Y1243D01*
X1445Y1243D02*
X1454Y1243D01*
X1498Y1243D02*
X1507Y1243D01*
X1551Y1243D02*
X1560Y1243D01*
X1576Y1243D02*
X1584Y1243D01*
X1616Y1243D02*
X1625Y1243D01*
X1654Y1243D02*
X1662Y1243D01*
X1691Y1243D02*
X1700Y1243D01*
X1716Y1243D02*
X1724Y1243D01*
X592Y1242D02*
X632Y1242D01*
X673Y1242D02*
X691Y1242D01*
X727Y1242D02*
X736Y1242D01*
X765Y1242D02*
X773Y1242D01*
X806Y1242D02*
X815Y1242D01*
X822Y1242D02*
X831Y1242D01*
X970Y1242D02*
X978Y1242D01*
X1001Y1242D02*
X1009Y1242D01*
X1014Y1242D02*
X1024Y1242D01*
X1038Y1242D02*
X1047Y1242D01*
X1073Y1242D02*
X1081Y1242D01*
X1217Y1242D02*
X1227Y1242D01*
X1231Y1242D02*
X1241Y1242D01*
X1275Y1242D02*
X1283Y1242D01*
X1312Y1242D02*
X1320Y1242D01*
X1380Y1242D02*
X1389Y1242D01*
X1415Y1242D02*
X1424Y1242D01*
X1444Y1242D02*
X1454Y1242D01*
X1498Y1242D02*
X1507Y1242D01*
X1551Y1242D02*
X1561Y1242D01*
X1576Y1242D02*
X1584Y1242D01*
X1616Y1242D02*
X1625Y1242D01*
X1654Y1242D02*
X1662Y1242D01*
X1690Y1242D02*
X1725Y1242D01*
X595Y1241D02*
X604Y1241D01*
X673Y1241D02*
X691Y1241D01*
X727Y1241D02*
X736Y1241D01*
X765Y1241D02*
X773Y1241D01*
X807Y1241D02*
X816Y1241D01*
X822Y1241D02*
X831Y1241D01*
X970Y1241D02*
X978Y1241D01*
X1001Y1241D02*
X1009Y1241D01*
X1014Y1241D02*
X1023Y1241D01*
X1038Y1241D02*
X1047Y1241D01*
X1073Y1241D02*
X1080Y1241D01*
X1217Y1241D02*
X1227Y1241D01*
X1231Y1241D02*
X1241Y1241D01*
X1275Y1241D02*
X1283Y1241D01*
X1312Y1241D02*
X1320Y1241D01*
X1380Y1241D02*
X1389Y1241D01*
X1415Y1241D02*
X1424Y1241D01*
X1444Y1241D02*
X1453Y1241D01*
X1498Y1241D02*
X1507Y1241D01*
X1552Y1241D02*
X1561Y1241D01*
X1576Y1241D02*
X1584Y1241D01*
X1616Y1241D02*
X1625Y1241D01*
X1654Y1241D02*
X1662Y1241D01*
X1690Y1241D02*
X1725Y1241D01*
X595Y1240D02*
X604Y1240D01*
X673Y1240D02*
X691Y1240D01*
X727Y1240D02*
X736Y1240D01*
X765Y1240D02*
X773Y1240D01*
X807Y1240D02*
X816Y1240D01*
X821Y1240D02*
X830Y1240D01*
X970Y1240D02*
X978Y1240D01*
X1001Y1240D02*
X1009Y1240D01*
X1013Y1240D02*
X1023Y1240D01*
X1038Y1240D02*
X1047Y1240D01*
X1074Y1240D02*
X1080Y1240D01*
X1216Y1240D02*
X1226Y1240D01*
X1232Y1240D02*
X1242Y1240D01*
X1275Y1240D02*
X1283Y1240D01*
X1312Y1240D02*
X1320Y1240D01*
X1380Y1240D02*
X1389Y1240D01*
X1416Y1240D02*
X1425Y1240D01*
X1443Y1240D02*
X1453Y1240D01*
X1498Y1240D02*
X1507Y1240D01*
X1552Y1240D02*
X1562Y1240D01*
X1576Y1240D02*
X1584Y1240D01*
X1616Y1240D02*
X1625Y1240D01*
X1654Y1240D02*
X1662Y1240D01*
X1690Y1240D02*
X1725Y1240D01*
X595Y1239D02*
X604Y1239D01*
X673Y1239D02*
X691Y1239D01*
X727Y1239D02*
X736Y1239D01*
X765Y1239D02*
X773Y1239D01*
X807Y1239D02*
X816Y1239D01*
X821Y1239D02*
X830Y1239D01*
X970Y1239D02*
X978Y1239D01*
X1001Y1239D02*
X1009Y1239D01*
X1013Y1239D02*
X1022Y1239D01*
X1038Y1239D02*
X1047Y1239D01*
X1074Y1239D02*
X1080Y1239D01*
X1215Y1239D02*
X1225Y1239D01*
X1233Y1239D02*
X1243Y1239D01*
X1275Y1239D02*
X1283Y1239D01*
X1312Y1239D02*
X1320Y1239D01*
X1380Y1239D02*
X1389Y1239D01*
X1416Y1239D02*
X1425Y1239D01*
X1443Y1239D02*
X1452Y1239D01*
X1498Y1239D02*
X1507Y1239D01*
X1553Y1239D02*
X1562Y1239D01*
X1576Y1239D02*
X1584Y1239D01*
X1616Y1239D02*
X1625Y1239D01*
X1654Y1239D02*
X1662Y1239D01*
X1689Y1239D02*
X1726Y1239D01*
X595Y1238D02*
X604Y1238D01*
X673Y1238D02*
X691Y1238D01*
X727Y1238D02*
X736Y1238D01*
X765Y1238D02*
X773Y1238D01*
X808Y1238D02*
X817Y1238D01*
X821Y1238D02*
X830Y1238D01*
X970Y1238D02*
X978Y1238D01*
X1001Y1238D02*
X1009Y1238D01*
X1013Y1238D02*
X1022Y1238D01*
X1038Y1238D02*
X1047Y1238D01*
X1075Y1238D02*
X1080Y1238D01*
X1215Y1238D02*
X1225Y1238D01*
X1233Y1238D02*
X1243Y1238D01*
X1275Y1238D02*
X1283Y1238D01*
X1312Y1238D02*
X1320Y1238D01*
X1380Y1238D02*
X1389Y1238D01*
X1417Y1238D02*
X1426Y1238D01*
X1442Y1238D02*
X1452Y1238D01*
X1498Y1238D02*
X1507Y1238D01*
X1553Y1238D02*
X1563Y1238D01*
X1576Y1238D02*
X1584Y1238D01*
X1616Y1238D02*
X1625Y1238D01*
X1654Y1238D02*
X1662Y1238D01*
X1689Y1238D02*
X1726Y1238D01*
X595Y1237D02*
X604Y1237D01*
X673Y1237D02*
X691Y1237D01*
X727Y1237D02*
X736Y1237D01*
X765Y1237D02*
X773Y1237D01*
X808Y1237D02*
X817Y1237D01*
X820Y1237D02*
X829Y1237D01*
X970Y1237D02*
X978Y1237D01*
X1001Y1237D02*
X1009Y1237D01*
X1012Y1237D02*
X1021Y1237D01*
X1038Y1237D02*
X1047Y1237D01*
X1075Y1237D02*
X1079Y1237D01*
X1214Y1237D02*
X1224Y1237D01*
X1234Y1237D02*
X1244Y1237D01*
X1275Y1237D02*
X1283Y1237D01*
X1312Y1237D02*
X1320Y1237D01*
X1380Y1237D02*
X1389Y1237D01*
X1417Y1237D02*
X1426Y1237D01*
X1442Y1237D02*
X1451Y1237D01*
X1498Y1237D02*
X1507Y1237D01*
X1554Y1237D02*
X1563Y1237D01*
X1576Y1237D02*
X1584Y1237D01*
X1616Y1237D02*
X1625Y1237D01*
X1654Y1237D02*
X1662Y1237D01*
X1689Y1237D02*
X1726Y1237D01*
X595Y1236D02*
X604Y1236D01*
X673Y1236D02*
X691Y1236D01*
X727Y1236D02*
X736Y1236D01*
X765Y1236D02*
X773Y1236D01*
X809Y1236D02*
X818Y1236D01*
X820Y1236D02*
X829Y1236D01*
X970Y1236D02*
X978Y1236D01*
X1001Y1236D02*
X1009Y1236D01*
X1012Y1236D02*
X1021Y1236D01*
X1038Y1236D02*
X1047Y1236D01*
X1076Y1236D02*
X1079Y1236D01*
X1214Y1236D02*
X1224Y1236D01*
X1234Y1236D02*
X1244Y1236D01*
X1275Y1236D02*
X1283Y1236D01*
X1312Y1236D02*
X1320Y1236D01*
X1380Y1236D02*
X1389Y1236D01*
X1418Y1236D02*
X1427Y1236D01*
X1441Y1236D02*
X1451Y1236D01*
X1498Y1236D02*
X1507Y1236D01*
X1554Y1236D02*
X1564Y1236D01*
X1576Y1236D02*
X1584Y1236D01*
X1616Y1236D02*
X1625Y1236D01*
X1654Y1236D02*
X1662Y1236D01*
X1689Y1236D02*
X1726Y1236D01*
X595Y1235D02*
X604Y1235D01*
X673Y1235D02*
X691Y1235D01*
X727Y1235D02*
X736Y1235D01*
X765Y1235D02*
X773Y1235D01*
X809Y1235D02*
X828Y1235D01*
X970Y1235D02*
X978Y1235D01*
X1001Y1235D02*
X1009Y1235D01*
X1011Y1235D02*
X1020Y1235D01*
X1038Y1235D02*
X1047Y1235D01*
X1076Y1235D02*
X1079Y1235D01*
X1213Y1235D02*
X1223Y1235D01*
X1235Y1235D02*
X1245Y1235D01*
X1275Y1235D02*
X1283Y1235D01*
X1312Y1235D02*
X1320Y1235D01*
X1380Y1235D02*
X1389Y1235D01*
X1418Y1235D02*
X1427Y1235D01*
X1441Y1235D02*
X1450Y1235D01*
X1498Y1235D02*
X1507Y1235D01*
X1555Y1235D02*
X1564Y1235D01*
X1576Y1235D02*
X1584Y1235D01*
X1616Y1235D02*
X1625Y1235D01*
X1654Y1235D02*
X1662Y1235D01*
X1688Y1235D02*
X1727Y1235D01*
X595Y1234D02*
X604Y1234D01*
X673Y1234D02*
X691Y1234D01*
X727Y1234D02*
X736Y1234D01*
X765Y1234D02*
X773Y1234D01*
X809Y1234D02*
X828Y1234D01*
X970Y1234D02*
X978Y1234D01*
X1001Y1234D02*
X1009Y1234D01*
X1011Y1234D02*
X1020Y1234D01*
X1038Y1234D02*
X1047Y1234D01*
X1077Y1234D02*
X1079Y1234D01*
X1212Y1234D02*
X1222Y1234D01*
X1236Y1234D02*
X1245Y1234D01*
X1275Y1234D02*
X1283Y1234D01*
X1312Y1234D02*
X1320Y1234D01*
X1380Y1234D02*
X1389Y1234D01*
X1419Y1234D02*
X1428Y1234D01*
X1440Y1234D02*
X1450Y1234D01*
X1498Y1234D02*
X1507Y1234D01*
X1555Y1234D02*
X1565Y1234D01*
X1576Y1234D02*
X1584Y1234D01*
X1616Y1234D02*
X1625Y1234D01*
X1654Y1234D02*
X1662Y1234D01*
X1688Y1234D02*
X1727Y1234D01*
X595Y1233D02*
X604Y1233D01*
X673Y1233D02*
X691Y1233D01*
X727Y1233D02*
X736Y1233D01*
X765Y1233D02*
X773Y1233D01*
X810Y1233D02*
X828Y1233D01*
X970Y1233D02*
X978Y1233D01*
X1001Y1233D02*
X1020Y1233D01*
X1038Y1233D02*
X1047Y1233D01*
X1077Y1233D02*
X1079Y1233D01*
X1212Y1233D02*
X1222Y1233D01*
X1236Y1233D02*
X1246Y1233D01*
X1275Y1233D02*
X1283Y1233D01*
X1312Y1233D02*
X1320Y1233D01*
X1380Y1233D02*
X1389Y1233D01*
X1419Y1233D02*
X1428Y1233D01*
X1440Y1233D02*
X1449Y1233D01*
X1498Y1233D02*
X1507Y1233D01*
X1556Y1233D02*
X1565Y1233D01*
X1576Y1233D02*
X1584Y1233D01*
X1616Y1233D02*
X1625Y1233D01*
X1654Y1233D02*
X1662Y1233D01*
X1688Y1233D02*
X1727Y1233D01*
X595Y1232D02*
X604Y1232D01*
X673Y1232D02*
X691Y1232D01*
X727Y1232D02*
X736Y1232D01*
X765Y1232D02*
X773Y1232D01*
X810Y1232D02*
X827Y1232D01*
X970Y1232D02*
X978Y1232D01*
X1001Y1232D02*
X1019Y1232D01*
X1038Y1232D02*
X1047Y1232D01*
X1078Y1232D02*
X1079Y1232D01*
X1211Y1232D02*
X1221Y1232D01*
X1237Y1232D02*
X1247Y1232D01*
X1275Y1232D02*
X1283Y1232D01*
X1312Y1232D02*
X1320Y1232D01*
X1380Y1232D02*
X1389Y1232D01*
X1420Y1232D02*
X1429Y1232D01*
X1439Y1232D02*
X1449Y1232D01*
X1498Y1232D02*
X1507Y1232D01*
X1556Y1232D02*
X1566Y1232D01*
X1576Y1232D02*
X1584Y1232D01*
X1616Y1232D02*
X1625Y1232D01*
X1654Y1232D02*
X1662Y1232D01*
X1687Y1232D02*
X1696Y1232D01*
X1719Y1232D02*
X1728Y1232D01*
X595Y1231D02*
X604Y1231D01*
X674Y1231D02*
X690Y1231D01*
X727Y1231D02*
X736Y1231D01*
X765Y1231D02*
X773Y1231D01*
X810Y1231D02*
X827Y1231D01*
X970Y1231D02*
X978Y1231D01*
X1001Y1231D02*
X1019Y1231D01*
X1038Y1231D02*
X1047Y1231D01*
X1078Y1231D02*
X1079Y1231D01*
X1211Y1231D02*
X1221Y1231D01*
X1237Y1231D02*
X1247Y1231D01*
X1275Y1231D02*
X1283Y1231D01*
X1312Y1231D02*
X1320Y1231D01*
X1380Y1231D02*
X1389Y1231D01*
X1420Y1231D02*
X1429Y1231D01*
X1439Y1231D02*
X1448Y1231D01*
X1498Y1231D02*
X1507Y1231D01*
X1557Y1231D02*
X1566Y1231D01*
X1576Y1231D02*
X1584Y1231D01*
X1616Y1231D02*
X1625Y1231D01*
X1654Y1231D02*
X1662Y1231D01*
X1687Y1231D02*
X1696Y1231D01*
X1719Y1231D02*
X1728Y1231D01*
X595Y1230D02*
X604Y1230D01*
X674Y1230D02*
X690Y1230D01*
X727Y1230D02*
X736Y1230D01*
X765Y1230D02*
X773Y1230D01*
X811Y1230D02*
X827Y1230D01*
X970Y1230D02*
X978Y1230D01*
X1001Y1230D02*
X1018Y1230D01*
X1038Y1230D02*
X1047Y1230D01*
X1079Y1230D02*
X1079Y1230D01*
X1210Y1230D02*
X1220Y1230D01*
X1238Y1230D02*
X1248Y1230D01*
X1275Y1230D02*
X1283Y1230D01*
X1312Y1230D02*
X1320Y1230D01*
X1380Y1230D02*
X1389Y1230D01*
X1421Y1230D02*
X1430Y1230D01*
X1438Y1230D02*
X1448Y1230D01*
X1498Y1230D02*
X1507Y1230D01*
X1557Y1230D02*
X1567Y1230D01*
X1576Y1230D02*
X1584Y1230D01*
X1616Y1230D02*
X1625Y1230D01*
X1654Y1230D02*
X1662Y1230D01*
X1687Y1230D02*
X1696Y1230D01*
X1719Y1230D02*
X1728Y1230D01*
X595Y1229D02*
X604Y1229D01*
X676Y1229D02*
X688Y1229D01*
X727Y1229D02*
X736Y1229D01*
X765Y1229D02*
X773Y1229D01*
X811Y1229D02*
X826Y1229D01*
X970Y1229D02*
X978Y1229D01*
X1001Y1229D02*
X1018Y1229D01*
X1038Y1229D02*
X1047Y1229D01*
X1079Y1229D02*
X1080Y1229D01*
X1210Y1229D02*
X1220Y1229D01*
X1238Y1229D02*
X1248Y1229D01*
X1275Y1229D02*
X1283Y1229D01*
X1312Y1229D02*
X1320Y1229D01*
X1380Y1229D02*
X1389Y1229D01*
X1421Y1229D02*
X1430Y1229D01*
X1438Y1229D02*
X1447Y1229D01*
X1498Y1229D02*
X1507Y1229D01*
X1558Y1229D02*
X1567Y1229D01*
X1576Y1229D02*
X1584Y1229D01*
X1617Y1229D02*
X1625Y1229D01*
X1653Y1229D02*
X1662Y1229D01*
X1687Y1229D02*
X1695Y1229D01*
X1720Y1229D02*
X1729Y1229D01*
X595Y1228D02*
X604Y1228D01*
X727Y1228D02*
X736Y1228D01*
X765Y1228D02*
X773Y1228D01*
X812Y1228D02*
X826Y1228D01*
X970Y1228D02*
X978Y1228D01*
X1001Y1228D02*
X1017Y1228D01*
X1038Y1228D02*
X1047Y1228D01*
X1080Y1228D02*
X1080Y1228D01*
X1209Y1228D02*
X1219Y1228D01*
X1239Y1228D02*
X1249Y1228D01*
X1275Y1228D02*
X1284Y1228D01*
X1311Y1228D02*
X1320Y1228D01*
X1380Y1228D02*
X1389Y1228D01*
X1422Y1228D02*
X1431Y1228D01*
X1437Y1228D02*
X1447Y1228D01*
X1498Y1228D02*
X1507Y1228D01*
X1558Y1228D02*
X1568Y1228D01*
X1576Y1228D02*
X1584Y1228D01*
X1617Y1228D02*
X1626Y1228D01*
X1653Y1228D02*
X1662Y1228D01*
X1686Y1228D02*
X1695Y1228D01*
X1720Y1228D02*
X1729Y1228D01*
X595Y1227D02*
X604Y1227D01*
X727Y1227D02*
X736Y1227D01*
X765Y1227D02*
X773Y1227D01*
X812Y1227D02*
X825Y1227D01*
X970Y1227D02*
X978Y1227D01*
X1001Y1227D02*
X1017Y1227D01*
X1038Y1227D02*
X1047Y1227D01*
X1080Y1227D02*
X1080Y1227D01*
X1208Y1227D02*
X1218Y1227D01*
X1240Y1227D02*
X1250Y1227D01*
X1275Y1227D02*
X1285Y1227D01*
X1310Y1227D02*
X1320Y1227D01*
X1380Y1227D02*
X1389Y1227D01*
X1422Y1227D02*
X1432Y1227D01*
X1436Y1227D02*
X1446Y1227D01*
X1498Y1227D02*
X1507Y1227D01*
X1559Y1227D02*
X1569Y1227D01*
X1576Y1227D02*
X1584Y1227D01*
X1617Y1227D02*
X1627Y1227D01*
X1652Y1227D02*
X1662Y1227D01*
X1686Y1227D02*
X1695Y1227D01*
X1720Y1227D02*
X1729Y1227D01*
X595Y1226D02*
X604Y1226D01*
X727Y1226D02*
X773Y1226D01*
X812Y1226D02*
X825Y1226D01*
X936Y1226D02*
X978Y1226D01*
X1001Y1226D02*
X1016Y1226D01*
X1038Y1226D02*
X1047Y1226D01*
X1081Y1226D02*
X1081Y1226D01*
X1208Y1226D02*
X1218Y1226D01*
X1240Y1226D02*
X1250Y1226D01*
X1276Y1226D02*
X1319Y1226D01*
X1347Y1226D02*
X1389Y1226D01*
X1423Y1226D02*
X1446Y1226D01*
X1483Y1226D02*
X1521Y1226D01*
X1559Y1226D02*
X1590Y1226D01*
X1617Y1226D02*
X1661Y1226D01*
X1686Y1226D02*
X1694Y1226D01*
X1721Y1226D02*
X1729Y1226D01*
X595Y1225D02*
X604Y1225D01*
X728Y1225D02*
X773Y1225D01*
X813Y1225D02*
X825Y1225D01*
X934Y1225D02*
X978Y1225D01*
X1001Y1225D02*
X1016Y1225D01*
X1038Y1225D02*
X1047Y1225D01*
X1081Y1225D02*
X1081Y1225D01*
X1207Y1225D02*
X1217Y1225D01*
X1241Y1225D02*
X1251Y1225D01*
X1276Y1225D02*
X1319Y1225D01*
X1344Y1225D02*
X1389Y1225D01*
X1423Y1225D02*
X1445Y1225D01*
X1481Y1225D02*
X1524Y1225D01*
X1560Y1225D02*
X1592Y1225D01*
X1618Y1225D02*
X1661Y1225D01*
X1685Y1225D02*
X1694Y1225D01*
X1721Y1225D02*
X1730Y1225D01*
X595Y1224D02*
X604Y1224D01*
X728Y1224D02*
X773Y1224D01*
X813Y1224D02*
X824Y1224D01*
X933Y1224D02*
X978Y1224D01*
X1001Y1224D02*
X1016Y1224D01*
X1038Y1224D02*
X1047Y1224D01*
X1207Y1224D02*
X1217Y1224D01*
X1241Y1224D02*
X1251Y1224D01*
X1276Y1224D02*
X1318Y1224D01*
X1344Y1224D02*
X1389Y1224D01*
X1424Y1224D02*
X1445Y1224D01*
X1480Y1224D02*
X1524Y1224D01*
X1560Y1224D02*
X1593Y1224D01*
X1618Y1224D02*
X1660Y1224D01*
X1685Y1224D02*
X1694Y1224D01*
X1721Y1224D02*
X1730Y1224D01*
X595Y1223D02*
X604Y1223D01*
X728Y1223D02*
X773Y1223D01*
X814Y1223D02*
X824Y1223D01*
X933Y1223D02*
X978Y1223D01*
X1001Y1223D02*
X1015Y1223D01*
X1039Y1223D02*
X1047Y1223D01*
X1082Y1223D02*
X1082Y1223D01*
X1206Y1223D02*
X1216Y1223D01*
X1242Y1223D02*
X1252Y1223D01*
X1277Y1223D02*
X1318Y1223D01*
X1343Y1223D02*
X1389Y1223D01*
X1424Y1223D02*
X1444Y1223D01*
X1480Y1223D02*
X1525Y1223D01*
X1561Y1223D02*
X1594Y1223D01*
X1619Y1223D02*
X1660Y1223D01*
X1685Y1223D02*
X1694Y1223D01*
X1722Y1223D02*
X1730Y1223D01*
X595Y1222D02*
X603Y1222D01*
X728Y1222D02*
X772Y1222D01*
X814Y1222D02*
X823Y1222D01*
X933Y1222D02*
X978Y1222D01*
X1001Y1222D02*
X1015Y1222D01*
X1039Y1222D02*
X1047Y1222D01*
X1083Y1222D02*
X1083Y1222D01*
X1206Y1222D02*
X1215Y1222D01*
X1243Y1222D02*
X1252Y1222D01*
X1278Y1222D02*
X1317Y1222D01*
X1343Y1222D02*
X1389Y1222D01*
X1425Y1222D02*
X1443Y1222D01*
X1480Y1222D02*
X1525Y1222D01*
X1562Y1222D02*
X1594Y1222D01*
X1620Y1222D02*
X1659Y1222D01*
X1685Y1222D02*
X1693Y1222D01*
X1722Y1222D02*
X1730Y1222D01*
X595Y1221D02*
X603Y1221D01*
X729Y1221D02*
X772Y1221D01*
X814Y1221D02*
X823Y1221D01*
X933Y1221D02*
X978Y1221D01*
X1001Y1221D02*
X1014Y1221D01*
X1039Y1221D02*
X1047Y1221D01*
X1206Y1221D02*
X1215Y1221D01*
X1243Y1221D02*
X1252Y1221D01*
X1279Y1221D02*
X1316Y1221D01*
X1343Y1221D02*
X1389Y1221D01*
X1426Y1221D02*
X1443Y1221D01*
X1480Y1221D02*
X1525Y1221D01*
X1562Y1221D02*
X1594Y1221D01*
X1621Y1221D02*
X1658Y1221D01*
X1685Y1221D02*
X1693Y1221D01*
X1722Y1221D02*
X1730Y1221D01*
X596Y1220D02*
X603Y1220D01*
X730Y1220D02*
X771Y1220D01*
X815Y1220D02*
X823Y1220D01*
X933Y1220D02*
X978Y1220D01*
X1001Y1220D02*
X1014Y1220D01*
X1039Y1220D02*
X1046Y1220D01*
X1206Y1220D02*
X1214Y1220D01*
X1244Y1220D02*
X1252Y1220D01*
X1280Y1220D02*
X1315Y1220D01*
X1343Y1220D02*
X1389Y1220D01*
X1427Y1220D02*
X1442Y1220D01*
X1480Y1220D02*
X1525Y1220D01*
X1564Y1220D02*
X1594Y1220D01*
X1622Y1220D02*
X1657Y1220D01*
X1685Y1220D02*
X1693Y1220D01*
X1723Y1220D02*
X1730Y1220D01*
X596Y1219D02*
X603Y1219D01*
X731Y1219D02*
X770Y1219D01*
X815Y1219D02*
X822Y1219D01*
X933Y1219D02*
X978Y1219D01*
X1001Y1219D02*
X1013Y1219D01*
X1039Y1219D02*
X1046Y1219D01*
X1207Y1219D02*
X1213Y1219D01*
X1245Y1219D02*
X1251Y1219D01*
X1281Y1219D02*
X1314Y1219D01*
X1344Y1219D02*
X1389Y1219D01*
X1428Y1219D02*
X1440Y1219D01*
X1480Y1219D02*
X1524Y1219D01*
X1565Y1219D02*
X1593Y1219D01*
X1623Y1219D02*
X1656Y1219D01*
X1686Y1219D02*
X1692Y1219D01*
X1723Y1219D02*
X1730Y1219D01*
X597Y1218D02*
X602Y1218D01*
X733Y1218D02*
X768Y1218D01*
X816Y1218D02*
X821Y1218D01*
X934Y1218D02*
X978Y1218D01*
X1001Y1218D02*
X1013Y1218D01*
X1040Y1218D02*
X1045Y1218D01*
X1208Y1218D02*
X1212Y1218D01*
X1246Y1218D02*
X1250Y1218D01*
X1283Y1218D02*
X1312Y1218D01*
X1345Y1218D02*
X1389Y1218D01*
X1430Y1218D02*
X1439Y1218D01*
X1481Y1218D02*
X1523Y1218D01*
X1567Y1218D02*
X1592Y1218D01*
X1625Y1218D02*
X1654Y1218D01*
X1687Y1218D02*
X1691Y1218D01*
X1724Y1218D02*
X1729Y1218D01*
X736Y1217D02*
X765Y1217D01*
X938Y1217D02*
X978Y1217D01*
X1001Y1217D02*
X1012Y1217D01*
X1288Y1217D02*
X1307Y1217D01*
X1349Y1217D02*
X1388Y1217D01*
X1434Y1217D02*
X1434Y1217D01*
X1485Y1217D02*
X1519Y1217D01*
X1573Y1217D02*
X1588Y1217D01*
X1630Y1217D02*
X1649Y1217D01*
X1689Y1217D02*
X1689Y1217D01*
D02*
G04 End of Silk0*
M02*