G04 MADE WITH FRITZING*
G04 WWW.FRITZING.ORG*
G04 DOUBLE SIDED*
G04 HOLES PLATED*
G04 CONTOUR ON CENTER OF CONTOUR VECTOR*
%ASAXBY*%
%FSLAX23Y23*%
%MOIN*%
%OFA0B0*%
%SFA1.0B1.0*%
%ADD10C,0.075000*%
%ADD11C,0.074000*%
%ADD12C,0.070925*%
%ADD13C,0.070866*%
%ADD14C,0.039370*%
%ADD15C,0.066000*%
%ADD16C,0.110000*%
%ADD17C,0.078000*%
%ADD18R,0.074803X0.062992*%
%ADD19R,0.062992X0.074803*%
%ADD20R,0.022000X0.050000*%
%ADD21R,0.050000X0.022000*%
%ADD22R,0.024000X0.087000*%
%ADD23R,0.013701X0.055000*%
%ADD24R,0.102362X0.062992*%
%ADD25R,0.062992X0.102362*%
%ADD26R,0.048000X0.088000*%
%ADD27R,0.141732X0.086614*%
%ADD28C,0.008000*%
%ADD29C,0.024000*%
%ADD30C,0.012000*%
%ADD31R,0.001000X0.001000*%
%LNCOPPER1*%
G90*
G70*
G54D10*
X1214Y1279D03*
X1678Y983D03*
X416Y324D03*
X614Y195D03*
X113Y1156D03*
X812Y479D03*
G54D11*
X363Y1077D03*
X263Y1077D03*
X363Y1177D03*
X263Y1177D03*
X363Y1277D03*
X263Y1277D03*
X363Y1077D03*
X263Y1077D03*
X363Y1177D03*
X263Y1177D03*
X363Y1277D03*
X263Y1277D03*
G54D12*
X1338Y392D03*
G54D13*
X1531Y392D03*
G54D14*
X1353Y745D03*
X1316Y709D03*
X1283Y671D03*
G54D15*
X283Y592D03*
X283Y690D03*
X205Y690D03*
X205Y592D03*
G54D16*
X98Y404D03*
X98Y878D03*
G54D15*
X283Y592D03*
X283Y690D03*
X205Y690D03*
X205Y592D03*
G54D16*
X98Y404D03*
X98Y878D03*
G54D17*
X1885Y1193D03*
X1885Y1093D03*
X1885Y993D03*
X1885Y893D03*
X1885Y793D03*
X1885Y693D03*
X1885Y593D03*
X832Y90D03*
X732Y90D03*
G54D14*
X656Y730D03*
X1736Y1092D03*
X1044Y1142D03*
X1483Y816D03*
X1466Y766D03*
X1043Y1057D03*
X553Y1069D03*
X1520Y1067D03*
X1292Y970D03*
X545Y513D03*
X547Y354D03*
X525Y803D03*
X755Y1113D03*
X565Y1233D03*
X365Y813D03*
X1105Y1233D03*
X1352Y621D03*
X1705Y524D03*
X1487Y939D03*
X1356Y931D03*
X421Y503D03*
G54D17*
X1258Y176D03*
X1158Y176D03*
X1058Y176D03*
X1544Y78D03*
X1444Y76D03*
G54D14*
X1101Y937D03*
X959Y884D03*
G54D18*
X657Y667D03*
X657Y790D03*
X857Y668D03*
X857Y790D03*
X755Y791D03*
X755Y669D03*
G54D19*
X542Y587D03*
X420Y587D03*
G54D20*
X1261Y543D03*
X1293Y543D03*
X1324Y543D03*
X1356Y543D03*
X1387Y543D03*
X1419Y543D03*
X1450Y543D03*
X1482Y543D03*
G54D21*
X1540Y601D03*
X1540Y633D03*
X1540Y664D03*
X1540Y696D03*
X1540Y727D03*
X1540Y759D03*
X1540Y790D03*
X1540Y822D03*
G54D20*
X1482Y881D03*
X1450Y881D03*
X1419Y881D03*
X1387Y881D03*
X1356Y881D03*
X1324Y881D03*
X1293Y881D03*
X1261Y881D03*
G54D21*
X1202Y822D03*
X1202Y790D03*
X1202Y759D03*
X1202Y727D03*
X1202Y696D03*
X1202Y664D03*
X1202Y633D03*
X1202Y601D03*
G54D22*
X893Y999D03*
X943Y999D03*
X993Y999D03*
X1043Y999D03*
X1043Y1205D03*
X993Y1205D03*
X943Y1205D03*
X893Y1205D03*
X1439Y995D03*
X1489Y995D03*
X1539Y995D03*
X1589Y995D03*
X1589Y1201D03*
X1539Y1201D03*
X1489Y1201D03*
X1439Y1201D03*
G54D23*
X1004Y283D03*
X978Y283D03*
X953Y283D03*
X927Y283D03*
X901Y283D03*
X876Y283D03*
X850Y283D03*
X799Y283D03*
X825Y283D03*
X773Y283D03*
X748Y283D03*
X722Y283D03*
X697Y283D03*
X671Y283D03*
X1004Y571D03*
X978Y571D03*
X953Y571D03*
X927Y571D03*
X901Y571D03*
X876Y571D03*
X850Y571D03*
X825Y571D03*
X799Y571D03*
X773Y571D03*
X748Y571D03*
X722Y571D03*
X697Y571D03*
X671Y571D03*
G54D18*
X1792Y347D03*
X1792Y469D03*
G54D19*
X1663Y1308D03*
X1541Y1308D03*
X1317Y1305D03*
X1440Y1305D03*
G54D18*
X1187Y1053D03*
X1187Y931D03*
G54D19*
X1674Y1096D03*
X1796Y1096D03*
X1672Y1191D03*
X1794Y1191D03*
X670Y990D03*
X792Y990D03*
X1118Y1304D03*
X996Y1304D03*
X772Y1303D03*
X894Y1303D03*
G54D18*
X1368Y1201D03*
X1368Y1079D03*
G54D19*
X811Y1204D03*
X689Y1204D03*
G54D24*
X415Y734D03*
X557Y734D03*
G54D25*
X519Y105D03*
X519Y247D03*
G54D18*
X1705Y592D03*
X1705Y470D03*
G54D24*
X416Y926D03*
X557Y926D03*
G54D19*
X800Y1103D03*
X678Y1103D03*
X831Y193D03*
X709Y193D03*
G54D26*
X188Y94D03*
X279Y94D03*
X370Y94D03*
G54D27*
X279Y338D03*
G54D18*
X1153Y339D03*
X1153Y461D03*
G54D19*
X1580Y231D03*
X1458Y231D03*
X1810Y234D03*
X1687Y234D03*
G54D18*
X971Y791D03*
X971Y669D03*
G54D28*
X723Y791D02*
X689Y790D01*
D02*
X416Y708D02*
X419Y619D01*
D02*
X415Y760D02*
X416Y900D01*
D02*
X282Y568D02*
X280Y376D01*
G54D29*
D02*
X493Y104D02*
X388Y96D01*
D02*
X545Y104D02*
X702Y92D01*
G54D28*
D02*
X1063Y573D02*
X1005Y571D01*
D02*
X786Y791D02*
X826Y790D01*
D02*
X721Y242D02*
X717Y225D01*
D02*
X722Y261D02*
X721Y242D01*
D02*
X826Y238D02*
X827Y225D01*
D02*
X825Y261D02*
X826Y238D01*
D02*
X831Y162D02*
X832Y114D01*
D02*
X749Y590D02*
X753Y643D01*
D02*
X1106Y633D02*
X1102Y517D01*
D02*
X1065Y666D02*
X1063Y573D01*
D02*
X1102Y517D02*
X900Y516D01*
D02*
X1183Y633D02*
X1106Y633D01*
D02*
X900Y516D02*
X901Y549D01*
D02*
X1183Y665D02*
X1065Y666D01*
D02*
X1737Y470D02*
X1761Y470D01*
D02*
X1185Y348D02*
X1317Y386D01*
D02*
X1761Y353D02*
X1552Y389D01*
D02*
X1483Y523D02*
X1490Y389D01*
D02*
X1490Y389D02*
X1510Y391D01*
D02*
X1451Y388D02*
X1359Y392D01*
D02*
X1450Y523D02*
X1451Y388D01*
D02*
X695Y443D02*
X696Y305D01*
D02*
X365Y443D02*
X695Y443D01*
D02*
X363Y689D02*
X365Y443D01*
D02*
X1833Y647D02*
X1867Y677D01*
D02*
X1560Y635D02*
X1619Y643D01*
D02*
X1619Y643D02*
X1833Y647D01*
D02*
X1737Y593D02*
X1861Y593D01*
D02*
X1673Y594D02*
X1560Y600D01*
D02*
X994Y1243D02*
X995Y1272D01*
D02*
X893Y1243D02*
X894Y1272D01*
D02*
X1822Y1095D02*
X1861Y1094D01*
D02*
X1820Y1192D02*
X1861Y1193D01*
D02*
X262Y1051D02*
X259Y928D01*
D02*
X259Y928D02*
X370Y926D01*
D02*
X668Y415D02*
X671Y305D01*
D02*
X340Y415D02*
X668Y415D01*
D02*
X336Y644D02*
X340Y415D01*
D02*
X206Y667D02*
X207Y644D01*
D02*
X207Y644D02*
X336Y644D01*
D02*
X306Y690D02*
X363Y689D01*
D02*
X1595Y1200D02*
X1646Y1194D01*
D02*
X1540Y1239D02*
X1540Y1276D01*
D02*
X1439Y1273D02*
X1439Y1239D01*
D02*
X1487Y1135D02*
X1562Y1118D01*
D02*
X1562Y1118D02*
X1564Y876D01*
D02*
X1488Y1163D02*
X1487Y1135D01*
D02*
X1564Y876D02*
X1487Y880D01*
D02*
X1589Y957D02*
X1589Y822D01*
D02*
X1589Y822D02*
X1560Y822D01*
D02*
X1437Y1033D02*
X1435Y1077D01*
D02*
X1435Y1077D02*
X1399Y1078D01*
D02*
X1399Y1201D02*
X1432Y1201D01*
D02*
X1281Y758D02*
X1222Y759D01*
D02*
X1283Y684D02*
X1281Y758D01*
D02*
X1304Y789D02*
X1222Y790D01*
D02*
X1314Y722D02*
X1304Y789D01*
D02*
X1320Y813D02*
X1222Y820D01*
D02*
X1347Y758D02*
X1320Y813D01*
D02*
X1390Y861D02*
X1420Y642D01*
D02*
X1420Y642D02*
X1419Y562D01*
D02*
X685Y1172D02*
X681Y1135D01*
D02*
X676Y1071D02*
X672Y1022D01*
D02*
X594Y666D02*
X625Y667D01*
D02*
X597Y469D02*
X594Y666D01*
D02*
X795Y336D02*
X730Y338D01*
D02*
X730Y338D02*
X729Y470D01*
D02*
X729Y470D02*
X597Y469D01*
D02*
X798Y301D02*
X795Y336D01*
D02*
X420Y619D02*
X421Y666D01*
D02*
X421Y666D02*
X594Y666D01*
D02*
X1108Y1137D02*
X1269Y1136D01*
D02*
X1107Y1108D02*
X1108Y1137D01*
D02*
X941Y1111D02*
X1107Y1108D01*
D02*
X1269Y1136D02*
X1487Y1135D01*
D02*
X942Y1167D02*
X941Y1111D01*
D02*
X891Y1089D02*
X892Y1037D01*
D02*
X1315Y1100D02*
X1145Y1103D01*
D02*
X1145Y1103D02*
X1133Y1091D01*
D02*
X1133Y1091D02*
X891Y1089D01*
D02*
X1336Y1091D02*
X1315Y1100D01*
D02*
X1442Y957D02*
X1448Y900D01*
D02*
X1449Y806D02*
X1450Y861D01*
D02*
X1397Y810D02*
X1449Y806D01*
D02*
X1390Y861D02*
X1397Y810D01*
D02*
X417Y996D02*
X644Y991D01*
D02*
X416Y952D02*
X417Y996D01*
D02*
X886Y1205D02*
X837Y1204D01*
D02*
X999Y894D02*
X995Y961D01*
D02*
X1256Y881D02*
X999Y894D01*
D02*
X893Y929D02*
X668Y933D01*
D02*
X668Y933D02*
X669Y958D01*
D02*
X893Y961D02*
X893Y929D01*
D02*
X656Y743D02*
X658Y791D01*
D02*
X1722Y1093D02*
X1700Y1095D01*
D02*
X1044Y1167D02*
X1044Y1155D01*
D02*
X1509Y791D02*
X1477Y773D01*
D02*
X1521Y791D02*
X1509Y791D01*
D02*
X1521Y820D02*
X1496Y817D01*
D02*
X944Y1359D02*
X943Y1243D01*
D02*
X619Y1176D02*
X616Y1360D01*
D02*
X616Y1360D02*
X944Y1359D01*
D02*
X388Y1177D02*
X619Y1176D01*
D02*
X388Y1076D02*
X539Y1070D01*
D02*
X1538Y1061D02*
X1533Y1063D01*
D02*
X1538Y1033D02*
X1538Y1061D01*
D02*
X1292Y900D02*
X1292Y957D01*
D02*
X951Y283D02*
X928Y283D01*
D02*
X857Y206D02*
X927Y242D01*
D02*
X927Y242D02*
X927Y261D01*
D02*
X849Y557D02*
X825Y313D01*
X825Y313D02*
X825Y305D01*
D02*
X544Y555D02*
X545Y526D01*
D02*
X544Y341D02*
X531Y293D01*
D02*
X545Y760D02*
X531Y791D01*
D02*
X551Y900D02*
X528Y816D01*
D02*
X783Y1022D02*
X759Y1100D01*
D02*
X565Y1246D02*
X565Y1333D01*
X565Y1333D02*
X325Y1333D01*
X325Y1333D02*
X235Y1243D01*
X235Y1243D02*
X210Y1213D01*
X210Y1213D02*
X205Y1053D01*
X205Y1053D02*
X235Y913D01*
X235Y913D02*
X354Y821D01*
D02*
X768Y1110D02*
X774Y1109D01*
D02*
X938Y961D02*
X931Y897D01*
D02*
X931Y897D02*
X765Y903D01*
X765Y903D02*
X603Y921D01*
D02*
X764Y1272D02*
X760Y1253D01*
D02*
X760Y1253D02*
X765Y1253D01*
X765Y1253D02*
X765Y1143D01*
X765Y1143D02*
X774Y1133D01*
D02*
X147Y890D02*
X235Y913D01*
D02*
X177Y133D02*
X112Y355D01*
D02*
X1112Y1272D02*
X1107Y1246D01*
D02*
X1292Y1305D02*
X1144Y1304D01*
D02*
X1637Y1329D02*
X1595Y1363D01*
X1595Y1363D02*
X1385Y1363D01*
X1385Y1363D02*
X1343Y1327D01*
D02*
X247Y1257D02*
X235Y1243D01*
D02*
X780Y239D02*
X779Y203D01*
D02*
X748Y246D02*
X780Y239D01*
D02*
X779Y203D02*
X843Y193D01*
D02*
X748Y261D02*
X748Y246D01*
D02*
X1385Y587D02*
X1383Y624D01*
D02*
X1383Y624D02*
X1366Y622D01*
D02*
X1386Y562D02*
X1385Y587D01*
D02*
X1705Y496D02*
X1705Y511D01*
D02*
X1356Y900D02*
X1356Y918D01*
D02*
X1488Y957D02*
X1488Y952D01*
D02*
X1043Y1037D02*
X1043Y1043D01*
D02*
X1662Y233D02*
X1606Y231D01*
D02*
X1165Y1079D02*
X1145Y1103D01*
D02*
X1356Y1017D02*
X1356Y945D01*
D02*
X1247Y935D02*
X1249Y1017D01*
D02*
X1249Y1017D02*
X1357Y1017D01*
D02*
X1187Y931D02*
X1247Y935D01*
D02*
X1322Y441D02*
X1324Y523D01*
D02*
X1185Y457D02*
X1322Y441D01*
D02*
X1323Y586D02*
X1385Y587D01*
D02*
X1324Y562D02*
X1323Y586D01*
G54D30*
D02*
X421Y522D02*
X421Y555D01*
G54D29*
D02*
X279Y133D02*
X279Y301D01*
G54D28*
D02*
X1810Y74D02*
X1569Y77D01*
D02*
X1810Y202D02*
X1810Y74D01*
D02*
X1353Y491D02*
X1355Y523D01*
D02*
X1420Y490D02*
X1353Y491D01*
D02*
X1419Y523D02*
X1420Y490D01*
G54D29*
D02*
X279Y26D02*
X1261Y27D01*
D02*
X1261Y27D02*
X1259Y146D01*
D02*
X279Y56D02*
X279Y26D01*
G54D28*
D02*
X1889Y233D02*
X1835Y234D01*
D02*
X1885Y473D02*
X1889Y233D01*
D02*
X1824Y470D02*
X1885Y473D01*
G54D29*
D02*
X1256Y229D02*
X1257Y206D01*
D02*
X1432Y231D02*
X1256Y229D01*
G54D28*
D02*
X889Y790D02*
X939Y791D01*
D02*
X1065Y701D02*
X1183Y696D01*
D02*
X1065Y790D02*
X1065Y701D01*
D02*
X1003Y791D02*
X1065Y790D01*
D02*
X973Y643D02*
X977Y589D01*
D02*
X939Y669D02*
X889Y668D01*
G54D29*
D02*
X941Y892D02*
X931Y897D01*
G54D28*
D02*
X1114Y936D02*
X1155Y933D01*
G36*
X390Y1338D02*
X390Y1318D01*
X394Y1318D01*
X394Y1316D01*
X396Y1316D01*
X396Y1314D01*
X398Y1314D01*
X398Y1312D01*
X400Y1312D01*
X400Y1310D01*
X402Y1310D01*
X402Y1308D01*
X404Y1308D01*
X404Y1304D01*
X406Y1304D01*
X406Y1302D01*
X408Y1302D01*
X408Y1298D01*
X410Y1298D01*
X410Y1294D01*
X412Y1294D01*
X412Y1288D01*
X414Y1288D01*
X414Y1268D01*
X570Y1268D01*
X570Y1266D01*
X576Y1266D01*
X576Y1264D01*
X598Y1264D01*
X598Y1338D01*
X390Y1338D01*
G37*
D02*
G36*
X414Y1268D02*
X414Y1266D01*
X412Y1266D01*
X412Y1260D01*
X410Y1260D01*
X410Y1256D01*
X408Y1256D01*
X408Y1252D01*
X406Y1252D01*
X406Y1250D01*
X404Y1250D01*
X404Y1246D01*
X402Y1246D01*
X402Y1244D01*
X400Y1244D01*
X400Y1242D01*
X398Y1242D01*
X398Y1240D01*
X396Y1240D01*
X396Y1238D01*
X394Y1238D01*
X394Y1216D01*
X396Y1216D01*
X396Y1214D01*
X398Y1214D01*
X398Y1212D01*
X400Y1212D01*
X400Y1210D01*
X402Y1210D01*
X402Y1208D01*
X404Y1208D01*
X404Y1204D01*
X406Y1204D01*
X406Y1202D01*
X408Y1202D01*
X408Y1198D01*
X410Y1198D01*
X410Y1196D01*
X536Y1196D01*
X536Y1218D01*
X534Y1218D01*
X534Y1222D01*
X532Y1222D01*
X532Y1228D01*
X530Y1228D01*
X530Y1238D01*
X532Y1238D01*
X532Y1244D01*
X534Y1244D01*
X534Y1248D01*
X536Y1248D01*
X536Y1252D01*
X538Y1252D01*
X538Y1254D01*
X540Y1254D01*
X540Y1256D01*
X542Y1256D01*
X542Y1258D01*
X544Y1258D01*
X544Y1260D01*
X546Y1260D01*
X546Y1262D01*
X550Y1262D01*
X550Y1264D01*
X554Y1264D01*
X554Y1266D01*
X560Y1266D01*
X560Y1268D01*
X414Y1268D01*
G37*
D02*
G36*
X636Y1338D02*
X636Y1256D01*
X726Y1256D01*
X726Y1338D01*
X636Y1338D01*
G37*
D02*
G36*
X818Y1338D02*
X818Y1256D01*
X848Y1256D01*
X848Y1338D01*
X818Y1338D01*
G37*
D02*
G36*
X1042Y1338D02*
X1042Y1264D01*
X1072Y1264D01*
X1072Y1338D01*
X1042Y1338D01*
G37*
D02*
G36*
X1364Y1338D02*
X1364Y1248D01*
X1394Y1248D01*
X1394Y1338D01*
X1364Y1338D01*
G37*
D02*
G36*
X1588Y1338D02*
X1588Y1260D01*
X1616Y1260D01*
X1616Y1338D01*
X1588Y1338D01*
G37*
D02*
G36*
X1710Y1338D02*
X1710Y1244D01*
X1718Y1244D01*
X1718Y1148D01*
X1720Y1148D01*
X1720Y1128D01*
X1748Y1128D01*
X1748Y1244D01*
X1854Y1244D01*
X1854Y1254D01*
X1852Y1254D01*
X1852Y1256D01*
X1850Y1256D01*
X1850Y1260D01*
X1848Y1260D01*
X1848Y1262D01*
X1846Y1262D01*
X1846Y1266D01*
X1844Y1266D01*
X1844Y1270D01*
X1842Y1270D01*
X1842Y1274D01*
X1840Y1274D01*
X1840Y1280D01*
X1838Y1280D01*
X1838Y1302D01*
X1840Y1302D01*
X1840Y1310D01*
X1842Y1310D01*
X1842Y1314D01*
X1844Y1314D01*
X1844Y1318D01*
X1846Y1318D01*
X1846Y1338D01*
X1710Y1338D01*
G37*
D02*
G36*
X736Y1252D02*
X736Y1156D01*
X764Y1156D01*
X764Y1252D01*
X736Y1252D01*
G37*
D02*
G36*
X1164Y1338D02*
X1164Y1252D01*
X1140Y1252D01*
X1140Y1228D01*
X1138Y1228D01*
X1138Y1222D01*
X1136Y1222D01*
X1136Y1218D01*
X1134Y1218D01*
X1134Y1214D01*
X1132Y1214D01*
X1132Y1212D01*
X1130Y1212D01*
X1130Y1210D01*
X1128Y1210D01*
X1128Y1208D01*
X1126Y1208D01*
X1126Y1206D01*
X1124Y1206D01*
X1124Y1204D01*
X1120Y1204D01*
X1120Y1202D01*
X1116Y1202D01*
X1116Y1200D01*
X1110Y1200D01*
X1110Y1198D01*
X1316Y1198D01*
X1316Y1252D01*
X1272Y1252D01*
X1272Y1254D01*
X1270Y1254D01*
X1270Y1338D01*
X1164Y1338D01*
G37*
D02*
G36*
X1070Y1204D02*
X1070Y1198D01*
X1100Y1198D01*
X1100Y1200D01*
X1094Y1200D01*
X1094Y1202D01*
X1090Y1202D01*
X1090Y1204D01*
X1070Y1204D01*
G37*
D02*
G36*
X1070Y1198D02*
X1070Y1196D01*
X1316Y1196D01*
X1316Y1198D01*
X1070Y1198D01*
G37*
D02*
G36*
X1070Y1198D02*
X1070Y1196D01*
X1316Y1196D01*
X1316Y1198D01*
X1070Y1198D01*
G37*
D02*
G36*
X1070Y1196D02*
X1070Y1162D01*
X1072Y1162D01*
X1072Y1158D01*
X1074Y1158D01*
X1074Y1156D01*
X1076Y1156D01*
X1076Y1152D01*
X1098Y1152D01*
X1098Y1154D01*
X1102Y1154D01*
X1102Y1156D01*
X1316Y1156D01*
X1316Y1196D01*
X1070Y1196D01*
G37*
D02*
G36*
X846Y1152D02*
X846Y1050D01*
X838Y1050D01*
X838Y948D01*
X866Y948D01*
X866Y1058D01*
X872Y1058D01*
X872Y1096D01*
X874Y1096D01*
X874Y1100D01*
X876Y1100D01*
X876Y1102D01*
X878Y1102D01*
X878Y1104D01*
X880Y1104D01*
X880Y1106D01*
X884Y1106D01*
X884Y1108D01*
X922Y1108D01*
X922Y1146D01*
X866Y1146D01*
X866Y1152D01*
X846Y1152D01*
G37*
D02*
G36*
X1580Y1142D02*
X1580Y1120D01*
X1582Y1120D01*
X1582Y1054D01*
X1628Y1054D01*
X1628Y1138D01*
X1626Y1138D01*
X1626Y1142D01*
X1580Y1142D01*
G37*
D02*
G36*
X1420Y1116D02*
X1420Y1096D01*
X1440Y1096D01*
X1440Y1094D01*
X1444Y1094D01*
X1444Y1092D01*
X1448Y1092D01*
X1448Y1090D01*
X1450Y1090D01*
X1450Y1086D01*
X1452Y1086D01*
X1452Y1082D01*
X1454Y1082D01*
X1454Y1054D01*
X1486Y1054D01*
X1486Y1076D01*
X1488Y1076D01*
X1488Y1080D01*
X1490Y1080D01*
X1490Y1084D01*
X1492Y1084D01*
X1492Y1086D01*
X1494Y1086D01*
X1494Y1090D01*
X1496Y1090D01*
X1496Y1092D01*
X1500Y1092D01*
X1500Y1114D01*
X1492Y1114D01*
X1492Y1116D01*
X1420Y1116D01*
G37*
D02*
G36*
X724Y1082D02*
X724Y1050D01*
X716Y1050D01*
X716Y950D01*
X746Y950D01*
X746Y1042D01*
X754Y1042D01*
X754Y1078D01*
X750Y1078D01*
X750Y1080D01*
X744Y1080D01*
X744Y1082D01*
X724Y1082D01*
G37*
D02*
G36*
X1238Y1082D02*
X1238Y1006D01*
X1294Y1006D01*
X1294Y1004D01*
X1302Y1004D01*
X1302Y1002D01*
X1306Y1002D01*
X1306Y1000D01*
X1310Y1000D01*
X1310Y998D01*
X1312Y998D01*
X1312Y996D01*
X1314Y996D01*
X1314Y994D01*
X1316Y994D01*
X1316Y992D01*
X1318Y992D01*
X1318Y990D01*
X1320Y990D01*
X1320Y986D01*
X1322Y986D01*
X1322Y984D01*
X1324Y984D01*
X1324Y978D01*
X1326Y978D01*
X1326Y966D01*
X1362Y966D01*
X1362Y964D01*
X1368Y964D01*
X1368Y962D01*
X1372Y962D01*
X1372Y960D01*
X1374Y960D01*
X1374Y958D01*
X1376Y958D01*
X1376Y956D01*
X1380Y956D01*
X1380Y952D01*
X1382Y952D01*
X1382Y950D01*
X1384Y950D01*
X1384Y948D01*
X1386Y948D01*
X1386Y944D01*
X1388Y944D01*
X1388Y940D01*
X1390Y940D01*
X1390Y920D01*
X1412Y920D01*
X1412Y1032D01*
X1316Y1032D01*
X1316Y1080D01*
X1300Y1080D01*
X1300Y1082D01*
X1238Y1082D01*
G37*
D02*
G36*
X1078Y1072D02*
X1078Y1052D01*
X1076Y1052D01*
X1076Y1046D01*
X1074Y1046D01*
X1074Y1042D01*
X1072Y1042D01*
X1072Y1040D01*
X1070Y1040D01*
X1070Y1006D01*
X1134Y1006D01*
X1134Y1072D01*
X1078Y1072D01*
G37*
D02*
G36*
X1070Y1006D02*
X1070Y1004D01*
X1288Y1004D01*
X1288Y1006D01*
X1070Y1006D01*
G37*
D02*
G36*
X1070Y1006D02*
X1070Y1004D01*
X1288Y1004D01*
X1288Y1006D01*
X1070Y1006D01*
G37*
D02*
G36*
X1070Y1004D02*
X1070Y978D01*
X1238Y978D01*
X1238Y920D01*
X1274Y920D01*
X1274Y944D01*
X1270Y944D01*
X1270Y946D01*
X1268Y946D01*
X1268Y948D01*
X1266Y948D01*
X1266Y950D01*
X1264Y950D01*
X1264Y954D01*
X1262Y954D01*
X1262Y956D01*
X1260Y956D01*
X1260Y962D01*
X1258Y962D01*
X1258Y980D01*
X1260Y980D01*
X1260Y984D01*
X1262Y984D01*
X1262Y988D01*
X1264Y988D01*
X1264Y990D01*
X1266Y990D01*
X1266Y992D01*
X1268Y992D01*
X1268Y994D01*
X1270Y994D01*
X1270Y996D01*
X1272Y996D01*
X1272Y998D01*
X1274Y998D01*
X1274Y1000D01*
X1278Y1000D01*
X1278Y1002D01*
X1282Y1002D01*
X1282Y1004D01*
X1070Y1004D01*
G37*
D02*
G36*
X1070Y978D02*
X1070Y972D01*
X1106Y972D01*
X1106Y970D01*
X1112Y970D01*
X1112Y968D01*
X1134Y968D01*
X1134Y978D01*
X1070Y978D01*
G37*
D02*
G36*
X1070Y972D02*
X1070Y968D01*
X1090Y968D01*
X1090Y970D01*
X1096Y970D01*
X1096Y972D01*
X1070Y972D01*
G37*
D02*
G36*
X1326Y966D02*
X1326Y964D01*
X1350Y964D01*
X1350Y966D01*
X1326Y966D01*
G37*
D02*
G36*
X1720Y1058D02*
X1720Y1044D01*
X1616Y1044D01*
X1616Y936D01*
X1608Y936D01*
X1608Y816D01*
X1606Y816D01*
X1606Y812D01*
X1604Y812D01*
X1604Y810D01*
X1602Y810D01*
X1602Y808D01*
X1600Y808D01*
X1600Y806D01*
X1596Y806D01*
X1596Y804D01*
X1580Y804D01*
X1580Y660D01*
X1610Y660D01*
X1610Y662D01*
X1676Y662D01*
X1676Y664D01*
X1780Y664D01*
X1780Y666D01*
X1828Y666D01*
X1828Y668D01*
X1830Y668D01*
X1830Y670D01*
X1832Y670D01*
X1832Y706D01*
X1834Y706D01*
X1834Y710D01*
X1836Y710D01*
X1836Y716D01*
X1838Y716D01*
X1838Y718D01*
X1840Y718D01*
X1840Y722D01*
X1842Y722D01*
X1842Y724D01*
X1844Y724D01*
X1844Y726D01*
X1846Y726D01*
X1846Y728D01*
X1848Y728D01*
X1848Y732D01*
X1852Y732D01*
X1852Y754D01*
X1850Y754D01*
X1850Y756D01*
X1848Y756D01*
X1848Y758D01*
X1846Y758D01*
X1846Y760D01*
X1844Y760D01*
X1844Y762D01*
X1842Y762D01*
X1842Y766D01*
X1840Y766D01*
X1840Y768D01*
X1838Y768D01*
X1838Y772D01*
X1836Y772D01*
X1836Y776D01*
X1834Y776D01*
X1834Y782D01*
X1832Y782D01*
X1832Y806D01*
X1834Y806D01*
X1834Y810D01*
X1836Y810D01*
X1836Y816D01*
X1838Y816D01*
X1838Y818D01*
X1840Y818D01*
X1840Y822D01*
X1842Y822D01*
X1842Y824D01*
X1844Y824D01*
X1844Y826D01*
X1846Y826D01*
X1846Y828D01*
X1848Y828D01*
X1848Y832D01*
X1852Y832D01*
X1852Y854D01*
X1850Y854D01*
X1850Y856D01*
X1848Y856D01*
X1848Y858D01*
X1846Y858D01*
X1846Y860D01*
X1844Y860D01*
X1844Y862D01*
X1842Y862D01*
X1842Y866D01*
X1840Y866D01*
X1840Y868D01*
X1838Y868D01*
X1838Y872D01*
X1836Y872D01*
X1836Y876D01*
X1834Y876D01*
X1834Y882D01*
X1832Y882D01*
X1832Y906D01*
X1834Y906D01*
X1834Y910D01*
X1836Y910D01*
X1836Y916D01*
X1838Y916D01*
X1838Y918D01*
X1840Y918D01*
X1840Y922D01*
X1842Y922D01*
X1842Y924D01*
X1844Y924D01*
X1844Y926D01*
X1846Y926D01*
X1846Y928D01*
X1848Y928D01*
X1848Y932D01*
X1852Y932D01*
X1852Y954D01*
X1850Y954D01*
X1850Y956D01*
X1848Y956D01*
X1848Y958D01*
X1846Y958D01*
X1846Y960D01*
X1844Y960D01*
X1844Y962D01*
X1842Y962D01*
X1842Y966D01*
X1840Y966D01*
X1840Y968D01*
X1838Y968D01*
X1838Y972D01*
X1836Y972D01*
X1836Y976D01*
X1834Y976D01*
X1834Y982D01*
X1832Y982D01*
X1832Y1006D01*
X1834Y1006D01*
X1834Y1010D01*
X1836Y1010D01*
X1836Y1016D01*
X1838Y1016D01*
X1838Y1018D01*
X1840Y1018D01*
X1840Y1022D01*
X1842Y1022D01*
X1842Y1024D01*
X1844Y1024D01*
X1844Y1026D01*
X1846Y1026D01*
X1846Y1028D01*
X1848Y1028D01*
X1848Y1032D01*
X1852Y1032D01*
X1852Y1044D01*
X1750Y1044D01*
X1750Y1058D01*
X1720Y1058D01*
G37*
D02*
G36*
X410Y1158D02*
X410Y1156D01*
X408Y1156D01*
X408Y1152D01*
X406Y1152D01*
X406Y1150D01*
X404Y1150D01*
X404Y1130D01*
X414Y1130D01*
X414Y1104D01*
X560Y1104D01*
X560Y1102D01*
X564Y1102D01*
X564Y1100D01*
X568Y1100D01*
X568Y1098D01*
X572Y1098D01*
X572Y1096D01*
X574Y1096D01*
X574Y1094D01*
X576Y1094D01*
X576Y1092D01*
X578Y1092D01*
X578Y1090D01*
X580Y1090D01*
X580Y1086D01*
X582Y1086D01*
X582Y1084D01*
X584Y1084D01*
X584Y1080D01*
X586Y1080D01*
X586Y1072D01*
X588Y1072D01*
X588Y1066D01*
X586Y1066D01*
X586Y1060D01*
X584Y1060D01*
X584Y1056D01*
X582Y1056D01*
X582Y1052D01*
X580Y1052D01*
X580Y1050D01*
X578Y1050D01*
X578Y1048D01*
X576Y1048D01*
X576Y1046D01*
X574Y1046D01*
X574Y1044D01*
X572Y1044D01*
X572Y1042D01*
X570Y1042D01*
X570Y1040D01*
X566Y1040D01*
X566Y1038D01*
X562Y1038D01*
X562Y1036D01*
X556Y1036D01*
X556Y1034D01*
X624Y1034D01*
X624Y1042D01*
X632Y1042D01*
X632Y1158D01*
X410Y1158D01*
G37*
D02*
G36*
X414Y1104D02*
X414Y1094D01*
X440Y1094D01*
X440Y1092D01*
X488Y1092D01*
X488Y1090D01*
X528Y1090D01*
X528Y1092D01*
X530Y1092D01*
X530Y1094D01*
X532Y1094D01*
X532Y1096D01*
X534Y1096D01*
X534Y1098D01*
X536Y1098D01*
X536Y1100D01*
X540Y1100D01*
X540Y1102D01*
X546Y1102D01*
X546Y1104D01*
X414Y1104D01*
G37*
D02*
G36*
X414Y1056D02*
X414Y1034D01*
X548Y1034D01*
X548Y1036D01*
X542Y1036D01*
X542Y1038D01*
X538Y1038D01*
X538Y1040D01*
X534Y1040D01*
X534Y1042D01*
X532Y1042D01*
X532Y1044D01*
X530Y1044D01*
X530Y1046D01*
X528Y1046D01*
X528Y1048D01*
X526Y1048D01*
X526Y1050D01*
X524Y1050D01*
X524Y1052D01*
X488Y1052D01*
X488Y1054D01*
X438Y1054D01*
X438Y1056D01*
X414Y1056D01*
G37*
D02*
G36*
X414Y1034D02*
X414Y1032D01*
X624Y1032D01*
X624Y1034D01*
X414Y1034D01*
G37*
D02*
G36*
X414Y1034D02*
X414Y1032D01*
X624Y1032D01*
X624Y1034D01*
X414Y1034D01*
G37*
D02*
G36*
X414Y1032D02*
X414Y1014D01*
X504Y1014D01*
X504Y1012D01*
X588Y1012D01*
X588Y1010D01*
X624Y1010D01*
X624Y1032D01*
X414Y1032D01*
G37*
D02*
G36*
X290Y1036D02*
X290Y1034D01*
X288Y1034D01*
X288Y1032D01*
X284Y1032D01*
X284Y1030D01*
X280Y1030D01*
X280Y968D01*
X278Y968D01*
X278Y946D01*
X350Y946D01*
X350Y972D01*
X398Y972D01*
X398Y1000D01*
X400Y1000D01*
X400Y1006D01*
X402Y1006D01*
X402Y1026D01*
X310Y1026D01*
X310Y1036D01*
X290Y1036D01*
G37*
D02*
G36*
X1016Y940D02*
X1016Y912D01*
X1046Y912D01*
X1046Y910D01*
X1068Y910D01*
X1068Y930D01*
X1066Y930D01*
X1066Y940D01*
X1016Y940D01*
G37*
D02*
G36*
X912Y940D02*
X912Y922D01*
X910Y922D01*
X910Y918D01*
X908Y918D01*
X908Y916D01*
X906Y916D01*
X906Y914D01*
X904Y914D01*
X904Y912D01*
X900Y912D01*
X900Y910D01*
X940Y910D01*
X940Y912D01*
X942Y912D01*
X942Y914D01*
X946Y914D01*
X946Y916D01*
X950Y916D01*
X950Y918D01*
X978Y918D01*
X978Y940D01*
X912Y940D01*
G37*
D02*
G36*
X624Y938D02*
X624Y910D01*
X818Y910D01*
X818Y912D01*
X702Y912D01*
X702Y914D01*
X662Y914D01*
X662Y916D01*
X658Y916D01*
X658Y918D01*
X656Y918D01*
X656Y920D01*
X654Y920D01*
X654Y922D01*
X652Y922D01*
X652Y924D01*
X650Y924D01*
X650Y938D01*
X624Y938D01*
G37*
D02*
G36*
X624Y910D02*
X624Y908D01*
X936Y908D01*
X936Y910D01*
X624Y910D01*
G37*
D02*
G36*
X624Y910D02*
X624Y908D01*
X936Y908D01*
X936Y910D01*
X624Y910D01*
G37*
D02*
G36*
X624Y908D02*
X624Y880D01*
X434Y880D01*
X434Y838D01*
X806Y838D01*
X806Y836D01*
X918Y836D01*
X918Y838D01*
X940Y838D01*
X940Y858D01*
X936Y858D01*
X936Y860D01*
X934Y860D01*
X934Y864D01*
X932Y864D01*
X932Y866D01*
X930Y866D01*
X930Y868D01*
X928Y868D01*
X928Y872D01*
X926Y872D01*
X926Y878D01*
X924Y878D01*
X924Y892D01*
X926Y892D01*
X926Y896D01*
X928Y896D01*
X928Y900D01*
X930Y900D01*
X930Y902D01*
X932Y902D01*
X932Y906D01*
X934Y906D01*
X934Y908D01*
X624Y908D01*
G37*
D02*
G36*
X434Y838D02*
X434Y780D01*
X490Y780D01*
X490Y808D01*
X492Y808D01*
X492Y814D01*
X494Y814D01*
X494Y818D01*
X496Y818D01*
X496Y822D01*
X498Y822D01*
X498Y824D01*
X500Y824D01*
X500Y826D01*
X502Y826D01*
X502Y828D01*
X504Y828D01*
X504Y830D01*
X506Y830D01*
X506Y832D01*
X510Y832D01*
X510Y834D01*
X514Y834D01*
X514Y836D01*
X520Y836D01*
X520Y838D01*
X434Y838D01*
G37*
D02*
G36*
X530Y838D02*
X530Y836D01*
X536Y836D01*
X536Y834D01*
X540Y834D01*
X540Y832D01*
X544Y832D01*
X544Y830D01*
X546Y830D01*
X546Y828D01*
X548Y828D01*
X548Y826D01*
X550Y826D01*
X550Y824D01*
X552Y824D01*
X552Y822D01*
X554Y822D01*
X554Y818D01*
X556Y818D01*
X556Y814D01*
X558Y814D01*
X558Y808D01*
X560Y808D01*
X560Y780D01*
X604Y780D01*
X604Y836D01*
X702Y836D01*
X702Y838D01*
X530Y838D01*
G37*
D02*
G36*
X990Y874D02*
X990Y870D01*
X988Y870D01*
X988Y866D01*
X986Y866D01*
X986Y864D01*
X984Y864D01*
X984Y862D01*
X982Y862D01*
X982Y860D01*
X980Y860D01*
X980Y858D01*
X978Y858D01*
X978Y838D01*
X1024Y838D01*
X1024Y810D01*
X1070Y810D01*
X1070Y808D01*
X1074Y808D01*
X1074Y806D01*
X1078Y806D01*
X1078Y804D01*
X1080Y804D01*
X1080Y802D01*
X1082Y802D01*
X1082Y798D01*
X1084Y798D01*
X1084Y718D01*
X1142Y718D01*
X1142Y716D01*
X1162Y716D01*
X1162Y866D01*
X1158Y866D01*
X1158Y868D01*
X1120Y868D01*
X1120Y870D01*
X1082Y870D01*
X1082Y872D01*
X1044Y872D01*
X1044Y874D01*
X990Y874D01*
G37*
D02*
G36*
X1338Y840D02*
X1338Y818D01*
X1340Y818D01*
X1340Y814D01*
X1342Y814D01*
X1342Y810D01*
X1344Y810D01*
X1344Y806D01*
X1346Y806D01*
X1346Y802D01*
X1348Y802D01*
X1348Y798D01*
X1350Y798D01*
X1350Y794D01*
X1352Y794D01*
X1352Y790D01*
X1354Y790D01*
X1354Y786D01*
X1356Y786D01*
X1356Y782D01*
X1358Y782D01*
X1358Y780D01*
X1360Y780D01*
X1360Y778D01*
X1382Y778D01*
X1382Y786D01*
X1380Y786D01*
X1380Y800D01*
X1378Y800D01*
X1378Y814D01*
X1376Y814D01*
X1376Y830D01*
X1374Y830D01*
X1374Y840D01*
X1338Y840D01*
G37*
D02*
G36*
X1024Y772D02*
X1024Y746D01*
X1022Y746D01*
X1022Y744D01*
X690Y744D01*
X690Y716D01*
X1024Y716D01*
X1024Y612D01*
X1044Y612D01*
X1044Y620D01*
X1046Y620D01*
X1046Y672D01*
X1048Y672D01*
X1048Y696D01*
X1046Y696D01*
X1046Y772D01*
X1024Y772D01*
G37*
D02*
G36*
X806Y716D02*
X806Y714D01*
X918Y714D01*
X918Y716D01*
X806Y716D01*
G37*
D02*
G36*
X1426Y740D02*
X1426Y732D01*
X1456Y732D01*
X1456Y734D01*
X1452Y734D01*
X1452Y736D01*
X1448Y736D01*
X1448Y738D01*
X1446Y738D01*
X1446Y740D01*
X1426Y740D01*
G37*
D02*
G36*
X1480Y736D02*
X1480Y734D01*
X1476Y734D01*
X1476Y732D01*
X1500Y732D01*
X1500Y736D01*
X1480Y736D01*
G37*
D02*
G36*
X1426Y732D02*
X1426Y730D01*
X1500Y730D01*
X1500Y732D01*
X1426Y732D01*
G37*
D02*
G36*
X1426Y732D02*
X1426Y730D01*
X1500Y730D01*
X1500Y732D01*
X1426Y732D01*
G37*
D02*
G36*
X1428Y730D02*
X1428Y714D01*
X1430Y714D01*
X1430Y700D01*
X1432Y700D01*
X1432Y686D01*
X1434Y686D01*
X1434Y670D01*
X1436Y670D01*
X1436Y656D01*
X1438Y656D01*
X1438Y582D01*
X1500Y582D01*
X1500Y730D01*
X1428Y730D01*
G37*
D02*
G36*
X466Y646D02*
X466Y534D01*
X452Y534D01*
X452Y514D01*
X454Y514D01*
X454Y510D01*
X456Y510D01*
X456Y496D01*
X454Y496D01*
X454Y490D01*
X452Y490D01*
X452Y486D01*
X450Y486D01*
X450Y484D01*
X448Y484D01*
X448Y482D01*
X446Y482D01*
X446Y462D01*
X534Y462D01*
X534Y482D01*
X530Y482D01*
X530Y484D01*
X526Y484D01*
X526Y486D01*
X524Y486D01*
X524Y488D01*
X522Y488D01*
X522Y490D01*
X520Y490D01*
X520Y492D01*
X518Y492D01*
X518Y494D01*
X516Y494D01*
X516Y498D01*
X514Y498D01*
X514Y502D01*
X512Y502D01*
X512Y508D01*
X510Y508D01*
X510Y534D01*
X496Y534D01*
X496Y646D01*
X466Y646D01*
G37*
D02*
G36*
X1370Y718D02*
X1370Y716D01*
X1368Y716D01*
X1368Y714D01*
X1364Y714D01*
X1364Y712D01*
X1356Y712D01*
X1356Y710D01*
X1350Y710D01*
X1350Y700D01*
X1348Y700D01*
X1348Y696D01*
X1346Y696D01*
X1346Y692D01*
X1344Y692D01*
X1344Y690D01*
X1342Y690D01*
X1342Y688D01*
X1340Y688D01*
X1340Y686D01*
X1338Y686D01*
X1338Y684D01*
X1336Y684D01*
X1336Y682D01*
X1334Y682D01*
X1334Y680D01*
X1330Y680D01*
X1330Y678D01*
X1326Y678D01*
X1326Y676D01*
X1320Y676D01*
X1320Y674D01*
X1318Y674D01*
X1318Y666D01*
X1316Y666D01*
X1316Y660D01*
X1314Y660D01*
X1314Y656D01*
X1356Y656D01*
X1356Y654D01*
X1362Y654D01*
X1362Y652D01*
X1366Y652D01*
X1366Y650D01*
X1370Y650D01*
X1370Y648D01*
X1372Y648D01*
X1372Y646D01*
X1374Y646D01*
X1374Y644D01*
X1376Y644D01*
X1376Y642D01*
X1378Y642D01*
X1378Y640D01*
X1380Y640D01*
X1380Y638D01*
X1400Y638D01*
X1400Y654D01*
X1398Y654D01*
X1398Y668D01*
X1396Y668D01*
X1396Y682D01*
X1394Y682D01*
X1394Y698D01*
X1392Y698D01*
X1392Y712D01*
X1390Y712D01*
X1390Y718D01*
X1370Y718D01*
G37*
D02*
G36*
X1312Y656D02*
X1312Y652D01*
X1310Y652D01*
X1310Y650D01*
X1308Y650D01*
X1308Y648D01*
X1306Y648D01*
X1306Y646D01*
X1304Y646D01*
X1304Y644D01*
X1302Y644D01*
X1302Y642D01*
X1298Y642D01*
X1298Y640D01*
X1294Y640D01*
X1294Y638D01*
X1290Y638D01*
X1290Y636D01*
X1324Y636D01*
X1324Y640D01*
X1326Y640D01*
X1326Y642D01*
X1328Y642D01*
X1328Y644D01*
X1330Y644D01*
X1330Y646D01*
X1332Y646D01*
X1332Y648D01*
X1334Y648D01*
X1334Y650D01*
X1338Y650D01*
X1338Y652D01*
X1342Y652D01*
X1342Y654D01*
X1348Y654D01*
X1348Y656D01*
X1312Y656D01*
G37*
D02*
G36*
X1242Y646D02*
X1242Y636D01*
X1276Y636D01*
X1276Y638D01*
X1272Y638D01*
X1272Y640D01*
X1268Y640D01*
X1268Y642D01*
X1264Y642D01*
X1264Y644D01*
X1262Y644D01*
X1262Y646D01*
X1242Y646D01*
G37*
D02*
G36*
X1242Y636D02*
X1242Y634D01*
X1322Y634D01*
X1322Y636D01*
X1242Y636D01*
G37*
D02*
G36*
X1242Y636D02*
X1242Y634D01*
X1322Y634D01*
X1322Y636D01*
X1242Y636D01*
G37*
D02*
G36*
X1242Y634D02*
X1242Y582D01*
X1326Y582D01*
X1326Y602D01*
X1324Y602D01*
X1324Y604D01*
X1322Y604D01*
X1322Y608D01*
X1320Y608D01*
X1320Y612D01*
X1318Y612D01*
X1318Y628D01*
X1320Y628D01*
X1320Y634D01*
X1242Y634D01*
G37*
D02*
G36*
X300Y526D02*
X300Y396D01*
X320Y396D01*
X320Y526D01*
X300Y526D01*
G37*
D02*
G36*
X364Y396D02*
X364Y280D01*
X306Y280D01*
X306Y154D01*
X408Y154D01*
X408Y126D01*
X444Y126D01*
X444Y128D01*
X470Y128D01*
X470Y130D01*
X472Y130D01*
X472Y312D01*
X474Y312D01*
X474Y314D01*
X522Y314D01*
X522Y334D01*
X520Y334D01*
X520Y336D01*
X518Y336D01*
X518Y338D01*
X516Y338D01*
X516Y342D01*
X514Y342D01*
X514Y348D01*
X512Y348D01*
X512Y358D01*
X514Y358D01*
X514Y364D01*
X516Y364D01*
X516Y368D01*
X518Y368D01*
X518Y372D01*
X520Y372D01*
X520Y374D01*
X522Y374D01*
X522Y376D01*
X524Y376D01*
X524Y396D01*
X364Y396D01*
G37*
D02*
G36*
X570Y396D02*
X570Y376D01*
X572Y376D01*
X572Y374D01*
X574Y374D01*
X574Y372D01*
X576Y372D01*
X576Y370D01*
X578Y370D01*
X578Y366D01*
X580Y366D01*
X580Y360D01*
X582Y360D01*
X582Y348D01*
X580Y348D01*
X580Y342D01*
X578Y342D01*
X578Y338D01*
X576Y338D01*
X576Y336D01*
X574Y336D01*
X574Y332D01*
X572Y332D01*
X572Y330D01*
X570Y330D01*
X570Y328D01*
X566Y328D01*
X566Y130D01*
X568Y130D01*
X568Y128D01*
X596Y128D01*
X596Y126D01*
X624Y126D01*
X624Y124D01*
X662Y124D01*
X662Y240D01*
X650Y240D01*
X650Y396D01*
X570Y396D01*
G37*
D02*
G36*
X152Y1338D02*
X152Y1318D01*
X154Y1318D01*
X154Y1314D01*
X156Y1314D01*
X156Y1310D01*
X158Y1310D01*
X158Y1304D01*
X160Y1304D01*
X160Y1280D01*
X158Y1280D01*
X158Y1274D01*
X156Y1274D01*
X156Y1268D01*
X154Y1268D01*
X154Y1264D01*
X152Y1264D01*
X152Y1262D01*
X150Y1262D01*
X150Y1258D01*
X148Y1258D01*
X148Y1256D01*
X146Y1256D01*
X146Y1254D01*
X144Y1254D01*
X144Y1252D01*
X142Y1252D01*
X142Y1250D01*
X140Y1250D01*
X140Y1248D01*
X138Y1248D01*
X138Y1246D01*
X136Y1246D01*
X136Y1244D01*
X132Y1244D01*
X132Y1242D01*
X130Y1242D01*
X130Y1240D01*
X126Y1240D01*
X126Y1238D01*
X122Y1238D01*
X122Y1236D01*
X116Y1236D01*
X116Y1234D01*
X232Y1234D01*
X232Y1238D01*
X230Y1238D01*
X230Y1240D01*
X228Y1240D01*
X228Y1242D01*
X226Y1242D01*
X226Y1244D01*
X224Y1244D01*
X224Y1246D01*
X222Y1246D01*
X222Y1248D01*
X220Y1248D01*
X220Y1252D01*
X218Y1252D01*
X218Y1254D01*
X216Y1254D01*
X216Y1258D01*
X214Y1258D01*
X214Y1264D01*
X212Y1264D01*
X212Y1272D01*
X210Y1272D01*
X210Y1282D01*
X212Y1282D01*
X212Y1290D01*
X214Y1290D01*
X214Y1296D01*
X216Y1296D01*
X216Y1300D01*
X218Y1300D01*
X218Y1302D01*
X220Y1302D01*
X220Y1306D01*
X222Y1306D01*
X222Y1308D01*
X224Y1308D01*
X224Y1310D01*
X226Y1310D01*
X226Y1312D01*
X228Y1312D01*
X228Y1314D01*
X230Y1314D01*
X230Y1316D01*
X232Y1316D01*
X232Y1318D01*
X234Y1318D01*
X234Y1338D01*
X152Y1338D01*
G37*
D02*
G36*
X40Y1254D02*
X40Y1234D01*
X88Y1234D01*
X88Y1236D01*
X82Y1236D01*
X82Y1238D01*
X78Y1238D01*
X78Y1240D01*
X74Y1240D01*
X74Y1242D01*
X72Y1242D01*
X72Y1244D01*
X68Y1244D01*
X68Y1246D01*
X66Y1246D01*
X66Y1248D01*
X64Y1248D01*
X64Y1250D01*
X62Y1250D01*
X62Y1252D01*
X60Y1252D01*
X60Y1254D01*
X40Y1254D01*
G37*
D02*
G36*
X40Y1234D02*
X40Y1232D01*
X232Y1232D01*
X232Y1234D01*
X40Y1234D01*
G37*
D02*
G36*
X40Y1234D02*
X40Y1232D01*
X232Y1232D01*
X232Y1234D01*
X40Y1234D01*
G37*
D02*
G36*
X40Y1232D02*
X40Y948D01*
X108Y948D01*
X108Y946D01*
X116Y946D01*
X116Y944D01*
X122Y944D01*
X122Y942D01*
X126Y942D01*
X126Y940D01*
X130Y940D01*
X130Y938D01*
X134Y938D01*
X134Y936D01*
X136Y936D01*
X136Y934D01*
X138Y934D01*
X138Y932D01*
X142Y932D01*
X142Y930D01*
X144Y930D01*
X144Y928D01*
X146Y928D01*
X146Y926D01*
X148Y926D01*
X148Y924D01*
X150Y924D01*
X150Y922D01*
X152Y922D01*
X152Y918D01*
X154Y918D01*
X154Y916D01*
X156Y916D01*
X156Y912D01*
X158Y912D01*
X158Y910D01*
X160Y910D01*
X160Y906D01*
X162Y906D01*
X162Y902D01*
X164Y902D01*
X164Y896D01*
X166Y896D01*
X166Y886D01*
X168Y886D01*
X168Y870D01*
X166Y870D01*
X166Y860D01*
X164Y860D01*
X164Y854D01*
X162Y854D01*
X162Y850D01*
X160Y850D01*
X160Y848D01*
X370Y848D01*
X370Y846D01*
X376Y846D01*
X376Y844D01*
X396Y844D01*
X396Y880D01*
X350Y880D01*
X350Y908D01*
X274Y908D01*
X274Y910D01*
X252Y910D01*
X252Y912D01*
X248Y912D01*
X248Y914D01*
X246Y914D01*
X246Y916D01*
X244Y916D01*
X244Y918D01*
X242Y918D01*
X242Y922D01*
X240Y922D01*
X240Y968D01*
X242Y968D01*
X242Y1032D01*
X238Y1032D01*
X238Y1034D01*
X234Y1034D01*
X234Y1036D01*
X232Y1036D01*
X232Y1038D01*
X230Y1038D01*
X230Y1040D01*
X228Y1040D01*
X228Y1042D01*
X226Y1042D01*
X226Y1044D01*
X224Y1044D01*
X224Y1046D01*
X222Y1046D01*
X222Y1048D01*
X220Y1048D01*
X220Y1052D01*
X218Y1052D01*
X218Y1054D01*
X216Y1054D01*
X216Y1058D01*
X214Y1058D01*
X214Y1064D01*
X212Y1064D01*
X212Y1072D01*
X210Y1072D01*
X210Y1082D01*
X212Y1082D01*
X212Y1090D01*
X214Y1090D01*
X214Y1096D01*
X216Y1096D01*
X216Y1100D01*
X218Y1100D01*
X218Y1102D01*
X220Y1102D01*
X220Y1106D01*
X222Y1106D01*
X222Y1108D01*
X224Y1108D01*
X224Y1110D01*
X226Y1110D01*
X226Y1112D01*
X228Y1112D01*
X228Y1114D01*
X230Y1114D01*
X230Y1116D01*
X232Y1116D01*
X232Y1138D01*
X230Y1138D01*
X230Y1140D01*
X228Y1140D01*
X228Y1142D01*
X226Y1142D01*
X226Y1144D01*
X224Y1144D01*
X224Y1146D01*
X222Y1146D01*
X222Y1148D01*
X220Y1148D01*
X220Y1152D01*
X218Y1152D01*
X218Y1154D01*
X216Y1154D01*
X216Y1158D01*
X214Y1158D01*
X214Y1164D01*
X212Y1164D01*
X212Y1172D01*
X210Y1172D01*
X210Y1182D01*
X212Y1182D01*
X212Y1190D01*
X214Y1190D01*
X214Y1196D01*
X216Y1196D01*
X216Y1200D01*
X218Y1200D01*
X218Y1202D01*
X220Y1202D01*
X220Y1206D01*
X222Y1206D01*
X222Y1208D01*
X224Y1208D01*
X224Y1210D01*
X226Y1210D01*
X226Y1212D01*
X228Y1212D01*
X228Y1214D01*
X230Y1214D01*
X230Y1216D01*
X232Y1216D01*
X232Y1232D01*
X40Y1232D01*
G37*
D02*
G36*
X40Y948D02*
X40Y934D01*
X60Y934D01*
X60Y936D01*
X62Y936D01*
X62Y938D01*
X66Y938D01*
X66Y940D01*
X70Y940D01*
X70Y942D01*
X74Y942D01*
X74Y944D01*
X78Y944D01*
X78Y946D01*
X86Y946D01*
X86Y948D01*
X40Y948D01*
G37*
D02*
G36*
X160Y848D02*
X160Y846D01*
X158Y846D01*
X158Y844D01*
X156Y844D01*
X156Y840D01*
X154Y840D01*
X154Y838D01*
X152Y838D01*
X152Y834D01*
X150Y834D01*
X150Y832D01*
X148Y832D01*
X148Y830D01*
X146Y830D01*
X146Y828D01*
X144Y828D01*
X144Y826D01*
X142Y826D01*
X142Y824D01*
X138Y824D01*
X138Y822D01*
X136Y822D01*
X136Y820D01*
X132Y820D01*
X132Y818D01*
X130Y818D01*
X130Y816D01*
X126Y816D01*
X126Y814D01*
X122Y814D01*
X122Y812D01*
X116Y812D01*
X116Y810D01*
X108Y810D01*
X108Y808D01*
X330Y808D01*
X330Y818D01*
X332Y818D01*
X332Y824D01*
X334Y824D01*
X334Y828D01*
X336Y828D01*
X336Y832D01*
X338Y832D01*
X338Y834D01*
X340Y834D01*
X340Y836D01*
X342Y836D01*
X342Y838D01*
X344Y838D01*
X344Y840D01*
X346Y840D01*
X346Y842D01*
X350Y842D01*
X350Y844D01*
X354Y844D01*
X354Y846D01*
X360Y846D01*
X360Y848D01*
X160Y848D01*
G37*
D02*
G36*
X40Y822D02*
X40Y808D01*
X88Y808D01*
X88Y810D01*
X80Y810D01*
X80Y812D01*
X74Y812D01*
X74Y814D01*
X70Y814D01*
X70Y816D01*
X66Y816D01*
X66Y818D01*
X62Y818D01*
X62Y820D01*
X60Y820D01*
X60Y822D01*
X40Y822D01*
G37*
D02*
G36*
X40Y808D02*
X40Y806D01*
X332Y806D01*
X332Y808D01*
X40Y808D01*
G37*
D02*
G36*
X40Y808D02*
X40Y806D01*
X332Y806D01*
X332Y808D01*
X40Y808D01*
G37*
D02*
G36*
X40Y806D02*
X40Y738D01*
X292Y738D01*
X292Y736D01*
X298Y736D01*
X298Y734D01*
X302Y734D01*
X302Y732D01*
X306Y732D01*
X306Y730D01*
X308Y730D01*
X308Y728D01*
X310Y728D01*
X310Y726D01*
X314Y726D01*
X314Y724D01*
X316Y724D01*
X316Y722D01*
X318Y722D01*
X318Y720D01*
X320Y720D01*
X320Y716D01*
X322Y716D01*
X322Y714D01*
X324Y714D01*
X324Y710D01*
X326Y710D01*
X326Y708D01*
X348Y708D01*
X348Y784D01*
X346Y784D01*
X346Y786D01*
X344Y786D01*
X344Y788D01*
X342Y788D01*
X342Y790D01*
X340Y790D01*
X340Y792D01*
X338Y792D01*
X338Y794D01*
X336Y794D01*
X336Y798D01*
X334Y798D01*
X334Y802D01*
X332Y802D01*
X332Y806D01*
X40Y806D01*
G37*
D02*
G36*
X40Y738D02*
X40Y544D01*
X196Y544D01*
X196Y546D01*
X190Y546D01*
X190Y548D01*
X186Y548D01*
X186Y550D01*
X182Y550D01*
X182Y552D01*
X178Y552D01*
X178Y554D01*
X176Y554D01*
X176Y556D01*
X174Y556D01*
X174Y558D01*
X172Y558D01*
X172Y560D01*
X170Y560D01*
X170Y562D01*
X168Y562D01*
X168Y564D01*
X166Y564D01*
X166Y568D01*
X164Y568D01*
X164Y570D01*
X162Y570D01*
X162Y574D01*
X160Y574D01*
X160Y578D01*
X158Y578D01*
X158Y586D01*
X156Y586D01*
X156Y596D01*
X158Y596D01*
X158Y604D01*
X160Y604D01*
X160Y610D01*
X162Y610D01*
X162Y614D01*
X164Y614D01*
X164Y616D01*
X166Y616D01*
X166Y620D01*
X168Y620D01*
X168Y622D01*
X170Y622D01*
X170Y624D01*
X172Y624D01*
X172Y626D01*
X174Y626D01*
X174Y628D01*
X176Y628D01*
X176Y630D01*
X180Y630D01*
X180Y652D01*
X176Y652D01*
X176Y654D01*
X174Y654D01*
X174Y656D01*
X172Y656D01*
X172Y658D01*
X170Y658D01*
X170Y660D01*
X168Y660D01*
X168Y662D01*
X166Y662D01*
X166Y666D01*
X164Y666D01*
X164Y668D01*
X162Y668D01*
X162Y672D01*
X160Y672D01*
X160Y678D01*
X158Y678D01*
X158Y686D01*
X156Y686D01*
X156Y696D01*
X158Y696D01*
X158Y704D01*
X160Y704D01*
X160Y708D01*
X162Y708D01*
X162Y712D01*
X164Y712D01*
X164Y714D01*
X166Y714D01*
X166Y718D01*
X168Y718D01*
X168Y720D01*
X170Y720D01*
X170Y722D01*
X172Y722D01*
X172Y724D01*
X174Y724D01*
X174Y726D01*
X176Y726D01*
X176Y728D01*
X178Y728D01*
X178Y730D01*
X182Y730D01*
X182Y732D01*
X186Y732D01*
X186Y734D01*
X190Y734D01*
X190Y736D01*
X196Y736D01*
X196Y738D01*
X40Y738D01*
G37*
D02*
G36*
X214Y738D02*
X214Y736D01*
X220Y736D01*
X220Y734D01*
X224Y734D01*
X224Y732D01*
X228Y732D01*
X228Y730D01*
X230Y730D01*
X230Y728D01*
X232Y728D01*
X232Y726D01*
X254Y726D01*
X254Y728D01*
X256Y728D01*
X256Y730D01*
X260Y730D01*
X260Y732D01*
X264Y732D01*
X264Y734D01*
X268Y734D01*
X268Y736D01*
X274Y736D01*
X274Y738D01*
X214Y738D01*
G37*
D02*
G36*
X232Y556D02*
X232Y554D01*
X230Y554D01*
X230Y552D01*
X228Y552D01*
X228Y550D01*
X224Y550D01*
X224Y548D01*
X220Y548D01*
X220Y546D01*
X214Y546D01*
X214Y544D01*
X262Y544D01*
X262Y550D01*
X260Y550D01*
X260Y552D01*
X256Y552D01*
X256Y554D01*
X254Y554D01*
X254Y556D01*
X232Y556D01*
G37*
D02*
G36*
X40Y544D02*
X40Y542D01*
X262Y542D01*
X262Y544D01*
X40Y544D01*
G37*
D02*
G36*
X40Y544D02*
X40Y542D01*
X262Y542D01*
X262Y544D01*
X40Y544D01*
G37*
D02*
G36*
X40Y542D02*
X40Y474D01*
X108Y474D01*
X108Y472D01*
X116Y472D01*
X116Y470D01*
X122Y470D01*
X122Y468D01*
X126Y468D01*
X126Y466D01*
X130Y466D01*
X130Y464D01*
X134Y464D01*
X134Y462D01*
X136Y462D01*
X136Y460D01*
X138Y460D01*
X138Y458D01*
X142Y458D01*
X142Y456D01*
X144Y456D01*
X144Y454D01*
X146Y454D01*
X146Y452D01*
X148Y452D01*
X148Y450D01*
X150Y450D01*
X150Y448D01*
X152Y448D01*
X152Y444D01*
X154Y444D01*
X154Y442D01*
X156Y442D01*
X156Y438D01*
X158Y438D01*
X158Y436D01*
X160Y436D01*
X160Y432D01*
X162Y432D01*
X162Y428D01*
X164Y428D01*
X164Y422D01*
X166Y422D01*
X166Y412D01*
X168Y412D01*
X168Y396D01*
X166Y396D01*
X166Y386D01*
X164Y386D01*
X164Y380D01*
X162Y380D01*
X162Y376D01*
X160Y376D01*
X160Y372D01*
X158Y372D01*
X158Y370D01*
X156Y370D01*
X156Y366D01*
X154Y366D01*
X154Y364D01*
X152Y364D01*
X152Y360D01*
X150Y360D01*
X150Y358D01*
X148Y358D01*
X148Y356D01*
X146Y356D01*
X146Y354D01*
X144Y354D01*
X144Y352D01*
X142Y352D01*
X142Y350D01*
X138Y350D01*
X138Y348D01*
X136Y348D01*
X136Y346D01*
X132Y346D01*
X132Y344D01*
X130Y344D01*
X130Y342D01*
X126Y342D01*
X126Y340D01*
X122Y340D01*
X122Y338D01*
X116Y338D01*
X116Y336D01*
X108Y336D01*
X108Y334D01*
X194Y334D01*
X194Y396D01*
X260Y396D01*
X260Y412D01*
X262Y412D01*
X262Y542D01*
X40Y542D01*
G37*
D02*
G36*
X40Y474D02*
X40Y460D01*
X60Y460D01*
X60Y462D01*
X62Y462D01*
X62Y464D01*
X66Y464D01*
X66Y466D01*
X70Y466D01*
X70Y468D01*
X74Y468D01*
X74Y470D01*
X78Y470D01*
X78Y472D01*
X86Y472D01*
X86Y474D01*
X40Y474D01*
G37*
D02*
G36*
X40Y348D02*
X40Y334D01*
X88Y334D01*
X88Y336D01*
X80Y336D01*
X80Y338D01*
X74Y338D01*
X74Y340D01*
X70Y340D01*
X70Y342D01*
X66Y342D01*
X66Y344D01*
X62Y344D01*
X62Y346D01*
X60Y346D01*
X60Y348D01*
X40Y348D01*
G37*
D02*
G36*
X40Y334D02*
X40Y332D01*
X194Y332D01*
X194Y334D01*
X40Y334D01*
G37*
D02*
G36*
X40Y334D02*
X40Y332D01*
X194Y332D01*
X194Y334D01*
X40Y334D01*
G37*
D02*
G36*
X40Y332D02*
X40Y146D01*
X114Y146D01*
X114Y144D01*
X122Y144D01*
X122Y142D01*
X126Y142D01*
X126Y140D01*
X148Y140D01*
X148Y152D01*
X150Y152D01*
X150Y154D01*
X252Y154D01*
X252Y280D01*
X194Y280D01*
X194Y332D01*
X40Y332D01*
G37*
D02*
G36*
X40Y146D02*
X40Y124D01*
X60Y124D01*
X60Y126D01*
X62Y126D01*
X62Y128D01*
X64Y128D01*
X64Y130D01*
X66Y130D01*
X66Y132D01*
X68Y132D01*
X68Y134D01*
X72Y134D01*
X72Y136D01*
X74Y136D01*
X74Y138D01*
X78Y138D01*
X78Y140D01*
X82Y140D01*
X82Y142D01*
X86Y142D01*
X86Y144D01*
X94Y144D01*
X94Y146D01*
X40Y146D01*
G37*
D02*
G36*
X756Y240D02*
X756Y136D01*
X758Y136D01*
X758Y134D01*
X762Y134D01*
X762Y132D01*
X764Y132D01*
X764Y130D01*
X766Y130D01*
X766Y128D01*
X768Y128D01*
X768Y126D01*
X770Y126D01*
X770Y124D01*
X790Y124D01*
X790Y140D01*
X786Y140D01*
X786Y142D01*
X784Y142D01*
X784Y240D01*
X756Y240D01*
G37*
D02*
G36*
X614Y622D02*
X614Y506D01*
X616Y506D01*
X616Y490D01*
X732Y490D01*
X732Y488D01*
X738Y488D01*
X738Y486D01*
X740Y486D01*
X740Y484D01*
X742Y484D01*
X742Y482D01*
X744Y482D01*
X744Y480D01*
X746Y480D01*
X746Y476D01*
X748Y476D01*
X748Y414D01*
X1100Y414D01*
X1100Y498D01*
X892Y498D01*
X892Y500D01*
X888Y500D01*
X888Y502D01*
X886Y502D01*
X886Y504D01*
X884Y504D01*
X884Y506D01*
X882Y506D01*
X882Y512D01*
X880Y512D01*
X880Y528D01*
X650Y528D01*
X650Y622D01*
X614Y622D01*
G37*
D02*
G36*
X1124Y614D02*
X1124Y574D01*
X1122Y574D01*
X1122Y508D01*
X1206Y508D01*
X1206Y442D01*
X1350Y442D01*
X1350Y440D01*
X1354Y440D01*
X1354Y438D01*
X1358Y438D01*
X1358Y436D01*
X1362Y436D01*
X1362Y434D01*
X1364Y434D01*
X1364Y432D01*
X1368Y432D01*
X1368Y430D01*
X1370Y430D01*
X1370Y428D01*
X1372Y428D01*
X1372Y426D01*
X1374Y426D01*
X1374Y424D01*
X1376Y424D01*
X1376Y422D01*
X1378Y422D01*
X1378Y418D01*
X1380Y418D01*
X1380Y416D01*
X1382Y416D01*
X1382Y412D01*
X1384Y412D01*
X1384Y410D01*
X1406Y410D01*
X1406Y408D01*
X1432Y408D01*
X1432Y470D01*
X1402Y470D01*
X1402Y472D01*
X1346Y472D01*
X1346Y474D01*
X1342Y474D01*
X1342Y476D01*
X1340Y476D01*
X1340Y478D01*
X1338Y478D01*
X1338Y480D01*
X1336Y480D01*
X1336Y486D01*
X1334Y486D01*
X1334Y502D01*
X1236Y502D01*
X1236Y576D01*
X1162Y576D01*
X1162Y614D01*
X1124Y614D01*
G37*
D02*
G36*
X1580Y580D02*
X1580Y576D01*
X1508Y576D01*
X1508Y502D01*
X1504Y502D01*
X1504Y462D01*
X1506Y462D01*
X1506Y442D01*
X1542Y442D01*
X1542Y440D01*
X1548Y440D01*
X1548Y438D01*
X1552Y438D01*
X1552Y436D01*
X1556Y436D01*
X1556Y434D01*
X1558Y434D01*
X1558Y432D01*
X1560Y432D01*
X1560Y430D01*
X1562Y430D01*
X1562Y428D01*
X1566Y428D01*
X1566Y424D01*
X1568Y424D01*
X1568Y422D01*
X1740Y422D01*
X1740Y424D01*
X1652Y424D01*
X1652Y516D01*
X1654Y516D01*
X1654Y518D01*
X1670Y518D01*
X1670Y546D01*
X1652Y546D01*
X1652Y576D01*
X1640Y576D01*
X1640Y578D01*
X1602Y578D01*
X1602Y580D01*
X1580Y580D01*
G37*
D02*
G36*
X1758Y574D02*
X1758Y546D01*
X1740Y546D01*
X1740Y540D01*
X1874Y540D01*
X1874Y542D01*
X1868Y542D01*
X1868Y544D01*
X1864Y544D01*
X1864Y546D01*
X1860Y546D01*
X1860Y548D01*
X1858Y548D01*
X1858Y550D01*
X1854Y550D01*
X1854Y552D01*
X1852Y552D01*
X1852Y554D01*
X1850Y554D01*
X1850Y556D01*
X1848Y556D01*
X1848Y558D01*
X1846Y558D01*
X1846Y560D01*
X1844Y560D01*
X1844Y562D01*
X1842Y562D01*
X1842Y566D01*
X1840Y566D01*
X1840Y568D01*
X1838Y568D01*
X1838Y572D01*
X1836Y572D01*
X1836Y574D01*
X1758Y574D01*
G37*
D02*
G36*
X1906Y546D02*
X1906Y544D01*
X1902Y544D01*
X1902Y542D01*
X1896Y542D01*
X1896Y540D01*
X1928Y540D01*
X1928Y546D01*
X1906Y546D01*
G37*
D02*
G36*
X1740Y540D02*
X1740Y538D01*
X1928Y538D01*
X1928Y540D01*
X1740Y540D01*
G37*
D02*
G36*
X1740Y540D02*
X1740Y538D01*
X1928Y538D01*
X1928Y540D01*
X1740Y540D01*
G37*
D02*
G36*
X1740Y538D02*
X1740Y518D01*
X1756Y518D01*
X1756Y516D01*
X1844Y516D01*
X1844Y422D01*
X1928Y422D01*
X1928Y538D01*
X1740Y538D01*
G37*
D02*
G36*
X616Y490D02*
X616Y488D01*
X704Y488D01*
X704Y490D01*
X616Y490D01*
G37*
D02*
G36*
X1206Y442D02*
X1206Y414D01*
X1294Y414D01*
X1294Y416D01*
X1296Y416D01*
X1296Y420D01*
X1298Y420D01*
X1298Y422D01*
X1300Y422D01*
X1300Y424D01*
X1302Y424D01*
X1302Y426D01*
X1304Y426D01*
X1304Y428D01*
X1306Y428D01*
X1306Y430D01*
X1308Y430D01*
X1308Y432D01*
X1310Y432D01*
X1310Y434D01*
X1314Y434D01*
X1314Y436D01*
X1316Y436D01*
X1316Y438D01*
X1320Y438D01*
X1320Y440D01*
X1326Y440D01*
X1326Y442D01*
X1206Y442D01*
G37*
D02*
G36*
X1570Y422D02*
X1570Y420D01*
X1928Y420D01*
X1928Y422D01*
X1570Y422D01*
G37*
D02*
G36*
X1570Y422D02*
X1570Y420D01*
X1928Y420D01*
X1928Y422D01*
X1570Y422D01*
G37*
D02*
G36*
X1572Y420D02*
X1572Y418D01*
X1574Y418D01*
X1574Y414D01*
X1576Y414D01*
X1576Y410D01*
X1578Y410D01*
X1578Y406D01*
X1580Y406D01*
X1580Y404D01*
X1582Y404D01*
X1582Y402D01*
X1592Y402D01*
X1592Y400D01*
X1604Y400D01*
X1604Y398D01*
X1616Y398D01*
X1616Y396D01*
X1628Y396D01*
X1628Y394D01*
X1844Y394D01*
X1844Y286D01*
X1856Y286D01*
X1856Y182D01*
X1928Y182D01*
X1928Y420D01*
X1572Y420D01*
G37*
D02*
G36*
X748Y414D02*
X748Y412D01*
X1292Y412D01*
X1292Y414D01*
X748Y414D01*
G37*
D02*
G36*
X748Y414D02*
X748Y412D01*
X1292Y412D01*
X1292Y414D01*
X748Y414D01*
G37*
D02*
G36*
X748Y412D02*
X748Y386D01*
X1204Y386D01*
X1204Y384D01*
X1206Y384D01*
X1206Y380D01*
X1230Y380D01*
X1230Y382D01*
X1238Y382D01*
X1238Y384D01*
X1244Y384D01*
X1244Y386D01*
X1252Y386D01*
X1252Y388D01*
X1258Y388D01*
X1258Y390D01*
X1264Y390D01*
X1264Y392D01*
X1272Y392D01*
X1272Y394D01*
X1278Y394D01*
X1278Y396D01*
X1286Y396D01*
X1286Y398D01*
X1288Y398D01*
X1288Y404D01*
X1290Y404D01*
X1290Y408D01*
X1292Y408D01*
X1292Y412D01*
X748Y412D01*
G37*
D02*
G36*
X1640Y394D02*
X1640Y392D01*
X1650Y392D01*
X1650Y390D01*
X1662Y390D01*
X1662Y388D01*
X1674Y388D01*
X1674Y386D01*
X1686Y386D01*
X1686Y384D01*
X1698Y384D01*
X1698Y382D01*
X1708Y382D01*
X1708Y380D01*
X1720Y380D01*
X1720Y378D01*
X1740Y378D01*
X1740Y394D01*
X1640Y394D01*
G37*
D02*
G36*
X748Y386D02*
X748Y374D01*
X750Y374D01*
X750Y356D01*
X796Y356D01*
X796Y354D01*
X804Y354D01*
X804Y352D01*
X806Y352D01*
X806Y350D01*
X810Y350D01*
X810Y346D01*
X812Y346D01*
X812Y342D01*
X814Y342D01*
X814Y326D01*
X1024Y326D01*
X1024Y324D01*
X1026Y324D01*
X1026Y292D01*
X1100Y292D01*
X1100Y384D01*
X1102Y384D01*
X1102Y386D01*
X748Y386D01*
G37*
D02*
G36*
X1382Y372D02*
X1382Y370D01*
X1406Y370D01*
X1406Y372D01*
X1382Y372D01*
G37*
D02*
G36*
X1458Y372D02*
X1458Y370D01*
X1484Y370D01*
X1484Y372D01*
X1458Y372D01*
G37*
D02*
G36*
X1380Y370D02*
X1380Y368D01*
X1488Y368D01*
X1488Y370D01*
X1380Y370D01*
G37*
D02*
G36*
X1380Y370D02*
X1380Y368D01*
X1488Y368D01*
X1488Y370D01*
X1380Y370D01*
G37*
D02*
G36*
X1380Y368D02*
X1380Y366D01*
X1378Y366D01*
X1378Y364D01*
X1376Y364D01*
X1376Y362D01*
X1374Y362D01*
X1374Y358D01*
X1372Y358D01*
X1372Y356D01*
X1368Y356D01*
X1368Y354D01*
X1366Y354D01*
X1366Y352D01*
X1364Y352D01*
X1364Y350D01*
X1360Y350D01*
X1360Y348D01*
X1358Y348D01*
X1358Y346D01*
X1352Y346D01*
X1352Y344D01*
X1346Y344D01*
X1346Y342D01*
X1522Y342D01*
X1522Y344D01*
X1516Y344D01*
X1516Y346D01*
X1512Y346D01*
X1512Y348D01*
X1508Y348D01*
X1508Y350D01*
X1504Y350D01*
X1504Y352D01*
X1502Y352D01*
X1502Y354D01*
X1500Y354D01*
X1500Y356D01*
X1498Y356D01*
X1498Y358D01*
X1496Y358D01*
X1496Y360D01*
X1494Y360D01*
X1494Y362D01*
X1492Y362D01*
X1492Y364D01*
X1490Y364D01*
X1490Y368D01*
X1380Y368D01*
G37*
D02*
G36*
X1570Y364D02*
X1570Y362D01*
X1568Y362D01*
X1568Y360D01*
X1566Y360D01*
X1566Y358D01*
X1564Y358D01*
X1564Y356D01*
X1562Y356D01*
X1562Y354D01*
X1560Y354D01*
X1560Y352D01*
X1556Y352D01*
X1556Y350D01*
X1554Y350D01*
X1554Y348D01*
X1550Y348D01*
X1550Y346D01*
X1546Y346D01*
X1546Y344D01*
X1540Y344D01*
X1540Y342D01*
X1706Y342D01*
X1706Y344D01*
X1694Y344D01*
X1694Y346D01*
X1682Y346D01*
X1682Y348D01*
X1670Y348D01*
X1670Y350D01*
X1660Y350D01*
X1660Y352D01*
X1648Y352D01*
X1648Y354D01*
X1636Y354D01*
X1636Y356D01*
X1624Y356D01*
X1624Y358D01*
X1612Y358D01*
X1612Y360D01*
X1602Y360D01*
X1602Y362D01*
X1590Y362D01*
X1590Y364D01*
X1570Y364D01*
G37*
D02*
G36*
X1284Y358D02*
X1284Y356D01*
X1278Y356D01*
X1278Y354D01*
X1270Y354D01*
X1270Y352D01*
X1264Y352D01*
X1264Y350D01*
X1256Y350D01*
X1256Y348D01*
X1250Y348D01*
X1250Y346D01*
X1242Y346D01*
X1242Y344D01*
X1236Y344D01*
X1236Y342D01*
X1328Y342D01*
X1328Y344D01*
X1322Y344D01*
X1322Y346D01*
X1318Y346D01*
X1318Y348D01*
X1314Y348D01*
X1314Y350D01*
X1312Y350D01*
X1312Y352D01*
X1310Y352D01*
X1310Y354D01*
X1306Y354D01*
X1306Y356D01*
X1304Y356D01*
X1304Y358D01*
X1284Y358D01*
G37*
D02*
G36*
X1230Y342D02*
X1230Y340D01*
X1718Y340D01*
X1718Y342D01*
X1230Y342D01*
G37*
D02*
G36*
X1230Y342D02*
X1230Y340D01*
X1718Y340D01*
X1718Y342D01*
X1230Y342D01*
G37*
D02*
G36*
X1230Y342D02*
X1230Y340D01*
X1718Y340D01*
X1718Y342D01*
X1230Y342D01*
G37*
D02*
G36*
X1222Y340D02*
X1222Y338D01*
X1216Y338D01*
X1216Y336D01*
X1208Y336D01*
X1208Y334D01*
X1206Y334D01*
X1206Y292D01*
X1762Y292D01*
X1762Y300D01*
X1740Y300D01*
X1740Y338D01*
X1728Y338D01*
X1728Y340D01*
X1222Y340D01*
G37*
D02*
G36*
X1026Y292D02*
X1026Y290D01*
X1762Y290D01*
X1762Y292D01*
X1026Y292D01*
G37*
D02*
G36*
X1026Y292D02*
X1026Y290D01*
X1762Y290D01*
X1762Y292D01*
X1026Y292D01*
G37*
D02*
G36*
X1026Y290D02*
X1026Y286D01*
X1734Y286D01*
X1734Y182D01*
X1762Y182D01*
X1762Y290D01*
X1026Y290D01*
G37*
D02*
G36*
X1026Y286D02*
X1026Y284D01*
X1504Y284D01*
X1504Y178D01*
X1534Y178D01*
X1534Y284D01*
X1640Y284D01*
X1640Y286D01*
X1026Y286D01*
G37*
D02*
G36*
X1026Y284D02*
X1026Y240D01*
X878Y240D01*
X878Y230D01*
X1168Y230D01*
X1168Y228D01*
X1174Y228D01*
X1174Y226D01*
X1178Y226D01*
X1178Y224D01*
X1182Y224D01*
X1182Y222D01*
X1186Y222D01*
X1186Y220D01*
X1188Y220D01*
X1188Y218D01*
X1190Y218D01*
X1190Y216D01*
X1194Y216D01*
X1194Y214D01*
X1196Y214D01*
X1196Y212D01*
X1198Y212D01*
X1198Y208D01*
X1218Y208D01*
X1218Y212D01*
X1220Y212D01*
X1220Y214D01*
X1222Y214D01*
X1222Y216D01*
X1226Y216D01*
X1226Y218D01*
X1228Y218D01*
X1228Y220D01*
X1230Y220D01*
X1230Y240D01*
X1232Y240D01*
X1232Y244D01*
X1234Y244D01*
X1234Y246D01*
X1236Y246D01*
X1236Y248D01*
X1238Y248D01*
X1238Y250D01*
X1240Y250D01*
X1240Y252D01*
X1242Y252D01*
X1242Y254D01*
X1248Y254D01*
X1248Y256D01*
X1334Y256D01*
X1334Y258D01*
X1412Y258D01*
X1412Y284D01*
X1026Y284D01*
G37*
D02*
G36*
X878Y230D02*
X878Y142D01*
X876Y142D01*
X876Y140D01*
X874Y140D01*
X874Y122D01*
X1052Y122D01*
X1052Y124D01*
X1044Y124D01*
X1044Y126D01*
X1038Y126D01*
X1038Y128D01*
X1034Y128D01*
X1034Y130D01*
X1032Y130D01*
X1032Y132D01*
X1028Y132D01*
X1028Y134D01*
X1026Y134D01*
X1026Y136D01*
X1024Y136D01*
X1024Y138D01*
X1022Y138D01*
X1022Y140D01*
X1020Y140D01*
X1020Y142D01*
X1018Y142D01*
X1018Y144D01*
X1016Y144D01*
X1016Y146D01*
X1014Y146D01*
X1014Y150D01*
X1012Y150D01*
X1012Y152D01*
X1010Y152D01*
X1010Y156D01*
X1008Y156D01*
X1008Y160D01*
X1006Y160D01*
X1006Y168D01*
X1004Y168D01*
X1004Y186D01*
X1006Y186D01*
X1006Y192D01*
X1008Y192D01*
X1008Y196D01*
X1010Y196D01*
X1010Y200D01*
X1012Y200D01*
X1012Y204D01*
X1014Y204D01*
X1014Y206D01*
X1016Y206D01*
X1016Y208D01*
X1018Y208D01*
X1018Y212D01*
X1020Y212D01*
X1020Y214D01*
X1022Y214D01*
X1022Y216D01*
X1026Y216D01*
X1026Y218D01*
X1028Y218D01*
X1028Y220D01*
X1030Y220D01*
X1030Y222D01*
X1034Y222D01*
X1034Y224D01*
X1036Y224D01*
X1036Y226D01*
X1042Y226D01*
X1042Y228D01*
X1048Y228D01*
X1048Y230D01*
X878Y230D01*
G37*
D02*
G36*
X1068Y230D02*
X1068Y228D01*
X1074Y228D01*
X1074Y226D01*
X1078Y226D01*
X1078Y224D01*
X1082Y224D01*
X1082Y222D01*
X1086Y222D01*
X1086Y220D01*
X1088Y220D01*
X1088Y218D01*
X1090Y218D01*
X1090Y216D01*
X1094Y216D01*
X1094Y214D01*
X1096Y214D01*
X1096Y212D01*
X1098Y212D01*
X1098Y208D01*
X1118Y208D01*
X1118Y212D01*
X1120Y212D01*
X1120Y214D01*
X1122Y214D01*
X1122Y216D01*
X1126Y216D01*
X1126Y218D01*
X1128Y218D01*
X1128Y220D01*
X1130Y220D01*
X1130Y222D01*
X1134Y222D01*
X1134Y224D01*
X1136Y224D01*
X1136Y226D01*
X1142Y226D01*
X1142Y228D01*
X1148Y228D01*
X1148Y230D01*
X1068Y230D01*
G37*
D02*
G36*
X1332Y204D02*
X1332Y202D01*
X1312Y202D01*
X1312Y178D01*
X1412Y178D01*
X1412Y204D01*
X1332Y204D01*
G37*
D02*
G36*
X1626Y182D02*
X1626Y180D01*
X1928Y180D01*
X1928Y182D01*
X1626Y182D01*
G37*
D02*
G36*
X1626Y182D02*
X1626Y180D01*
X1928Y180D01*
X1928Y182D01*
X1626Y182D01*
G37*
D02*
G36*
X1626Y180D02*
X1626Y178D01*
X1928Y178D01*
X1928Y180D01*
X1626Y180D01*
G37*
D02*
G36*
X1312Y178D02*
X1312Y176D01*
X1928Y176D01*
X1928Y178D01*
X1312Y178D01*
G37*
D02*
G36*
X1312Y178D02*
X1312Y176D01*
X1928Y176D01*
X1928Y178D01*
X1312Y178D01*
G37*
D02*
G36*
X1312Y178D02*
X1312Y176D01*
X1928Y176D01*
X1928Y178D01*
X1312Y178D01*
G37*
D02*
G36*
X1312Y176D02*
X1312Y168D01*
X1310Y168D01*
X1310Y162D01*
X1308Y162D01*
X1308Y156D01*
X1306Y156D01*
X1306Y152D01*
X1304Y152D01*
X1304Y150D01*
X1302Y150D01*
X1302Y146D01*
X1300Y146D01*
X1300Y144D01*
X1298Y144D01*
X1298Y142D01*
X1296Y142D01*
X1296Y140D01*
X1294Y140D01*
X1294Y138D01*
X1292Y138D01*
X1292Y136D01*
X1290Y136D01*
X1290Y134D01*
X1288Y134D01*
X1288Y132D01*
X1552Y132D01*
X1552Y130D01*
X1560Y130D01*
X1560Y128D01*
X1564Y128D01*
X1564Y126D01*
X1568Y126D01*
X1568Y124D01*
X1572Y124D01*
X1572Y122D01*
X1574Y122D01*
X1574Y120D01*
X1576Y120D01*
X1576Y118D01*
X1578Y118D01*
X1578Y116D01*
X1580Y116D01*
X1580Y114D01*
X1582Y114D01*
X1582Y112D01*
X1584Y112D01*
X1584Y110D01*
X1586Y110D01*
X1586Y108D01*
X1588Y108D01*
X1588Y106D01*
X1590Y106D01*
X1590Y102D01*
X1592Y102D01*
X1592Y98D01*
X1594Y98D01*
X1594Y94D01*
X1596Y94D01*
X1596Y88D01*
X1598Y88D01*
X1598Y68D01*
X1596Y68D01*
X1596Y62D01*
X1594Y62D01*
X1594Y42D01*
X1848Y42D01*
X1848Y64D01*
X1846Y64D01*
X1846Y70D01*
X1844Y70D01*
X1844Y94D01*
X1846Y94D01*
X1846Y100D01*
X1848Y100D01*
X1848Y104D01*
X1850Y104D01*
X1850Y108D01*
X1852Y108D01*
X1852Y112D01*
X1854Y112D01*
X1854Y114D01*
X1856Y114D01*
X1856Y116D01*
X1858Y116D01*
X1858Y120D01*
X1860Y120D01*
X1860Y122D01*
X1862Y122D01*
X1862Y124D01*
X1864Y124D01*
X1864Y126D01*
X1868Y126D01*
X1868Y128D01*
X1870Y128D01*
X1870Y130D01*
X1872Y130D01*
X1872Y132D01*
X1876Y132D01*
X1876Y134D01*
X1880Y134D01*
X1880Y136D01*
X1886Y136D01*
X1886Y138D01*
X1892Y138D01*
X1892Y140D01*
X1928Y140D01*
X1928Y176D01*
X1312Y176D01*
G37*
D02*
G36*
X1098Y144D02*
X1098Y142D01*
X1096Y142D01*
X1096Y140D01*
X1094Y140D01*
X1094Y138D01*
X1092Y138D01*
X1092Y136D01*
X1090Y136D01*
X1090Y134D01*
X1088Y134D01*
X1088Y132D01*
X1084Y132D01*
X1084Y130D01*
X1082Y130D01*
X1082Y128D01*
X1078Y128D01*
X1078Y126D01*
X1072Y126D01*
X1072Y124D01*
X1064Y124D01*
X1064Y122D01*
X1152Y122D01*
X1152Y124D01*
X1144Y124D01*
X1144Y126D01*
X1138Y126D01*
X1138Y128D01*
X1134Y128D01*
X1134Y130D01*
X1132Y130D01*
X1132Y132D01*
X1128Y132D01*
X1128Y134D01*
X1126Y134D01*
X1126Y136D01*
X1124Y136D01*
X1124Y138D01*
X1122Y138D01*
X1122Y140D01*
X1120Y140D01*
X1120Y142D01*
X1118Y142D01*
X1118Y144D01*
X1098Y144D01*
G37*
D02*
G36*
X1198Y144D02*
X1198Y142D01*
X1196Y142D01*
X1196Y140D01*
X1194Y140D01*
X1194Y138D01*
X1192Y138D01*
X1192Y136D01*
X1190Y136D01*
X1190Y134D01*
X1188Y134D01*
X1188Y132D01*
X1184Y132D01*
X1184Y130D01*
X1182Y130D01*
X1182Y128D01*
X1178Y128D01*
X1178Y126D01*
X1172Y126D01*
X1172Y124D01*
X1164Y124D01*
X1164Y122D01*
X1232Y122D01*
X1232Y132D01*
X1228Y132D01*
X1228Y134D01*
X1226Y134D01*
X1226Y136D01*
X1224Y136D01*
X1224Y138D01*
X1222Y138D01*
X1222Y140D01*
X1220Y140D01*
X1220Y142D01*
X1218Y142D01*
X1218Y144D01*
X1198Y144D01*
G37*
D02*
G36*
X1286Y132D02*
X1286Y130D01*
X1454Y130D01*
X1454Y128D01*
X1460Y128D01*
X1460Y126D01*
X1464Y126D01*
X1464Y124D01*
X1468Y124D01*
X1468Y122D01*
X1472Y122D01*
X1472Y120D01*
X1474Y120D01*
X1474Y118D01*
X1476Y118D01*
X1476Y116D01*
X1480Y116D01*
X1480Y114D01*
X1482Y114D01*
X1482Y112D01*
X1484Y112D01*
X1484Y110D01*
X1504Y110D01*
X1504Y112D01*
X1506Y112D01*
X1506Y114D01*
X1508Y114D01*
X1508Y116D01*
X1510Y116D01*
X1510Y118D01*
X1512Y118D01*
X1512Y120D01*
X1514Y120D01*
X1514Y122D01*
X1518Y122D01*
X1518Y124D01*
X1520Y124D01*
X1520Y126D01*
X1524Y126D01*
X1524Y128D01*
X1528Y128D01*
X1528Y130D01*
X1536Y130D01*
X1536Y132D01*
X1286Y132D01*
G37*
D02*
G36*
X1286Y130D02*
X1286Y86D01*
X1288Y86D01*
X1288Y42D01*
X1394Y42D01*
X1394Y62D01*
X1392Y62D01*
X1392Y68D01*
X1390Y68D01*
X1390Y84D01*
X1392Y84D01*
X1392Y90D01*
X1394Y90D01*
X1394Y96D01*
X1396Y96D01*
X1396Y100D01*
X1398Y100D01*
X1398Y102D01*
X1400Y102D01*
X1400Y106D01*
X1402Y106D01*
X1402Y108D01*
X1404Y108D01*
X1404Y110D01*
X1406Y110D01*
X1406Y112D01*
X1408Y112D01*
X1408Y114D01*
X1410Y114D01*
X1410Y116D01*
X1412Y116D01*
X1412Y118D01*
X1414Y118D01*
X1414Y120D01*
X1416Y120D01*
X1416Y122D01*
X1420Y122D01*
X1420Y124D01*
X1424Y124D01*
X1424Y126D01*
X1428Y126D01*
X1428Y128D01*
X1434Y128D01*
X1434Y130D01*
X1286Y130D01*
G37*
D02*
G36*
X874Y122D02*
X874Y120D01*
X1232Y120D01*
X1232Y122D01*
X874Y122D01*
G37*
D02*
G36*
X874Y122D02*
X874Y120D01*
X1232Y120D01*
X1232Y122D01*
X874Y122D01*
G37*
D02*
G36*
X874Y122D02*
X874Y120D01*
X1232Y120D01*
X1232Y122D01*
X874Y122D01*
G37*
D02*
G36*
X876Y120D02*
X876Y116D01*
X878Y116D01*
X878Y114D01*
X880Y114D01*
X880Y110D01*
X882Y110D01*
X882Y106D01*
X884Y106D01*
X884Y98D01*
X886Y98D01*
X886Y82D01*
X884Y82D01*
X884Y74D01*
X882Y74D01*
X882Y54D01*
X1234Y54D01*
X1234Y86D01*
X1232Y86D01*
X1232Y120D01*
X876Y120D01*
G37*
D02*
G36*
X446Y74D02*
X446Y72D01*
X420Y72D01*
X420Y52D01*
X472Y52D01*
X472Y74D01*
X446Y74D01*
G37*
D02*
G36*
X1482Y1084D02*
X1493Y1084D01*
X1493Y998D01*
X1482Y998D01*
X1482Y1084D01*
G37*
D02*
G36*
X1646Y1348D02*
X1677Y1348D01*
X1677Y1310D01*
X1646Y1310D01*
X1646Y1348D01*
G37*
D02*
G36*
X1662Y1327D02*
X1710Y1327D01*
X1710Y1290D01*
X1662Y1290D01*
X1662Y1327D01*
G37*
D02*
G36*
X1318Y942D02*
X1346Y942D01*
X1346Y923D01*
X1318Y923D01*
X1318Y942D01*
G37*
D02*
G36*
X1360Y942D02*
X1390Y942D01*
X1390Y923D01*
X1360Y923D01*
X1360Y942D01*
G37*
D02*
G36*
X1300Y1346D02*
X1331Y1346D01*
X1331Y1308D01*
X1300Y1308D01*
X1300Y1346D01*
G37*
D02*
G36*
X1348Y882D02*
X1359Y882D01*
X1359Y840D01*
X1348Y840D01*
X1348Y882D01*
G37*
D02*
G36*
X1100Y1344D02*
X1131Y1344D01*
X1131Y1308D01*
X1100Y1308D01*
X1100Y1344D01*
G37*
D02*
G36*
X1771Y520D02*
X1808Y520D01*
X1808Y474D01*
X1771Y474D01*
X1771Y520D01*
G37*
D02*
G36*
X174Y98D02*
X197Y98D01*
X197Y42D01*
X174Y42D01*
X174Y98D01*
G37*
D02*
G36*
X243Y1334D02*
X280Y1334D01*
X280Y1298D01*
X243Y1298D01*
X243Y1334D01*
G37*
D02*
G36*
X206Y1297D02*
X242Y1297D01*
X242Y1260D01*
X206Y1260D01*
X206Y1297D01*
G37*
D02*
G36*
X1094Y1228D02*
X1113Y1228D01*
X1113Y1198D01*
X1094Y1198D01*
X1094Y1228D01*
G37*
D02*
G36*
X1110Y1244D02*
X1140Y1244D01*
X1140Y1225D01*
X1110Y1225D01*
X1110Y1244D01*
G37*
D02*
G36*
X1685Y472D02*
X1722Y472D01*
X1722Y424D01*
X1685Y424D01*
X1685Y472D01*
G37*
D02*
G36*
X1648Y488D02*
X1702Y488D01*
X1702Y457D01*
X1648Y457D01*
X1648Y488D01*
G37*
D02*
G36*
X1133Y512D02*
X1170Y512D01*
X1170Y466D01*
X1133Y466D01*
X1133Y512D01*
G37*
D02*
G36*
X1096Y480D02*
X1150Y480D01*
X1150Y449D01*
X1096Y449D01*
X1096Y480D01*
G37*
D02*
G36*
X722Y1323D02*
X768Y1323D01*
X768Y1286D01*
X722Y1286D01*
X722Y1323D01*
G37*
D02*
G36*
X1090Y976D02*
X1109Y976D01*
X1109Y946D01*
X1090Y946D01*
X1090Y976D01*
G37*
D02*
G36*
X187Y578D02*
X220Y578D01*
X220Y544D01*
X187Y544D01*
X187Y578D01*
G37*
D02*
G36*
X152Y611D02*
X186Y611D01*
X186Y578D01*
X152Y578D01*
X152Y611D01*
G37*
D02*
G36*
X486Y814D02*
X516Y814D01*
X516Y795D01*
X486Y795D01*
X486Y814D01*
G37*
D02*
G36*
X530Y814D02*
X560Y814D01*
X560Y795D01*
X530Y795D01*
X530Y814D01*
G37*
D02*
G36*
X68Y478D02*
X123Y478D01*
X123Y452D01*
X68Y452D01*
X68Y478D01*
G37*
D02*
G36*
X36Y434D02*
X50Y434D01*
X50Y379D01*
X36Y379D01*
X36Y434D01*
G37*
D02*
G36*
X534Y510D02*
X553Y510D01*
X553Y478D01*
X534Y478D01*
X534Y510D01*
G37*
D02*
G36*
X506Y526D02*
X536Y526D01*
X536Y507D01*
X506Y507D01*
X506Y526D01*
G37*
D02*
G36*
X68Y952D02*
X123Y952D01*
X123Y926D01*
X68Y926D01*
X68Y952D01*
G37*
D02*
G36*
X68Y836D02*
X123Y836D01*
X123Y808D01*
X68Y808D01*
X68Y836D01*
G37*
D02*
G36*
X36Y908D02*
X50Y908D01*
X50Y853D01*
X36Y853D01*
X36Y908D01*
G37*
D02*
G36*
X846Y618D02*
X853Y618D01*
X853Y574D01*
X846Y574D01*
X846Y618D01*
G37*
D02*
G36*
X468Y276D02*
X516Y276D01*
X516Y225D01*
X468Y225D01*
X468Y276D01*
G37*
D02*
G36*
X518Y276D02*
X566Y276D01*
X566Y225D01*
X518Y225D01*
X518Y276D01*
G37*
D02*
G36*
X1666Y536D02*
X1696Y536D01*
X1696Y517D01*
X1666Y517D01*
X1666Y536D01*
G37*
D02*
G36*
X1710Y536D02*
X1740Y536D01*
X1740Y517D01*
X1710Y517D01*
X1710Y536D01*
G37*
D02*
G36*
X936Y1062D02*
X947Y1062D01*
X947Y1002D01*
X936Y1002D01*
X936Y1062D01*
G37*
D02*
G36*
X1340Y660D02*
X1359Y660D01*
X1359Y630D01*
X1340Y630D01*
X1340Y660D01*
G37*
D02*
G36*
X1314Y632D02*
X1342Y632D01*
X1342Y613D01*
X1314Y613D01*
X1314Y632D01*
G37*
D02*
G36*
X948Y880D02*
X967Y880D01*
X967Y850D01*
X948Y850D01*
X948Y880D01*
G37*
D02*
G36*
X508Y366D02*
X538Y366D01*
X538Y347D01*
X508Y347D01*
X508Y366D01*
G37*
D02*
G36*
X552Y366D02*
X582Y366D01*
X582Y347D01*
X552Y347D01*
X552Y366D01*
G37*
D02*
G36*
X848Y112D02*
X886Y112D01*
X886Y73D01*
X848Y73D01*
X848Y112D01*
G37*
D02*
G36*
X922Y330D02*
X929Y330D01*
X929Y288D01*
X922Y288D01*
X922Y330D01*
G37*
D02*
G36*
X526Y1244D02*
X556Y1244D01*
X556Y1225D01*
X526Y1225D01*
X526Y1244D01*
G37*
D02*
G36*
X1522Y62D02*
X1561Y62D01*
X1561Y42D01*
X1522Y42D01*
X1522Y62D01*
G37*
D02*
G36*
X948Y330D02*
X955Y330D01*
X955Y288D01*
X948Y288D01*
X948Y330D01*
G37*
D02*
G36*
X948Y286D02*
X955Y286D01*
X955Y240D01*
X948Y240D01*
X948Y286D01*
G37*
D02*
G54D31*
X326Y1114D02*
X399Y1114D01*
X326Y1113D02*
X399Y1113D01*
X326Y1112D02*
X399Y1112D01*
X326Y1111D02*
X399Y1111D01*
X326Y1110D02*
X399Y1110D01*
X326Y1109D02*
X399Y1109D01*
X326Y1108D02*
X399Y1108D01*
X326Y1107D02*
X399Y1107D01*
X326Y1106D02*
X399Y1106D01*
X326Y1105D02*
X399Y1105D01*
X326Y1104D02*
X399Y1104D01*
X326Y1103D02*
X399Y1103D01*
X326Y1102D02*
X399Y1102D01*
X326Y1101D02*
X399Y1101D01*
X326Y1100D02*
X399Y1100D01*
X326Y1099D02*
X399Y1099D01*
X326Y1098D02*
X399Y1098D01*
X326Y1097D02*
X356Y1097D01*
X368Y1097D02*
X399Y1097D01*
X326Y1096D02*
X353Y1096D01*
X371Y1096D02*
X399Y1096D01*
X326Y1095D02*
X351Y1095D01*
X373Y1095D02*
X399Y1095D01*
X326Y1094D02*
X350Y1094D01*
X374Y1094D02*
X399Y1094D01*
X326Y1093D02*
X349Y1093D01*
X376Y1093D02*
X399Y1093D01*
X326Y1092D02*
X348Y1092D01*
X377Y1092D02*
X399Y1092D01*
X326Y1091D02*
X347Y1091D01*
X378Y1091D02*
X399Y1091D01*
X326Y1090D02*
X346Y1090D01*
X378Y1090D02*
X399Y1090D01*
X326Y1089D02*
X345Y1089D01*
X379Y1089D02*
X399Y1089D01*
X326Y1088D02*
X344Y1088D01*
X380Y1088D02*
X399Y1088D01*
X326Y1087D02*
X344Y1087D01*
X380Y1087D02*
X399Y1087D01*
X326Y1086D02*
X343Y1086D01*
X381Y1086D02*
X399Y1086D01*
X326Y1085D02*
X343Y1085D01*
X381Y1085D02*
X399Y1085D01*
X326Y1084D02*
X343Y1084D01*
X382Y1084D02*
X399Y1084D01*
X326Y1083D02*
X342Y1083D01*
X382Y1083D02*
X399Y1083D01*
X326Y1082D02*
X342Y1082D01*
X382Y1082D02*
X399Y1082D01*
X326Y1081D02*
X342Y1081D01*
X382Y1081D02*
X399Y1081D01*
X326Y1080D02*
X342Y1080D01*
X382Y1080D02*
X399Y1080D01*
X326Y1079D02*
X342Y1079D01*
X383Y1079D02*
X399Y1079D01*
X326Y1078D02*
X342Y1078D01*
X383Y1078D02*
X399Y1078D01*
X326Y1077D02*
X342Y1077D01*
X383Y1077D02*
X399Y1077D01*
X326Y1076D02*
X342Y1076D01*
X382Y1076D02*
X399Y1076D01*
X326Y1075D02*
X342Y1075D01*
X382Y1075D02*
X399Y1075D01*
X326Y1074D02*
X342Y1074D01*
X382Y1074D02*
X399Y1074D01*
X326Y1073D02*
X342Y1073D01*
X382Y1073D02*
X399Y1073D01*
X326Y1072D02*
X342Y1072D01*
X382Y1072D02*
X399Y1072D01*
X326Y1071D02*
X343Y1071D01*
X381Y1071D02*
X399Y1071D01*
X326Y1070D02*
X343Y1070D01*
X381Y1070D02*
X399Y1070D01*
X326Y1069D02*
X344Y1069D01*
X381Y1069D02*
X399Y1069D01*
X326Y1068D02*
X344Y1068D01*
X380Y1068D02*
X399Y1068D01*
X326Y1067D02*
X345Y1067D01*
X379Y1067D02*
X399Y1067D01*
X326Y1066D02*
X345Y1066D01*
X379Y1066D02*
X399Y1066D01*
X326Y1065D02*
X346Y1065D01*
X378Y1065D02*
X399Y1065D01*
X326Y1064D02*
X347Y1064D01*
X377Y1064D02*
X399Y1064D01*
X326Y1063D02*
X348Y1063D01*
X376Y1063D02*
X399Y1063D01*
X326Y1062D02*
X349Y1062D01*
X375Y1062D02*
X399Y1062D01*
X326Y1061D02*
X351Y1061D01*
X373Y1061D02*
X399Y1061D01*
X326Y1060D02*
X353Y1060D01*
X372Y1060D02*
X399Y1060D01*
X326Y1059D02*
X355Y1059D01*
X369Y1059D02*
X399Y1059D01*
X326Y1058D02*
X359Y1058D01*
X365Y1058D02*
X399Y1058D01*
X326Y1057D02*
X399Y1057D01*
X326Y1056D02*
X399Y1056D01*
X326Y1055D02*
X399Y1055D01*
X326Y1054D02*
X399Y1054D01*
X326Y1053D02*
X399Y1053D01*
X326Y1052D02*
X399Y1052D01*
X326Y1051D02*
X399Y1051D01*
X326Y1050D02*
X399Y1050D01*
X326Y1049D02*
X399Y1049D01*
X326Y1048D02*
X399Y1048D01*
X326Y1047D02*
X399Y1047D01*
X326Y1046D02*
X399Y1046D01*
X326Y1045D02*
X399Y1045D01*
X326Y1044D02*
X399Y1044D01*
X326Y1043D02*
X399Y1043D01*
X326Y1042D02*
X399Y1042D01*
X326Y1041D02*
X398Y1041D01*
D02*
G04 End of Copper1*
M02*