G04 DipTrace 2.4.0.2*
%INTop.gbr*%
%MOIN*%
%ADD14C,0.006*%
%ADD15C,0.025*%
%ADD16C,0.013*%
%ADD17R,0.0591X0.1181*%
%ADD18R,0.0591X0.0354*%
%ADD19C,0.04*%
%FSLAX44Y44*%
G04*
G70*
G90*
G75*
G01*
%LNTop*%
%LPD*%
X32943Y5378D2*
D14*
Y5315D1*
Y4697D1*
X32823Y4576D1*
X19741D1*
X19621Y4697D1*
X19500Y4576D1*
X4686D1*
X4565Y4697D1*
Y5128D1*
Y5378D1*
X19621Y4697D2*
Y5704D1*
X4565Y5128D2*
D3*
X32943Y5315D2*
D3*
X19621Y7003D2*
X22688D1*
X24994Y4697D1*
X31760D1*
X31881Y4817D1*
Y6003D1*
Y6065D1*
Y6003D2*
D3*
X6690Y5378D2*
X11926D1*
X13551Y7003D1*
X17692D1*
Y7270D1*
X17812Y7391D1*
X23723D1*
X25736Y5378D1*
X30818D1*
Y5190D2*
Y5378D1*
X17692Y5704D2*
Y4817D1*
X17571Y4697D1*
X5748D1*
X5628Y4817D1*
Y5878D1*
Y6065D1*
X5565Y5878D2*
X5628D1*
D19*
X4565Y5128D3*
X5565Y5878D3*
X6753Y5128D3*
X30818Y5190D3*
X31881Y6003D3*
X32943Y5315D3*
X12414Y8057D2*
D15*
X25032D1*
X12414Y7808D2*
X25032D1*
X12414Y7560D2*
X17540D1*
X23996D2*
X25032D1*
X12414Y7311D2*
X17107D1*
X24246D2*
X25032D1*
X12414Y7062D2*
X13169D1*
X18278D2*
X19036D1*
X23071D2*
X23611D1*
X24493D2*
X25032D1*
X12414Y6814D2*
X12919D1*
X18278D2*
X19036D1*
X23321D2*
X23857D1*
X24743D2*
X25032D1*
X12414Y6565D2*
X12669D1*
X13555D2*
X17107D1*
X18278D2*
X19036D1*
X20207D2*
X22685D1*
X23567D2*
X24107D1*
X13305Y6316D2*
X22935D1*
X23817D2*
X24357D1*
X13059Y6068D2*
X17107D1*
X18278D2*
X19036D1*
X20207D2*
X23181D1*
X24067D2*
X24603D1*
X12809Y5819D2*
X17107D1*
X18278D2*
X19036D1*
X20207D2*
X23431D1*
X24313D2*
X24853D1*
X12559Y5570D2*
X17107D1*
X18278D2*
X19036D1*
X20207D2*
X23681D1*
X24563D2*
X25032D1*
X12313Y5322D2*
X17107D1*
X18278D2*
X19036D1*
X20207D2*
X23927D1*
X24813D2*
X25349D1*
X5149Y5073D2*
X5310D1*
X7274D2*
X17372D1*
X18012D2*
X24177D1*
X25059D2*
X30232D1*
X32200D2*
X32357D1*
X5149Y4824D2*
X5310D1*
X18012D2*
X24427D1*
X32200D2*
X32357D1*
X5149Y4575D2*
X5427D1*
X17891D2*
X24673D1*
X32082D2*
X32357D1*
X4350Y4327D2*
X33095D1*
X17256Y7445D2*
X17456D1*
X17603Y7600D1*
X17697Y7663D1*
X17812Y7686D1*
X23723D1*
X23847Y7658D1*
X23931Y7600D1*
X25056Y6475D1*
X25058Y8306D1*
X12388D1*
Y6255D1*
X13342Y7212D1*
X13450Y7280D1*
X13551Y7298D1*
X17133D1*
X17131Y7445D1*
X17256D1*
X18252Y7097D2*
Y6561D1*
X17131D1*
Y6705D1*
X15692Y6708D1*
X13671Y6706D1*
X12134Y5169D1*
X12026Y5101D1*
X11926Y5083D1*
X7250D1*
X7373Y4992D1*
X17393D1*
X17397Y5259D1*
X17131Y5262D1*
Y6146D1*
X18252D1*
Y5262D1*
X17990D1*
X17987Y4817D1*
X17958Y4693D1*
X17913Y4622D1*
X17780Y4488D1*
X17686Y4425D1*
X17571Y4402D1*
X5748D1*
X5624Y4430D1*
X5553Y4476D1*
X5419Y4609D1*
X5356Y4702D1*
X5333Y4817D1*
Y5212D1*
X5125Y5208D1*
Y4522D1*
X4325D1*
Y4325D1*
X33121D1*
Y4524D1*
X32383Y4522D1*
Y5211D1*
X32179Y5210D1*
X32176Y4817D1*
X32147Y4693D1*
X32102Y4622D1*
X31969Y4488D1*
X31875Y4425D1*
X31760Y4402D1*
X24994D1*
X24870Y4430D1*
X24786Y4488D1*
X22563Y6708D1*
X20184D1*
X20181Y6561D1*
X19061D1*
Y7096D1*
X18250D1*
X19086Y6146D2*
X20181D1*
Y5262D1*
X19061D1*
Y6146D1*
X19086D1*
X30258Y4995D2*
Y5081D1*
X26443Y5083D1*
X25736D1*
X25612Y5111D1*
X25527Y5169D1*
X25077Y5613D1*
X24820Y5876D1*
X23598Y7096D1*
X23016D1*
X24576Y5532D1*
X25119Y4992D1*
X30256D1*
X19621Y6145D2*
D16*
Y5262D1*
X19061Y5704D2*
X20180D1*
X32943Y5378D2*
Y4523D1*
X4565Y5378D2*
Y4523D1*
D17*
X31881Y6065D3*
X32943Y5378D3*
X4565D3*
X5628Y6065D3*
X30818Y5378D3*
X6690D3*
D18*
X17692Y7003D3*
Y5704D3*
X19621D3*
Y7003D3*
M02*
