G04 DipTrace 2.4.0.2*
%INTopDimension.gbr*%
%MOIN*%
%ADD13C,0.0014*%
%ADD30C,0.0062*%
%FSLAX44Y44*%
G04*
G70*
G90*
G75*
G01*
%LNTopDimension*%
%LPD*%
X3940Y5940D2*
D13*
Y9638D1*
X33506Y5940D2*
Y9638D1*
X18723Y9441D2*
X4334D1*
G36*
X3940D2*
X4334Y9519D1*
Y9362D1*
X3940Y9441D1*
G37*
X18723D2*
D13*
X33112D1*
G36*
X33506D2*
X33112Y9362D1*
Y9519D1*
X33506Y9441D1*
G37*
X32381Y5940D2*
D13*
Y8888D1*
X33506Y5940D2*
Y8888D1*
X32943Y8691D2*
X32774D1*
G36*
X32381D2*
X32774Y8769D1*
Y8612D1*
X32381Y8691D1*
G37*
X32943D2*
D13*
X33112D1*
G36*
X33506D2*
X33112Y8612D1*
Y8769D1*
X33506Y8691D1*
G37*
X35092D2*
D13*
X33506D1*
X32381Y6628D2*
Y8700D1*
X31318Y6628D2*
Y8700D1*
Y8503D2*
X32381D1*
X30727D2*
X30924D1*
G36*
X31318D2*
X30924Y8424D1*
Y8582D1*
X31318Y8503D1*
G37*
X32971D2*
D13*
X32774D1*
G36*
X32381D2*
X32774Y8582D1*
Y8424D1*
X32381Y8503D1*
G37*
Y6628D2*
D13*
X34203D1*
X32381Y5940D2*
X34203D1*
X34006Y6628D2*
Y5940D1*
Y7218D2*
Y7022D1*
G36*
Y6628D2*
X33927Y7022D1*
X34085D1*
X34006Y6628D1*
G37*
Y5350D2*
D13*
Y5547D1*
G36*
Y5940D2*
X34085Y5547D1*
X33927D1*
X34006Y5940D1*
G37*
Y4506D2*
D13*
Y6628D1*
X31318Y5940D2*
Y4306D1*
X25442Y5940D2*
Y4306D1*
X28380Y4503D2*
X30924D1*
G36*
X31318D2*
X30924Y4424D1*
Y4581D1*
X31318Y4503D1*
G37*
X28380D2*
D13*
X25836D1*
G36*
X25442D2*
X25836Y4581D1*
Y4424D1*
X25442Y4503D1*
G37*
X33506Y5940D2*
D13*
X36703D1*
X33506Y3940D2*
X36703D1*
X36506Y5940D2*
Y3940D1*
Y6531D2*
Y6334D1*
G36*
Y5940D2*
X36427Y6334D1*
X36585D1*
X36506Y5940D1*
G37*
Y3350D2*
D13*
Y3546D1*
G36*
Y3940D2*
X36585Y3546D1*
X36427D1*
X36506Y3940D1*
G37*
X3940Y5940D2*
D13*
X-507D1*
X3940Y3940D2*
X-507D1*
X-310Y5940D2*
Y3940D1*
Y6531D2*
Y6334D1*
G36*
Y5940D2*
X-389Y6334D1*
X-232D1*
X-310Y5940D1*
G37*
Y3350D2*
D13*
Y3546D1*
G36*
Y3940D2*
X-232Y3546D1*
X-389D1*
X-310Y3940D1*
G37*
X3940Y5940D2*
D13*
Y10513D1*
X5065Y5940D2*
Y10513D1*
X4503Y10316D2*
X4334D1*
G36*
X3940D2*
X4334Y10395D1*
Y10237D1*
X3940Y10316D1*
G37*
X4503D2*
D13*
X4672D1*
G36*
X5065D2*
X4672Y10237D1*
Y10395D1*
X5065Y10316D1*
G37*
X6652D2*
D13*
X5065D1*
Y6628D2*
Y8888D1*
X6128Y6628D2*
Y8888D1*
X5065Y8691D2*
X6128D1*
X4475D2*
X4672D1*
G36*
X5065D2*
X4672Y8612D1*
Y8769D1*
X5065Y8691D1*
G37*
X6718D2*
D13*
X6522D1*
G36*
X6128D2*
X6522Y8769D1*
Y8612D1*
X6128Y8691D1*
G37*
Y5940D2*
D13*
Y2868D1*
X12004Y5940D2*
Y2868D1*
X9066Y3065D2*
X6522D1*
G36*
X6128D2*
X6522Y3144D1*
Y2986D1*
X6128Y3065D1*
G37*
X9066D2*
D13*
X11610D1*
G36*
X12004D2*
X11610Y2986D1*
Y3144D1*
X12004Y3065D1*
G37*
X5065Y6628D2*
D13*
X1306D1*
X5065Y5940D2*
X1306D1*
X1502Y6628D2*
Y5940D1*
Y7218D2*
Y7022D1*
G36*
Y6628D2*
X1424Y7022D1*
X1581D1*
X1502Y6628D1*
G37*
Y5350D2*
D13*
Y5547D1*
G36*
Y5940D2*
X1581Y5547D1*
X1424D1*
X1502Y5940D1*
G37*
Y8062D2*
D13*
Y6628D1*
X12004Y8691D2*
X13513D1*
X12004Y5940D2*
X13513D1*
X13316Y7316D2*
Y8297D1*
G36*
Y8691D2*
X13395Y8297D1*
X13237D1*
X13316Y8691D1*
G37*
Y7316D2*
D13*
Y6334D1*
G36*
Y5940D2*
X13237Y6334D1*
X13395D1*
X13316Y5940D1*
G37*
X25442Y8691D2*
D13*
X23183D1*
X25442Y5940D2*
X23183D1*
X23380Y7316D2*
Y8297D1*
G36*
Y8691D2*
X23458Y8297D1*
X23301D1*
X23380Y8691D1*
G37*
Y7316D2*
D13*
Y6334D1*
G36*
Y5940D2*
X23301Y6334D1*
X23458D1*
X23380Y5940D1*
G37*
X32381D2*
D13*
X29684D1*
X31318D2*
X29684D1*
X29880D2*
D3*
Y6531D2*
Y6334D1*
G36*
Y5940D2*
X29802Y6334D1*
X29959D1*
X29880Y5940D1*
G37*
Y5350D2*
D13*
Y5547D1*
G36*
Y5940D2*
X29959Y5547D1*
X29802D1*
X29880Y5940D1*
G37*
Y6602D2*
D13*
Y5940D1*
X5065D2*
X8450D1*
X6128D2*
X8450D1*
X8253D2*
D3*
Y6531D2*
Y6334D1*
G36*
Y5940D2*
X8174Y6334D1*
X8332D1*
X8253Y5940D1*
G37*
Y5350D2*
D13*
Y5547D1*
G36*
Y5940D2*
X8332Y5547D1*
X8174D1*
X8253Y5940D1*
G37*
Y5279D2*
D13*
Y5940D1*
X18310Y9563D2*
D30*
X18501Y9964D1*
X18233D1*
X18854D2*
X18663D1*
X18644Y9792D1*
X18663Y9811D1*
X18721Y9831D1*
X18778D1*
X18835Y9811D1*
X18874Y9773D1*
X18893Y9716D1*
Y9678D1*
X18874Y9620D1*
X18835Y9582D1*
X18778Y9563D1*
X18721D1*
X18663Y9582D1*
X18644Y9601D1*
X18625Y9639D1*
X19035Y9601D2*
X19016Y9582D1*
X19035Y9563D1*
X19055Y9582D1*
X19035Y9601D1*
X19178Y9888D2*
X19217Y9907D1*
X19274Y9964D1*
Y9563D1*
X34012Y9119D2*
Y9138D1*
X34031Y9176D1*
X34050Y9195D1*
X34088Y9214D1*
X34165D1*
X34203Y9195D1*
X34222Y9176D1*
X34241Y9138D1*
Y9100D1*
X34222Y9061D1*
X34184Y9004D1*
X33992Y8813D1*
X34260D1*
X34403Y8851D2*
X34384Y8832D1*
X34403Y8813D1*
X34422Y8832D1*
X34403Y8851D1*
X34641Y9214D2*
X34584Y9195D1*
X34565Y9157D1*
Y9119D1*
X34584Y9081D1*
X34622Y9061D1*
X34699Y9042D1*
X34756Y9023D1*
X34794Y8985D1*
X34813Y8947D1*
Y8889D1*
X34794Y8851D1*
X34775Y8832D1*
X34718Y8813D1*
X34641D1*
X34584Y8832D1*
X34565Y8851D1*
X34546Y8889D1*
Y8947D1*
X34565Y8985D1*
X34603Y9023D1*
X34660Y9042D1*
X34737Y9061D1*
X34775Y9081D1*
X34794Y9119D1*
Y9157D1*
X34775Y9195D1*
X34718Y9214D1*
X34641D1*
X35166Y9157D2*
X35147Y9195D1*
X35090Y9214D1*
X35052D1*
X34994Y9195D1*
X34956Y9138D1*
X34937Y9042D1*
Y8947D1*
X34956Y8870D1*
X34994Y8832D1*
X35052Y8813D1*
X35071D1*
X35128Y8832D1*
X35166Y8870D1*
X35185Y8928D1*
Y8947D1*
X35166Y9004D1*
X35128Y9042D1*
X35071Y9061D1*
X35052D1*
X34994Y9042D1*
X34956Y9004D1*
X34937Y8947D1*
X31489Y8931D2*
Y8950D1*
X31508Y8989D1*
X31527Y9008D1*
X31565Y9027D1*
X31642D1*
X31680Y9008D1*
X31699Y8989D1*
X31718Y8950D1*
Y8912D1*
X31699Y8874D1*
X31661Y8817D1*
X31470Y8625D1*
X31737D1*
X31880Y8664D2*
X31861Y8644D1*
X31880Y8625D1*
X31899Y8644D1*
X31880Y8664D1*
X32099Y8625D2*
X32291Y9027D1*
X32023D1*
X34453Y5454D2*
X34472Y5416D1*
X34529Y5358D1*
X34128D1*
X34166Y5216D2*
X34147Y5235D1*
X34128Y5216D1*
X34147Y5196D1*
X34166Y5216D1*
X34128Y4996D2*
X34529Y4805D1*
Y5073D1*
Y4452D2*
Y4643D1*
X34357Y4662D1*
X34376Y4643D1*
X34396Y4585D1*
Y4528D1*
X34376Y4471D1*
X34338Y4432D1*
X34281Y4413D1*
X34243D1*
X34185Y4432D1*
X34147Y4471D1*
X34128Y4528D1*
Y4585D1*
X34147Y4643D1*
X34166Y4662D1*
X34204Y4681D1*
X27695Y4950D2*
X27733Y4969D1*
X27791Y5026D1*
Y4625D1*
X28106D2*
Y5026D1*
X27914Y4759D1*
X28201D1*
X28344Y4663D2*
X28325Y4644D1*
X28344Y4625D1*
X28363Y4644D1*
X28344Y4663D1*
X28736Y4893D2*
X28716Y4835D1*
X28678Y4797D1*
X28621Y4778D1*
X28602D1*
X28544Y4797D1*
X28506Y4835D1*
X28487Y4893D1*
Y4912D1*
X28506Y4969D1*
X28544Y5007D1*
X28602Y5026D1*
X28621D1*
X28678Y5007D1*
X28716Y4969D1*
X28736Y4893D1*
Y4797D1*
X28716Y4701D1*
X28678Y4644D1*
X28621Y4625D1*
X28583D1*
X28525Y4644D1*
X28506Y4682D1*
X28879Y4931D2*
Y4950D1*
X28898Y4988D1*
X28917Y5007D1*
X28955Y5026D1*
X29032D1*
X29070Y5007D1*
X29089Y4988D1*
X29108Y4950D1*
Y4912D1*
X29089Y4873D1*
X29051Y4816D1*
X28859Y4625D1*
X29127D1*
X37030Y5286D2*
Y5477D1*
X36858Y5496D1*
X36877Y5477D1*
X36896Y5420D1*
Y5363D1*
X36877Y5305D1*
X36839Y5267D1*
X36781Y5248D1*
X36743D1*
X36686Y5267D1*
X36647Y5305D1*
X36628Y5363D1*
Y5420D1*
X36647Y5477D1*
X36667Y5496D1*
X36705Y5516D1*
X36667Y5105D2*
X36647Y5124D1*
X36628Y5105D1*
X36647Y5086D1*
X36667Y5105D1*
X37030Y4847D2*
X37011Y4905D1*
X36953Y4943D1*
X36858Y4962D1*
X36800D1*
X36705Y4943D1*
X36647Y4905D1*
X36628Y4847D1*
Y4809D1*
X36647Y4752D1*
X36705Y4714D1*
X36800Y4694D1*
X36858D1*
X36953Y4714D1*
X37011Y4752D1*
X37030Y4809D1*
Y4847D1*
X36953Y4714D2*
X36705Y4943D1*
X37030Y4475D2*
X37011Y4532D1*
X36973Y4552D1*
X36934D1*
X36896Y4532D1*
X36877Y4494D1*
X36858Y4418D1*
X36839Y4360D1*
X36800Y4322D1*
X36762Y4303D1*
X36705D1*
X36667Y4322D1*
X36647Y4341D1*
X36628Y4399D1*
Y4475D1*
X36647Y4532D1*
X36667Y4552D1*
X36705Y4571D1*
X36762D1*
X36800Y4552D1*
X36839Y4513D1*
X36858Y4456D1*
X36877Y4380D1*
X36896Y4341D1*
X36934Y4322D1*
X36973D1*
X37011Y4341D1*
X37030Y4399D1*
Y4475D1*
X-834Y4594D2*
Y4403D1*
X-662Y4384D1*
X-681Y4403D1*
X-700Y4461D1*
Y4518D1*
X-681Y4575D1*
X-643Y4614D1*
X-585Y4633D1*
X-547D1*
X-490Y4614D1*
X-451Y4575D1*
X-432Y4518D1*
Y4461D1*
X-451Y4403D1*
X-471Y4384D1*
X-509Y4365D1*
X-471Y4775D2*
X-451Y4756D1*
X-432Y4775D1*
X-451Y4795D1*
X-471Y4775D1*
X-834Y5033D2*
X-815Y4976D1*
X-757Y4937D1*
X-662Y4918D1*
X-604D1*
X-509Y4937D1*
X-451Y4976D1*
X-432Y5033D1*
Y5071D1*
X-451Y5129D1*
X-509Y5167D1*
X-604Y5186D1*
X-662D1*
X-757Y5167D1*
X-815Y5129D1*
X-834Y5071D1*
Y5033D1*
X-757Y5167D2*
X-509Y4937D1*
X-834Y5405D2*
X-815Y5348D1*
X-777Y5329D1*
X-738D1*
X-700Y5348D1*
X-681Y5386D1*
X-662Y5463D1*
X-643Y5520D1*
X-604Y5558D1*
X-566Y5577D1*
X-509D1*
X-471Y5558D1*
X-451Y5539D1*
X-432Y5482D1*
Y5405D1*
X-451Y5348D1*
X-471Y5329D1*
X-509Y5310D1*
X-566D1*
X-604Y5329D1*
X-643Y5367D1*
X-662Y5424D1*
X-681Y5501D1*
X-700Y5539D1*
X-738Y5558D1*
X-777D1*
X-815Y5539D1*
X-834Y5482D1*
Y5405D1*
X5571Y10744D2*
Y10763D1*
X5590Y10801D1*
X5609Y10820D1*
X5648Y10839D1*
X5724D1*
X5762Y10820D1*
X5781Y10801D1*
X5801Y10763D1*
Y10725D1*
X5781Y10686D1*
X5743Y10629D1*
X5552Y10438D1*
X5820D1*
X5962Y10476D2*
X5943Y10457D1*
X5962Y10438D1*
X5982Y10457D1*
X5962Y10476D1*
X6201Y10839D2*
X6144Y10820D1*
X6124Y10782D1*
Y10744D1*
X6144Y10706D1*
X6182Y10686D1*
X6258Y10667D1*
X6316Y10648D1*
X6354Y10610D1*
X6373Y10572D1*
Y10514D1*
X6354Y10476D1*
X6335Y10457D1*
X6277Y10438D1*
X6201D1*
X6144Y10457D1*
X6124Y10476D1*
X6105Y10514D1*
Y10572D1*
X6124Y10610D1*
X6163Y10648D1*
X6220Y10667D1*
X6296Y10686D1*
X6335Y10706D1*
X6354Y10744D1*
Y10782D1*
X6335Y10820D1*
X6277Y10839D1*
X6201D1*
X6726Y10782D2*
X6707Y10820D1*
X6649Y10839D1*
X6611D1*
X6554Y10820D1*
X6515Y10763D1*
X6496Y10667D1*
Y10572D1*
X6515Y10495D1*
X6554Y10457D1*
X6611Y10438D1*
X6630D1*
X6687Y10457D1*
X6726Y10495D1*
X6745Y10553D1*
Y10572D1*
X6726Y10629D1*
X6687Y10667D1*
X6630Y10686D1*
X6611D1*
X6554Y10667D1*
X6515Y10629D1*
X6496Y10572D1*
X5236Y9119D2*
Y9138D1*
X5255Y9176D1*
X5274Y9195D1*
X5313Y9214D1*
X5389D1*
X5427Y9195D1*
X5446Y9176D1*
X5466Y9138D1*
Y9100D1*
X5446Y9061D1*
X5408Y9004D1*
X5217Y8813D1*
X5485D1*
X5627Y8851D2*
X5608Y8832D1*
X5627Y8813D1*
X5647Y8832D1*
X5627Y8851D1*
X5847Y8813D2*
X6038Y9214D1*
X5770D1*
X8380Y3512D2*
X8419Y3532D1*
X8476Y3589D1*
Y3187D1*
X8791D2*
Y3589D1*
X8600Y3321D1*
X8887D1*
X9029Y3226D2*
X9010Y3206D1*
X9029Y3187D1*
X9049Y3206D1*
X9029Y3226D1*
X9421Y3455D2*
X9402Y3398D1*
X9364Y3359D1*
X9306Y3340D1*
X9287D1*
X9230Y3359D1*
X9192Y3398D1*
X9172Y3455D1*
Y3474D1*
X9192Y3532D1*
X9230Y3570D1*
X9287Y3589D1*
X9306D1*
X9364Y3570D1*
X9402Y3532D1*
X9421Y3455D1*
Y3359D1*
X9402Y3264D1*
X9364Y3206D1*
X9306Y3187D1*
X9268D1*
X9211Y3206D1*
X9192Y3245D1*
X9564Y3493D2*
Y3512D1*
X9583Y3551D1*
X9602Y3570D1*
X9641Y3589D1*
X9717D1*
X9755Y3570D1*
X9774Y3551D1*
X9794Y3512D1*
Y3474D1*
X9774Y3436D1*
X9736Y3379D1*
X9545Y3187D1*
X9813D1*
X1055Y7114D2*
X1036Y7153D1*
X979Y7210D1*
X1380D1*
X1342Y7353D2*
X1361Y7334D1*
X1380Y7353D1*
X1361Y7372D1*
X1342Y7353D1*
X1380Y7572D2*
X979Y7764D1*
Y7496D1*
Y8117D2*
Y7926D1*
X1151Y7907D1*
X1132Y7926D1*
X1112Y7983D1*
Y8040D1*
X1132Y8098D1*
X1170Y8136D1*
X1227Y8155D1*
X1265D1*
X1323Y8136D1*
X1361Y8098D1*
X1380Y8040D1*
Y7983D1*
X1361Y7926D1*
X1342Y7907D1*
X1304Y7887D1*
X13783Y7633D2*
X13821Y7652D1*
X13840Y7709D1*
Y7747D1*
X13821Y7805D1*
X13763Y7843D1*
X13668Y7862D1*
X13572D1*
X13496Y7843D1*
X13457Y7805D1*
X13438Y7747D1*
Y7728D1*
X13457Y7671D1*
X13496Y7633D1*
X13553Y7614D1*
X13572D1*
X13630Y7633D1*
X13668Y7671D1*
X13687Y7728D1*
Y7747D1*
X13668Y7805D1*
X13630Y7843D1*
X13572Y7862D1*
X13477Y7471D2*
X13457Y7490D1*
X13438Y7471D1*
X13457Y7452D1*
X13477Y7471D1*
X13706Y7079D2*
X13649Y7099D1*
X13610Y7137D1*
X13591Y7194D1*
Y7213D1*
X13610Y7271D1*
X13649Y7309D1*
X13706Y7328D1*
X13725D1*
X13783Y7309D1*
X13821Y7271D1*
X13840Y7213D1*
Y7194D1*
X13821Y7137D1*
X13783Y7099D1*
X13706Y7079D1*
X13610D1*
X13515Y7099D1*
X13457Y7137D1*
X13438Y7194D1*
Y7232D1*
X13457Y7290D1*
X13496Y7309D1*
X13706Y6707D2*
X13649Y6726D1*
X13610Y6764D1*
X13591Y6822D1*
Y6841D1*
X13610Y6898D1*
X13649Y6936D1*
X13706Y6956D1*
X13725D1*
X13783Y6936D1*
X13821Y6898D1*
X13840Y6841D1*
Y6822D1*
X13821Y6764D1*
X13783Y6726D1*
X13706Y6707D1*
X13610D1*
X13515Y6726D1*
X13457Y6764D1*
X13438Y6822D1*
Y6860D1*
X13457Y6917D1*
X13496Y6936D1*
X22913Y6998D2*
X22875Y6979D1*
X22856Y6922D1*
Y6884D1*
X22875Y6826D1*
X22933Y6788D1*
X23028Y6769D1*
X23124D1*
X23200Y6788D1*
X23239Y6826D1*
X23258Y6884D1*
Y6903D1*
X23239Y6960D1*
X23200Y6998D1*
X23143Y7017D1*
X23124D1*
X23066Y6998D1*
X23028Y6960D1*
X23009Y6903D1*
Y6884D1*
X23028Y6826D1*
X23066Y6788D1*
X23124Y6769D1*
X23219Y7160D2*
X23239Y7141D1*
X23258Y7160D1*
X23239Y7179D1*
X23219Y7160D1*
X22990Y7552D2*
X23047Y7532D1*
X23086Y7494D1*
X23105Y7437D1*
Y7418D1*
X23086Y7360D1*
X23047Y7322D1*
X22990Y7303D1*
X22971D1*
X22913Y7322D1*
X22875Y7360D1*
X22856Y7418D1*
Y7437D1*
X22875Y7494D1*
X22913Y7532D1*
X22990Y7552D1*
X23086D1*
X23181Y7532D1*
X23239Y7494D1*
X23258Y7437D1*
Y7399D1*
X23239Y7341D1*
X23200Y7322D1*
X22990Y7924D2*
X23047Y7905D1*
X23086Y7867D1*
X23105Y7809D1*
Y7790D1*
X23086Y7733D1*
X23047Y7695D1*
X22990Y7675D1*
X22971D1*
X22913Y7695D1*
X22875Y7733D1*
X22856Y7790D1*
Y7809D1*
X22875Y7867D1*
X22913Y7905D1*
X22990Y7924D1*
X23086D1*
X23181Y7905D1*
X23239Y7867D1*
X23258Y7809D1*
Y7771D1*
X23239Y7714D1*
X23200Y7695D1*
X29357Y6542D2*
X29376Y6484D1*
X29433Y6446D1*
X29529Y6427D1*
X29586D1*
X29682Y6446D1*
X29739Y6484D1*
X29758Y6542D1*
Y6580D1*
X29739Y6637D1*
X29682Y6675D1*
X29586Y6695D1*
X29529D1*
X29433Y6675D1*
X29376Y6637D1*
X29357Y6580D1*
Y6542D1*
X29433Y6675D2*
X29682Y6446D1*
X8777Y5339D2*
X8758Y5397D1*
X8700Y5435D1*
X8605Y5454D1*
X8547D1*
X8452Y5435D1*
X8394Y5397D1*
X8375Y5339D1*
Y5301D1*
X8394Y5244D1*
X8452Y5206D1*
X8547Y5186D1*
X8605D1*
X8700Y5206D1*
X8758Y5244D1*
X8777Y5301D1*
Y5339D1*
X8700Y5206D2*
X8452Y5435D1*
M02*
