G04 DipTrace 2.4.0.2*
%INBottomAssy.gbr*%
%MOIN*%
%ADD10C,0.0098*%
%ADD12C,0.003*%
%FSLAX44Y44*%
G04*
G70*
G90*
G75*
G01*
%LNBotAssy*%
%LPD*%
X16265Y4551D2*
D10*
X20053D1*
X17174Y4217D2*
D12*
Y4418D1*
X17261D1*
X17289Y4409D1*
X17299Y4399D1*
X17308Y4380D1*
Y4351D1*
X17299Y4332D1*
X17289Y4323D1*
X17261Y4313D1*
X17289Y4303D1*
X17299Y4294D1*
X17308Y4275D1*
Y4256D1*
X17299Y4237D1*
X17289Y4227D1*
X17261Y4217D1*
X17174D1*
Y4313D2*
X17261D1*
X17428Y4217D2*
X17408Y4227D1*
X17389Y4246D1*
X17380Y4265D1*
X17370Y4294D1*
Y4342D1*
X17380Y4370D1*
X17389Y4390D1*
X17408Y4409D1*
X17428Y4418D1*
X17466D1*
X17485Y4409D1*
X17504Y4390D1*
X17514Y4370D1*
X17523Y4342D1*
Y4294D1*
X17514Y4265D1*
X17504Y4246D1*
X17485Y4227D1*
X17466Y4217D1*
X17428D1*
X17738Y4418D2*
X17661Y4217D1*
X17585Y4418D1*
X17614Y4351D2*
X17709D1*
X17800Y4313D2*
X17886D1*
X17915Y4303D1*
X17924Y4294D1*
X17934Y4275D1*
Y4256D1*
X17924Y4237D1*
X17915Y4227D1*
X17886Y4217D1*
X17800D1*
Y4418D1*
X17867Y4313D2*
X17934Y4418D1*
X17996Y4217D2*
Y4418D1*
X18063D1*
X18091Y4409D1*
X18110Y4390D1*
X18120Y4370D1*
X18129Y4342D1*
Y4294D1*
X18120Y4265D1*
X18110Y4246D1*
X18091Y4227D1*
X18063Y4217D1*
X17996D1*
X18510D2*
X18386D1*
Y4418D1*
X18510D1*
X18386Y4313D2*
X18462D1*
X18572Y4217D2*
Y4418D1*
X18639D1*
X18667Y4409D1*
X18687Y4390D1*
X18696Y4370D1*
X18706Y4342D1*
Y4294D1*
X18696Y4265D1*
X18687Y4246D1*
X18667Y4227D1*
X18639Y4217D1*
X18572D1*
X18911Y4265D2*
X18901Y4246D1*
X18882Y4227D1*
X18863Y4217D1*
X18825D1*
X18806Y4227D1*
X18787Y4246D1*
X18777Y4265D1*
X18767Y4294D1*
Y4342D1*
X18777Y4370D1*
X18787Y4390D1*
X18806Y4409D1*
X18825Y4418D1*
X18863D1*
X18882Y4409D1*
X18901Y4390D1*
X18911Y4370D1*
Y4342D1*
X18863D1*
X19097Y4217D2*
X18973D1*
Y4418D1*
X19097D1*
X18973Y4313D2*
X19049D1*
M02*
