G04 DipTrace 2.4.0.2*
%INBottomSilk.gbr*%
%MOIN*%
%ADD10C,0.0098*%
%ADD93C,0.0077*%
%ADD94C,0.0124*%
%ADD96C,0.0154*%
%FSLAX44Y44*%
G04*
G70*
G90*
G75*
G01*
%LNBotSilk*%
%LPD*%
X20442Y7723D2*
D10*
X21629D1*
Y5348D1*
X20442D1*
Y7723D1*
X16781Y13191D2*
Y13820D1*
X16855Y13191D2*
Y13820D1*
Y13191D2*
X16620D1*
X16855Y13820D2*
X16620D1*
X5932Y13001D2*
Y13630D1*
X6007Y13001D2*
Y13630D1*
Y13001D2*
X5771D1*
X6007Y13630D2*
X5771D1*
X5745Y6689D2*
Y7318D1*
X5819Y6689D2*
Y7318D1*
Y6689D2*
X5583D1*
X5819Y7318D2*
X5583D1*
X5505Y8433D2*
X4875D1*
X5505Y8508D2*
X4875D1*
X5505D2*
Y8272D1*
X4875Y8508D2*
Y8272D1*
X5932Y13876D2*
Y14505D1*
X6007Y13876D2*
Y14505D1*
Y13876D2*
X5771D1*
X6007Y14505D2*
X5771D1*
X7188Y6386D2*
X7817D1*
X7188Y6312D2*
X7817D1*
X7188D2*
Y6547D1*
X7817Y6312D2*
Y6547D1*
X8449Y11022D2*
X9079D1*
X8449Y10947D2*
X9079D1*
X8449D2*
Y11183D1*
X9079Y10947D2*
Y11183D1*
X8147Y17056D2*
Y16427D1*
X8072Y17056D2*
Y16427D1*
Y17056D2*
X8308D1*
X8072Y16427D2*
X8308D1*
X5573Y12318D2*
Y11689D1*
X5498Y12318D2*
Y11689D1*
Y12318D2*
X5734D1*
X5498Y11689D2*
X5734D1*
X24881Y13605D2*
X20898D1*
X24881Y15349D2*
X20898D1*
Y13605D2*
Y15349D1*
X24881Y13605D2*
Y14197D1*
Y14756D2*
Y15349D1*
Y14197D2*
G02X24881Y14756I-196J280D01*
G01*
X5940Y10047D2*
X7565D1*
X5940Y8797D2*
X7565D1*
Y10047D2*
Y8797D1*
X5940Y10047D2*
Y9609D1*
Y9172D2*
Y8797D1*
Y9609D2*
G02X5940Y9172I31J-219D01*
G01*
X7253Y14734D2*
X8878D1*
X7253Y13483D2*
X8878D1*
Y14734D2*
Y13483D1*
X7253Y14734D2*
Y14296D1*
Y13858D2*
Y13483D1*
Y14296D2*
G02X7253Y13858I31J-219D01*
G01*
X16659Y4649D2*
X19659D1*
Y5649D1*
X16659D1*
Y4649D1*
X6199Y15572D2*
Y15808D1*
X6829Y15572D2*
Y15808D1*
X4875Y10250D2*
Y10485D1*
X5505Y10250D2*
Y10485D1*
X13896Y4650D2*
X15896D1*
Y6650D1*
X13896D1*
Y4650D1*
X15896Y6212D2*
X15395Y6650D1*
X15520D2*
X15833Y6337D1*
X15646Y6650D2*
X15896Y6400D1*
X15771Y6587D2*
X15833Y6525D1*
Y6587D2*
X15771Y6525D1*
X21754Y8454D2*
D93*
X21993D1*
X22017Y8239D1*
X21993Y8263D1*
X21921Y8288D1*
X21850D1*
X21778Y8263D1*
X21730Y8216D1*
X21706Y8144D1*
Y8096D1*
X21730Y8024D1*
X21778Y7976D1*
X21850Y7953D1*
X21921D1*
X21993Y7976D1*
X22017Y8001D1*
X22041Y8048D1*
X21552Y8288D2*
X21408Y7953D1*
X21265Y8288D1*
X21111D2*
Y7953D1*
Y8144D2*
X21086Y8216D1*
X21039Y8264D1*
X20991Y8288D1*
X20919D1*
X20765Y8144D2*
X20478D1*
Y8192D1*
X20501Y8240D1*
X20525Y8264D1*
X20573Y8288D1*
X20645D1*
X20693Y8264D1*
X20741Y8216D1*
X20765Y8144D1*
Y8096D1*
X20741Y8024D1*
X20693Y7977D1*
X20645Y7953D1*
X20573D1*
X20525Y7977D1*
X20478Y8024D1*
X20036Y8264D2*
Y7881D1*
X20060Y7809D1*
X20084Y7785D1*
X20132Y7761D1*
X20204D1*
X20251Y7785D1*
X20036Y8192D2*
X20084Y8239D1*
X20132Y8264D1*
X20204D1*
X20251Y8239D1*
X20300Y8192D1*
X20323Y8120D1*
Y8072D1*
X20300Y8001D1*
X20251Y7953D1*
X20204Y7929D1*
X20132D1*
X20084Y7953D1*
X20036Y8001D1*
X19648Y6306D2*
X19432D1*
X19361Y6330D1*
X19337Y6354D1*
X19313Y6402D1*
Y6474D1*
X19337Y6521D1*
X19361Y6545D1*
X19432Y6569D1*
X19648D1*
Y6067D1*
X19159Y6569D2*
X19039Y6067D1*
X18919Y6569D1*
X18800Y6067D1*
X18680Y6569D1*
X18526Y6330D2*
X18311D1*
X18239Y6354D1*
X18214Y6378D1*
X18191Y6425D1*
Y6474D1*
X18214Y6521D1*
X18239Y6545D1*
X18311Y6569D1*
X18526D1*
Y6067D1*
X18358Y6330D2*
X18191Y6067D1*
X17701Y6497D2*
X17749Y6545D1*
X17821Y6569D1*
X17916D1*
X17988Y6545D1*
X18036Y6497D1*
Y6450D1*
X18012Y6402D1*
X17988Y6378D1*
X17941Y6354D1*
X17797Y6306D1*
X17749Y6282D1*
X17725Y6258D1*
X17701Y6210D1*
Y6139D1*
X17749Y6091D1*
X17821Y6067D1*
X17916D1*
X17988Y6091D1*
X18036Y6139D1*
X17236Y6569D2*
X17547D1*
Y6067D1*
X17236D1*
X17547Y6330D2*
X17356D1*
X17082Y6569D2*
Y6067D1*
X16795D1*
X15308Y7382D2*
Y7023D1*
X15284Y6951D1*
X15236Y6904D1*
X15164Y6879D1*
X15116D1*
X15045Y6904D1*
X14997Y6951D1*
X14973Y7023D1*
Y7382D1*
X14770Y7381D2*
X14508D1*
X14651Y7190D1*
X14579D1*
X14532Y7166D1*
X14508Y7142D1*
X14483Y7071D1*
Y7023D1*
X14508Y6951D1*
X14555Y6903D1*
X14627Y6879D1*
X14699D1*
X14770Y6903D1*
X14794Y6927D1*
X14818Y6975D1*
X24014Y6046D2*
D94*
Y5357D1*
X24358Y5701D2*
X23669D1*
X25499Y5717D2*
X24772D1*
X18795Y18083D2*
D96*
X19179Y19088D1*
X19561Y18083D1*
X19418Y18418D2*
X18939D1*
X18486Y18753D2*
Y18275D1*
X18439Y18132D1*
X18343Y18083D1*
X18199D1*
X18104Y18132D1*
X17960Y18275D1*
Y18753D2*
Y18083D1*
X17078Y19088D2*
Y18083D1*
Y18609D2*
X17173Y18706D1*
X17269Y18753D1*
X17413D1*
X17508Y18706D1*
X17604Y18609D1*
X17652Y18466D1*
Y18371D1*
X17604Y18227D1*
X17508Y18132D1*
X17413Y18083D1*
X17269D1*
X17173Y18132D1*
X17078Y18227D1*
X16769Y19088D2*
X16722Y19041D1*
X16673Y19088D1*
X16722Y19137D1*
X16769Y19088D1*
X16722Y18753D2*
Y18083D1*
X16125Y18753D2*
X16220Y18706D1*
X16317Y18609D1*
X16364Y18466D1*
Y18371D1*
X16317Y18227D1*
X16220Y18132D1*
X16125Y18083D1*
X15982D1*
X15885Y18132D1*
X15790Y18227D1*
X15742Y18371D1*
Y18466D1*
X15790Y18609D1*
X15885Y18706D1*
X15982Y18753D1*
X16125D1*
X15433Y19088D2*
Y18083D1*
X14859D1*
X14550Y18753D2*
Y18275D1*
X14503Y18132D1*
X14407Y18083D1*
X14263D1*
X14168Y18132D1*
X14024Y18275D1*
Y18753D2*
Y18083D1*
X13716Y18753D2*
X13189Y18083D1*
Y18753D2*
X13716Y18083D1*
X11621Y19088D2*
X11717Y19041D1*
X11812Y18944D1*
X11861Y18849D1*
X11909Y18706D1*
Y18466D1*
X11861Y18323D1*
X11812Y18227D1*
X11717Y18132D1*
X11621Y18083D1*
X11430D1*
X11335Y18132D1*
X11239Y18227D1*
X11191Y18323D1*
X11144Y18466D1*
Y18706D1*
X11191Y18849D1*
X11239Y18944D1*
X11335Y19041D1*
X11430Y19088D1*
X11621D1*
X10835Y18753D2*
Y18083D1*
Y18562D2*
X10691Y18706D1*
X10595Y18753D1*
X10452D1*
X10356Y18706D1*
X10309Y18562D1*
Y18083D1*
X10000Y18466D2*
X9426D1*
Y18562D1*
X9474Y18658D1*
X9521Y18706D1*
X9617Y18753D1*
X9761D1*
X9856Y18706D1*
X9952Y18609D1*
X10000Y18466D1*
Y18371D1*
X9952Y18227D1*
X9856Y18132D1*
X9761Y18083D1*
X9617D1*
X9521Y18132D1*
X9426Y18227D1*
X19409Y17466D2*
X19026Y16461D1*
X18644Y17466D1*
X18047Y17465D2*
X18191Y17417D1*
X18287Y17273D1*
X18335Y17035D1*
Y16891D1*
X18287Y16652D1*
X18191Y16508D1*
X18047Y16461D1*
X17952D1*
X17809Y16508D1*
X17714Y16652D1*
X17665Y16891D1*
Y17035D1*
X17714Y17273D1*
X17809Y17417D1*
X17952Y17465D1*
X18047D1*
X17714Y17273D2*
X18287Y16652D1*
X17309Y16557D2*
X17356Y16508D1*
X17309Y16461D1*
X17260Y16508D1*
X17309Y16557D1*
X16713Y17465D2*
X16855Y17417D1*
X16904Y17322D1*
Y17226D1*
X16855Y17131D1*
X16760Y17082D1*
X16569Y17035D1*
X16425Y16987D1*
X16330Y16891D1*
X16283Y16796D1*
Y16652D1*
X16330Y16557D1*
X16378Y16508D1*
X16521Y16461D1*
X16713D1*
X16855Y16508D1*
X16904Y16557D1*
X16951Y16652D1*
Y16796D1*
X16904Y16891D1*
X16808Y16987D1*
X16665Y17035D1*
X16474Y17082D1*
X16378Y17131D1*
X16330Y17226D1*
Y17322D1*
X16378Y17417D1*
X16521Y17465D1*
X16713D1*
M02*
