G04 DipTrace 2.4.0.2*
%INTopMask.gbr*%
%MOIN*%
%ADD41C,0.128*%
%ADD51C,0.056*%
%ADD53C,0.138*%
%ADD55C,0.071*%
%ADD57R,0.071X0.071*%
%ADD59R,0.0671X0.0435*%
%ADD61R,0.0277X0.075*%
%ADD63R,0.075X0.0277*%
%ADD65C,0.0868*%
%ADD67C,0.1261*%
%ADD71C,0.0769*%
%ADD73R,0.0769X0.0769*%
%ADD77R,0.0789X0.0742*%
%ADD79R,0.1104X0.071*%
%ADD81R,0.0789X0.071*%
%ADD83R,0.071X0.0789*%
%ADD85C,0.075*%
%ADD87R,0.075X0.075*%
%FSLAX44Y44*%
G04*
G70*
G90*
G75*
G01*
%LNTopMask*%
%LPD*%
D87*
X11503Y4753D3*
D85*
X10503D3*
X9503D3*
X8503D3*
X7503D3*
D83*
X24113Y11084D3*
X25216D3*
X24113Y9178D3*
X25216D3*
D81*
X16869Y7687D3*
Y8789D3*
D79*
X23688Y7741D3*
X25105D3*
D83*
X22231Y14451D3*
X21129D3*
X22097Y13388D3*
X23200D3*
D81*
X24076Y12323D3*
Y13425D3*
D83*
X16137Y13571D3*
X17240D3*
D79*
X23555Y14780D3*
X24972D3*
X23735Y6056D3*
X25153D3*
D77*
X21341Y4812D3*
X22790D3*
D81*
X21940Y18817D3*
Y17714D3*
D73*
X18262Y12074D3*
D71*
X19262D3*
X20262D3*
Y13074D3*
X19262D3*
X18262D3*
D67*
X14190Y7690D3*
Y9580D3*
Y11470D3*
X15690Y11472D3*
Y9582D3*
Y7692D3*
D87*
X24029Y4653D3*
D85*
X25029D3*
D87*
X17159Y5149D3*
D85*
X18159D3*
X19159D3*
D81*
X24932Y12295D3*
Y13397D3*
D83*
X10503Y6816D3*
X9401D3*
D81*
X21067Y18796D3*
Y17693D3*
X22228Y15638D3*
Y16740D3*
D65*
X12427Y13720D3*
X11927Y12720D3*
X11427Y13720D3*
X10927Y12720D3*
D41*
X10177Y16220D3*
X13177D3*
D63*
X21282Y8151D3*
Y8466D3*
Y8781D3*
Y9096D3*
Y9411D3*
Y9726D3*
Y10041D3*
Y10356D3*
D61*
X20731Y10907D3*
X20416D3*
X20101D3*
X19786D3*
X19471D3*
X19156D3*
X18841D3*
X18526D3*
D63*
X17975Y10356D3*
Y10041D3*
Y9726D3*
Y9411D3*
Y9096D3*
Y8781D3*
Y8466D3*
Y8151D3*
D61*
X18526Y7600D3*
X18841D3*
X19156D3*
X19471D3*
X19786D3*
X20101D3*
X20416D3*
X20731D3*
D59*
X13925Y6120D3*
Y4821D3*
X15855D3*
Y6120D3*
D57*
X17339Y14511D3*
D55*
X18323D3*
Y15298D3*
X17339D3*
D53*
X20201Y16365D3*
X15461D3*
D51*
X22759Y11081D3*
Y9181D3*
M02*
