G04 DipTrace 2.4.0.2*
%INBottom.gbr*%
%MOIN*%
%ADD14C,0.006*%
%ADD15C,0.025*%
%ADD16C,0.013*%
%ADD19R,0.0591X0.1181*%
%ADD20C,0.0669*%
%ADD24R,0.0394X0.0512*%
%ADD25O,0.0394X0.0512*%
%ADD26C,0.04*%
%FSLAX44Y44*%
G04*
G70*
G90*
G75*
G01*
%LNBottom*%
%LPD*%
X7100Y10505D2*
D14*
X10026D1*
X10147Y10625D1*
Y10965D1*
Y13398D1*
X9223Y14322D1*
X7128Y17004D2*
Y16574D1*
X7525Y16177D1*
X9601D1*
X10128Y16704D1*
X7100Y14442D2*
X7525Y14867D1*
Y16177D1*
X9356Y11016D2*
X7899Y12473D1*
X7100D1*
X9513Y14782D2*
X8531Y15764D1*
X7817D1*
X7628Y17004D2*
X8317D1*
D26*
X4503Y20067D3*
X5628Y19379D3*
X6753Y20067D3*
X4503Y4690D3*
X5690Y5378D3*
X6815Y4753D3*
X9223Y14322D3*
X10147Y10965D3*
X10128Y16704D3*
X9356Y11016D3*
X8317Y17004D3*
X7817Y15764D3*
X9513Y14782D3*
X4350Y19376D2*
D15*
X5044D1*
X6211D2*
X6907D1*
X4350Y19127D2*
X5044D1*
X6211D2*
X6907D1*
X4350Y18879D2*
X6907D1*
X4350Y18630D2*
X6907D1*
X4350Y18381D2*
X6907D1*
X4350Y18133D2*
X6907D1*
X4350Y17884D2*
X6907D1*
X4350Y17635D2*
X6907D1*
X4350Y17387D2*
X6775D1*
X4350Y17138D2*
X6646D1*
X4350Y16889D2*
X6646D1*
X8793D2*
X10470D1*
X4350Y16641D2*
X6755D1*
X8633D2*
X10470D1*
X4350Y16392D2*
X10470D1*
X4350Y16143D2*
X7525D1*
X8110D2*
X10470D1*
X4350Y15895D2*
X7345D1*
X8844D2*
X10470D1*
X4350Y15646D2*
X7341D1*
X9090D2*
X10470D1*
X6977Y15397D2*
X7505D1*
X8129D2*
X8454D1*
X9340D2*
X10470D1*
X6977Y15148D2*
X8704D1*
X9825D2*
X10470D1*
X7512Y14900D2*
X8954D1*
X9989D2*
X10470D1*
X7688Y14651D2*
X8868D1*
X9985D2*
X10470D1*
X7723Y14402D2*
X8739D1*
X9805D2*
X10470D1*
X7653Y14154D2*
X8763D1*
X9832D2*
X10470D1*
X7391Y13905D2*
X8993D1*
X10082D2*
X10470D1*
X6977Y13656D2*
X9446D1*
X10329D2*
X10470D1*
X6977Y13408D2*
X9696D1*
X6977Y13159D2*
X9825D1*
X7536Y12910D2*
X9825D1*
X8153Y12662D2*
X9825D1*
X8403Y12413D2*
X9825D1*
X7637Y12164D2*
X7763D1*
X8649D2*
X9825D1*
X7344Y11916D2*
X8017D1*
X8899D2*
X9825D1*
X6977Y11667D2*
X8263D1*
X9149D2*
X9825D1*
X6977Y11418D2*
X8513D1*
X9614D2*
X9825D1*
X6977Y11169D2*
X8763D1*
X7555Y10921D2*
X8876D1*
X10387Y10423D2*
X10467D1*
X7625Y10175D2*
X10470D1*
X7282Y9926D2*
X10470D1*
X6977Y9677D2*
X10470D1*
X4350Y9429D2*
X10470D1*
X4350Y9180D2*
X10470D1*
X4350Y8931D2*
X10470D1*
X4350Y8683D2*
X10470D1*
X4350Y8434D2*
X10470D1*
X4350Y8185D2*
X10470D1*
X4350Y7937D2*
X10470D1*
X4350Y7688D2*
X6907D1*
X4350Y7439D2*
X6907D1*
X4350Y7190D2*
X6907D1*
X4350Y6942D2*
X6907D1*
X4350Y6693D2*
X6907D1*
X4350Y6444D2*
X6907D1*
X4350Y6196D2*
X6907D1*
X4350Y5947D2*
X5107D1*
X6274D2*
X6907D1*
X4350Y5698D2*
X5107D1*
X6274D2*
X6907D1*
X4350Y5450D2*
X5107D1*
X6274D2*
X6907D1*
X7619Y10211D2*
X7586Y10154D1*
X7503Y10061D1*
X7403Y9987D1*
X7289Y9936D1*
X7167Y9909D1*
X7042Y9908D1*
X6947Y9928D1*
X6950Y9618D1*
X6889Y9513D1*
X6825Y9493D1*
X4325D1*
Y5357D1*
X5063Y5358D1*
Y5011D1*
X5130Y5085D1*
Y6046D1*
X6251D1*
Y5354D1*
X6818Y5358D1*
X6931D1*
Y7763D1*
X6992Y7868D1*
X7056Y7888D1*
X10494D1*
Y10657D1*
X10440Y10609D1*
X10425Y10527D1*
X10355Y10417D1*
X10235Y10296D1*
X10141Y10233D1*
X10026Y10210D1*
X7624D1*
X6953Y11083D2*
X7025Y11100D1*
X7150Y11102D1*
X7272Y11079D1*
X7388Y11031D1*
X7490Y10960D1*
X7576Y10870D1*
X7619Y10800D1*
X8948D1*
X8899Y10931D1*
X8894Y11059D1*
X7774Y12178D1*
X7622D1*
X7586Y12122D1*
X7503Y12029D1*
X7403Y11956D1*
X7289Y11904D1*
X7167Y11878D1*
X7042Y11877D1*
X6947Y11896D1*
X6950Y11201D1*
Y11088D1*
X6953Y13051D2*
X7025Y13068D1*
X7150Y13071D1*
X7272Y13048D1*
X7388Y13000D1*
X7490Y12929D1*
X7576Y12838D1*
X7619Y12768D1*
X7899D1*
X8023Y12740D1*
X8108Y12682D1*
X9309Y11481D1*
X9415Y11477D1*
X9536Y11445D1*
X9643Y11382D1*
X9730Y11293D1*
X9766Y11228D1*
X9852Y11324D1*
X9850Y13278D1*
X9267Y13860D1*
X9203Y13857D1*
X9080Y13879D1*
X8968Y13933D1*
X8874Y14014D1*
X8805Y14118D1*
X8766Y14236D1*
X8760Y14361D1*
X8787Y14483D1*
X8845Y14593D1*
X8931Y14683D1*
X9048Y14751D1*
X9051Y14825D1*
X8406Y15469D1*
X8176D1*
X8139Y15428D1*
X8038Y15355D1*
X7921Y15311D1*
X7797Y15299D1*
X7675Y15321D1*
X7562Y15375D1*
X7468Y15457D1*
X7399Y15560D1*
X7360Y15679D1*
X7354Y15803D1*
X7381Y15925D1*
X7439Y16035D1*
X7525Y16126D1*
X7631Y16190D1*
X7751Y16224D1*
X7876Y16225D1*
X7996Y16193D1*
X8104Y16130D1*
X8172Y16060D1*
X8531Y16059D1*
X8655Y16031D1*
X8740Y15973D1*
X9466Y15246D1*
X9572Y15243D1*
X9692Y15211D1*
X9800Y15148D1*
X9887Y15058D1*
X9947Y14949D1*
X9978Y14782D1*
X9961Y14658D1*
X9912Y14544D1*
X9835Y14446D1*
X9734Y14373D1*
X9687Y14355D1*
X9682Y14279D1*
X10355Y13606D1*
X10423Y13498D1*
X10442Y13398D1*
Y11324D1*
X10494Y11388D1*
Y17057D1*
X8779D1*
X8782Y17004D1*
X8765Y16880D1*
X8717Y16766D1*
X8639Y16668D1*
X8538Y16595D1*
X8422Y16551D1*
X8298Y16540D1*
X8175Y16561D1*
X8087Y16603D1*
X8090Y16483D1*
X7166Y16487D1*
X7078Y16486D1*
X6981Y16507D1*
X6890Y16549D1*
X6811Y16609D1*
X6746Y16685D1*
X6699Y16773D1*
X6672Y16870D1*
X6666Y16995D1*
X6672Y17137D1*
X6699Y17233D1*
X6745Y17322D1*
X6810Y17398D1*
X6889Y17458D1*
X6931Y17481D1*
Y19584D1*
X6193Y19586D1*
X6188Y19860D1*
Y18899D1*
X5068D1*
X5063Y19672D1*
Y19586D1*
X4325D1*
Y15451D1*
X6825D1*
X6931Y15390D1*
X6950Y15326D1*
X6951Y15023D1*
X7075Y15041D1*
X7199Y15033D1*
X7320Y15000D1*
X7430Y14942D1*
X7527Y14863D1*
X7605Y14766D1*
X7661Y14654D1*
X7693Y14534D1*
X7699Y14417D1*
X7681Y14294D1*
X7638Y14176D1*
X7571Y14071D1*
X7484Y13982D1*
X7381Y13912D1*
X7265Y13865D1*
X7142Y13844D1*
X7017Y13848D1*
X6951Y13861D1*
X6950Y13057D1*
X7100Y15041D2*
D16*
Y13843D1*
Y14442D2*
X7699D1*
X7128Y17004D2*
Y16484D1*
X6667Y17004D2*
X7128D1*
D19*
X4503Y4503D3*
X5690Y5190D3*
X6753Y4503D3*
X4503Y20442D3*
X5628Y19754D3*
X6753Y20442D3*
D20*
X7100Y10505D3*
Y12473D3*
Y14442D3*
D24*
X7628Y17004D3*
D25*
X7128D3*
M02*
