G04 DipTrace 2.4.0.2*
%INTopDimension.gbr*%
%MOIN*%
%ADD13C,0.0014*%
%ADD53C,0.0062*%
%FSLAX44Y44*%
G04*
G70*
G90*
G75*
G01*
%LNTopDimension*%
%LPD*%
X7316Y21004D2*
D13*
X15701D1*
X7316Y17442D2*
X15701D1*
X15504Y19223D2*
Y20611D1*
G36*
Y21004D2*
X15583Y20611D1*
X15425D1*
X15504Y21004D1*
G37*
Y19223D2*
D13*
Y17835D1*
G36*
Y17442D2*
X15425Y17835D1*
X15583D1*
X15504Y17442D1*
G37*
X7316D2*
D13*
Y28202D1*
X10878Y17442D2*
Y28202D1*
X9097Y28005D2*
X7709D1*
G36*
X7316D2*
X7709Y28084D1*
Y27926D1*
X7316Y28005D1*
G37*
X9097D2*
D13*
X10485D1*
G36*
X10878D2*
X10485Y27926D1*
Y28084D1*
X10878Y28005D1*
G37*
X7316Y7503D2*
D13*
Y-4195D1*
X10878Y7503D2*
Y-4195D1*
X9097Y-3998D2*
X7709D1*
G36*
X7316D2*
X7709Y-3919D1*
Y-4077D1*
X7316Y-3998D1*
G37*
X9097D2*
D13*
X10485D1*
G36*
X10878D2*
X10485Y-4077D1*
Y-3919D1*
X10878Y-3998D1*
G37*
X7316Y3940D2*
D13*
X14888D1*
X7316Y7503D2*
X14888D1*
X14691Y5722D2*
Y4334D1*
G36*
Y3940D2*
X14613Y4334D1*
X14770D1*
X14691Y3940D1*
G37*
Y5722D2*
D13*
Y7109D1*
G36*
Y7503D2*
X14770Y7109D1*
X14613D1*
X14691Y7503D1*
G37*
X4396Y12473D2*
D13*
X12763D1*
X7316Y21004D2*
X12763D1*
X12566Y16739D2*
Y12867D1*
G36*
Y12473D2*
X12487Y12867D1*
X12645D1*
X12566Y12473D1*
G37*
Y16739D2*
D13*
Y20611D1*
G36*
Y21004D2*
X12645Y20611D1*
X12487D1*
X12566Y21004D1*
G37*
X4396Y12473D2*
D13*
X12763D1*
X7316Y3940D2*
X12763D1*
X12566Y8207D2*
Y12080D1*
G36*
Y12473D2*
X12645Y12080D1*
X12487D1*
X12566Y12473D1*
G37*
Y8207D2*
D13*
Y4334D1*
G36*
Y3940D2*
X12487Y4334D1*
X12645D1*
X12566Y3940D1*
G37*
X7100Y12473D2*
D13*
Y33703D1*
X10878Y17442D2*
Y33703D1*
X8989Y33506D2*
X7494D1*
G36*
X7100D2*
X7494Y33585D1*
Y33427D1*
X7100Y33506D1*
G37*
X8989D2*
D13*
X10485D1*
G36*
X10878D2*
X10485Y33427D1*
Y33585D1*
X10878Y33506D1*
G37*
X7100Y12473D2*
D13*
Y31827D1*
X10878Y17442D2*
Y31827D1*
X8989Y31631D2*
X7494D1*
G36*
X7100D2*
X7494Y31709D1*
Y31552D1*
X7100Y31631D1*
G37*
X8989D2*
D13*
X10485D1*
G36*
X10878D2*
X10485Y31552D1*
Y31709D1*
X10878Y31631D1*
G37*
X7100Y12473D2*
D13*
X18514D1*
X10878Y17442D2*
X18514D1*
X18317Y14958D2*
Y12867D1*
G36*
Y12473D2*
X18238Y12867D1*
X18395D1*
X18317Y12473D1*
G37*
Y14958D2*
D13*
Y17048D1*
G36*
Y17442D2*
X18395Y17048D1*
X18238D1*
X18317Y17442D1*
G37*
X7100Y12473D2*
D13*
X18514D1*
X10878Y7503D2*
X18514D1*
X18317Y9988D2*
Y12080D1*
G36*
Y12473D2*
X18395Y12080D1*
X18238D1*
X18317Y12473D1*
G37*
Y9988D2*
D13*
Y7897D1*
G36*
Y7503D2*
X18238Y7897D1*
X18395D1*
X18317Y7503D1*
G37*
X5065Y21004D2*
D13*
X1243D1*
X5065Y20317D2*
X1243D1*
X1440Y21004D2*
Y20317D1*
Y21595D2*
Y21398D1*
G36*
Y21004D2*
X1361Y21398D1*
X1519D1*
X1440Y21004D1*
G37*
Y19726D2*
D13*
Y19923D1*
G36*
Y20317D2*
X1519Y19923D1*
X1361D1*
X1440Y20317D1*
G37*
Y22439D2*
D13*
Y21004D1*
X7316D2*
Y22514D1*
X3940Y21004D2*
Y22514D1*
X5628Y22317D2*
X6922D1*
G36*
X7316D2*
X6922Y22238D1*
Y22396D1*
X7316Y22317D1*
G37*
X5628D2*
D13*
X4334D1*
G36*
X3940D2*
X4334Y22396D1*
Y22238D1*
X3940Y22317D1*
G37*
Y21004D2*
D13*
Y21826D1*
X5065Y21004D2*
Y21826D1*
X4503Y21630D2*
X4334D1*
G36*
X3940D2*
X4334Y21708D1*
Y21551D1*
X3940Y21630D1*
G37*
X4503D2*
D13*
X4672D1*
G36*
X5065D2*
X4672Y21551D1*
Y21708D1*
X5065Y21630D1*
G37*
X6652D2*
D13*
X5065D1*
Y20317D2*
Y18620D1*
X6190Y20317D2*
Y18620D1*
X5628Y18817D2*
X5459D1*
G36*
X5065D2*
X5459Y18895D1*
Y18738D1*
X5065Y18817D1*
G37*
X5628D2*
D13*
X5797D1*
G36*
X6190D2*
X5797Y18738D1*
Y18895D1*
X6190Y18817D1*
G37*
X7777D2*
D13*
X6190D1*
X5065Y4628D2*
X2181D1*
X5065Y3940D2*
X2181D1*
X2377Y4628D2*
Y3940D1*
Y5218D2*
Y5021D1*
G36*
Y4628D2*
X2299Y5021D1*
X2456D1*
X2377Y4628D1*
G37*
Y3350D2*
D13*
Y3546D1*
G36*
Y3940D2*
X2456Y3546D1*
X2299D1*
X2377Y3940D1*
G37*
Y6062D2*
D13*
Y4628D1*
X3940Y3940D2*
Y2431D1*
X5065Y3940D2*
Y2431D1*
X4503Y2628D2*
X4334D1*
G36*
X3940D2*
X4334Y2706D1*
Y2549D1*
X3940Y2628D1*
G37*
X4503D2*
D13*
X4672D1*
G36*
X5065D2*
X4672Y2549D1*
Y2706D1*
X5065Y2628D1*
G37*
X6652D2*
D13*
X5065D1*
Y4628D2*
Y5700D1*
X6190Y4628D2*
Y5700D1*
X5628Y5503D2*
X5459D1*
G36*
X5065D2*
X5459Y5582D1*
Y5424D1*
X5065Y5503D1*
G37*
X5628D2*
D13*
X5797D1*
G36*
X6190D2*
X5797Y5424D1*
Y5582D1*
X6190Y5503D1*
G37*
X7777D2*
D13*
X6190D1*
X7100Y12473D2*
X1556D1*
X6565Y15066D2*
X1556D1*
X1752Y13770D2*
Y12867D1*
G36*
Y12473D2*
X1674Y12867D1*
X1831D1*
X1752Y12473D1*
G37*
Y13770D2*
D13*
Y14673D1*
G36*
Y15066D2*
X1831Y14673D1*
X1674D1*
X1752Y15066D1*
G37*
X7100Y12473D2*
D13*
X1056D1*
X3940Y9878D2*
X1056D1*
X1252Y11176D2*
Y12080D1*
G36*
Y12473D2*
X1331Y12080D1*
X1174D1*
X1252Y12473D1*
G37*
Y11176D2*
D13*
Y10272D1*
G36*
Y9878D2*
X1174Y10272D1*
X1331D1*
X1252Y9878D1*
G37*
X15894Y19540D2*
D53*
X15836Y19560D1*
X15798Y19598D1*
X15779Y19655D1*
Y19674D1*
X15798Y19732D1*
X15836Y19770D1*
X15894Y19789D1*
X15913D1*
X15970Y19770D1*
X16008Y19732D1*
X16027Y19674D1*
Y19655D1*
X16008Y19598D1*
X15970Y19560D1*
X15894Y19540D1*
X15798D1*
X15702Y19560D1*
X15645Y19598D1*
X15626Y19655D1*
Y19693D1*
X15645Y19751D1*
X15683Y19770D1*
X15664Y19398D2*
X15645Y19417D1*
X15626Y19398D1*
X15645Y19378D1*
X15664Y19398D1*
X16027Y19140D2*
X16008Y19197D1*
X15951Y19236D1*
X15855Y19255D1*
X15798D1*
X15702Y19236D1*
X15645Y19197D1*
X15626Y19140D1*
Y19102D1*
X15645Y19044D1*
X15702Y19006D1*
X15798Y18987D1*
X15855D1*
X15951Y19006D1*
X16008Y19044D1*
X16027Y19102D1*
Y19140D1*
X15951Y19006D2*
X15702Y19236D1*
X16027Y18634D2*
Y18825D1*
X15855Y18844D1*
X15874Y18825D1*
X15894Y18767D1*
Y18710D1*
X15874Y18653D1*
X15836Y18614D1*
X15779Y18595D1*
X15741D1*
X15683Y18614D1*
X15645Y18653D1*
X15626Y18710D1*
Y18767D1*
X15645Y18825D1*
X15664Y18844D1*
X15702Y18863D1*
X8780Y28395D2*
X8760Y28338D1*
X8722Y28299D1*
X8665Y28280D1*
X8646D1*
X8588Y28299D1*
X8550Y28338D1*
X8531Y28395D1*
Y28414D1*
X8550Y28472D1*
X8588Y28510D1*
X8646Y28529D1*
X8665D1*
X8722Y28510D1*
X8760Y28472D1*
X8780Y28395D1*
Y28299D1*
X8760Y28204D1*
X8722Y28146D1*
X8665Y28127D1*
X8627D1*
X8569Y28146D1*
X8550Y28185D1*
X8922Y28166D2*
X8903Y28146D1*
X8922Y28127D1*
X8942Y28146D1*
X8922Y28166D1*
X9180Y28529D2*
X9123Y28510D1*
X9084Y28452D1*
X9065Y28357D1*
Y28299D1*
X9084Y28204D1*
X9123Y28146D1*
X9180Y28127D1*
X9218D1*
X9276Y28146D1*
X9314Y28204D1*
X9333Y28299D1*
Y28357D1*
X9314Y28452D1*
X9276Y28510D1*
X9218Y28529D1*
X9180D1*
X9314Y28452D2*
X9084Y28204D1*
X9686Y28529D2*
X9495D1*
X9476Y28357D1*
X9495Y28376D1*
X9553Y28395D1*
X9610D1*
X9667Y28376D1*
X9706Y28338D1*
X9725Y28280D1*
Y28242D1*
X9706Y28185D1*
X9667Y28146D1*
X9610Y28127D1*
X9553D1*
X9495Y28146D1*
X9476Y28166D1*
X9457Y28204D1*
X8780Y-3608D2*
X8760Y-3666D1*
X8722Y-3704D1*
X8665Y-3723D1*
X8646D1*
X8588Y-3704D1*
X8550Y-3666D1*
X8531Y-3608D1*
Y-3589D1*
X8550Y-3532D1*
X8588Y-3494D1*
X8646Y-3475D1*
X8665D1*
X8722Y-3494D1*
X8760Y-3532D1*
X8780Y-3608D1*
Y-3704D1*
X8760Y-3800D1*
X8722Y-3857D1*
X8665Y-3876D1*
X8627D1*
X8569Y-3857D1*
X8550Y-3819D1*
X8922Y-3838D2*
X8903Y-3857D1*
X8922Y-3876D1*
X8942Y-3857D1*
X8922Y-3838D1*
X9180Y-3475D2*
X9123Y-3494D1*
X9084Y-3551D1*
X9065Y-3647D1*
Y-3704D1*
X9084Y-3800D1*
X9123Y-3857D1*
X9180Y-3876D1*
X9218D1*
X9276Y-3857D1*
X9314Y-3800D1*
X9333Y-3704D1*
Y-3647D1*
X9314Y-3551D1*
X9276Y-3494D1*
X9218Y-3475D1*
X9180D1*
X9314Y-3551D2*
X9084Y-3800D1*
X9686Y-3475D2*
X9495D1*
X9476Y-3647D1*
X9495Y-3628D1*
X9553Y-3608D1*
X9610D1*
X9667Y-3628D1*
X9706Y-3666D1*
X9725Y-3723D1*
Y-3761D1*
X9706Y-3819D1*
X9667Y-3857D1*
X9610Y-3876D1*
X9553D1*
X9495Y-3857D1*
X9476Y-3838D1*
X9457Y-3800D1*
X15081Y6039D2*
X15024Y6058D1*
X14985Y6096D1*
X14966Y6154D1*
Y6173D1*
X14985Y6230D1*
X15024Y6268D1*
X15081Y6288D1*
X15100D1*
X15158Y6268D1*
X15196Y6230D1*
X15215Y6173D1*
Y6154D1*
X15196Y6096D1*
X15158Y6058D1*
X15081Y6039D1*
X14985D1*
X14890Y6058D1*
X14832Y6096D1*
X14813Y6154D1*
Y6192D1*
X14832Y6249D1*
X14871Y6268D1*
X14852Y5896D2*
X14832Y5915D1*
X14813Y5896D1*
X14832Y5877D1*
X14852Y5896D1*
X15215Y5638D2*
X15196Y5696D1*
X15138Y5734D1*
X15043Y5753D1*
X14985D1*
X14890Y5734D1*
X14832Y5696D1*
X14813Y5638D1*
Y5600D1*
X14832Y5543D1*
X14890Y5505D1*
X14985Y5485D1*
X15043D1*
X15138Y5505D1*
X15196Y5543D1*
X15215Y5600D1*
Y5638D1*
X15138Y5505D2*
X14890Y5734D1*
X15215Y5132D2*
Y5323D1*
X15043Y5342D1*
X15062Y5323D1*
X15081Y5266D1*
Y5209D1*
X15062Y5151D1*
X15024Y5113D1*
X14966Y5094D1*
X14928D1*
X14871Y5113D1*
X14832Y5151D1*
X14813Y5209D1*
Y5266D1*
X14832Y5323D1*
X14852Y5342D1*
X14890Y5362D1*
X12994Y17395D2*
X13013D1*
X13052Y17376D1*
X13071Y17357D1*
X13090Y17319D1*
Y17242D1*
X13071Y17204D1*
X13052Y17185D1*
X13013Y17166D1*
X12975D1*
X12937Y17185D1*
X12880Y17223D1*
X12688Y17414D1*
Y17147D1*
X13013Y17023D2*
X13033Y16985D1*
X13090Y16927D1*
X12688D1*
X12727Y16785D2*
X12707Y16804D1*
X12688Y16785D1*
X12707Y16765D1*
X12727Y16785D1*
X13033Y16412D2*
X13071Y16431D1*
X13090Y16489D1*
Y16527D1*
X13071Y16584D1*
X13013Y16623D1*
X12918Y16642D1*
X12822D1*
X12746Y16623D1*
X12707Y16584D1*
X12688Y16527D1*
Y16508D1*
X12707Y16451D1*
X12746Y16412D1*
X12803Y16393D1*
X12822D1*
X12880Y16412D1*
X12918Y16451D1*
X12937Y16508D1*
Y16527D1*
X12918Y16584D1*
X12880Y16623D1*
X12822Y16642D1*
X12688Y16193D2*
X13090Y16002D1*
Y16270D1*
X12994Y8863D2*
X13013D1*
X13052Y8844D1*
X13071Y8825D1*
X13090Y8786D1*
Y8710D1*
X13071Y8672D1*
X13052Y8653D1*
X13013Y8633D1*
X12975D1*
X12937Y8653D1*
X12880Y8691D1*
X12688Y8882D1*
Y8614D1*
X13013Y8491D2*
X13033Y8452D1*
X13090Y8395D1*
X12688D1*
X12727Y8252D2*
X12707Y8271D1*
X12688Y8252D1*
X12707Y8233D1*
X12727Y8252D1*
X13033Y7880D2*
X13071Y7899D1*
X13090Y7956D1*
Y7994D1*
X13071Y8052D1*
X13013Y8090D1*
X12918Y8109D1*
X12822D1*
X12746Y8090D1*
X12707Y8052D1*
X12688Y7994D1*
Y7975D1*
X12707Y7918D1*
X12746Y7880D1*
X12803Y7861D1*
X12822D1*
X12880Y7880D1*
X12918Y7918D1*
X12937Y7975D1*
Y7994D1*
X12918Y8052D1*
X12880Y8090D1*
X12822Y8109D1*
X12688Y7661D2*
X13090Y7469D1*
Y7737D1*
X8878Y33896D2*
X8858Y33838D1*
X8820Y33800D1*
X8763Y33781D1*
X8744D1*
X8686Y33800D1*
X8648Y33838D1*
X8629Y33896D1*
Y33915D1*
X8648Y33972D1*
X8686Y34010D1*
X8744Y34029D1*
X8763D1*
X8820Y34010D1*
X8858Y33972D1*
X8878Y33896D1*
Y33800D1*
X8858Y33704D1*
X8820Y33647D1*
X8763Y33628D1*
X8725D1*
X8667Y33647D1*
X8648Y33685D1*
X9020Y33666D2*
X9001Y33647D1*
X9020Y33628D1*
X9040Y33647D1*
X9020Y33666D1*
X9393Y33972D2*
X9374Y34010D1*
X9316Y34029D1*
X9278D1*
X9221Y34010D1*
X9182Y33953D1*
X9163Y33857D1*
Y33762D1*
X9182Y33685D1*
X9221Y33647D1*
X9278Y33628D1*
X9297D1*
X9354Y33647D1*
X9393Y33685D1*
X9412Y33743D1*
Y33762D1*
X9393Y33819D1*
X9354Y33857D1*
X9297Y33876D1*
X9278D1*
X9221Y33857D1*
X9182Y33819D1*
X9163Y33762D1*
X8878Y32021D2*
X8858Y31963D1*
X8820Y31925D1*
X8763Y31906D1*
X8744D1*
X8686Y31925D1*
X8648Y31963D1*
X8629Y32021D1*
Y32040D1*
X8648Y32097D1*
X8686Y32135D1*
X8744Y32154D1*
X8763D1*
X8820Y32135D1*
X8858Y32097D1*
X8878Y32021D1*
Y31925D1*
X8858Y31829D1*
X8820Y31772D1*
X8763Y31753D1*
X8725D1*
X8667Y31772D1*
X8648Y31810D1*
X9020Y31791D2*
X9001Y31772D1*
X9020Y31753D1*
X9040Y31772D1*
X9020Y31791D1*
X9393Y32097D2*
X9374Y32135D1*
X9316Y32154D1*
X9278D1*
X9221Y32135D1*
X9182Y32078D1*
X9163Y31982D1*
Y31887D1*
X9182Y31810D1*
X9221Y31772D1*
X9278Y31753D1*
X9297D1*
X9354Y31772D1*
X9393Y31810D1*
X9412Y31868D1*
Y31887D1*
X9393Y31944D1*
X9354Y31982D1*
X9297Y32001D1*
X9278D1*
X9221Y31982D1*
X9182Y31944D1*
X9163Y31887D1*
X18764Y15633D2*
X18783Y15595D1*
X18840Y15537D1*
X18439D1*
X18745Y15394D2*
X18764D1*
X18802Y15375D1*
X18821Y15356D1*
X18840Y15318D1*
Y15241D1*
X18821Y15203D1*
X18802Y15184D1*
X18764Y15165D1*
X18726D1*
X18687Y15184D1*
X18630Y15222D1*
X18439Y15414D1*
Y15146D1*
X18477Y15003D2*
X18458Y15022D1*
X18439Y15003D1*
X18458Y14984D1*
X18477Y15003D1*
X18783Y14631D2*
X18821Y14650D1*
X18840Y14707D1*
Y14745D1*
X18821Y14803D1*
X18764Y14841D1*
X18668Y14860D1*
X18573D1*
X18496Y14841D1*
X18458Y14803D1*
X18439Y14745D1*
Y14726D1*
X18458Y14669D1*
X18496Y14631D1*
X18554Y14612D1*
X18573D1*
X18630Y14631D1*
X18668Y14669D1*
X18687Y14726D1*
Y14745D1*
X18668Y14803D1*
X18630Y14841D1*
X18573Y14860D1*
X18745Y14469D2*
X18764D1*
X18802Y14450D1*
X18821Y14431D1*
X18840Y14392D1*
Y14316D1*
X18821Y14278D1*
X18802Y14259D1*
X18764Y14239D1*
X18726D1*
X18687Y14259D1*
X18630Y14297D1*
X18439Y14488D1*
Y14220D1*
X18764Y10664D2*
X18783Y10625D1*
X18840Y10568D1*
X18439D1*
X18745Y10425D2*
X18764D1*
X18802Y10406D1*
X18821Y10387D1*
X18840Y10348D1*
Y10272D1*
X18821Y10234D1*
X18802Y10215D1*
X18764Y10195D1*
X18726D1*
X18687Y10215D1*
X18630Y10253D1*
X18439Y10444D1*
Y10176D1*
X18477Y10034D2*
X18458Y10053D1*
X18439Y10034D1*
X18458Y10014D1*
X18477Y10034D1*
X18783Y9661D2*
X18821Y9680D1*
X18840Y9738D1*
Y9776D1*
X18821Y9833D1*
X18764Y9872D1*
X18668Y9891D1*
X18573D1*
X18496Y9872D1*
X18458Y9833D1*
X18439Y9776D1*
Y9757D1*
X18458Y9700D1*
X18496Y9661D1*
X18554Y9642D1*
X18573D1*
X18630Y9661D1*
X18668Y9700D1*
X18687Y9757D1*
Y9776D1*
X18668Y9833D1*
X18630Y9872D1*
X18573Y9891D1*
X18745Y9499D2*
X18764D1*
X18802Y9480D1*
X18821Y9461D1*
X18840Y9423D1*
Y9346D1*
X18821Y9308D1*
X18802Y9289D1*
X18764Y9270D1*
X18726D1*
X18687Y9289D1*
X18630Y9327D1*
X18439Y9519D1*
Y9251D1*
X993Y21491D2*
X973Y21529D1*
X916Y21587D1*
X1318D1*
X1279Y21729D2*
X1299Y21710D1*
X1318Y21729D1*
X1299Y21749D1*
X1279Y21729D1*
X1318Y21949D2*
X916Y22140D1*
Y21872D1*
Y22493D2*
Y22302D1*
X1088Y22283D1*
X1069Y22302D1*
X1050Y22360D1*
Y22417D1*
X1069Y22474D1*
X1107Y22513D1*
X1165Y22532D1*
X1203D1*
X1260Y22513D1*
X1299Y22474D1*
X1318Y22417D1*
Y22360D1*
X1299Y22302D1*
X1279Y22283D1*
X1241Y22264D1*
X5148Y22841D2*
X5091Y22822D1*
X5072Y22784D1*
Y22745D1*
X5091Y22707D1*
X5129Y22688D1*
X5205Y22669D1*
X5263Y22650D1*
X5301Y22611D1*
X5320Y22573D1*
Y22516D1*
X5301Y22478D1*
X5282Y22458D1*
X5225Y22439D1*
X5148D1*
X5091Y22458D1*
X5072Y22478D1*
X5053Y22516D1*
Y22573D1*
X5072Y22611D1*
X5110Y22650D1*
X5167Y22669D1*
X5244Y22688D1*
X5282Y22707D1*
X5301Y22745D1*
Y22784D1*
X5282Y22822D1*
X5225Y22841D1*
X5148D1*
X5463Y22478D2*
X5444Y22458D1*
X5463Y22439D1*
X5482Y22458D1*
X5463Y22478D1*
X5835Y22841D2*
X5644D1*
X5625Y22669D1*
X5644Y22688D1*
X5701Y22707D1*
X5758D1*
X5816Y22688D1*
X5854Y22650D1*
X5873Y22592D1*
Y22554D1*
X5854Y22497D1*
X5816Y22458D1*
X5758Y22439D1*
X5701D1*
X5644Y22458D1*
X5625Y22478D1*
X5606Y22516D1*
X6073Y22439D2*
X6265Y22841D1*
X5997D1*
X5571Y22058D2*
Y22077D1*
X5590Y22115D1*
X5609Y22134D1*
X5648Y22153D1*
X5724D1*
X5762Y22134D1*
X5781Y22115D1*
X5801Y22077D1*
Y22039D1*
X5781Y22000D1*
X5743Y21943D1*
X5552Y21752D1*
X5820D1*
X5962Y21790D2*
X5943Y21771D1*
X5962Y21752D1*
X5982Y21771D1*
X5962Y21790D1*
X6201Y22153D2*
X6144Y22134D1*
X6124Y22096D1*
Y22058D1*
X6144Y22020D1*
X6182Y22000D1*
X6258Y21981D1*
X6316Y21962D1*
X6354Y21924D1*
X6373Y21886D1*
Y21828D1*
X6354Y21790D1*
X6335Y21771D1*
X6277Y21752D1*
X6201D1*
X6144Y21771D1*
X6124Y21790D1*
X6105Y21828D1*
Y21886D1*
X6124Y21924D1*
X6163Y21962D1*
X6220Y21981D1*
X6296Y22000D1*
X6335Y22020D1*
X6354Y22058D1*
Y22096D1*
X6335Y22134D1*
X6277Y22153D1*
X6201D1*
X6726Y22096D2*
X6707Y22134D1*
X6649Y22153D1*
X6611D1*
X6554Y22134D1*
X6515Y22077D1*
X6496Y21981D1*
Y21886D1*
X6515Y21809D1*
X6554Y21771D1*
X6611Y21752D1*
X6630D1*
X6687Y21771D1*
X6726Y21809D1*
X6745Y21867D1*
Y21886D1*
X6726Y21943D1*
X6687Y21981D1*
X6630Y22000D1*
X6611D1*
X6554Y21981D1*
X6515Y21943D1*
X6496Y21886D1*
X6696Y19245D2*
Y19264D1*
X6715Y19302D1*
X6734Y19321D1*
X6773Y19340D1*
X6849D1*
X6887Y19321D1*
X6906Y19302D1*
X6926Y19264D1*
Y19226D1*
X6906Y19187D1*
X6868Y19130D1*
X6677Y18939D1*
X6945D1*
X7087Y18977D2*
X7068Y18958D1*
X7087Y18939D1*
X7107Y18958D1*
X7087Y18977D1*
X7326Y19340D2*
X7269Y19321D1*
X7249Y19283D1*
Y19245D1*
X7269Y19207D1*
X7307Y19187D1*
X7383Y19168D1*
X7441Y19149D1*
X7479Y19111D1*
X7498Y19073D1*
Y19015D1*
X7479Y18977D1*
X7460Y18958D1*
X7402Y18939D1*
X7326D1*
X7269Y18958D1*
X7249Y18977D1*
X7230Y19015D1*
Y19073D1*
X7249Y19111D1*
X7288Y19149D1*
X7345Y19168D1*
X7421Y19187D1*
X7460Y19207D1*
X7479Y19245D1*
Y19283D1*
X7460Y19321D1*
X7402Y19340D1*
X7326D1*
X7851Y19283D2*
X7832Y19321D1*
X7774Y19340D1*
X7736D1*
X7679Y19321D1*
X7640Y19264D1*
X7621Y19168D1*
Y19073D1*
X7640Y18996D1*
X7679Y18958D1*
X7736Y18939D1*
X7755D1*
X7812Y18958D1*
X7851Y18996D1*
X7870Y19054D1*
Y19073D1*
X7851Y19130D1*
X7812Y19168D1*
X7755Y19187D1*
X7736D1*
X7679Y19168D1*
X7640Y19130D1*
X7621Y19073D1*
X1930Y5114D2*
X1911Y5153D1*
X1854Y5210D1*
X2255D1*
X2217Y5353D2*
X2236Y5334D1*
X2255Y5353D1*
X2236Y5372D1*
X2217Y5353D1*
X2255Y5572D2*
X1854Y5763D1*
Y5496D1*
Y6116D2*
Y5925D1*
X2026Y5906D1*
X2007Y5925D1*
X1987Y5983D1*
Y6040D1*
X2007Y6097D1*
X2045Y6136D1*
X2102Y6155D1*
X2140D1*
X2198Y6136D1*
X2236Y6097D1*
X2255Y6040D1*
Y5983D1*
X2236Y5925D1*
X2217Y5906D1*
X2179Y5887D1*
X5571Y3056D2*
Y3075D1*
X5590Y3113D1*
X5609Y3132D1*
X5648Y3151D1*
X5724D1*
X5762Y3132D1*
X5781Y3113D1*
X5801Y3075D1*
Y3037D1*
X5781Y2998D1*
X5743Y2941D1*
X5552Y2750D1*
X5820D1*
X5962Y2788D2*
X5943Y2769D1*
X5962Y2750D1*
X5982Y2769D1*
X5962Y2788D1*
X6201Y3151D2*
X6144Y3132D1*
X6124Y3094D1*
Y3056D1*
X6144Y3018D1*
X6182Y2998D1*
X6258Y2979D1*
X6316Y2960D1*
X6354Y2922D1*
X6373Y2884D1*
Y2826D1*
X6354Y2788D1*
X6335Y2769D1*
X6277Y2750D1*
X6201D1*
X6144Y2769D1*
X6124Y2788D1*
X6105Y2826D1*
Y2884D1*
X6124Y2922D1*
X6163Y2960D1*
X6220Y2979D1*
X6296Y2998D1*
X6335Y3018D1*
X6354Y3056D1*
Y3094D1*
X6335Y3132D1*
X6277Y3151D1*
X6201D1*
X6726Y3094D2*
X6707Y3132D1*
X6649Y3151D1*
X6611D1*
X6554Y3132D1*
X6515Y3075D1*
X6496Y2979D1*
Y2884D1*
X6515Y2807D1*
X6554Y2769D1*
X6611Y2750D1*
X6630D1*
X6687Y2769D1*
X6726Y2807D1*
X6745Y2865D1*
Y2884D1*
X6726Y2941D1*
X6687Y2979D1*
X6630Y2998D1*
X6611D1*
X6554Y2979D1*
X6515Y2941D1*
X6496Y2884D1*
X6696Y5931D2*
Y5950D1*
X6715Y5988D1*
X6734Y6007D1*
X6773Y6026D1*
X6849D1*
X6887Y6007D1*
X6906Y5988D1*
X6926Y5950D1*
Y5912D1*
X6906Y5873D1*
X6868Y5816D1*
X6677Y5625D1*
X6945D1*
X7087Y5663D2*
X7068Y5644D1*
X7087Y5625D1*
X7107Y5644D1*
X7087Y5663D1*
X7326Y6026D2*
X7269Y6007D1*
X7249Y5969D1*
Y5931D1*
X7269Y5893D1*
X7307Y5873D1*
X7383Y5854D1*
X7441Y5835D1*
X7479Y5797D1*
X7498Y5759D1*
Y5701D1*
X7479Y5663D1*
X7460Y5644D1*
X7402Y5625D1*
X7326D1*
X7269Y5644D1*
X7249Y5663D1*
X7230Y5701D1*
Y5759D1*
X7249Y5797D1*
X7288Y5835D1*
X7345Y5854D1*
X7421Y5873D1*
X7460Y5893D1*
X7479Y5931D1*
Y5969D1*
X7460Y6007D1*
X7402Y6026D1*
X7326D1*
X7851Y5969D2*
X7832Y6007D1*
X7774Y6026D1*
X7736D1*
X7679Y6007D1*
X7640Y5950D1*
X7621Y5854D1*
Y5759D1*
X7640Y5682D1*
X7679Y5644D1*
X7736Y5625D1*
X7755D1*
X7812Y5644D1*
X7851Y5682D1*
X7870Y5740D1*
Y5759D1*
X7851Y5816D1*
X7812Y5854D1*
X7755Y5873D1*
X7736D1*
X7679Y5854D1*
X7640Y5816D1*
X7621Y5759D1*
X1286Y13443D2*
X1248Y13424D1*
X1229Y13367D1*
Y13329D1*
X1248Y13271D1*
X1305Y13233D1*
X1401Y13214D1*
X1496D1*
X1573Y13233D1*
X1611Y13271D1*
X1630Y13329D1*
Y13348D1*
X1611Y13405D1*
X1573Y13443D1*
X1515Y13462D1*
X1496D1*
X1439Y13443D1*
X1401Y13405D1*
X1382Y13348D1*
Y13329D1*
X1401Y13271D1*
X1439Y13233D1*
X1496Y13214D1*
X1592Y13605D2*
X1611Y13586D1*
X1630Y13605D1*
X1611Y13624D1*
X1592Y13605D1*
X1229Y13977D2*
Y13786D1*
X1401Y13767D1*
X1382Y13786D1*
X1362Y13844D1*
Y13901D1*
X1382Y13958D1*
X1420Y13996D1*
X1477Y14016D1*
X1515D1*
X1573Y13996D1*
X1611Y13958D1*
X1630Y13901D1*
Y13844D1*
X1611Y13786D1*
X1592Y13767D1*
X1554Y13748D1*
X1362Y14388D2*
X1420Y14369D1*
X1458Y14330D1*
X1477Y14273D1*
Y14254D1*
X1458Y14197D1*
X1420Y14158D1*
X1362Y14139D1*
X1343D1*
X1286Y14158D1*
X1248Y14197D1*
X1229Y14254D1*
Y14273D1*
X1248Y14330D1*
X1286Y14369D1*
X1362Y14388D1*
X1458D1*
X1554Y14369D1*
X1611Y14330D1*
X1630Y14273D1*
Y14235D1*
X1611Y14177D1*
X1573Y14158D1*
X786Y10849D2*
X748Y10830D1*
X729Y10773D1*
Y10735D1*
X748Y10677D1*
X805Y10639D1*
X901Y10620D1*
X996D1*
X1073Y10639D1*
X1111Y10677D1*
X1130Y10735D1*
Y10754D1*
X1111Y10811D1*
X1073Y10849D1*
X1015Y10868D1*
X996D1*
X939Y10849D1*
X901Y10811D1*
X882Y10754D1*
Y10735D1*
X901Y10677D1*
X939Y10639D1*
X996Y10620D1*
X1092Y11011D2*
X1111Y10992D1*
X1130Y11011D1*
X1111Y11030D1*
X1092Y11011D1*
X729Y11383D2*
Y11192D1*
X901Y11173D1*
X882Y11192D1*
X862Y11249D1*
Y11307D1*
X882Y11364D1*
X920Y11402D1*
X977Y11421D1*
X1015D1*
X1073Y11402D1*
X1111Y11364D1*
X1130Y11307D1*
Y11249D1*
X1111Y11192D1*
X1092Y11173D1*
X1054Y11154D1*
X862Y11794D2*
X920Y11774D1*
X958Y11736D1*
X977Y11679D1*
Y11660D1*
X958Y11602D1*
X920Y11564D1*
X862Y11545D1*
X843D1*
X786Y11564D1*
X748Y11602D1*
X729Y11660D1*
Y11679D1*
X748Y11736D1*
X786Y11774D1*
X862Y11794D1*
X958D1*
X1054Y11774D1*
X1111Y11736D1*
X1130Y11679D1*
Y11641D1*
X1111Y11583D1*
X1073Y11564D1*
M02*
