G04 DipTrace 2.4.0.2*
%INBottomMask.gbr*%
%MOIN*%
%ADD40C,0.128*%
%ADD49C,0.056*%
%ADD51C,0.138*%
%ADD53C,0.071*%
%ADD55R,0.071X0.071*%
%ADD63C,0.0868*%
%ADD65R,0.0868X0.0317*%
%ADD67C,0.0769*%
%ADD69R,0.0769X0.0769*%
%ADD71R,0.0631X0.0198*%
%ADD75R,0.0789X0.071*%
%ADD77R,0.071X0.0789*%
%ADD79C,0.075*%
%ADD81R,0.075X0.075*%
%ADD83R,0.0946X0.1498*%
%ADD85R,0.096X0.056*%
%FSLAX44Y44*%
G04*
G70*
G90*
G75*
G01*
%LNBotMask*%
%LPD*%
D85*
X11940Y5940D3*
Y6846D3*
Y7751D3*
D83*
X14378Y6846D3*
D81*
X24940Y4940D3*
D79*
X23940D3*
X22940D3*
X21940D3*
D75*
X12940Y13440D3*
Y12338D3*
X17940Y12440D3*
Y13543D3*
D77*
X20491Y10491D3*
X19389D3*
X18491Y6991D3*
X17389D3*
X18440Y7940D3*
X17338D3*
X20440Y11440D3*
X19338D3*
X20940Y6440D3*
X19838D3*
X24129Y9940D3*
X23027D3*
X23440Y13440D3*
X24543D3*
D75*
X23389Y8991D3*
Y7889D3*
D71*
X16940Y15940D3*
Y15684D3*
Y15428D3*
Y15172D3*
Y14917D3*
Y14661D3*
Y14405D3*
Y14149D3*
Y13893D3*
Y13637D3*
Y13381D3*
Y13125D3*
Y12869D3*
Y12613D3*
X13869D3*
Y12869D3*
Y13125D3*
Y13381D3*
Y13637D3*
Y13893D3*
Y14149D3*
Y14405D3*
Y14661D3*
Y14917D3*
Y15172D3*
Y15428D3*
Y15684D3*
Y15940D3*
D69*
X8440Y16065D3*
D67*
X9440D3*
X10440D3*
Y17065D3*
X9440D3*
X8440D3*
D65*
X22338Y8940D3*
Y8440D3*
Y7940D3*
Y7440D3*
X19424D3*
Y7940D3*
Y8440D3*
Y8940D3*
X24440Y12440D3*
Y11940D3*
Y11440D3*
Y10940D3*
X21527D3*
Y11440D3*
Y11940D3*
Y12440D3*
D81*
X13940Y8940D3*
D79*
Y9940D3*
Y10940D3*
D81*
X15940Y8940D3*
D79*
Y9940D3*
Y10940D3*
D81*
X19440Y4940D3*
D79*
X18440D3*
D81*
X12065Y4815D3*
D79*
X13065D3*
X14065D3*
D77*
X20440Y12440D3*
X19338D3*
X18440Y8940D3*
X17338D3*
D63*
X9460Y7940D3*
X10460Y7440D3*
X9460Y6940D3*
X10460Y6440D3*
D40*
X6960Y5690D3*
Y8690D3*
D55*
X8669Y12440D3*
D53*
Y13424D3*
X7881D3*
Y12440D3*
D51*
X6814Y15302D3*
Y10562D3*
D49*
X19065Y13190D3*
Y15090D3*
M02*
