G04 DipTrace 2.4.0.2*
%INTopAssy.gbr*%
%MOIN*%
%ADD10C,0.0098*%
%ADD12C,0.003*%
%ADD89C,0.0046*%
%FSLAX44Y44*%
G04*
G70*
G90*
G75*
G01*
%LNTopAssy*%
%LPD*%
X25834Y4342D2*
D10*
X21046D1*
X13342Y8046D2*
Y11834D1*
X15342Y8046D2*
Y11834D1*
X20334Y4342D2*
X17546D1*
X11171Y5414D2*
X14959D1*
X2759Y15688D2*
Y10177D1*
X24434Y4008D2*
D12*
Y4209D1*
X24348D1*
X24319Y4199D1*
X24310Y4190D1*
X24300Y4171D1*
Y4142D1*
X24310Y4123D1*
X24319Y4113D1*
X24348Y4104D1*
X24319Y4094D1*
X24310Y4084D1*
X24300Y4065D1*
Y4046D1*
X24310Y4027D1*
X24319Y4017D1*
X24348Y4008D1*
X24434D1*
Y4104D2*
X24348D1*
X24181Y4008D2*
X24200Y4017D1*
X24219Y4037D1*
X24229Y4056D1*
X24239Y4084D1*
Y4132D1*
X24229Y4161D1*
X24219Y4180D1*
X24200Y4199D1*
X24181Y4209D1*
X24143D1*
X24124Y4199D1*
X24105Y4180D1*
X24095Y4161D1*
X24086Y4132D1*
Y4084D1*
X24095Y4056D1*
X24105Y4037D1*
X24124Y4017D1*
X24143Y4008D1*
X24181D1*
X23871Y4209D2*
X23947Y4008D1*
X24024Y4209D1*
X23995Y4142D2*
X23899D1*
X23809Y4104D2*
X23723D1*
X23694Y4094D1*
X23684Y4084D1*
X23675Y4065D1*
Y4046D1*
X23684Y4027D1*
X23694Y4017D1*
X23723Y4008D1*
X23809D1*
Y4209D1*
X23742Y4104D2*
X23675Y4209D1*
X23613Y4008D2*
Y4209D1*
X23546D1*
X23517Y4199D1*
X23498Y4180D1*
X23489Y4161D1*
X23479Y4132D1*
Y4084D1*
X23489Y4056D1*
X23498Y4037D1*
X23517Y4017D1*
X23546Y4008D1*
X23613D1*
X23099D2*
X23223D1*
Y4209D1*
X23099D1*
X23223Y4104D2*
X23147D1*
X23037Y4008D2*
Y4209D1*
X22970D1*
X22941Y4199D1*
X22922Y4180D1*
X22913Y4161D1*
X22903Y4132D1*
Y4084D1*
X22913Y4056D1*
X22922Y4037D1*
X22941Y4017D1*
X22970Y4008D1*
X23037D1*
X22698Y4056D2*
X22707Y4037D1*
X22727Y4017D1*
X22746Y4008D1*
X22784D1*
X22803Y4017D1*
X22822Y4037D1*
X22832Y4056D1*
X22841Y4084D1*
Y4132D1*
X22832Y4161D1*
X22822Y4180D1*
X22803Y4199D1*
X22784Y4209D1*
X22746D1*
X22727Y4199D1*
X22707Y4180D1*
X22698Y4161D1*
Y4132D1*
X22746D1*
X22512Y4008D2*
X22636D1*
Y4209D1*
X22512D1*
X22636Y4104D2*
X22560D1*
X13008Y8956D2*
X13209D1*
Y9042D1*
X13199Y9071D1*
X13190Y9080D1*
X13171Y9090D1*
X13142D1*
X13123Y9080D1*
X13113Y9071D1*
X13104Y9042D1*
X13094Y9071D1*
X13084Y9080D1*
X13065Y9090D1*
X13046D1*
X13027Y9080D1*
X13017Y9071D1*
X13008Y9042D1*
Y8956D1*
X13104D2*
Y9042D1*
X13008Y9209D2*
X13017Y9190D1*
X13037Y9171D1*
X13056Y9161D1*
X13084Y9151D1*
X13132D1*
X13161Y9161D1*
X13180Y9171D1*
X13199Y9190D1*
X13209Y9209D1*
Y9247D1*
X13199Y9266D1*
X13180Y9285D1*
X13161Y9295D1*
X13132Y9304D1*
X13084D1*
X13056Y9295D1*
X13037Y9285D1*
X13017Y9266D1*
X13008Y9247D1*
Y9209D1*
X13209Y9519D2*
X13008Y9443D1*
X13209Y9366D1*
X13142Y9395D2*
Y9491D1*
X13104Y9581D2*
Y9667D1*
X13094Y9696D1*
X13084Y9706D1*
X13065Y9715D1*
X13046D1*
X13027Y9706D1*
X13017Y9696D1*
X13008Y9667D1*
Y9581D1*
X13209D1*
X13104Y9648D2*
X13209Y9715D1*
X13008Y9777D2*
X13209D1*
Y9844D1*
X13199Y9873D1*
X13180Y9892D1*
X13161Y9901D1*
X13132Y9911D1*
X13084D1*
X13056Y9901D1*
X13037Y9892D1*
X13017Y9873D1*
X13008Y9844D1*
Y9777D1*
Y10291D2*
Y10167D1*
X13209D1*
Y10291D1*
X13104Y10167D2*
Y10244D1*
X13008Y10353D2*
X13209D1*
Y10420D1*
X13199Y10449D1*
X13180Y10468D1*
X13161Y10477D1*
X13132Y10487D1*
X13084D1*
X13056Y10477D1*
X13037Y10468D1*
X13017Y10449D1*
X13008Y10420D1*
Y10353D1*
X13056Y10692D2*
X13037Y10683D1*
X13017Y10663D1*
X13008Y10644D1*
Y10606D1*
X13017Y10587D1*
X13037Y10568D1*
X13056Y10558D1*
X13084Y10549D1*
X13132D1*
X13161Y10558D1*
X13180Y10568D1*
X13199Y10587D1*
X13209Y10606D1*
Y10644D1*
X13199Y10663D1*
X13180Y10683D1*
X13161Y10692D1*
X13132D1*
Y10644D1*
X13008Y10878D2*
Y10754D1*
X13209D1*
Y10878D1*
X13104Y10754D2*
Y10830D1*
X15008Y8956D2*
X15209D1*
Y9042D1*
X15199Y9071D1*
X15190Y9080D1*
X15171Y9090D1*
X15142D1*
X15123Y9080D1*
X15113Y9071D1*
X15104Y9042D1*
X15094Y9071D1*
X15084Y9080D1*
X15065Y9090D1*
X15046D1*
X15027Y9080D1*
X15017Y9071D1*
X15008Y9042D1*
Y8956D1*
X15104D2*
Y9042D1*
X15008Y9209D2*
X15017Y9190D1*
X15037Y9171D1*
X15056Y9161D1*
X15084Y9151D1*
X15132D1*
X15161Y9161D1*
X15180Y9171D1*
X15199Y9190D1*
X15209Y9209D1*
Y9247D1*
X15199Y9266D1*
X15180Y9285D1*
X15161Y9295D1*
X15132Y9304D1*
X15084D1*
X15056Y9295D1*
X15037Y9285D1*
X15017Y9266D1*
X15008Y9247D1*
Y9209D1*
X15209Y9519D2*
X15008Y9443D1*
X15209Y9366D1*
X15142Y9395D2*
Y9491D1*
X15104Y9581D2*
Y9667D1*
X15094Y9696D1*
X15084Y9706D1*
X15065Y9715D1*
X15046D1*
X15027Y9706D1*
X15017Y9696D1*
X15008Y9667D1*
Y9581D1*
X15209D1*
X15104Y9648D2*
X15209Y9715D1*
X15008Y9777D2*
X15209D1*
Y9844D1*
X15199Y9873D1*
X15180Y9892D1*
X15161Y9901D1*
X15132Y9911D1*
X15084D1*
X15056Y9901D1*
X15037Y9892D1*
X15017Y9873D1*
X15008Y9844D1*
Y9777D1*
Y10291D2*
Y10167D1*
X15209D1*
Y10291D1*
X15104Y10167D2*
Y10244D1*
X15008Y10353D2*
X15209D1*
Y10420D1*
X15199Y10449D1*
X15180Y10468D1*
X15161Y10477D1*
X15132Y10487D1*
X15084D1*
X15056Y10477D1*
X15037Y10468D1*
X15017Y10449D1*
X15008Y10420D1*
Y10353D1*
X15056Y10692D2*
X15037Y10683D1*
X15017Y10663D1*
X15008Y10644D1*
Y10606D1*
X15017Y10587D1*
X15037Y10568D1*
X15056Y10558D1*
X15084Y10549D1*
X15132D1*
X15161Y10558D1*
X15180Y10568D1*
X15199Y10587D1*
X15209Y10606D1*
Y10644D1*
X15199Y10663D1*
X15180Y10683D1*
X15161Y10692D1*
X15132D1*
Y10644D1*
X15008Y10878D2*
Y10754D1*
X15209D1*
Y10878D1*
X15104Y10754D2*
Y10830D1*
X19925Y4008D2*
Y4209D1*
X19839D1*
X19810Y4199D1*
X19800Y4190D1*
X19791Y4171D1*
Y4142D1*
X19800Y4123D1*
X19810Y4113D1*
X19839Y4104D1*
X19810Y4094D1*
X19800Y4084D1*
X19791Y4065D1*
Y4046D1*
X19800Y4027D1*
X19810Y4017D1*
X19839Y4008D1*
X19925D1*
Y4104D2*
X19839D1*
X19672Y4008D2*
X19691Y4017D1*
X19710Y4037D1*
X19720Y4056D1*
X19729Y4084D1*
Y4132D1*
X19720Y4161D1*
X19710Y4180D1*
X19691Y4199D1*
X19672Y4209D1*
X19633D1*
X19614Y4199D1*
X19595Y4180D1*
X19586Y4161D1*
X19576Y4132D1*
Y4084D1*
X19586Y4056D1*
X19595Y4037D1*
X19614Y4017D1*
X19633Y4008D1*
X19672D1*
X19361Y4209D2*
X19438Y4008D1*
X19514Y4209D1*
X19486Y4142D2*
X19390D1*
X19299Y4104D2*
X19213D1*
X19185Y4094D1*
X19175Y4084D1*
X19165Y4065D1*
Y4046D1*
X19175Y4027D1*
X19185Y4017D1*
X19213Y4008D1*
X19299D1*
Y4209D1*
X19232Y4104D2*
X19165Y4209D1*
X19104Y4008D2*
Y4209D1*
X19037D1*
X19008Y4199D1*
X18989Y4180D1*
X18979Y4161D1*
X18970Y4132D1*
Y4084D1*
X18979Y4056D1*
X18989Y4037D1*
X19008Y4017D1*
X19037Y4008D1*
X19104D1*
X18589D2*
X18714D1*
Y4209D1*
X18589D1*
X18714Y4104D2*
X18637D1*
X18528Y4008D2*
Y4209D1*
X18461D1*
X18432Y4199D1*
X18413Y4180D1*
X18403Y4161D1*
X18394Y4132D1*
Y4084D1*
X18403Y4056D1*
X18413Y4037D1*
X18432Y4017D1*
X18461Y4008D1*
X18528D1*
X18188Y4056D2*
X18198Y4037D1*
X18217Y4017D1*
X18236Y4008D1*
X18274D1*
X18294Y4017D1*
X18313Y4037D1*
X18322Y4056D1*
X18332Y4084D1*
Y4132D1*
X18322Y4161D1*
X18313Y4180D1*
X18294Y4199D1*
X18274Y4209D1*
X18236D1*
X18217Y4199D1*
X18198Y4180D1*
X18188Y4161D1*
Y4132D1*
X18236D1*
X18002Y4008D2*
X18127D1*
Y4209D1*
X18002D1*
X18127Y4104D2*
X18050D1*
X12081Y5747D2*
Y5546D1*
X12167D1*
X12196Y5556D1*
X12205Y5566D1*
X12215Y5585D1*
Y5613D1*
X12205Y5633D1*
X12196Y5642D1*
X12167Y5652D1*
X12196Y5661D1*
X12205Y5671D1*
X12215Y5690D1*
Y5709D1*
X12205Y5728D1*
X12196Y5738D1*
X12167Y5747D1*
X12081D1*
Y5652D2*
X12167D1*
X12334Y5747D2*
X12315Y5738D1*
X12296Y5719D1*
X12286Y5700D1*
X12276Y5671D1*
Y5623D1*
X12286Y5594D1*
X12296Y5575D1*
X12315Y5556D1*
X12334Y5546D1*
X12372D1*
X12391Y5556D1*
X12410Y5575D1*
X12420Y5594D1*
X12429Y5623D1*
Y5671D1*
X12420Y5700D1*
X12410Y5719D1*
X12391Y5738D1*
X12372Y5747D1*
X12334D1*
X12644Y5546D2*
X12568Y5747D1*
X12491Y5546D1*
X12520Y5613D2*
X12616D1*
X12706Y5652D2*
X12792D1*
X12821Y5661D1*
X12831Y5671D1*
X12840Y5690D1*
Y5709D1*
X12831Y5728D1*
X12821Y5738D1*
X12792Y5747D1*
X12706D1*
Y5546D1*
X12773Y5652D2*
X12840Y5546D1*
X12902Y5747D2*
Y5546D1*
X12969D1*
X12998Y5556D1*
X13017Y5575D1*
X13026Y5594D1*
X13036Y5623D1*
Y5671D1*
X13026Y5700D1*
X13017Y5719D1*
X12998Y5738D1*
X12969Y5747D1*
X12902D1*
X13416D2*
X13292D1*
Y5546D1*
X13416D1*
X13292Y5652D2*
X13369D1*
X13478Y5747D2*
Y5546D1*
X13545D1*
X13574Y5556D1*
X13593Y5575D1*
X13602Y5594D1*
X13612Y5623D1*
Y5671D1*
X13602Y5700D1*
X13593Y5719D1*
X13574Y5738D1*
X13545Y5747D1*
X13478D1*
X13817Y5700D2*
X13808Y5719D1*
X13788Y5738D1*
X13769Y5747D1*
X13731D1*
X13712Y5738D1*
X13693Y5719D1*
X13683Y5700D1*
X13674Y5671D1*
Y5623D1*
X13683Y5594D1*
X13693Y5575D1*
X13712Y5556D1*
X13731Y5546D1*
X13769D1*
X13788Y5556D1*
X13808Y5575D1*
X13817Y5594D1*
Y5623D1*
X13769D1*
X14003Y5747D2*
X13879D1*
Y5546D1*
X14003D1*
X13879Y5652D2*
X13955D1*
X3140Y12369D2*
D89*
Y12555D1*
X2839D1*
Y12369D1*
X2997Y12555D2*
Y12440D1*
X3140Y12276D2*
X2839D1*
Y12176D1*
X2854Y12133D1*
X2882Y12104D1*
X2911Y12090D1*
X2954Y12075D1*
X3026D1*
X3069Y12090D1*
X3097Y12104D1*
X3126Y12133D1*
X3140Y12176D1*
Y12276D1*
X3069Y11767D2*
X3097Y11782D1*
X3126Y11811D1*
X3140Y11839D1*
Y11896D1*
X3126Y11925D1*
X3097Y11954D1*
X3069Y11968D1*
X3026Y11983D1*
X2954D1*
X2911Y11968D1*
X2882Y11954D1*
X2854Y11925D1*
X2839Y11896D1*
Y11839D1*
X2854Y11811D1*
X2882Y11782D1*
X2911Y11767D1*
X2954D1*
Y11839D1*
X3140Y11488D2*
Y11675D1*
X2839D1*
Y11488D1*
X2997Y11675D2*
Y11560D1*
X3137Y14346D2*
X2835D1*
Y14217D1*
X2850Y14174D1*
X2864Y14160D1*
X2893Y14146D1*
X2936D1*
X2965Y14160D1*
X2979Y14174D1*
X2993Y14217D1*
X3008Y14174D1*
X3022Y14160D1*
X3050Y14146D1*
X3079D1*
X3108Y14160D1*
X3122Y14174D1*
X3137Y14217D1*
Y14346D1*
X2993D2*
Y14217D1*
X3137Y13967D2*
X3122Y13996D1*
X3094Y14024D1*
X3065Y14039D1*
X3022Y14053D1*
X2950D1*
X2907Y14039D1*
X2878Y14024D1*
X2850Y13996D1*
X2835Y13967D1*
Y13909D1*
X2850Y13881D1*
X2878Y13852D1*
X2907Y13838D1*
X2950Y13823D1*
X3022D1*
X3065Y13838D1*
X3094Y13852D1*
X3122Y13881D1*
X3137Y13909D1*
Y13967D1*
X2835Y13501D2*
X3137Y13616D1*
X2835Y13731D1*
X2936Y13688D2*
Y13544D1*
X2993Y13408D2*
Y13279D1*
X3008Y13236D1*
X3022Y13222D1*
X3050Y13207D1*
X3079D1*
X3108Y13222D1*
X3122Y13236D1*
X3137Y13279D1*
Y13408D1*
X2835D1*
X2993Y13308D2*
X2835Y13207D1*
X3137Y13115D2*
X2835D1*
Y13014D1*
X2850Y12971D1*
X2878Y12942D1*
X2907Y12928D1*
X2950Y12914D1*
X3022D1*
X3065Y12928D1*
X3094Y12942D1*
X3122Y12971D1*
X3137Y13014D1*
Y13115D1*
M02*
