G04 DipTrace 2.4.0.2*
%INTopDimension.gbr*%
%MOIN*%
%ADD13C,0.0014*%
%ADD90C,0.0062*%
%FSLAX44Y44*%
G04*
G70*
G90*
G75*
G01*
%LNTopDimension*%
%LPD*%
X3940Y18065D2*
D13*
Y27637D1*
X25940Y18065D2*
Y27637D1*
X14940Y27440D2*
X4334D1*
G36*
X3940D2*
X4334Y27519D1*
Y27361D1*
X3940Y27440D1*
G37*
X14940D2*
D13*
X25546D1*
G36*
X25940D2*
X25546Y27361D1*
Y27519D1*
X25940Y27440D1*
G37*
X3940Y18065D2*
D13*
X-13257D1*
X3940Y3940D2*
X-13257D1*
X-13060Y11003D2*
Y17671D1*
G36*
Y18065D2*
X-12981Y17671D1*
X-13139D1*
X-13060Y18065D1*
G37*
Y11003D2*
D13*
Y4334D1*
G36*
Y3940D2*
X-13139Y4334D1*
X-12981D1*
X-13060Y3940D1*
G37*
X3940Y18065D2*
D13*
X-3757D1*
X3940Y9940D2*
X-3757D1*
X-3560Y14003D2*
Y17671D1*
G36*
Y18065D2*
X-3481Y17671D1*
X-3639D1*
X-3560Y18065D1*
G37*
Y14003D2*
D13*
Y10334D1*
G36*
Y9940D2*
X-3639Y10334D1*
X-3481D1*
X-3560Y9940D1*
G37*
X3940Y18065D2*
D13*
Y23137D1*
X2759Y15334D2*
Y23137D1*
Y22940D2*
X3940D1*
X2168D2*
X2365D1*
G36*
X2759D2*
X2365Y22861D1*
Y23019D1*
X2759Y22940D1*
G37*
X4531D2*
D13*
X4334D1*
G36*
X3940D2*
X4334Y23019D1*
Y22861D1*
X3940Y22940D1*
G37*
Y18065D2*
D13*
Y25137D1*
X2761Y9417D2*
Y25137D1*
Y24940D2*
X3940D1*
X2170D2*
X2367D1*
G36*
X2761D2*
X2367Y24861D1*
Y25019D1*
X2761Y24940D1*
G37*
X4531D2*
D13*
X4334D1*
G36*
X3940D2*
X4334Y25019D1*
Y24861D1*
X3940Y24940D1*
G37*
Y18065D2*
D13*
Y26637D1*
X14940Y19940D2*
Y26637D1*
X9440Y26440D2*
X4334D1*
G36*
X3940D2*
X4334Y26519D1*
Y26361D1*
X3940Y26440D1*
G37*
X9440D2*
D13*
X14546D1*
G36*
X14940D2*
X14546Y26361D1*
Y26519D1*
X14940Y26440D1*
G37*
Y19940D2*
D13*
Y31637D1*
X14440Y11440D2*
Y31637D1*
Y31440D2*
X14940D1*
X13850D2*
X14046D1*
G36*
X14440D2*
X14046Y31361D1*
Y31519D1*
X14440Y31440D1*
G37*
X15531D2*
D13*
X15334D1*
G36*
X14940D2*
X15334Y31519D1*
Y31361D1*
X14940Y31440D1*
G37*
X16375D2*
D13*
X14940D1*
Y19940D2*
Y37137D1*
X15440Y11440D2*
Y37137D1*
X14940Y36940D2*
X15440D1*
X14350D2*
X14546D1*
G36*
X14940D2*
X14546Y36861D1*
Y37019D1*
X14940Y36940D1*
G37*
X16031D2*
D13*
X15834D1*
G36*
X15440D2*
X15834Y37019D1*
Y36861D1*
X15440Y36940D1*
G37*
X16875D2*
D13*
X15440D1*
X2759Y15334D2*
X-7757D1*
X2761Y9417D2*
X-7757D1*
X-7560Y12375D2*
Y14940D1*
G36*
Y15334D2*
X-7481Y14940D1*
X-7639D1*
X-7560Y15334D1*
G37*
Y12375D2*
D13*
Y9810D1*
G36*
Y9417D2*
X-7639Y9810D1*
X-7481D1*
X-7560Y9417D1*
G37*
X2759Y10530D2*
D13*
X-9757D1*
X2761Y9417D2*
X-9757D1*
X-9560Y9973D2*
Y10137D1*
G36*
Y10530D2*
X-9481Y10137D1*
X-9639D1*
X-9560Y10530D1*
G37*
Y9973D2*
D13*
Y9810D1*
G36*
Y9417D2*
X-9639Y9810D1*
X-9481D1*
X-9560Y9417D1*
G37*
Y12137D2*
D13*
Y10530D1*
X14399Y27964D2*
D90*
X14208D1*
X14189Y27792D1*
X14208Y27811D1*
X14265Y27830D1*
X14322D1*
X14380Y27811D1*
X14418Y27773D1*
X14437Y27715D1*
Y27677D1*
X14418Y27620D1*
X14380Y27581D1*
X14322Y27562D1*
X14265D1*
X14208Y27581D1*
X14189Y27601D1*
X14169Y27639D1*
X14790Y27964D2*
X14599D1*
X14580Y27792D1*
X14599Y27811D1*
X14657Y27830D1*
X14714D1*
X14771Y27811D1*
X14810Y27773D1*
X14829Y27715D1*
Y27677D1*
X14810Y27620D1*
X14771Y27581D1*
X14714Y27562D1*
X14657D1*
X14599Y27581D1*
X14580Y27601D1*
X14561Y27639D1*
X14971Y27601D2*
X14952Y27581D1*
X14971Y27562D1*
X14991Y27581D1*
X14971Y27601D1*
X15210Y27964D2*
X15153Y27945D1*
X15133Y27907D1*
Y27868D1*
X15153Y27830D1*
X15191Y27811D1*
X15267Y27792D1*
X15325Y27773D1*
X15363Y27734D1*
X15382Y27696D1*
Y27639D1*
X15363Y27601D1*
X15344Y27581D1*
X15286Y27562D1*
X15210D1*
X15153Y27581D1*
X15133Y27601D1*
X15114Y27639D1*
Y27696D1*
X15133Y27734D1*
X15172Y27773D1*
X15229Y27792D1*
X15305Y27811D1*
X15344Y27830D1*
X15363Y27868D1*
Y27907D1*
X15344Y27945D1*
X15286Y27964D1*
X15210D1*
X15601D2*
X15544Y27945D1*
X15524Y27907D1*
Y27868D1*
X15544Y27830D1*
X15582Y27811D1*
X15658Y27792D1*
X15716Y27773D1*
X15754Y27734D1*
X15773Y27696D1*
Y27639D1*
X15754Y27601D1*
X15735Y27581D1*
X15677Y27562D1*
X15601D1*
X15544Y27581D1*
X15524Y27601D1*
X15505Y27639D1*
Y27696D1*
X15524Y27734D1*
X15563Y27773D1*
X15620Y27792D1*
X15696Y27811D1*
X15735Y27830D1*
X15754Y27868D1*
Y27907D1*
X15735Y27945D1*
X15677Y27964D1*
X15601D1*
X-13583Y10270D2*
Y10480D1*
X-13430Y10366D1*
Y10423D1*
X-13411Y10461D1*
X-13392Y10480D1*
X-13335Y10500D1*
X-13297D1*
X-13239Y10480D1*
X-13201Y10442D1*
X-13182Y10385D1*
Y10327D1*
X-13201Y10270D1*
X-13220Y10251D1*
X-13258Y10232D1*
X-13583Y10853D2*
Y10662D1*
X-13411Y10643D1*
X-13430Y10662D1*
X-13450Y10719D1*
Y10776D1*
X-13430Y10834D1*
X-13392Y10872D1*
X-13335Y10891D1*
X-13297D1*
X-13239Y10872D1*
X-13201Y10834D1*
X-13182Y10776D1*
Y10719D1*
X-13201Y10662D1*
X-13220Y10643D1*
X-13258Y10623D1*
X-13220Y11034D2*
X-13201Y11015D1*
X-13182Y11034D1*
X-13201Y11053D1*
X-13220Y11034D1*
X-13583Y11272D2*
X-13564Y11215D1*
X-13526Y11196D1*
X-13488D1*
X-13450Y11215D1*
X-13430Y11253D1*
X-13411Y11330D1*
X-13392Y11387D1*
X-13354Y11425D1*
X-13316Y11444D1*
X-13258D1*
X-13220Y11425D1*
X-13201Y11406D1*
X-13182Y11349D1*
Y11272D1*
X-13201Y11215D1*
X-13220Y11196D1*
X-13258Y11177D1*
X-13316D1*
X-13354Y11196D1*
X-13392Y11234D1*
X-13411Y11291D1*
X-13430Y11368D1*
X-13450Y11406D1*
X-13488Y11425D1*
X-13526D1*
X-13564Y11406D1*
X-13583Y11349D1*
Y11272D1*
Y11663D2*
X-13564Y11606D1*
X-13526Y11587D1*
X-13488D1*
X-13450Y11606D1*
X-13430Y11644D1*
X-13411Y11721D1*
X-13392Y11778D1*
X-13354Y11816D1*
X-13316Y11835D1*
X-13258D1*
X-13220Y11816D1*
X-13201Y11797D1*
X-13182Y11740D1*
Y11663D1*
X-13201Y11606D1*
X-13220Y11587D1*
X-13258Y11568D1*
X-13316D1*
X-13354Y11587D1*
X-13392Y11625D1*
X-13411Y11682D1*
X-13430Y11759D1*
X-13450Y11797D1*
X-13488Y11816D1*
X-13526D1*
X-13564Y11797D1*
X-13583Y11740D1*
Y11663D1*
X-3988Y13251D2*
X-4007D1*
X-4045Y13270D1*
X-4064Y13289D1*
X-4083Y13328D1*
Y13404D1*
X-4064Y13442D1*
X-4045Y13461D1*
X-4007Y13481D1*
X-3969D1*
X-3930Y13461D1*
X-3873Y13423D1*
X-3682Y13232D1*
Y13500D1*
X-4083Y13738D2*
X-4064Y13681D1*
X-4007Y13642D1*
X-3911Y13623D1*
X-3854D1*
X-3758Y13642D1*
X-3701Y13681D1*
X-3682Y13738D1*
Y13776D1*
X-3701Y13834D1*
X-3758Y13872D1*
X-3854Y13891D1*
X-3911D1*
X-4007Y13872D1*
X-4064Y13834D1*
X-4083Y13776D1*
Y13738D1*
X-4007Y13872D2*
X-3758Y13642D1*
X-3720Y14034D2*
X-3701Y14015D1*
X-3682Y14034D1*
X-3701Y14053D1*
X-3720Y14034D1*
X-4026Y14406D2*
X-4064Y14387D1*
X-4083Y14329D1*
Y14291D1*
X-4064Y14234D1*
X-4007Y14196D1*
X-3911Y14177D1*
X-3816D1*
X-3739Y14196D1*
X-3701Y14234D1*
X-3682Y14291D1*
Y14310D1*
X-3701Y14368D1*
X-3739Y14406D1*
X-3797Y14425D1*
X-3816D1*
X-3873Y14406D1*
X-3911Y14368D1*
X-3930Y14310D1*
Y14291D1*
X-3911Y14234D1*
X-3873Y14196D1*
X-3816Y14177D1*
X-3682Y14740D2*
X-4083D1*
X-3816Y14549D1*
Y14835D1*
X3285Y23464D2*
X3495D1*
X3380Y23311D1*
X3438D1*
X3476Y23292D1*
X3495Y23273D1*
X3514Y23215D1*
Y23177D1*
X3495Y23120D1*
X3457Y23081D1*
X3399Y23062D1*
X3342D1*
X3285Y23081D1*
X3266Y23101D1*
X3246Y23139D1*
X3286Y25464D2*
X3496D1*
X3381Y25311D1*
X3439D1*
X3477Y25292D1*
X3496Y25273D1*
X3515Y25215D1*
Y25177D1*
X3496Y25120D1*
X3458Y25081D1*
X3400Y25062D1*
X3343D1*
X3286Y25081D1*
X3267Y25101D1*
X3247Y25139D1*
X8688Y26868D2*
Y26887D1*
X8707Y26926D1*
X8726Y26945D1*
X8765Y26964D1*
X8841D1*
X8879Y26945D1*
X8898Y26926D1*
X8918Y26887D1*
Y26849D1*
X8898Y26811D1*
X8860Y26754D1*
X8669Y26562D1*
X8937D1*
X9137D2*
X9328Y26964D1*
X9060D1*
X9471Y26601D2*
X9452Y26581D1*
X9471Y26562D1*
X9490Y26581D1*
X9471Y26601D1*
X9863Y26830D2*
X9843Y26773D1*
X9805Y26734D1*
X9748Y26715D1*
X9729D1*
X9671Y26734D1*
X9633Y26773D1*
X9614Y26830D1*
Y26849D1*
X9633Y26907D1*
X9671Y26945D1*
X9729Y26964D1*
X9748D1*
X9805Y26945D1*
X9843Y26907D1*
X9863Y26830D1*
Y26734D1*
X9843Y26639D1*
X9805Y26581D1*
X9748Y26562D1*
X9710D1*
X9652Y26581D1*
X9633Y26620D1*
X10178Y26562D2*
Y26964D1*
X9986Y26696D1*
X10273D1*
X15426Y31887D2*
X15465Y31907D1*
X15522Y31964D1*
Y31562D1*
X15665Y31601D2*
X15646Y31581D1*
X15665Y31562D1*
X15684Y31581D1*
X15665Y31601D1*
X15827Y31868D2*
Y31887D1*
X15846Y31926D1*
X15865Y31945D1*
X15904Y31964D1*
X15980D1*
X16018Y31945D1*
X16037Y31926D1*
X16057Y31887D1*
Y31849D1*
X16037Y31811D1*
X15999Y31754D1*
X15808Y31562D1*
X16076D1*
X16276D2*
X16467Y31964D1*
X16199D1*
X15926Y37387D2*
X15965Y37407D1*
X16022Y37464D1*
Y37062D1*
X16165Y37101D2*
X16146Y37081D1*
X16165Y37062D1*
X16184Y37081D1*
X16165Y37101D1*
X16327Y37368D2*
Y37387D1*
X16346Y37426D1*
X16365Y37445D1*
X16404Y37464D1*
X16480D1*
X16518Y37445D1*
X16537Y37426D1*
X16557Y37387D1*
Y37349D1*
X16537Y37311D1*
X16499Y37254D1*
X16308Y37062D1*
X16576D1*
X16776D2*
X16967Y37464D1*
X16699D1*
X-8007Y11690D2*
X-8026Y11729D1*
X-8083Y11786D1*
X-7682D1*
X-8083Y12139D2*
Y11948D1*
X-7911Y11929D1*
X-7930Y11948D1*
X-7950Y12005D1*
Y12063D1*
X-7930Y12120D1*
X-7892Y12158D1*
X-7835Y12177D1*
X-7797D1*
X-7739Y12158D1*
X-7701Y12120D1*
X-7682Y12063D1*
Y12005D1*
X-7701Y11948D1*
X-7720Y11929D1*
X-7758Y11910D1*
X-7720Y12320D2*
X-7701Y12301D1*
X-7682Y12320D1*
X-7701Y12339D1*
X-7720Y12320D1*
X-8083Y12578D2*
X-8064Y12520D1*
X-8007Y12482D1*
X-7911Y12463D1*
X-7854D1*
X-7758Y12482D1*
X-7701Y12520D1*
X-7682Y12578D1*
Y12616D1*
X-7701Y12673D1*
X-7758Y12711D1*
X-7854Y12731D1*
X-7911D1*
X-8007Y12711D1*
X-8064Y12673D1*
X-8083Y12616D1*
Y12578D1*
X-8007Y12711D2*
X-7758Y12482D1*
X-8083Y12893D2*
Y13103D1*
X-7930Y12988D1*
Y13046D1*
X-7911Y13084D1*
X-7892Y13103D1*
X-7835Y13122D1*
X-7797D1*
X-7739Y13103D1*
X-7701Y13065D1*
X-7682Y13007D1*
Y12950D1*
X-7701Y12893D1*
X-7720Y12874D1*
X-7758Y12854D1*
X-9988Y11036D2*
X-10007D1*
X-10045Y11055D1*
X-10064Y11074D1*
X-10083Y11113D1*
Y11189D1*
X-10064Y11227D1*
X-10045Y11246D1*
X-10007Y11266D1*
X-9969D1*
X-9930Y11246D1*
X-9873Y11208D1*
X-9682Y11017D1*
Y11285D1*
X-9720Y11427D2*
X-9701Y11408D1*
X-9682Y11427D1*
X-9701Y11447D1*
X-9720Y11427D1*
X-10083Y11666D2*
X-10064Y11609D1*
X-10026Y11589D1*
X-9988D1*
X-9950Y11609D1*
X-9930Y11647D1*
X-9911Y11723D1*
X-9892Y11781D1*
X-9854Y11819D1*
X-9816Y11838D1*
X-9758D1*
X-9720Y11819D1*
X-9701Y11800D1*
X-9682Y11742D1*
Y11666D1*
X-9701Y11609D1*
X-9720Y11589D1*
X-9758Y11570D1*
X-9816D1*
X-9854Y11589D1*
X-9892Y11628D1*
X-9911Y11685D1*
X-9930Y11761D1*
X-9950Y11800D1*
X-9988Y11819D1*
X-10026D1*
X-10064Y11800D1*
X-10083Y11742D1*
Y11666D1*
Y12000D2*
Y12210D1*
X-9930Y12095D1*
Y12153D1*
X-9911Y12191D1*
X-9892Y12210D1*
X-9835Y12229D1*
X-9797D1*
X-9739Y12210D1*
X-9701Y12172D1*
X-9682Y12114D1*
Y12057D1*
X-9701Y12000D1*
X-9720Y11981D1*
X-9758Y11961D1*
M02*
