G04 DipTrace 2.4.0.2*
%INTopMask.gbr*%
%MOIN*%
%ADD40C,0.128*%
%ADD49C,0.056*%
%ADD51C,0.138*%
%ADD53C,0.071*%
%ADD55R,0.071X0.071*%
%ADD57R,0.0671X0.0435*%
%ADD59R,0.075X0.0277*%
%ADD61R,0.0277X0.075*%
%ADD63C,0.0868*%
%ADD67C,0.0769*%
%ADD69R,0.0769X0.0769*%
%ADD73R,0.1104X0.071*%
%ADD75R,0.0789X0.071*%
%ADD77R,0.071X0.0789*%
%ADD79C,0.075*%
%ADD81R,0.075X0.075*%
%FSLAX44Y44*%
G04*
G70*
G90*
G75*
G01*
%LNTopMask*%
%LPD*%
D81*
X24940Y4940D3*
D79*
X23940D3*
X22940D3*
X21940D3*
D77*
X20440Y13190D3*
X21543D3*
X20440Y15065D3*
X21543D3*
X15190Y17190D3*
X16293D3*
D73*
X11440Y10940D3*
X10023D3*
D77*
X11690Y16190D3*
X12793D3*
X10815Y13815D3*
X11918D3*
X17440Y11190D3*
X18543D3*
D73*
X21856Y16524D3*
X23274D3*
X17065Y5065D3*
X15648D3*
D75*
X24190Y14065D3*
Y15168D3*
D69*
X8440Y16065D3*
D67*
X9440D3*
X10440D3*
Y17065D3*
X9440D3*
X8440D3*
D81*
X13940Y8940D3*
D79*
Y9940D3*
Y10940D3*
D81*
X15940Y8940D3*
D79*
Y9940D3*
Y10940D3*
D81*
X19440Y4940D3*
D79*
X18440D3*
D81*
X12065Y4815D3*
D79*
X13065D3*
X14065D3*
D77*
X10815Y12565D3*
X11918D3*
D75*
X25190Y11940D3*
Y13043D3*
Y14065D3*
Y15168D3*
D77*
X11940Y14815D3*
X10838D3*
D63*
X9460Y7940D3*
X10460Y7440D3*
X9460Y6940D3*
X10460Y6440D3*
D40*
X6960Y5690D3*
Y8690D3*
D61*
X14690Y12690D3*
X15005D3*
X15320D3*
X15635D3*
X15950D3*
X16265D3*
X16580D3*
X16895D3*
D59*
X17446Y13241D3*
Y13556D3*
Y13871D3*
Y14186D3*
Y14501D3*
Y14816D3*
Y15131D3*
Y15446D3*
D61*
X16895Y15997D3*
X16580D3*
X16265D3*
X15950D3*
X15635D3*
X15320D3*
X15005D3*
X14690D3*
D59*
X14139Y15446D3*
Y15131D3*
Y14816D3*
Y14501D3*
Y14186D3*
Y13871D3*
Y13556D3*
Y13241D3*
D57*
X17940Y9440D3*
Y8141D3*
X19869D3*
Y9440D3*
D55*
X8669Y12440D3*
D53*
Y13424D3*
X7881D3*
Y12440D3*
D51*
X6814Y15302D3*
Y10562D3*
D49*
X19065Y13190D3*
Y15090D3*
M02*
