G04 DipTrace 2.4.0.2*
%INTopPaste.gbr*%
%MOIN*%
%ADD58R,0.051X0.0274*%
%ADD60R,0.0589X0.0117*%
%ADD62R,0.0117X0.0589*%
%ADD74R,0.0943X0.055*%
%ADD76R,0.0628X0.055*%
%ADD78R,0.055X0.0628*%
%FSLAX44Y44*%
G04*
G70*
G90*
G75*
G01*
%LNTopPaste*%
%LPD*%
D78*
X20440Y13190D3*
X21543D3*
X20440Y15065D3*
X21543D3*
X15190Y17190D3*
X16293D3*
D74*
X11440Y10940D3*
X10023D3*
D78*
X11690Y16190D3*
X12793D3*
X10815Y13815D3*
X11918D3*
X17440Y11190D3*
X18543D3*
D74*
X21856Y16524D3*
X23274D3*
X17065Y5065D3*
X15648D3*
D76*
X24190Y14065D3*
Y15168D3*
D78*
X10815Y12565D3*
X11918D3*
D76*
X25190Y11940D3*
Y13043D3*
Y14065D3*
Y15168D3*
D78*
X11940Y14815D3*
X10838D3*
D62*
X14690Y12690D3*
X15005D3*
X15320D3*
X15635D3*
X15950D3*
X16265D3*
X16580D3*
X16895D3*
D60*
X17446Y13241D3*
Y13556D3*
Y13871D3*
Y14186D3*
Y14501D3*
Y14816D3*
Y15131D3*
Y15446D3*
D62*
X16895Y15997D3*
X16580D3*
X16265D3*
X15950D3*
X15635D3*
X15320D3*
X15005D3*
X14690D3*
D60*
X14139Y15446D3*
Y15131D3*
Y14816D3*
Y14501D3*
Y14186D3*
Y13871D3*
Y13556D3*
Y13241D3*
D58*
X17940Y9440D3*
Y8141D3*
X19869D3*
Y9440D3*
M02*
