G04 DipTrace 2.4.0.2*
%INTopSilk.gbr*%
%MOIN*%
%ADD10C,0.0098*%
%ADD30O,0.0164X0.0165*%
%ADD87C,0.0077*%
%FSLAX44Y44*%
G04*
G70*
G90*
G75*
G01*
%LNTopSilk*%
%LPD*%
X25440Y4440D2*
D10*
X21440D1*
Y5440D1*
X25440D1*
Y4440D1*
X20948Y12876D2*
Y13505D1*
X20874Y12876D2*
Y13505D1*
Y12876D2*
X21109D1*
X20874Y13505D2*
X21109D1*
X20948Y14751D2*
Y15380D1*
X20874Y14751D2*
Y15380D1*
Y14751D2*
X21109D1*
X20874Y15380D2*
X21109D1*
X15698Y16876D2*
Y17505D1*
X15624Y16876D2*
Y17505D1*
Y16876D2*
X15859D1*
X15624Y17505D2*
X15859D1*
X9919Y10128D2*
Y11753D1*
X11231D1*
X11544Y11440D1*
X11545Y10440D1*
X11231Y10128D1*
X9919D1*
X11134Y11628D2*
Y11315D1*
X10975Y11440D2*
X11343D1*
X12198Y15876D2*
Y16505D1*
X12124Y15876D2*
Y16505D1*
Y15876D2*
X12359D1*
X12124Y16505D2*
X12359D1*
X11323Y13501D2*
Y14130D1*
X11249Y13501D2*
Y14130D1*
Y13501D2*
X11484D1*
X11249Y14130D2*
X11484D1*
X17948Y10876D2*
Y11505D1*
X17874Y10876D2*
Y11505D1*
Y10876D2*
X18109D1*
X17874Y11505D2*
X18109D1*
X23378Y17336D2*
Y15711D1*
X22065D1*
X21753Y16024D1*
X21752Y17024D1*
X22065Y17336D1*
X23378D1*
X22163Y15836D2*
Y16149D1*
X22322Y16024D2*
X21953D1*
X15544Y4253D2*
Y5878D1*
X16856D1*
X17169Y5565D1*
X17170Y4565D1*
X16856Y4253D1*
X15544D1*
X16759Y5753D2*
Y5440D1*
X16600Y5565D2*
X16968D1*
X23876Y14499D2*
Y14734D1*
X24505Y14499D2*
Y14734D1*
Y14573D2*
X23876D1*
X24505Y14498D2*
X23876D1*
X7924Y17581D2*
X10956D1*
Y15549D1*
X7924D1*
Y17581D1*
X13440Y8440D2*
X14440D1*
Y11440D1*
X13440D1*
Y8440D1*
X15440D2*
X16440D1*
Y11440D1*
X15440D1*
Y8440D1*
X19940Y4440D2*
X17940D1*
Y5440D1*
X19940D1*
Y4440D1*
X11565Y5315D2*
X14565D1*
Y4315D1*
X11565D1*
Y5315D1*
X11249Y12251D2*
X11484D1*
X11249Y12880D2*
X11484D1*
X25505Y12374D2*
Y12609D1*
X24876Y12374D2*
Y12609D1*
X25505Y14499D2*
Y14734D1*
X24876Y14499D2*
Y14734D1*
X11507Y15130D2*
X11271D1*
X11507Y14501D2*
X11271D1*
X11015Y9417D2*
X2761D1*
Y4964D1*
X11015D1*
Y9417D1*
X14670Y13202D2*
X16954D1*
Y15485D1*
X14670D1*
Y13202D1*
D30*
X14359Y12686D3*
G36*
X14670Y13202D2*
X14985D1*
X14670Y13517D1*
Y13202D1*
G37*
X17905Y9791D2*
D10*
X19905D1*
Y7791D1*
X17905D1*
Y9791D1*
X19905Y8228D2*
X19405Y7791D1*
X19530D2*
X19842Y8103D1*
X19655Y7791D2*
X19905Y8041D1*
X19780Y7853D2*
X19842Y7916D1*
Y7853D2*
X19780Y7916D1*
X2759Y15334D2*
Y10530D1*
Y15334D2*
X5948D1*
X5987Y10530D2*
X2759D1*
X7680Y15334D2*
X8980D1*
Y13838D1*
Y11948D2*
Y10530D1*
X7641D1*
X19915Y12940D2*
Y15340D1*
X18215Y12940D2*
Y15340D1*
X19715Y12940D2*
Y15340D1*
X18415D2*
Y12940D1*
X18765Y14040D2*
Y14240D1*
X19365D1*
Y14040D1*
X18765D1*
Y14390D2*
X19065D1*
X19365D1*
X18765Y13890D2*
X19065D1*
X19365D1*
X19065Y14390D2*
Y14640D1*
Y13890D2*
Y13640D1*
X18215Y12940D2*
G03X19915Y12940I850J0D01*
G01*
Y15340D2*
G03X18215Y15340I-850J0D01*
G01*
X18415Y12940D2*
G03X19715Y12940I650J0D01*
G01*
Y15340D2*
G03X18415Y15340I-650J0D01*
G01*
X22868Y5670D2*
D87*
X22677Y6172D1*
X22485Y5670D1*
X22557Y5837D2*
X22796D1*
X23023Y6005D2*
Y5766D1*
X23046Y5694D1*
X23095Y5670D1*
X23166D1*
X23214Y5694D1*
X23286Y5766D1*
Y6005D2*
Y5670D1*
X23727Y6172D2*
Y5670D1*
Y5933D2*
X23679Y5981D1*
X23631Y6005D1*
X23560D1*
X23512Y5981D1*
X23464Y5933D1*
X23440Y5861D1*
Y5814D1*
X23464Y5742D1*
X23512Y5694D1*
X23560Y5670D1*
X23631D1*
X23679Y5694D1*
X23727Y5742D1*
X23881Y6172D2*
X23905Y6149D1*
X23929Y6172D1*
X23905Y6197D1*
X23881Y6172D1*
X23905Y6005D2*
Y5670D1*
X24203Y6005D2*
X24156Y5981D1*
X24108Y5933D1*
X24084Y5861D1*
Y5814D1*
X24108Y5742D1*
X24156Y5694D1*
X24203Y5670D1*
X24275D1*
X24323Y5694D1*
X24371Y5742D1*
X24395Y5814D1*
Y5861D1*
X24371Y5933D1*
X24323Y5981D1*
X24275Y6005D1*
X24203D1*
X23104Y13996D2*
X23606D1*
Y14283D1*
X23104Y14748D2*
Y14437D1*
X23606D1*
Y14748D1*
X23343Y14437D2*
Y14628D1*
X23104Y14902D2*
X23606D1*
Y15069D1*
X23582Y15141D1*
X23534Y15189D1*
X23486Y15213D1*
X23415Y15237D1*
X23295D1*
X23223Y15213D1*
X23175Y15189D1*
X23127Y15141D1*
X23104Y15069D1*
Y14902D1*
X18212Y5909D2*
X18427D1*
X18498Y5933D1*
X18523Y5957D1*
X18546Y6005D1*
Y6077D1*
X18523Y6124D1*
X18498Y6149D1*
X18427Y6172D1*
X18212D1*
Y5670D1*
X18701Y6172D2*
X18821Y5670D1*
X18940Y6172D1*
X19060Y5670D1*
X19179Y6172D1*
X19334Y5933D2*
X19549D1*
X19621Y5957D1*
X19645Y5981D1*
X19669Y6029D1*
Y6077D1*
X19645Y6124D1*
X19621Y6149D1*
X19549Y6172D1*
X19334D1*
Y5670D1*
X19501Y5933D2*
X19669Y5670D1*
X11639Y6284D2*
X11854D1*
X11926Y6308D1*
X11950Y6332D1*
X11974Y6380D1*
Y6452D1*
X11950Y6499D1*
X11926Y6524D1*
X11854Y6547D1*
X11639D1*
Y6045D1*
X12128Y6547D2*
X12248Y6045D1*
X12367Y6547D1*
X12487Y6045D1*
X12607Y6547D1*
X12761Y6308D2*
X12976D1*
X13048Y6332D1*
X13072Y6356D1*
X13096Y6404D1*
Y6452D1*
X13072Y6499D1*
X13048Y6524D1*
X12976Y6547D1*
X12761D1*
Y6045D1*
X12929Y6308D2*
X13096Y6045D1*
X13585Y6476D2*
X13538Y6524D1*
X13466Y6547D1*
X13370D1*
X13298Y6524D1*
X13250Y6476D1*
Y6428D1*
X13275Y6380D1*
X13298Y6356D1*
X13346Y6332D1*
X13490Y6284D1*
X13538Y6261D1*
X13562Y6236D1*
X13585Y6189D1*
Y6117D1*
X13538Y6069D1*
X13466Y6045D1*
X13370D1*
X13298Y6069D1*
X13250Y6117D1*
X14050Y6547D2*
X13740D1*
Y6045D1*
X14050D1*
X13740Y6308D2*
X13931D1*
X14205Y6547D2*
Y6045D1*
X14492D1*
X6141Y9909D2*
X6356D1*
X6428Y9934D1*
X6453Y9958D1*
X6476Y10005D1*
Y10053D1*
X6453Y10101D1*
X6428Y10125D1*
X6356Y10149D1*
X6141D1*
Y9646D1*
X6309Y9909D2*
X6476Y9646D1*
X6870Y10149D2*
Y9766D1*
X6846Y9694D1*
X6822Y9671D1*
X6774Y9646D1*
X6726D1*
X6679Y9671D1*
X6655Y9694D1*
X6631Y9766D1*
Y9814D1*
X7024Y10053D2*
X7073Y10077D1*
X7144Y10148D1*
Y9646D1*
X7443Y10148D2*
X7371Y10124D1*
X7323Y10053D1*
X7299Y9933D1*
Y9861D1*
X7323Y9742D1*
X7371Y9670D1*
X7443Y9646D1*
X7490D1*
X7562Y9670D1*
X7609Y9742D1*
X7634Y9861D1*
Y9933D1*
X7609Y10053D1*
X7562Y10124D1*
X7490Y10148D1*
X7443D1*
X7609Y10053D2*
X7323Y9742D1*
X17305Y10523D2*
X17425Y10020D1*
X17545Y10523D1*
X17664Y10020D1*
X17784Y10523D1*
X18273Y10451D2*
X18226Y10499D1*
X18154Y10523D1*
X18058D1*
X17986Y10499D1*
X17938Y10451D1*
Y10403D1*
X17963Y10355D1*
X17986Y10332D1*
X18034Y10308D1*
X18178Y10260D1*
X18226Y10236D1*
X18249Y10212D1*
X18273Y10164D1*
Y10092D1*
X18226Y10045D1*
X18154Y10020D1*
X18058D1*
X17986Y10045D1*
X17938Y10092D1*
X18452Y10403D2*
Y10427D1*
X18476Y10475D1*
X18499Y10498D1*
X18547Y10522D1*
X18643D1*
X18691Y10498D1*
X18714Y10475D1*
X18739Y10427D1*
Y10379D1*
X18714Y10331D1*
X18667Y10260D1*
X18428Y10020D1*
X18762D1*
X19036Y10522D2*
X18965Y10498D1*
X18941Y10451D1*
Y10403D1*
X18965Y10355D1*
X19013Y10331D1*
X19108Y10307D1*
X19180Y10283D1*
X19227Y10235D1*
X19251Y10188D1*
Y10116D1*
X19227Y10068D1*
X19204Y10044D1*
X19132Y10020D1*
X19036D1*
X18965Y10044D1*
X18941Y10068D1*
X18917Y10116D1*
Y10188D1*
X18941Y10235D1*
X18989Y10283D1*
X19060Y10307D1*
X19156Y10331D1*
X19204Y10355D1*
X19227Y10403D1*
Y10451D1*
X19204Y10498D1*
X19132Y10522D1*
X19036D1*
X19406Y10427D2*
X19454Y10451D1*
X19526Y10522D1*
Y10020D1*
X19704Y10403D2*
Y10427D1*
X19728Y10475D1*
X19752Y10498D1*
X19800Y10522D1*
X19896D1*
X19943Y10498D1*
X19967Y10475D1*
X19991Y10427D1*
Y10379D1*
X19967Y10331D1*
X19919Y10260D1*
X19680Y10020D1*
X20015D1*
X20169Y10523D2*
Y10020D1*
X20385D1*
X20457Y10045D1*
X20480Y10068D1*
X20504Y10116D1*
Y10188D1*
X20480Y10236D1*
X20457Y10260D1*
X20385Y10283D1*
X20457Y10308D1*
X20480Y10332D1*
X20504Y10379D1*
Y10427D1*
X20480Y10475D1*
X20457Y10499D1*
X20385Y10523D1*
X20169D1*
Y10283D2*
X20385D1*
X5184Y16684D2*
Y16325D1*
X5207Y16254D1*
X5255Y16206D1*
X5327Y16182D1*
X5375D1*
X5447Y16206D1*
X5495Y16254D1*
X5518Y16325D1*
Y16684D1*
X6008Y16612D2*
X5960Y16660D1*
X5888Y16684D1*
X5793D1*
X5721Y16660D1*
X5673Y16612D1*
Y16565D1*
X5697Y16517D1*
X5721Y16493D1*
X5768Y16469D1*
X5912Y16421D1*
X5960Y16397D1*
X5984Y16373D1*
X6008Y16325D1*
Y16254D1*
X5960Y16206D1*
X5888Y16182D1*
X5793D1*
X5721Y16206D1*
X5673Y16254D1*
X6162Y16684D2*
Y16182D1*
X6378D1*
X6450Y16206D1*
X6473Y16230D1*
X6497Y16277D1*
Y16349D1*
X6473Y16397D1*
X6450Y16421D1*
X6378Y16445D1*
X6450Y16469D1*
X6473Y16493D1*
X6497Y16540D1*
Y16589D1*
X6473Y16636D1*
X6450Y16660D1*
X6378Y16684D1*
X6162D1*
Y16445D2*
X6378D1*
M02*
