G04 DipTrace 2.4.0.2*
%INBottomPaste.gbr*%
%MOIN*%
%ADD65R,0.088X0.0365*%
%ADD67R,0.051X0.0274*%
%ADD77R,0.0156X0.0707*%
%ADD87R,0.0038X0.0471*%
%ADD93R,0.0628X0.055*%
%ADD95R,0.055X0.0628*%
%ADD97R,0.1337X0.0786*%
%ADD99R,0.04X0.08*%
%FSLAX44Y44*%
G04*
G70*
G90*
G75*
G01*
%LNBotPaste*%
%LPD*%
D99*
X25307Y16336D3*
X24401D3*
X23496D3*
D97*
X24402Y18773D3*
D95*
X17289Y24135D3*
X16186D3*
X6440Y23945D3*
X5338D3*
X6252Y17634D3*
X5150D3*
D93*
X5190Y19571D3*
Y18469D3*
D95*
X6440Y24820D3*
X5338D3*
D93*
X7503Y16508D3*
Y17610D3*
X8764Y21144D3*
Y22246D3*
D95*
X7639Y27371D3*
X8741D3*
X5065Y22634D3*
X6167D3*
D87*
X24553Y23571D3*
X24297D3*
X24042D3*
X23786D3*
X23530D3*
X23274D3*
X23018D3*
X22762D3*
X22506D3*
X22250D3*
X21994D3*
X21738D3*
X21482D3*
X21227D3*
Y26642D3*
X21482D3*
X21738D3*
X21994D3*
X22250D3*
X22506D3*
X22762D3*
X23018D3*
X23274D3*
X23530D3*
X23786D3*
X24042D3*
X24297D3*
X24553D3*
D77*
X5997Y21331D3*
X6500D3*
X7004D3*
X7508D3*
Y18772D3*
X7004D3*
X6500D3*
X5997D3*
X7309Y26018D3*
X7813D3*
X8317D3*
X8821D3*
Y23459D3*
X8317D3*
X7813D3*
X7309D3*
D93*
X6514Y25769D3*
Y26871D3*
X5190Y20446D3*
Y21548D3*
X16187Y14104D3*
Y13001D3*
X15337Y14104D3*
Y13001D3*
X14472Y14104D3*
Y13001D3*
X13656Y14104D3*
Y13001D3*
X12770Y14104D3*
Y13001D3*
D67*
X15902Y16170D3*
Y14870D3*
X13973D3*
Y16170D3*
D65*
X17923Y13418D3*
Y14418D3*
Y15418D3*
Y16418D3*
Y17418D3*
Y18418D3*
Y19418D3*
Y20418D3*
Y21418D3*
X21309D3*
Y20418D3*
Y19418D3*
Y18418D3*
Y17418D3*
Y16418D3*
Y15418D3*
Y14418D3*
Y13418D3*
M02*
