M48
INCH
T01C0.0191
T02C0.032
T03C0.035
T04C0.0362
T05C0.0433
T06C0.0449
T07C0.0453
T08C0.0551
T09C0.0906
T10C0.128
%
T01
X+014537Y+008735
X+013478Y+007508
X+009303Y+010743
X+010922Y+014425
X+011927Y+015809
X+012404Y+016286
X+012817Y+016595
X+012956Y+017074
X+014581Y+016286
X+013931Y+015417
X+015861Y+015467
X+016390Y+015811
X+017129Y+015231
X+017020Y+014081
X+018781Y+014078
X+019887Y+016371
X+020268Y+017617
X+020550Y+019082
X+020262Y+019700
X+019372Y+020418
X+019681Y+020897
X+019051Y+020897
X+018149Y+021981
X+019821Y+022151
X+021994Y+023017
X+022825Y+024790
X+023212Y+026003
X+024972Y+024790
X+024856Y+022338
X+023068Y+020727
X+022207Y+020356
X+023221Y+019411
X+022773Y+018773
X+025307Y+017280
X+023971Y+015007
X+023867Y+014086
X+022578Y+014104
X+022226Y+014669
X+022078Y+012722
X+018821Y+019021
X+013239Y+022116
X+011408Y+022101
X+011243Y+018852
X+008253Y+019275
X+005858Y+020520
X+006912Y+022338
X+008317Y+025161
X+014190Y+024201
X+016137Y+024834
T02
X+022759Y+021711
X+022759Y+019811
T03
X+012427Y+024350
X+011427Y+024350
X+011927Y+023350
X+010927Y+023350
T04
X+017339Y+025141
X+017339Y+025928
X+018323Y+025928
X+018323Y+025141
T05
X+013850Y+004536
X+012850Y+004536
X+023749Y+004542
X+024749Y+004542
X+025164Y+013104
X+025164Y+014104
X+025164Y+015104
T06
X+018262Y+022704
X+019262Y+022704
X+020262Y+022704
X+020262Y+023704
X+019262Y+023704
X+018262Y+023704
T07
X+014190Y+018320
X+015690Y+018322
X+015690Y+020212
X+014190Y+020210
X+014190Y+022100
X+015690Y+022102
T08
X+019209Y+005619
X+021709Y+005619
X+024209Y+005619
X+024209Y+012009
X+021709Y+012009
X+019209Y+012009
X+010673Y+012009
X+008173Y+012009
X+005673Y+012009
X+005673Y+005619
X+008173Y+005619
X+010673Y+005619
T09
X+020201Y+026995
X+015461Y+026995
T10
X+010177Y+026850
X+013177Y+026850
T00
M30
