G04 DipTrace 2.4.0.2*
%INTopMask.gbr*%
%MOIN*%
%ADD44C,0.128*%
%ADD54C,0.056*%
%ADD56C,0.138*%
%ADD58C,0.071*%
%ADD60R,0.071X0.071*%
%ADD62C,0.0828*%
%ADD66R,0.0671X0.0435*%
%ADD68R,0.0277X0.075*%
%ADD70R,0.075X0.0277*%
%ADD72C,0.0868*%
%ADD74C,0.1261*%
%ADD78C,0.0769*%
%ADD80R,0.0769X0.0769*%
%ADD82C,0.075*%
%ADD84R,0.075X0.075*%
%ADD88R,0.0789X0.0742*%
%ADD90R,0.1104X0.071*%
%ADD92R,0.0789X0.071*%
%ADD94R,0.071X0.0789*%
%FSLAX44Y44*%
G04*
G70*
G90*
G75*
G01*
%LNTopMask*%
%LPD*%
D94*
X24113Y21714D3*
X25216D3*
X24113Y19808D3*
X25216D3*
D92*
X16869Y19887D3*
Y20989D3*
D90*
X23688Y18371D3*
X25105D3*
D94*
X22231Y25081D3*
X21129D3*
X22097Y24018D3*
X23200D3*
D92*
X24076Y22953D3*
Y24055D3*
D94*
X16137Y24201D3*
X17240D3*
D90*
X23555Y25409D3*
X24972D3*
X23735Y16686D3*
X25153D3*
D88*
X23462Y13384D3*
X22013D3*
D92*
X21940Y29550D3*
Y28448D3*
D84*
X13850Y4536D3*
D82*
X12850D3*
D80*
X18262Y22704D3*
D78*
X19262D3*
X20262D3*
Y23704D3*
X19262D3*
X18262D3*
D74*
X14190Y18320D3*
Y20210D3*
Y22100D3*
X15690Y22102D3*
Y20212D3*
Y18322D3*
D84*
X23749Y4542D3*
D82*
X24749D3*
D84*
X25164Y13104D3*
D82*
Y14104D3*
Y15104D3*
D92*
X24932Y22925D3*
Y24027D3*
X22424Y16924D3*
Y15821D3*
X21067Y29550D3*
Y28448D3*
X19887Y15771D3*
Y14669D3*
X20724Y15771D3*
Y14669D3*
X21563Y15771D3*
Y14669D3*
X22228Y26268D3*
Y27370D3*
X19091Y15771D3*
Y14669D3*
D72*
X12427Y24350D3*
X11927Y23350D3*
X11427Y24350D3*
X10927Y23350D3*
D44*
X10177Y26850D3*
X13177D3*
D70*
X21282Y18781D3*
Y19096D3*
Y19411D3*
Y19726D3*
Y20041D3*
Y20356D3*
Y20671D3*
Y20986D3*
D68*
X20731Y21537D3*
X20416D3*
X20101D3*
X19786D3*
X19471D3*
X19156D3*
X18841D3*
X18526D3*
D70*
X17975Y20986D3*
Y20671D3*
Y20356D3*
Y20041D3*
Y19726D3*
Y19411D3*
Y19096D3*
Y18781D3*
D68*
X18526Y18230D3*
X18841D3*
X19156D3*
X19471D3*
X19786D3*
X20101D3*
X20416D3*
X20731D3*
D66*
X15860Y14987D3*
Y16286D3*
X13931D3*
Y14987D3*
D62*
X19209Y5619D3*
X21709D3*
X24209D3*
Y12009D3*
X21709D3*
X19209D3*
X10673D3*
X8173D3*
X5673D3*
Y5619D3*
X8173D3*
X10673D3*
D60*
X17339Y25141D3*
D58*
X18323D3*
Y25928D3*
X17339D3*
D56*
X20201Y26995D3*
X15461D3*
D54*
X22759Y21711D3*
Y19811D3*
M02*
