G04 DipTrace 2.4.0.2*
%INTopSilk.gbr*%
%MOIN*%
%ADD10C,0.0098*%
%ADD32O,0.0165X0.0164*%
%ADD100C,0.0077*%
%ADD102C,0.0046*%
%FSLAX44Y44*%
G04*
G70*
G90*
G75*
G01*
%LNTopSilk*%
%LPD*%
X24621Y21400D2*
D10*
Y22029D1*
X24547Y21400D2*
Y22029D1*
Y21400D2*
X24782D1*
X24547Y22029D2*
X24782D1*
X24621Y19493D2*
Y20123D1*
X24547Y19493D2*
Y20123D1*
Y19493D2*
X24782D1*
X24547Y20123D2*
X24782D1*
X17183Y20395D2*
X16554D1*
X17183Y20320D2*
X16554D1*
X17183D2*
Y20556D1*
X16554Y20320D2*
Y20556D1*
X25209Y19183D2*
Y17558D1*
X23897D1*
X23584Y17871D1*
X23583Y18871D1*
X23897Y19183D1*
X25209D1*
X23994Y17683D2*
Y17995D1*
X24153Y17871D2*
X23785D1*
X21723Y25395D2*
Y24766D1*
X21798Y25395D2*
Y24766D1*
Y25395D2*
X21562D1*
X21798Y24766D2*
X21562D1*
X22605Y23704D2*
Y24333D1*
X22531Y23704D2*
Y24333D1*
Y23704D2*
X22766D1*
X22531Y24333D2*
X22766D1*
X24391Y23461D2*
X23762D1*
X24391Y23386D2*
X23762D1*
X24391D2*
Y23622D1*
X23762Y23386D2*
Y23622D1*
X16645Y23886D2*
Y24516D1*
X16571Y23886D2*
Y24516D1*
Y23886D2*
X16806D1*
X16571Y24516D2*
X16806D1*
X25076Y26222D2*
Y24597D1*
X23764D1*
X23451Y24909D1*
X23450Y25909D1*
X23764Y26222D1*
X25076D1*
X23862Y24722D2*
Y25034D1*
X24020Y24909D2*
X23652D1*
X25257Y17499D2*
Y15874D1*
X23944D1*
X23631Y16186D1*
Y17186D1*
X23944Y17499D1*
X25257D1*
X24042Y15999D2*
Y16311D1*
X24201Y16186D2*
X23832D1*
X23612Y12759D2*
X21800D1*
Y14009D1*
X23612D1*
Y12759D1*
X22987Y12821D2*
Y14009D1*
X22862Y12759D2*
Y13946D1*
X22925Y12821D2*
Y13946D1*
X22254Y29117D2*
Y28881D1*
X21625Y29117D2*
Y28881D1*
Y29043D2*
X22254D1*
X21625Y29117D2*
X22254D1*
X14350Y4035D2*
X12350D1*
Y5036D1*
X14350D1*
Y4035D1*
X17746Y24220D2*
X20777D1*
Y22188D1*
X17746D1*
Y24220D1*
X23249Y5042D2*
X25249D1*
Y4042D1*
X23249D1*
Y5042D1*
X25247Y23358D2*
Y23594D1*
X24617Y23358D2*
Y23594D1*
X22109Y16490D2*
Y16255D1*
X22738Y16490D2*
Y16255D1*
X20753Y29117D2*
Y28881D1*
X21382Y29117D2*
Y28881D1*
X19573Y15337D2*
Y15102D1*
X20202Y15337D2*
Y15102D1*
X20410Y15337D2*
Y15102D1*
X21039Y15337D2*
Y15102D1*
X21248Y15337D2*
Y15102D1*
X21878Y15337D2*
Y15102D1*
X22542Y26701D2*
Y26937D1*
X21913Y26701D2*
Y26937D1*
X18777Y15337D2*
Y15102D1*
X19406Y15337D2*
Y15102D1*
X13904Y22795D2*
X9451D1*
Y31049D1*
X13904D1*
Y22795D1*
X20770Y18762D2*
X18487D1*
Y21045D1*
X20770D1*
Y18762D1*
D32*
X21286Y18450D3*
G36*
X20770Y18762D2*
Y19076D1*
X20455Y18762D1*
X20770D1*
G37*
X15896Y14637D2*
D10*
X13896D1*
Y16637D1*
X15896D1*
Y14637D1*
X13896Y16199D2*
X14396Y16637D1*
X14271D2*
X13958Y16324D1*
X14145Y16637D2*
X13896Y16387D1*
X14020Y16574D2*
X13958Y16512D1*
Y16574D2*
X14020Y16512D1*
X16197Y12397D2*
X25784D1*
Y5231D1*
X16197D1*
Y12397D1*
X25784Y13539D2*
X26433D1*
Y4090D1*
X25784D1*
Y13539D1*
X26433Y10389D2*
X29583D1*
Y7239D1*
X26433D1*
Y10389D1*
X13685Y5231D2*
X4098D1*
Y12397D1*
X13685D1*
Y5231D1*
X4098Y4090D2*
X3449D1*
Y13539D1*
X4098D1*
Y4090D1*
X3449Y7239D2*
X299D1*
Y10389D1*
X3449D1*
Y7239D1*
X20233Y31051D2*
X15429D1*
X20233D2*
Y27862D1*
X15429Y27822D2*
Y31051D1*
X20233Y26129D2*
Y24830D1*
X18736D1*
X16846D2*
X15429D1*
Y26169D1*
X21909Y21961D2*
Y19561D1*
X23609Y21961D2*
Y19561D1*
X22109Y21961D2*
Y19561D1*
X23410D2*
Y21961D1*
X23060Y20861D2*
Y20661D1*
X22459D1*
Y20861D1*
X23060D1*
Y20511D2*
X22759D1*
X22459D1*
X23060Y21011D2*
X22759D1*
X22459D1*
X22759Y20511D2*
Y20261D1*
Y21011D2*
Y21261D1*
X23609Y21961D2*
G03X21909Y21961I-850J0D01*
G01*
Y19561D2*
G03X23609Y19561I850J0D01*
G01*
X23410Y21961D2*
G03X22109Y21961I-650J0D01*
G01*
Y19561D2*
G03X23410Y19561I650J0D01*
G01*
X22478Y28379D2*
D100*
X22981D1*
Y28665D1*
X22478Y29130D2*
Y28820D1*
X22981D1*
Y29130D1*
X22718Y28820D2*
Y29011D1*
X22478Y29285D2*
X22981D1*
Y29452D1*
X22956Y29524D1*
X22909Y29572D1*
X22861Y29596D1*
X22789Y29620D1*
X22670D1*
X22598Y29596D1*
X22550Y29572D1*
X22502Y29524D1*
X22478Y29452D1*
Y29285D1*
X6699Y4770D2*
X6388D1*
Y4268D1*
Y4531D2*
X6579D1*
X7021Y4770D2*
Y4268D1*
X6853Y4770D2*
X7188D1*
X7678Y4698D2*
X7630Y4746D1*
X7558Y4770D1*
X7463D1*
X7391Y4746D1*
X7343Y4698D1*
Y4651D1*
X7367Y4603D1*
X7391Y4579D1*
X7438Y4555D1*
X7582Y4507D1*
X7630Y4483D1*
X7654Y4459D1*
X7678Y4411D1*
Y4340D1*
X7630Y4292D1*
X7558Y4268D1*
X7463D1*
X7391Y4292D1*
X7343Y4340D1*
X7832Y4770D2*
X7952Y4268D1*
X8071Y4770D1*
X8191Y4268D1*
X8311Y4770D1*
X8633D2*
Y4268D1*
X8465Y4770D2*
X8800D1*
X9313Y4651D2*
X9289Y4698D1*
X9241Y4746D1*
X9194Y4770D1*
X9098D1*
X9050Y4746D1*
X9002Y4698D1*
X8978Y4651D1*
X8954Y4579D1*
Y4459D1*
X8978Y4388D1*
X9002Y4340D1*
X9050Y4292D1*
X9098Y4268D1*
X9194D1*
X9241Y4292D1*
X9289Y4340D1*
X9313Y4388D1*
X9468Y4770D2*
Y4268D1*
X9802Y4770D2*
Y4268D1*
X9468Y4531D2*
X9802D1*
X10931Y31542D2*
X11146D1*
X11218Y31566D1*
X11242Y31590D1*
X11266Y31637D1*
Y31685D1*
X11242Y31733D1*
X11218Y31757D1*
X11146Y31781D1*
X10931D1*
Y31279D1*
X11099Y31542D2*
X11266Y31279D1*
X11660Y31781D2*
Y31399D1*
X11636Y31327D1*
X11612Y31303D1*
X11564Y31279D1*
X11516D1*
X11469Y31303D1*
X11445Y31327D1*
X11421Y31399D1*
Y31446D1*
X11814Y31685D2*
X11862Y31709D1*
X11934Y31780D1*
Y31279D1*
X12232Y31780D2*
X12160Y31757D1*
X12112Y31685D1*
X12089Y31565D1*
Y31494D1*
X12112Y31374D1*
X12160Y31302D1*
X12232Y31279D1*
X12280D1*
X12352Y31302D1*
X12399Y31374D1*
X12424Y31494D1*
Y31565D1*
X12399Y31685D1*
X12352Y31757D1*
X12280Y31780D1*
X12232D1*
X12399Y31685D2*
X12112Y31374D1*
X14483Y17369D2*
Y17010D1*
X14507Y16939D1*
X14555Y16891D1*
X14627Y16867D1*
X14675D1*
X14747Y16891D1*
X14795Y16939D1*
X14818Y17010D1*
Y17369D1*
X15021D2*
X15283D1*
X15140Y17177D1*
X15212D1*
X15260Y17154D1*
X15283Y17130D1*
X15308Y17058D1*
Y17010D1*
X15283Y16939D1*
X15236Y16890D1*
X15164Y16867D1*
X15092D1*
X15021Y16890D1*
X14997Y16915D1*
X14973Y16962D1*
X20943Y9255D2*
Y8896D1*
X20967Y8825D1*
X21015Y8777D1*
X21087Y8753D1*
X21135D1*
X21206Y8777D1*
X21255Y8825D1*
X21278Y8896D1*
Y9255D1*
X21720D2*
X21481D1*
X21457Y9040D1*
X21481Y9063D1*
X21553Y9088D1*
X21624D1*
X21696Y9063D1*
X21744Y9016D1*
X21768Y8944D1*
Y8896D1*
X21744Y8825D1*
X21696Y8776D1*
X21624Y8753D1*
X21553D1*
X21481Y8776D1*
X21457Y8801D1*
X21433Y8848D1*
X7253Y9302D2*
Y8944D1*
X7277Y8872D1*
X7325Y8824D1*
X7397Y8800D1*
X7444D1*
X7516Y8824D1*
X7564Y8872D1*
X7588Y8944D1*
Y9302D1*
X8029Y9230D2*
X8006Y9278D1*
X7934Y9302D1*
X7886D1*
X7814Y9278D1*
X7766Y9206D1*
X7743Y9087D1*
Y8967D1*
X7766Y8872D1*
X7814Y8824D1*
X7886Y8800D1*
X7910D1*
X7981Y8824D1*
X8029Y8872D1*
X8053Y8944D1*
Y8967D1*
X8029Y9039D1*
X7981Y9087D1*
X7910Y9110D1*
X7886D1*
X7814Y9087D1*
X7766Y9039D1*
X7743Y8967D1*
X17174Y31845D2*
Y31486D1*
X17198Y31414D1*
X17246Y31366D1*
X17318Y31342D1*
X17365D1*
X17437Y31366D1*
X17485Y31414D1*
X17509Y31486D1*
Y31845D1*
X17998Y31773D2*
X17951Y31821D1*
X17879Y31845D1*
X17783D1*
X17712Y31821D1*
X17663Y31773D1*
Y31725D1*
X17688Y31677D1*
X17712Y31653D1*
X17759Y31630D1*
X17903Y31581D1*
X17951Y31558D1*
X17975Y31533D1*
X17998Y31486D1*
Y31414D1*
X17951Y31366D1*
X17879Y31342D1*
X17783D1*
X17712Y31366D1*
X17663Y31414D1*
X18153Y31845D2*
Y31342D1*
X18368D1*
X18440Y31366D1*
X18464Y31390D1*
X18488Y31438D1*
Y31510D1*
X18464Y31558D1*
X18440Y31581D1*
X18368Y31605D1*
X18440Y31630D1*
X18464Y31653D1*
X18488Y31701D1*
Y31749D1*
X18464Y31796D1*
X18440Y31821D1*
X18368Y31845D1*
X18153D1*
Y31605D2*
X18368D1*
X11767Y4807D2*
Y4305D1*
X11983D1*
X12055Y4329D1*
X12078Y4353D1*
X12102Y4400D1*
Y4472D1*
X12078Y4520D1*
X12055Y4544D1*
X11983Y4568D1*
X12055Y4592D1*
X12078Y4616D1*
X12102Y4663D1*
Y4711D1*
X12078Y4759D1*
X12055Y4783D1*
X11983Y4807D1*
X11767D1*
Y4568D2*
X11983D1*
X14958Y4745D2*
X14720D1*
X14696Y4530D1*
X14720Y4554D1*
X14791Y4578D1*
X14863D1*
X14935Y4554D1*
X14983Y4506D1*
X15006Y4434D1*
Y4387D1*
X14983Y4315D1*
X14935Y4267D1*
X14863Y4243D1*
X14791D1*
X14720Y4267D1*
X14696Y4291D1*
X14671Y4339D1*
X15161Y4578D2*
X15305Y4243D1*
X15448Y4578D1*
X24531Y12601D2*
D102*
Y12730D1*
X24516Y12773D1*
X24502Y12788D1*
X24473Y12802D1*
X24444D1*
X24416Y12788D1*
X24401Y12773D1*
X24387Y12730D1*
Y12601D1*
X24688D1*
X24531Y12702D2*
X24688Y12802D1*
X24574Y12895D2*
Y13067D1*
X24545D1*
X24516Y13053D1*
X24502Y13038D1*
X24487Y13010D1*
Y12967D1*
X24502Y12938D1*
X24531Y12909D1*
X24574Y12895D1*
X24602D1*
X24645Y12909D1*
X24674Y12938D1*
X24688Y12967D1*
Y13010D1*
X24674Y13038D1*
X24645Y13067D1*
X24502Y13332D2*
X24732D1*
X24774Y13317D1*
X24789Y13303D1*
X24803Y13274D1*
Y13231D1*
X24789Y13203D1*
X24545Y13332D2*
X24516Y13303D1*
X24502Y13274D1*
Y13231D1*
X24516Y13203D1*
X24545Y13174D1*
X24588Y13160D1*
X24617D1*
X24660Y13174D1*
X24688Y13203D1*
X24703Y13231D1*
Y13274D1*
X24688Y13303D1*
X24660Y13332D1*
X24346Y13705D2*
X24561D1*
X24604Y13719D1*
X24633Y13748D1*
X24647Y13791D1*
Y13819D1*
X24633Y13862D1*
X24604Y13891D1*
X24561Y13906D1*
X24346D1*
X24447Y13998D2*
X24647D1*
X24504D2*
X24461Y14041D1*
X24447Y14070D1*
Y14113D1*
X24461Y14142D1*
X24504Y14156D1*
X24647D1*
X24490Y14249D2*
Y14378D1*
X24475Y14421D1*
X24461Y14435D1*
X24432Y14450D1*
X24403D1*
X24375Y14435D1*
X24360Y14421D1*
X24346Y14378D1*
Y14249D1*
X24647D1*
X24490Y14349D2*
X24647Y14450D1*
X24533Y14542D2*
Y14714D1*
X24504D1*
X24475Y14700D1*
X24461Y14686D1*
X24447Y14657D1*
Y14614D1*
X24461Y14585D1*
X24490Y14557D1*
X24533Y14542D1*
X24561D1*
X24604Y14557D1*
X24633Y14585D1*
X24647Y14614D1*
Y14657D1*
X24633Y14686D1*
X24604Y14714D1*
X24461Y14979D2*
X24691D1*
X24733Y14965D1*
X24748Y14951D1*
X24762Y14922D1*
Y14879D1*
X24748Y14850D1*
X24504Y14979D2*
X24475Y14951D1*
X24461Y14922D1*
Y14879D1*
X24475Y14850D1*
X24504Y14821D1*
X24547Y14807D1*
X24576D1*
X24619Y14821D1*
X24647Y14850D1*
X24662Y14879D1*
Y14922D1*
X24647Y14951D1*
X24619Y14979D1*
M02*
