G04 DipTrace 2.4.0.2*
%INTop.gbr*%
%MOIN*%
%ADD14C,0.006*%
%ADD15C,0.025*%
%ADD16C,0.013*%
%ADD17R,0.063X0.1024*%
%ADD18R,0.063X0.0709*%
%ADD19R,0.0591X0.1181*%
%ADD20C,0.0669*%
%ADD21R,0.0236X0.0787*%
%ADD22R,0.048X0.088*%
%ADD23R,0.1417X0.0866*%
%ADD24R,0.0394X0.0512*%
%ADD25O,0.0394X0.0512*%
%ADD26C,0.04*%
%FSLAX44Y44*%
G04*
G70*
G90*
G75*
G01*
%LNTop*%
%LPD*%
X9223Y16004D2*
D14*
Y14322D1*
X7100Y10505D2*
Y9429D1*
X6980Y9308D1*
X4623D1*
X4503Y9188D1*
Y4690D1*
Y4503D1*
X10147Y10965D2*
Y10092D1*
X10066Y10012D1*
Y9528D1*
X9223Y14322D2*
Y13566D1*
Y14322D2*
X8437D1*
X7442Y15316D1*
X4690D1*
X4503Y15504D1*
Y20067D1*
Y20442D1*
X10066Y9528D2*
X10043D1*
Y8441D1*
X4503Y20067D2*
D3*
Y4690D2*
D3*
X10128Y16704D2*
Y16004D1*
X7100Y14442D2*
Y13046D1*
X7221Y12925D1*
X8566D1*
Y12441D1*
X7128Y17004D2*
X6753D1*
X6632Y17124D1*
Y17502D1*
X5815D1*
Y16899D1*
X6632Y17502D2*
X6753Y17622D1*
Y20067D1*
Y20442D1*
X8941Y8441D2*
X6873D1*
X6753Y8320D1*
Y4753D1*
Y4503D1*
X10128Y16004D2*
Y15304D1*
X10448Y14984D1*
Y7996D1*
X8941D1*
Y8441D1*
X6753Y20067D2*
D3*
X6815Y4753D2*
X6753D1*
X9566Y9528D2*
Y11016D1*
X9356D1*
X9513Y14782D2*
X10022Y14273D1*
Y13046D1*
X9901Y12925D1*
X9066D1*
Y12441D1*
X7817Y15764D2*
X5242D1*
X5122Y15884D1*
Y18798D1*
X5242Y18919D1*
X5507D1*
X5628Y19039D1*
Y19379D1*
Y19754D1*
Y19379D2*
D3*
X7628Y17004D2*
Y16418D1*
X7508Y16297D1*
X5410D1*
Y18317D1*
X5815D1*
X8317Y17004D2*
Y16004D1*
X5690Y5378D2*
D3*
D26*
X4503Y20067D3*
X5628Y19379D3*
X6753Y20067D3*
X4503Y4690D3*
X5690Y5378D3*
X6815Y4753D3*
X9223Y14322D3*
X10147Y10965D3*
X10128Y16704D3*
X9356Y11016D3*
X8317Y17004D3*
X7817Y15764D3*
X9513Y14782D3*
X4821Y19376D2*
D15*
X5044D1*
X6211D2*
X6907D1*
X4821Y19127D2*
X5009D1*
X6211D2*
X6907D1*
X6418Y18879D2*
X6907D1*
X6418Y18630D2*
X6907D1*
X6418Y18381D2*
X6907D1*
X6418Y18133D2*
X6907D1*
X6418Y17884D2*
X6907D1*
X6418Y17635D2*
X6907D1*
X6418Y17387D2*
X6775D1*
X6418Y17138D2*
X6646D1*
X6418Y16889D2*
X6646D1*
X8793D2*
X10470D1*
X6418Y16641D2*
X6755D1*
X4821Y15646D2*
X4918D1*
X8051Y15148D2*
X8904D1*
X9825D2*
X10470D1*
X8301Y14900D2*
X8904D1*
X9989D2*
X10470D1*
X8551Y14651D2*
X8868D1*
X10086D2*
X10470D1*
X7723Y14402D2*
X7915D1*
X10313D2*
X10470D1*
X7653Y14154D2*
X8161D1*
X10340D2*
X10470D1*
X7391Y13905D2*
X8224D1*
X10340D2*
X10470D1*
X6977Y13656D2*
X8224D1*
X10340D2*
X10470D1*
X6977Y13408D2*
X8224D1*
X10340D2*
X10470D1*
X6977Y13159D2*
X8224D1*
X10340D2*
X10470D1*
X7536Y12910D2*
X8157D1*
X7696Y12662D2*
X8157D1*
X7723Y12413D2*
X8157D1*
X7637Y12164D2*
X8157D1*
X7344Y11916D2*
X8157D1*
X6977Y11667D2*
X10470D1*
X6977Y11418D2*
X9099D1*
X9614D2*
X10017D1*
X10274D2*
X10470D1*
X6977Y11169D2*
X8892D1*
X7555Y10921D2*
X8876D1*
X7700Y10672D2*
X9021D1*
X7719Y10423D2*
X9247D1*
X7625Y10175D2*
X8157D1*
X7418Y9926D2*
X8157D1*
X7418Y9677D2*
X8157D1*
X7418Y9429D2*
X8157D1*
X7293Y9180D2*
X8157D1*
X4821Y8931D2*
X8157D1*
X4821Y8683D2*
X8337D1*
X4821Y8434D2*
X8337D1*
X4821Y8185D2*
X8337D1*
X4821Y7937D2*
X8337D1*
X4821Y7688D2*
X6907D1*
X4821Y7439D2*
X6907D1*
X4821Y7190D2*
X6907D1*
X4821Y6942D2*
X6907D1*
X4821Y6693D2*
X6907D1*
X4821Y6444D2*
X6907D1*
X4821Y6196D2*
X6907D1*
X4821Y5947D2*
X5107D1*
X6274D2*
X6907D1*
X4821Y5698D2*
X5107D1*
X6274D2*
X6907D1*
X4821Y5450D2*
X5107D1*
X6274D2*
X6907D1*
X6185Y19093D2*
X6395D1*
X6391Y17540D1*
X6395Y17551D1*
Y16592D1*
X6829Y16593D1*
X6761Y16665D1*
X6709Y16751D1*
X6677Y16845D1*
X6666Y16945D1*
X6669Y17112D1*
X6690Y17210D1*
X6732Y17300D1*
X6792Y17380D1*
X6868Y17445D1*
X6931Y17481D1*
Y19584D1*
X6513Y19586D1*
X6193D1*
X6188Y19860D1*
Y19090D1*
X8361Y7888D2*
Y8869D1*
X8183D1*
Y10186D1*
X8949Y10182D1*
X9058Y10186D1*
X9273D1*
X9271Y10563D1*
X9214Y10574D1*
X9101Y10627D1*
X9007Y10709D1*
X8938Y10813D1*
X8899Y10931D1*
X8893Y11056D1*
X8920Y11177D1*
X8978Y11287D1*
X9064Y11378D1*
X9171Y11443D1*
X9291Y11477D1*
X9415D1*
X9536Y11445D1*
X9643Y11382D1*
X9730Y11293D1*
X9769Y11236D1*
X9854Y11327D1*
X9961Y11391D1*
X10081Y11425D1*
X10205Y11426D1*
X10326Y11394D1*
X10433Y11331D1*
X10496Y11267D1*
X10494Y14013D1*
Y15298D1*
X9521Y15299D1*
X9518Y15250D1*
X9692Y15211D1*
X9800Y15148D1*
X9887Y15058D1*
X9947Y14949D1*
X9978Y14782D1*
X9972Y14739D1*
X10231Y14482D1*
X10298Y14374D1*
X10317Y14273D1*
Y13100D1*
X10449D1*
Y11782D1*
X9683Y11786D1*
X9574Y11782D1*
X9183Y11786D1*
X9074Y11782D1*
X8683Y11786D1*
X8599Y11782D1*
X8183D1*
Y13100D1*
X8249D1*
Y14091D1*
X7641Y14700D1*
X7683Y14583D1*
X7700Y14459D1*
X7692Y14342D1*
X7658Y14222D1*
X7601Y14111D1*
X7521Y14015D1*
X7424Y13937D1*
X7312Y13881D1*
X7192Y13849D1*
X7067Y13843D1*
X6951Y13861D1*
X6950Y13057D1*
X7025Y13068D1*
X7150Y13071D1*
X7272Y13048D1*
X7388Y13000D1*
X7490Y12929D1*
X7576Y12838D1*
X7641Y12732D1*
X7683Y12614D1*
X7700Y12473D1*
X7687Y12349D1*
X7648Y12231D1*
X7586Y12122D1*
X7503Y12029D1*
X7403Y11956D1*
X7289Y11904D1*
X7167Y11878D1*
X7042Y11877D1*
X6947Y11896D1*
X6950Y11201D1*
Y11088D1*
X7025Y11100D1*
X7150Y11102D1*
X7272Y11079D1*
X7388Y11031D1*
X7490Y10960D1*
X7576Y10870D1*
X7641Y10763D1*
X7683Y10646D1*
X7700Y10505D1*
X7687Y10381D1*
X7648Y10262D1*
X7586Y10154D1*
X7503Y10061D1*
X7392Y9982D1*
X7395Y9429D1*
X7367Y9304D1*
X7321Y9233D1*
X7188Y9100D1*
X7095Y9036D1*
X6980Y9013D1*
X4796D1*
X4798Y5356D1*
X5063Y5358D1*
Y5011D1*
X5130Y5085D1*
Y6046D1*
X6251D1*
Y5354D1*
X6393Y5358D1*
X6931D1*
Y7763D1*
X6992Y7868D1*
X7056Y7888D1*
X8364D1*
X10451Y9060D2*
X10491D1*
X10449Y9057D1*
X10494Y9138D1*
Y10657D1*
X10440Y10609D1*
X10442Y10188D1*
X10449Y10186D1*
Y9061D1*
X5063Y19934D2*
Y19586D1*
X4801D1*
X4798Y19192D1*
X4800Y15624D1*
X4815Y15611D1*
X4975D1*
X4913Y15676D1*
X4850Y15769D1*
X4827Y15884D1*
Y18798D1*
X4855Y18923D1*
X4901Y18994D1*
X5037Y19129D1*
X5068Y19274D1*
Y19934D1*
X9648Y16709D2*
X10493D1*
X10494Y17057D1*
X8779D1*
X8782Y17004D1*
X8765Y16880D1*
X8717Y16766D1*
X8671Y16708D1*
X8822Y16705D1*
X9093Y16709D1*
X9728Y16705D1*
X9648Y16709D1*
X8927Y15299D2*
X8718Y15303D1*
X8447Y15299D1*
X7873D1*
X8560Y14616D1*
X8863Y14617D1*
X8928Y14697D1*
Y15302D1*
X8697Y15299D1*
X5815Y16899D2*
D16*
X6395D1*
X8361Y8441D2*
X8941D1*
X6753Y20442D2*
Y19587D1*
Y5358D2*
Y4503D1*
X7100Y14442D2*
Y13843D1*
Y14442D2*
X7699D1*
X8566Y12441D2*
Y11783D1*
X8183Y12441D2*
X8566D1*
X10128Y16708D2*
Y15299D1*
X6667Y17004D2*
X7128D1*
D17*
X5815Y18317D3*
Y16899D3*
D18*
X8941Y8441D3*
X10043D3*
D19*
X4503Y20442D3*
X5628Y19754D3*
X6753Y20442D3*
X4503Y4503D3*
X5690Y5190D3*
X6753Y4503D3*
D20*
X7100Y10505D3*
Y12473D3*
Y14442D3*
D21*
X10066Y12441D3*
X9566D3*
X9066D3*
X8566D3*
Y9528D3*
X9066D3*
X9566D3*
X10066D3*
D22*
X10128Y16004D3*
X9223D3*
X8317D3*
D23*
X9223Y13566D3*
D24*
X7628Y17004D3*
D25*
X7128D3*
M02*
